<?xml version="1.0" encoding="UTF-8" standalone="no"?>
<!-- Created with Inkscape (http://www.inkscape.org/) -->

<svg
   xmlns:svg="http://www.w3.org/2000/svg"
   xmlns="http://www.w3.org/2000/svg"
   version="1.1"
   width="262"
   height="262"
   id="svg3635">
  <title
     id="title4928">Znak BT-2</title>
  <defs
     id="defs3637" />
  <g
     transform="translate(-1183.4286,-363.70052)"
     id="layer1">
    <rect
       width="261.97028"
       height="261.99326"
       rx="1.9390107e-07"
       x="1183.4354"
       y="363.70053"
       id="rect4352"
       style="fill:#ffffff;fill-opacity:1;stroke:none" />
    <g
       transform="matrix(0.54718727,0,0,0.54718727,1089.8044,368.55586)"
       id="g4918"
       style="font-size:281.88085938px;font-style:normal;font-variant:normal;font-weight:bold;font-stretch:normal;text-align:start;line-height:125%;writing-mode:lr-tb;text-anchor:start;fill:#808080;fill-opacity:1;stroke:none;font-family:Drogowskaz;-inkscape-font-specification:Drogowskaz Bold">
      <path
         d="m 305.34065,237.50025 c 2.82365,-0.73302 5.75992,-1.10342 8.80881,-1.11123 9.97734,0.25262 18.2811,3.69392 24.91131,10.32393 6.62998,6.63018 10.07129,14.93394 10.32393,24.91131 -0.25264,9.9775 -3.69395,18.28126 -10.32392,24.91131 -6.63021,6.63014 -14.93397,10.07144 -24.91132,10.32393 -9.97753,-0.25249 -18.2813,-3.69379 -24.91132,-10.32392 -6.63015,-6.63005 -10.07146,-14.93381 -10.32392,-24.91132 l -35.23525,0 c 0.50502,20.06132 7.38764,36.69924 20.64786,49.91381 13.26014,13.21461 29.86767,20.06682 49.82263,20.55667 19.95478,-0.48984 36.56231,-7.34206 49.82263,-20.55666 13.26004,-13.21458 20.14265,-29.8525 20.64785,-49.91382 -0.0631,-10.02344 -1.95646,-19.40366 -5.6802,-28.14068 -3.72405,-8.73683 -8.90104,-16.39063 -15.53097,-22.96143 3.94212,-5.19629 6.98789,-10.91643 9.13732,-17.16045 2.14914,-6.24374 3.23748,-12.85225 3.26504,-19.82554 -0.44977,-17.40641 -6.48747,-31.92258 -18.11312,-43.54857 -11.62592,-11.62558 -26.14209,-17.66328 -43.54855,-18.11311 -17.40665,0.44983 -31.92283,6.48753 -43.54856,18.11312 -11.62584,11.62598 -17.66353,26.14215 -18.11312,43.54856 l 35.23525,0 c 0.19262,-7.45981 2.78021,-13.68103 7.76276,-18.66368 4.9824,-4.9823 11.20362,-7.56989 18.66367,-7.76276 7.45986,0.19287 13.68108,2.78046 18.66366,7.76276 4.98237,4.98265 7.56996,11.20387 7.76277,18.66368 -0.19281,7.4601 -2.7804,13.68132 -7.76277,18.66366 -4.98258,4.98261 -11.2038,7.5702 -18.66366,7.76277 -3.09954,-0.0146 -6.03581,-0.5207 -8.80881,-1.5182 l 0,29.05586 z"
         id="path4920"
         style="fill:#aaaaa9;fill-opacity:1" />
      <path
         d="m 466.56291,231.98461 c 0.0136,-9.16599 0.77788,-18.11895 2.29287,-26.85889 1.51489,-8.73968 3.69861,-17.21024 6.55117,-25.41171 1.93124,-5.3772 5.24903,-9.73024 9.9534,-13.05912 4.70423,-3.32854 10.18349,-5.04212 16.4378,-5.14076 6.25413,0.0986 11.73338,1.81223 16.43778,5.14076 4.7042,3.32888 8.02201,7.68192 9.95342,13.05912 2.85239,8.20147 5.0361,16.67203 6.55116,25.41171 1.51482,8.73994 2.27912,17.6929 2.29288,26.85889 -0.0138,9.16621 -0.77805,18.11916 -2.29288,26.85889 -1.51506,8.73989 -3.69877,17.21045 -6.55116,25.41171 -1.93141,5.3773 -5.24921,9.7303 -9.95342,13.05902 -4.7044,3.3288 -10.18366,5.04242 -16.43778,5.14087 -6.2543,-0.0985 -11.73356,-1.81208 -16.4378,-5.14088 -4.70437,-3.32872 -8.02217,-7.68172 -9.9534,-13.05901 -2.85256,-8.20126 -5.03628,-16.67182 -6.55117,-25.41171 -1.51499,-8.73973 -2.27928,-17.69268 -2.29287,-26.85889 z m -35.23524,0 c 0.0706,11.41474 1.24347,22.56079 3.51857,33.43818 2.27507,10.87754 5.22861,21.41126 8.86062,31.60119 4.51107,12.07183 11.93244,21.8145 22.26412,29.22806 10.33159,7.41358 22.27397,11.22634 35.82717,11.4383 13.55303,-0.21195 25.49544,-4.02471 35.82725,-11.4383 10.33157,-7.41356 17.75297,-17.15623 22.26422,-29.22806 3.63168,-10.18993 6.58514,-20.72365 8.86039,-31.60119 2.27495,-10.87739 3.44782,-22.02344 3.51862,-33.43818 -0.0708,-11.41453 -1.24367,-22.56059 -3.51862,-33.43819 -2.27526,-10.87733 -5.22872,-21.41105 -8.86039,-31.60122 -4.51125,-12.07152 -11.93265,-21.81417 -22.26422,-29.22796 -10.33181,-7.4134 -22.27422,-11.22618 -35.82725,-11.43835 -13.5532,0.21217 -25.49558,4.02495 -35.82717,11.43835 -10.33168,7.41379 -17.75305,17.15644 -22.26412,29.22796 -3.63201,10.19017 -6.58555,20.72389 -8.86062,31.60122 -2.27511,10.8776 -3.44796,22.02366 -3.51857,33.43819 z"
         id="path4922"
         style="fill:#aaaaa9;fill-opacity:1" />
    </g>
    <path
       d="m 1183.4286,363.70516 0,261.99534 261.9802,0 0,-261.99534 -261.9802,0 z m 8.8986,8.7473 225.8106,0 -225.8106,225.81057 0,-225.81057 z m 244.3646,18.64477 0,225.81056 -225.8106,0 225.8106,-225.81056 z"
       id="rect4864"
       style="fill:#000000;fill-opacity:1;stroke:none" />
  </g>
</svg>
