<?xml version="1.0" encoding="UTF-8" standalone="no"?>
<!-- Created with Inkscape (http://www.inkscape.org/) -->

<svg
   xmlns:svg="http://www.w3.org/2000/svg"
   xmlns="http://www.w3.org/2000/svg"
   version="1.1"
   width="468.7019"
   height="234.99774"
   id="svg5301">
  <title
     id="title5992">Znak D-19</title>
  <defs
     id="defs5303">
    <pattern
       patternUnits="userSpaceOnUse"
       width="370"
       height="476"
       patternTransform="translate(18.50938,18)"
       id="pattern4002">
      <rect
         ry="20"
         rx="20"
         y="0"
         x="0"
         height="476"
         width="370"
         id="rect2240"
         style="fill:#00e5ff;fill-opacity:1" />
    </pattern>
  </defs>
  <g
     transform="translate(-1051.9333,-14.860466)"
     id="layer1">
    <g
       transform="matrix(0.86243364,0,0,0.86243364,-297.23436,427.56773)"
       id="g5983">
      <rect
         width="541.96429"
         height="270.98212"
         rx="25.714285"
         ry="25.714285"
         x="1565.1227"
         y="-477.78799"
         id="rect5969"
         style="fill:#ffffff;fill-opacity:1;stroke:#000000;stroke-width:1.5;stroke-miterlimit:4;stroke-opacity:1;stroke-dasharray:none" />
      <rect
         width="524.01788"
         height="253.92856"
         rx="18.214285"
         ry="18.214285"
         x="1574.0513"
         y="-469.66299"
         id="rect5971"
         style="fill:#003399;fill-opacity:1;stroke:none" />
      <g
         transform="translate(1356.5513,-486.48946)"
         id="g5973"
         style="font-size:254.66275024px;font-style:normal;font-variant:normal;font-weight:bold;font-stretch:normal;text-align:start;line-height:125%;writing-mode:lr-tb;text-anchor:start;fill:#ffffff;fill-opacity:1;stroke:none;font-family:Drogowskaz;-inkscape-font-specification:Drogowskaz Bold">
        <path
           d="m 225.9747,76.621475 47.74944,0 0,159.166485 31.83297,0 0,-159.166485 47.74945,0 0,-31.833492 -127.33186,0 0,31.833492 z"
           id="path5975" />
        <path
           d="M 399.32906,172.64412 420.25,96.780598 l 20.92094,75.863522 -41.84188,0 z m -18.73448,63.14384 9.25276,-31.1341 60.80532,0 9.26574,31.1341 33.64493,0 -57.52294,-190.999977 -31.83297,0 -56.68325,190.999977 33.07041,0 z"
           id="path5977" />
        <path
           d="m 503.41963,44.787983 49.48762,95.405117 -49.69007,95.59486 36.01064,0 31.63401,-60.98328 31.63401,60.98328 36.01104,0 -49.69006,-95.59486 49.48752,-95.405117 -35.8085,0 -31.63401,60.863967 -31.63401,-60.863967 -35.8082,0 10e-6,0 z"
           id="path5979" />
        <path
           d="m 673.53861,44.787983 0,190.999977 31.83296,5.3e-4 0,-191.000507 -31.83296,0 z"
           id="path5981" />
      </g>
    </g>
  </g>
</svg>
