<?xml version="1.0" encoding="UTF-8" standalone="no"?>
<!-- Created with Inkscape (http://www.inkscape.org/) -->

<svg
   xmlns:svg="http://www.w3.org/2000/svg"
   xmlns="http://www.w3.org/2000/svg"
   version="1.1"
   width="602.16541"
   height="750.69501"
   id="svg2">
  <defs
     id="defs4" />
  <g
     transform="translate(-1915.3078,253.60845)"
     id="layer1">
    <g
       transform="matrix(1.501641,0,0,1.501641,1865.9202,-330.87402)"
       id="g3908">
      <rect
         width="399.00491"
         height="497.91644"
         ry="21.226416"
         x="33.889091"
         y="52.454086"
         id="rect3910"
         style="fill:#ffffff;fill-opacity:1;fill-rule:nonzero;stroke:#000000;stroke-width:2;stroke-linecap:butt;stroke-linejoin:round;stroke-miterlimit:4;stroke-opacity:1;stroke-dasharray:none;stroke-dashoffset:0" />
      <rect
         width="392.95465"
         height="492.13135"
         ry="20.915094"
         x="36.974163"
         y="55.392513"
         id="rect3912"
         style="fill:#003399;fill-opacity:1;fill-rule:nonzero;stroke:none" />
      <rect
         width="294.95468"
         height="293.98245"
         ry="0"
         x="85.965363"
         y="104.52335"
         id="rect3914"
         style="fill:#ffffff;fill-opacity:1;fill-rule:nonzero;stroke:none" />
      <path
         d="m 160.28125,150.78125 0,9.1875 -27.21875,27.21875 0,106.625 c 0,14.64964 -4.09375,21.84375 -4.09375,21.84375 -7.18042,16.08413 -5.45611,28.85639 -5.3125,29 0,0 -0.0285,15.8125 18.21875,15.8125 0,0 18.40625,0.13329 18.40625,-16.8125 l 0,-110.4375 8.875,0 0,145.625 -27.28125,0 0,9.46875 128.09375,0 0,-9.46875 -27.84375,0 0,-145.625 9.75,0 0,-82.4375 -91.59375,0 z m 13.5,18.375 59.4375,0 0,13.8125 -59.4375,0 0,-13.8125 z m -31.90625,19.53125 18.40625,11.9375 0,10.0625 -9.34375,15.0625 0,118.84375 c 0,7.10861 -9.0625,7.09375 -9.0625,7.09375 -8.76011,0 -8.75,-9.3125 -8.75,-9.3125 l 0,-4.3125 c 0,0 -0.48786,-6.39138 2.3125,-13.5 0,0 6.4375,-15.36529 6.4375,-25.5625 l 0,-110.3125 z m 31.90625,3.46875 59.4375,0 0,22.84375 -59.4375,0 0,-22.84375 z"
         id="path3916"
         style="fill:#000000;stroke:none" />
      <path
         d="m 351.96002,185.15544 0,72.70726 c 0,0 0,11.5763 -8.44878,11.5763 l -18.38188,0 0,-154.83952 -91.62214,0 0,31.95286 22.38985,0 0,8.95153 50.97632,0 0,41.02477 -50.97632,0 0,40.82168 -8.93609,0 0,114.34659 96.55026,0 0,-9.33454 -18.38188,0 0,-66.01821 18.38188,0 c 15.35394,0 15.35394,-15.02888 15.35394,-15.02888 l 0,-76.15984 1.95087,0 12.1349,-13.75885 0,0.14361 0,-16.03633 -5.88794,0 0,-13.04437 -4.16464,0 0,13.04437 -14.93527,0 0,-13.04437 -4.45186,0 0,13.04437 -5.60073,0 0,16.39535 11.9195,13.25622 2.13001,0 z"
         id="path3918"
         style="fill:#016633;fill-opacity:1;stroke:none" />
      <g
         id="g3920"
         style="font-size:44.79442596px;font-style:normal;font-variant:normal;font-weight:bold;font-stretch:normal;text-align:start;line-height:125%;writing-mode:lr-tb;text-anchor:start;fill:#ffffff;fill-opacity:1;stroke:none;font-family:Drogowskaz;-inkscape-font-specification:Drogowskaz Bold">
        <path
           d="m 261.74688,261.25679 12.59848,0 0,-5.59932 -18.19781,0 0,33.59595 18.19781,0 0,-5.59933 -12.59848,0 0,-8.39898 9.79882,0 0,-5.59933 -9.79882,0 0,-8.39899 z"
           id="path3922" />
        <path
           d="m 278.43741,255.65747 9.79882,33.59595 5.59933,0 9.79881,-33.59595 -5.59932,0 -6.99916,23.99709 -6.99915,-23.99709 -5.59933,0 z"
           id="path3924" />
      </g>
    </g>
  </g>
</svg>
