<?xml version="1.0" encoding="UTF-8" standalone="no"?>
<!-- Created with Inkscape (http://www.inkscape.org/) -->

<svg
   xmlns:svg="http://www.w3.org/2000/svg"
   xmlns="http://www.w3.org/2000/svg"
   version="1.1"
   width="602"
   height="752"
   id="svg2">
  <title
     id="title2988">Znak D-24</title>
  <defs
     id="defs4" />
  <g
     transform="translate(-1184.7143,-13.50504)"
     id="layer1">
    <rect
       width="598.76685"
       height="749.05316"
       ry="31.517262"
       x="1186.0205"
       y="14.989859"
       id="rect2188"
       style="fill:#ffffff;fill-opacity:1;fill-rule:nonzero;stroke:#000000;stroke-width:2.96962667;stroke-linecap:butt;stroke-linejoin:round;stroke-miterlimit:4;stroke-opacity:1;stroke-dasharray:none;stroke-dashoffset:0" />
    <rect
       width="589.27814"
       height="739.68829"
       rx="29.464138"
       ry="29.464138"
       x="1190.45"
       y="19.380133"
       id="rect1307"
       style="fill:#003399;fill-opacity:1;fill-rule:nonzero;stroke:none" />
    <rect
       width="440.73218"
       height="439.39633"
       ry="0"
       x="1265.4463"
       y="93.813995"
       id="rect3055"
       style="fill:#f2f2f2;fill-opacity:1;fill-rule:nonzero;stroke:none" />
    <path
       d="m 1381.3677,519.7388 c 38.3649,-20.49319 65.292,-52.90064 65.292,-52.90064 -43.9648,-68.15162 -41.2246,-153.45988 -41.2246,-153.45988 -1.9061,-88.64438 42.416,-153.93618 42.416,-153.93618 30.7396,-35.26733 72.4404,-21.20815 72.4404,-21.20815 l -11.4377,80.30428 c -24.9016,-1.54886 -37.6502,-12.86778 -37.6502,-12.86778 l -12.153,10.2467 0,196.11383 8.102,6.79149 c 19.7784,-15.25078 28.3567,-13.22527 28.3567,-13.22527 44.2031,17.03773 40.0328,61.95571 40.0328,61.95571 -18.3485,23.82922 -49.3262,21.44622 -49.3262,21.44622 -25.1441,0 -36.816,-12.1528 -36.816,-12.1528 -32.8843,36.45869 -58.5005,47.89654 -58.5005,47.89654 -2.2757,0.30368 -7.1518,-2.93857 -9.5317,-5.00407 z"
       id="path5588-4-8"
       style="fill:#000000;fill-opacity:1;stroke:none" />
  </g>
</svg>
