<?xml version="1.0" encoding="UTF-8" standalone="no"?>
<!-- Created with Inkscape (http://www.inkscape.org/) -->
<svg
   xmlns:svg="http://www.w3.org/2000/svg"
   xmlns="http://www.w3.org/2000/svg"
   version="1.0"
   width="7287.2305"
   height="1751.7457"
   id="svg2">
  <defs
     id="defs4" />
  <g
     transform="translate(5392.7315,-2321.1528)"
     id="layer1">
    <g
       transform="translate(-31078.648,8577.8469)"
       style="fill:#2e4994;fill-opacity:1"
       id="g7335">
      <g
         id="g7360">
        <g
           transform="matrix(0.7006983,0,0,0.7006983,26731.489,-11579.305)"
           style="opacity:1"
           id="g7343">
          <path
             d="M -1429.2702,7702.9044 L 7640.2378,7702.9044 L 8572.7378,8863.613 L 7640.2378,10024.312 L -1429.2702,10024.312 L -1429.2702,7702.9044 z "
             style="fill:#ffffff;fill-opacity:1;stroke:none;stroke-width:150;stroke-miterlimit:4;stroke-dashoffset:0;stroke-opacity:1"
             id="rect15201" />
          <path
             d="M -1492.1864,7596.1521 L -1492.1864,10096.152 L 7648.4176,10096.152 L 8907.7681,8846.1718 L 7648.4176,7596.1521 L -1492.1864,7596.1521 z M -1373.1795,7740.7532 L 7614.801,7740.7532 L 8403.7364,8846.1718 L 7614.8207,9951.5608 L -1373.1795,9951.5608 L -1373.1795,7740.7532 z "
             style="fill:#2e4994;fill-opacity:1;stroke:none;stroke-width:150;stroke-miterlimit:4;stroke-dasharray:none;stroke-dashoffset:0;stroke-opacity:1"
             id="rect8638" />
        </g>
        <g
           transform="translate(2200,-9353.9101)"
           style="opacity:1"
           id="g7348">
          <path
             d="M 23907.001,4037.8772 C 23907.001,4021.4468 23855.17,3834.3678 23855.17,3834.3678 L 23937.489,3834.3678 L 24050.295,4011.1999 C 24050.295,4011.1999 24086.788,3993.8819 24173.681,3982.4487 C 24260.571,3971.0156 24397.862,3965.4674 24397.862,3965.4674 L 24263.714,3398.3852 L 24352.129,3398.3852 L 24681.526,3968.9169 C 24681.526,3968.9169 25021.571,3965.3968 25041.165,3968.9169 C 25067.113,3973.5788 25236.29,4038.6393 25236.29,4037.8772 C 25236.29,4037.115 25067.113,4102.1755 25041.165,4106.8374 C 25021.571,4110.3576 24681.526,4106.8374 24681.526,4106.8374 L 24352.129,4677.3691 L 24263.714,4677.3691 L 24397.862,4110.2869 C 24397.862,4110.2869 24260.571,4104.7387 24173.681,4093.3056 C 24086.788,4081.8724 24050.295,4064.5544 24050.295,4064.5544 L 23937.489,4241.3865 L 23855.17,4241.3865 C 23855.17,4241.3865 23907.001,4037.8772 23907.001,4037.8772 z "
             transform="translate(-21.352012,-77.84693)"
             style="fill:#2e4994;fill-opacity:1;fill-rule:evenodd;stroke:none;stroke-width:6.19999981;stroke-linecap:butt;stroke-linejoin:miter;stroke-miterlimit:4;stroke-dasharray:none;stroke-opacity:1"
             id="path4590" />
          <path
             d="M 29000.075,3819.1391 C 28844.084,3819.1391 28717.461,3945.4492 28717.461,4101.049 C 28717.461,4256.6489 28844.084,4382.9591 29000.075,4382.9591 C 29054.643,4382.9591 29088.83,4377.8569 29134.866,4367.4424 L 29199.996,4232.4441 C 29070.274,4240.7624 28933.459,4295.1153 28860.213,4151.8506 L 29231.2,4150.6275 L 29231.2,3939.0837 C 29180.076,3866.5683 29095.647,3819.1391 29000.075,3819.1391 z M 29000.075,3952.646 C 29064.514,3952.646 29119.382,3993.5912 29140.045,4050.8037 L 28860.106,4050.8037 C 28880.758,3993.5912 28935.627,3952.646 29000.075,3952.646 z "
             style="fill:#2e4994;fill-opacity:1;stroke:none;stroke-width:7;stroke-miterlimit:4;stroke-dasharray:none;stroke-opacity:1"
             id="path7317" />
          <path
             d="M 28404.669,3537.229 L 28404.669,3680.0358 L 28547.904,3680.0358 L 28547.904,3537.229 L 28404.669,3537.229 z M 28405.614,3815.5139 L 28405.614,4382.9591 L 28546.957,4382.9591 L 28546.957,3815.5139 L 28405.614,3815.5139 z "
             style="fill:#2e4994;fill-opacity:1;stroke:none;stroke-width:7;stroke-miterlimit:4;stroke-opacity:1"
             id="path7319" />
          <path
             d="M 26617.569,3537.229 L 26617.569,4382.9591 L 26760.444,4382.9591 L 26760.444,4167.9768 L 26804.164,4167.9768 L 26975.003,4382.9591 L 27132.332,4382.9591 L 26931.877,4106.3339 L 27123.565,3822.3729 L 26966.236,3822.3729 L 26814.117,4026.9427 L 26760.444,4026.9427 L 26760.444,3537.229 L 26617.569,3537.229 z "
             style="fill:#2e4994;fill-opacity:1;stroke:none;stroke-width:7;stroke-miterlimit:4;stroke-opacity:1"
             id="path7321" />
          <path
             d="M 27450.664,3819.1663 C 27298,3823.0392 27175.228,3948.2611 27175.228,4101.8502 C 27175.228,4257.877 27301.882,4384.5331 27457.909,4384.5331 C 27511.902,4384.5331 27546.032,4379.4788 27591.34,4369.2621 C 27581.515,4375.8759 27529.588,4414.3983 27529.588,4490.9855 C 27529.588,4584.8453 27596.912,4625.6389 27596.912,4625.6389 L 27659.335,4539.1398 C 27659.335,4539.1393 27602.712,4521.4159 27583.087,4472.3698 C 27566.159,4430.0457 27592.892,4368.8062 27593.233,4368.0354 L 27657.88,4233.605 C 27528.132,4241.9462 27391.277,4296.4487 27318.016,4152.7911 L 27689.095,4151.5644 L 27689.095,3939.4406 C 27637.956,3866.7264 27553.507,3819.1663 27457.909,3819.1663 C 27455.472,3819.1663 27453.091,3819.1052 27450.664,3819.1663 z M 27457.909,3953.0397 C 27522.368,3953.0397 27577.251,3994.0973 27597.914,4051.4664 L 27317.909,4051.4664 C 27338.571,3994.0973 27393.45,3953.0397 27457.909,3953.0397 z "
             style="fill:#2e4994;fill-opacity:1;stroke:none;stroke-width:7;stroke-miterlimit:4;stroke-dasharray:none;stroke-opacity:1"
             id="path7323" />
          <path
             d="M 28091.094,3819.1391 C 27935.103,3819.1391 27808.479,3945.4492 27808.479,4101.049 C 27808.479,4256.6489 27935.103,4382.9591 28091.094,4382.9591 C 28159.079,4382.9591 28221.508,4358.9975 28270.291,4319.0403 L 28207.546,4194.4259 C 28180.148,4228.3768 28138.137,4250.1191 28091.094,4250.1191 C 28008.619,4250.1191 27941.651,4183.316 27941.651,4101.049 C 27941.651,4018.7827 28008.619,3951.9795 28091.094,3951.9795 C 28133.461,3951.9795 28171.646,3969.6988 28198.857,3998.001 L 28250.229,3868.0509 C 28204.901,3837.1758 28150.073,3819.1391 28091.094,3819.1391 z "
             style="fill:#2e4994;fill-opacity:1;stroke:none;stroke-width:7;stroke-miterlimit:4;stroke-dasharray:none;stroke-opacity:1"
             id="path7325" />
          <path
             d="M 26075.479,3537.1013 C 25840.212,3537.1019 25649.125,3726.6087 25649.125,3960.0301 C 25649.125,4193.4517 25840.212,4382.9591 26075.479,4382.9591 C 26310.751,4382.9591 26501.838,4193.4511 26501.838,3960.0301 C 26501.838,3726.6087 26310.751,3537.1013 26075.479,3537.1013 z M 26060.48,3672.9356 C 26065.415,3672.6873 26070.483,3672.9356 26075.479,3672.9356 C 26235.322,3672.936 26365.146,3801.4426 26365.146,3960.0301 C 26365.146,4118.6178 26235.322,4247.1248 26075.479,4247.1248 C 25915.636,4247.1248 25785.813,4118.6178 25785.813,3960.0301 C 25785.813,3806.3989 25907.551,3680.6347 26060.48,3672.9356 z "
             style="fill:#2e4994;fill-opacity:1;stroke:none;stroke-width:7;stroke-miterlimit:4;stroke-dasharray:none;stroke-opacity:1"
             id="path7327" />
        </g>
      </g>
    </g>
  </g>
</svg>
