<?xml version="1.0" encoding="UTF-8" standalone="no"?>
<!-- Created with Inkscape (http://www.inkscape.org/) -->
<svg
   xmlns:svg="http://www.w3.org/2000/svg"
   xmlns="http://www.w3.org/2000/svg"
   xmlns:sodipodi="http://sodipodi.sourceforge.net/DTD/sodipodi-0.dtd"
   xmlns:inkscape="http://www.inkscape.org/namespaces/inkscape"
   version="1.0"
   width="8146.5596"
   height="1636.8959"
   id="svg2"
   sodipodi:version="0.32"
   inkscape:version="0.45"
   sodipodi:docname="Znak E-6a.PKP.svg"
   sodipodi:docbase="/home/szczepan/Desktop/znaki/nowe"
   inkscape:output_extension="org.inkscape.output.svg.inkscape"
   sodipodi:modified="true">
  <defs
     id="defs24" />
  <sodipodi:namedview
     inkscape:window-height="689"
     inkscape:window-width="1013"
     inkscape:pageshadow="2"
     inkscape:pageopacity="0.0"
     guidetolerance="10.0"
     gridtolerance="10.0"
     objecttolerance="10.0"
     borderopacity="1.0"
     bordercolor="#666666"
     pagecolor="#ffffff"
     id="base"
     inkscape:zoom="0.031388819"
     inkscape:cx="11612.728"
     inkscape:cy="-1711.9142"
     inkscape:window-x="0"
     inkscape:window-y="25"
     inkscape:current-layer="svg2" />
  <g
     transform="translate(2222.4658,95.913768)"
     id="layer1">
    <g
       transform="translate(26200,18300)"
       id="g4619">
      <g
         transform="matrix(1.4279886,0,0,1.4279886,-23282.331,-21706.044)"
         style="opacity:1"
         id="g4534">
        <g
           transform="translate(-31078.648,8577.8469)"
           style="fill:#2e4994;fill-opacity:1"
           id="g7335" />
      </g>
      <g
         transform="matrix(0.5602591,0,0,0.5602591,-13624.533,-8087.4799)"
         id="g4649">
        <g
           id="g2864"
           transform="matrix(2.4189648,0,0,2.4189648,28125.125,2430.0231)">
          <path
             sodipodi:nodetypes="cccccc"
             id="path4539"
             style="fill:#ffffff;fill-opacity:1;stroke:none;stroke-width:150;stroke-miterlimit:4;stroke-dashoffset:0;stroke-opacity:1"
             d="M -22515.766,-8567.743 L -17147.174,-8567.743 L -16696.657,-8006.972 L -17147.174,-7446.205 L -22515.766,-7446.205 L -22515.766,-8567.743 z " />
          <path
             sodipodi:nodetypes="cccccccccccc"
             id="path4541"
             style="fill:#2e4994;fill-opacity:1;stroke:none;stroke-width:150;stroke-miterlimit:4;stroke-dasharray:none;stroke-dashoffset:0;stroke-opacity:1"
             d="M -22545.919,-8610.885 L -22545.919,-7403.064 L -17143.223,-7403.064 L -16534.794,-8006.965 L -17143.223,-8610.885 L -22545.919,-8610.885 z M -22488.424,-8541.024 L -17159.464,-8541.024 L -16778.306,-8006.965 L -17159.454,-7472.921 L -22488.424,-7472.921 L -22488.424,-8541.024 z " />
          <g
             style="fill:#2e4994;fill-opacity:1"
             transform="translate(-16142.22,5692.593)"
             id="g2821">
            <path
               id="path2791"
               style="opacity:1;fill:#2e4994;fill-opacity:1;stroke:none;stroke-width:7;stroke-miterlimit:4;stroke-opacity:1"
               d="M -6038.5994,-13984.316 L -6038.5994,-13414.819 L -5777.9885,-13414.819 C -5777.9885,-13414.819 -5588.967,-13488.288 -5588.967,-13699.568 C -5588.967,-13908.256 -5777.9885,-13984.316 -5777.9885,-13984.316 L -6038.5994,-13984.316 z M -5943.0987,-13888.134 L -5797.6266,-13888.134 C -5797.6266,-13888.134 -5684.705,-13835.431 -5684.705,-13699.568 C -5684.705,-13561.911 -5797.6266,-13512.899 -5797.6266,-13512.899 L -5943.0987,-13512.899 L -5943.0987,-13888.134 z " />
            <path
               id="path2793"
               style="opacity:1;fill:#2e4994;fill-opacity:1;stroke:none;stroke-width:7;stroke-miterlimit:4;stroke-opacity:1"
               d="M -2122.2952,-13984.315 L -2122.2952,-13414.819 L -2026.0379,-13414.819 L -2026.0379,-13606.909 L -1982.1394,-13656.306 L -1817.0013,-13414.819 L -1690.6535,-13414.819 L -1917.9678,-13728.489 L -1690.6535,-13984.315 L -1816.9214,-13984.315 L -2026.0379,-13749.044 L -2026.0379,-13984.315 L -2122.2952,-13984.315 z " />
            <path
               id="path2795"
               style="opacity:1;fill:#2e4994;fill-opacity:1;stroke:none;stroke-width:7;stroke-miterlimit:4;stroke-opacity:1"
               d="M -2551.3833,-13984.315 L -2551.3833,-13414.819 L -2454.0529,-13414.819 L -2454.0529,-13651.685 L -2292.234,-13651.685 C -2292.234,-13651.685 -2193.9469,-13704.899 -2193.9472,-13817.8 C -2193.9469,-13940.614 -2292.234,-13984.315 -2292.234,-13984.315 L -2454.0529,-13984.315 L -2551.3833,-13984.315 z M -2321.0903,-13889.426 C -2321.0903,-13889.426 -2287.6901,-13853.632 -2287.6905,-13817.8 C -2287.6905,-13781.97 -2321.0903,-13746.096 -2321.0903,-13746.096 L -2454.0529,-13746.096 L -2454.0529,-13888.071 L -2321.0903,-13889.426 z " />
            <path
               id="path2797"
               style="opacity:1;fill:#2e4994;fill-opacity:1;stroke:none;stroke-width:7;stroke-miterlimit:4;stroke-dasharray:none;stroke-opacity:1"
               d="M -3544.8936,-13794.484 C -3649.9332,-13794.484 -3735.2001,-13709.428 -3735.2001,-13604.652 C -3735.2001,-13499.874 -3649.9332,-13414.819 -3544.8936,-13414.819 C -3508.1477,-13414.819 -3485.1287,-13418.256 -3454.1273,-13425.268 L -3410.2704,-13516.173 C -3497.6216,-13510.571 -3589.7527,-13473.972 -3639.073,-13570.443 L -3389.2578,-13571.266 L -3389.2578,-13713.715 C -3423.6838,-13762.546 -3480.5385,-13794.484 -3544.8936,-13794.484 z M -3544.8936,-13704.583 C -3501.4998,-13704.583 -3464.5528,-13677.012 -3450.6419,-13638.485 L -3639.147,-13638.485 C -3625.238,-13677.012 -3588.291,-13704.583 -3544.8936,-13704.583 z " />
            <path
               id="path2799"
               style="opacity:1;fill:#2e4994;fill-opacity:1;stroke:none;stroke-width:7;stroke-miterlimit:4;stroke-opacity:1"
               d="M -4271.7248,-13776.841 L -4271.7248,-13794.484 L -4366.1356,-13794.484 L -4366.1356,-13414.819 L -4271.7248,-13414.819 L -4271.7248,-13660.889 C -4248.9295,-13688.407 -4212.5672,-13702.25 -4177.1554,-13700.867 L -4177.1554,-13794.484 C -4219.164,-13793.118 -4252.7104,-13789.129 -4271.7248,-13776.841 z " />
            <path
               id="path2801"
               style="opacity:1;fill:#2e4994;fill-opacity:1;stroke:none;stroke-width:7;stroke-miterlimit:4;stroke-opacity:1"
               d="M -5498.8749,-13794.483 L -5406.2684,-13414.819 L -5311.597,-13414.819 L -5241.229,-13641.827 L -5170.8607,-13414.819 L -5076.1894,-13414.819 L -4983.5832,-13794.483 L -5078.2545,-13794.483 L -5129.1639,-13585.748 L -5193.8933,-13794.483 L -5288.5646,-13794.483 L -5353.2937,-13585.748 L -5404.2034,-13794.483 L -5498.8749,-13794.483 z " />
            <path
               id="path2803"
               style="opacity:1;fill:#2e4994;fill-opacity:1;stroke:none;stroke-width:7;stroke-miterlimit:4;stroke-opacity:1"
               d="M -4111.5309,-13794.483 L -4111.5309,-13700.199 L -3981.1872,-13700.199 L -4111.5309,-13461.564 L -4111.5309,-13414.819 L -3852.7513,-13414.819 L -3852.7513,-13509.102 L -3984.2869,-13509.102 L -3852.7513,-13754.143 L -3852.7513,-13794.483 L -4111.5309,-13794.483 z " />
            <path
               id="path2805"
               style="opacity:1;fill:#2e4994;fill-opacity:1;stroke:none;stroke-width:7;stroke-miterlimit:4;stroke-dasharray:none;stroke-opacity:1"
               d="M -3083.3958,-13794.484 C -3188.4356,-13794.484 -3273.7024,-13709.429 -3273.7024,-13604.651 C -3273.7024,-13499.874 -3188.4356,-13414.819 -3083.3958,-13414.819 C -3037.6159,-13414.819 -2995.5776,-13430.954 -2962.729,-13457.861 L -3004.9781,-13541.773 C -3023.4298,-13518.912 -3051.7167,-13504.271 -3083.3958,-13504.271 C -3138.9331,-13504.271 -3184.0277,-13549.254 -3184.0277,-13604.651 C -3184.0277,-13660.048 -3138.9331,-13705.032 -3083.3958,-13705.032 C -3054.866,-13705.032 -3029.1532,-13693.099 -3010.8307,-13674.042 L -2976.2376,-13761.547 C -3006.7606,-13782.338 -3043.6792,-13794.484 -3083.3958,-13794.484 z " />
            <path
               id="path2807"
               style="opacity:1;fill:#2e4994;fill-opacity:1;stroke:none;stroke-width:7;stroke-miterlimit:4;stroke-dasharray:none;stroke-opacity:1"
               d="M -4695.5508,-13794.483 C -4800.8674,-13794.483 -4886.3416,-13709.439 -4886.3416,-13604.651 C -4886.3416,-13499.864 -4800.8674,-13414.819 -4695.5508,-13414.819 C -4590.2343,-13414.819 -4504.7599,-13499.864 -4504.7599,-13604.651 C -4504.7599,-13709.439 -4590.2343,-13794.483 -4695.5508,-13794.483 z M -4692.689,-13698.302 C -4640.408,-13698.302 -4597.9294,-13656.037 -4597.9294,-13604.019 C -4597.9294,-13552 -4640.408,-13509.815 -4692.689,-13509.815 C -4744.97,-13509.815 -4787.3688,-13552 -4787.3688,-13604.019 C -4787.3688,-13656.037 -4744.9702,-13698.302 -4692.689,-13698.302 z " />
            <path
               id="path2809"
               style="opacity:1;fill:#2e4994;fill-opacity:1;stroke:none;stroke-width:7;stroke-miterlimit:4;stroke-opacity:1"
               d="M -1603.7714,-13984.316 L -1603.7714,-13414.819 L -1506.4409,-13414.819 L -1506.4409,-13651.686 L -1344.622,-13651.686 C -1344.622,-13651.686 -1246.3349,-13704.9 -1246.3352,-13817.801 C -1246.3349,-13940.615 -1344.622,-13984.316 -1344.622,-13984.316 L -1506.4409,-13984.316 L -1603.7714,-13984.316 z M -1373.4785,-13889.427 C -1373.4785,-13889.427 -1340.0783,-13853.631 -1340.0785,-13817.801 C -1340.0785,-13781.971 -1373.4785,-13746.096 -1373.4785,-13746.096 L -1506.4409,-13746.096 L -1506.4409,-13888.072 L -1373.4785,-13889.427 z " />
          </g>
        </g>
      </g>
    </g>
  </g>
</svg>
