<?xml version="1.0" encoding="UTF-8" standalone="no"?>
<!-- Created with Inkscape (http://www.inkscape.org/) -->
<svg
   xmlns:svg="http://www.w3.org/2000/svg"
   xmlns="http://www.w3.org/2000/svg"
   xmlns:sodipodi="http://sodipodi.sourceforge.net/DTD/sodipodi-0.dtd"
   xmlns:inkscape="http://www.inkscape.org/namespaces/inkscape"
   version="1.0"
   width="9149.457"
   height="1635.9838"
   id="svg2"
   sodipodi:version="0.32"
   inkscape:version="0.45"
   sodipodi:docname="Znak E-6c.svg"
   sodipodi:docbase="/home/szczepan/Desktop/znaki/nowe"
   inkscape:output_extension="org.inkscape.output.svg.inkscape"
   sodipodi:modified="true">
  <defs
     id="defs20" />
  <sodipodi:namedview
     inkscape:window-height="594"
     inkscape:window-width="822"
     inkscape:pageshadow="2"
     inkscape:pageopacity="0.0"
     guidetolerance="10.0"
     gridtolerance="10.0"
     objecttolerance="10.0"
     borderopacity="1.0"
     bordercolor="#666666"
     pagecolor="#ffffff"
     id="base"
     inkscape:zoom="0.080004748"
     inkscape:cx="4574.7285"
     inkscape:cy="817.99188"
     inkscape:window-x="0"
     inkscape:window-y="25"
     inkscape:current-layer="svg2" />
  <g
     transform="translate(-5567.7871,9316.3061)"
     id="layer1">
    <g
       transform="translate(-16700,5500)"
       id="g12151">
      <g
         transform="matrix(6.531927,0,0,6.531927,-130257.88,-79477.125)"
         id="g12177">
        <g
           transform="translate(-9752.0403,-1122.4395)"
           style="fill:#2e4994;fill-opacity:1"
           id="g10767" />
        <g
           transform="matrix(0.1347605,0,0,0.1347605,21212.966,8573.4269)"
           id="g12196">
          <path
             d="M 15922.211,9904.1775 L 25302.647,9904.1775 L 25995.888,10767.073 L 25302.647,11629.962 L 15922.211,11629.962 L 15922.211,9904.1775 z "
             style="opacity:1;fill:#ffffff;fill-opacity:1;stroke:none;stroke-width:150;stroke-miterlimit:4;stroke-dashoffset:0;stroke-opacity:1"
             id="rect15201" />
          <path
             d="M 15863.89,9837.9575 L 15863.89,11696.511 L 25321.87,11696.511 L 26258.098,10767.249 L 25321.87,9837.9575 L 15863.89,9837.9575 z M 15952.363,9945.4571 L 25296.879,9945.4571 L 25883.39,10767.249 L 25296.894,11589.019 L 15952.363,11589.019 L 15952.363,9945.4571 z "
             style="opacity:1;fill:#2e4994;fill-opacity:1;stroke:none;stroke-width:150;stroke-miterlimit:4;stroke-dasharray:none;stroke-dashoffset:0;stroke-opacity:1"
             id="rect8638" />
          <path
             d="M 29956.248,11472.632 L 30193.424,11947.006 L 30193.424,12306.721 L 30334.86,12306.721 L 30334.86,11947.006 L 30572.035,11472.632 L 30430.596,11472.632 L 30264.203,11812.07 L 30097.687,11472.632 L 29956.248,11472.632 z "
             transform="translate(-9752.041,-1122.4395)"
             style="fill:#2e4994;fill-opacity:1;stroke:none;stroke-width:7;stroke-miterlimit:4;stroke-opacity:1"
             id="path8026" />
          <path
             d="M 31852.615,11750.661 C 31698.866,11750.661 31574.08,11875.191 31574.08,12028.633 C 31574.08,12182.071 31698.866,12306.607 31852.615,12306.607 C 31912.745,12306.607 31968.399,12287.438 32013.937,12255.062 L 32027.51,12306.721 L 32165.854,12306.721 L 32129.76,12170.976 L 32129.76,12057.009 C 32130.708,12047.666 32131.151,12038.222 32131.151,12028.633 C 32131.151,12019.045 32130.708,12009.596 32129.76,12000.257 L 32129.76,11750.776 L 31991.415,11750.776 L 31991.415,11787.723 C 31950.54,11764.205 31903.156,11750.661 31852.615,11750.661 z M 31856.795,11891.498 C 31922.218,11891.498 31977.07,11936.972 31991.415,11997.939 L 31991.415,12061.18 C 31977.07,12122.122 31922.218,12167.504 31856.795,12167.504 C 31780.468,12167.504 31718.571,12105.729 31718.571,12029.557 C 31718.571,11953.39 31780.468,11891.498 31856.795,11891.498 z "
             transform="translate(-9752.041,-1122.4395)"
             style="fill:#2e4994;fill-opacity:1;stroke:none;stroke-width:7;stroke-miterlimit:4;stroke-dasharray:none;stroke-opacity:1"
             id="path8028" />
          <path
             d="M 32884.639,11472.629 L 32884.639,12306.721 L 32743.526,12306.721 L 32743.526,12269.85 C 32702.448,12293.329 32654.879,12306.721 32604.168,12306.721 C 32449.149,12306.721 32323.34,12181.258 32323.34,12026.667 C 32323.34,11872.079 32449.149,11746.617 32604.168,11746.617 C 32654.879,11746.617 32702.448,11760.125 32743.526,11783.604 L 32743.526,11472.629 L 32884.639,11472.629 z M 32599.953,11888.508 C 32523.003,11888.508 32460.48,11950.86 32460.48,12027.6 C 32460.48,12104.343 32523.003,12166.575 32599.953,12166.575 C 32676.907,12166.575 32739.314,12104.343 32739.314,12027.6 C 32739.314,11950.86 32676.907,11888.508 32599.953,11888.508 z "
             transform="translate(-9752.041,-1122.4395)"
             style="fill:#2e4994;fill-opacity:1;stroke:none;stroke-width:7;stroke-miterlimit:4;stroke-dasharray:none;stroke-opacity:1"
             id="path8030" />
          <path
             d="M 31321.307,11472.628 L 31182.461,11610.053 L 31182.461,11745.847 L 31074.717,11745.847 L 31074.717,11884.668 L 31182.461,11884.668 L 31182.461,12064.717 C 31180.519,12197.665 31252.929,12301.341 31392.124,12306.721 L 31462.592,12168.743 C 31423.14,12168.743 31419.205,12168.743 31370.577,12168.743 C 31351.806,12168.743 31321.307,12132.193 31321.307,12112.696 C 31321.307,12042.226 31321.307,11884.668 31321.307,11884.668 L 31428.816,11884.668 L 31428.816,11745.847 L 31321.307,11745.847 L 31321.307,11472.628 z "
             transform="translate(-9752.041,-1122.4395)"
             style="fill:#2e4994;fill-opacity:1;stroke:none;stroke-width:7;stroke-miterlimit:4;stroke-dasharray:none;stroke-opacity:1"
             id="path8032" />
          <path
             d="M 30795.819,11750.574 C 30790.075,11750.634 30784.192,11750.81 30778.07,11751 C 30709.42,11751 30650.867,11820.524 30650.867,11892.992 C 30651.479,11978.714 30692.44,12011.3 30756.093,12054.428 C 30836.298,12103.358 30863.155,12095.431 30856.672,12156.273 C 30829.399,12222.97 30706.625,12183.218 30643.681,12163.879 L 30610.296,12267.841 C 30662.95,12289.989 30719.412,12303.884 30775.11,12306.721 C 30863.123,12306.721 30970.352,12275.895 30970.352,12140.215 C 30976.067,12068.719 30924.724,12024.326 30884.988,11998.218 C 30849.928,11967.559 30768.481,11949.926 30767.925,11894.683 C 30783.992,11837.544 30866.3,11868.992 30905.276,11882.003 L 30906.117,11761.142 C 30867.831,11753.088 30836.028,11750.168 30795.819,11750.574 z "
             transform="translate(-9752.041,-1122.4395)"
             style="fill:#2e4994;fill-opacity:1;stroke:none;stroke-width:7;stroke-miterlimit:4;stroke-dasharray:none;stroke-opacity:1"
             id="path8034" />
          <g
             transform="translate(-9752.0403,-1128.3109)"
             style="fill:#2e4994;fill-opacity:1"
             id="g12133">
            <path
               d="M 24987.385 10673.434 A 609.87958 353.55341 0 1 1  23767.626,10673.434 A 609.87958 353.55341 0 1 1  24987.385 10673.434 z"
               transform="matrix(0.9782609,0,0,1.15,10401.31,-378.90274)"
               style="opacity:1;fill:none;fill-opacity:1;stroke:#000000;stroke-width:18.85618019;stroke-miterlimit:4;stroke-dasharray:none;stroke-opacity:1"
               id="path8041" />
            <path
               d="M 34255.467,11617.11 C 34251.949,11617.094 34248.381,11617.298 34244.748,11617.393 C 34163.21,11617.393 34095.514,11683.15 34095.514,11764.368 C 34095.514,11811.333 34117.789,11854.497 34152.216,11881.442 C 34152.216,11881.442 34214.225,11918.998 34220.487,11922.347 C 34315.747,11971.731 34324.904,12013.152 34304.833,12049.574 C 34242.315,12114.159 34153.319,12079.383 34078.022,12055.781 L 34045.581,12142.666 C 34108.119,12165.022 34169.179,12173.983 34241.642,12173.983 C 34330.311,12173.983 34402.16,12102.358 34402.16,12014.031 C 34402.16,11960.658 34375.944,11913.34 34335.583,11884.261 C 34291.84,11860.322 34247.112,11833.891 34203.278,11808.66 C 34194.027,11802.426 34180.414,11776.533 34184.939,11751.674 C 34189.468,11726.815 34209.927,11712.201 34221.333,11709.36 C 34271.561,11701.842 34322.905,11713.826 34370.845,11728.259 L 34397.083,11638.551 C 34348.362,11629.846 34308.23,11617.369 34255.467,11617.11 z "
               style="fill:#000000;fill-opacity:1;stroke:none;stroke-width:7;stroke-miterlimit:4;stroke-dasharray:none;stroke-opacity:1"
               id="path10761" />
          </g>
          <path
             d="M 16918.554,10234.877 L 17101.281,10667.648 L 17043.012,10667.648 L 16656.382,10894.903 L 16374.358,10894.903 L 16374.358,11012.341 L 16439.242,11299.594 L 19467.426,11299.594 L 19687.22,10894.903 L 19242.322,10894.903 L 19100.075,10721.366 L 18688.854,10721.366 L 18645.169,10667.648 L 18380.341,10667.648 L 18334.001,10551.49 L 18054.613,10551.49 L 18054.613,10610.209 L 17981.804,10610.209 L 17761.989,10321.695 L 17548.812,10321.695 L 17664.02,10610.209 L 17604.425,10610.209 L 17604.425,10667.648 L 17156.892,10667.648 L 16918.554,10234.877 z M 16946.88,10930.13 L 17190.918,10930.13 L 17269.057,11060.584 L 17451.415,11060.584 C 17451.415,11060.584 17451.415,11112.503 17451.415,11139.603 C 17451.415,11157.892 17439.771,11172.606 17430.133,11172.606 C 17421.147,11172.606 17410.987,11172.624 17400.398,11172.646 C 17400.622,11174.672 17400.745,11176.726 17400.745,11178.809 C 17400.745,11210.606 17373.987,11236.424 17341.007,11236.424 C 17308.026,11236.424 17281.268,11210.606 17281.268,11178.809 C 17281.268,11176.889 17281.365,11174.99 17281.556,11173.118 C 17173.2,11173.692 17050.892,11174.59 16953.376,11175.323 C 16953.448,11176.479 16953.478,11177.637 16953.478,11178.809 C 16953.478,11210.606 16926.719,11236.424 16893.739,11236.424 C 16860.76,11236.424 16834.002,11210.606 16834.002,11178.809 C 16834.002,11177.941 16834.003,11177.087 16834.042,11176.229 C 16816.804,11176.355 16804.464,11176.426 16801.651,11176.426 C 16787.016,11176.426 16779.207,11162.779 16779.206,11156.066 C 16779.206,11140.394 16779.207,11119.145 16779.206,11119.145 L 16946.88,10930.13 z M 17841.294,10930.13 L 18085.329,10930.13 L 18163.468,11060.584 L 18345.827,11060.584 C 18345.827,11060.584 18345.826,11112.503 18345.827,11139.603 C 18345.827,11157.892 18334.183,11172.606 18324.546,11172.606 C 18315.56,11172.606 18305.399,11172.624 18294.81,11172.646 C 18295.034,11174.672 18295.157,11176.726 18295.157,11178.809 C 18295.157,11210.606 18268.399,11236.424 18235.419,11236.424 C 18202.44,11236.424 18175.682,11210.606 18175.682,11178.809 C 18175.682,11176.889 18175.776,11174.99 18175.966,11173.118 C 18067.611,11173.692 17945.305,11174.59 17847.788,11175.323 C 17847.859,11176.479 17847.889,11177.637 17847.889,11178.809 C 17847.889,11210.606 17821.131,11236.424 17788.152,11236.424 C 17755.171,11236.424 17728.413,11210.606 17728.413,11178.809 C 17728.413,11177.941 17728.414,11177.087 17728.455,11176.229 C 17711.214,11176.355 17698.877,11176.426 17696.065,11176.426 C 17681.428,11176.426 17673.618,11162.779 17673.618,11156.066 C 17673.618,11140.394 17673.618,11119.145 17673.618,11119.145 L 17841.294,10930.13 z M 18735.725,10930.13 L 18979.762,10930.13 L 19057.9,11060.584 L 19240.259,11060.584 C 19240.259,11060.584 19240.259,11112.503 19240.259,11139.603 C 19240.259,11157.892 19228.615,11172.606 19218.978,11172.606 C 19209.993,11172.606 19199.831,11172.624 19189.242,11172.646 C 19189.466,11174.672 19189.589,11176.726 19189.589,11178.809 C 19189.589,11210.606 19162.83,11236.424 19129.85,11236.424 C 19096.872,11236.424 19070.114,11210.606 19070.114,11178.809 C 19070.114,11176.889 19070.208,11174.99 19070.399,11173.118 C 18962.044,11173.692 18839.737,11174.59 18742.219,11175.323 C 18742.292,11176.479 18742.321,11177.637 18742.321,11178.809 C 18742.321,11210.606 18715.564,11236.424 18682.584,11236.424 C 18649.603,11236.424 18622.846,11210.606 18622.846,11178.809 C 18622.846,11177.941 18622.846,11177.087 18622.887,11176.229 C 18605.647,11176.355 18593.308,11176.426 18590.496,11176.426 C 18575.862,11176.426 18568.051,11162.779 18568.051,11156.066 C 18568.051,11140.394 18568.051,11119.145 18568.051,11119.145 L 18735.725,10930.13 z M 16941.611,10983.355 L 16941.611,11061.489 L 17092.784,11061.489 L 17092.784,10983.355 L 16941.611,10983.355 z M 17110.592,10983.355 L 17110.592,11061.489 L 17241.321,11061.489 L 17193.592,10983.355 L 17110.592,10983.355 z M 17836.023,10983.355 L 17836.023,11061.489 L 17987.196,11061.489 L 17987.196,10983.355 L 17836.023,10983.355 z M 18005.024,10983.355 L 18005.024,11061.489 L 18135.733,11061.489 L 18088.005,10983.355 L 18005.024,10983.355 z M 18730.435,10983.355 L 18730.435,11061.489 L 18881.627,11061.489 L 18881.627,10983.355 L 18730.435,10983.355 z M 18899.438,10983.355 L 18899.438,11061.489 L 19030.166,11061.489 L 18982.437,10983.355 L 18899.438,10983.355 z "
             style="opacity:1;fill:#2e4994;fill-opacity:1;fill-rule:evenodd;stroke:none;stroke-width:12.89999962;stroke-linecap:butt;stroke-linejoin:miter;stroke-miterlimit:4;stroke-dasharray:none;stroke-opacity:1"
             id="path4144" />
        </g>
      </g>
    </g>
  </g>
</svg>
