<?xml version="1.0" encoding="UTF-8" standalone="no"?>
<!-- Created with Inkscape (http://www.inkscape.org/) -->
<svg
   xmlns:dc="http://purl.org/dc/elements/1.1/"
   xmlns:cc="http://web.resource.org/cc/"
   xmlns:rdf="http://www.w3.org/1999/02/22-rdf-syntax-ns#"
   xmlns:svg="http://www.w3.org/2000/svg"
   xmlns="http://www.w3.org/2000/svg"
   xmlns:sodipodi="http://sodipodi.sourceforge.net/DTD/sodipodi-0.dtd"
   xmlns:inkscape="http://www.inkscape.org/namespaces/inkscape"
   version="1.0"
   width="150.5186"
   height="210.84962"
   id="svg4675"
   sodipodi:version="0.32"
   inkscape:version="0.45.1"
   sodipodi:docname="Znak P-20.svg"
   inkscape:output_extension="org.inkscape.output.svg.inkscape"
   sodipodi:docbase="D:\Documents and Settings\Maciek\Pulpit">
  <metadata
     id="metadata10">
    <rdf:RDF>
      <cc:Work
         rdf:about="">
        <dc:format>image/svg+xml</dc:format>
        <dc:type
           rdf:resource="http://purl.org/dc/dcmitype/StillImage" />
      </cc:Work>
    </rdf:RDF>
  </metadata>
  <sodipodi:namedview
     inkscape:window-height="579"
     inkscape:window-width="840"
     inkscape:pageshadow="2"
     inkscape:pageopacity="0.0"
     guidetolerance="10.0"
     gridtolerance="10.0"
     objecttolerance="10.0"
     borderopacity="1.0"
     bordercolor="#666666"
     pagecolor="#ffffff"
     id="base"
     showgrid="true"
     inkscape:zoom="1.1769945"
     inkscape:cx="89.828941"
     inkscape:cy="96.389097"
     inkscape:window-x="104"
     inkscape:window-y="108"
     inkscape:current-layer="svg4675"
     inkscape:object-bbox="true" />
  <defs
     id="defs4677" />
  <rect
     width="150.5186"
     height="210.84962"
     rx="0"
     ry="0"
     x="0"
     y="0"
     style="fill:#9d9d9d;fill-opacity:1;fill-rule:evenodd;stroke:none;stroke-width:1px;stroke-linecap:butt;stroke-linejoin:miter;stroke-opacity:1"
     id="rect4683" />
  <g
     transform="translate(9.3965,-7.0922699)"
     id="layer5" />
  <g
     transform="translate(32.826655,13.934792)"
     id="layer6" />
  <rect
     style="opacity:1;fill:#ffffff;fill-opacity:1;fill-rule:evenodd;stroke:#ffffff;stroke-width:3.79999995;stroke-miterlimit:4;stroke-dasharray:none;stroke-opacity:1"
     id="rect2164"
     width="1.1756039"
     height="186.1756"
     x="16.912195"
     y="12.761829" />
  <rect
     style="opacity:1;fill:#ffffff;fill-opacity:1;fill-rule:evenodd;stroke:#ffffff;stroke-width:3.79999995;stroke-miterlimit:4;stroke-dasharray:none;stroke-opacity:1"
     id="rect3145"
     width="1.1756039"
     height="186.1756"
     x="101.9122"
     y="12.761833" />
  <rect
     style="opacity:1;fill:#ffffff;fill-opacity:1;fill-rule:evenodd;stroke:#ffffff;stroke-width:3.79999995;stroke-miterlimit:4;stroke-dasharray:none;stroke-opacity:1"
     id="rect6056"
     width="86.20433"
     height="1.6133461"
     x="16.928591"
     y="10.84963" />
  <rect
     style="opacity:1;fill:#ffffff;fill-opacity:1;fill-rule:evenodd;stroke:#ffffff;stroke-width:3.79999995;stroke-miterlimit:4;stroke-dasharray:none;stroke-opacity:1"
     id="rect6058"
     width="86.054138"
     height="1.6133461"
     x="16.9"
     y="197.33627" />
  <path
     style="fill:#ffffff;fill-rule:evenodd;stroke:#ffffff;stroke-width:3.79999995;stroke-linecap:butt;stroke-linejoin:miter;stroke-miterlimit:4;stroke-dasharray:none;stroke-opacity:1"
     d="M 19.987799,195.63723 L 19.987799,195.63723 L 99.95025,14.141363"
     id="path7029"
     sodipodi:nodetypes="ccc" />
  <path
     style="fill:#ffffff;fill-rule:evenodd;stroke:#ffffff;stroke-width:3.79999995;stroke-linecap:butt;stroke-linejoin:miter;stroke-miterlimit:4;stroke-dasharray:none;stroke-opacity:1"
     d="M 99.525428,195.85884 L 99.525428,195.85884 L 19.562987,14.362976"
     id="path8969"
     sodipodi:nodetypes="ccc" />
  <g
     id="g8980"
     transform="matrix(1,0,0,0.9230159,31.172719,2.7410738e-2)">
    <g
       transform="matrix(0.4152636,0,0,2.9699961,-8.305272,-324.22458)"
       id="g2163" />
    <path
       id="path2161"
       d=""
       style="fill:#000000" />
    <rect
       y="-9.0196638"
       x="79.732941"
       height="258.18869"
       width="49.361397"
       id="rect2174"
       style="opacity:0.95;fill:#cdcdcd;fill-opacity:1;fill-rule:evenodd;stroke:#000000;stroke-width:1.81131887;stroke-miterlimit:4;stroke-dasharray:none;stroke-opacity:1" />
  </g>
  <path
     transform="translate(4.5742187,-3.8618449)"
     style="font-size:22px;font-weight:bold;fill:#ffffff"
     d="M 52.501953,191.38262 L 49.483398,191.38262 L 49.483398,180.00664 C 48.380529,181.0379 47.080726,181.80059 45.583984,182.29473 L 45.583984,179.55547 C 46.371742,179.29767 47.227536,178.8089 48.151367,178.08916 C 49.07519,177.36945 49.708979,176.52977 50.052734,175.57012 L 52.501953,175.57012 L 52.501953,191.38262 z M 67.21875,188.57891 L 67.21875,191.38262 L 56.637695,191.38262 C 56.752278,190.32272 57.096028,189.31833 57.668945,188.36943 C 58.24186,187.42054 59.373369,186.16192 61.063477,184.59355 C 62.424147,183.32598 63.258456,182.46661 63.566406,182.01543 C 63.981763,181.39239 64.189445,180.77651 64.189453,180.16777 C 64.189445,179.49461 64.008618,178.97719 63.646973,178.61553 C 63.285312,178.25389 62.785801,178.07306 62.148438,178.07305 C 61.518224,178.07306 61.016922,178.26284 60.644531,178.64238 C 60.272131,179.02195 60.057288,179.65216 60,180.53301 L 56.992188,180.23223 C 57.171223,178.57078 57.733397,177.3784 58.678711,176.65508 C 59.62402,175.93179 60.805659,175.57013 62.223633,175.57012 C 63.777662,175.57013 64.998689,175.98908 65.886719,176.82695 C 66.774729,177.66486 67.218739,178.70685 67.21875,179.95293 C 67.218739,180.66192 67.091623,181.33689 66.837402,181.97783 C 66.58316,182.61879 66.180328,183.29018 65.628906,183.99199 C 65.263663,184.45749 64.604809,185.12709 63.652344,186.00078 C 62.699863,186.87448 62.096511,187.45456 61.842285,187.74101 C 61.588048,188.02748 61.382156,188.30677 61.224609,188.57891 L 67.21875,188.57891 z "
     id="flowRoot8987" />
</svg>
