<?xml version="1.0" encoding="UTF-8" standalone="no"?>
<!-- Created with Inkscape (http://www.inkscape.org/) -->
<svg
   xmlns:dc="http://purl.org/dc/elements/1.1/"
   xmlns:cc="http://web.resource.org/cc/"
   xmlns:rdf="http://www.w3.org/1999/02/22-rdf-syntax-ns#"
   xmlns:svg="http://www.w3.org/2000/svg"
   xmlns="http://www.w3.org/2000/svg"
   xmlns:xlink="http://www.w3.org/1999/xlink"
   xmlns:sodipodi="http://sodipodi.sourceforge.net/DTD/sodipodi-0.dtd"
   xmlns:inkscape="http://www.inkscape.org/namespaces/inkscape"
   width="364.81403"
   height="336.55783"
   id="svg2"
   sodipodi:version="0.32"
   inkscape:version="0.45.1"
   version="1.0"
   sodipodi:docbase="D:\Documents and Settings\Maciek\Pulpit\SVG"
   sodipodi:docname="Znak P-22.svg"
   inkscape:output_extension="org.inkscape.output.svg.inkscape">
  <defs
     id="defs4">
    <linearGradient
       inkscape:collect="always"
       id="linearGradient4136">
      <stop
         style="stop-color:#ffffff;stop-opacity:1;"
         offset="0"
         id="stop4138" />
      <stop
         style="stop-color:#ffffff;stop-opacity:0;"
         offset="1"
         id="stop4140" />
    </linearGradient>
    <linearGradient
       inkscape:collect="always"
       xlink:href="#linearGradient4136"
       id="linearGradient4142"
       x1="-745.80804"
       y1="141.37566"
       x2="-425.616"
       y2="141.37566"
       gradientUnits="userSpaceOnUse" />
  </defs>
  <sodipodi:namedview
     id="base"
     pagecolor="#ffffff"
     bordercolor="#666666"
     borderopacity="1.0"
     gridtolerance="10000"
     guidetolerance="10"
     objecttolerance="10"
     inkscape:pageopacity="0.0"
     inkscape:pageshadow="2"
     inkscape:zoom="0.3025978"
     inkscape:cx="-443.43046"
     inkscape:cy="111.35267"
     inkscape:document-units="px"
     inkscape:current-layer="layer1"
     width="451px"
     height="451px"
     inkscape:window-width="1024"
     inkscape:window-height="753"
     inkscape:window-x="0"
     inkscape:window-y="0"
     showgrid="true" />
  <metadata
     id="metadata7">
    <rdf:RDF>
      <cc:Work
         rdf:about="">
        <dc:format>image/svg+xml</dc:format>
        <dc:type
           rdf:resource="http://purl.org/dc/dcmitype/StillImage" />
      </cc:Work>
    </rdf:RDF>
  </metadata>
  <g
     inkscape:label="Layer 1"
     inkscape:groupmode="layer"
     id="layer1"
     transform="translate(-102.5435,-154.16754)">
    <rect
       style="opacity:0.98000004;fill:#9d9d9d;fill-opacity:1;fill-rule:evenodd;stroke:none;stroke-width:7.5;stroke-miterlimit:4;stroke-dasharray:none;stroke-opacity:1"
       id="rect2163"
       width="364.81403"
       height="336.55783"
       x="102.5435"
       y="154.16754" />
    <path
       style="font-size:99px;font-weight:bold;fill:#ffffff"
       d="M 182.5435,228.85657 L 214.01809,228.85657 C 220.2485,228.85675 224.89449,229.46212 227.95607,230.67265 C 231.01754,231.88355 233.75678,234.40937 236.17383,238.25011 C 238.59076,242.09119 240.60492,247.20545 242.21631,253.59289 C 243.82757,259.98064 244.63323,267.14058 244.6333,275.07277 C 244.63323,283.6732 243.63958,291.56379 241.65235,298.7445 C 239.66498,305.92543 236.97048,311.31107 233.56885,314.90138 C 238.36696,318.15792 242.05511,323.71053 244.6333,331.55926 C 247.21136,339.40814 248.50041,348.63471 248.50048,359.23886 C 248.50041,367.58874 247.6679,375.70893 246.00293,383.59945 C 244.33782,391.49006 242.06406,397.79416 239.18164,402.51177 C 236.2991,407.22943 232.74523,410.13099 228.52003,411.21646 C 225.87024,411.88444 219.47865,412.30194 209.34524,412.46892 L 182.5435,412.46892 L 182.5435,228.85657 z M 198.44192,259.41689 L 198.44192,301.87567 L 208.86184,301.87567 C 215.05646,301.87578 218.90573,301.66704 220.40968,301.24945 C 223.13099,300.49805 225.27047,298.30623 226.82814,294.67397 C 228.3857,291.04192 229.16451,286.26166 229.16456,280.33315 C 229.16451,274.65542 228.49312,270.04216 227.1504,266.49333 C 225.80758,262.94483 223.81132,260.79474 221.16164,260.0431 C 219.58607,259.62578 215.05646,259.41701 207.57278,259.41689 L 198.44192,259.41689 z M 198.44192,332.43596 L 198.44192,381.53288 L 213.15871,381.53288 C 218.88783,381.5329 222.52226,381.15716 224.06203,380.40564 C 226.42525,379.40372 228.34989,376.9614 229.83595,373.07869 C 231.3219,369.19607 232.06489,363.99832 232.06495,357.48541 C 232.06489,351.97462 231.49198,347.29872 230.34621,343.45775 C 229.20032,339.61689 227.54423,336.81973 225.37794,335.06616 C 223.21155,333.31279 218.51185,332.43608 211.27883,332.43596 L 198.44192,332.43596 z M 261.87451,228.85657 L 277.77293,228.85657 L 277.77293,328.30283 C 277.77291,344.08404 277.96985,354.31254 278.36375,358.98838 C 279.04407,366.50327 280.66434,372.536 283.22458,377.08659 C 285.78477,381.63727 289.28493,383.9126 293.72507,383.91257 C 298.23675,383.9126 301.63843,381.76251 303.93014,377.46236 C 306.22175,373.16225 307.60033,367.88099 308.06588,361.61858 C 308.53132,355.35627 308.76407,344.96077 308.76412,330.43203 L 308.76412,228.85657 L 324.66255,228.85657 L 324.66255,325.29688 C 324.66248,347.34046 324.23279,362.91286 323.37349,372.01409 C 322.51405,381.11542 320.92957,388.79726 318.62007,395.05956 C 316.31044,401.32194 313.22207,406.31096 309.35494,410.02661 C 305.48771,413.74227 300.43888,415.60009 294.20847,415.60012 C 286.68891,415.60009 280.98661,413.57529 277.10155,409.52564 C 273.21644,405.47596 270.14596,400.21561 267.89012,393.74449 C 265.63425,387.27339 264.14826,380.48918 263.43212,373.39181 C 262.3937,362.8711 261.8745,347.34046 261.87451,326.79986 L 261.87451,228.85657 z M 337.44574,352.72603 L 352.91448,349.21911 C 353.84545,361.32639 355.73429,370.21892 358.58099,375.89676 C 361.42764,381.57467 365.26796,384.41359 370.10197,384.41357 C 375.22238,384.41359 379.08061,381.88778 381.67667,376.83611 C 384.27265,371.78452 385.57066,365.87702 385.57071,359.11363 C 385.57066,354.77179 385.0246,351.07701 383.93253,348.02926 C 382.84036,344.98164 380.93363,342.33059 378.21233,340.07606 C 376.3503,338.57317 372.10714,335.90124 365.48283,332.06025 C 356.96068,327.13395 350.98087,321.08033 347.5434,313.89939 C 342.70941,303.79625 340.29242,291.48027 340.29242,276.95149 C 340.29242,267.59983 341.4293,258.85341 343.70307,250.71221 C 345.97682,242.5713 349.25317,236.37157 353.53216,232.11299 C 357.81111,227.85477 362.9763,225.72557 369.02776,225.72537 C 378.91052,225.72557 386.34947,230.77719 391.34464,240.88029 C 396.33969,250.98372 398.96257,264.46866 399.21328,281.33514 L 383.31486,282.96333 C 382.63447,273.5282 381.17533,266.74399 378.93742,262.61069 C 376.69942,258.47766 373.34249,256.4111 368.86662,256.41093 C 364.24746,256.4111 360.63093,258.62379 358.01702,263.04903 C 356.33406,265.88812 355.49259,269.68727 355.49261,274.44655 C 355.49259,278.78858 356.28035,282.50424 357.85589,285.59353 C 359.86107,289.51809 364.73086,293.60945 372.46526,297.86774 C 380.19958,302.12627 385.91978,306.5308 389.62589,311.08135 C 393.33188,315.6321 396.23227,321.8527 398.32705,329.74317 C 400.42171,337.63382 401.46907,347.38223 401.46914,358.98838 C 401.46907,369.50919 400.21582,379.36197 397.70939,388.54671 C 395.20281,397.73153 391.6579,404.55749 387.07462,409.02463 C 382.49124,413.49177 376.77999,415.72537 369.94084,415.72537 C 359.9864,415.72537 352.34155,410.36061 347.00629,399.6311 C 341.671,388.90159 338.48415,373.2666 337.44574,352.72603 L 337.44574,352.72603 z "
       id="flowRoot2193" />
  </g>
</svg>
