<?xml version="1.0" encoding="UTF-8" standalone="no"?>
<!-- Created with Inkscape (http://www.inkscape.org/) -->
<svg
   xmlns:dc="http://purl.org/dc/elements/1.1/"
   xmlns:cc="http://creativecommons.org/ns#"
   xmlns:rdf="http://www.w3.org/1999/02/22-rdf-syntax-ns#"
   xmlns:svg="http://www.w3.org/2000/svg"
   xmlns="http://www.w3.org/2000/svg"
   xmlns:sodipodi="http://sodipodi.sourceforge.net/DTD/sodipodi-0.dtd"
   xmlns:inkscape="http://www.inkscape.org/namespaces/inkscape"
   width="200"
   height="650"
   id="svg2"
   sodipodi:version="0.32"
   inkscape:version="0.46"
   version="1.0"
   sodipodi:docname="Sygnalizator S-3.svg"
   inkscape:output_extension="org.inkscape.output.svg.inkscape">
  <defs
     id="defs4">
    <inkscape:perspective
       sodipodi:type="inkscape:persp3d"
       inkscape:vp_x="0 : 526.18109 : 1"
       inkscape:vp_y="0 : 1000 : 0"
       inkscape:vp_z="744.09448 : 526.18109 : 1"
       inkscape:persp3d-origin="372.04724 : 350.78739 : 1"
       id="perspective10" />
    <inkscape:perspective
       id="perspective2390"
       inkscape:persp3d-origin="372.04724 : 350.78739 : 1"
       inkscape:vp_z="744.09448 : 526.18109 : 1"
       inkscape:vp_y="0 : 1000 : 0"
       inkscape:vp_x="0 : 526.18109 : 1"
       sodipodi:type="inkscape:persp3d" />
    <inkscape:perspective
       id="perspective3185"
       inkscape:persp3d-origin="372.04724 : 350.78739 : 1"
       inkscape:vp_z="744.09448 : 526.18109 : 1"
       inkscape:vp_y="0 : 1000 : 0"
       inkscape:vp_x="0 : 526.18109 : 1"
       sodipodi:type="inkscape:persp3d" />
    <inkscape:perspective
       id="perspective3220"
       inkscape:persp3d-origin="372.04724 : 350.78739 : 1"
       inkscape:vp_z="744.09448 : 526.18109 : 1"
       inkscape:vp_y="0 : 1000 : 0"
       inkscape:vp_x="0 : 526.18109 : 1"
       sodipodi:type="inkscape:persp3d" />
    <inkscape:perspective
       id="perspective3233"
       inkscape:persp3d-origin="372.04724 : 350.78739 : 1"
       inkscape:vp_z="744.09448 : 526.18109 : 1"
       inkscape:vp_y="0 : 1000 : 0"
       inkscape:vp_x="0 : 526.18109 : 1"
       sodipodi:type="inkscape:persp3d" />
  </defs>
  <sodipodi:namedview
     id="base"
     pagecolor="#ffffff"
     bordercolor="#666666"
     borderopacity="1.0"
     gridtolerance="10000"
     guidetolerance="10"
     objecttolerance="10"
     inkscape:pageopacity="0.0"
     inkscape:pageshadow="2"
     inkscape:zoom="0.1767767"
     inkscape:cx="734.92141"
     inkscape:cy="-44.628353"
     inkscape:document-units="px"
     inkscape:current-layer="layer1"
     showgrid="false"
     showguides="true"
     inkscape:guide-bbox="true"
     inkscape:window-width="1440"
     inkscape:window-height="844"
     inkscape:window-x="-4"
     inkscape:window-y="-4" />
  <metadata
     id="metadata7">
    <rdf:RDF>
      <cc:Work
         rdf:about="">
        <dc:format>image/svg+xml</dc:format>
        <dc:type
           rdf:resource="http://purl.org/dc/dcmitype/StillImage" />
      </cc:Work>
    </rdf:RDF>
  </metadata>
  <g
     inkscape:label="Layer 1"
     inkscape:groupmode="layer"
     id="layer1"
     transform="translate(273.24115,-402.36218)"
     style="display:inline">
    <rect
       style="opacity:1;fill:#000000;fill-opacity:1;stroke:none;stroke-width:10;stroke-miterlimit:4;stroke-dasharray:none;stroke-opacity:1"
       id="rect2396"
       width="200"
       height="200"
       x="-273.24115"
       y="402.36218"
       ry="0" />
    <rect
       style="opacity:1;fill:#000000;fill-opacity:1;stroke:none;stroke-width:10;stroke-miterlimit:4;stroke-dasharray:none;stroke-opacity:1"
       id="rect3170"
       width="200"
       height="200"
       x="-273.24115"
       y="627.36218"
       ry="0" />
    <rect
       style="opacity:1;fill:#000000;fill-opacity:1;stroke:none;stroke-width:10;stroke-miterlimit:4;stroke-dasharray:none;stroke-opacity:1"
       id="rect3172"
       width="200"
       height="200"
       x="-273.24115"
       y="852.36218"
       ry="0" />
    <path
       style="opacity:1;fill:#ffffff;fill-opacity:1;stroke:none;stroke-width:4.07659388;stroke-miterlimit:4;stroke-dasharray:none;stroke-opacity:1;display:inline"
       d="M -173.24115,877.36218 C -214.64115,877.36218 -248.24115,910.96217 -248.24115,952.36218 C -248.24115,993.76218 -214.64115,1027.3622 -173.24115,1027.3622 C -131.84115,1027.3622 -98.24115,993.76217 -98.24115,952.36218 C -98.24115,910.96218 -131.84115,877.36217 -173.24115,877.36218 z M -173.24115,880.36218 C -133.49715,880.36218 -101.24115,912.61818 -101.24115,952.36218 C -101.24115,992.10617 -133.49715,1024.3622 -173.24115,1024.3622 C -212.98515,1024.3622 -245.24115,992.10618 -245.24115,952.36218 C -245.24115,912.61817 -212.98515,880.36218 -173.24115,880.36218 z"
       id="path3260" />
    <path
       style="opacity:1;fill:#ffffff;fill-opacity:1;stroke:none;stroke-width:4.07659388;stroke-miterlimit:4;stroke-dasharray:none;stroke-opacity:1;display:inline"
       d="M 100,250 C 58.6,250 25,283.6 25,325 C 25,366.4 58.600002,400 100,400 C 141.4,400 175,366.4 175,325 C 175,283.6 141.4,250 100,250 z M 100,257.125 L 155.5,316.875 L 115.0625,309.875 L 121.25,388.875 L 78.75,388.875 L 84.9375,309.875 L 44.5,316.875 L 100,257.125 z"
       transform="translate(-273.24115,402.36218)"
       id="path3262" />
    <path
       style="opacity:1;fill:#ffff00;fill-opacity:1;stroke:none;stroke-width:4.07659388;stroke-miterlimit:4;stroke-dasharray:none;stroke-opacity:1;display:inline"
       d="M 100,253 C 60.256002,253 28.000001,285.25601 28,325 C 28,364.744 60.255999,397 100,397 C 139.744,397 172,364.744 172,325 C 172,285.256 139.74399,252.99999 100,253 z M 100,257.125 L 155.5,316.875 L 115.0625,309.875 L 121.25,388.875 L 78.75,388.875 L 84.9375,309.875 L 44.5,316.875 L 100,257.125 z"
       transform="translate(-273.24115,402.36218)"
       id="path3264" />
    <path
       style="opacity:1;fill:#ffffff;fill-opacity:1;stroke:none;stroke-width:4.07659388;stroke-miterlimit:4;stroke-dasharray:none;stroke-opacity:1;display:inline"
       d="M 100,25 C 58.6,25 25,58.599997 25,100 C 25,141.4 58.600002,175 100,175 C 141.4,175 175,141.4 175,100 C 175,58.6 141.4,25.000001 100,25 z M 100,32.125 L 155.5,91.875 L 115.0625,84.875 L 121.25,163.875 L 78.75,163.875 L 84.9375,84.875 L 44.5,91.875 L 100,32.125 z"
       transform="translate(-273.24115,402.36218)"
       id="path3266" />
    <path
       style="opacity:1;fill:#ff0000;fill-opacity:1;stroke:none;stroke-width:4.07659388;stroke-miterlimit:4;stroke-dasharray:none;stroke-opacity:1;display:inline"
       d="M 100,28 C 60.256002,28 28.000001,60.255999 28,100 C 28,139.744 60.255999,172 100,172 C 139.744,172 172,139.74399 172,100 C 172,60.256002 139.74399,28.000001 100,28 z M 100,32.125 L 155.5,91.875 L 115.0625,84.875 L 121.25,163.875 L 78.75,163.875 L 84.9375,84.875 L 44.5,91.875 L 100,32.125 z"
       transform="translate(-273.24115,402.36218)"
       id="path3268" />
    <path
       style="fill:#008000;fill-opacity:1;stroke:none;stroke-width:3;stroke-miterlimit:4;stroke-opacity:1;display:inline"
       d="M -173.24115,884.47152 L -228.74115,944.22152 L -188.30365,937.22152 L -194.49115,1016.2528 L -151.99115,1016.2528 L -158.17865,937.22152 L -117.74114,944.22152 L -173.24115,884.47152 z"
       id="path3275" />
  </g>
</svg>
