<?xml version="1.0" encoding="UTF-8" standalone="no"?>
<!-- Created with Inkscape (http://www.inkscape.org/) -->

<svg
   xmlns:dc="http://purl.org/dc/elements/1.1/"
   xmlns:cc="http://creativecommons.org/ns#"
   xmlns:rdf="http://www.w3.org/1999/02/22-rdf-syntax-ns#"
   xmlns:svg="http://www.w3.org/2000/svg"
   xmlns="http://www.w3.org/2000/svg"
   xmlns:sodipodi="http://sodipodi.sourceforge.net/DTD/sodipodi-0.dtd"
   xmlns:inkscape="http://www.inkscape.org/namespaces/inkscape"
   width="1545.264"
   height="520.58661"
   id="svg2"
   sodipodi:version="0.32"
   inkscape:version="0.92.2 (5c3e80d, 2017-08-06)"
   version="1.0"
   sodipodi:docname="Znak_T-2.svg"
   inkscape:output_extension="org.inkscape.output.svg.inkscape">
  <defs
     id="defs4">
    <inkscape:perspective
       sodipodi:type="inkscape:persp3d"
       inkscape:vp_x="0 : 526.18109 : 1"
       inkscape:vp_y="0 : 1000 : 0"
       inkscape:vp_z="744.09448 : 526.18109 : 1"
       inkscape:persp3d-origin="372.04724 : 350.78739 : 1"
       id="perspective10" />
    <inkscape:perspective
       id="perspective2390"
       inkscape:persp3d-origin="372.04724 : 350.78739 : 1"
       inkscape:vp_z="744.09448 : 526.18109 : 1"
       inkscape:vp_y="0 : 1000 : 0"
       inkscape:vp_x="0 : 526.18109 : 1"
       sodipodi:type="inkscape:persp3d" />
    <inkscape:perspective
       id="perspective2403"
       inkscape:persp3d-origin="372.04724 : 350.78739 : 1"
       inkscape:vp_z="744.09448 : 526.18109 : 1"
       inkscape:vp_y="0 : 1000 : 0"
       inkscape:vp_x="0 : 526.18109 : 1"
       sodipodi:type="inkscape:persp3d" />
    <inkscape:perspective
       sodipodi:type="inkscape:persp3d"
       inkscape:vp_x="0 : 526.18109 : 1"
       inkscape:vp_y="0 : 1000 : 0"
       inkscape:vp_z="744.09448 : 526.18109 : 1"
       inkscape:persp3d-origin="372.04724 : 350.78739 : 1"
       id="perspective3642" />
    <inkscape:perspective
       id="perspective3644"
       inkscape:persp3d-origin="372.04724 : 350.78739 : 1"
       inkscape:vp_z="744.09448 : 526.18109 : 1"
       inkscape:vp_y="0 : 1000 : 0"
       inkscape:vp_x="0 : 526.18109 : 1"
       sodipodi:type="inkscape:persp3d" />
    <inkscape:perspective
       id="perspective3646"
       inkscape:persp3d-origin="250 : 166.66667 : 1"
       inkscape:vp_z="500 : 250 : 1"
       inkscape:vp_y="0 : 1000 : 0"
       inkscape:vp_x="0 : 250 : 1"
       sodipodi:type="inkscape:persp3d" />
    <inkscape:perspective
       id="perspective3648"
       inkscape:persp3d-origin="500 : 400 : 1"
       inkscape:vp_z="1000 : 600 : 1"
       inkscape:vp_y="0 : 1000 : 0"
       inkscape:vp_x="0 : 600 : 1"
       sodipodi:type="inkscape:persp3d" />
    <inkscape:perspective
       sodipodi:type="inkscape:persp3d"
       inkscape:vp_x="0 : 526.18109 : 1"
       inkscape:vp_y="0 : 1000 : 0"
       inkscape:vp_z="744.09448 : 526.18109 : 1"
       inkscape:persp3d-origin="372.04724 : 350.78739 : 1"
       id="perspective2688" />
    <inkscape:perspective
       sodipodi:type="inkscape:persp3d"
       inkscape:vp_x="0 : 526.18109 : 1"
       inkscape:vp_y="0 : 1000 : 0"
       inkscape:vp_z="744.09448 : 526.18109 : 1"
       inkscape:persp3d-origin="372.04724 : 350.78739 : 1"
       id="perspective2616" />
    <inkscape:perspective
       id="perspective3162"
       inkscape:persp3d-origin="372.04724 : 350.78739 : 1"
       inkscape:vp_z="744.09448 : 526.18109 : 1"
       inkscape:vp_y="0 : 1000 : 0"
       inkscape:vp_x="0 : 526.18109 : 1"
       sodipodi:type="inkscape:persp3d" />
    <inkscape:perspective
       id="perspective3175"
       inkscape:persp3d-origin="250 : 166.66667 : 1"
       inkscape:vp_z="500 : 250 : 1"
       inkscape:vp_y="0 : 1000 : 0"
       inkscape:vp_x="0 : 250 : 1"
       sodipodi:type="inkscape:persp3d" />
    <inkscape:perspective
       id="perspective2620"
       inkscape:persp3d-origin="500 : 400 : 1"
       inkscape:vp_z="1000 : 600 : 1"
       inkscape:vp_y="0 : 1000 : 0"
       inkscape:vp_x="0 : 600 : 1"
       sodipodi:type="inkscape:persp3d" />
    <inkscape:perspective
       sodipodi:type="inkscape:persp3d"
       inkscape:vp_x="0 : 600 : 1"
       inkscape:vp_y="0 : 1000 : 0"
       inkscape:vp_z="1000 : 600 : 1"
       inkscape:persp3d-origin="500 : 400 : 1"
       id="perspective86" />
    <inkscape:perspective
       id="perspective3294"
       inkscape:persp3d-origin="372.04724 : 350.78739 : 1"
       inkscape:vp_z="744.09448 : 526.18109 : 1"
       inkscape:vp_y="0 : 1000 : 0"
       inkscape:vp_x="0 : 526.18109 : 1"
       sodipodi:type="inkscape:persp3d" />
    <inkscape:perspective
       id="perspective3405"
       inkscape:persp3d-origin="500 : 400 : 1"
       inkscape:vp_z="1000 : 600 : 1"
       inkscape:vp_y="0 : 1000 : 0"
       inkscape:vp_x="0 : 600 : 1"
       sodipodi:type="inkscape:persp3d" />
    <inkscape:perspective
       id="perspective2501"
       inkscape:persp3d-origin="372.04724 : 350.78739 : 1"
       inkscape:vp_z="744.09448 : 526.18109 : 1"
       inkscape:vp_y="0 : 1000 : 0"
       inkscape:vp_x="0 : 526.18109 : 1"
       sodipodi:type="inkscape:persp3d" />
    <inkscape:perspective
       id="perspective2592"
       inkscape:persp3d-origin="500 : 400 : 1"
       inkscape:vp_z="1000 : 600 : 1"
       inkscape:vp_y="0 : 1000 : 0"
       inkscape:vp_x="0 : 600 : 1"
       sodipodi:type="inkscape:persp3d" />
  </defs>
  <sodipodi:namedview
     id="base"
     pagecolor="#ffffff"
     bordercolor="#666666"
     borderopacity="1.0"
     gridtolerance="10000"
     guidetolerance="10"
     objecttolerance="10"
     inkscape:pageopacity="0.0"
     inkscape:pageshadow="2"
     inkscape:zoom="0.49497475"
     inkscape:cx="487.64123"
     inkscape:cy="397.7959"
     inkscape:document-units="px"
     inkscape:current-layer="layer1"
     showgrid="false"
     inkscape:window-width="1920"
     inkscape:window-height="1018"
     inkscape:window-x="-8"
     inkscape:window-y="-8"
     inkscape:window-maximized="1" />
  <metadata
     id="metadata7">
    <rdf:RDF>
      <cc:Work
         rdf:about="">
        <dc:format>image/svg+xml</dc:format>
        <dc:type
           rdf:resource="http://purl.org/dc/dcmitype/StillImage" />
      </cc:Work>
    </rdf:RDF>
  </metadata>
  <g
     inkscape:label="Layer 1"
     inkscape:groupmode="layer"
     id="layer1"
     transform="translate(-826.27809,511.43315)">
    <g
       id="g3659"
       transform="matrix(0.9448184,0,0,0.8011637,2074.7875,-227.76519)"
       style="fill:#febe0b;fill-opacity:1">
      <rect
         ry="44.651402"
         y="-340.49542"
         x="-1309.9174"
         height="622.6391"
         width="1612.4932"
         id="rect2409"
         style="opacity:1;fill:#febe0b;fill-opacity:1;stroke:#000000;stroke-width:25;stroke-miterlimit:4;stroke-dasharray:none;stroke-opacity:1"
         rx="36.288151" />
    </g>
    <g
       id="g3627"
       transform="translate(2037.5649,-166.23289)"
       style="fill:#000000">
      <path
         d="M -346.85242,-159.91543 L -346.85242,50.525259 L -311.30045,50.525259 L -311.30045,-2.96821 L -300.4227,-2.96821 L -257.91343,50.525259 L -218.76503,50.525259 L -268.64399,-18.306775 L -220.94654,-88.963932 L -260.09495,-88.963932 L -297.94637,-38.061312 L -311.30045,-38.061312 L -311.30045,-159.91543 L -346.85242,-159.91543 z"
         style="fill:#000000;fill-opacity:1;stroke:none;stroke-width:7;stroke-miterlimit:4;stroke-opacity:1"
         id="path2832" />
      <path
         d="M -64.691492,-89.768642 C -85.548909,-89.565442 -99.610935,-76.101392 -99.610935,-76.101392 C -99.610935,-76.101392 -115.88536,-89.768642 -133.44765,-89.768642 C -152.09767,-89.768642 -165.71111,-79.582392 -169.04036,-76.831402 L -169.04036,-89.768642 L -203.93071,-89.768642 L -203.93071,50.525259 L -169.04036,50.525259 L -169.04036,-38.195112 C -167.7722,-41.993104 -162.47801,-54.607454 -147.84858,-54.607454 C -128.76437,-54.607454 -125.83725,-37.085457 -125.83725,-37.085457 L -125.25192,50.525259 L -90.361575,50.525259 L -90.244535,-37.085457 C -90.244535,-37.085457 -86.380825,-54.782715 -67.647721,-54.782715 C -52.438244,-54.782715 -46.209961,-38.926598 -45.636384,-37.377464 L -45.636384,50.525259 L -10.746181,50.525259 L -10.629145,-37.085457 C -11.876718,-66.360782 -35.93357,-89.275202 -64.691492,-89.768642 z"
         style="fill:#000000;fill-opacity:1;stroke:none;stroke-width:7;stroke-miterlimit:4;stroke-opacity:1"
         id="path2834" />
      <path
         d="M -783.62842,-228.60581 C -824.84765,-228.60581 -858.57045,-196.54303 -861.16722,-156.10782 L -816.32114,-156.10782 C -813.06285,-171.10645 -799.64782,-182.36019 -783.62842,-182.36019 C -765.1722,-182.36019 -750.19696,-167.43393 -750.19696,-149.03833 C -750.19696,-130.64254 -765.1722,-115.71626 -783.62842,-115.71626 C -787.6953,-115.71626 -791.58547,-116.45151 -795.19089,-117.77826 L -795.19089,-81.437004 C -791.50452,-82.442555 -787.63386,-82.983556 -783.62842,-82.983556 C -759.46223,-82.983556 -739.85319,-63.438879 -739.85319,-39.351861 C -739.85319,-15.265235 -759.46223,4.2794434 -783.62842,4.2794434 C -805.98966,4.2794434 -824.43927,-12.466812 -827.07153,-34.049897 L -872.95221,-34.049897 C -870.55543,13.032188 -831.45571,50.525259 -783.62842,50.525259 C -734.25752,50.525259 -694.19381,10.592809 -694.19381,-38.615443 L -694.19381,-38.652498 C -694.19381,-64.22249 -705.02145,-87.231407 -722.34341,-103.49205 C -712.04801,-116.63405 -705.90431,-133.14706 -705.90431,-151.10014 C -705.90431,-193.87002 -740.71753,-228.60581 -783.62842,-228.60581 z"
         style="fill:#000000;fill-opacity:1;stroke:none;stroke-width:7;stroke-miterlimit:4;stroke-dasharray:none;stroke-opacity:1"
         id="path2836" />
      <path
         d="M -540.40166,-159.91543 L -549.63028,-54.4738 L -495.94405,-54.680381 L -495.9145,-54.208261 C -476.38698,-54.2781 -460.48969,-38.514023 -460.41955,-19.031498 C -460.34943,0.451176 -476.14997,16.311412 -495.67807,16.381254 L -555.60539,7.380518 L -557.32111,42.380253 C -536.73509,45.024189 -513.04304,50.386462 -495.796,50.525259 C -457.0012,50.525259 -425.51583,19.112674 -425.51583,-19.592278 C -425.51583,-58.296936 -457.0012,-89.709532 -495.796,-89.709532 C -501.08857,-89.709532 -506.24794,-89.135222 -511.20719,-88.027482 L -508.10113,-124.73883 L -434.68536,-124.73883 L -434.68536,-159.91543 L -540.40166,-159.91543 z"
         style="fill:#000000;fill-opacity:1;stroke:none;stroke-width:7;stroke-miterlimit:4;stroke-dasharray:none;stroke-opacity:1"
         id="path2838" />
      <path
         d="M -655.19795,13.468724 L -609.08592,13.468724 C -609.08592,13.468724 -610.64437,44.978217 -624.57211,67.626921 C -638.49986,90.275623 -664.79711,104.06334 -664.79711,104.06334 L -655.19795,59.580753 L -655.19795,13.468724 z"
         style="fill:#000000;fill-opacity:1;stroke:none;stroke-width:7;stroke-miterlimit:4;stroke-opacity:1"
         id="path2840" />
      <path
         id="rect2842"
         d="M -952.53774,-157.48631 L -1025.282,-273.87724 L -1098.0264,-157.48632 L -1054.3798,-157.48632 L -1054.3798,94.693989 L -996.18441,94.693979 L -996.18441,-157.48631 L -952.53774,-157.48631 z"
         style="fill:#000000;fill-opacity:1;stroke:none;stroke-width:4.83428431;stroke-miterlimit:4;stroke-dasharray:none;stroke-opacity:1" />
      <path
         style="fill:#000000;fill-opacity:1;stroke:none;stroke-width:4.83428431;stroke-miterlimit:4;stroke-dasharray:none;stroke-opacity:1"
         d="M 220.71677,-157.48631 L 147.97246,-273.87724 L 75.228103,-157.48632 L 118.87471,-157.48632 L 118.87471,94.693989 L 177.07015,94.693979 L 177.07015,-157.48631 L 220.71677,-157.48631 z"
         id="path3625" />
    </g>
  </g>
</svg>
