<?xml version="1.0" encoding="UTF-8" standalone="no"?>
<svg
   xmlns:dc="http://purl.org/dc/elements/1.1/"
   xmlns:cc="http://creativecommons.org/ns#"
   xmlns:rdf="http://www.w3.org/1999/02/22-rdf-syntax-ns#"
   xmlns:svg="http://www.w3.org/2000/svg"
   xmlns="http://www.w3.org/2000/svg"
   id="svg8"
   version="1.1"
   viewBox="0 0 66.266228 25.933358"
   height="25.933357mm"
   width="66.266228mm">
  <defs
     id="defs2" />
  <metadata
     id="metadata5">
    <rdf:RDF>
      <cc:Work
         rdf:about="">
        <dc:format>image/svg+xml</dc:format>
        <dc:type
           rdf:resource="http://purl.org/dc/dcmitype/StillImage" />
        <dc:title></dc:title>
      </cc:Work>
    </rdf:RDF>
  </metadata>
  <g
     transform="translate(-272.87091,-44.519393)"
     id="layer1">
    <g
       transform="matrix(0.29071132,0,0,0.29071132,275.18401,38.931872)"
       id="g4693">
      <rect
         ry="7.5489874"
         y="19.617044"
         x="-7.5598049"
         height="88.412811"
         width="227.15138"
         id="rect4526-3"
         style="opacity:1;fill:#ffffff;fill-opacity:1;stroke:#000000;stroke-width:0.79374999;stroke-miterlimit:4;stroke-dasharray:none;stroke-opacity:1"
         rx="7.5489874" />
      <rect
         rx="5.310605"
         style="opacity:1;fill:none;fill-opacity:1;stroke:#000000;stroke-width:1.32291663;stroke-miterlimit:4;stroke-dasharray:none;stroke-opacity:1"
         id="rect4567"
         width="222.17502"
         height="83.546371"
         x="-5.0875616"
         y="22.073889"
         ry="5.310605" />
      <path
         style="opacity:1;fill:#d40000;fill-opacity:1;stroke:none;stroke-width:3;stroke-miterlimit:4;stroke-dasharray:none;stroke-opacity:1"
         d="m 83.066406,114.77148 v 6.82227 H 70.837891 c -6.611532,0 -10.797089,3.25106 -15.541016,7.24219 -1.514457,1.27413 -4.382308,3.72752 -7.228516,5.90625 -8.452792,6.47048 -19.537109,12.44063 -19.537109,18.9082 l -0.117188,19.67969 7.253907,0.002 c 0.0023,-0.0769 0.0053,-9.22872 0.0098,-9.30469 0.311687,-5.287 10.025023,-10.39792 17.238282,-14.5625 13.558219,-7.82784 15.680746,-7.70507 20.169922,-7.70507 h 9.980468 v 18.50195 H 54.804688 c -3.935082,0 -7.103516,3.16843 -7.103516,7.10351 V 375.37891 H 139.08398 V 167.36523 c 0,-3.93508 -3.16843,-7.10351 -7.10351,-7.10351 h -29.25391 v -18.50195 h 18.62305 c 3.93508,0 7.10156,-3.16649 7.10156,-7.10157 v -5.96093 c 0,-3.93509 -3.16648,-7.10352 -7.10156,-7.10352 h -18.62305 v -6.82227 z"
         transform="scale(0.26458333)"
         id="rect4526-3-8" />
      <g
         aria-label="s.o.s."
         transform="scale(0.98616072,1.0140335)"
         style="font-style:normal;font-variant:normal;font-weight:600;font-stretch:normal;font-size:54.14919281px;line-height:33.84324265px;font-family:Drogowskaz;-inkscape-font-specification:'Drogowskaz, Semi-Bold';font-variant-ligatures:normal;font-variant-caps:normal;font-variant-numeric:normal;font-feature-settings:normal;text-align:start;letter-spacing:0px;word-spacing:0px;writing-mode:lr-tb;text-anchor:start;fill:#000000;fill-opacity:1;stroke:none;stroke-width:1.35372984"
         id="text4633">
        <path
           d="m 62.702265,70.909229 q 3.299716,0 5.922568,0.676865 v 6.091784 q -2.876676,-0.846081 -5.922568,-0.846081 -0.676865,0 -1.184514,0.507649 -0.507648,0.507649 -0.507648,1.184514 0,1.015297 0.846081,1.438337 l 5.161095,3.130501 q 1.945986,1.099905 3.045892,3.045892 1.099905,1.945986 1.099905,4.230405 0,3.468933 -2.453635,6.007177 -2.453635,2.453635 -6.007176,2.453635 -5.584136,0 -10.32219,-1.945987 l 1.861378,-5.668743 q 4.06119,1.692162 8.460812,1.692162 1.099905,0 1.77677,-0.676865 0.761473,-0.761473 0.761473,-1.861379 0,-1.522946 -1.269122,-2.199811 l -5.499527,-3.215108 q -3.553541,-2.369027 -3.553541,-6.430216 0,-3.215109 2.369028,-5.41492 2.369027,-2.199811 5.414919,-2.199811 z"
           style="font-style:normal;font-variant:normal;font-weight:600;font-stretch:normal;font-size:54.14919281px;font-family:Drogowskaz;-inkscape-font-specification:'Drogowskaz, Semi-Bold';font-variant-ligatures:normal;font-variant-caps:normal;font-variant-numeric:normal;font-feature-settings:normal;text-align:start;writing-mode:lr-tb;text-anchor:start;stroke-width:1.35372984"
           id="path4635" />
        <path
           d="m 74.849182,91.215177 h 6.768649 v 6.768649 h -6.768649 z"
           style="font-style:normal;font-variant:normal;font-weight:600;font-stretch:normal;font-size:54.14919281px;font-family:Drogowskaz;-inkscape-font-specification:'Drogowskaz, Semi-Bold';font-variant-ligatures:normal;font-variant-caps:normal;font-variant-numeric:normal;font-feature-settings:normal;text-align:start;writing-mode:lr-tb;text-anchor:start;stroke-width:1.35372984"
           id="path4637" />
        <path
           d="m 94.853351,94.599501 q -4.230406,-4.230406 -4.230406,-10.152974 0,-5.922567 4.230406,-10.152973 4.230406,-4.230406 10.152969,-4.230406 5.92257,0 10.15298,4.230406 4.2304,4.230406 4.2304,10.152973 0,5.922568 -4.2304,10.152974 -4.23041,4.230406 -10.15298,4.230406 -5.922563,0 -10.152969,-4.230406 z m 4.738054,-15.483285 q -2.199811,2.199811 -2.199811,5.330311 0,3.130501 2.199811,5.41492 2.284415,2.199811 5.414915,2.199811 3.1305,0 5.33032,-2.199811 2.28441,-2.284419 2.28441,-5.41492 0,-3.1305 -2.28441,-5.330311 -2.19982,-2.284419 -5.33032,-2.284419 -3.1305,0 -5.414915,2.284419 z"
           style="font-style:normal;font-variant:normal;font-weight:600;font-stretch:normal;font-size:54.14919281px;font-family:Drogowskaz;-inkscape-font-specification:'Drogowskaz, Semi-Bold';font-variant-ligatures:normal;font-variant-caps:normal;font-variant-numeric:normal;font-feature-settings:normal;text-align:start;writing-mode:lr-tb;text-anchor:start;stroke-width:1.35372984"
           id="path4639" />
        <path
           d="m 123.17162,91.215177 h 6.76865 v 6.768649 h -6.76865 z"
           style="font-style:normal;font-variant:normal;font-weight:600;font-stretch:normal;font-size:54.14919281px;font-family:Drogowskaz;-inkscape-font-specification:'Drogowskaz, Semi-Bold';font-variant-ligatures:normal;font-variant-caps:normal;font-variant-numeric:normal;font-feature-settings:normal;text-align:start;writing-mode:lr-tb;text-anchor:start;stroke-width:1.35372984"
           id="path4641" />
        <path
           d="m 147.40422,70.909229 q 3.29971,0 5.92256,0.676865 v 6.091784 q -2.87667,-0.846081 -5.92256,-0.846081 -0.67687,0 -1.18452,0.507649 -0.50765,0.507649 -0.50765,1.184514 0,1.015297 0.84608,1.438337 l 5.1611,3.130501 q 1.94599,1.099905 3.04589,3.045892 1.09991,1.945986 1.09991,4.230405 0,3.468933 -2.45364,6.007177 -2.45363,2.453635 -6.00717,2.453635 -5.58414,0 -10.32219,-1.945987 l 1.86137,-5.668743 q 4.06119,1.692162 8.46082,1.692162 1.0999,0 1.77677,-0.676865 0.76147,-0.761473 0.76147,-1.861379 0,-1.522946 -1.26912,-2.199811 l -5.49953,-3.215108 q -3.55354,-2.369027 -3.55354,-6.430216 0,-3.215109 2.36903,-5.41492 2.36902,-2.199811 5.41492,-2.199811 z"
           style="font-style:normal;font-variant:normal;font-weight:600;font-stretch:normal;font-size:54.14919281px;font-family:Drogowskaz;-inkscape-font-specification:'Drogowskaz, Semi-Bold';font-variant-ligatures:normal;font-variant-caps:normal;font-variant-numeric:normal;font-feature-settings:normal;text-align:start;writing-mode:lr-tb;text-anchor:start;stroke-width:1.35372984"
           id="path4643" />
        <path
           d="m 159.45531,91.215177 h 6.76865 v 6.768649 h -6.76865 z"
           style="font-style:normal;font-variant:normal;font-weight:600;font-stretch:normal;font-size:54.14919281px;font-family:Drogowskaz;-inkscape-font-specification:'Drogowskaz, Semi-Bold';font-variant-ligatures:normal;font-variant-caps:normal;font-variant-numeric:normal;font-feature-settings:normal;text-align:start;writing-mode:lr-tb;text-anchor:start;stroke-width:1.35372984"
           id="path4645" />
      </g>
      <path
         style="opacity:1;fill:#000000;fill-rule:evenodd;stroke:#000000;stroke-width:0.34566829;stroke-linecap:butt;stroke-linejoin:miter;stroke-miterlimit:4;stroke-dasharray:none;stroke-opacity:1"
         id="path4530-9"
         d="m 184.96573,49.708303 c 3.97295,3.304855 8.11002,8.501448 11.49198,14.297163 2.0151,3.453304 3.73004,6.789696 5.09271,10.401703 1.20484,3.193657 2.69389,8.582948 2.69389,9.879408 0,1.216893 -1.36535,3.732538 -3.01434,5.663729 -1.40201,1.641952 -2.53025,2.682996 -4.15632,3.462251 -2.77489,1.329795 -4.18216,1.827018 -9.0486,1.827018 -1.24258,-1.38514 -2.96841,-3.621986 -3.42704,-6.291454 -0.40396,-2.351296 -0.25406,-5.189017 -0.25406,-6.907317 0,-3.179584 5.54868,-4.879808 8.27874,-4.879808 0.11812,-1.511647 0.25625,-1.972168 -0.30512,-2.533539 -9.70443,-8.322872 -25.06446,-23.533512 -31.89734,-29.931164 -1.1151,0 -1.59797,-0.0076 -3.4163,-0.0076 -0.21269,3.094151 -2.39024,6.586973 -4.09405,8.327453 -6.44157,-4.777842 -6.4555,-4.755887 -15.93697,-11.976658 2.04063,-4.17125 6.96058,-8.114208 13.44571,-8.304042 12.72179,0.779526 26.65529,10.020053 34.54711,16.972877 z" />
    </g>
  </g>
</svg>
