<?xml version="1.0" encoding="UTF-8" standalone="no"?>
<svg
   xmlns:dc="http://purl.org/dc/elements/1.1/"
   xmlns:cc="http://creativecommons.org/ns#"
   xmlns:rdf="http://www.w3.org/1999/02/22-rdf-syntax-ns#"
   xmlns:svg="http://www.w3.org/2000/svg"
   xmlns="http://www.w3.org/2000/svg"
   id="svg5518"
   version="1.1"
   viewBox="0 0 126.00263 372.31076"
   height="372.31076mm"
   width="126.00263mm">
  <defs
     id="defs5512" />
  <metadata
     id="metadata5515">
    <rdf:RDF>
      <cc:Work
         rdf:about="">
        <dc:format>image/svg+xml</dc:format>
        <dc:type
           rdf:resource="http://purl.org/dc/dcmitype/StillImage" />
        <dc:title></dc:title>
      </cc:Work>
    </rdf:RDF>
  </metadata>
  <g
     transform="translate(188.58689,-21.441355)"
     id="layer1">
    <rect
       transform="rotate(90)"
       style="opacity:1;fill:#ffff00;fill-opacity:1;stroke:#000000;stroke-width:5.04967451;stroke-linecap:butt;stroke-linejoin:round;stroke-miterlimit:4;stroke-dasharray:none;stroke-dashoffset:0;stroke-opacity:1"
       id="rect6098"
       width="367.26108"
       height="120.95296"
       x="23.966192"
       y="65.109093"
       rx="0"
       ry="0" />
    <path
       id="path6078-2"
       d="m -176.06633,33.776457 h 101.150142 v 5.728624 H -176.06633 Z"
       style="fill:#000000;stroke:none;stroke-width:0.29703963px;stroke-linecap:butt;stroke-linejoin:round;stroke-opacity:1" />
    <path
       id="path6080-3"
       d="M -128.59227,125.77301 V 59.704897 l -5.11063,10.608557 -4.98604,-2.652139 13.20765,-25.672717 12.83637,25.937937 -5.09211,2.546046 -5.14515,-10.608558 v 65.909787 z"
       style="fill:#000000;fill-opacity:1;stroke:#000000;stroke-width:0.29703963;stroke-linecap:butt;stroke-linejoin:round;stroke-miterlimit:4;stroke-dasharray:none;stroke-opacity:1" />
    <path
       style="fill:#000000;stroke:none;stroke-width:0.29703963px;stroke-linecap:butt;stroke-linejoin:round;stroke-opacity:1"
       d="M -176.06633,381.37662 H -74.916188 V 375.648 H -176.06633 Z"
       id="path6118" />
    <path
       style="fill:#000000;fill-opacity:1;stroke:#000000;stroke-width:0.29703963;stroke-linecap:butt;stroke-linejoin:round;stroke-miterlimit:4;stroke-dasharray:none;stroke-opacity:1"
       d="m -128.59227,289.38006 v 66.06811 l -5.11063,-10.60856 -4.98604,2.65214 13.20765,25.67274 12.83637,-25.93795 -5.09211,-2.54606 -5.14515,10.60856 v -65.90977 z"
       id="path6120" />
    <g
       transform="matrix(1.1226696,0,0,1.1226696,-75.843982,208.42573)"
       aria-label="3,5 m"
       style="font-style:normal;font-weight:normal;font-size:34.83486938px;line-height:332.61694336px;font-family:sans-serif;letter-spacing:0px;word-spacing:0px;fill:#000000;fill-opacity:1;stroke:none;stroke-width:0.87087184"
       id="g6143">
      <path
         d="M -75.787107,-0.03504195 V -3.6273879 q 0.544295,0.1632885 1.08859,0.1632885 1.360737,0 2.286038,-0.9253012 0.979731,-0.9797307 0.979731,-2.3404678 0,-1.3607371 -0.979731,-2.2860383 -0.925301,-0.9797307 -2.286038,-0.9797307 -1.360737,0 -2.340468,0.9797307 -0.925301,0.9253012 -0.925301,2.2860383 h -4.354359 q 0,-3.1569101 2.231609,-5.3885186 2.231609,-2.231609 5.388519,-2.231609 3.15691,0 5.388519,2.231609 2.231609,2.2316085 2.231609,5.3885186 0,2.5581857 -1.524026,4.5720766 2.612615,2.6126152 2.612615,6.3138201 0,3.6467754 -2.558185,6.2049607 -2.558186,2.503757 -6.150532,2.503757 -3.592346,0 -6.150532,-2.503757 -2.558185,-2.5581853 -2.558185,-6.2049607 h 4.354358 q 0,1.7961729 1.251878,3.1024805 1.306308,1.2518781 3.102481,1.2518781 1.796173,0 3.048051,-1.2518781 1.306308,-1.3063076 1.306308,-3.1024805 0,-1.796173 -1.306308,-3.0480511 -1.251878,-1.3063076 -3.048051,-1.3063076 -0.544295,0 -1.08859,0.16328845 z"
         style="font-style:normal;font-variant:normal;font-weight:normal;font-stretch:normal;font-family:Drogowskaz;-inkscape-font-specification:Drogowskaz;stroke-width:0.87087184"
         id="path6135" />
      <path
         d="M -60.144692,12.320451 V 7.9660921 h 4.354359 q 0,2.7759039 -1.469596,5.1163719 -1.415167,2.340467 -3.810064,3.592345 z"
         style="font-style:normal;font-variant:normal;font-weight:normal;font-stretch:normal;font-family:Drogowskaz;-inkscape-font-specification:Drogowskaz;stroke-width:0.87087184"
         id="path6137" />
      <path
         d="m -43.0168,-9.4513426 -0.381007,4.5720766 q 0.925302,-0.2177179 1.850603,-0.2177179 3.592346,0 6.150531,2.5581857 2.558186,2.55818573 2.558186,6.1505316 0,3.5923459 -2.558186,6.1505317 -2.558185,2.5581859 -6.150531,2.5581859 -0.653154,0 -1.360737,-0.108859 l -6.150532,-0.979731 0.326577,-4.3543586 6.477108,1.0341602 q 0.381007,0.05443 0.707584,0.05443 1.796173,0 3.048051,-1.2518781 1.306307,-1.2518781 1.306307,-3.1024806 0,-1.8506024 -1.306307,-3.10248052 -1.251878,-1.25187812 -3.048051,-1.25187812 h -6.531538 l 1.088589,-13.06307626 h 13.063076 v 4.3543584 z"
         style="font-style:normal;font-variant:normal;font-weight:normal;font-stretch:normal;font-family:Drogowskaz;-inkscape-font-specification:Drogowskaz;stroke-width:0.87087184"
         id="path6139" />
      <path
         d="m -25.362561,-5.0969839 h 4.354359 v 2.1771793 q 1.632884,-2.1771793 4.354359,-2.1771793 2.503756,0 4.13664,1.9050319 1.905032,-1.9050319 4.5720771,-1.9050319 2.7214741,0 4.6265061,1.9050319 1.9050319,1.9050319 1.9050319,4.6265061 V 12.320451 H -5.7679466 V 1.9788489 q 0,-1.14301912 -0.8164422,-1.90503189 -0.7620128,-0.81644225 -1.9050321,-0.81644225 -1.1430191,0 -1.9594611,0.81644225 -0.762013,0.76201277 -0.762013,1.90503189 V 12.320451 h -4.354359 V 1.9788489 q 0,-1.14301912 -0.816442,-1.90503189 -0.762013,-0.81644225 -1.905032,-0.81644225 -1.143019,0 -1.959461,0.81644225 -0.762013,0.76201277 -0.762013,1.90503189 V 12.320451 h -4.354359 z"
         style="font-style:normal;font-variant:normal;font-weight:normal;font-stretch:normal;font-family:Drogowskaz;-inkscape-font-specification:Drogowskaz;stroke-width:0.87087184"
         id="path6141" />
    </g>
  </g>
</svg>
