<?xml version="1.0" encoding="UTF-8" standalone="no"?>
<!-- Created with Inkscape (http://www.inkscape.org/) -->

<svg
   xmlns:svg="http://www.w3.org/2000/svg"
   xmlns="http://www.w3.org/2000/svg"
   version="1.1"
   width="500.022"
   height="499.99927"
   id="svg2">
  <title
     id="title8360">Znak B-13/14</title>
  <defs
     id="defs4">
    <pattern
       patternUnits="userSpaceOnUse"
       width="370"
       height="476"
       patternTransform="translate(18.50938,18)"
       id="pattern5932">
      <rect
         ry="20"
         rx="20"
         y="0"
         x="0"
         height="476"
         width="370"
         id="rect5934"
         style="fill:#00e5ff;fill-opacity:1" />
    </pattern>
    <pattern
       id="pattern4002"
       patternTransform="translate(18.50938,18)"
       height="476"
       width="370"
       patternUnits="userSpaceOnUse">
      <rect
         style="fill:#00e5ff;fill-opacity:1"
         id="rect2240"
         width="370"
         height="476"
         x="0"
         y="0"
         rx="20"
         ry="20" />
    </pattern>
    <marker
       refX="0"
       refY="0"
       orient="auto"
       id="Arrow2Lstart"
       style="overflow:visible">
      <path
         d="M 8.7185878,4.0337352 -2.2072895,0.01601326 8.7185884,-4.0017078 c -1.7454984,2.3720609 -1.7354408,5.6174519 -6e-7,8.035443 z"
         transform="matrix(1.1,0,0,1.1,1.1,0)"
         id="path5785"
         style="font-size:12px;fill-rule:evenodd;stroke-width:0.625;stroke-linejoin:round" />
    </marker>
    <marker
       refX="0"
       refY="0"
       orient="auto"
       id="marker3281"
       style="overflow:visible">
      <path
         d="M 8.7185878,4.0337352 -2.2072895,0.01601326 8.7185884,-4.0017078 c -1.7454984,2.3720609 -1.7354408,5.6174519 -6e-7,8.035443 z"
         transform="matrix(1.1,0,0,1.1,1.1,0)"
         id="path3283"
         style="font-size:12px;fill-rule:evenodd;stroke-width:0.625;stroke-linejoin:round" />
    </marker>
    <pattern
       patternUnits="userSpaceOnUse"
       width="370"
       height="476"
       patternTransform="translate(18.50938,18)"
       id="pattern3285">
      <rect
         ry="20"
         rx="20"
         y="0"
         x="0"
         height="476"
         width="370"
         id="rect3287"
         style="fill:#00e5ff;fill-opacity:1" />
    </pattern>
    <pattern
       id="pattern3289"
       patternTransform="translate(18.50938,18)"
       height="476"
       width="370"
       patternUnits="userSpaceOnUse">
      <rect
         style="fill:#00e5ff;fill-opacity:1"
         id="rect3291"
         width="370"
         height="476"
         x="0"
         y="0"
         rx="20"
         ry="20" />
    </pattern>
    <marker
       refX="0"
       refY="0"
       orient="auto"
       id="marker3293"
       style="overflow:visible">
      <path
         d="M 8.7185878,4.0337352 -2.2072895,0.01601326 8.7185884,-4.0017078 c -1.7454984,2.3720609 -1.7354408,5.6174519 -6e-7,8.035443 z"
         transform="matrix(1.1,0,0,1.1,1.1,0)"
         id="path3295"
         style="font-size:12px;fill-rule:evenodd;stroke-width:0.625;stroke-linejoin:round" />
    </marker>
    <pattern
       patternUnits="userSpaceOnUse"
       width="370"
       height="476"
       patternTransform="translate(18.50938,18)"
       id="pattern3297">
      <rect
         ry="20"
         rx="20"
         y="0"
         x="0"
         height="476"
         width="370"
         id="rect3299"
         style="fill:#00e5ff;fill-opacity:1" />
    </pattern>
    <pattern
       id="pattern3301"
       patternTransform="translate(18.50938,18)"
       height="476"
       width="370"
       patternUnits="userSpaceOnUse">
      <rect
         style="fill:#00e5ff;fill-opacity:1"
         id="rect3303"
         width="370"
         height="476"
         x="0"
         y="0"
         rx="20"
         ry="20" />
    </pattern>
    <pattern
       id="pattern3305"
       patternTransform="translate(18.50938,18)"
       height="476"
       width="370"
       patternUnits="userSpaceOnUse">
      <rect
         style="fill:#00e5ff;fill-opacity:1"
         id="rect3307"
         width="370"
         height="476"
         x="0"
         y="0"
         rx="20"
         ry="20" />
    </pattern>
    <pattern
       patternUnits="userSpaceOnUse"
       width="370"
       height="476"
       patternTransform="translate(18.50938,18)"
       id="pattern3309">
      <rect
         ry="20"
         rx="20"
         y="0"
         x="0"
         height="476"
         width="370"
         id="rect3311"
         style="fill:#00e5ff;fill-opacity:1" />
    </pattern>
    <marker
       refX="0"
       refY="0"
       orient="auto"
       id="marker3313"
       style="overflow:visible">
      <path
         d="M 8.7185878,4.0337352 -2.2072895,0.01601326 8.7185884,-4.0017078 c -1.7454984,2.3720609 -1.7354408,5.6174519 -6e-7,8.035443 z"
         transform="matrix(1.1,0,0,1.1,1.1,0)"
         id="path3315"
         style="font-size:12px;fill-rule:evenodd;stroke-width:0.625;stroke-linejoin:round" />
    </marker>
    <pattern
       id="pattern3317"
       patternTransform="translate(18.50938,18)"
       height="476"
       width="370"
       patternUnits="userSpaceOnUse">
      <rect
         style="fill:#00e5ff;fill-opacity:1"
         id="rect3319"
         width="370"
         height="476"
         x="0"
         y="0"
         rx="20"
         ry="20" />
    </pattern>
    <marker
       refX="0"
       refY="0"
       orient="auto"
       id="marker3321"
       style="overflow:visible">
      <path
         d="M 8.7185878,4.0337352 -2.2072895,0.01601326 8.7185884,-4.0017078 c -1.7454984,2.3720609 -1.7354408,5.6174519 -6e-7,8.035443 z"
         transform="matrix(1.1,0,0,1.1,1.1,0)"
         id="path3323"
         style="font-size:12px;fill-rule:evenodd;stroke-width:0.625;stroke-linejoin:round" />
    </marker>
    <pattern
       patternUnits="userSpaceOnUse"
       width="370"
       height="476"
       patternTransform="translate(18.50938,18)"
       id="pattern3325">
      <rect
         ry="20"
         rx="20"
         y="0"
         x="0"
         height="476"
         width="370"
         id="rect3327"
         style="fill:#00e5ff;fill-opacity:1" />
    </pattern>
    <pattern
       id="pattern3329"
       patternTransform="translate(18.50938,18)"
       height="476"
       width="370"
       patternUnits="userSpaceOnUse">
      <rect
         style="fill:#00e5ff;fill-opacity:1"
         id="rect3331"
         width="370"
         height="476"
         x="0"
         y="0"
         rx="20"
         ry="20" />
    </pattern>
    <pattern
       id="pattern3333"
       patternTransform="translate(18.50938,18)"
       height="476"
       width="370"
       patternUnits="userSpaceOnUse">
      <rect
         style="fill:#00e5ff;fill-opacity:1"
         id="rect3335"
         width="370"
         height="476"
         x="0"
         y="0"
         rx="20"
         ry="20" />
    </pattern>
    <pattern
       patternUnits="userSpaceOnUse"
       width="370"
       height="476"
       patternTransform="translate(18.50938,18)"
       id="pattern3337">
      <rect
         ry="20"
         rx="20"
         y="0"
         x="0"
         height="476"
         width="370"
         id="rect3339"
         style="fill:#00e5ff;fill-opacity:1" />
    </pattern>
    <marker
       refX="0"
       refY="0"
       orient="auto"
       id="marker3341"
       style="overflow:visible">
      <path
         d="M 8.7185878,4.0337352 -2.2072895,0.01601326 8.7185884,-4.0017078 c -1.7454984,2.3720609 -1.7354408,5.6174519 -6e-7,8.035443 z"
         transform="matrix(1.1,0,0,1.1,1.1,0)"
         id="path3343"
         style="font-size:12px;fill-rule:evenodd;stroke-width:0.625;stroke-linejoin:round" />
    </marker>
    <marker
       refX="0"
       refY="0"
       orient="auto"
       id="marker4288"
       style="overflow:visible">
      <path
         d="M 8.7185878,4.0337352 -2.2072895,0.01601326 8.7185884,-4.0017078 c -1.7454984,2.3720609 -1.7354408,5.6174519 -6e-7,8.035443 z"
         transform="matrix(1.1,0,0,1.1,1.1,0)"
         id="path4290"
         style="font-size:12px;fill-rule:evenodd;stroke-width:0.625;stroke-linejoin:round" />
    </marker>
    <pattern
       patternUnits="userSpaceOnUse"
       width="370"
       height="476"
       patternTransform="translate(18.50938,18)"
       id="pattern4292">
      <rect
         ry="20"
         rx="20"
         y="0"
         x="0"
         height="476"
         width="370"
         id="rect4294"
         style="fill:#00e5ff;fill-opacity:1" />
    </pattern>
    <pattern
       id="pattern4296"
       patternTransform="translate(18.50938,18)"
       height="476"
       width="370"
       patternUnits="userSpaceOnUse">
      <rect
         style="fill:#00e5ff;fill-opacity:1"
         id="rect4298"
         width="370"
         height="476"
         x="0"
         y="0"
         rx="20"
         ry="20" />
    </pattern>
    <marker
       refX="0"
       refY="0"
       orient="auto"
       id="marker3928"
       style="overflow:visible">
      <path
         d="M 8.7185878,4.0337352 -2.2072895,0.01601326 8.7185884,-4.0017078 c -1.7454984,2.3720609 -1.7354408,5.6174519 -6e-7,8.035443 z"
         transform="matrix(1.1,0,0,1.1,1.1,0)"
         id="path3930"
         style="font-size:12px;fill-rule:evenodd;stroke-width:0.625;stroke-linejoin:round" />
    </marker>
    <pattern
       patternUnits="userSpaceOnUse"
       width="370"
       height="476"
       patternTransform="translate(18.50938,18)"
       id="pattern3932">
      <rect
         ry="20"
         rx="20"
         y="0"
         x="0"
         height="476"
         width="370"
         id="rect3934"
         style="fill:#00e5ff;fill-opacity:1" />
    </pattern>
    <pattern
       id="pattern3936"
       patternTransform="translate(18.50938,18)"
       height="476"
       width="370"
       patternUnits="userSpaceOnUse">
      <rect
         style="fill:#00e5ff;fill-opacity:1"
         id="rect3938"
         width="370"
         height="476"
         x="0"
         y="0"
         rx="20"
         ry="20" />
    </pattern>
    <pattern
       id="pattern2321"
       patternTransform="translate(18.50938,18)"
       height="476"
       width="370"
       patternUnits="userSpaceOnUse">
      <rect
         style="fill:#00e5ff;fill-opacity:1"
         id="rect2323"
         width="370"
         height="476"
         x="0"
         y="0"
         rx="20"
         ry="20" />
    </pattern>
    <pattern
       patternUnits="userSpaceOnUse"
       width="370"
       height="476"
       patternTransform="translate(18.50938,18)"
       id="pattern2317">
      <rect
         ry="20"
         rx="20"
         y="0"
         x="0"
         height="476"
         width="370"
         id="rect2319"
         style="fill:#00e5ff;fill-opacity:1" />
    </pattern>
    <marker
       refX="0"
       refY="0"
       orient="auto"
       id="marker2313"
       style="overflow:visible">
      <path
         d="M 8.7185878,4.0337352 -2.2072895,0.01601326 8.7185884,-4.0017078 c -1.7454984,2.3720609 -1.7354408,5.6174519 -6e-7,8.035443 z"
         transform="matrix(1.1,0,0,1.1,1.1,0)"
         id="path2315"
         style="font-size:12px;fill-rule:evenodd;stroke-width:0.625;stroke-linejoin:round" />
    </marker>
    <pattern
       id="pattern5613"
       patternTransform="translate(18.50938,18)"
       height="476"
       width="370"
       patternUnits="userSpaceOnUse">
      <rect
         style="fill:#00e5ff;fill-opacity:1"
         id="rect5615"
         width="370"
         height="476"
         x="0"
         y="0"
         rx="20"
         ry="20" />
    </pattern>
    <marker
       refX="0"
       refY="0"
       orient="auto"
       id="marker2936"
       style="overflow:visible">
      <path
         d="M 8.7185878,4.0337352 -2.2072895,0.01601326 8.7185884,-4.0017078 c -1.7454984,2.3720609 -1.7354408,5.6174519 -6e-7,8.035443 z"
         transform="matrix(1.1,0,0,1.1,1.1,0)"
         id="path2938"
         style="font-size:12px;fill-rule:evenodd;stroke-width:0.625;stroke-linejoin:round" />
    </marker>
    <pattern
       patternUnits="userSpaceOnUse"
       width="370"
       height="476"
       patternTransform="translate(18.50938,18)"
       id="pattern2940">
      <rect
         ry="20"
         rx="20"
         y="0"
         x="0"
         height="476"
         width="370"
         id="rect2942"
         style="fill:#00e5ff;fill-opacity:1" />
    </pattern>
    <pattern
       id="pattern2944"
       patternTransform="translate(18.50938,18)"
       height="476"
       width="370"
       patternUnits="userSpaceOnUse">
      <rect
         style="fill:#00e5ff;fill-opacity:1"
         id="rect2946"
         width="370"
         height="476"
         x="0"
         y="0"
         rx="20"
         ry="20" />
    </pattern>
    <pattern
       id="pattern5932-6"
       patternTransform="translate(18.50938,18)"
       height="476"
       width="370"
       patternUnits="userSpaceOnUse">
      <rect
         style="fill:#00e5ff;fill-opacity:1"
         id="rect5934-1"
         width="370"
         height="476"
         x="0"
         y="0"
         rx="20"
         ry="20" />
    </pattern>
    <pattern
       patternUnits="userSpaceOnUse"
       width="370"
       height="476"
       patternTransform="translate(18.50938,18)"
       id="pattern4002-4">
      <rect
         ry="20"
         rx="20"
         y="0"
         x="0"
         height="476"
         width="370"
         id="rect2240-2"
         style="fill:#00e5ff;fill-opacity:1" />
    </pattern>
    <marker
       refX="0"
       refY="0"
       orient="auto"
       id="Arrow2Lstart-3"
       style="overflow:visible">
      <path
         d="M 8.7185878,4.0337352 -2.2072895,0.01601326 8.7185884,-4.0017078 c -1.7454984,2.3720609 -1.7354408,5.6174519 -6e-7,8.035443 z"
         transform="matrix(1.1,0,0,1.1,1.1,0)"
         id="path5785-2"
         style="font-size:12px;fill-rule:evenodd;stroke-width:0.625;stroke-linejoin:round" />
    </marker>
    <marker
       refX="0"
       refY="0"
       orient="auto"
       id="Arrow2Lstart-6"
       style="overflow:visible">
      <path
         d="M 8.7185878,4.0337352 -2.2072895,0.01601326 8.7185884,-4.0017078 c -1.7454984,2.3720609 -1.7354408,5.6174519 -6e-7,8.035443 z"
         transform="matrix(1.1,0,0,1.1,1.1,0)"
         id="path5785-3"
         style="font-size:12px;fill-rule:evenodd;stroke-width:0.625;stroke-linejoin:round" />
    </marker>
    <pattern
       id="pattern4002-3"
       patternTransform="translate(18.50938,18)"
       height="476"
       width="370"
       patternUnits="userSpaceOnUse">
      <rect
         style="fill:#00e5ff;fill-opacity:1"
         id="rect2240-5"
         width="370"
         height="476"
         x="0"
         y="0"
         rx="20"
         ry="20" />
    </pattern>
    <pattern
       patternUnits="userSpaceOnUse"
       width="370"
       height="476"
       patternTransform="translate(18.50938,18)"
       id="pattern5932-2">
      <rect
         ry="20"
         rx="20"
         y="0"
         x="0"
         height="476"
         width="370"
         id="rect5934-9"
         style="fill:#00e5ff;fill-opacity:1" />
    </pattern>
  </defs>
  <g
     transform="translate(-390.3347,-659.05563)"
     id="layer1">
    <g
       transform="matrix(1.0328218,0,0,1.0328218,-909.89096,546.2398)"
       id="g8342">
      <path
         d="m 1743.038,351.38403 a 242.05472,242.05495 0 0 1 -484.1094,0 242.05472,242.05495 0 1 1 484.1094,0 z"
         id="path8310"
         style="fill:#ffffff;fill-opacity:1;fill-rule:nonzero;stroke:none" />
      <g
         transform="matrix(0.49405369,0,0,0.49405369,1069.9813,-18.776933)"
         id="g8312">
        <path
           d="m 779.62607,581.71086 -71.80216,-69.63307 65.38984,0 -42.66963,-83.4235 78.35698,27.09799 0,-84.39722 49.8736,65.27901 26.26677,-66.27648 24.92589,103.5687 107.67874,-67.55392 -28.36949,77.27165 35.73619,5.48582 -49.21563,101.40925 -12.82621,23.90248 0,-44.27838 -11.97752,-11.44962 -10.46224,-46.63578 -138.9675,0 -10.0704,46.63578 -11.86723,11.70432 0,11.29297 z"
           id="path8314"
           style="fill:#ff9600;fill-opacity:1;stroke:none" />
        <g
           transform="matrix(0.35624042,0,0,-0.35621775,698.2448,769.20306)"
           id="g8316">
          <path
             d="m 333.77803,340.90771 0,-69.33767 -82.22213,0 0,69.33767 -23.1111,0 0,217.23238 33.29963,32.76105 L 290,721.82047 l 390.30155,0 29.45389,-130.91933 33.35551,-32.54104 0,-217.45239 -23.55553,0 0,-69.33767 -82.22214,0 0,69.33767 -303.55525,0 z"
             id="path8318"
             style="fill:#000000;fill-opacity:1;fill-rule:evenodd;stroke:none" />
          <path
             d="M 295.28888,580.92273 310,675.15088 l 348.88892,0 16.26667,-94.22815 -379.86671,0 z"
             id="path8320"
             style="fill:#ffffff;fill-opacity:1;fill-rule:evenodd;stroke:none" />
          <path
             d="m 358.71478,506.36258 a 34.68237,32.700521 0 1 1 -69.36474,0 34.68237,32.700521 0 1 1 69.36474,0 z"
             transform="matrix(1.081241,0,0,1.146771,-66.114109,-116.62363)"
             id="path8322"
             style="fill:#ffffff;fill-opacity:1;fill-rule:nonzero;stroke:none" />
          <rect
             width="467.99951"
             height="17.77886"
             x="251.55591"
             y="395.57782"
             id="rect8324"
             style="fill:#ffffff;fill-opacity:1;fill-rule:nonzero;stroke:none" />
          <path
             d="m 358.71478,506.36258 a 34.68237,32.700521 0 1 1 -69.36474,0 34.68237,32.700521 0 1 1 69.36474,0 z"
             transform="matrix(1.081241,0,0,1.146771,331.84518,-116.42034)"
             id="path8326"
             style="fill:#ffffff;fill-opacity:1;fill-rule:nonzero;stroke:none" />
        </g>
        <path
           d="m 970.85994,599.73853 0,-20.64129 41.30036,-83.38442 -34.40391,-5.48582 23.43231,-64.18406 -96.86389,60.42235 -21.39468,-89.57555 -22.17838,56.11208 -43.60172,-56.50392 0,71.00214 -69.87632,-24.05922 39.6938,77.03654 -58.50233,0 42.94612,41.79071 0,11.49072 -63.59629,-61.681 65.42645,0 -42.70082,-83.42696 78.36046,27.10145 0,-84.38338 49.8736,65.29287 26.26677,-66.31805 24.9259,103.58257 107.67873,-67.55511 -28.40868,77.29243 35.77418,5.46623 -49.14475,101.40925 -5.00691,9.19944 z"
           id="path8328"
           style="fill:#d40000;fill-opacity:1;stroke:none" />
      </g>
      <path
         d="m 1500.8436,109.3792 c -133.5423,0 -241.9375,108.4 -241.9375,241.9375 0,133.53745 108.3952,241.87495 241.9375,241.87495 133.5424,0 241.9063,-108.3375 241.9063,-241.87495 0,-133.53749 -108.3639,-241.9375 -241.9063,-241.9375 z m 0,47.3125 c 103.2395,0 187.771,80.50965 194.2188,182.125 l -388.4375,0 c 6.4478,-101.61535 90.9792,-182.125 194.2187,-182.125 z m -194.2499,206.6875 388.5,0 c -6.247,101.80785 -90.8723,182.53125 -194.2501,182.53125 -103.3778,0 -188.003,-80.7234 -194.2499,-182.53125 z"
         id="path8330"
         style="fill:#d40000;fill-opacity:1;fill-rule:nonzero;stroke:none" />
      <g
         transform="matrix(0.48454578,0,0,0.48454578,13.421785,286.96383)"
         id="g8332">
        <path
           d="m 3171.7302,236.5314 c 0,29.74473 -28.8969,53.85761 -102.7389,53.85761 -45.358,0 -102.7389,-14.19561 -102.7389,-53.85761 0,-43.84759 57.9606,-53.85761 102.7389,-53.85761 33.3923,0 102.7389,10.60337 102.7389,53.85761 z"
           id="path8334"
           style="fill:#ff9700;fill-opacity:1;fill-rule:nonzero;stroke:none" />
        <path
           d="m 2982.792,282.97654 c -4.5145,0.006 -9.0643,0.86313 -13.6444,2.54107 l 0,72.20957 c 8.2955,5.31853 18.7651,5.3805 27.0957,0 l 0,-18.3399 4.2217,0 0,-10.4405 46.0197,0 11.4624,0 c 2.483,3.21772 6.3687,5.30311 10.7443,5.30311 4.3757,0 8.2613,-2.08539 10.7444,-5.30311 l 18.3674,0 39.1147,0 0,10.4405 4.2217,0 0,18.3399 c 8.3307,5.3805 18.8003,5.31853 27.0957,0 l 0,-72.20957 c -9.1605,-3.35586 -18.1813,-3.40981 -27.0957,0 l 0,14.98023 -4.2217,0 0,12.2358 -39.308,0 -17.9255,0 c -2.4674,-3.40411 -6.4703,-5.63456 -10.993,-5.63456 -4.5226,0 -8.5255,2.23045 -10.9926,5.63456 l -11.2141,0 -46.0197,0 0,-12.2358 -4.2217,0 0,-14.98023 c -4.4572,-1.70491 -8.9364,-2.54781 -13.4513,-2.54107 z"
           id="path8336"
           style="fill:#000000;fill-opacity:1;fill-rule:nonzero;stroke:none" />
        <path
           d="m 2927.7792,394.63523 c 0,5.03879 0,12.93902 0,17.97787 21.7845,13.80146 46.4548,9.3015 66.8562,-2.84975 21.7848,13.80146 45.1961,16.57574 73.9061,0 21.7846,13.80146 45.1939,16.4903 73.756,0 21.7846,13.80146 49.3043,15.15097 69.7062,2.99973 0,-5.03886 0,-13.08906 0,-18.12785 -22.3033,14.8515 -48.2674,12.60169 -69.7062,-2.24981 -22.3033,14.8515 -52.3173,14.8515 -73.756,0 -22.3032,14.8515 -52.4669,14.8515 -73.9061,0 -22.3029,14.8515 -45.4176,17.10131 -66.8562,2.24981 z"
           id="path8338"
           style="fill:#003399;fill-opacity:1;stroke:none" />
        <path
           d="m 2927.7792,427.63228 c 0,5.03879 0,12.93902 0,17.97788 21.7845,13.80146 46.4548,9.30149 66.8562,-2.84975 21.7848,13.80146 45.1961,16.57572 73.9061,0 21.7846,13.80146 45.1939,16.49029 73.756,0 21.7846,13.80146 49.3043,15.15096 69.7062,2.99972 0,-5.03887 0,-13.08906 0,-18.12785 -22.3033,14.85151 -48.2674,12.6017 -69.7062,-2.2498 -22.3033,14.8515 -52.3173,14.8515 -73.756,0 -22.3032,14.8515 -52.4669,14.8515 -73.9061,0 -22.3029,14.8515 -45.4176,17.10131 -66.8562,2.2498 z"
           id="path8340"
           style="fill:#003399;fill-opacity:1;stroke:none" />
      </g>
    </g>
  </g>
</svg>
