<?xml version="1.0" encoding="UTF-8" standalone="no"?>
<!-- Created with Inkscape (http://www.inkscape.org/) -->

<svg
   xmlns:svg="http://www.w3.org/2000/svg"
   xmlns="http://www.w3.org/2000/svg"
   version="1.1"
   width="500"
   height="500"
   id="svg4205">
  <title
     id="title4783">Znak B-40</title>
  <defs
     id="defs4207" />
  <g
     transform="translate(-776.64172,-537.43008)"
     id="layer1">
    <g
       transform="matrix(0.87445344,0,0,0.884681,776.64171,59.38188)"
       id="g4267">
      <rect
         width="571.78571"
         height="565.17548"
         rx="28.130762"
         ry="28.130762"
         x="1.5890067e-14"
         y="540.36218"
         id="rect4167"
         style="fill:#000000;fill-opacity:1;stroke:none" />
      <rect
         width="550.8808"
         height="543.03113"
         rx="17.847645"
         ry="17.847645"
         x="10.576399"
         y="551.59967"
         id="rect4169"
         style="fill:#ffffff;fill-opacity:1;stroke:none" />
      <path
         d="m 286.17801,608.74881 c -47.34351,0 -91.13382,14.97619 -126.78439,40.37203 -0.24986,0.17435 -0.50352,0.34519 -0.75191,0.52056 -6.4028,4.51907 -12.30614,9.34678 -17.67004,14.1707 -0.34732,0.30919 -0.69584,0.61393 -1.04111,0.92543 -0.86714,0.78995 -1.73741,1.58481 -2.57382,2.37142 -6.22928,5.80423 -12.11531,11.98872 -17.6122,18.47971 -0.68103,0.8042 -1.3552,1.61516 -2.02439,2.42926 -0.27735,0.33306 -0.60199,0.68973 -0.86759,1.01224 -0.39775,0.49002 -0.79226,0.98133 -1.18566,1.47486 -4.58303,5.66486 -7.11427,9.37002 -7.11427,9.37002 l 0.0574,0.0574 c -24.65651,34.68229 -39.157405,76.90936 -39.157405,122.47539 0,117.99711 97.032815,213.65947 216.724955,213.65947 46.10047,0 88.82208,-14.2128 123.95015,-38.40553 0.49511,-0.3327 1.00891,-0.6715 1.50383,-1.0123 0.16389,-0.1148 0.32816,-0.2317 0.49168,-0.347 2.63897,-1.8305 5.25017,-3.7779 7.86619,-5.8128 1.32485,-1.0306 2.64868,-2.076 3.96205,-3.1523 0.0267,-0.022 0.0599,-0.036 0.0867,-0.057 0.30835,-0.2509 0.61847,-0.4994 0.92543,-0.7519 1.01511,-0.8427 2.03105,-1.7066 3.03663,-2.5738 0.20285,-0.1734 0.40497,-0.3466 0.60727,-0.5206 0.0978,-0.085 0.19147,-0.1751 0.28919,-0.2603 10.73512,-9.2699 20.5338,-19.57158 29.23787,-30.74168 0.57479,-0.73368 1.14791,-1.46422 1.70632,-2.1979 0.35879,-0.47299 0.71517,-0.94117 1.06998,-1.41712 0.68269,-0.91414 1.34031,-1.80645 1.99551,-2.71846 0.20638,-0.28614 0.40229,-0.58043 0.60737,-0.86759 24.80365,-34.74596 39.38867,-77.10758 39.38867,-122.82233 0,-117.99721 -97.03291,-213.65945 -216.72486,-213.65945 z m -0.11568,48.61413 c 92.66134,0 167.76369,73.88744 167.76369,165.01635 0,32.31003 -9.45034,62.44141 -25.76758,87.88731 L 197.01823,682.49429 c 25.80877,-15.92579 56.33086,-25.13135 89.0441,-25.13135 z m -142.19868,77.38937 230.69326,227.80123 c -25.68976,15.71743 -56.00909,24.81323 -88.49458,24.81323 -92.66162,0 -167.79265,-73.85856 -167.79265,-164.98748 0,-32.19546 9.37862,-62.23355 25.59397,-87.62698 z"
         id="path4171"
         style="fill:#a9a8a7;fill-opacity:1;stroke:#a9a8a7;stroke-width:5.22314644;stroke-miterlimit:4;stroke-opacity:1;stroke-dasharray:none" />
      <path
         d="m 571.78575,566.94568 0,23.37071 -520.38392,515.22131 -23.808904,0 c 0,0 -27.592910866135,-0.7873 -27.592910866135,-28.9934 l 0,-21.2674 L 519.40057,540.36223 l 27.2269,0 c 25.15828,0 25.12358,26.58345 25.15828,26.58345 z"
         id="path4173"
         style="fill:#000000;fill-opacity:1;stroke:none" />
    </g>
  </g>
</svg>
