<?xml version="1.0" encoding="UTF-8" standalone="no"?>
<!-- Created with Inkscape (http://www.inkscape.org/) -->

<svg
   xmlns:svg="http://www.w3.org/2000/svg"
   xmlns="http://www.w3.org/2000/svg"
   version="1.1"
   width="603.41974"
   height="752.46912"
   id="svg5856">
  <defs
     id="defs5858" />
  <g
     transform="translate(-683.362,123.72797)"
     id="layer1">
    <g
       transform="matrix(1.501641,0,0,1.501641,-826.1204,-84.14431)"
       id="g3920"
       style="font-size:44.79442596px;font-style:normal;font-variant:normal;font-weight:bold;font-stretch:normal;text-align:start;line-height:125%;writing-mode:lr-tb;text-anchor:start;fill:#ffffff;fill-opacity:1;stroke:none;font-family:Drogowskaz;-inkscape-font-specification:Drogowskaz Bold" />
    <g
       transform="matrix(1.4902021,0,0,1.4902021,-2654.4274,-277.05487)"
       id="g6563">
      <g
         id="g6559">
        <rect
           width="401.92148"
           height="501.94107"
           rx="21.338741"
           ry="21.338741"
           x="2241.325"
           y="104.39165"
           id="rect3910-2"
           style="fill:#ffffff;fill-opacity:1;fill-rule:nonzero;stroke:#000000;stroke-width:3.00328207;stroke-linecap:butt;stroke-linejoin:round;stroke-miterlimit:4;stroke-opacity:1;stroke-dasharray:none;stroke-dashoffset:0" />
        <rect
           width="394.99112"
           height="495.0528"
           rx="19.158863"
           ry="19.158863"
           x="2244.7871"
           y="107.79393"
           id="rect3912-22"
           style="fill:#003399;fill-opacity:1;fill-rule:nonzero;stroke:none" />
      </g>
      <g
         id="g6552">
        <rect
           width="294.89716"
           height="294.02118"
           ry="0"
           x="2294.8179"
           y="157.84013"
           id="rect3914-0"
           style="fill:#ffffff;fill-opacity:1;fill-rule:nonzero;stroke:none" />
        <g
           id="g6547">
          <path
             d="m 2396.076,185.72793 -0.1562,229.96875 -18.1563,-0.0625 -0.062,9.4375 41.0313,0 88.4062,0 0,-9.40625 -18.5625,0 0,-66.65625 18.5625,0 c 15.5007,0 15.5,-15.1875 15.5,-15.1875 l 0,-76.875 1.9688,0 12.25,-13.90625 0,-16.03125 -5.9375,0 0,-13.15625 -4.2188,0 0,13.15625 -15.0625,0 0,-13.15625 -4.5,0 0,13.15625 -5.6562,0 0,16.5625 12.0312,13.375 2.1563,0 0,73.40625 c 0,0 0,11.6875 -8.5313,11.6875 l -18.5625,0 0,-156.3125 -92.5,0 z m 19.1563,41.25 54.9062,0 0,41.40625 -54.9062,0 0,-41.40625 z"
             id="path3918-8"
             style="fill:#016633;fill-opacity:1;stroke:none" />
          <path
             d="m 2424.5844,333.77242 12.7189,0 0,-5.65282 -18.3717,0 0,33.91692 18.3717,0 0,-5.65283 -12.7189,0 0,-8.47922 9.8924,0 0,-5.65282 -9.8924,0 0,-8.47923 z"
             id="path3922-2"
             style="font-size:44.79442596px;font-style:normal;font-variant:normal;font-weight:bold;font-stretch:normal;text-align:start;line-height:125%;writing-mode:lr-tb;text-anchor:start;fill:#ffffff;fill-opacity:1;stroke:none;font-family:Drogowskaz;-inkscape-font-specification:Drogowskaz Bold" />
          <path
             d="m 2441.4344,328.1196 9.8924,33.91692 5.6529,0 9.8924,-33.91692 -5.6528,0 -7.0661,24.22636 -7.066,-24.22636 -5.6528,0 z"
             id="path3924-4"
             style="font-size:44.79442596px;font-style:normal;font-variant:normal;font-weight:bold;font-stretch:normal;text-align:start;line-height:125%;writing-mode:lr-tb;text-anchor:start;fill:#ffffff;fill-opacity:1;stroke:none;font-family:Drogowskaz;-inkscape-font-specification:Drogowskaz Bold" />
        </g>
      </g>
    </g>
  </g>
</svg>
