<?xml version="1.0" encoding="UTF-8" standalone="no"?>
<!-- Created with Inkscape (http://www.inkscape.org/) -->

<svg
   xmlns:svg="http://www.w3.org/2000/svg"
   xmlns="http://www.w3.org/2000/svg"
   version="1.1"
   width="836.53705"
   height="558.9754"
   id="svg2">
  <title
     id="title2994">Znak D-41</title>
  <defs
     id="defs4">
    <pattern
       patternUnits="userSpaceOnUse"
       width="370"
       height="476"
       patternTransform="translate(18.50938,18)"
       id="pattern4002-71">
      <rect
         ry="20"
         rx="20"
         y="0"
         x="0"
         height="476"
         width="370"
         id="rect2240-1"
         style="fill:#00e5ff;fill-opacity:1" />
    </pattern>
    <pattern
       id="pattern4002-9"
       patternTransform="translate(18.50938,18)"
       height="476"
       width="370"
       patternUnits="userSpaceOnUse">
      <rect
         style="fill:#00e5ff;fill-opacity:1"
         id="rect2240-4"
         width="370"
         height="476"
         x="0"
         y="0"
         rx="20"
         ry="20" />
    </pattern>
    <pattern
       id="pattern4002-1"
       patternTransform="translate(18.50938,18)"
       height="476"
       width="370"
       patternUnits="userSpaceOnUse">
      <rect
         style="fill:#00e5ff;fill-opacity:1"
         id="rect2240-7"
         width="370"
         height="476"
         x="0"
         y="0"
         rx="20"
         ry="20" />
    </pattern>
    <pattern
       id="pattern4002-40"
       patternTransform="translate(18.50938,18)"
       height="476"
       width="370"
       patternUnits="userSpaceOnUse">
      <rect
         style="fill:#00e5ff;fill-opacity:1"
         id="rect2240-9"
         width="370"
         height="476"
         x="0"
         y="0"
         rx="20"
         ry="20" />
    </pattern>
    <pattern
       id="pattern4002-9-7"
       patternTransform="translate(18.50938,18)"
       height="476"
       width="370"
       patternUnits="userSpaceOnUse">
      <rect
         style="fill:#00e5ff;fill-opacity:1"
         id="rect2240-4-1"
         width="370"
         height="476"
         x="0"
         y="0"
         rx="20"
         ry="20" />
    </pattern>
    <pattern
       id="pattern4002-1-5"
       patternTransform="translate(18.50938,18)"
       height="476"
       width="370"
       patternUnits="userSpaceOnUse">
      <rect
         style="fill:#00e5ff;fill-opacity:1"
         id="rect2240-7-1"
         width="370"
         height="476"
         x="0"
         y="0"
         rx="20"
         ry="20" />
    </pattern>
    <pattern
       id="pattern4002-4"
       patternTransform="translate(18.50938,18)"
       height="476"
       width="370"
       patternUnits="userSpaceOnUse">
      <rect
         style="fill:#00e5ff;fill-opacity:1"
         id="rect2240-5"
         width="370"
         height="476"
         x="0"
         y="0"
         rx="20"
         ry="20" />
    </pattern>
    <pattern
       id="pattern5932-4"
       patternTransform="translate(18.50938,18)"
       height="476"
       width="370"
       patternUnits="userSpaceOnUse">
      <rect
         style="fill:#00e5ff;fill-opacity:1"
         id="rect5934-8"
         width="370"
         height="476"
         x="0"
         y="0"
         rx="20"
         ry="20" />
    </pattern>
    <pattern
       patternUnits="userSpaceOnUse"
       width="370"
       height="476"
       patternTransform="translate(18.50938,18)"
       id="pattern4002-7">
      <rect
         ry="20"
         rx="20"
         y="0"
         x="0"
         height="476"
         width="370"
         id="rect2240-6"
         style="fill:#00e5ff;fill-opacity:1" />
    </pattern>
    <marker
       refX="0"
       refY="0"
       orient="auto"
       id="Arrow2Lstart-8"
       style="overflow:visible">
      <path
         d="M 8.7185878,4.0337352 -2.2072895,0.01601326 8.7185884,-4.0017078 c -1.7454984,2.3720609 -1.7354408,5.6174519 -6e-7,8.035443 z"
         transform="matrix(1.1,0,0,1.1,1.1,0)"
         id="path5785-2"
         style="font-size:12px;fill-rule:evenodd;stroke-width:0.625;stroke-linejoin:round" />
    </marker>
    <marker
       refX="0"
       refY="0"
       orient="auto"
       id="Arrow2Lstart"
       style="overflow:visible">
      <path
         d="M 8.7185878,4.0337352 -2.2072895,0.01601326 8.7185884,-4.0017078 c -1.7454984,2.3720609 -1.7354408,5.6174519 -6e-7,8.035443 z"
         transform="matrix(1.1,0,0,1.1,1.1,0)"
         id="path5785"
         style="font-size:12px;fill-rule:evenodd;stroke-width:0.625;stroke-linejoin:round" />
    </marker>
    <pattern
       patternUnits="userSpaceOnUse"
       width="370"
       height="476"
       patternTransform="translate(18.50938,18)"
       id="pattern4002-0">
      <rect
         ry="20"
         rx="20"
         y="0"
         x="0"
         height="476"
         width="370"
         id="rect2240-94"
         style="fill:#00e5ff;fill-opacity:1" />
    </pattern>
    <pattern
       id="pattern5932"
       patternTransform="translate(18.50938,18)"
       height="476"
       width="370"
       patternUnits="userSpaceOnUse">
      <rect
         style="fill:#00e5ff;fill-opacity:1"
         id="rect5934"
         width="370"
         height="476"
         x="0"
         y="0"
         rx="20"
         ry="20" />
    </pattern>
    <pattern
       patternUnits="userSpaceOnUse"
       width="370"
       height="476"
       patternTransform="translate(18.50938,18)"
       id="pattern4002">
      <rect
         ry="20"
         rx="20"
         y="0"
         x="0"
         height="476"
         width="370"
         id="rect2240"
         style="fill:#00e5ff;fill-opacity:1" />
    </pattern>
    <pattern
       id="pattern15960"
       patternTransform="translate(18.50938,18)"
       height="476"
       width="370"
       patternUnits="userSpaceOnUse">
      <rect
         style="fill:#00e5ff;fill-opacity:1"
         id="rect15962"
         width="370"
         height="476"
         x="0"
         y="0"
         rx="20"
         ry="20" />
    </pattern>
    <pattern
       id="pattern17873"
       patternTransform="translate(18.50938,18)"
       height="476"
       width="370"
       patternUnits="userSpaceOnUse">
      <rect
         style="fill:#00e5ff;fill-opacity:1"
         id="rect17875"
         width="370"
         height="476"
         x="0"
         y="0"
         rx="20"
         ry="20" />
    </pattern>
    <pattern
       patternUnits="userSpaceOnUse"
       width="370"
       height="476"
       patternTransform="translate(18.50938,18)"
       id="pattern17869">
      <rect
         ry="20"
         rx="20"
         y="0"
         x="0"
         height="476"
         width="370"
         id="rect17871"
         style="fill:#00e5ff;fill-opacity:1" />
    </pattern>
  </defs>
  <g
     transform="translate(1078.2685,-207.16021)"
     id="layer1">
    <g
       transform="matrix(0.99982224,0,0,0.99982224,-1003.3216,130.23406)"
       id="g2927">
      <rect
         width="833.63934"
         height="556.0777"
         rx="26.123751"
         ry="26.123751"
         x="-73.470604"
         y="78.484039"
         id="rect2929"
         style="fill:#ffffff;fill-opacity:1;stroke:#000000;stroke-width:2.897686;stroke-miterlimit:4;stroke-opacity:1;stroke-dasharray:none" />
      <rect
         width="822.51184"
         height="542.92596"
         rx="21.739977"
         ry="21.739977"
         x="-68.412407"
         y="84.638184"
         id="rect2931"
         style="fill:#003399;fill-opacity:1;stroke:none" />
      <path
         d="m 92.912066,222.81385 c 10.829934,0 19.613094,8.80437 19.613094,19.63432 0,10.82995 -8.78308,19.61311 -19.613094,19.61311 -10.829943,0 -19.613094,-8.78317 -19.613094,-19.61311 0,-10.82995 8.783151,-19.63432 19.613094,-19.63432 z m 27.139914,102.89143 42.21419,42.69975 -9.64932,18.58317 -53.378632,-53.48328 -7.315633,49.41687 35.077945,48.23481 23.75371,70.43344 25.096,4.75026 -0.0352,7.63996 -45.61212,7.90803 -23.84157,-75.1719 -29.907904,-36.34534 -55.96064,93.08405 15.844298,13.16843 -0.0094,6.79018 -13.917748,0 -28.758317,-16.90073 56.336185,-114.24851 -2.493798,-8.31895 7.161746,-42.56651 -0.04051,-27.45101 -18.224494,22.81953 0,64.14144 -18.683266,-10.54052 0,-62.96241 38.581621,-51.27482 35.504788,-12.34876 28.258139,61.94282 z"
         id="path2933"
         style="fill:#ffffff;fill-rule:evenodd;stroke:none" />
      <path
         d="m 314.89801,153.58351 -61.61656,1.06796 -7.90564,40.76036 -7.04697,7.56468 0,63.03915 6.51401,0 0,20.85483 21.82192,0 0,-20.85483 96.61453,0 0,20.85483 21.76271,0 0,-20.85483 7.01736,0 0,-63.1578 -7.31346,-7.44603 -7.87602,-40.87903 -61.97188,-0.94929 z m -53.38523,14.15042 107.21461,0 4.64862,27.91522 -116.15655,0 4.29332,-27.91522 z m -5.5369,45.53651 c 5.86996,0 10.57045,4.73909 10.57045,10.62024 0,5.88115 -4.70049,10.62025 -10.57045,10.62025 -5.86998,0 -10.60007,-4.7391 -10.60007,-10.62025 0,-5.88115 4.73009,-10.62024 10.60007,-10.62024 z m 118.64372,0 c 5.86997,0 10.60006,4.73909 10.60006,10.62024 0,5.88115 -4.73009,10.62025 -10.60006,10.62025 -5.86997,0 -10.60007,-4.7391 -10.60007,-10.62025 0,-5.88115 4.7301,-10.62024 10.60007,-10.62024 z m -129.68793,30.94109 140.19916,0 0,7.53503 -140.19916,0 0,-7.53503 z"
         id="path2935"
         style="fill:#ffffff;stroke:none" />
      <path
         d="m 489.59271,300.47729 c 0,0 0,26.06424 0,46.80577 0,18.86051 21.62248,44.51309 48.1266,44.51309 53.57496,0 167.23418,0 167.23418,0"
         id="path2937"
         style="fill:none;stroke:#ffffff;stroke-width:14.16296196;stroke-linecap:butt;stroke-linejoin:miter;stroke-miterlimit:4;stroke-opacity:1;stroke-dasharray:none" />
      <path
         d="m 593.5681,210.38175 6.84965,0.006 0,145.82418 34.92269,0 0,-55.56127 27.72704,0 0,55.56127 34.92269,0 0,-145.82418 7.92452,0.005 -28.79445,-21.24434 -3.8e-4,-18.62833 -7.13563,4.4e-4 -0.0271,13.34303 -20.69642,-15.26968 -55.69266,41.7885 5e-5,0 z m 41.76886,34.46428 27.75506,0 0,28.05647 -27.75506,0 0,-28.05647 z"
         id="path2939"
         style="fill:#ffffff;fill-rule:evenodd;stroke:none" />
      <path
         d="m 371.47178,460.3949 -13.95962,7.48042 3.29303,5.34481 20.49917,-11.1289 3.26479,-4.10994 3.21548,19.46366 -16.73106,14.59396 0,29.9582 -13.99847,8.58769 24.26372,9.5e-4 0,-31.61387 11.3374,-6.6807 7.62987,17.23324 24.19449,0 9.07713,13.48343 0,-24.784 -28.12545,0 0,-47.73449 7.16338,5.76188 0,25.43832 8.6221,-4.86447 0,-25.55081 -26.40184,-22.8607 -23.34412,31.98132 z"
         id="path2941"
         style="fill:#ffffff;fill-opacity:1;fill-rule:evenodd;stroke:none" />
      <path
         d="m 404.34356,415.0979 c -0.002,3.30874 -1.36516,6.59637 -3.70543,8.93535 -2.34026,2.33899 -5.62865,3.70055 -8.93737,3.70055 -3.30873,0 -6.59712,-1.36156 -8.93738,-3.70055 -2.34026,-2.33898 -3.70362,-5.62661 -3.70543,-8.93535 -0.002,-3.31102 1.35993,-6.60239 3.70054,-8.94427 2.34062,-2.3419 5.63123,-3.70544 8.94227,-3.70544 3.31103,0 6.60164,1.36354 8.94226,3.70544 2.34061,2.34188 3.70236,5.63325 3.70054,8.94427 z"
         id="path2943"
         style="fill:#ffffff;fill-opacity:1;fill-rule:nonzero;stroke:none" />
      <path
         d="m 357.51169,502.69582 c -0.002,3.72792 -1.53813,7.43208 -4.17489,10.0674 -2.63676,2.63531 -6.34176,4.16938 -10.06968,4.16938 -3.72793,0 -7.43293,-1.53407 -10.06969,-4.16938 -2.63675,-2.63532 -4.17285,-6.33948 -4.17489,-10.0674 -0.002,-3.73052 1.53224,-7.43888 4.16938,-10.07746 2.63717,-2.6386 6.34468,-4.1749 10.0752,-4.1749 3.73052,0 7.43803,1.5363 10.07518,4.1749 2.63716,2.63858 4.17143,6.34694 4.16939,10.07746 z"
         id="path2945"
         style="fill:#ffffff;fill-opacity:1;fill-rule:nonzero;stroke:none" />
      <path
         d="m 695.17135,84.38814 37.43815,0 c 12.04394,0 21.73997,9.696029 21.73997,21.73998 l 0,16.62386 -761.8228939,505.16579 -39.5526221,0 c -12.043947,0 -21.739977,-10.40327 -21.739977,-22.44722 l 0,-15.35843 L 695.17135,84.38814 z"
         id="rect2991"
         style="fill:#ffffff;fill-opacity:1;stroke:none" />
      <path
         d="m 703.13514,84.638184 29.22432,0 c 12.04394,0 21.73997,9.696029 21.73997,21.739976 l 0,10.44686 -769.697631,510.73913 -31.074229,0 c -12.043947,0 -21.739977,-9.69603 -21.739977,-21.73998 l 0,-9.80201 L 703.13514,84.638184 z"
         id="rect2947"
         style="fill:#d40000;fill-opacity:1;stroke:none" />
    </g>
    <g
       transform="translate(1311.3408,-1065.3097)"
       id="layer1-4">
      <g
         id="g8101">
        <g
           transform="translate(123.5936,283.7527)"
           id="g8079">
          <path
             d="m 481.27942,250.19844 a 235.16949,239.93641 0 0 1 -470.338984,0 235.16949,239.93641 0 1 1 470.338984,0 z"
             id="path8679"
             style="fill:#ffffff;fill-opacity:1;fill-rule:nonzero;stroke:none" />
          <path
             d="m 250,1.390623 c -137.22627,0 -248.59375,111.395057 -248.59375,248.625007 0,137.22993 111.36749,248.59376 248.59375,248.59375 137.22627,0 248.59374,-111.36382 248.59375,-248.59375 C 498.59375,112.78569 387.22627,1.390623 250,1.390623 z m 0,48.625 c 110.40002,1e-6 200,89.599987 200,200.000007 -10e-6,110.40003 -89.59997,200 -200,200 -110.40004,-10e-6 -200,-89.59998 -200,-200 C 50,139.61561 139.59997,50.015623 250,50.015623 z"
             id="path3063"
             style="fill:#d40000;fill-opacity:1;fill-rule:nonzero;stroke:none" />
          <g
             id="text2821"
             style="font-size:150.64094543px;font-style:normal;font-variant:normal;font-weight:bold;font-stretch:normal;text-align:start;line-height:125%;writing-mode:lr-tb;text-anchor:start;fill:#000000;fill-opacity:1;stroke:none;font-family:Drogowskaz;-inkscape-font-specification:Drogowskaz Bold">
            <path
               d="m 220.58536,184.04514 c -8.50105,6.75049 -18.18854,10.12573 -29.0625,10.12573 -13.00053,0 -24.06314,-4.56238 -33.18787,-13.68714 -9.12476,-9.12473 -13.68714,-20.18734 -13.68713,-33.18786 -1e-5,-13.00043 4.56237,-24.06304 13.68713,-33.18787 9.12473,-9.12467 20.18734,-13.68704 33.18787,-13.68713 11.00091,9e-5 20.75066,3.43759 29.24927,10.3125 l -7.31324,13.49853 c -6.12311,-5.87395 -13.43511,-8.81096 -21.93603,-8.81103 -8.75004,7e-5 -16.25004,3.12507 -22.5,9.375 -6.25002,6.25006 -9.37502,13.75005 -9.375,22.5 -2e-5,8.75003 3.12498,16.25003 9.375,22.5 6.24996,6.25001 13.74996,9.37501 22.5,9.375 8.37396,1e-5 15.62371,-2.87474 21.74927,-8.62427 z"
               id="path2830"
               style="font-size:120px;fill:#000000" />
            <path
               d="m 247.06973,102.29587 15,0 0,22.5 15,-7.5 0,15 -15,7.5 0,52.5 -15,0 0,-45 -15,7.5 0,-15 15,-7.5 z"
               id="path2832"
               style="font-size:120px;fill:#000000" />
            <path
               d="m 293.94473,184.79587 c -6.25001,-6.24999 -9.375,-13.74998 -9.375,-22.5 0,-8.74996 3.12499,-16.24996 9.375,-22.5 6.24998,-6.24994 13.74997,-9.37494 22.5,-9.375 8.74995,6e-5 16.24995,3.12506 22.5,9.375 6.24993,6.25004 9.37493,13.75004 9.375,22.5 -7e-5,8.75002 -3.12507,16.25001 -9.375,22.5 -6.25005,6.25 -13.75005,9.375 -22.5,9.375 -8.75003,0 -16.25002,-3.125 -22.5,-9.375 z m 10.59449,-34.40552 c -3.31302,3.31303 -4.96951,7.28153 -4.96949,11.90552 -2e-5,4.62405 1.65647,8.59255 4.96949,11.90552 3.31295,3.313 7.28145,4.96949 11.90551,4.96948 4.62398,1e-5 8.59248,-1.65648 11.90552,-4.96948 3.31293,-3.31297 4.96943,-7.28147 4.96948,-11.90552 -5e-5,-4.62399 -1.65655,-8.59249 -4.96948,-11.90552 -3.31304,-3.31294 -7.28154,-4.96944 -11.90552,-4.96948 -4.62406,4e-5 -8.59256,1.65654 -11.90551,4.96948 z"
               id="path2834"
               style="font-size:120px;fill:#000000" />
          </g>
          <g
             id="text2825"
             style="font-size:150.64094543px;font-style:normal;font-variant:normal;font-weight:bold;font-stretch:normal;text-align:start;line-height:125%;writing-mode:lr-tb;text-anchor:start;fill:#000000;fill-opacity:1;stroke:none;font-family:Drogowskaz;-inkscape-font-specification:Drogowskaz Bold">
            <path
               d="m 168.83609,375.17722 32.24854,0 0,15 -52.5,0 0,-7.5 32.25219,-67.5 -32.25219,0 0,-15 52.5,0 0,7.5 z"
               id="path2837"
               style="font-size:120px;fill:#000000" />
            <path
               d="m 225.50723,382.67722 c -6.25001,-6.24999 -9.375,-13.74998 -9.375,-22.5 0,-8.74997 3.12499,-16.24996 9.375,-22.5 6.24998,-6.24995 13.74997,-9.37494 22.5,-9.375 8.74995,6e-5 16.24995,3.12505 22.5,9.375 6.24993,6.25004 9.37493,13.75003 9.375,22.5 -7e-5,8.75002 -3.12507,16.25001 -9.375,22.5 -6.25005,6.25 -13.75005,9.37499 -22.5,9.375 -8.75003,-10e-6 -16.25002,-3.125 -22.5,-9.375 z m 10.59449,-34.40552 c -3.31302,3.31302 -4.96951,7.28153 -4.96949,11.90552 -2e-5,4.62404 1.65647,8.59255 4.96949,11.90551 3.31295,3.31301 7.28145,4.9695 11.90551,4.96949 4.62398,1e-5 8.59248,-1.65648 11.90552,-4.96949 3.31293,-3.31296 4.96943,-7.28147 4.96948,-11.90551 -5e-5,-4.62399 -1.65655,-8.5925 -4.96948,-11.90552 -3.31304,-3.31295 -7.28154,-4.96944 -11.90552,-4.96948 -4.62406,4e-5 -8.59256,1.65653 -11.90551,4.96948 z"
               id="path2839"
               style="font-size:120px;fill:#000000" />
            <path
               d="m 298.63223,300.17722 15,0 0,90 -15,0 z"
               id="path2841"
               style="font-size:120px;fill:#000000" />
            <path
               d="m 336.13223,300.17722 15,0 0,90 -15,0 z"
               id="path2843"
               style="font-size:120px;fill:#000000" />
          </g>
        </g>
        <g
           transform="translate(1.193183e-6,-2.760189)"
           id="g8096">
          <path
             d="m 212.06547,514.54291 329.23646,0 c 36.24727,0 36.39795,44.88476 0,44.88476 l -329.23646,0 c -39.09763,0 -42.49215,-44.88476 0,-44.88476 z"
             id="rect8083"
             style="fill:#000000;fill-opacity:1;fill-rule:nonzero;stroke:none" />
        </g>
      </g>
    </g>
  </g>
</svg>
