<?xml version="1.0" encoding="UTF-8" standalone="no"?>
<!-- Created with Inkscape (http://www.inkscape.org/) -->
<svg
   xmlns:dc="http://purl.org/dc/elements/1.1/"
   xmlns:cc="http://web.resource.org/cc/"
   xmlns:rdf="http://www.w3.org/1999/02/22-rdf-syntax-ns#"
   xmlns:svg="http://www.w3.org/2000/svg"
   xmlns="http://www.w3.org/2000/svg"
   xmlns:sodipodi="http://sodipodi.sourceforge.net/DTD/sodipodi-0.dtd"
   xmlns:inkscape="http://www.inkscape.org/namespaces/inkscape"
   height="2184.5183"
   width="8259.1113"
   id="svg2"
   sodipodi:version="0.32"
   inkscape:version="0.45"
   sodipodi:modified="true"
   version="1.0">
  <sodipodi:namedview
     id="base"
     pagecolor="#ffffff"
     bordercolor="#666666"
     borderopacity="1.0"
     inkscape:pageopacity="0.0"
     inkscape:pageshadow="2"
     inkscape:cx="6554.1153"
     inkscape:cy="-2493.1715"
     inkscape:zoom="0.04375"
     inkscape:document-units="px"
     inkscape:current-layer="layer1"
     inkscape:window-width="1269"
     inkscape:window-height="945"
     inkscape:window-x="0"
     inkscape:window-y="25" />
  <metadata
     id="metadata7">
    <rdf:RDF>
      <cc:Work
         rdf:about="">
        <dc:format>image/svg+xml</dc:format>
        <dc:type
           rdf:resource="http://purl.org/dc/dcmitype/StillImage" />
      </cc:Work>
    </rdf:RDF>
  </metadata>
  <g
     inkscape:groupmode="layer"
     inkscape:label="Warstwa 1"
     id="layer1"
     transform="translate(-3487.5878,1245.6113)">
    <g
       style="opacity:0.81720007"
       transform="matrix(19.243657,0,0,19.24402,-134931.34,-27742.883)"
       id="g6663" />
    <g
       transform="matrix(0.6070315,0,0,0.6070315,-64063.623,-6310.4042)"
       id="g25300">
      <g
         id="g25340">
        <g
           style="fill:#7a613e;fill-opacity:1"
           id="g25274"
           transform="translate(44484.468,1238.7253)">
          <g
             id="g25315"
             transform="translate(23025,3425)">
            <path
               sodipodi:nodetypes="cccccc"
               id="path6670"
               style="fill:#ffffff;fill-opacity:1;stroke:none;stroke-width:150;stroke-miterlimit:4;stroke-dashoffset:0;stroke-opacity:1"
               d="M 43913.536,3808.0377 L 55527.47,3808.0377 L 56869.783,5478.85 L 55527.47,7149.6482 L 43913.536,7149.6482 L 43913.536,3808.0377 z " />
            <path
               sodipodi:nodetypes="cccccccccccc"
               id="path6672"
               style="fill:#7a613e;fill-opacity:1;stroke:none;stroke-width:150;stroke-miterlimit:4;stroke-dasharray:none;stroke-dashoffset:0;stroke-opacity:1"
               d="M 43771.76,3679.8168 L 43771.76,7278.507 L 55564.692,7278.507 L 57377.497,5479.1903 L 55577.436,3679.8168 L 43771.76,3679.8168 z M 43943.068,3887.9666 L 55516.302,3887.9666 L 56651.955,5479.1903 L 55516.33,7070.3713 L 43943.068,7070.3713 L 43943.068,3887.9666 z " />
          </g>
        </g>
      </g>
    </g>
    <g
       id="g8163"
       transform="translate(0,-6.7085487)">
      <g
         id="g45372"
         transform="matrix(3.5009421,0,0,3.5009421,12765.843,8531.7692)">
        <path
           d="M -872.38531,-2519.7825 C -896.71133,-2519.5453 -913.11137,-2503.8437 -913.11137,-2503.8437 C -913.11137,-2503.8437 -932.092,-2519.7825 -952.5728,-2519.7825 C -974.323,-2519.7825 -990.199,-2507.903 -994.0822,-2504.6948 L -994.0822,-2519.7825 L -1034.7703,-2519.7825 L -1034.7703,-2356.1699 L -994.0822,-2356.1699 L -994.0822,-2459.6366 C -992.6006,-2464.0659 -986.4295,-2478.7773 -969.3642,-2478.7773 C -947.1093,-2478.7773 -943.6981,-2458.3426 -943.6981,-2458.3426 L -943.0141,-2356.1699 L -902.32592,-2356.1699 L -902.18902,-2458.3426 C -902.18902,-2458.3426 -897.68336,-2478.9814 -875.83408,-2478.9814 C -858.09904,-2478.9814 -850.83345,-2460.4895 -850.16341,-2458.6832 L -850.16341,-2356.1699 L -809.47521,-2356.1699 L -809.3383,-2458.3426 C -810.79624,-2492.4839 -838.84964,-2519.2069 -872.38531,-2519.7825 z "
           style="fill:#7a613e;fill-opacity:1;stroke:none;stroke-width:7;stroke-miterlimit:4;stroke-opacity:1"
           id="path45323" />
        <path
           d="M -1643.6454,-2601.5883 L -1746.3992,-2457.78 L -1746.3992,-2416.8887 L -1643.0933,-2416.8887 L -1643.0933,-2356.1699 L -1602.0606,-2356.1699 L -1602.0606,-2416.8887 L -1579.7538,-2416.8887 L -1571.9076,-2457.849 L -1602.0606,-2457.849 L -1602.0606,-2600.283 L -1603.5422,-2600.283 L -1602.6126,-2601.5883 L -1643.6454,-2601.5883 z M -1643.0933,-2544.9588 L -1643.0933,-2457.849 L -1705.3287,-2457.849 L -1643.0933,-2544.9588 z "
           style="fill:#7a613e;fill-opacity:1;stroke:none;stroke-width:7;stroke-miterlimit:4;stroke-opacity:1"
           id="path45325" />
        <path
           d="M -1224.1479,-2601.579 C -1267.8935,-2600.2287 -1302.7547,-2556.5586 -1302.7547,-2502.5569 L -1302.7547,-2455.1915 C -1302.7547,-2400.3329 -1266.7658,-2356.1699 -1222.0484,-2356.1699 C -1177.3308,-2356.1699 -1141.3466,-2400.3329 -1141.3466,-2455.1915 L -1141.3466,-2502.5569 C -1141.3466,-2557.416 -1177.3308,-2601.579 -1222.0484,-2601.579 C -1222.7467,-2601.579 -1223.4543,-2601.6007 -1224.1479,-2601.579 z M -1222.0484,-2560.8377 C -1199.8783,-2560.8377 -1182.0254,-2531.3276 -1182.0254,-2494.6972 L -1182.0254,-2463.0861 C -1182.0254,-2426.4557 -1199.8783,-2396.9454 -1222.0484,-2396.9454 C -1244.2183,-2396.9454 -1262.076,-2426.4557 -1262.076,-2463.0861 L -1262.076,-2494.6972 C -1262.076,-2531.3276 -1244.2183,-2560.8377 -1222.0484,-2560.8377 z "
           style="fill:#7a613e;fill-opacity:1;stroke:none;stroke-width:7;stroke-miterlimit:4;stroke-opacity:1"
           id="path45327" />
        <path
           d="M -1442.686,-2601.579 C -1486.4316,-2600.2287 -1521.2931,-2556.5586 -1521.2931,-2502.5569 L -1521.2931,-2455.1915 C -1521.2931,-2400.3329 -1485.3038,-2356.1699 -1440.5864,-2356.1699 C -1395.869,-2356.1699 -1359.8847,-2400.3329 -1359.8847,-2455.1915 L -1359.8847,-2502.5569 C -1359.8847,-2557.416 -1395.869,-2601.579 -1440.5864,-2601.579 C -1441.2846,-2601.579 -1441.9923,-2601.6007 -1442.686,-2601.579 z M -1440.5864,-2560.8377 C -1418.4164,-2560.8377 -1400.5635,-2531.3276 -1400.5635,-2494.6972 L -1400.5635,-2463.0861 C -1400.5635,-2426.4557 -1418.4164,-2396.9454 -1440.5864,-2396.9454 C -1462.7565,-2396.9454 -1480.6143,-2426.4557 -1480.6143,-2463.0861 L -1480.6143,-2494.6972 C -1480.6143,-2531.3276 -1462.7565,-2560.8377 -1440.5864,-2560.8377 z "
           style="fill:#7a613e;fill-opacity:1;stroke:none;stroke-width:7;stroke-miterlimit:4;stroke-opacity:1"
           id="path45329" />
      </g>
      <path
         id="path2170"
         d="M 5257.0439,-789.08487 L 5257.6989,-714.89047 C 5257.6986,-714.89047 5335.8832,-714.89047 5357.7162,-714.89047 C 5362.5958,-714.89047 5385.6284,-701.96587 5389.808,-689.16097 C 5413.3059,-617.17077 5416.7008,-603.19297 5435.5595,-542.83057 L 4769.5875,-542.92407 L 4751.8108,-599.52887 C 4788.7938,-615.53657 4905.907,-666.23837 4905.907,-666.23837 C 4914.8835,-677.09677 4923.9909,-705.78827 4893.6503,-711.80297 C 4893.6503,-711.80297 4526.8886,-714.42267 4526.8886,-714.42267 L 4572.2661,-588.76937 L 4675.5582,-588.76937 L 4701.1004,-507.74497 L 4544.7589,-252.6958 C 4492.3851,-278.42433 4433.5526,-292.83379 4371.2956,-292.83376 C 4153.6178,-292.8337 3976.933,-116.24261 3976.933,101.43517 C 3976.933,319.11291 4153.6178,495.79752 4371.2956,495.79763 C 4575.2418,495.79769 4743.2223,340.72691 4763.5996,142.13445 L 4832.7418,142.13445 C 4847.1503,185.90821 4888.2986,217.54511 4936.8758,217.54517 C 4997.4265,217.54523 5046.6238,168.44161 5046.6238,107.8909 C 5046.6235,91.008778 5042.7801,75.026588 5035.9577,60.735818 L 5497.2168,-345.41542 C 5507.9478,-311.06706 5515.3747,-287.31428 5522.0105,-266.07512 C 5374.9965,-208.75654 5270.7038,-65.784196 5270.7038,101.43517 C 5270.7038,319.11291 5447.3887,495.79752 5665.0664,495.79763 C 5882.7439,495.79769 6059.4288,319.11279 6059.4288,101.43517 C 6059.4288,-116.24249 5882.7442,-292.83382 5665.0664,-292.83376 C 5641.2577,-292.8337 5618.0125,-290.80163 5595.3629,-286.75225 C 5560.2876,-400.26954 5514.4387,-548.75907 5457.9209,-731.54447 C 5445.8683,-770.52267 5402.7093,-789.08487 5370.9085,-789.08487 C 5317.7344,-789.08487 5257.0439,-789.08487 5257.0439,-789.08487 z M 4793.5393,-467.04557 L 5459.2308,-466.95207 C 5465.7193,-446.18302 5465.8609,-445.85177 5472.4228,-424.84928 L 4981.4112,7.5928082 C 4968.6982,1.9447282 4954.6666,-1.3599218 4939.9635,-1.7633618 L 4793.5393,-467.04557 z M 4731.321,-411.75065 L 4868.0144,22.562638 C 4855.0311,33.069288 4844.527,46.537868 4837.4199,61.858548 L 4763.6933,61.858548 C 4752.5048,-50.06981 4694.4016,-148.319 4609.4099,-212.83853 L 4731.321,-411.75065 z M 5662.7273,-215.17757 C 5834.6807,-215.1776 5974.2876,-75.664326 5974.2876,96.289228 C 5974.2876,268.24286 5834.6807,407.84961 5662.7273,407.84961 C 5490.7738,407.84961 5351.2606,268.24286 5351.2606,96.289228 C 5351.2606,-31.17035 5427.9216,-140.76433 5537.6354,-188.9803 L 5609.1166,67.472278 C 5602.0978,77.456978 5597.9826,89.621878 5597.9826,102.74503 C 5597.9826,136.65565 5625.5418,164.21501 5659.4528,164.21501 C 5693.3634,164.21507 5720.8292,136.65577 5720.8292,102.74503 C 5720.8289,75.623218 5703.2181,52.685828 5678.8199,44.549668 L 5607.8067,-210.31236 C 5625.6415,-213.48999 5643.9835,-215.17757 5662.7273,-215.17757 z M 4371.857,-211.4351 C 4418.2636,-211.43507 4462.3265,-201.30876 4501.9077,-183.08592 L 4366.3367,39.310188 C 4334.2069,41.288558 4308.7964,67.967828 4308.7964,100.59311 C 4308.7964,134.50386 4336.2619,162.06322 4370.1729,162.0631 C 4391.0804,162.0631 4409.5987,151.55604 4420.6962,135.58513 L 4681.359,135.58513 C 4663.6892,290.80865 4531.7831,411.5921 4371.857,411.5921 C 4199.9032,411.59204 4060.39,271.98535 4060.39,100.03172 C 4060.39,-71.921956 4199.9032,-211.4351 4371.857,-211.4351 z M 4564.5003,-144.72563 C 4627.5421,-95.023696 4670.9349,-21.49301 4681.0782,62.232808 L 4438.2858,62.232808 L 4564.5003,-144.72563 z "
         style="opacity:1;fill:#7a613e;fill-opacity:1;fill-rule:nonzero;stroke:none;stroke-width:8.91699982;stroke-miterlimit:4;stroke-dasharray:none;stroke-opacity:1" />
    </g>
  </g>
</svg>
