<?xml version="1.0" encoding="UTF-8" standalone="no"?>
<!-- Created with Inkscape (http://www.inkscape.org/) -->
<svg
   xmlns:dc="http://purl.org/dc/elements/1.1/"
   xmlns:cc="http://web.resource.org/cc/"
   xmlns:rdf="http://www.w3.org/1999/02/22-rdf-syntax-ns#"
   xmlns:svg="http://www.w3.org/2000/svg"
   xmlns="http://www.w3.org/2000/svg"
   xmlns:sodipodi="http://sodipodi.sourceforge.net/DTD/sodipodi-0.dtd"
   xmlns:inkscape="http://www.inkscape.org/namespaces/inkscape"
   height="2184.5183"
   width="8259.1113"
   id="svg2"
   sodipodi:version="0.32"
   inkscape:version="0.45"
   sodipodi:docbase="/home/szczepan/Desktop/znaki/nowe"
   sodipodi:docname="Znak E-12.svg"
   inkscape:output_extension="org.inkscape.output.svg.inkscape"
   version="1.0"
   sodipodi:modified="true">
  <defs
     id="defs28" />
  <sodipodi:namedview
     id="base"
     pagecolor="#ffffff"
     bordercolor="#666666"
     borderopacity="1.0"
     inkscape:pageopacity="0.0"
     inkscape:pageshadow="2"
     inkscape:cx="1884.9128"
     inkscape:cy="804.92593"
     inkscape:zoom="0.16"
     inkscape:document-units="px"
     inkscape:current-layer="g45378"
     inkscape:window-width="1269"
     inkscape:window-height="945"
     inkscape:window-x="0"
     inkscape:window-y="25" />
  <metadata
     id="metadata7">
    <rdf:RDF>
      <cc:Work
         rdf:about="">
        <dc:format>image/svg+xml</dc:format>
        <dc:type
           rdf:resource="http://purl.org/dc/dcmitype/StillImage" />
      </cc:Work>
    </rdf:RDF>
  </metadata>
  <g
     inkscape:groupmode="layer"
     inkscape:label="Warstwa 1"
     id="layer1"
     transform="translate(1573.3941,2908.3988)">
    <g
       id="g4130"
       transform="matrix(-1,0,0,1,1550.7143,0)" />
    <g
       id="g30409"
       transform="translate(1076.8226,-117.1777)">
      <g
         transform="matrix(19.243657,0,0,19.24402,-145568.46,-29438.837)"
         id="g6661"
         style="opacity:0.81720007">
        <g
           transform="translate(233.80814,7.8125)"
           id="g6663" />
      </g>
      <g
         id="g14845"
         transform="matrix(4.643091e-2,0,0,4.643091e-2,-6856.8976,-2590.2436)" />
      <g
         id="g45378"
         transform="matrix(3.5009421,0,0,3.5009421,6628.0386,6980.6825)">
        <g
           transform="matrix(0.1733909,0,0,0.1733909,-21945.369,-4237.9154)"
           id="g25300">
          <g
             id="g25340">
            <g
               style="fill:#7a613e;fill-opacity:1"
               id="g25274"
               transform="translate(44484.468,1238.7253)">
              <g
                 id="g25315"
                 transform="translate(23025,3425)">
                <path
                   sodipodi:nodetypes="cccccc"
                   id="path6670"
                   style="fill:#ffffff;fill-opacity:1;stroke:none;stroke-width:150;stroke-miterlimit:4;stroke-dashoffset:0;stroke-opacity:1"
                   d="M 43913.536,3808.0377 L 55527.47,3808.0377 L 56869.783,5478.85 L 55527.47,7149.6482 L 43913.536,7149.6482 L 43913.536,3808.0377 z " />
                <path
                   sodipodi:nodetypes="cccccccccccc"
                   id="path6672"
                   style="fill:#7a613e;fill-opacity:1;stroke:none;stroke-width:150;stroke-miterlimit:4;stroke-dasharray:none;stroke-dashoffset:0;stroke-opacity:1"
                   d="M 43771.76,3679.8168 L 43771.76,7278.507 L 55564.692,7278.507 L 57377.497,5479.1903 L 55577.436,3679.8168 L 43771.76,3679.8168 z M 43943.068,3887.9666 L 55516.302,3887.9666 L 56651.955,5479.1903 L 55516.33,7070.3713 L 43943.068,7070.3713 L 43943.068,3887.9666 z " />
              </g>
            </g>
          </g>
        </g>
        <g
           transform="translate(0,7.8398606)"
           id="g45372">
          <path
             id="path45323"
             style="fill:#7a613e;fill-opacity:1;stroke:none;stroke-width:7;stroke-miterlimit:4;stroke-opacity:1"
             d="M -872.38531,-2519.7825 C -896.71133,-2519.5453 -913.11137,-2503.8437 -913.11137,-2503.8437 C -913.11137,-2503.8437 -932.092,-2519.7825 -952.5728,-2519.7825 C -974.323,-2519.7825 -990.199,-2507.903 -994.0822,-2504.6948 L -994.0822,-2519.7825 L -1034.7703,-2519.7825 L -1034.7703,-2356.1699 L -994.0822,-2356.1699 L -994.0822,-2459.6366 C -992.6006,-2464.0659 -986.4295,-2478.7773 -969.3642,-2478.7773 C -947.1093,-2478.7773 -943.6981,-2458.3426 -943.6981,-2458.3426 L -943.0141,-2356.1699 L -902.32592,-2356.1699 L -902.18902,-2458.3426 C -902.18902,-2458.3426 -897.68336,-2478.9814 -875.83408,-2478.9814 C -858.09904,-2478.9814 -850.83345,-2460.4895 -850.16341,-2458.6832 L -850.16341,-2356.1699 L -809.47521,-2356.1699 L -809.3383,-2458.3426 C -810.79624,-2492.4839 -838.84964,-2519.2069 -872.38531,-2519.7825 z " />
          <path
             id="path45325"
             style="fill:#7a613e;fill-opacity:1;stroke:none;stroke-width:7;stroke-miterlimit:4;stroke-opacity:1"
             d="M -1643.6454,-2601.5883 L -1746.3992,-2457.78 L -1746.3992,-2416.8887 L -1643.0933,-2416.8887 L -1643.0933,-2356.1699 L -1602.0606,-2356.1699 L -1602.0606,-2416.8887 L -1579.7538,-2416.8887 L -1571.9076,-2457.849 L -1602.0606,-2457.849 L -1602.0606,-2600.283 L -1603.5422,-2600.283 L -1602.6126,-2601.5883 L -1643.6454,-2601.5883 z M -1643.0933,-2544.9588 L -1643.0933,-2457.849 L -1705.3287,-2457.849 L -1643.0933,-2544.9588 z " />
          <path
             id="path45327"
             style="fill:#7a613e;fill-opacity:1;stroke:none;stroke-width:7;stroke-miterlimit:4;stroke-opacity:1"
             d="M -1224.1479,-2601.579 C -1267.8935,-2600.2287 -1302.7547,-2556.5586 -1302.7547,-2502.5569 L -1302.7547,-2455.1915 C -1302.7547,-2400.3329 -1266.7658,-2356.1699 -1222.0484,-2356.1699 C -1177.3308,-2356.1699 -1141.3466,-2400.3329 -1141.3466,-2455.1915 L -1141.3466,-2502.5569 C -1141.3466,-2557.416 -1177.3308,-2601.579 -1222.0484,-2601.579 C -1222.7467,-2601.579 -1223.4543,-2601.6007 -1224.1479,-2601.579 z M -1222.0484,-2560.8377 C -1199.8783,-2560.8377 -1182.0254,-2531.3276 -1182.0254,-2494.6972 L -1182.0254,-2463.0861 C -1182.0254,-2426.4557 -1199.8783,-2396.9454 -1222.0484,-2396.9454 C -1244.2183,-2396.9454 -1262.076,-2426.4557 -1262.076,-2463.0861 L -1262.076,-2494.6972 C -1262.076,-2531.3276 -1244.2183,-2560.8377 -1222.0484,-2560.8377 z " />
          <path
             id="path45329"
             style="fill:#7a613e;fill-opacity:1;stroke:none;stroke-width:7;stroke-miterlimit:4;stroke-opacity:1"
             d="M -1442.686,-2601.579 C -1486.4316,-2600.2287 -1521.2931,-2556.5586 -1521.2931,-2502.5569 L -1521.2931,-2455.1915 C -1521.2931,-2400.3329 -1485.3038,-2356.1699 -1440.5864,-2356.1699 C -1395.869,-2356.1699 -1359.8847,-2400.3329 -1359.8847,-2455.1915 L -1359.8847,-2502.5569 C -1359.8847,-2557.416 -1395.869,-2601.579 -1440.5864,-2601.579 C -1441.2846,-2601.579 -1441.9923,-2601.6007 -1442.686,-2601.579 z M -1440.5864,-2560.8377 C -1418.4164,-2560.8377 -1400.5635,-2531.3276 -1400.5635,-2494.6972 L -1400.5635,-2463.0861 C -1400.5635,-2426.4557 -1418.4164,-2396.9454 -1440.5864,-2396.9454 C -1462.7565,-2396.9454 -1480.6143,-2426.4557 -1480.6143,-2463.0861 L -1480.6143,-2494.6972 C -1480.6143,-2531.3276 -1462.7565,-2560.8377 -1440.5864,-2560.8377 z " />
        </g>
        <g
           id="g44485"
           transform="matrix(1.0930709,0.6310848,-0.6310848,1.0930709,-2904.4696,-3148.141)">
          <path
             sodipodi:nodetypes="cssssssssssccsscccscc"
             id="path18687"
             d="M 548.89339,116.7711 C 543.91719,116.6687 537.7199,116.79605 533.75233,117.23858 C 522.26811,118.5195 511.68902,121.42553 503.56734,125.71875 C 499.63249,127.79876 496.73033,130.69194 494.03619,133.50761 C 490.56402,137.13642 489.00214,141.27018 491.05879,144.9751 C 494.33151,150.87073 501.50874,154.62802 508.96333,156.94131 C 516.41792,159.2546 526.24165,160.08705 537.34854,159.87881 C 549.2301,159.65605 559.81681,157.13999 567.69759,153.13008 C 571.63798,151.12513 575.1904,148.40394 577.61526,145.62627 C 579.82669,143.09308 581.06789,139.87205 581.10838,136.53125 C 581.10926,136.45855 581.10895,136.38545 581.10838,136.3125 C 581.10643,136.06193 581.15966,135.81584 581.14016,135.5625 L 581.0766,135.5625 C 581.32171,131.04917 580.04807,126.37421 576.73318,123.90117 C 573.17868,121.24938 568.74866,119.69072 563.95798,118.7124 C 559.16729,117.73408 553.86958,116.8735 548.89339,116.7711 z M 569.34108,134.783 C 575.15781,139.69023 568.51208,142.76466 564.30497,145.06631 C 557.95686,148.29636 546.58573,148.24875 536.0022,148.44718 C 525.4745,148.64456 520.36685,146.75959 514.39289,144.90577 C 471.6767,125.74469 558.64766,122.8906 569.34108,134.783 z "
             style="fill:#7a613e;fill-opacity:1;fill-rule:nonzero;stroke:none;stroke-width:8.91699982;stroke-miterlimit:4;stroke-dasharray:none;stroke-opacity:1" />
          <path
             sodipodi:nodetypes="csssc"
             id="path21620"
             d="M 907.24415,139.94127 C 905.71609,155.76405 834.5863,204.47647 745.1138,202.44599 C 655.61784,200.42655 582.98343,174.44389 582.98343,139.94127 C 582.98343,105.43866 655.10849,74.407371 744.60445,74.407371 C 834.1004,74.407371 907.24415,105.43866 907.24415,139.94127 z "
             style="fill:none;fill-opacity:1;fill-rule:nonzero;stroke:#7a613e;stroke-width:13.71347332;stroke-miterlimit:4;stroke-opacity:1" />
          <rect
             y="158.88225"
             x="737.41138"
             height="92.428955"
             width="78.791901"
             id="rect30407"
             style="opacity:1;fill:#ffffff;fill-opacity:1;fill-rule:nonzero;stroke:#7a613e;stroke-width:8.91699982;stroke-miterlimit:4;stroke-dasharray:none;stroke-opacity:1" />
          <path
             sodipodi:nodetypes="ccccccsccccccsccccssccccccccccccccccsssccscsc"
             id="path2172"
             d="M 738.90625,110.1875 C 731.21652,110.25446 723.30357,113.30803 717.5,119.15625 C 717.5,119.15625 717.5,151.28125 717.5,151.28125 L 693.9375,151.28125 L 656.4375,274.5 C 656.43748,274.5 657.7965,301.16674 657.7965,301.16674 C 672.53351,314.74491 702.88942,318.99974 721.4245,301.96552 C 721.4245,301.96552 722.15625,274.5 722.15625,274.5 L 755.34375,274.5 L 755.34375,260.21875 L 795.03125,260.21875 L 795.03125,274.5 L 828.21875,274.5 C 828.21875,274.5 829.72451,299.65292 829.72452,299.65293 C 843.70508,318.441 879.19033,319.91296 894.12359,298.78161 C 894.12359,298.78161 893.93751,274.5 893.9375,274.5 L 856.4375,151.28125 L 832.875,151.28125 C 832.875,151.28125 832.87499,119.15625 832.875,119.15625 C 827.07143,113.30803 819.15847,110.25446 811.46875,110.1875 C 803.77902,110.12054 796.30357,113.04018 791.4375,119.15625 C 791.4375,119.15625 791.4375,140.5 791.4375,140.5 L 758.9375,140.5 C 758.9375,140.5 758.9375,119.15625 758.9375,119.15625 C 754.07142,113.04018 746.59598,110.12054 738.90625,110.1875 z M 754.28125,168.78125 L 769.65625,168.78125 L 769.65625,248.78125 L 754.28125,248.78125 L 754.28125,168.78125 z M 780.71875,168.78125 L 796.09375,168.78125 L 796.09375,248.78125 L 780.71875,248.78125 L 780.71875,168.78125 z M 689.125,272.15625 C 706.16677,272.15625 718.48477,279.72262 718.48477,289.0625 C 718.4848,298.40237 707.42948,306 690.38769,306 C 673.3459,306 659.51269,298.40236 659.51269,289.0625 C 659.51268,279.72263 672.08324,272.15625 689.125,272.15625 z M 861.09375,272.15625 C 878.13557,272.15625 890.89732,279.72262 890.89732,289.0625 C 890.89733,298.40237 878.13551,306 861.09375,306 C 844.05199,306 831.46875,298.40236 831.46875,289.0625 C 831.46873,279.72263 844.05199,272.15625 861.09375,272.15625 z "
             style="opacity:1;fill:#7a613e;fill-opacity:1;fill-rule:evenodd;stroke:none;stroke-width:1px;stroke-linecap:butt;stroke-linejoin:miter;stroke-opacity:1" />
        </g>
      </g>
    </g>
  </g>
</svg>
