<?xml version="1.0" encoding="UTF-8" standalone="no"?>
<!-- Created with Inkscape (http://www.inkscape.org/) -->

<svg
   xmlns:svg="http://www.w3.org/2000/svg"
   xmlns="http://www.w3.org/2000/svg"
   version="1.0"
   width="14065.999"
   height="9339.3682"
   id="svg2">
  <defs
     id="defs61">
    <pattern
       patternUnits="userSpaceOnUse"
       width="370"
       height="476"
       patternTransform="translate(18.50938,18)"
       id="pattern5932">
      <rect
         ry="20"
         rx="20"
         y="0"
         x="0"
         height="476"
         width="370"
         id="rect5934"
         style="fill:#00e5ff;fill-opacity:1" />
    </pattern>
    <pattern
       id="pattern4002-15"
       patternTransform="translate(18.50938,18)"
       height="476"
       width="370"
       patternUnits="userSpaceOnUse">
      <rect
         style="fill:#00e5ff;fill-opacity:1"
         id="rect2240-27"
         width="370"
         height="476"
         x="0"
         y="0"
         rx="20"
         ry="20" />
    </pattern>
    <marker
       refX="0"
       refY="0"
       orient="auto"
       id="Arrow2Lstart"
       style="overflow:visible">
      <path
         d="M 8.7185878,4.0337352 -2.2072895,0.01601326 8.7185884,-4.0017078 c -1.7454984,2.3720609 -1.7354408,5.6174519 -6e-7,8.035443 z"
         transform="matrix(1.1,0,0,1.1,1.1,0)"
         id="path5785"
         style="font-size:12px;fill-rule:evenodd;stroke-width:0.625;stroke-linejoin:round" />
    </marker>
    <marker
       refX="0"
       refY="0"
       orient="auto"
       id="Arrow2Lstart-3"
       style="overflow:visible">
      <path
         d="M 8.7185878,4.0337352 -2.2072895,0.01601326 8.7185884,-4.0017078 c -1.7454984,2.3720609 -1.7354408,5.6174519 -6e-7,8.035443 z"
         transform="matrix(1.1,0,0,1.1,1.1,0)"
         id="path5785-2"
         style="font-size:12px;fill-rule:evenodd;stroke-width:0.625;stroke-linejoin:round" />
    </marker>
    <pattern
       patternUnits="userSpaceOnUse"
       width="370"
       height="476"
       patternTransform="translate(18.50938,18)"
       id="pattern4002-4">
      <rect
         ry="20"
         rx="20"
         y="0"
         x="0"
         height="476"
         width="370"
         id="rect2240-2"
         style="fill:#00e5ff;fill-opacity:1" />
    </pattern>
    <pattern
       id="pattern5932-6"
       patternTransform="translate(18.50938,18)"
       height="476"
       width="370"
       patternUnits="userSpaceOnUse">
      <rect
         style="fill:#00e5ff;fill-opacity:1"
         id="rect5934-1"
         width="370"
         height="476"
         x="0"
         y="0"
         rx="20"
         ry="20" />
    </pattern>
    <pattern
       id="pattern2944"
       patternTransform="translate(18.50938,18)"
       height="476"
       width="370"
       patternUnits="userSpaceOnUse">
      <rect
         style="fill:#00e5ff;fill-opacity:1"
         id="rect2946"
         width="370"
         height="476"
         x="0"
         y="0"
         rx="20"
         ry="20" />
    </pattern>
    <pattern
       patternUnits="userSpaceOnUse"
       width="370"
       height="476"
       patternTransform="translate(18.50938,18)"
       id="pattern2940">
      <rect
         ry="20"
         rx="20"
         y="0"
         x="0"
         height="476"
         width="370"
         id="rect2942"
         style="fill:#00e5ff;fill-opacity:1" />
    </pattern>
    <marker
       refX="0"
       refY="0"
       orient="auto"
       id="marker2936"
       style="overflow:visible">
      <path
         d="M 8.7185878,4.0337352 -2.2072895,0.01601326 8.7185884,-4.0017078 c -1.7454984,2.3720609 -1.7354408,5.6174519 -6e-7,8.035443 z"
         transform="matrix(1.1,0,0,1.1,1.1,0)"
         id="path2938"
         style="font-size:12px;fill-rule:evenodd;stroke-width:0.625;stroke-linejoin:round" />
    </marker>
    <pattern
       id="pattern5613"
       patternTransform="translate(18.50938,18)"
       height="476"
       width="370"
       patternUnits="userSpaceOnUse">
      <rect
         style="fill:#00e5ff;fill-opacity:1"
         id="rect5615"
         width="370"
         height="476"
         x="0"
         y="0"
         rx="20"
         ry="20" />
    </pattern>
    <marker
       refX="0"
       refY="0"
       orient="auto"
       id="marker2313"
       style="overflow:visible">
      <path
         d="M 8.7185878,4.0337352 -2.2072895,0.01601326 8.7185884,-4.0017078 c -1.7454984,2.3720609 -1.7354408,5.6174519 -6e-7,8.035443 z"
         transform="matrix(1.1,0,0,1.1,1.1,0)"
         id="path2315"
         style="font-size:12px;fill-rule:evenodd;stroke-width:0.625;stroke-linejoin:round" />
    </marker>
    <pattern
       patternUnits="userSpaceOnUse"
       width="370"
       height="476"
       patternTransform="translate(18.50938,18)"
       id="pattern2317">
      <rect
         ry="20"
         rx="20"
         y="0"
         x="0"
         height="476"
         width="370"
         id="rect2319"
         style="fill:#00e5ff;fill-opacity:1" />
    </pattern>
    <pattern
       id="pattern2321"
       patternTransform="translate(18.50938,18)"
       height="476"
       width="370"
       patternUnits="userSpaceOnUse">
      <rect
         style="fill:#00e5ff;fill-opacity:1"
         id="rect2323"
         width="370"
         height="476"
         x="0"
         y="0"
         rx="20"
         ry="20" />
    </pattern>
    <pattern
       id="pattern3936"
       patternTransform="translate(18.50938,18)"
       height="476"
       width="370"
       patternUnits="userSpaceOnUse">
      <rect
         style="fill:#00e5ff;fill-opacity:1"
         id="rect3938"
         width="370"
         height="476"
         x="0"
         y="0"
         rx="20"
         ry="20" />
    </pattern>
    <pattern
       patternUnits="userSpaceOnUse"
       width="370"
       height="476"
       patternTransform="translate(18.50938,18)"
       id="pattern3932">
      <rect
         ry="20"
         rx="20"
         y="0"
         x="0"
         height="476"
         width="370"
         id="rect3934"
         style="fill:#00e5ff;fill-opacity:1" />
    </pattern>
    <marker
       refX="0"
       refY="0"
       orient="auto"
       id="marker3928"
       style="overflow:visible">
      <path
         d="M 8.7185878,4.0337352 -2.2072895,0.01601326 8.7185884,-4.0017078 c -1.7454984,2.3720609 -1.7354408,5.6174519 -6e-7,8.035443 z"
         transform="matrix(1.1,0,0,1.1,1.1,0)"
         id="path3930"
         style="font-size:12px;fill-rule:evenodd;stroke-width:0.625;stroke-linejoin:round" />
    </marker>
    <pattern
       id="pattern4296"
       patternTransform="translate(18.50938,18)"
       height="476"
       width="370"
       patternUnits="userSpaceOnUse">
      <rect
         style="fill:#00e5ff;fill-opacity:1"
         id="rect4298"
         width="370"
         height="476"
         x="0"
         y="0"
         rx="20"
         ry="20" />
    </pattern>
    <pattern
       patternUnits="userSpaceOnUse"
       width="370"
       height="476"
       patternTransform="translate(18.50938,18)"
       id="pattern4292">
      <rect
         ry="20"
         rx="20"
         y="0"
         x="0"
         height="476"
         width="370"
         id="rect4294"
         style="fill:#00e5ff;fill-opacity:1" />
    </pattern>
    <marker
       refX="0"
       refY="0"
       orient="auto"
       id="marker4288"
       style="overflow:visible">
      <path
         d="M 8.7185878,4.0337352 -2.2072895,0.01601326 8.7185884,-4.0017078 c -1.7454984,2.3720609 -1.7354408,5.6174519 -6e-7,8.035443 z"
         transform="matrix(1.1,0,0,1.1,1.1,0)"
         id="path4290"
         style="font-size:12px;fill-rule:evenodd;stroke-width:0.625;stroke-linejoin:round" />
    </marker>
    <marker
       refX="0"
       refY="0"
       orient="auto"
       id="marker3341"
       style="overflow:visible">
      <path
         d="M 8.7185878,4.0337352 -2.2072895,0.01601326 8.7185884,-4.0017078 c -1.7454984,2.3720609 -1.7354408,5.6174519 -6e-7,8.035443 z"
         transform="matrix(1.1,0,0,1.1,1.1,0)"
         id="path3343"
         style="font-size:12px;fill-rule:evenodd;stroke-width:0.625;stroke-linejoin:round" />
    </marker>
    <pattern
       patternUnits="userSpaceOnUse"
       width="370"
       height="476"
       patternTransform="translate(18.50938,18)"
       id="pattern3337">
      <rect
         ry="20"
         rx="20"
         y="0"
         x="0"
         height="476"
         width="370"
         id="rect3339"
         style="fill:#00e5ff;fill-opacity:1" />
    </pattern>
    <pattern
       id="pattern3333"
       patternTransform="translate(18.50938,18)"
       height="476"
       width="370"
       patternUnits="userSpaceOnUse">
      <rect
         style="fill:#00e5ff;fill-opacity:1"
         id="rect3335"
         width="370"
         height="476"
         x="0"
         y="0"
         rx="20"
         ry="20" />
    </pattern>
    <pattern
       id="pattern3329"
       patternTransform="translate(18.50938,18)"
       height="476"
       width="370"
       patternUnits="userSpaceOnUse">
      <rect
         style="fill:#00e5ff;fill-opacity:1"
         id="rect3331"
         width="370"
         height="476"
         x="0"
         y="0"
         rx="20"
         ry="20" />
    </pattern>
    <pattern
       patternUnits="userSpaceOnUse"
       width="370"
       height="476"
       patternTransform="translate(18.50938,18)"
       id="pattern3325">
      <rect
         ry="20"
         rx="20"
         y="0"
         x="0"
         height="476"
         width="370"
         id="rect3327"
         style="fill:#00e5ff;fill-opacity:1" />
    </pattern>
    <marker
       refX="0"
       refY="0"
       orient="auto"
       id="marker3321"
       style="overflow:visible">
      <path
         d="M 8.7185878,4.0337352 -2.2072895,0.01601326 8.7185884,-4.0017078 c -1.7454984,2.3720609 -1.7354408,5.6174519 -6e-7,8.035443 z"
         transform="matrix(1.1,0,0,1.1,1.1,0)"
         id="path3323"
         style="font-size:12px;fill-rule:evenodd;stroke-width:0.625;stroke-linejoin:round" />
    </marker>
    <pattern
       id="pattern3317"
       patternTransform="translate(18.50938,18)"
       height="476"
       width="370"
       patternUnits="userSpaceOnUse">
      <rect
         style="fill:#00e5ff;fill-opacity:1"
         id="rect3319"
         width="370"
         height="476"
         x="0"
         y="0"
         rx="20"
         ry="20" />
    </pattern>
    <marker
       refX="0"
       refY="0"
       orient="auto"
       id="marker3313"
       style="overflow:visible">
      <path
         d="M 8.7185878,4.0337352 -2.2072895,0.01601326 8.7185884,-4.0017078 c -1.7454984,2.3720609 -1.7354408,5.6174519 -6e-7,8.035443 z"
         transform="matrix(1.1,0,0,1.1,1.1,0)"
         id="path3315"
         style="font-size:12px;fill-rule:evenodd;stroke-width:0.625;stroke-linejoin:round" />
    </marker>
    <pattern
       patternUnits="userSpaceOnUse"
       width="370"
       height="476"
       patternTransform="translate(18.50938,18)"
       id="pattern3309">
      <rect
         ry="20"
         rx="20"
         y="0"
         x="0"
         height="476"
         width="370"
         id="rect3311"
         style="fill:#00e5ff;fill-opacity:1" />
    </pattern>
    <pattern
       id="pattern3305"
       patternTransform="translate(18.50938,18)"
       height="476"
       width="370"
       patternUnits="userSpaceOnUse">
      <rect
         style="fill:#00e5ff;fill-opacity:1"
         id="rect3307"
         width="370"
         height="476"
         x="0"
         y="0"
         rx="20"
         ry="20" />
    </pattern>
    <pattern
       id="pattern3301"
       patternTransform="translate(18.50938,18)"
       height="476"
       width="370"
       patternUnits="userSpaceOnUse">
      <rect
         style="fill:#00e5ff;fill-opacity:1"
         id="rect3303"
         width="370"
         height="476"
         x="0"
         y="0"
         rx="20"
         ry="20" />
    </pattern>
    <pattern
       patternUnits="userSpaceOnUse"
       width="370"
       height="476"
       patternTransform="translate(18.50938,18)"
       id="pattern3297">
      <rect
         ry="20"
         rx="20"
         y="0"
         x="0"
         height="476"
         width="370"
         id="rect3299"
         style="fill:#00e5ff;fill-opacity:1" />
    </pattern>
    <marker
       refX="0"
       refY="0"
       orient="auto"
       id="marker3293"
       style="overflow:visible">
      <path
         d="M 8.7185878,4.0337352 -2.2072895,0.01601326 8.7185884,-4.0017078 c -1.7454984,2.3720609 -1.7354408,5.6174519 -6e-7,8.035443 z"
         transform="matrix(1.1,0,0,1.1,1.1,0)"
         id="path3295"
         style="font-size:12px;fill-rule:evenodd;stroke-width:0.625;stroke-linejoin:round" />
    </marker>
    <pattern
       id="pattern3289"
       patternTransform="translate(18.50938,18)"
       height="476"
       width="370"
       patternUnits="userSpaceOnUse">
      <rect
         style="fill:#00e5ff;fill-opacity:1"
         id="rect3291"
         width="370"
         height="476"
         x="0"
         y="0"
         rx="20"
         ry="20" />
    </pattern>
    <pattern
       patternUnits="userSpaceOnUse"
       width="370"
       height="476"
       patternTransform="translate(18.50938,18)"
       id="pattern3285">
      <rect
         ry="20"
         rx="20"
         y="0"
         x="0"
         height="476"
         width="370"
         id="rect3287"
         style="fill:#00e5ff;fill-opacity:1" />
    </pattern>
    <marker
       refX="0"
       refY="0"
       orient="auto"
       id="marker3281"
       style="overflow:visible">
      <path
         d="M 8.7185878,4.0337352 -2.2072895,0.01601326 8.7185884,-4.0017078 c -1.7454984,2.3720609 -1.7354408,5.6174519 -6e-7,8.035443 z"
         transform="matrix(1.1,0,0,1.1,1.1,0)"
         id="path3283"
         style="font-size:12px;fill-rule:evenodd;stroke-width:0.625;stroke-linejoin:round" />
    </marker>
    <pattern
       id="pattern4002-9"
       patternTransform="translate(18.50938,18)"
       height="476"
       width="370"
       patternUnits="userSpaceOnUse">
      <rect
         style="fill:#00e5ff;fill-opacity:1"
         id="rect2240-4"
         width="370"
         height="476"
         x="0"
         y="0"
         rx="20"
         ry="20" />
    </pattern>
    <pattern
       id="pattern4002-1-8"
       patternTransform="translate(18.50938,18)"
       height="476"
       width="370"
       patternUnits="userSpaceOnUse">
      <rect
         style="fill:#00e5ff;fill-opacity:1"
         id="rect2240-7-8"
         width="370"
         height="476"
         x="0"
         y="0"
         rx="20"
         ry="20" />
    </pattern>
    <pattern
       id="pattern4002-2"
       patternTransform="translate(18.50938,18)"
       height="476"
       width="370"
       patternUnits="userSpaceOnUse">
      <rect
         style="fill:#00e5ff;fill-opacity:1"
         id="rect2240-45"
         width="370"
         height="476"
         x="0"
         y="0"
         rx="20"
         ry="20" />
    </pattern>
    <pattern
       id="pattern4002"
       patternTransform="translate(18.50938,18)"
       height="476"
       width="370"
       patternUnits="userSpaceOnUse">
      <rect
         style="fill:#00e5ff;fill-opacity:1"
         id="rect2240"
         width="370"
         height="476"
         x="0"
         y="0"
         rx="20"
         ry="20" />
    </pattern>
    <pattern
       id="pattern4002-1"
       patternTransform="translate(18.50938,18)"
       height="476"
       width="370"
       patternUnits="userSpaceOnUse">
      <rect
         style="fill:#00e5ff;fill-opacity:1"
         id="rect2240-7"
         width="370"
         height="476"
         x="0"
         y="0"
         rx="20"
         ry="20" />
    </pattern>
  </defs>
  <g
     transform="translate(-46512.599,12414.831)"
     id="layer1">
    <path
       d="m 46838.557,-12400.594 13414.083,0 c 172.694,0 311.721,139.028 311.721,311.722 l 0,8687.4514 c 0,172.6936 -139.027,311.7214 -311.721,311.7214 l -13414.083,0 c -172.693,0 -311.721,-139.0278 -311.721,-311.7214 l 0,-8687.4514 c 0,-172.694 139.028,-311.722 311.721,-311.722 z"
       id="rect2907"
       style="fill:#2c5c32;fill-opacity:1;stroke:#2c5c32;stroke-width:28.4736824;stroke-linecap:butt;stroke-linejoin:miter;stroke-miterlimit:4;stroke-opacity:1" />
    <path
       d="m 46849.254,-12286.703 13364.254,0 c 115.512,0 208.505,92.993 208.505,208.504 l 0,8641.182 c 0,115.5114 -92.993,208.5043 -208.505,208.5043 l -13364.254,0 c -115.511,0 -208.504,-92.9929 -208.504,-208.5043 l 0,-8641.182 c 0,-115.511 92.993,-208.504 208.504,-208.504 z"
       id="rect3681"
       style="fill:#2c5c32;fill-opacity:1;stroke:#ffffff;stroke-width:85.42105103;stroke-linecap:butt;stroke-linejoin:miter;stroke-miterlimit:4;stroke-opacity:1" />
    <rect
       width="2217.3882"
       height="1279.5361"
       rx="73.254288"
       ry="73.254288"
       x="52435.141"
       y="-11818.666"
       id="rect3683"
       style="fill:#d40000;fill-opacity:1;stroke:#ffffff;stroke-width:56.94736481;stroke-linecap:butt;stroke-linejoin:miter;stroke-miterlimit:4;stroke-opacity:1;stroke-dasharray:none" />
  </g>
  <g
     transform="matrix(28.473684,0,0,28.473684,-1736.8933,-1423.7042)"
     id="text4211"
     style="font-size:36.47407532px;font-style:normal;font-variant:normal;font-weight:bold;font-stretch:normal;text-align:start;line-height:125%;writing-mode:lr-tb;text-anchor:start;fill:#ffffff;fill-opacity:1;stroke:none;font-family:Drogowskaz;-inkscape-font-specification:Drogowskaz Bold">
    <path
       d="m 300.19361,93.924103 c -0.89272,-0.874141 -1.96593,-1.311218 -3.21964,-1.311232 -1.25374,1.4e-5 -2.32695,0.436905 -3.21965,1.310676 -0.89271,0.873795 -1.33906,1.956655 -1.33906,3.248584 0,1.291946 0.44635,2.384267 1.33906,3.276969 0.8927,0.89271 1.96591,1.33906 3.21965,1.33906 1.25371,0 2.32711,-0.44635 3.2202,-1.33906 0.89306,-0.892702 1.3396,-1.985023 1.33961,-3.276969 -10e-6,-1.291929 -0.44674,-2.374603 -1.34017,-3.248028 z m 3.2202,9.688427 c -1.78543,1.78541 -3.93204,2.67812 -6.43984,2.67812 -2.50783,0 -4.65444,-0.89289 -6.43985,-2.67868 -1.78541,-1.78578 -2.67812,-3.932389 -2.67812,-6.439839 0,-1.671866 0.41779,-3.210541 1.25336,-4.616028 l 8.72002,-14.760825 5.29948,0 -6.0408,10.258334 c 2.46958,0.03786 4.58781,0.940216 6.35469,2.70706 1.76684,1.766875 2.65027,3.904026 2.65029,6.411459 -2e-5,2.50745 -0.8931,4.654249 -2.67923,6.440399 z"
       id="path4356" />
    <path
       d="m 326.50953,101.73139 0,4.55926 -14.81759,0 0,-2.96307 10.7147,-14.362339 c 0.45562,-0.607735 0.68343,-1.291549 0.68345,-2.051444 -2e-5,-0.949825 -0.33246,-1.757194 -0.99734,-2.422107 -0.66491,-0.664869 -1.47227,-0.997315 -2.42211,-0.997338 -0.94985,2.3e-5 -1.75722,0.332469 -2.4221,0.997338 -0.6649,0.664913 -0.99735,1.472282 -0.99734,2.422107 l -4.55926,0 c -10e-6,-2.203917 0.77879,-4.084684 2.3364,-5.642306 1.55759,-1.557572 3.43835,-2.336371 5.6423,-2.336398 2.20393,2.7e-5 4.08469,0.778826 5.64231,2.336398 1.55758,1.557622 2.33638,3.438389 2.3364,5.642306 -2e-5,1.824018 -0.55101,3.457677 -1.65296,4.900981 l -7.40879,9.916612 z"
       id="path4358" />
  </g>
  <g
     transform="matrix(28.473684,0,0,28.473684,-1736.8933,-1423.7042)"
     id="text4215"
     style="font-size:47.17542267px;font-style:normal;font-variant:normal;font-weight:bold;font-stretch:normal;text-align:start;line-height:125%;writing-mode:lr-tb;text-anchor:start;fill:#ffffff;fill-opacity:1;stroke:none;font-family:Drogowskaz;-inkscape-font-specification:Drogowskaz Bold">
    <path
       d="m 90.835191,168.61262 12.677819,0 0,5.89693 -20.639247,0 0,-2.94846 12.679259,-26.53618 -12.679259,0 0,-5.89692 20.639247,0 0,2.94846 z"
       id="path4268" />
    <path
       d="m 112.74568,171.04568 c -2.30925,-2.3102 -3.46388,-5.08686 -3.46387,-8.32998 -10e-6,-3.24311 1.15462,-6.01953 3.46387,-8.32927 2.30923,-2.3097 5.08589,-3.46457 8.32998,-3.46459 2.11248,2e-5 4.07812,0.54038 5.89693,1.62108 l 0,-1.62108 5.89693,0 0,17.69078 1.47423,5.89693 -5.89693,0 -0.51684,-2.21135 c -2.06356,1.47424 -4.34833,2.21135 -6.85432,2.21135 -3.24409,0 -6.02075,-1.15462 -8.32998,-3.46387 z m 4.16499,-12.5684 c -1.15463,1.15464 -1.73194,2.56744 -1.73194,4.23842 0,1.67099 0.57731,3.0838 1.73194,4.23841 1.15461,1.15463 2.5427,1.73194 4.16427,1.73194 1.62155,0 3.00988,-0.57731 4.165,-1.73194 1.15508,-1.15461 1.73263,-2.56742 1.73265,-4.23841 -2e-5,-1.67098 -0.57757,-3.08378 -1.73265,-4.23842 -1.15512,-1.15461 -2.54345,-1.73192 -4.165,-1.73194 -1.62157,2e-5 -3.00966,0.57733 -4.16427,1.73194 z"
       id="path4270" />
    <path
       d="m 141.67748,139.12799 5.89693,0 0,20.63924 2.21135,0 6.63404,-8.84539 7.37116,0 -8.84539,11.79386 8.84539,11.79385 -7.37116,0 -6.63404,-8.84539 -2.21135,0 0,8.84539 -5.89693,0 z"
       id="path4272" />
    <path
       d="m 168.21365,150.92184 5.89693,0 0,1.25252 c 1.86773,-0.83499 3.83337,-1.2525 5.89693,-1.25252 l 0,5.89693 c -2.26031,2e-5 -4.22596,0.76161 -5.89693,2.28477 l 0,15.40601 -5.89693,0 z"
       id="path4274" />
    <path
       d="m 188.11579,171.56109 c -2.45706,-2.45705 -3.68559,-5.40551 -3.68558,-8.84539 -10e-6,-3.43986 1.22852,-6.38832 3.68558,-8.8454 2.45704,-2.45703 5.4055,-3.68555 8.84539,-3.68558 3.43985,3e-5 6.38832,1.22855 8.84539,3.68558 2.45703,2.45708 3.68555,5.40554 3.68558,8.8454 -3e-5,3.43988 -1.22855,6.38834 -3.68558,8.84539 -2.45707,2.45705 -5.40554,3.68558 -8.84539,3.68558 -3.43989,0 -6.38835,-1.22853 -8.84539,-3.68558 z m 4.16499,-13.52579 c -1.30244,1.30244 -1.95365,2.86257 -1.95365,4.6804 0,1.81784 0.65121,3.37797 1.95365,4.68039 1.30242,1.30244 2.86255,1.95366 4.6804,1.95365 1.81782,1e-5 3.37795,-0.65121 4.6804,-1.95365 1.30241,-1.30242 1.95362,-2.86255 1.95364,-4.68039 -2e-5,-1.81783 -0.65123,-3.37796 -1.95364,-4.6804 -1.30245,-1.30241 -2.86258,-1.95363 -4.6804,-1.95365 -1.81785,2e-5 -3.37798,0.65124 -4.6804,1.95365 z"
       id="path4276" />
    <path
       d="m 235.65977,172.51991 c -2.26031,1.81784 -4.86469,2.72676 -7.81314,2.72676 -3.48883,0 -6.44953,-1.22853 -8.8821,-3.68558 -2.43258,-2.45705 -3.64887,-5.41775 -3.64887,-8.88211 0,-3.46433 1.21629,-6.41279 3.64887,-8.84539 2.43257,-2.43255 5.39327,-3.64884 8.8821,-3.64887 2.60388,3e-5 4.96256,0.73714 7.07603,2.21135 l -2.28477,5.75008 c -1.2775,-1.37631 -2.87458,-2.06448 -4.79126,-2.0645 -1.81881,2e-5 -3.37918,0.63876 -4.68112,1.91622 -1.30196,1.27749 -1.95293,2.83762 -1.95292,4.68039 -1e-5,1.8428 0.65096,3.41541 1.95292,4.71783 1.30194,1.30244 2.86231,1.95366 4.68112,1.95365 2.06353,1e-5 3.75899,-0.78606 5.08639,-2.3582 z"
       id="path4278" />
    <path
       d="m 257.09083,168.61262 0,5.89693 -16.21655,0 0,-2.72675 8.10828,-14.96403 -8.10828,0 0,-5.89693 16.21655,0 0,2.72675 -8.10827,14.96403 z"
       id="path4280" />
    <path
       d="m 261.55096,150.92184 5.89693,0 4.42269,14.15205 4.4227,-14.15205 5.89693,0 -11.05674,35.38157 -5.89693,0 3.68558,-11.79386 z"
       id="path4282" />
    <path
       d="m 288.08715,150.92184 5.89693,0 0,2.94846 c 1.47422,-1.96562 3.43986,-2.94844 5.89692,-2.94846 2.26028,2e-5 4.12754,0.85999 5.6018,2.57991 1.71991,-1.71992 3.78393,-2.57989 6.19206,-2.57991 2.45702,2e-5 4.54551,0.85999 6.26548,2.57991 1.71991,1.71995 2.57987,3.80845 2.57991,6.26548 l 0,14.74232 -5.89693,0 0,-14.0052 c -3e-5,-1.03176 -0.35635,-1.90396 -1.06896,-2.61662 -0.71267,-0.71262 -1.58488,-1.06894 -2.61662,-1.06896 -1.03179,2e-5 -1.904,0.35634 -2.61661,1.06896 -0.71267,0.71266 -1.06899,1.58486 -1.06897,2.61662 l 0,14.0052 -5.89692,0 0,-14.0052 c -2e-5,-1.03176 -0.35634,-1.90396 -1.06897,-2.61662 -0.71265,-0.71262 -1.58486,-1.06894 -2.61661,-1.06896 -1.03179,2e-5 -1.90399,0.35634 -2.61662,1.06896 -0.71265,0.71266 -1.06898,1.58486 -1.06896,2.61662 l 0,14.0052 -5.89693,0 z"
       id="path4284" />
  </g>
  <g
     transform="matrix(28.473684,0,0,28.473684,-1736.8933,-1423.7042)"
     id="text4219"
     style="font-size:47.17542267px;font-style:normal;font-variant:normal;font-weight:bold;font-stretch:normal;text-align:start;line-height:125%;writing-mode:lr-tb;text-anchor:start;fill:#ffffff;fill-opacity:1;stroke:none;font-family:Drogowskaz;-inkscape-font-specification:Drogowskaz Bold">
    <path
       d="m 83.033791,197.64106 5.896927,0 5.896928,23.58771 5.896924,-23.58771 5.89693,0 5.89693,23.58771 5.89693,-23.58771 5.89693,0 -8.8454,35.38157 -5.89692,0 -5.89693,-23.58771 -5.89693,23.58771 -5.896928,0 z"
       id="path4287" />
    <path
       d="m 125.78652,209.43492 5.89693,0 4.42269,14.15205 4.4227,-14.15205 5.89693,0 -11.05674,35.38156 -5.89693,0 3.68558,-11.79385 z"
       id="path4289" />
    <path
       d="m 158.27962,209.43492 c 1.91668,2e-5 3.63661,0.19678 5.15981,0.59027 l 0,5.30666 c -1.671,-0.4914 -3.39094,-0.7371 -5.15981,-0.73712 -0.39353,2e-5 -0.73761,0.14734 -1.03225,0.44198 -0.29467,0.29467 -0.442,0.63876 -0.44198,1.03225 -2e-5,0.58933 0.24569,1.00683 0.73711,1.25252 l 4.49612,2.7282 c 1.13061,0.63827 2.01529,1.52271 2.65405,2.65333 0.63872,1.13063 0.95809,2.35916 0.95811,3.68557 -2e-5,2.0146 -0.71266,3.74677 -2.13793,5.19653 -1.4253,1.44976 -3.16971,2.17463 -5.23323,2.17463 -3.24313,0 -6.24054,-0.56531 -8.99224,-1.69594 l 1.62108,-4.9381 c 2.35915,0.98283 4.8162,1.47424 7.37116,1.47423 0.6392,1e-5 1.16756,-0.20875 1.58508,-0.62626 0.4175,-0.4175 0.62625,-0.94586 0.62627,-1.58509 -2e-5,-0.88491 -0.36858,-1.52365 -1.10568,-1.91621 l -4.79125,-2.80162 c -2.06355,-1.37536 -3.09532,-3.24262 -3.09531,-5.60179 -1e-5,-1.86772 0.68792,-3.44033 2.06378,-4.71783 1.37584,-1.27745 2.94821,-1.91619 4.71711,-1.91621 z"
       id="path4291" />
    <path
       d="m 187.01221,227.1257 0,5.89693 -16.21656,0 0,-2.72675 8.10828,-14.96403 -8.10828,0 0,-5.89693 16.21656,0 0,2.72675 -8.10828,14.96403 z"
       id="path4293" />
    <path
       d="m 196.27858,230.07416 c -2.45705,-2.45704 -3.68558,-5.4055 -3.68558,-8.84539 0,-3.43986 1.22853,-6.38832 3.68558,-8.84539 2.45705,-2.45703 5.40551,-3.68555 8.8454,-3.68558 3.43985,3e-5 6.38831,1.22855 8.84539,3.68558 2.45702,2.45707 3.68555,5.40553 3.68558,8.84539 -3e-5,3.43989 -1.22856,6.38835 -3.68558,8.84539 -2.45708,2.45706 -5.40554,3.68558 -8.84539,3.68558 -3.43989,0 -6.38835,-1.22852 -8.8454,-3.68558 z m 4.165,-13.52579 c -1.30244,1.30245 -1.95366,2.86258 -1.95365,4.6804 -10e-6,1.81785 0.65121,3.37798 1.95365,4.6804 1.30242,1.30244 2.86255,1.95365 4.6804,1.95365 1.81781,0 3.37795,-0.65121 4.68039,-1.95365 1.30241,-1.30242 1.95363,-2.86255 1.95365,-4.6804 -2e-5,-1.81782 -0.65124,-3.37795 -1.95365,-4.6804 -1.30244,-1.30241 -2.86258,-1.95362 -4.68039,-1.95364 -1.81785,2e-5 -3.37798,0.65123 -4.6804,1.95364 z"
       id="path4295" />
    <path
       d="m 230.95304,237.81388 c 1.03176,0.78606 2.21133,1.17909 3.53873,1.1791 1.62106,-10e-6 3.00915,-0.57732 4.16427,-1.73193 1.15509,-1.15463 1.73264,-2.56743 1.73266,-4.23842 l 0,-1.62108 c -1.81882,1.08072 -3.78446,1.62108 -5.89693,1.62108 -3.24409,0 -6.02075,-1.15486 -8.32999,-3.46459 -2.30925,-2.30972 -3.46387,-5.08614 -3.46387,-8.32927 0,-3.2431 1.15462,-6.01952 3.46387,-8.32926 2.30924,-2.30971 5.0859,-3.46457 8.32999,-3.46459 2.11247,2e-5 4.07811,0.54038 5.89693,1.62108 l 0,-1.62108 5.89693,0 0,23.58771 c -3e-5,3.24311 -1.15489,6.01953 -3.46459,8.32927 -2.30975,2.30971 -5.08617,3.46457 -8.32927,3.46458 -2.60487,-1e-5 -4.96402,-0.78607 -7.07746,-2.35819 z m -0.62626,-20.82352 c -1.15464,1.15463 -1.73195,2.56744 -1.73194,4.23841 -1e-5,1.671 0.5773,3.08381 1.73194,4.23842 1.15461,1.15463 2.5427,1.73194 4.16427,1.73193 1.62154,1e-5 3.00987,-0.5773 4.16499,-1.73193 1.15509,-1.15461 1.73264,-2.56742 1.73266,-4.23842 -2e-5,-1.67097 -0.57757,-3.08378 -1.73266,-4.23841 -1.15512,-1.15461 -2.54345,-1.73192 -4.16499,-1.73194 -1.62157,2e-5 -3.00966,0.57733 -4.16427,1.73194 z"
       id="path4297" />
    <path
       d="m 254.56324,209.43492 5.89692,0 0,1.25252 c 1.86774,-0.83499 3.83338,-1.2525 5.89693,-1.25252 l 0,5.89693 c -2.26031,1e-5 -4.22595,0.7616 -5.89693,2.28477 l 0,15.40601 -5.89692,0 z"
       id="path4299" />
    <path
       d="m 285.90566,197.64106 5.89693,0 -8.84539,8.84539 z m -11.79386,32.4331 c -2.45705,-2.45704 -3.68558,-5.4055 -3.68558,-8.84539 0,-3.43986 1.22853,-6.38832 3.68558,-8.84539 2.45705,-2.45703 5.40551,-3.68555 8.8454,-3.68558 3.43985,3e-5 6.38831,1.22855 8.84539,3.68558 2.45702,2.45707 3.68555,5.40553 3.68558,8.84539 -3e-5,3.43989 -1.22856,6.38835 -3.68558,8.84539 -2.45708,2.45706 -5.40554,3.68558 -8.84539,3.68558 -3.43989,0 -6.38835,-1.22852 -8.8454,-3.68558 z m 4.165,-13.52579 c -1.30244,1.30245 -1.95366,2.86258 -1.95365,4.6804 -10e-6,1.81785 0.65121,3.37798 1.95365,4.6804 1.30242,1.30244 2.86255,1.95365 4.6804,1.95365 1.81781,0 3.37795,-0.65121 4.68039,-1.95365 1.30241,-1.30242 1.95363,-2.86255 1.95365,-4.6804 -2e-5,-1.81782 -0.65124,-3.37795 -1.95365,-4.6804 -1.30244,-1.30241 -2.86258,-1.95362 -4.68039,-1.95364 -1.81785,2e-5 -3.37798,0.65123 -4.6804,1.95364 z"
       id="path4301" />
    <path
       d="m 303.995,229.55876 c -2.30925,-2.3102 -3.46387,-5.08686 -3.46387,-8.32999 0,-3.2431 1.15462,-6.01952 3.46387,-8.32926 2.30924,-2.30971 5.0859,-3.46457 8.32999,-3.46459 2.11247,2e-5 4.07811,0.54038 5.89693,1.62108 l 0,-13.41494 5.89693,0 0,35.38157 -5.89693,0 0,-1.62108 c -1.81882,1.08072 -3.78446,1.62108 -5.89693,1.62108 -3.24409,0 -6.02075,-1.15462 -8.32999,-3.46387 z m 4.165,-12.5684 c -1.15464,1.15463 -1.73195,2.56744 -1.73194,4.23841 -1e-5,1.671 0.5773,3.08381 1.73194,4.23842 1.15461,1.15463 2.5427,1.73194 4.16427,1.73193 1.62154,1e-5 3.00987,-0.5773 4.16499,-1.73193 1.15509,-1.15461 1.73264,-2.56742 1.73266,-4.23842 -2e-5,-1.67097 -0.57757,-3.08378 -1.73266,-4.23841 -1.15512,-1.15461 -2.54345,-1.73192 -4.16499,-1.73194 -1.62157,2e-5 -3.00966,0.57733 -4.16427,1.73194 z"
       id="path4303" />
  </g>
  <g
     transform="matrix(28.473684,0,0,28.473684,-1736.8933,-1423.7042)"
     id="text4223"
     style="font-size:47.17542267px;font-style:normal;font-variant:normal;font-weight:bold;font-stretch:normal;text-align:start;line-height:125%;writing-mode:lr-tb;text-anchor:start;fill:#ffffff;fill-opacity:1;stroke:none;font-family:Drogowskaz;-inkscape-font-specification:Drogowskaz Bold">
    <path
       d="m 99.695693,275.61141 -10.761605,0 0,14.74232 -5.896928,0 0,-35.38157 16.658533,0 c 1.670967,1.13066 2.997867,2.6049 3.980717,4.4227 0.98279,1.81786 1.4742,3.7835 1.47423,5.89693 -3e-5,2.11347 -0.49144,4.07911 -1.47423,5.89692 -0.98285,1.81786 -2.30975,3.29209 -3.980717,4.4227 z m -2.137924,-5.89693 c 1.130608,-1.27745 1.695922,-2.75168 1.695942,-4.42269 -2e-5,-1.67097 -0.565334,-3.1452 -1.695942,-4.4227 l -8.623681,0 0,8.84539 z"
       id="path4325" />
    <path
       d="m 111.7718,254.97216 5.89693,0 0,8.84539 5.89692,-2.94846 0,5.89693 -5.89692,2.94846 0,20.63925 -5.89693,0 0,-17.69078 -5.89693,2.94846 0,-5.89693 5.89693,-2.94846 z"
       id="path4327" />
    <path
       d="m 129.6997,287.40527 c -2.45706,-2.45705 -3.68558,-5.40551 -3.68558,-8.8454 0,-3.43986 1.22852,-6.38832 3.68558,-8.84539 2.45704,-2.45703 5.4055,-3.68555 8.84539,-3.68558 3.43986,3e-5 6.38832,1.22855 8.84539,3.68558 2.45703,2.45707 3.68555,5.40553 3.68558,8.84539 -3e-5,3.43989 -1.22855,6.38835 -3.68558,8.8454 -2.45707,2.45705 -5.40553,3.68557 -8.84539,3.68558 -3.43989,-10e-6 -6.38835,-1.22853 -8.84539,-3.68558 z m 4.16499,-13.52579 c -1.30244,1.30244 -1.95365,2.86257 -1.95364,4.68039 -10e-6,1.81785 0.6512,3.37798 1.95364,4.6804 1.30242,1.30244 2.86255,1.95365 4.6804,1.95365 1.81782,0 3.37795,-0.65121 4.6804,-1.95365 1.30241,-1.30242 1.95362,-2.86255 1.95364,-4.6804 -2e-5,-1.81782 -0.65123,-3.37795 -1.95364,-4.68039 -1.30245,-1.30242 -2.86258,-1.95363 -4.6804,-1.95365 -1.81785,2e-5 -3.37798,0.65123 -4.6804,1.95365 z"
       id="path4329" />
    <path
       d="m 176.49368,288.36409 c -2.26032,1.81784 -4.86469,2.72675 -7.81314,2.72676 -3.48884,-10e-6 -6.44953,-1.22853 -8.8821,-3.68558 -2.43259,-2.45705 -3.64887,-5.41775 -3.64887,-8.88211 0,-3.46433 1.21628,-6.41279 3.64887,-8.84539 2.43257,-2.43256 5.39326,-3.64884 8.8821,-3.64887 2.60388,3e-5 4.96256,0.73714 7.07603,2.21135 l -2.28478,5.75008 c -1.27749,-1.37632 -2.87457,-2.06448 -4.79125,-2.0645 -1.81881,2e-5 -3.37918,0.63876 -4.68112,1.91621 -1.30196,1.27749 -1.95293,2.83763 -1.95292,4.6804 -1e-5,1.8428 0.65096,3.41541 1.95292,4.71783 1.30194,1.30244 2.86231,1.95365 4.68112,1.95365 2.06352,0 3.75898,-0.78606 5.08639,-2.3582 z"
       id="path4331" />
    <path
       d="m 183.40414,254.97216 5.89693,0 0,20.63925 2.21135,0 6.63404,-8.84539 7.37116,0 -8.84539,11.79385 8.84539,11.79386 -7.37116,0 -6.63404,-8.84539 -2.21135,0 0,8.84539 -5.89693,0 z"
       id="path4333" />
  </g>
  <g
     transform="matrix(28.473684,0,0,28.473684,-1736.8933,-1423.7042)"
     id="text4227"
     style="font-size:47.17542267px;font-style:normal;font-variant:normal;font-weight:bold;font-stretch:normal;text-align:start;line-height:125%;writing-mode:lr-tb;text-anchor:start;fill:#ffffff;fill-opacity:1;stroke:none;font-family:Drogowskaz;-inkscape-font-specification:Drogowskaz Bold">
    <path
       d="m 82.857018,311.83886 5.896927,0 5.896928,23.58771 5.896927,-23.58771 5.89693,0 5.89693,23.58771 5.89692,-23.58771 5.89693,0 -8.84539,35.38157 -5.89693,0 -5.89693,-23.58771 -5.896923,23.58771 -5.896928,0 z"
       id="path4306" />
    <path
       d="m 129.25667,311.83886 5.89693,0 0,8.84539 5.89693,-2.94846 0,5.89693 -5.89693,2.94846 0,20.63925 -5.89693,0 0,-17.69079 -5.89692,2.94847 0,-5.89693 5.89692,-2.94846 z"
       id="path4308" />
    <path
       d="m 146.68457,344.27196 c -2.45705,-2.45704 -3.68558,-5.4055 -3.68558,-8.84539 0,-3.43986 1.22853,-6.38832 3.68558,-8.84539 2.45705,-2.45703 5.40551,-3.68555 8.8454,-3.68558 3.43985,3e-5 6.38831,1.22855 8.84539,3.68558 2.45702,2.45707 3.68555,5.40553 3.68558,8.84539 -3e-5,3.43989 -1.22856,6.38835 -3.68558,8.84539 -2.45708,2.45706 -5.40554,3.68558 -8.84539,3.68558 -3.43989,0 -6.38835,-1.22852 -8.8454,-3.68558 z m 4.165,-13.52579 c -1.30244,1.30245 -1.95366,2.86258 -1.95365,4.6804 -1e-5,1.81785 0.65121,3.37798 1.95365,4.6804 1.30241,1.30244 2.86255,1.95365 4.6804,1.95365 1.81781,0 3.37794,-0.65121 4.68039,-1.95365 1.30241,-1.30242 1.95363,-2.86255 1.95365,-4.6804 -2e-5,-1.81782 -0.65124,-3.37795 -1.95365,-4.6804 -1.30245,-1.30241 -2.86258,-1.95362 -4.68039,-1.95364 -1.81785,2e-5 -3.37799,0.65123 -4.6804,1.95364 z"
       id="path4310" />
    <path
       d="m 194.22855,345.23079 c -2.26032,1.81784 -4.86469,2.72675 -7.81314,2.72675 -3.48883,0 -6.44953,-1.22852 -8.8821,-3.68558 -2.43259,-2.45704 -3.64887,-5.41774 -3.64887,-8.8821 0,-3.46433 1.21628,-6.41279 3.64887,-8.84539 2.43257,-2.43256 5.39327,-3.64884 8.8821,-3.64887 2.60388,3e-5 4.96256,0.73714 7.07603,2.21135 l -2.28477,5.75008 c -1.2775,-1.37632 -2.87458,-2.06448 -4.79126,-2.0645 -1.81881,2e-5 -3.37918,0.63875 -4.68112,1.91621 -1.30196,1.27749 -1.95293,2.83762 -1.95292,4.6804 -1e-5,1.8428 0.65096,3.41541 1.95292,4.71783 1.30194,1.30244 2.86231,1.95365 4.68112,1.95365 2.06352,0 3.75899,-0.78606 5.08639,-2.3582 z"
       id="path4312" />
    <path
       d="m 202.08748,311.83886 5.89693,0 0,8.84539 5.89693,-2.94846 0,5.89693 -5.89693,2.94846 0,20.63925 -5.89693,0 0,-17.69079 -5.89692,2.94847 0,-5.89693 5.89692,-2.94846 z"
       id="path4314" />
    <path
       d="m 220.14683,343.75656 c -2.30925,-2.3102 -3.46388,-5.08686 -3.46387,-8.32999 -1e-5,-3.2431 1.15462,-6.01952 3.46387,-8.32926 2.30923,-2.30971 5.08589,-3.46457 8.32998,-3.46459 2.11248,2e-5 4.07812,0.54038 5.89693,1.62108 l 0,-1.62108 5.89693,0 0,17.69078 1.47423,5.89693 -5.89693,0 -0.51684,-2.21135 c -2.06356,1.47423 -4.34833,2.21135 -6.85432,2.21135 -3.24409,0 -6.02075,-1.15462 -8.32998,-3.46387 z m 4.16499,-12.5684 c -1.15463,1.15463 -1.73194,2.56744 -1.73194,4.23841 0,1.671 0.57731,3.08381 1.73194,4.23842 1.15461,1.15463 2.5427,1.73194 4.16427,1.73193 1.62155,10e-6 3.00988,-0.5773 4.165,-1.73193 1.15508,-1.15461 1.73263,-2.56742 1.73265,-4.23842 -2e-5,-1.67097 -0.57757,-3.08378 -1.73265,-4.23841 -1.15512,-1.15461 -2.54345,-1.73192 -4.165,-1.73194 -1.62157,2e-5 -3.00966,0.57733 -4.16427,1.73194 z"
       id="path4316" />
    <path
       d="m 243.63017,323.63272 5.89693,0 3.2436,13.12124 4.12756,-13.12124 5.89692,0 4.12757,13.12124 3.24359,-13.12124 5.89693,0 -5.89693,23.58771 -5.89692,0 -4.4227,-14.15205 -4.4227,14.15205 -5.89692,0 z"
       id="path4318" />
    <path
       d="m 298.28242,333.21522 c -0.44248,-1.27746 -1.24102,-2.33394 -2.39563,-3.16945 -1.15464,-0.83548 -2.44459,-1.25322 -3.86986,-1.25324 -1.42529,2e-5 -2.71524,0.41776 -3.86985,1.25324 -1.15464,0.83551 -1.95318,1.89199 -2.39563,3.16945 z m -12.53097,4.4227 c 0.4914,1.32643 1.30218,2.39515 2.43234,3.20617 1.13013,0.81102 2.40785,1.21653 3.83314,1.21653 2.55494,0 5.5034,-0.2457 8.8454,-0.73712 l -2.94847,5.89693 -3.98071,0.59027 c -0.78608,0.0979 -1.42482,0.14684 -1.91622,0.14684 -3.43988,0 -6.38834,-1.22852 -8.84539,-3.68558 -2.45706,-2.45704 -3.68558,-5.4055 -3.68558,-8.84539 0,-3.43986 1.22852,-6.38832 3.68558,-8.84539 2.45705,-2.45703 5.40551,-3.68555 8.84539,-3.68558 4.37373,3e-5 7.8136,1.81834 10.31963,5.45495 l 0,9.28737 z"
       id="path4320" />
    <path
       d="m 308.45772,311.83886 5.89693,0 0,20.63925 2.21135,0 6.63404,-8.84539 7.37116,0 -8.84539,11.79385 8.84539,11.79386 -7.37116,0 -6.63404,-8.84539 -2.21135,0 0,8.84539 -5.89693,0 z"
       id="path4322" />
  </g>
  <g
     transform="matrix(28.473684,0,0,28.473684,-1736.8933,-1423.7042)"
     id="text4231"
     style="font-size:45.33121872px;font-style:normal;font-variant:normal;font-weight:bold;font-stretch:normal;text-align:start;line-height:125%;writing-mode:lr-tb;text-anchor:start;fill:#ffffff;fill-opacity:1;stroke:none;font-family:Drogowskaz;-inkscape-font-specification:Drogowskaz Bold">
    <path
       d="m 532.562,169.31715 0,5.6664 -18.41581,0 0,-3.68261 13.3166,-17.84999 c 0.56626,-0.75532 0.84939,-1.60519 0.84941,-2.54961 -2e-5,-1.18047 -0.41319,-2.1839 -1.23953,-3.01028 -0.82636,-0.82632 -1.82979,-1.23949 -3.01027,-1.23952 -1.18051,3e-5 -2.18394,0.4132 -3.01028,1.23952 -0.82636,0.82638 -1.23953,1.82981 -1.23952,3.01028 l -5.66641,0 c 0,-2.7391 0.96792,-5.07658 2.90376,-7.01245 1.93583,-1.9358 4.27331,-2.90372 7.01245,-2.90375 2.73911,3e-5 5.07659,0.96795 7.01245,2.90375 1.93581,1.93587 2.90373,4.27335 2.90375,7.01245 -2e-5,2.26695 -0.6848,4.29732 -2.05434,6.09111 l -9.20791,12.3247 z"
       id="path4353" />
  </g>
  <g
     transform="matrix(28.473684,0,0,28.473684,-1736.8933,-1423.7042)"
     id="text4235"
     style="font-size:45.33121872px;font-style:normal;font-variant:normal;font-weight:bold;font-stretch:normal;text-align:start;line-height:125%;writing-mode:lr-tb;text-anchor:start;fill:#ffffff;fill-opacity:1;stroke:none;font-family:Drogowskaz;-inkscape-font-specification:Drogowskaz Bold">
    <path
       d="m 492.67939,216.15569 0,-4.67589 c 0.47219,0.14205 0.94439,0.21306 1.41661,0.21304 1.18048,2e-5 2.1839,-0.41315 3.01027,-1.23952 0.82633,-0.82633 1.23951,-1.82976 1.23953,-3.01028 -2e-5,-1.18047 -0.4132,-2.1839 -1.23953,-3.01028 -0.82637,-0.82632 -1.82979,-1.23949 -3.01027,-1.23952 -1.18052,3e-5 -2.18394,0.4132 -3.01028,1.23952 -0.82636,0.82638 -1.23954,1.82981 -1.23953,3.01028 l -5.6664,0 c 0,-2.7391 0.96791,-5.07658 2.90376,-7.01245 1.93582,-1.9358 4.27307,-2.90372 7.01175,-2.90375 2.73866,3e-5 5.07614,0.96795 7.01245,2.90375 1.93628,1.93587 2.90443,4.27335 2.90445,7.01245 -2e-5,2.219 -0.66129,4.20233 -1.98379,5.95 2.2669,2.26602 3.40036,5.00469 3.40039,8.21601 -3e-5,3.16338 -1.10974,5.84302 -3.32915,8.03893 -2.21945,2.19591 -4.88734,3.29387 -8.00365,3.29387 -3.11635,0 -5.78424,-1.09796 -8.00366,-3.29387 -2.21944,-2.19591 -3.32915,-4.87555 -3.32915,-8.03893 l 5.6664,0 c -1e-5,1.55864 0.55474,2.89269 1.66423,4.00217 1.10948,1.10949 2.4433,1.66423 4.00148,1.66423 1.55816,0 2.89221,-0.55474 4.00218,-1.66423 1.10992,-1.10948 1.6649,-2.44353 1.66492,-4.00217 -2e-5,-1.55862 -0.555,-2.89268 -1.66492,-4.00218 -1.10997,-1.10947 -2.44379,-1.66421 -4.00148,-1.66423 -0.47222,2e-5 -0.94442,0.071 -1.41661,0.21305 z"
       id="path4348" />
    <path
       d="m 524.09224,198.23514 5.6664,0 0,19.83241 4.2498,0 -1.4166,5.6664 -2.8332,0 0,8.4996 -5.6664,0 0,-8.4996 -14.16601,0 0,-5.6664 z m 0,19.83241 0,-11.9 -8.49961,11.9 z"
       id="path4350" />
  </g>
  <g
     transform="matrix(28.473684,0,0,28.473684,-1736.8933,-1423.7042)"
     id="text4239"
     style="font-size:45.33121872px;font-style:normal;font-variant:normal;font-weight:bold;font-stretch:normal;text-align:start;line-height:125%;writing-mode:lr-tb;text-anchor:start;fill:#ffffff;fill-opacity:1;stroke:none;font-family:Drogowskaz;-inkscape-font-specification:Drogowskaz Bold">
    <path
       d="m 500.03516,262.57586 0,-5.66641 19.83241,0 0,3.89566 -10.9081,30.10276 -6.09111,0 10.34091,-28.33201 z"
       id="path4343" />
    <path
       d="m 522.70077,262.57586 c 1.55863,2e-5 2.89268,-0.55472 4.00217,-1.66423 1.10948,-1.10946 1.66423,-2.44351 1.66423,-4.00218 l 5.66641,0 0,33.99842 -5.66641,0 0,-22.66561 -5.6664,0 z"
       id="path4345" />
  </g>
  <g
     transform="matrix(28.473684,0,0,28.473684,-1736.8933,-1423.7042)"
     id="text4243"
     style="font-size:45.33121872px;font-style:normal;font-variant:normal;font-weight:bold;font-stretch:normal;text-align:start;line-height:125%;writing-mode:lr-tb;text-anchor:start;fill:#ffffff;fill-opacity:1;stroke:none;font-family:Drogowskaz;-inkscape-font-specification:Drogowskaz Bold">
    <path
       d="m 476.42264,319.67455 c 1.55863,3e-5 2.89269,-0.55471 4.00218,-1.66423 1.10948,-1.10945 1.66422,-2.44351 1.66423,-4.00217 l 5.6664,0 0,33.99841 -5.6664,0 0,-22.66561 -5.66641,0 z"
       id="path4336" />
    <path
       d="m 493.42185,319.67455 c 1.55863,3e-5 2.89268,-0.55471 4.00217,-1.66423 1.10948,-1.10945 1.66422,-2.44351 1.66423,-4.00217 l 5.6664,0 0,33.99841 -5.6664,0 0,-22.66561 -5.6664,0 z"
       id="path4338" />
    <path
       d="m 520.76196,319.67455 -0.49525,5.95 c 0.80236,-0.18904 1.60519,-0.28358 2.40849,-0.2836 3.11632,2e-5 5.78421,1.10974 8.00366,3.32915 2.21941,2.21945 3.32912,4.88733 3.32915,8.00366 -3e-5,3.11634 -1.10974,5.78422 -3.32915,8.00365 -2.21945,2.21944 -4.88734,3.32915 -8.00366,3.32915 -0.5672,0 -1.15745,-0.047 -1.77075,-0.14111 l -8.00434,-1.27549 0.4247,-5.6664 8.42905,1.34605 c 0.33016,0.047 0.63727,0.0706 0.92134,0.0706 1.5577,0 2.89152,-0.54298 4.00149,-1.62895 1.10992,-1.08596 1.6649,-2.43178 1.66492,-4.03745 -2e-5,-1.60566 -0.555,-2.95147 -1.66492,-4.03745 -1.10997,-1.08596 -2.44379,-1.62894 -4.00149,-1.62896 l -8.4996,0 1.4166,-16.9992 16.99921,0 0,5.6664 z"
       id="path4340" />
  </g>
</svg>
