<?xml version="1.0" encoding="UTF-8" standalone="no"?>
<!-- Created with Inkscape (http://www.inkscape.org/) -->

<svg
   xmlns:svg="http://www.w3.org/2000/svg"
   xmlns="http://www.w3.org/2000/svg"
   version="1.1"
   width="2494.873"
   height="1354.9238"
   id="svg2">
  <title
     id="title4292">Znak E-2a</title>
  <defs
     id="defs4">
    <marker
       refX="0"
       refY="0"
       orient="auto"
       id="marker4288"
       style="overflow:visible">
      <path
         d="M 8.7185878,4.0337352 -2.2072895,0.01601326 8.7185884,-4.0017078 c -1.7454984,2.3720609 -1.7354408,5.6174519 -6e-7,8.035443 z"
         transform="matrix(1.1,0,0,1.1,1.1,0)"
         id="path4290"
         style="font-size:12px;fill-rule:evenodd;stroke-width:0.625;stroke-linejoin:round" />
    </marker>
    <pattern
       patternUnits="userSpaceOnUse"
       width="370"
       height="476"
       patternTransform="translate(18.50938,18)"
       id="pattern4292">
      <rect
         ry="20"
         rx="20"
         y="0"
         x="0"
         height="476"
         width="370"
         id="rect4294"
         style="fill:#00e5ff;fill-opacity:1" />
    </pattern>
    <pattern
       id="pattern4296"
       patternTransform="translate(18.50938,18)"
       height="476"
       width="370"
       patternUnits="userSpaceOnUse">
      <rect
         style="fill:#00e5ff;fill-opacity:1"
         id="rect4298"
         width="370"
         height="476"
         x="0"
         y="0"
         rx="20"
         ry="20" />
    </pattern>
    <marker
       refX="0"
       refY="0"
       orient="auto"
       id="marker3928"
       style="overflow:visible">
      <path
         d="M 8.7185878,4.0337352 -2.2072895,0.01601326 8.7185884,-4.0017078 c -1.7454984,2.3720609 -1.7354408,5.6174519 -6e-7,8.035443 z"
         transform="matrix(1.1,0,0,1.1,1.1,0)"
         id="path3930"
         style="font-size:12px;fill-rule:evenodd;stroke-width:0.625;stroke-linejoin:round" />
    </marker>
    <pattern
       patternUnits="userSpaceOnUse"
       width="370"
       height="476"
       patternTransform="translate(18.50938,18)"
       id="pattern3932">
      <rect
         ry="20"
         rx="20"
         y="0"
         x="0"
         height="476"
         width="370"
         id="rect3934"
         style="fill:#00e5ff;fill-opacity:1" />
    </pattern>
    <pattern
       id="pattern3936"
       patternTransform="translate(18.50938,18)"
       height="476"
       width="370"
       patternUnits="userSpaceOnUse">
      <rect
         style="fill:#00e5ff;fill-opacity:1"
         id="rect3938"
         width="370"
         height="476"
         x="0"
         y="0"
         rx="20"
         ry="20" />
    </pattern>
    <pattern
       id="pattern2321"
       patternTransform="translate(18.50938,18)"
       height="476"
       width="370"
       patternUnits="userSpaceOnUse">
      <rect
         style="fill:#00e5ff;fill-opacity:1"
         id="rect2323"
         width="370"
         height="476"
         x="0"
         y="0"
         rx="20"
         ry="20" />
    </pattern>
    <pattern
       patternUnits="userSpaceOnUse"
       width="370"
       height="476"
       patternTransform="translate(18.50938,18)"
       id="pattern2317">
      <rect
         ry="20"
         rx="20"
         y="0"
         x="0"
         height="476"
         width="370"
         id="rect2319"
         style="fill:#00e5ff;fill-opacity:1" />
    </pattern>
    <marker
       refX="0"
       refY="0"
       orient="auto"
       id="marker2313"
       style="overflow:visible">
      <path
         d="M 8.7185878,4.0337352 -2.2072895,0.01601326 8.7185884,-4.0017078 c -1.7454984,2.3720609 -1.7354408,5.6174519 -6e-7,8.035443 z"
         transform="matrix(1.1,0,0,1.1,1.1,0)"
         id="path2315"
         style="font-size:12px;fill-rule:evenodd;stroke-width:0.625;stroke-linejoin:round" />
    </marker>
    <pattern
       id="pattern5613"
       patternTransform="translate(18.50938,18)"
       height="476"
       width="370"
       patternUnits="userSpaceOnUse">
      <rect
         style="fill:#00e5ff;fill-opacity:1"
         id="rect5615"
         width="370"
         height="476"
         x="0"
         y="0"
         rx="20"
         ry="20" />
    </pattern>
    <marker
       refX="0"
       refY="0"
       orient="auto"
       id="marker2936"
       style="overflow:visible">
      <path
         d="M 8.7185878,4.0337352 -2.2072895,0.01601326 8.7185884,-4.0017078 c -1.7454984,2.3720609 -1.7354408,5.6174519 -6e-7,8.035443 z"
         transform="matrix(1.1,0,0,1.1,1.1,0)"
         id="path2938"
         style="font-size:12px;fill-rule:evenodd;stroke-width:0.625;stroke-linejoin:round" />
    </marker>
    <pattern
       patternUnits="userSpaceOnUse"
       width="370"
       height="476"
       patternTransform="translate(18.50938,18)"
       id="pattern2940">
      <rect
         ry="20"
         rx="20"
         y="0"
         x="0"
         height="476"
         width="370"
         id="rect2942"
         style="fill:#00e5ff;fill-opacity:1" />
    </pattern>
    <pattern
       id="pattern2944"
       patternTransform="translate(18.50938,18)"
       height="476"
       width="370"
       patternUnits="userSpaceOnUse">
      <rect
         style="fill:#00e5ff;fill-opacity:1"
         id="rect2946"
         width="370"
         height="476"
         x="0"
         y="0"
         rx="20"
         ry="20" />
    </pattern>
    <pattern
       id="pattern5932"
       patternTransform="translate(18.50938,18)"
       height="476"
       width="370"
       patternUnits="userSpaceOnUse">
      <rect
         style="fill:#00e5ff;fill-opacity:1"
         id="rect5934"
         width="370"
         height="476"
         x="0"
         y="0"
         rx="20"
         ry="20" />
    </pattern>
    <pattern
       patternUnits="userSpaceOnUse"
       width="370"
       height="476"
       patternTransform="translate(18.50938,18)"
       id="pattern4002">
      <rect
         ry="20"
         rx="20"
         y="0"
         x="0"
         height="476"
         width="370"
         id="rect2240"
         style="fill:#00e5ff;fill-opacity:1" />
    </pattern>
    <marker
       refX="0"
       refY="0"
       orient="auto"
       id="Arrow2Lstart"
       style="overflow:visible">
      <path
         d="M 8.7185878,4.0337352 -2.2072895,0.01601326 8.7185884,-4.0017078 c -1.7454984,2.3720609 -1.7354408,5.6174519 -6e-7,8.035443 z"
         transform="matrix(1.1,0,0,1.1,1.1,0)"
         id="path5785"
         style="font-size:12px;fill-rule:evenodd;stroke-width:0.625;stroke-linejoin:round" />
    </marker>
  </defs>
  <g
     transform="translate(3660.0606,-1104.0564)"
     id="layer1">
    <path
       d="m -3405.7917,1253.0563 -27.7978,45.3967 -27.9064,45.5066 31.7072,0 0,114.9035 47.9949,0 0,-114.9035 31.8153,0 -27.9064,-45.5066 -27.9068,-45.3967 z"
       id="rect3488"
       style="fill:#ffffff;fill-opacity:1;stroke:none" />
    <g
       transform="matrix(21.986351,0,0,21.990259,-20061.155,-23124.81)"
       id="g3375"
       style="fill:#ffffff">
      <rect
         width="20.784559"
         height="8.931922"
         rx="0.70679677"
         ry="0.85288292"
         x="767.10773"
         y="1108.7891"
         id="rect3221"
         style="fill:#000000;fill-opacity:1;stroke:none" />
      <rect
         width="20.282804"
         height="8.4858761"
         rx="0.65195912"
         ry="0.67818791"
         x="767.35858"
         y="1109.0121"
         id="rect3223"
         style="fill:#febe0b;fill-opacity:1;stroke:none" />
      <path
         d="m 777.51718,1110.3439 c -0.93717,0 -1.69776,0.7581 -1.69776,1.6923 0,0.01 7.3e-4,0.013 8.1e-4,0.019 l 0.9762,0 c -1.5e-4,-0.01 -8e-4,-0.013 -8e-4,-0.019 0,-0.397 0.32329,-0.7193 0.72155,-0.7193 0.3983,0 0.72155,0.3223 0.72155,0.7193 0,0.1922 -0.17704,0.4734 -0.19915,0.4954 l -2.31893,3.1236 0,0.5109 3.29107,0 0,-0.9698 -1.72552,0 1.63738,-2.2114 c 0.1841,-0.2706 0.29137,-0.5973 0.29137,-0.9487 0,-0.9342 -0.7606,-1.6925 -1.69777,-1.6923 z"
         id="path3327"
         style="fill:#000000;fill-opacity:1;stroke:none" />
      <path
         d="m 782.37467,1110.3439 c -0.85977,0 -1.56319,0.6688 -1.61735,1.5122 l 0.93543,0 c 0.068,-0.313 0.34778,-0.5477 0.68192,-0.5477 0.38497,0 0.69733,0.3114 0.69733,0.6952 0,0.3836 -0.31236,0.695 -0.69733,0.695 -0.0848,0 -0.16597,-0.015 -0.24118,-0.043 l 0,0.758 c 0.0769,-0.021 0.15764,-0.032 0.24118,-0.032 0.50405,0 0.91308,0.4076 0.91308,0.91 0,0.5025 -0.40903,0.9102 -0.91308,0.9102 -0.46641,0 -0.85126,-0.3493 -0.90616,-0.7996 l -0.957,0 c 0.05,0.982 0.86556,1.7642 1.86316,1.7642 1.02979,0 1.86546,-0.8329 1.86546,-1.8593 l 0,-9e-4 c 0,-0.5334 -0.22584,-1.0131 -0.58714,-1.3523 0.21473,-0.2744 0.34289,-0.6186 0.34289,-0.9932 0,-0.892 -0.72615,-1.6165 -1.62121,-1.6165 z"
         id="path3329"
         style="fill:#000000;fill-opacity:1;stroke:none" />
      <path
         d="m 773.19759,1110.3439 -2.4377,3.4117 0,0.97 2.45077,0 0,1.4405 0.97344,0 0,-1.4405 0.52919,0 0.18621,-0.9717 -0.7154,0 0,-3.3791 -0.0351,0 0.022,-0.031 -0.97345,0 z m 0.0131,1.3434 0,2.0666 -1.47649,0 1.47649,-2.0666 z"
         id="path3331"
         style="fill:#000000;fill-opacity:1;stroke:none" />
    </g>
    <path
       d="m -2576.7438,1267.5478 c -53.2667,0 -96.4983,42.8544 -96.4983,95.6576 2e-4,52.8032 43.2315,95.6576 96.4983,95.6576 53.267,0 96.4982,-42.8544 96.4982,-95.6576 2e-4,-52.8026 -43.2314,-95.6576 -96.4982,-95.6576 z m 0,30.6702 c 36.1899,0 65.5622,29.113 65.5622,64.9874 10e-5,35.8749 -29.3724,64.9874 -65.5622,64.9874 -36.1896,5e-4 -65.5621,-29.1125 -65.5622,-64.9874 1e-4,-35.8744 29.3724,-64.9874 65.5622,-64.9874 z"
       id="path5889"
       style="fill:#ffffff;fill-opacity:1;stroke:none" />
    <path
       d="m -2006.1525,1331.3195 c -35.3173,0 -63.9867,28.5728 -63.9867,63.7717 0,35.199 28.6694,63.7718 63.9867,63.7718 12.3552,0 20.0949,-1.1541 30.5181,-3.5099 l 14.7464,-30.5385 c -29.3701,1.8817 -60.3475,14.1768 -76.9302,-18.2314 l 83.9954,-0.2766 0,-47.8539 c -11.5754,-16.4039 -30.6915,-27.1329 -52.3297,-27.1329 z m 0,30.201 c 14.5908,0 27.013,9.2623 31.6901,22.2046 l -63.3803,0 c 4.6759,-12.9423 17.0987,-22.2046 31.6902,-22.2046 z"
       id="path5894"
       style="fill:#ffffff;fill-opacity:1;stroke:none" />
    <path
       d="m -2140.3419,1267.5478 32.4053,0 0,191.3152 -32.4053,0 0,-191.3152 z"
       id="path5896"
       style="fill:#ffffff;fill-opacity:1;stroke:none" />
    <path
       d="m -2456.435,1522.6347 0,-191.3152 32.3835,0 0,8.4576 c 9.4271,-5.3866 20.3431,-8.4576 31.9808,-8.4576 35.574,0 64.4448,28.7775 64.4448,64.2355 0,35.4584 -28.8708,64.2359 -64.4448,64.2359 -11.6377,0 -22.5537,-3.0984 -31.9808,-8.4845 l 0,71.3283 -32.3835,0 z m 65.3311,-95.3902 c 17.6596,0 32.0073,-14.3016 32.0073,-31.9038 0,-17.6017 -14.3477,-31.8769 -32.0073,-31.8769 -17.6589,0 -31.9807,14.2752 -31.9807,31.8769 0,17.6022 14.3218,31.9038 31.9807,31.9038 z"
       id="path5898"
       style="fill:#ffffff;fill-opacity:1;stroke:none" />
    <path
       d="m -2239.7438,1331.3195 c -35.4106,0 -64.1493,28.5698 -64.1493,63.7717 0,35.202 28.7387,63.7718 64.1493,63.7718 35.4105,0 64.1498,-28.5698 64.1498,-63.7718 0,-35.2019 -28.7393,-63.7717 -64.1498,-63.7717 z m 0.9627,32.3108 c 17.5781,0 31.8605,14.1987 31.8605,31.6731 0,17.4751 -14.2824,31.6469 -31.8605,31.6469 -17.5788,0 -31.8343,-14.1718 -31.8343,-31.6469 0,-17.4744 14.2555,-31.6731 31.8343,-31.6731 z"
       id="path5900"
       style="fill:#ffffff;fill-opacity:1;stroke:none" />
    <g
       transform="matrix(21.98635,0,0,21.99026,-19592.121,-22708.028)"
       id="g4767">
      <g
         id="g4746">
        <g
           id="g4791">
          <path
             d="m 830.02363,1131.6067 -2.0644,1.2643 -2.0694,1.2693 0,-1.4422 -5.2252,0 0,-2.1829 5.2252,0 0,-1.4471 2.0694,1.2693 2.0644,1.2693 z"
             id="path3499"
             style="fill:#ffffff;fill-opacity:1;stroke:none" />
          <g
             transform="translate(-43.5102,5.670571)"
             id="g3396">
            <g
               transform="translate(134.2857,-4.285714)"
               id="g3398">
              <rect
                 width="20.784559"
                 height="8.931922"
                 rx="0.70679677"
                 ry="0.85288292"
                 x="640.17151"
                 y="1125.7534"
                 id="rect3400"
                 style="fill:#000000;fill-opacity:1;stroke:none" />
              <rect
                 width="20.282804"
                 height="8.4858761"
                 rx="0.65195912"
                 ry="0.67818791"
                 x="640.42236"
                 y="1125.9764"
                 id="rect3402"
                 style="fill:#febe0b;fill-opacity:1;stroke:none" />
            </g>
            <g
               transform="translate(29.68471,14.06375)"
               id="g3404">
              <path
                 d="m 759.65931,1114.7811 c 0.52068,-0.8995 1.47809,-2.3586 1.47809,-2.3586 0.44594,-0.6402 0.69128,-1.094 0.69128,-1.6014 0,-1.028 -0.86794,-1.8622 -1.89859,-1.8622 -1.03062,0 -1.86707,0.8342 -1.86707,1.8622 0,1.0048 0.79928,1.8241 1.79782,1.8606 l -1.30351,2.0994 1.10198,0 z m 0.27078,-3.0179 c -0.52139,0 -0.94455,-0.4221 -0.94455,-0.9421 0,-0.52 0.42316,-0.942 0.94455,-0.942 0.52141,0 0.94458,0.422 0.94458,0.942 0,0.52 -0.42317,0.9421 -0.94458,0.9421 z"
                 id="path3406"
                 style="fill:#000000;fill-opacity:1;stroke:none" />
              <path
                 d="m 755.27276,1108.9589 c -1.03778,0.032 -1.86482,1.0681 -1.86482,2.3494 l 0,1.1235 c 0,1.3015 0.8537,2.3493 1.91458,2.3493 1.06089,0 1.91458,-1.0478 1.91458,-2.3493 l 0,-1.1235 c 0,-1.3015 -0.85369,-2.3494 -1.91458,-2.3494 -0.0166,0 -0.0333,-4e-4 -0.0498,0 z m 0.0498,0.9667 c 0.52594,0 0.94955,0.7001 0.94955,1.569 l 0,0.7501 c 0,0.8689 -0.42361,1.5691 -0.94955,1.5691 -0.52593,0 -0.94954,-0.7002 -0.94954,-1.5691 l 0,-0.7501 c 0,-0.8689 0.42361,-1.569 0.94954,-1.569 z"
                 id="path3408"
                 style="fill:#000000;fill-opacity:1;stroke:none" />
              <path
                 d="m 750.93858,1108.9589 -2.4377,3.4117 0,0.97 2.45077,0 0,1.4405 0.97344,0 0,-1.4405 0.52919,0 0.18621,-0.9717 -0.7154,0 0,-3.3791 -0.0351,0 0.022,-0.031 -0.97345,0 z m 0.0131,1.3434 0,2.0666 -1.47649,0 1.47649,-2.0666 z"
                 id="path3410"
                 style="fill:#000000;fill-opacity:1;stroke:none" />
            </g>
          </g>
          <path
             d="m 757.32053,1127.3702 c -0.0548,-2e-4 -0.11065,4e-4 -0.1675,0 -1.27267,0 -2.32936,1.03 -2.32936,2.2991 0,0.7338 0.34711,1.406 0.88448,1.827 0,0 0.96784,0.5884 1.06559,0.6407 1.48699,0.7717 1.63234,1.4201 1.31906,1.9892 -0.97586,1.0092 -2.36451,0.4649 -3.53987,0.096 l -0.5079,1.3575 c 0.97622,0.3493 1.92889,0.4885 3.06004,0.4885 1.38411,0 2.5069,-1.1202 2.5069,-2.5003 0,-0.834 -0.41112,-1.573 -1.04109,-2.0273 -0.6829,-0.3741 -1.38088,-0.7857 -2.06517,-1.1799 -0.14439,-0.097 -0.35671,-0.5015 -0.28608,-0.89 0.0707,-0.3884 0.39054,-0.619 0.56858,-0.6633 0.78405,-0.1174 1.58561,0.072 2.33399,0.2972 l 0.40833,-1.4038 c -0.7605,-0.136 -1.38629,-0.3285 -2.21,-0.3326 z"
             id="path4358"
             style="fill:#ffffff;fill-opacity:1;stroke:none" />
          <path
             d="m 804.26761,1127.3702 c -2.41778,0 -4.38007,1.9488 -4.38007,4.35 0,2.4012 1.96229,4.35 4.38007,4.35 2.41777,0 4.38006,-1.9488 4.38006,-4.35 0,-2.4012 -1.96229,-4.35 -4.38006,-4.35 z m 0,1.3948 c 1.64262,0 2.9759,1.3238 2.9759,2.9552 0,1.6314 -1.33328,2.9553 -2.9759,2.9553 -1.64264,0 -2.97591,-1.3239 -2.97591,-2.9553 0,-1.6314 1.33327,-2.9552 2.97591,-2.9552 z"
             id="path4360"
             style="fill:#ffffff;fill-opacity:1;stroke:none" />
          <path
             d="m 792.75051,1130.2702 c -1.60304,0 -2.90431,1.2994 -2.90431,2.9 0,1.6007 1.30127,2.9 2.90431,2.9 0.56083,0 0.91214,-0.053 1.38524,-0.1596 l 0.6693,-1.3887 c -1.33309,0.086 -2.73909,0.6447 -3.49182,-0.8291 l 3.81252,-0.013 0,-2.1761 c -0.52534,-0.746 -1.39309,-1.2339 -2.37524,-1.2339 z m 0,1.3734 c 0.66224,0 1.22612,0.4212 1.43844,1.0097 l -2.87686,0 c 0.21232,-0.5885 0.77611,-1.0097 1.43842,-1.0097 z"
             id="path4362"
             style="fill:#ffffff;fill-opacity:1;stroke:none" />
          <path
             d="m 781.11755,1127.3702 1.47086,0 0,8.7 -1.47086,0 0,-8.7 z"
             id="path4364"
             style="fill:#ffffff;fill-opacity:1;stroke:none" />
          <path
             d="m 809.30607,1138.9702 0,-8.7 1.4699,0 0,0.3846 c 0.42795,-0.2449 0.92337,-0.3846 1.45159,-0.3846 1.61464,0 2.92516,1.3087 2.92516,2.9211 0,1.6124 -1.31052,2.9211 -2.92516,2.9211 -0.52822,0 -1.02364,-0.1409 -1.45159,-0.3858 l 0,3.2436 -1.4699,0 z m 2.96535,-4.3378 c 0.80156,0 1.45281,-0.6504 1.45281,-1.4508 0,-0.8005 -0.65125,-1.4496 -1.45281,-1.4496 -0.80157,0 -1.4516,0.6491 -1.4516,1.4496 0,0.8004 0.65003,1.4508 1.4516,1.4508 z"
             id="path4366"
             style="fill:#ffffff;fill-opacity:1;stroke:none" />
          <path
             d="m 767.70969,1130.5398 0,-0.2696 -1.44079,0 0,5.8 1.44079,0 0,-3.7591 c 0.34789,-0.4204 0.90288,-0.6318 1.4433,-0.6107 l 0,-1.4302 c -0.64113,0.021 -1.15313,0.082 -1.4433,0.2696 z"
             id="path4368"
             style="fill:#ffffff;fill-opacity:1;stroke:none" />
          <path
             d="m 763.40897,1127.3702 -1.44671,1.4334 0,1.4164 -1.1227,0 0,1.448 1.1227,0 0,1.878 c -0.0202,1.3867 0.73425,2.4681 2.18471,2.5242 l 0.73426,-1.4392 c -0.41104,0 -0.45211,0 -0.95887,0 -0.19557,0 -0.51339,-0.3812 -0.51339,-0.5846 0,-0.735 0,-2.3784 0,-2.3784 l 1.12034,0 0,-1.448 -1.12034,0 0,-2.8498 z"
             id="path4370"
             style="fill:#ffffff;fill-opacity:1;stroke:none" />
          <path
             d="m 769.73456,1130.2702 0,1.4404 1.98924,0 -1.98924,3.6455 0,0.7141 3.94933,0 0,-1.4403 -2.00744,0 2.00744,-3.7434 0,-0.6163 -3.94933,0 z"
             id="path4372"
             style="fill:#ffffff;fill-opacity:1;stroke:none" />
          <path
             d="m 786.71796,1130.2702 c -1.60304,0 -2.90431,1.2994 -2.90431,2.9 0,1.6007 1.30127,2.9 2.90431,2.9 0.69869,0 1.34025,-0.2465 1.84153,-0.6575 l -0.6448,-1.2819 c -0.28154,0.3492 -0.71324,0.5729 -1.19673,0.5729 -0.8476,0 -1.53582,-0.6872 -1.53582,-1.5335 0,-0.8463 0.68822,-1.5335 1.53582,-1.5335 0.43545,0 0.82782,0.1823 1.10745,0.4735 l 0.52795,-1.3368 c -0.46587,-0.3176 -1.02923,-0.5032 -1.6354,-0.5032 z"
             id="path4374"
             style="fill:#ffffff;fill-opacity:1;stroke:none" />
          <path
             d="m 777.28846,1130.2702 c -1.60304,0 -2.90432,1.2994 -2.90432,2.9 0,1.6007 1.30128,2.9 2.90432,2.9 0.56074,0 0.91204,-0.053 1.38523,-0.1596 l 0.6693,-1.3887 c -1.33309,0.086 -2.73917,0.6447 -3.49182,-0.8291 l 3.81252,-0.013 0,-2.1761 c -0.52543,-0.746 -1.39309,-1.2339 -2.37523,-1.2339 z m 0,1.3734 c 0.66224,0 1.22611,0.4212 1.43842,1.0097 l -2.87685,0 c 0.21224,-0.5885 0.77611,-1.0097 1.43843,-1.0097 z"
             id="path4376"
             style="fill:#ffffff;fill-opacity:1;stroke:none" />
          <rect
             width="1.4485484"
             height="1.449993"
             x="815.31921"
             y="1134.6202"
             id="rect4378"
             style="fill:#ffffff;fill-opacity:1;stroke:none" />
        </g>
      </g>
    </g>
    <g
       transform="matrix(21.98635,0,0,21.99026,-19592.121,-22710.805)"
       id="g4677"
       style="fill:#ffffff">
      <g
         id="g4716">
        <g
           id="g4815">
          <path
             d="m 731.39149,1111.9791 2.0644,1.2643 2.0694,1.2693 0,-1.4422 5.2252,0 0,-2.1829 -5.2252,0 0,-1.4471 -2.0694,1.2693 -2.0644,1.2693 z"
             id="path3497"
             style="fill:#ffffff;fill-opacity:1;stroke:none" />
          <path
             d="m 828.64769,1110.6427 c -1.60447,0 -2.90693,1.2993 -2.90693,2.9 0,1.6006 1.30246,2.8999 2.90693,2.8999 0.5613,0 0.91291,-0.052 1.38647,-0.1596 l 0.6699,-1.3887 c -1.33429,0.086 -2.74159,0.6447 -3.49496,-0.8291 l 3.81593,-0.013 0,-2.176 c -0.52584,-0.746 -1.39431,-1.2339 -2.37734,-1.2339 z m 0,1.3734 c 0.66285,0 1.22721,0.4211 1.43971,1.0096 l -2.87944,0 c 0.21246,-0.5885 0.77684,-1.0096 1.43973,-1.0096 z"
             id="path4651"
             style="fill:#ffffff;fill-opacity:1;stroke:none" />
          <g
             transform="translate(-28.39286,-13.95703)"
             id="g3387">
            <g
               transform="translate(134.2857,-4.285714)"
               id="g3360">
              <rect
                 width="20.784559"
                 height="8.931922"
                 rx="0.70679677"
                 ry="0.85288292"
                 x="640.17151"
                 y="1125.7534"
                 id="rect3233"
                 style="fill:#000000;fill-opacity:1;stroke:none" />
              <rect
                 width="20.282804"
                 height="8.4858761"
                 rx="0.65195912"
                 ry="0.67818791"
                 x="640.42236"
                 y="1125.9764"
                 id="rect3235"
                 style="fill:#febe0b;fill-opacity:1;stroke:none" />
            </g>
            <g
               transform="translate(29.68471,14.06375)"
               id="g3382">
              <path
                 d="m 759.65931,1114.7811 c 0.52068,-0.8995 1.47809,-2.3586 1.47809,-2.3586 0.44594,-0.6402 0.69128,-1.094 0.69128,-1.6014 0,-1.028 -0.86794,-1.8622 -1.89859,-1.8622 -1.03062,0 -1.86707,0.8342 -1.86707,1.8622 0,1.0048 0.79928,1.8241 1.79782,1.8606 l -1.30351,2.0994 1.10198,0 z m 0.27078,-3.0179 c -0.52139,0 -0.94455,-0.4221 -0.94455,-0.9421 0,-0.52 0.42316,-0.942 0.94455,-0.942 0.52141,0 0.94458,0.422 0.94458,0.942 0,0.52 -0.42317,0.9421 -0.94458,0.9421 z"
                 id="path3333"
                 style="fill:#000000;fill-opacity:1;stroke:none" />
              <path
                 d="m 755.27276,1108.9589 c -1.03778,0.032 -1.86482,1.0681 -1.86482,2.3494 l 0,1.1235 c 0,1.3015 0.8537,2.3493 1.91458,2.3493 1.06089,0 1.91458,-1.0478 1.91458,-2.3493 l 0,-1.1235 c 0,-1.3015 -0.85369,-2.3494 -1.91458,-2.3494 -0.0166,0 -0.0333,-4e-4 -0.0498,0 z m 0.0498,0.9667 c 0.52594,0 0.94955,0.7001 0.94955,1.569 l 0,0.7501 c 0,0.8689 -0.42361,1.5691 -0.94955,1.5691 -0.52593,0 -0.94954,-0.7002 -0.94954,-1.5691 l 0,-0.7501 c 0,-0.8689 0.42361,-1.569 0.94954,-1.569 z"
                 id="path3335"
                 style="fill:#000000;fill-opacity:1;stroke:none" />
              <path
                 d="m 750.93858,1108.9589 -2.4377,3.4117 0,0.97 2.45077,0 0,1.4405 0.97344,0 0,-1.4405 0.52919,0 0.18621,-0.9717 -0.7154,0 0,-3.3791 -0.0351,0 0.022,-0.031 -0.97345,0 z m 0.0131,1.3434 0,2.0666 -1.47649,0 1.47649,-2.0666 z"
                 id="path3373"
                 style="fill:#000000;fill-opacity:1;stroke:none" />
            </g>
          </g>
          <path
             d="m 770.08583,1107.7426 0,8.7 1.47033,0 0,-2.9345 0.67055,-0.7546 2.52251,3.6891 1.92996,0 -3.47223,-4.7918 3.47223,-3.9082 -1.92874,0 -3.19428,3.5942 0,-3.5942 -1.47033,0 z"
             id="path4647"
             style="fill:#ffffff;fill-opacity:1;stroke:none" />
          <path
             d="m 784.21169,1110.6426 c -1.60353,0 -2.90494,1.2988 -2.90494,2.8994 0,1.6005 1.30141,2.8993 2.90494,2.8993 0.62716,0 1.20755,-0.1999 1.68249,-0.5376 l 0.14161,0.5389 1.44279,0 -0.37644,-1.4159 0,-1.1888 c 0.01,-0.097 0.0145,-0.1959 0.0145,-0.2959 0,-0.1001 -0.005,-0.1986 -0.0145,-0.296 l 0,-2.6023 -1.44281,0 0,0.3854 c -0.42634,-0.2452 -0.9205,-0.3865 -1.44764,-0.3865 z m 0.0436,1.469 c 0.68235,0 1.25443,0.4743 1.40405,1.1102 l 0,0.6597 c -0.14962,0.6356 -0.7217,1.109 -1.40405,1.109 -0.79603,0 -1.44159,-0.6444 -1.44159,-1.4388 0,-0.7946 0.64556,-1.4401 1.44159,-1.4401 z"
             id="path4649"
             style="fill:#ffffff;fill-opacity:1;stroke:none" />
          <path
             d="m 817.00879,1107.7426 0,1.4691 1.47334,0 0,-1.4691 -1.47334,0 z m 0.01,2.8628 0,5.8372 1.45382,0 0,-5.8372 -1.45382,0 z"
             id="path4653"
             style="fill:#ffffff;fill-opacity:1;stroke:none" />
          <path
             d="m 795.45596,1107.7426 0,8.7 1.4696,0 0,-2.2115 0.44968,0 1.75723,2.2115 1.61828,0 -2.06187,-2.8456 1.97169,-2.9211 -1.6183,0 -1.56466,2.1043 -0.55205,0 0,-5.0376 -1.4696,0 z"
             id="path4655"
             style="fill:#ffffff;fill-opacity:1;stroke:none" />
          <path
             d="m 788.69619,1119.3426 0,-8.7 1.47119,0 0,0.3846 c 0.42827,-0.245 0.92418,-0.3846 1.4529,-0.3846 1.61613,0 2.92776,1.3086 2.92776,2.9211 0,1.6124 -1.31163,2.9211 -2.92776,2.9211 -0.52872,0 -1.02463,-0.1409 -1.4529,-0.3858 l 0,3.2436 -1.47119,0 z m 2.968,-4.3378 c 0.80228,0 1.45413,-0.6504 1.45413,-1.4509 0,-0.8004 -0.65185,-1.4496 -1.45413,-1.4496 -0.80226,0 -1.45289,0.6492 -1.45289,1.4496 0,0.8005 0.65063,1.4509 1.45289,1.4509 z"
             id="path4657"
             style="fill:#ffffff;fill-opacity:1;stroke:none" />
          <path
             d="m 778.76289,1110.9121 0,-0.2695 -1.44212,0 0,5.8 1.44212,0 0,-3.7591 c 0.34821,-0.4204 0.90364,-0.632 1.44456,-0.6107 l 0,-1.4302 c -0.64168,0.021 -1.1541,0.082 -1.44456,0.2695 z"
             id="path4659"
             style="fill:#ffffff;fill-opacity:1;stroke:none" />
          <path
             d="m 808.02409,1110.6426 1.41458,5.8 1.44612,0 1.07487,-3.4679 1.07489,3.4679 1.44609,0 1.41457,-5.8 -1.4461,0 -0.77766,3.1888 -0.98874,-3.1888 -1.4461,0 -0.98875,3.1888 -0.77764,-3.1888 -1.44613,0 z"
             id="path4661"
             style="fill:#ffffff;fill-opacity:1;stroke:none" />
          <path
             d="m 823.02113,1110.6427 c -1.60449,0 -2.90694,1.2993 -2.90694,2.9 0,1.6006 1.30245,2.8999 2.90694,2.8999 0.69929,0 1.34143,-0.2464 1.8432,-0.6574 l -0.64537,-1.282 c -0.28184,0.3493 -0.71392,0.5729 -1.19783,0.5729 -0.84833,0 -1.53715,-0.6872 -1.53715,-1.5334 0,-0.8463 0.68882,-1.5336 1.53715,-1.5336 0.4358,0 0.82856,0.1824 1.10845,0.4735 l 0.52841,-1.3368 c -0.46624,-0.3176 -1.03017,-0.5031 -1.63686,-0.5031 z"
             id="path4663"
             style="fill:#ffffff;fill-opacity:1;stroke:none" />
          <path
             d="m 803.88021,1110.6426 c -1.60871,0 -2.91435,1.2992 -2.91435,2.9001 0,1.6008 1.30564,2.8999 2.91435,2.8999 1.60872,0 2.91434,-1.2991 2.91434,-2.8999 0,-1.6009 -1.30562,-2.9001 -2.91434,-2.9001 z m 0.0437,1.4693 c 0.79859,0 1.44745,0.6457 1.44745,1.4404 0,0.7947 -0.64886,1.4391 -1.44745,1.4391 -0.79859,0 -1.44624,-0.6444 -1.44624,-1.4391 0,-0.7947 0.64765,-1.4404 1.44624,-1.4404 z"
             id="path4665"
             style="fill:#ffffff;fill-opacity:1;stroke:none" />
        </g>
      </g>
    </g>
    <g
       transform="matrix(2.8206593,0,0,2.8206593,-1475.2888,-3038.171)"
       id="g4241">
      <rect
         width="879.5"
         height="475.35715"
         rx="12.240599"
         ry="12.240599"
         x="-772.06067"
         y="1471.0316"
         id="rect4134"
         style="fill:#ffffff;stroke:#2c5c32;stroke-width:5;stroke-linecap:round;stroke-linejoin:round;stroke-miterlimit:4;stroke-opacity:1;stroke-dasharray:none;stroke-dashoffset:0" />
      <rect
         width="861.05072"
         height="457.8548"
         rx="4.992754"
         ry="4.992754"
         x="-762.54889"
         y="1479.7297"
         id="rect4136"
         style="fill:#2c5c32;fill-opacity:1;stroke:none" />
      <path
         d="m -682.55476,1515.5902 -11.63155,18.9952 -11.67684,19.138 13.26733,0 0,47.9823 18.94035,0 0,-47.9823 14.45439,0 -11.67684,-19.138 -11.67684,-18.9952 z"
         id="path4138"
         style="fill:#ffffff;fill-opacity:1;stroke:none" />
      <path
         d="m -725.58987,1697.5666 18.99526,11.6315 19.138,11.6769 0,-13.2674 47.98225,0 0,-18.9403 -47.98225,0 0,-14.4544 -19.138,11.6768 -18.99526,11.6769 z"
         id="path4140"
         style="fill:#ffffff;fill-opacity:1;stroke:none" />
      <rect
         width="153.02097"
         height="77.029678"
         rx="4.992754"
         ry="4.992754"
         x="-608.02057"
         y="1520.1359"
         id="rect4142"
         style="fill:#febe0b;fill-opacity:1;stroke:#000000;stroke-width:3;stroke-linecap:round;stroke-linejoin:round;stroke-miterlimit:4;stroke-opacity:1;stroke-dasharray:none;stroke-dashoffset:0" />
      <g
         id="text4144"
         style="font-size:63.65909958px;font-style:normal;font-variant:normal;font-weight:bold;font-stretch:normal;text-align:start;line-height:125%;writing-mode:lr-tb;text-anchor:start;fill:#000000;fill-opacity:1;stroke:none;font-family:Drogowskaz;-inkscape-font-specification:Drogowskaz Bold">
        <path
           d="m -570.11185,1534.8564 -19.89355,27.851 0,7.9574 19.89355,0 0,11.9362 7.95742,0 0,-11.9362 3.9787,0 1.98936,-7.9574 -5.96806,0 0,-27.851 -7.95742,0 z m 0,27.851 -11.93613,0 11.93613,-16.71 0,16.71 z"
           id="path4235" />
        <path
           d="m -522.36739,1574.6435 -13.84551,0 12.93081,-17.3521 c 0.91737,-1.1841 1.62893,-2.4961 2.13466,-3.936 0.50567,-1.4399 0.76213,-2.9644 0.7694,-4.5735 -0.0998,-3.9432 -1.45989,-7.2249 -4.08017,-9.8453 -2.62034,-2.6203 -5.90211,-3.9803 -9.84531,-4.0802 -3.94325,0.1 -7.22502,1.4599 -9.84532,4.0802 -2.62032,2.6204 -3.98037,5.9021 -4.08016,9.8453 l 7.95741,0 c 0.0428,-1.6899 0.62564,-3.0964 1.74864,-4.2194 1.12298,-1.1229 2.52945,-1.7058 4.21943,-1.7486 1.68993,0.043 3.0964,0.6257 4.21941,1.7486 1.12297,1.123 1.70585,2.5295 1.74865,4.2194 0.0102,0.6567 -0.0689,1.2609 -0.23727,1.8128 -0.16842,0.5519 -0.4874,1.1413 -0.95694,1.7681 l -18.69933,25.0163 0,5.2219 25.8616,0 0,-7.9575 z"
           id="path4237" />
        <path
           d="m -498.09751,1559.9743 c 0.63769,-0.1655 1.30081,-0.2492 1.98936,-0.2509 2.25325,0.057 4.12855,0.8342 5.62589,2.3315 1.4973,1.4973 2.27447,3.3726 2.33153,5.6259 -0.0571,2.2533 -0.83423,4.1286 -2.33153,5.6259 -1.49734,1.4973 -3.37264,2.2745 -5.62589,2.3315 -2.2533,-0.057 -4.12859,-0.8342 -5.6259,-2.3315 -1.49733,-1.4973 -2.2745,-3.3726 -2.33152,-5.6259 l -7.95742,0 c 0.11406,4.5306 1.6684,8.288 4.66305,11.2724 2.99463,2.9843 6.74522,4.5318 11.25179,4.6424 4.50653,-0.1106 8.25712,-1.6581 11.25179,-4.6424 2.9946,-2.9844 4.54895,-6.7418 4.66304,-11.2724 -0.0142,-2.2637 -0.44184,-4.3821 -1.28279,-6.3552 -0.84103,-1.9731 -2.01019,-3.7016 -3.50747,-5.1855 0.89028,-1.1736 1.57812,-2.4654 2.06354,-3.8755 0.48536,-1.4101 0.73115,-2.9025 0.73737,-4.4774 -0.10157,-3.931 -1.46511,-7.2092 -4.09061,-9.8348 -2.62556,-2.6255 -5.90385,-3.989 -9.83487,-4.0906 -3.93107,0.1016 -7.20935,1.4651 -9.83487,4.0906 -2.62555,2.6256 -3.98908,5.9038 -4.09061,9.8348 l 7.95742,0 c 0.0435,-1.6846 0.62787,-3.0896 1.75311,-4.2149 1.12521,-1.1252 2.53019,-1.7096 4.21495,-1.7531 1.68471,0.043 3.08969,0.6279 4.21494,1.7531 1.12521,1.1253 1.70958,2.5303 1.75312,4.2149 -0.0435,1.6848 -0.62791,3.0898 -1.75312,4.215 -1.12525,1.1253 -2.53023,1.7096 -4.21494,1.7531 -0.69999,0 -1.36311,-0.1176 -1.98936,-0.3429 l 0,6.5619 z"
           id="path4239" />
      </g>
      <rect
         width="153.02097"
         height="77.029678"
         rx="4.992754"
         ry="4.992754"
         x="-608.02057"
         y="1658.1359"
         id="rect4148"
         style="fill:#febe0b;fill-opacity:1;stroke:#000000;stroke-width:3;stroke-linecap:round;stroke-linejoin:round;stroke-miterlimit:4;stroke-opacity:1;stroke-dasharray:none;stroke-dashoffset:0" />
      <g
         id="text4150"
         style="font-size:63.65909958px;font-style:normal;font-variant:normal;font-weight:bold;font-stretch:normal;text-align:start;line-height:125%;writing-mode:lr-tb;text-anchor:start;fill:#000000;fill-opacity:1;stroke:none;font-family:Drogowskaz;-inkscape-font-specification:Drogowskaz Bold">
        <path
           d="m -567.0814,1671.8666 -19.89354,27.8509 0,7.9575 19.89354,0 0,11.9361 7.95742,0 0,-11.9361 3.97871,0 1.98936,-7.9575 -5.96807,0 0,-27.8509 -7.95742,0 z m 0,27.8509 -11.93612,0 11.93612,-16.7099 0,16.7099 z"
           id="path4228" />
        <path
           d="m -540.52366,1695.7388 c 0.003,-2.07 0.17568,-4.0919 0.51782,-6.0657 0.34212,-1.9737 0.83528,-3.8867 1.4795,-5.7389 0.43614,-1.2144 1.18542,-2.1974 2.24784,-2.9492 1.06239,-0.7517 2.29981,-1.1387 3.71226,-1.161 1.41242,0.022 2.64983,0.4093 3.71226,1.161 1.06238,0.7518 1.81166,1.7348 2.24785,2.9492 0.64417,1.8522 1.13734,3.7652 1.47949,5.7389 0.34211,1.9738 0.51471,3.9957 0.51782,6.0657 -0.003,2.0701 -0.17571,4.092 -0.51782,6.0658 -0.34215,1.9737 -0.83532,3.8867 -1.47949,5.7389 -0.43618,1.2144 -1.18547,2.1974 -2.24785,2.9492 -1.06243,0.7517 -2.29985,1.1387 -3.71226,1.161 -1.41245,-0.022 -2.64987,-0.4093 -3.71226,-1.161 -1.06242,-0.7518 -1.8117,-1.7348 -2.24784,-2.9492 -0.64422,-1.8522 -1.13738,-3.7652 -1.4795,-5.7389 -0.34214,-1.9738 -0.51475,-3.9957 -0.51782,-6.0658 z m -7.95741,0 c 0.0159,2.5779 0.28082,5.0951 0.79462,7.5516 0.5138,2.4566 1.18081,4.8355 2.00105,7.1367 1.01877,2.7263 2.69479,4.9265 5.02807,6.6008 2.33325,1.6743 5.03028,2.5353 8.09109,2.5832 3.06078,-0.048 5.75781,-0.9089 8.09112,-2.5832 2.33325,-1.6743 4.00927,-3.8745 5.02808,-6.6008 0.82017,-2.3012 1.48717,-4.6801 2.001,-7.1367 0.51377,-2.4565 0.77865,-4.9737 0.79464,-7.5516 -0.016,-2.5778 -0.28087,-5.095 -0.79464,-7.5515 -0.51383,-2.4565 -1.18083,-4.8355 -2.001,-7.1368 -1.01881,-2.7262 -2.69483,-4.9264 -5.02808,-6.6007 -2.33331,-1.6742 -5.03034,-2.5353 -8.09112,-2.5832 -3.06081,0.048 -5.75784,0.909 -8.09109,2.5832 -2.33328,1.6743 -4.0093,3.8745 -5.02807,6.6007 -0.82024,2.3013 -1.48725,4.6803 -2.00105,7.1368 -0.5138,2.4565 -0.77868,4.9737 -0.79462,7.5515 z"
           id="path4230" />
        <path
           d="m -494.09724,1695.7388 c -2.24633,-0.052 -4.11964,-0.8185 -5.61993,-2.3002 -1.50032,-1.4816 -2.27948,-3.3673 -2.33749,-5.6572 0.058,-2.2939 0.83718,-4.1962 2.3375,-5.7069 1.50028,-1.5107 3.37359,-2.294 5.61992,-2.35 2.24629,0.056 4.1196,0.8393 5.61993,2.35 1.50027,1.5107 2.27944,3.413 2.33749,5.7069 -0.0581,2.2899 -0.83721,4.1756 -2.33749,5.6572 -1.50033,1.4817 -3.37364,2.2484 -5.61993,2.3002 z m 0,-23.8722 c -4.49264,0.1161 -8.23925,1.6744 -11.23985,4.675 -3.00062,3.0006 -4.55894,6.7472 -4.67498,11.2398 0.11407,4.4658 1.65601,8.196 4.62584,11.1905 2.96981,2.9946 6.68303,4.5692 11.13969,4.7237 l -10.59321,17.9048 9.22254,0 15.24552,-25.7634 c 0.70251,-1.1872 1.24206,-2.459 1.61864,-3.8154 0.37651,-1.3564 0.56672,-2.7698 0.57065,-4.2402 -0.11609,-4.4926 -1.67441,-8.2392 -4.67499,-11.2398 -3.00064,-3.0006 -6.74725,-4.5589 -11.23985,-4.675 z"
           id="path4232" />
      </g>
      <rect
         width="153.02097"
         height="77.029678"
         rx="4.992754"
         ry="4.992754"
         x="-720.00024"
         y="1817.1256"
         id="rect4154"
         style="fill:#febe0b;fill-opacity:1;stroke:#000000;stroke-width:3;stroke-linecap:round;stroke-linejoin:round;stroke-miterlimit:4;stroke-opacity:1;stroke-dasharray:none;stroke-dashoffset:0" />
      <g
         id="text4156"
         style="font-size:63.65909958px;font-style:normal;font-variant:normal;font-weight:bold;font-stretch:normal;text-align:start;line-height:125%;writing-mode:lr-tb;text-anchor:start;fill:#000000;fill-opacity:1;stroke:none;font-family:Drogowskaz;-inkscape-font-specification:Drogowskaz Bold">
        <path
           d="m -679.06107,1830.8563 -19.89355,27.851 0,7.9574 19.89355,0 0,11.9361 7.95742,0 0,-11.9361 3.97871,0 1.98935,-7.9574 -5.96806,0 0,-27.851 -7.95742,0 z m 0,27.851 -11.93613,0 11.93613,-16.71 0,16.71 z"
           id="path4221" />
        <path
           d="m -652.50333,1854.7286 c 0.003,-2.07 0.17567,-4.092 0.51781,-6.0658 0.34212,-1.9737 0.83529,-3.8867 1.4795,-5.7389 0.43614,-1.2143 1.18543,-2.1974 2.24784,-2.9492 1.06239,-0.7517 2.29981,-1.1387 3.71227,-1.161 1.41241,0.022 2.64983,0.4093 3.71225,1.161 1.06239,0.7518 1.81167,1.7349 2.24785,2.9492 0.64418,1.8522 1.13734,3.7652 1.4795,5.7389 0.3421,1.9738 0.51471,3.9958 0.51781,6.0658 -0.003,2.07 -0.17571,4.092 -0.51781,6.0657 -0.34216,1.9738 -0.83532,3.8868 -1.4795,5.7389 -0.43618,1.2144 -1.18546,2.1975 -2.24785,2.9492 -1.06242,0.7518 -2.29984,1.1388 -3.71225,1.161 -1.41246,-0.022 -2.64987,-0.4092 -3.71227,-1.161 -1.06242,-0.7517 -1.8117,-1.7348 -2.24784,-2.9492 -0.64421,-1.8521 -1.13738,-3.7651 -1.4795,-5.7389 -0.34214,-1.9737 -0.51474,-3.9957 -0.51781,-6.0657 z m -7.95742,0 c 0.0159,2.5778 0.28082,5.095 0.79463,7.5516 0.51379,2.4565 1.18081,4.8354 2.00105,7.1367 1.01877,2.7262 2.69478,4.9265 5.02806,6.6007 2.33325,1.6743 5.03028,2.5354 8.0911,2.5832 3.06077,-0.048 5.75781,-0.9089 8.09111,-2.5832 2.33325,-1.6742 4.00928,-3.8745 5.02808,-6.6007 0.82017,-2.3013 1.48717,-4.6802 2.00101,-7.1367 0.51376,-2.4566 0.77864,-4.9738 0.79463,-7.5516 -0.016,-2.5778 -0.28086,-5.095 -0.79463,-7.5516 -0.51384,-2.4565 -1.18084,-4.8354 -2.00101,-7.1367 -1.0188,-2.7262 -2.69483,-4.9265 -5.02808,-6.6008 -2.3333,-1.6742 -5.03034,-2.5353 -8.09111,-2.5832 -3.06082,0.048 -5.75785,0.909 -8.0911,2.5832 -2.33328,1.6743 -4.00929,3.8746 -5.02806,6.6008 -0.82024,2.3013 -1.48726,4.6802 -2.00106,7.1367 -0.5138,2.4566 -0.77867,4.9738 -0.79462,7.5516 z"
           id="path4223" />
        <path
           d="m -606.07691,1854.7286 c -2.24634,-0.052 -4.11964,-0.8185 -5.61993,-2.3002 -1.50032,-1.4816 -2.27948,-3.3674 -2.33749,-5.6572 0.058,-2.294 0.83717,-4.1963 2.33749,-5.707 1.50029,-1.5106 3.3736,-2.2939 5.61993,-2.3499 2.24629,0.056 4.11959,0.8393 5.61992,2.3499 1.50028,1.5107 2.27944,3.413 2.33749,5.707 -0.058,2.2898 -0.83721,4.1756 -2.33749,5.6572 -1.50033,1.4817 -3.37363,2.2484 -5.61992,2.3002 z m 0,-23.8723 c -4.49265,0.1161 -8.23926,1.6744 -11.23986,4.675 -3.00061,3.0007 -4.55894,6.7473 -4.67498,11.2399 0.11407,4.4658 1.65602,8.1959 4.62584,11.1905 2.96981,2.9946 6.68304,4.5691 11.13969,4.7236 l -10.59321,17.9049 9.22255,0 15.24552,-25.7634 c 0.70251,-1.1872 1.24205,-2.459 1.61863,-3.8155 0.37651,-1.3563 0.56673,-2.7697 0.57065,-4.2401 -0.11608,-4.4926 -1.67441,-8.2392 -4.67498,-11.2399 -3.00064,-3.0006 -6.74725,-4.5589 -11.23985,-4.675 z"
           id="path4225" />
      </g>
      <g
         transform="translate(-701.44993,1402.8999)"
         id="g4160"
         style="font-size:85.20685577px;font-style:normal;font-variant:normal;font-weight:bold;font-stretch:normal;text-align:start;line-height:125%;writing-mode:lr-tb;text-anchor:start;fill:#000000;fill-opacity:1;stroke:none;font-family:Drogowskaz;-inkscape-font-specification:Drogowskaz Bold">
        <path
           d="m 280.90721,157.52003 c 0.24075,9.51269 3.52175,17.42964 9.843,23.75088 6.32123,6.32125 14.23818,9.60224 23.75087,9.843 9.51262,-0.24076 17.42957,-3.52175 23.75088,-9.84301 6.32118,-6.32123 9.60218,-14.23818 9.843,-23.75087 -0.24082,-9.51262 -3.52182,-17.42957 -9.84301,-23.75087 -6.3213,-6.32119 -14.23825,-9.60218 -23.75087,-9.843 -9.51269,0.24082 -17.42964,3.52182 -23.75087,9.843 -6.32125,6.3213 -9.60225,14.23825 -9.843,23.75087 z m 10.75004,0 c 0.1637,-6.46857 2.39478,-11.8521 6.69324,-16.15059 4.29843,-4.2984 9.68195,-6.52948 16.15059,-6.69324 6.46857,0.16377 11.8521,2.39485 16.15059,6.69324 4.2984,4.29849 6.52948,9.68202 6.69325,16.15059 -0.16377,6.46864 -2.39485,11.85217 -6.69324,16.15059 -4.2985,4.29846 -9.68203,6.52954 -16.1506,6.69325 -6.46864,-0.1637 -11.85216,-2.39478 -16.15059,-6.69324 -4.29847,-4.29843 -6.52954,-9.68196 -6.69324,-16.1506 z"
           id="path4162"
           style="font-size:86px;fill:#ffffff" />
        <path
           d="m 367.45193,168.27007 c 0.0784,-3.09901 1.13097,-5.66894 3.15782,-7.70979 2.02681,-2.0408 4.55755,-3.099 7.59222,-3.17462 3.03461,0.0756 5.56535,1.13382 7.59221,3.17462 2.0268,2.04085 3.0794,4.61078 3.15783,7.70979 -0.0784,3.09906 -1.13103,5.66899 -3.15782,7.7098 -2.02687,2.04084 -4.55761,3.09904 -7.59222,3.17462 -3.03468,-0.0756 -5.56541,-1.13378 -7.59222,-3.17462 -2.02685,-2.04081 -3.07946,-4.61074 -3.15782,-7.7098 z m -10.75004,-21.50008 0,64.50025 10.75004,0 0,-24.39979 c 1.58926,0.92694 3.28823,1.64054 5.09691,2.14081 1.80864,0.50027 3.69301,0.75323 5.65313,0.7589 6.06926,-0.15677 11.13073,-2.26199 15.18443,-6.31565 4.05361,-4.05365 6.15883,-9.11513 6.31565,-15.18444 -0.15682,-6.06926 -2.26204,-11.13074 -6.31565,-15.18443 -4.0537,-4.05362 -9.11517,-6.15883 -15.18443,-6.31565 -1.96012,0.006 -3.84449,0.25867 -5.65313,0.75889 -1.80868,0.5003 -3.50765,1.2139 -5.09691,2.1408 l 0,-2.89969 -10.75004,0 z"
           id="path4164"
           style="font-size:86px;fill:#ffffff" />
        <path
           d="m 410.11594,168.27007 c 0.16371,6.46862 2.39479,11.85214 6.69324,16.15059 4.29844,4.29845 9.68196,6.52953 16.1506,6.69325 6.46857,-0.16372 11.8521,-2.3948 16.15059,-6.69325 4.2984,-4.29845 6.52948,-9.68197 6.69324,-16.15059 -0.16376,-6.46858 -2.39484,-11.85211 -6.69324,-16.15059 -4.29849,-4.29841 -9.68202,-6.52949 -16.15059,-6.69324 -6.46864,0.16376 -11.85216,2.39484 -16.1506,6.69324 -4.29846,4.29848 -6.52953,9.68201 -6.69324,16.15059 z m 10.75004,0 c 0.0867,-3.42453 1.26782,-6.27463 3.54348,-8.55031 2.27563,-2.27562 5.12573,-3.45678 8.55032,-3.54348 3.42452,0.0867 6.27462,1.26786 8.55031,3.54348 2.27561,2.27568 3.45677,5.12578 3.54348,8.55031 -0.0867,3.42458 -1.26787,6.27468 -3.54348,8.55032 -2.27569,2.27566 -5.12579,3.45682 -8.55031,3.54348 -3.42459,-0.0867 -6.27469,-1.26782 -8.55032,-3.54348 -2.27567,-2.27564 -3.45683,-5.12574 -3.54348,-8.55032 z"
           id="path4166"
           style="font-size:86px;fill:#ffffff" />
        <path
           d="m 469.24095,125.26991 0,64.50025 10.75004,0 0,-64.50025 -10.75004,0 z"
           id="path4168"
           style="font-size:86px;fill:#ffffff" />
        <path
           d="m 527.69419,164.23881 -22.84383,0 c 0.85382,-2.39354 2.30396,-4.32518 4.3504,-5.79495 2.04641,-1.4697 4.40358,-2.22556 7.07152,-2.26758 2.66788,0.042 5.02505,0.79789 7.07151,2.26759 2.04639,1.46976 3.49652,3.4014 4.3504,5.79494 z m -22.84383,8.06253 30.23449,0 0,-16.93131 c -2.11926,-3.05981 -4.80117,-5.47297 -8.04574,-7.23949 -3.24464,-1.76643 -6.83358,-2.66787 -10.76683,-2.7043 -6.47805,0.16241 -11.86426,2.3908 -16.15866,6.68518 -4.29443,4.29445 -6.52282,9.68066 -6.68518,16.15865 0.16236,6.47804 2.39075,11.86425 6.68518,16.15866 4.2944,4.29442 9.68062,6.52281 16.15866,6.68518 1.23174,-0.0224 2.39633,-0.11198 3.49376,-0.26875 l 7.25628,-1.075 5.37502,-10.75004 c -1.18423,0.17357 -3.5358,0.43112 -7.05472,0.77265 -3.51899,0.34155 -6.54243,0.53192 -9.07034,0.5711 -2.65619,-0.0336 -4.98984,-0.77265 -7.00097,-2.2172 -2.01117,-1.44452 -3.48482,-3.39296 -4.42095,-5.84533 z"
           id="path4170"
           style="font-size:86px;fill:#ffffff" />
      </g>
      <g
         transform="translate(-701.44993,1402.8999)"
         id="g4172"
         style="font-size:85.20685577px;font-style:normal;font-variant:normal;font-weight:bold;font-stretch:normal;text-align:start;line-height:125%;writing-mode:lr-tb;text-anchor:start;fill:#ffffff;fill-opacity:1;stroke:none;font-family:Drogowskaz;-inkscape-font-specification:Drogowskaz Bold">
        <path
           d="m 287.15723,262.2341 0,64.50024 10.75004,0 0,-21.55477 5.24172,-5.98293 19.25856,27.5377 13.12486,0 -25.08871,-35.86388 25.08871,-28.63636 -14.28613,0 -23.33901,26.63242 0,-26.63242 -10.75004,0 z"
           id="path4174"
           style="font-size:86px;fill:#ffffff" />
        <path
           d="m 344.458,283.73418 0,43.00016 10.75004,0 0,-28.14091 c 1.43825,-1.28901 3.07052,-2.29326 4.89681,-3.01274 1.82626,-0.71942 3.77733,-1.08491 5.85324,-1.09647 l 0,-10.75004 c -3.85186,0.0273 -7.4352,0.78943 -10.75005,2.28653 l 0,-2.28653 -10.75004,0 z"
           id="path4176"
           style="font-size:86px;fill:#ffffff" />
        <path
           d="m 372.89237,305.23426 c 0.15677,6.06931 2.26198,11.13078 6.31565,15.18443 4.05364,4.05367 9.11512,6.15888 15.18443,6.31565 2.32223,-0.009 4.53409,-0.36074 6.63558,-1.05407 2.10143,-0.69333 4.03617,-1.67234 5.80424,-2.93704 l 0.99774,3.99111 10.75004,0 -2.68751,-10.75004 0,-32.25012 -10.75005,0 0,2.89969 c -1.58931,-0.9269 -3.28828,-1.6405 -5.09691,-2.14081 -1.80869,-0.50022 -3.69307,-0.75318 -5.65313,-0.75888 -6.06931,0.15682 -11.13078,2.26203 -15.18443,6.31565 -4.05367,4.05369 -6.15888,9.11516 -6.31565,15.18443 z m 10.75004,0 c 0.0784,-3.09901 1.13098,-5.66894 3.15783,-7.70979 2.02681,-2.0408 4.55754,-3.09901 7.59221,-3.17462 3.03462,0.0756 5.56536,1.13382 7.59222,3.17462 2.02679,2.04085 3.0794,4.61078 3.15782,7.70979 -0.0784,3.09906 -1.13102,5.66899 -3.15782,7.7098 -2.02686,2.04084 -4.5576,3.09904 -7.59222,3.17462 -3.03467,-0.0756 -5.5654,-1.13378 -7.59222,-3.17462 -2.02684,-2.04081 -3.07945,-4.61074 -3.15782,-7.7098 z"
           id="path4178"
           style="font-size:86px;fill:#ffffff" />
        <path
           d="m 442.32524,305.23426 c 0.0784,-3.09901 1.13097,-5.66894 3.15782,-7.70979 2.02681,-2.0408 4.55754,-3.09901 7.59222,-3.17462 3.03461,0.0756 5.56535,1.13382 7.59221,3.17462 2.02679,2.04085 3.0794,4.61078 3.15783,7.70979 -0.0784,3.09906 -1.13103,5.66899 -3.15783,7.7098 -2.02686,2.04084 -4.5576,3.09904 -7.59221,3.17462 -3.03468,-0.0756 -5.56541,-1.13378 -7.59222,-3.17462 -2.02685,-2.04081 -3.07946,-4.61074 -3.15782,-7.7098 z m -10.75004,-21.50008 0,64.50025 10.75004,0 0,-24.39979 c 1.58926,0.92694 3.28823,1.64054 5.09691,2.14081 1.80864,0.50027 3.69301,0.75323 5.65313,0.75889 6.06926,-0.15677 11.13073,-2.26198 15.18443,-6.31565 4.05361,-4.05365 6.15883,-9.11512 6.31565,-15.18443 -0.15682,-6.06926 -2.26204,-11.13074 -6.31565,-15.18443 -4.0537,-4.05362 -9.11518,-6.15884 -15.18443,-6.31565 -1.96012,0.006 -3.84449,0.25867 -5.65313,0.75889 -1.80869,0.5003 -3.50766,1.2139 -5.09691,2.1408 l 0,-2.89969 -10.75004,0 z"
           id="path4180"
           style="font-size:86px;fill:#ffffff" />
        <path
           d="m 487.67676,262.2341 0,64.50024 10.75004,0 0,-16.05787 4.08166,0 12.0434,16.05787 13.43648,0 -16.12399,-21.50008 16.12399,-21.49914 -13.43648,0 -12.0434,16.05693 -4.08166,0 0,-37.55795 -10.75004,0 z"
           id="path4182"
           style="font-size:86px;fill:#ffffff" />
        <path
           d="m 531.61425,305.23426 c 0.16371,6.46862 2.39479,11.85214 6.69324,16.15059 4.29843,4.29845 9.68196,6.52953 16.15059,6.69325 6.46858,-0.16372 11.85211,-2.3948 16.1506,-6.69326 4.2984,-4.29844 6.52948,-9.68196 6.69324,-16.15058 -0.16376,-6.46858 -2.39484,-11.85211 -6.69324,-16.15059 -4.29849,-4.29841 -9.68202,-6.52949 -16.1506,-6.69324 -6.46863,0.16375 -11.85216,2.39483 -16.15059,6.69324 -4.29846,4.29848 -6.52954,9.68201 -6.69324,16.15059 z m 10.75004,0 c 0.0866,-3.42453 1.26781,-6.27463 3.54348,-8.55031 2.27563,-2.27562 5.12573,-3.45678 8.55031,-3.54348 3.42453,0.0867 6.27463,1.26786 8.55032,3.54348 2.27561,2.27567 3.45677,5.12578 3.54348,8.55031 -0.0867,3.42458 -1.26787,6.27468 -3.54348,8.55031 -2.27569,2.27566 -5.12579,3.45682 -8.55032,3.54349 -3.42458,-0.0867 -6.27468,-1.26782 -8.55031,-3.54349 -2.27567,-2.27563 -3.45683,-5.12573 -3.54348,-8.55031 z"
           id="path4184"
           style="font-size:86px;fill:#ffffff" />
        <path
           d="m 584.86424,283.73418 10.75004,43.00016 10.75004,0 8.06253,-25.80009 8.06253,25.80009 10.75004,0 10.75004,-43.00016 -10.75004,0 -5.97218,23.88888 -7.46537,-23.88888 -10.75004,0 -7.46537,23.88888 -5.97218,-23.88888 -10.75004,0 z"
           id="path4186"
           style="font-size:86px;fill:#ffffff" />
        <path
           d="m 653.98926,283.73418 0,43.00016 10.75004,0 0,-43.00016 -10.75004,0 z m 0,-21.50008 0,10.75004 10.75004,0 0,-10.75004 -10.75004,0 z"
           id="path4188"
           style="font-size:86px;fill:#ffffff" />
        <path
           d="m 713.9253,323.06815 -5.01704,-10.03702 c -1.12049,1.33109 -2.47508,2.3764 -4.06379,3.13593 -1.58878,0.75954 -3.32486,1.14654 -5.20826,1.161 -3.4434,-0.084 -6.29888,-1.25977 -8.56644,-3.52736 -2.26761,-2.26758 -3.44339,-5.12305 -3.52736,-8.56644 0.084,-3.44335 1.25976,-6.29883 3.52736,-8.56644 2.26756,-2.26756 5.12304,-3.44334 8.56644,-3.52736 1.73372,0.0113 3.34521,0.34196 4.83446,0.99183 1.48919,0.64993 2.78818,1.55123 3.89699,2.7039 l 4.18459,-10.45495 c -1.84497,-1.26801 -3.8571,-2.24794 -6.0364,-2.93978 -2.17937,-0.69176 -4.47258,-1.04211 -6.87964,-1.05104 -6.47804,0.16242 -11.86426,2.39081 -16.15866,6.68518 -4.29442,4.29446 -6.52281,9.68067 -6.68518,16.15866 0.16237,6.47803 2.39076,11.86425 6.68518,16.15865 4.29441,4.29442 9.68062,6.52281 16.15866,6.68519 2.71832,-0.0128 5.2874,-0.45579 7.70725,-1.32906 2.41979,-0.87328 4.61373,-2.10024 6.58184,-3.68089 z"
           id="path4190"
           style="font-size:86px;fill:#ffffff" />
        <path
           d="m 758.80578,301.203 -22.84383,0 c 0.85382,-2.39354 2.30396,-4.32519 4.3504,-5.79495 2.04641,-1.4697 4.40358,-2.22556 7.07152,-2.26758 2.66788,0.042 5.02505,0.79789 7.07151,2.26758 2.04639,1.46977 3.49652,3.40141 4.3504,5.79495 z m -22.84383,8.06253 30.23449,0 0,-16.93132 c -2.11926,-3.0598 -4.80117,-5.47296 -8.04574,-7.23948 -3.24464,-1.76643 -6.83358,-2.66787 -10.76683,-2.7043 -6.47805,0.16241 -11.86426,2.3908 -16.15866,6.68518 -4.29443,4.29445 -6.52282,9.68066 -6.68518,16.15865 0.16236,6.47804 2.39075,11.86425 6.68518,16.15866 4.2944,4.29441 9.68062,6.52281 16.15866,6.68518 1.23174,-0.0224 2.39633,-0.11198 3.49376,-0.26875 l 7.25628,-1.07501 5.37502,-10.75004 c -1.18423,0.17358 -3.5358,0.43113 -7.05472,0.77266 -3.51899,0.34155 -6.54243,0.53191 -9.07034,0.5711 -2.65619,-0.0336 -4.98984,-0.77265 -7.00097,-2.2172 -2.01117,-1.44452 -3.48482,-3.39297 -4.42095,-5.84533 z"
           id="path4192"
           style="font-size:86px;fill:#ffffff" />
      </g>
      <g
         transform="translate(-701.44993,1402.8999)"
         id="g4194"
         style="font-size:85.20685577px;font-style:normal;font-variant:normal;font-weight:bold;font-stretch:normal;text-align:start;line-height:125%;writing-mode:lr-tb;text-anchor:start;fill:#ffffff;fill-opacity:1;stroke:none;font-family:Drogowskaz;-inkscape-font-specification:Drogowskaz Bold">
        <path
           d="m 188.10106,457.99902 c 1.21919,0.71816 2.1909,1.68431 2.91514,2.89846 0.72418,1.21419 1.0951,2.57497 1.11277,4.08234 -0.0578,2.28306 -0.84526,4.18313 -2.36232,5.70022 -1.51714,1.5171 -3.4172,2.30454 -5.70021,2.36231 -3.49892,-0.005 -6.90781,-0.321 -10.22668,-0.94868 -3.31891,-0.62766 -6.51903,-1.53804 -9.60039,-2.73116 l -3.4027,10.21005 c 3.61782,1.36901 7.3706,2.41322 11.25835,3.13264 3.88772,0.71942 7.87818,1.08182 11.97142,1.0872 5.32705,-0.13483 9.76055,-1.97218 13.30048,-5.51207 3.53986,-3.53989 5.37722,-7.97338 5.51209,-13.30051 -0.0411,-3.51624 -0.90603,-6.69077 -2.59479,-9.52361 -1.68885,-2.83278 -3.95518,-5.08688 -6.799,-6.7623 l -12.74431,-7.43822 c -1.02319,-0.60166 -1.84067,-1.40938 -2.45244,-2.42314 -0.61181,-1.01368 -0.92542,-2.15212 -0.94081,-3.41534 0.0481,-1.90248 0.70433,-3.48587 1.9686,-4.75017 1.26423,-1.2642 2.84762,-1.9204 4.75018,-1.9686 5.06142,0.0152 9.91573,0.68149 14.56294,1.99883 l 3.4118,-10.20783 c -5.7261,-1.67404 -11.71767,-2.52105 -17.97474,-2.54104 -4.94662,0.12525 -9.06343,1.83137 -12.35045,5.11836 -3.28706,3.2871 -4.99318,7.40392 -5.11836,12.35045 0.0378,3.26217 0.83899,6.20806 2.40359,8.83769 1.56457,2.62971 3.66575,4.72168 6.30353,6.27593 l 12.79631,7.46819 z"
           id="path4196"
           style="font-size:86px;fill:#ffffff" />
        <path
           d="m 218.59529,428.69843 0,10.75004 -8.06253,0 0,10.75005 8.06253,0 0,16.12506 c 0.11555,4.5661 1.69043,8.36624 4.72464,11.40043 3.03418,3.03419 6.83432,4.60907 11.40042,4.72463 l 5.57658,-10.75004 -5.57658,0 c -1.52205,-0.0385 -2.78876,-0.56347 -3.80014,-1.57488 -1.01142,-1.01138 -1.53638,-2.27809 -1.57488,-3.80014 l 0,-16.12506 8.06253,0 0,-10.75005 -8.06253,0 0,-21.50008 -10.75004,10.75004 z"
           id="path4198"
           style="font-size:86px;fill:#ffffff" />
        <path
           d="m 252.51324,439.44847 0,43.00017 10.75005,0 0,-28.14092 c 1.43824,-1.28901 3.07051,-2.29325 4.89681,-3.01273 1.82625,-0.71942 3.77732,-1.08491 5.85323,-1.09647 l 0,-10.75005 c -3.85186,0.0273 -7.4352,0.78943 -10.75004,2.28654 l 0,-2.28654 -10.75005,0 z"
           id="path4200"
           style="font-size:86px;fill:#ffffff" />
        <path
           d="m 309.36022,471.6986 -14.82605,0 14.82605,-27.27823 0,-4.9719 -29.56261,0 0,10.75005 14.7813,0 -14.7813,27.27849 0,4.97163 29.56261,0 0,-10.75004 z"
           id="path4202"
           style="font-size:86px;fill:#ffffff" />
        <path
           d="m 352.56805,456.91729 -22.84383,0 c 0.85382,-2.39354 2.30395,-4.32518 4.3504,-5.79494 2.04641,-1.4697 4.40358,-2.22557 7.07151,-2.26759 2.66789,0.042 5.02505,0.79789 7.07152,2.26759 2.04639,1.46976 3.49652,3.40141 4.3504,5.79494 z m -22.84383,8.06253 30.23449,0 0,-16.93131 c -2.11927,-3.05981 -4.80117,-5.47297 -8.04574,-7.23948 -3.24464,-1.76644 -6.83359,-2.66787 -10.76684,-2.70431 -6.47804,0.16241 -11.86425,2.3908 -16.15865,6.68518 -4.29443,4.29445 -6.52282,9.68067 -6.68518,16.15866 0.16236,6.47803 2.39075,11.86424 6.68518,16.15865 4.2944,4.29442 9.68061,6.52281 16.15865,6.68518 1.23175,-0.0224 2.39634,-0.11198 3.49377,-0.26875 l 7.25628,-1.075 5.37502,-10.75004 c -1.18423,0.17357 -3.5358,0.43113 -7.05472,0.77266 -3.51899,0.34154 -6.54244,0.53191 -9.07035,0.57109 -2.65618,-0.0336 -4.98983,-0.77265 -7.00096,-2.21719 -2.01118,-1.44453 -3.48482,-3.39297 -4.42095,-5.84534 z"
           id="path4204"
           style="font-size:86px;fill:#ffffff" />
        <path
           d="m 373.02106,417.94839 0,64.50025 10.75004,0 0,-64.50025 -10.75004,0 z"
           id="path4206"
           style="font-size:86px;fill:#ffffff" />
        <path
           d="m 432.9571,478.78244 -5.01705,-10.03701 c -1.12048,1.33109 -2.47507,2.37639 -4.06378,3.13592 -1.58878,0.75955 -3.32486,1.14655 -5.20826,1.161 -3.4434,-0.084 -6.29888,-1.25976 -8.56644,-3.52736 -2.26761,-2.26757 -3.44339,-5.12305 -3.52736,-8.56644 0.084,-3.44334 1.25976,-6.29882 3.52736,-8.56644 2.26756,-2.26755 5.12304,-3.44334 8.56644,-3.52735 1.73372,0.0113 3.34521,0.34195 4.83446,0.99182 1.48919,0.64994 2.78818,1.55124 3.89699,2.70391 l 4.18459,-10.45495 c -1.84497,-1.26802 -3.8571,-2.24794 -6.0364,-2.93979 -2.17937,-0.69176 -4.47258,-1.0421 -6.87964,-1.05103 -6.47804,0.16241 -11.86426,2.3908 -16.15866,6.68518 -4.29442,4.29445 -6.52281,9.68066 -6.68518,16.15865 0.16237,6.47804 2.39076,11.86425 6.68518,16.15866 4.2944,4.29442 9.68062,6.52281 16.15866,6.68518 2.71832,-0.0128 5.2874,-0.45578 7.70725,-1.32906 2.41979,-0.87327 4.61373,-2.10024 6.58184,-3.68089 z"
           id="path4208"
           style="font-size:86px;fill:#ffffff" />
        <path
           d="m 478.33758,456.91729 -22.84383,0 c 0.85382,-2.39354 2.30396,-4.32518 4.3504,-5.79494 2.04641,-1.4697 4.40358,-2.22557 7.07152,-2.26759 2.66788,0.042 5.02505,0.79789 7.07151,2.26759 2.04639,1.46976 3.49652,3.40141 4.3504,5.79494 z m -22.84383,8.06253 30.23449,0 0,-16.93131 c -2.11926,-3.05981 -4.80117,-5.47297 -8.04574,-7.23948 -3.24464,-1.76644 -6.83358,-2.66787 -10.76683,-2.70431 -6.47805,0.16241 -11.86426,2.3908 -16.15866,6.68518 -4.29443,4.29445 -6.52282,9.68067 -6.68518,16.15866 0.16236,6.47803 2.39075,11.86424 6.68518,16.15865 4.2944,4.29442 9.68061,6.52281 16.15866,6.68518 1.23174,-0.0224 2.39633,-0.11198 3.49376,-0.26875 l 7.25628,-1.075 5.37502,-10.75004 c -1.18423,0.17357 -3.5358,0.43113 -7.05472,0.77266 -3.51899,0.34154 -6.54244,0.53191 -9.07034,0.57109 -2.65619,-0.0336 -4.98984,-0.77265 -7.00097,-2.21719 -2.01117,-1.44453 -3.48482,-3.39297 -4.42095,-5.84534 z"
           id="path4210"
           style="font-size:86px;fill:#ffffff" />
        <path
           d="m 521.16557,450.19852 c 0.24075,9.51268 3.52175,17.42963 9.84301,23.75087 6.32122,6.32125 14.23817,9.60225 23.75087,9.843 9.51262,-0.24075 17.42957,-3.52175 23.75087,-9.843 6.32118,-6.32124 9.60218,-14.23819 9.843,-23.75087 -0.24082,-9.51263 -3.52182,-17.42958 -9.843,-23.75088 -6.32131,-6.32118 -14.23826,-9.60218 -23.75087,-9.843 -9.5127,0.24082 -17.42965,3.52182 -23.75088,9.843 -6.32125,6.3213 -9.60225,14.23825 -9.843,23.75088 z m 10.75004,0 c 0.1637,-6.46858 2.39478,-11.8521 6.69324,-16.1506 4.29843,-4.2984 9.68195,-6.52947 16.1506,-6.69324 6.46856,0.16377 11.85209,2.39485 16.15059,6.69324 4.29839,4.2985 6.52947,9.68202 6.69324,16.1506 -0.16377,6.46863 -2.39485,11.85216 -6.69324,16.15059 -4.2985,4.29846 -9.68203,6.52954 -16.15059,6.69324 -6.46865,-0.1637 -11.85217,-2.39478 -16.1506,-6.69324 -4.29846,-4.29843 -6.52954,-9.68196 -6.69324,-16.15059 z"
           id="path4212"
           style="font-size:86px;fill:#ffffff" />
        <path
           d="m 607.60313,460.94856 c 0.0784,-3.09901 1.13098,-5.66894 3.15783,-7.7098 2.0268,-2.0408 4.55754,-3.099 7.59221,-3.17462 3.03461,0.0756 5.56535,1.13382 7.59222,3.17462 2.02679,2.04086 3.07939,4.61079 3.15782,7.7098 -0.0784,3.09905 -1.13103,5.66898 -3.15782,7.70979 -2.02687,2.04084 -4.55761,3.09905 -7.59222,3.17462 -3.03467,-0.0756 -5.56541,-1.13378 -7.59222,-3.17462 -2.02685,-2.04081 -3.07946,-4.61074 -3.15782,-7.70979 z m -10.75004,-21.50009 0,64.50025 10.75004,0 0,-24.39978 c 1.58926,0.92693 3.28823,1.64053 5.09691,2.1408 1.80864,0.50027 3.69301,0.75324 5.65313,0.7589 6.06926,-0.15677 11.13073,-2.26199 15.18443,-6.31565 4.05361,-4.05365 6.15883,-9.11512 6.31565,-15.18443 -0.15682,-6.06927 -2.26203,-11.13074 -6.31565,-15.18444 -4.0537,-4.05362 -9.11517,-6.15883 -15.18443,-6.31565 -1.96012,0.006 -3.84449,0.25867 -5.65313,0.75889 -1.80868,0.5003 -3.50765,1.21391 -5.09691,2.14081 l 0,-2.8997 -10.75004,0 z"
           id="path4214"
           style="font-size:86px;fill:#ffffff" />
        <path
           d="m 643.2359,471.6986 0,10.75004 10.75004,0 0,-10.75004 -10.75004,0 z"
           id="path4216"
           style="font-size:86px;fill:#ffffff" />
      </g>
      <path
         d="m 79.617494,1855.9494 -18.99526,-11.6315 -19.138,-11.6769 0,13.2674 -47.9822496,0 0,18.9403 47.9822496,0 0,14.4544 19.138,-11.6768 18.99526,-11.6769 z"
         id="path4218"
         style="fill:#ffffff;fill-opacity:1;stroke:none" />
    </g>
  </g>
</svg>
