<?xml version="1.0" encoding="UTF-8" standalone="no"?>
<!-- Created with Inkscape (http://www.inkscape.org/) -->
<svg
   xmlns:svg="http://www.w3.org/2000/svg"
   xmlns="http://www.w3.org/2000/svg"
   xmlns:sodipodi="http://sodipodi.sourceforge.net/DTD/sodipodi-0.dtd"
   xmlns:inkscape="http://www.inkscape.org/namespaces/inkscape"
   version="1.0"
   width="7221.6245"
   height="1735.7389"
   id="svg2"
   sodipodi:version="0.32"
   inkscape:version="0.45"
   sodipodi:docname="Znak E-7.svg"
   sodipodi:docbase="/home/szczepan/Desktop/znaki/nowe"
   inkscape:output_extension="org.inkscape.output.svg.inkscape"
   sodipodi:modified="true">
  <defs
     id="defs17" />
  <sodipodi:namedview
     inkscape:window-height="594"
     inkscape:window-width="822"
     inkscape:pageshadow="2"
     inkscape:pageopacity="0.0"
     guidetolerance="10.0"
     gridtolerance="10.0"
     objecttolerance="10.0"
     borderopacity="1.0"
     bordercolor="#666666"
     pagecolor="#ffffff"
     id="base"
     inkscape:zoom="0.10136223"
     inkscape:cx="3610.8123"
     inkscape:cy="867.86945"
     inkscape:window-x="5"
     inkscape:window-y="48"
     inkscape:current-layer="svg2" />
  <g
     transform="translate(8224.1348,-152.05757)"
     id="layer1">
    <g
       transform="matrix(6.0821936,0,0,6.0821936,-20206.977,-772.78601)"
       id="g11138">
      <path
         d="M 1975.8583,157.36703 L 3149.6556,157.36703 L 3149.6556,428.08792 L 1975.8583,428.08792 L 1975.8583,157.36703 z "
         style="fill:#ffffff;fill-opacity:1;stroke:none;stroke-width:18.20700073;stroke-miterlimit:4;stroke-opacity:1"
         id="rect11135" />
      <path
         d="M 2373.4304,197.23864 C 2363.4628,197.23864 2355.3728,205.32858 2355.3728,215.29616 C 2355.3728,223.24769 2360.5263,230.00001 2367.6692,232.40783 C 2366.4244,276.99322 2371.3958,308.25421 2364.3844,321.31967 C 2353.9019,340.85352 2326.7863,329.0297 2292.1887,300.21816 C 2311.8892,327.62489 2349.9091,340.07637 2368.2195,340.66703 C 2379.677,412.79826 2289.8207,360.1593 2270.1413,343.38426 C 2335.0014,400.87195 2410.7382,400.1504 2475.722,344.20975 C 2454.2052,361.79924 2367.3656,411.65332 2378.6413,340.66703 C 2396.9516,340.07637 2434.9544,327.62489 2454.6549,300.21816 C 2420.0573,329.0297 2392.9589,340.85352 2382.4763,321.31967 C 2375.465,308.25421 2380.4363,276.99323 2379.1916,232.40783 C 2386.3344,230 2391.4879,223.24768 2391.4879,215.29616 C 2391.4879,205.32859 2383.3979,197.23864 2373.4304,197.23864 z "
         style="fill:#79603e;fill-opacity:1;fill-rule:evenodd;stroke:none;stroke-width:2.4000001;stroke-linecap:butt;stroke-linejoin:miter;stroke-miterlimit:4;stroke-dasharray:none;stroke-opacity:1"
         id="path2170" />
      <path
         d="M 1979.2549,161.16107 L 3148.3867,161.16107 L 3148.3867,428.33447 L 1979.2549,428.33447 L 1979.2549,161.16107 z M 2182.9397,163.42795 L 2182.9397,423.03714 L 2182.9397,163.42795 z "
         style="fill:none;fill-opacity:1;stroke:#79603e;stroke-width:18.20700073;stroke-miterlimit:4;stroke-opacity:1"
         id="rect4138" />
      <g
         transform="translate(0,-1.7055072)"
         id="g9013">
        <path
           d="M 2076.2827,266.88266 L 2091.6068,266.88266 L 2091.6068,359.98853 L 2076.2827,359.98853 L 2076.2827,266.88266 z "
           style="fill:#79603e;fill-opacity:1;stroke:#79603e;stroke-width:18.03517151;stroke-miterlimit:4;stroke-opacity:1"
           id="rect8029" />
        <path
           d="M 2040.0031,285.15133 L 2082.9346,217.97618 L 2125.866,285.15133 L 2040.0031,285.15133 z "
           style="fill:#79603e;fill-opacity:1;fill-rule:evenodd;stroke:none;stroke-width:1px;stroke-linecap:butt;stroke-linejoin:miter;stroke-opacity:1"
           id="path8031" />
      </g>
      <g
         transform="translate(0,-6.1657943)"
         id="g11129">
        <path
           d="M 3037.0755,275.48578 C 3023.7156,275.61593 3014.7084,284.24004 3014.7084,284.24004 C 3014.7084,284.24004 3004.2841,275.48578 2993.035,275.48578 C 2981.089,275.48578 2972.3691,282.01032 2970.2367,283.77246 L 2970.2367,275.48578 L 2947.8883,275.48578 L 2947.8883,365.3484 L 2970.2367,365.3484 L 2970.2367,308.52018 C 2971.0489,306.08748 2974.4402,298.00759 2983.8106,298.00759 C 2996.0348,298.00759 2997.9096,309.23103 2997.9096,309.23103 L 2998.2846,365.3484 L 3020.6329,365.3484 L 3020.7079,309.23103 C 3020.7079,309.23103 3023.1827,297.89536 3035.1818,297.89536 C 3044.9239,297.89536 3048.9134,308.0517 3049.2807,309.04395 L 3049.2807,365.3484 L 3071.6291,365.3484 L 3071.704,309.23103 C 3070.9049,290.47921 3055.4957,275.8018 3037.0755,275.48578 z "
           style="fill:#79603e;fill-opacity:1;stroke:none;stroke-width:7;stroke-miterlimit:4;stroke-opacity:1"
           id="path11121" />
        <path
           d="M 2600.5695,230.55447 L 2600.5695,253.03273 L 2654.0077,253.03273 L 2611.5521,365.3484 L 2634.3677,365.3484 L 2679.9613,246.45151 L 2679.9613,230.55447 L 2600.5695,230.55447 z "
           style="fill:#79603e;fill-opacity:1;stroke:none;stroke-width:7;stroke-miterlimit:4;stroke-opacity:1"
           id="path11123" />
        <path
           d="M 2733.1749,230.55974 C 2709.1483,231.30149 2690.0015,255.28678 2690.0015,284.94651 L 2690.0015,310.96163 C 2690.0015,341.09218 2709.7658,365.3484 2734.3269,365.3484 C 2758.8881,365.3484 2778.6524,341.09218 2778.6524,310.96163 L 2778.6524,284.94651 C 2778.6524,254.81596 2758.8881,230.55974 2734.3269,230.55974 C 2733.9432,230.55974 2733.5562,230.54798 2733.1749,230.55974 z M 2734.3269,252.93648 C 2746.5032,252.93648 2756.3102,269.14467 2756.3102,289.26347 L 2756.3102,306.62577 C 2756.3102,326.74457 2746.5032,342.95269 2734.3269,342.95269 C 2722.1506,342.95269 2712.3436,326.74457 2712.3436,306.62577 L 2712.3436,289.26347 C 2712.3436,269.14467 2722.1506,252.93648 2734.3269,252.93648 z "
           style="fill:#79603e;fill-opacity:1;stroke:none;stroke-width:7;stroke-miterlimit:4;stroke-opacity:1"
           id="path11125" />
        <path
           d="M 2851.5198,230.55974 C 2827.4933,231.30149 2808.3464,255.28678 2808.3464,284.94651 L 2808.3464,310.96163 C 2808.3464,341.09218 2828.1108,365.3484 2852.6719,365.3484 C 2877.233,365.3484 2896.9974,341.09218 2896.9974,310.96163 L 2896.9974,284.94651 C 2896.9974,254.81596 2877.233,230.55974 2852.6719,230.55974 C 2852.2882,230.55974 2851.9012,230.54798 2851.5198,230.55974 z M 2852.6719,252.93648 C 2864.8482,252.93648 2874.6552,269.14467 2874.6552,289.26347 L 2874.6552,306.62577 C 2874.6552,326.74457 2864.8482,342.95269 2852.6719,342.95269 C 2840.4955,342.95269 2830.6885,326.74457 2830.6885,306.62577 L 2830.6885,289.26347 C 2830.6885,269.14467 2840.4955,252.93648 2852.6719,252.93648 z "
           style="fill:#79603e;fill-opacity:1;stroke:none;stroke-width:7;stroke-miterlimit:4;stroke-opacity:1"
           id="path11127" />
      </g>
    </g>
  </g>
</svg>
