<?xml version="1.0" encoding="UTF-8" standalone="no"?>
<!-- Created with Inkscape (http://www.inkscape.org/) -->
<svg
   xmlns:dc="http://purl.org/dc/elements/1.1/"
   xmlns:cc="http://web.resource.org/cc/"
   xmlns:rdf="http://www.w3.org/1999/02/22-rdf-syntax-ns#"
   xmlns:svg="http://www.w3.org/2000/svg"
   xmlns="http://www.w3.org/2000/svg"
   xmlns:xlink="http://www.w3.org/1999/xlink"
   xmlns:sodipodi="http://sodipodi.sourceforge.net/DTD/sodipodi-0.dtd"
   xmlns:inkscape="http://www.inkscape.org/namespaces/inkscape"
   width="364.81403"
   height="336.55783"
   id="svg2"
   sodipodi:version="0.32"
   inkscape:version="0.45.1"
   version="1.0"
   sodipodi:docbase="D:\Documents and Settings\Maciek\Pulpit\SVG"
   sodipodi:docname="Znak P-16.svg"
   inkscape:output_extension="org.inkscape.output.svg.inkscape">
  <defs
     id="defs4">
    <linearGradient
       inkscape:collect="always"
       id="linearGradient4136">
      <stop
         style="stop-color:#ffffff;stop-opacity:1;"
         offset="0"
         id="stop4138" />
      <stop
         style="stop-color:#ffffff;stop-opacity:0;"
         offset="1"
         id="stop4140" />
    </linearGradient>
    <linearGradient
       inkscape:collect="always"
       xlink:href="#linearGradient4136"
       id="linearGradient4142"
       x1="-745.80804"
       y1="141.37566"
       x2="-425.616"
       y2="141.37566"
       gradientUnits="userSpaceOnUse" />
    <linearGradient
       gradientUnits="userSpaceOnUse"
       y2="141.37566"
       x2="-425.616"
       y1="141.37566"
       x1="-745.80804"
       id="linearGradient2180"
       xlink:href="#linearGradient4136"
       inkscape:collect="always" />
  </defs>
  <sodipodi:namedview
     id="base"
     pagecolor="#ffffff"
     bordercolor="#666666"
     borderopacity="1.0"
     gridtolerance="10000"
     guidetolerance="10"
     objecttolerance="10"
     inkscape:pageopacity="0.0"
     inkscape:pageshadow="2"
     inkscape:zoom="0.85587586"
     inkscape:cx="208.40638"
     inkscape:cy="216.46888"
     inkscape:document-units="px"
     inkscape:current-layer="layer1"
     width="451px"
     height="451px"
     inkscape:window-width="1024"
     inkscape:window-height="753"
     inkscape:window-x="0"
     inkscape:window-y="0"
     showgrid="true" />
  <metadata
     id="metadata7">
    <rdf:RDF>
      <cc:Work
         rdf:about="">
        <dc:format>image/svg+xml</dc:format>
        <dc:type
           rdf:resource="http://purl.org/dc/dcmitype/StillImage" />
      </cc:Work>
    </rdf:RDF>
  </metadata>
  <g
     inkscape:label="Layer 1"
     inkscape:groupmode="layer"
     id="layer1"
     transform="translate(-102.5435,-154.16754)">
    <rect
       style="opacity:0.98000004;fill:#9d9d9d;fill-opacity:1;fill-rule:evenodd;stroke:none;stroke-width:7.5;stroke-miterlimit:4;stroke-dasharray:none;stroke-opacity:1"
       id="rect2163"
       width="364.81403"
       height="336.55783"
       x="102.5435"
       y="154.16754" />
    <path
       style="font-size:99px;font-weight:bold;fill:#ffffff"
       d="M 142.5435,351.0418 L 158.01225,347.71946 C 158.94322,359.18951 160.83205,367.61397 163.67875,372.99301 C 166.52541,378.3721 170.36573,381.06159 175.19975,381.06157 C 180.32015,381.06159 184.17838,378.66869 186.77446,373.88293 C 189.37043,369.09717 190.66845,363.5006 190.6685,357.09322 C 190.66845,352.97989 190.12239,349.47958 189.03032,346.59222 C 187.93814,343.705 186.03141,341.19348 183.3101,339.05761 C 181.44808,337.63382 177.20492,335.10253 170.58061,331.46368 C 162.05845,326.79665 156.07864,321.06164 152.64116,314.25866 C 147.80716,304.68725 145.39017,293.01947 145.39018,279.25538 C 145.39017,270.39592 146.52705,262.10982 148.80083,254.39713 C 151.07457,246.68466 154.35094,240.81124 158.62993,236.77681 C 162.90887,232.7427 168.07407,230.72556 174.12553,230.72537 C 184.0083,230.72556 191.44726,235.51131 196.44243,245.08266 C 201.43748,254.65433 204.06036,267.42954 204.31108,283.40832 L 188.41264,284.95079 C 187.73225,276.01227 186.27311,269.58513 184.0352,265.66936 C 181.7972,261.75387 178.44027,259.79607 173.9644,259.79592 C 169.34523,259.79607 165.72869,261.89232 163.11479,266.08461 C 161.43182,268.77427 160.59035,272.37347 160.59037,276.88227 C 160.59035,280.99578 161.37811,284.51587 162.95366,287.44259 C 164.95884,291.16058 169.82862,295.03661 177.56303,299.07077 C 185.29736,303.10517 191.01757,307.27789 194.72368,311.58893 C 198.42967,315.90016 201.33006,321.79336 203.42485,329.26855 C 205.51951,336.7439 206.56687,345.97924 206.56694,356.97452 C 206.56687,366.94165 205.31361,376.27585 202.80717,384.97714 C 200.3006,393.67859 196.75568,400.14528 192.17241,404.37733 C 187.58902,408.60932 181.87777,410.72537 175.03862,410.72537 C 165.08416,410.72537 157.43931,405.64294 152.10405,395.47817 C 146.76875,385.31336 143.58191,370.50127 142.5435,351.0418 L 142.5435,351.0418 z M 237.77299,407.6403 L 237.77299,263.11823 L 214.40873,263.11823 L 214.40873,233.69177 L 276.98198,233.69177 L 276.98198,263.11823 L 253.67143,263.11823 L 253.67143,407.6403 L 237.77299,407.6403 z M 284.07182,321.73394 C 284.07181,304.01488 285.27136,289.14341 287.67045,277.1196 C 289.46081,268.26011 291.90465,260.31022 295.002,253.26987 C 298.09931,246.22984 301.49204,241.00901 305.18022,237.60741 C 310.08579,233.01959 315.74333,230.72556 322.15287,230.72537 C 333.75438,230.72556 343.03741,238.67545 350.002,254.57506 C 356.96644,270.47501 360.44869,292.58442 360.44877,320.90335 C 360.44869,348.98514 356.99329,370.95614 350.08256,386.81632 C 343.17169,402.67659 333.93342,410.60668 322.36772,410.6067 C 310.6587,410.60668 301.34882,402.71612 294.43803,386.93499 C 287.52722,371.15386 284.07181,349.42022 284.07182,321.73394 L 284.07182,321.73394 z M 300.45366,320.54739 C 300.45363,340.24421 302.51255,355.17498 306.63041,365.33975 C 310.74822,375.50455 315.97608,380.58693 322.31401,380.58692 C 328.65185,380.58693 333.85285,375.54412 337.91703,365.45838 C 341.9811,355.37278 344.01316,340.24421 344.01323,320.07275 C 344.01316,300.13879 342.03481,285.26738 338.07817,275.45839 C 334.12141,265.64971 328.86669,260.74533 322.31401,260.74515 C 315.76124,260.74533 310.47967,265.70905 306.46928,275.6364 C 302.45884,285.564 300.45363,300.53434 300.45366,320.54739 L 300.45366,320.54739 z M 372.80229,407.6403 L 372.80229,233.69177 L 398.31498,233.69177 C 407.98291,233.69196 414.28499,234.56209 417.22123,236.30216 C 421.7329,238.9128 425.51056,244.58845 428.55424,253.32919 C 431.59779,262.07026 433.1196,273.36231 433.11967,287.20527 C 433.1196,297.88434 432.24233,306.86259 430.48784,314.14 C 428.73321,321.41761 426.50421,327.13286 423.80082,331.28566 C 421.09732,335.43869 418.34911,338.18753 415.55619,339.53219 C 411.76057,341.19348 406.26416,342.02404 399.06694,342.02399 L 388.70073,342.02399 L 388.70073,407.6403 L 372.80229,407.6403 z M 388.70073,263.11823 L 388.70073,312.47884 L 397.4019,312.47884 C 403.66813,312.4789 407.85758,311.56924 409.97026,309.74975 C 412.08284,307.93049 413.73893,305.08277 414.93852,301.20657 C 416.13801,297.33063 416.73778,292.82175 416.73784,287.67989 C 416.73778,281.35176 415.89631,276.13093 414.21342,272.01739 C 412.53043,267.90414 410.3999,265.33329 407.82182,264.30479 C 405.92399,263.51391 402.11052,263.11842 396.38139,263.11823 L 388.70073,263.11823 z "
       id="flowRoot2193" />
  </g>
</svg>
