<?xml version="1.0" encoding="UTF-8" standalone="no"?>
<!-- Created with Inkscape (http://www.inkscape.org/) -->
<svg
   xmlns:dc="http://purl.org/dc/elements/1.1/"
   xmlns:cc="http://web.resource.org/cc/"
   xmlns:rdf="http://www.w3.org/1999/02/22-rdf-syntax-ns#"
   xmlns:svg="http://www.w3.org/2000/svg"
   xmlns="http://www.w3.org/2000/svg"
   xmlns:sodipodi="http://sodipodi.sourceforge.net/DTD/sodipodi-0.dtd"
   xmlns:inkscape="http://www.inkscape.org/namespaces/inkscape"
   version="1.0"
   width="145"
   height="210.84962"
   id="svg4675"
   sodipodi:version="0.32"
   inkscape:version="0.45.1"
   sodipodi:docname="Znak P-21.svg"
   inkscape:output_extension="org.inkscape.output.svg.inkscape"
   sodipodi:docbase="D:\Documents and Settings\Maciek\Pulpit\SVG"
   inkscape:export-filename="D:\Documents and Settings\Maciek\Pulpit\SVG\Znak P-21.jpg"
   inkscape:export-xdpi="90"
   inkscape:export-ydpi="90">
  <metadata
     id="metadata10">
    <rdf:RDF>
      <cc:Work
         rdf:about="">
        <dc:format>image/svg+xml</dc:format>
        <dc:type
           rdf:resource="http://purl.org/dc/dcmitype/StillImage" />
      </cc:Work>
    </rdf:RDF>
  </metadata>
  <sodipodi:namedview
     inkscape:window-height="721"
     inkscape:window-width="1024"
     inkscape:pageshadow="2"
     inkscape:pageopacity="0.0"
     guidetolerance="10.0"
     gridtolerance="10.0"
     objecttolerance="10.0"
     borderopacity="1.0"
     bordercolor="#666666"
     pagecolor="#ffffff"
     id="base"
     inkscape:zoom="1.2676635"
     inkscape:cx="30.027815"
     inkscape:cy="87.636805"
     inkscape:window-x="-4"
     inkscape:window-y="-4"
     inkscape:current-layer="svg4675" />
  <defs
     id="defs4677" />
  <rect
     style="opacity:1;fill:#ffffff;fill-opacity:1;fill-rule:nonzero;stroke:none;stroke-width:4.00500011;stroke-miterlimit:4;stroke-dasharray:none;stroke-opacity:1"
     id="rect2160"
     width="354.9838"
     height="351.03952"
     x="-103.33973"
     y="-53.416088" />
  <g
     transform="translate(9.3965,-7.0922699)"
     id="layer5" />
  <g
     transform="translate(32.826655,13.934792)"
     id="layer6" />
  <g
     transform="matrix(1.1034482,0,0,1,177.58621,-28.903129)"
     id="g3179">
    <path
       style="fill:#9d9d9d;fill-opacity:1;fill-rule:evenodd"
       d="M -170,145.34963 L -170,-10.150375 L -150.83929,-10.150375 L -131.67857,-10.150375 L -131.67857,145.34963 L -131.67857,300.84963 L -150.83929,300.84963 L -170,300.84963 L -170,145.34963 z M -127.53571,293.72843 C -127.53571,286.49903 -120.06492,263.32432 -73.094476,124.84963 L -65.462509,102.34963 L -65.427678,119.17545 L -65.392857,136.00127 L -93.098214,218.41856 L -120.80357,300.83585 L -124.16964,300.84274 L -127.53571,300.84963 L -127.53571,293.72843 z M -112.16922,301.29887 C -111.89841,300.61137 -101.03847,267.99739 -88.573782,230.90021 L -65.910714,163.45077 L -65.625706,179.73449 L -65.340709,196.01819 L -79.409779,237.68391 C -87.147768,260.60006 -95.12125,284.18712 -97.128628,290.09963 L -100.77841,300.84963 C -104.45157,300.74003 -109.49203,303.2193 -112.16922,301.29887 z M -91.285714,300.17392 C -91.285714,299.80228 -85.576339,282.42224 -78.598214,261.55163 L -65.910714,223.60505 L -65.59044,239.47734 L -65.270166,255.34963 L -72.78547,278.09963 L -80.300776,300.84963 L -85.793246,300.84963 C -88.814103,300.84963 -91.285714,300.54555 -91.285714,300.17392 z M -71.061575,298.76533 C -70.68474,297.61897 -69.28981,293.68147 -67.961731,290.01533 L -65.547044,283.34963 L -65.469945,292.09963 L -65.392857,300.84963 L -68.569795,300.84963 C -71.318233,300.84963 -71.65432,300.56849 -71.061575,298.76533 z M -61.25,145.34963 L -61.25,-10.150375 L -43.125,-10.150375 L -25,-10.150375 L -25,145.34963 L -25,300.84963 L -61.25,300.84963 L -61.25,145.34963 z M -127.51854,242.7663 L -127.50137,226.34963 L -96.488324,134.34963 L -65.475279,42.349625 L -65.434068,59.129735 L -65.392857,75.909844 L -96.081722,167.12974 C -112.96059,217.30068 -126.94274,258.53713 -127.15315,258.7663 C -127.36356,258.99545 -127.52799,251.79546 -127.51854,242.7663 z M -127.45428,182.84963 L -127.53637,166.34963 L -97.842873,78.099625 C -78.184332,19.673851 -67.683583,-10.150375 -66.771112,-10.150375 C -65.694985,-10.150375 -65.392857,-7.3162662 -65.392857,2.7783586 L -65.392857,15.707093 L -95.444216,105.02836 C -111.97246,154.15506 -125.91781,195.47463 -126.43388,196.84963 C -127.06607,198.53402 -127.39897,193.96661 -127.45428,182.84963 z M -127.53571,122.25448 L -127.53571,106.32599 L -108.06245,48.337805 L -88.589195,-9.6503754 L -82.738428,-9.9488108 L -76.887662,-10.247246 L -78.883195,-4.4488108 C -79.980739,-1.2596713 -91.142659,31.911299 -103.68746,69.264456 C -116.23227,106.61762 -126.73008,137.40512 -127.01595,137.68113 C -127.30182,137.95713 -127.53571,131.01514 -127.53571,122.25448 z M -127.53571,62.212958 L -127.53571,46.242957 L -118.21429,18.460084 C -113.0875,3.1795036 -108.89286,-9.5089963 -108.89286,-9.7365824 C -108.89286,-9.9641686 -106.32946,-10.150375 -103.19643,-10.150375 C -100.06339,-10.150375 -97.5,-9.9254068 -97.5,-9.6504451 C -97.5,-8.7354202 -126.62326,77.301966 -127.08337,77.746205 C -127.33216,77.986419 -127.53571,70.996458 -127.53571,62.212958 z M -127.53571,4.0162916 L -127.53571,-10.150375 L -122.46303,-10.150375 L -117.39036,-10.150375 L -122.04607,3.5996246 C -124.6067,11.162125 -126.88941,17.537125 -127.11875,17.766292 C -127.34807,17.995458 -127.53571,11.807958 -127.53571,4.0162916 z "
       id="path3181" />
  </g>
</svg>
