<?xml version="1.0" encoding="UTF-8" standalone="no"?>
<!-- Created with Inkscape (http://www.inkscape.org/) -->

<svg
   xmlns:dc="http://purl.org/dc/elements/1.1/"
   xmlns:cc="http://creativecommons.org/ns#"
   xmlns:rdf="http://www.w3.org/1999/02/22-rdf-syntax-ns#"
   xmlns:svg="http://www.w3.org/2000/svg"
   xmlns="http://www.w3.org/2000/svg"
   xmlns:sodipodi="http://sodipodi.sourceforge.net/DTD/sodipodi-0.dtd"
   xmlns:inkscape="http://www.inkscape.org/namespaces/inkscape"
   width="1342"
   height="400"
   id="svg3866"
   version="1.1"
   inkscape:version="0.48.4 r9939"
   sodipodi:docname="Znak R-4c.svg">
  <title
     id="title3938">Znak R-4c</title>
  <defs
     id="defs3868" />
  <sodipodi:namedview
     id="base"
     pagecolor="#ffffff"
     bordercolor="#666666"
     borderopacity="1.0"
     inkscape:pageopacity="0.0"
     inkscape:pageshadow="2"
     inkscape:zoom="0.56780924"
     inkscape:cx="671"
     inkscape:cy="200"
     inkscape:document-units="px"
     inkscape:current-layer="g3005"
     showgrid="false"
     inkscape:window-width="1204"
     inkscape:window-height="538"
     inkscape:window-x="208"
     inkscape:window-y="208"
     inkscape:window-maximized="0" />
  <metadata
     id="metadata3871">
    <rdf:RDF>
      <cc:Work
         rdf:about="">
        <dc:format>image/svg+xml</dc:format>
        <dc:type
           rdf:resource="http://purl.org/dc/dcmitype/StillImage" />
        <cc:license
           rdf:resource="http://creativecommons.org/licenses/by-sa/3.0/" />
        <dc:title>Znak R-4</dc:title>
        <dc:date>2013-11-05</dc:date>
        <dc:creator>
          <cc:Agent>
            <dc:title>Blackfish</dc:title>
          </cc:Agent>
        </dc:creator>
      </cc:Work>
      <cc:License
         rdf:about="http://creativecommons.org/licenses/by-sa/3.0/">
        <cc:permits
           rdf:resource="http://creativecommons.org/ns#Reproduction" />
        <cc:permits
           rdf:resource="http://creativecommons.org/ns#Distribution" />
        <cc:requires
           rdf:resource="http://creativecommons.org/ns#Notice" />
        <cc:requires
           rdf:resource="http://creativecommons.org/ns#Attribution" />
        <cc:permits
           rdf:resource="http://creativecommons.org/ns#DerivativeWorks" />
        <cc:requires
           rdf:resource="http://creativecommons.org/ns#ShareAlike" />
      </cc:License>
    </rdf:RDF>
  </metadata>
  <g
     inkscape:label="Layer 1"
     inkscape:groupmode="layer"
     id="layer1"
     transform="translate(0,-652.36218)">
    <g
       transform="translate(-3.2627614e-7,-3.3350001e-4)"
       id="layer1-7"
       inkscape:label="Layer 1">
      <g
         transform="matrix(12.584287,0,0,12.584287,-3460.5886,-7584.9782)"
         id="g3043">
        <g
           transform="matrix(1.0324827,0,0,1.0324827,-9.4487482,-21.778532)"
           inkscape:label="linie"
           id="g3005">
          <g
             id="g4475">
            <path
               id="path3037"
               d="m 280.13969,685.85914 93.95437,0 a 4.6468931,4.6468931 0 0 0 4.64689,-4.6469 l 0,-21.49188 a 4.6468931,4.6468931 0 0 0 -4.64689,-4.64689 l -93.95437,0 a 4.6468931,4.6468931 0 0 0 -4.64689,4.64689 l 0,21.49188 a 4.6468931,4.6468931 0 0 0 4.64689,4.6469 z"
               style="fill:#000000;fill-opacity:1;stroke:none"
               inkscape:connector-curvature="0" />
            <path
               id="path3039"
               d="m 280.13969,684.84263 21.49188,0 a 3.6303851,3.6303851 0 0 0 3.63038,-3.63039 l 0,-21.49188 a 3.6303851,3.6303851 0 0 0 -3.63038,-3.63038 l -21.49188,0 a 3.6303851,3.6303851 0 0 0 -3.63038,3.63038 l 0,21.49188 a 3.6303851,3.6303851 0 0 0 3.63038,3.63039 z"
               style="fill:#e97717;fill-opacity:1;stroke:none"
               inkscape:connector-curvature="0" />
            <path
               inkscape:connector-curvature="0"
               style="fill:#000000;fill-opacity:1;stroke:none"
               d="m 157.4375,39.09375 a 11.02743,11.02743 0 0 0 -10.59375,7.9375 l -15.4375,52.6875 a 49.990399,49.990399 0 1 0 7.25,2.125 l 2.375,-8.125 56.875,48.84375 a 14.202803,14.202803 0 1 0 26.53125,9.8125 l 4.125,0 A 49.990399,49.990399 0 1 0 255.84375,104 l -17.53125,-29 4.03125,-12.59375 17.3125,0 0,-15.1875 -47.28125,0 A 3.1705268,3.1705268 0 0 0 211.5,53.25 a 73.366376,73.366376 0 0 0 23.21875,8.28125 l -2.53125,7.875 -84.03125,0 6.65625,-22.75 15.53125,0 0,-7.5625 -12.90625,0 z m -11.5,37.875 83.84375,0 -18.4375,57.4375 a 14.202803,14.202803 0 0 0 -8.5,2.40625 L 143.375,85.75 l 2.5625,-8.78125 z m 89.34375,7.5625 14.09375,23.375 a 49.9904,49.9904 0 0 0 -20.8125,36.9375 l -4.125,0 a 14.202803,14.202803 0 0 0 -5.90625,-8.125 l 16.75,-52.1875 z m -114.65625,21.625 a 42.443242,42.443242 0 0 1 8.65625,0.8125 l -10.25,35.0625 a 6.8830728,6.8830728 0 1 0 7.21875,2.125 l 10.28125,-35.0625 a 42.443242,42.443242 0 1 1 -15.90625,-2.9375 z m 158.78125,0.0312 A 42.44324,42.44324 0 1 1 236.125,152.375 l 36.53125,0 a 6.8830724,6.8830724 0 1 0 6,-10.65625 l -18.90625,-31.25 a 42.44324,42.44324 0 0 1 19.65625,-4.28125 z m -26.09375,8.1875 18.40625,30.46875 -35.59375,0 a 42.443241,42.443241 0 0 1 17.1875,-30.4687 z"
               transform="matrix(0.07696417,0,0,0.07696417,275.49282,655.07345)"
               id="path3021" />
            <path
               id="path3061"
               d="m 309.90885,684.84263 64.18521,0 a 3.6303851,3.6303851 0 0 0 3.63038,-3.63039 l 0,-21.49188 a 3.6303851,3.6303851 0 0 0 -3.63038,-3.63038 l -64.18521,0 a 3.6303851,3.6303851 0 0 0 -3.63039,3.63038 l 0,21.49188 a 3.6303851,3.6303851 0 0 0 3.63039,3.63039 z"
               style="fill:#e97717;fill-opacity:1;stroke:none"
               inkscape:connector-curvature="0" />
            <path
               inkscape:connector-curvature="0"
               style="fill:#000000;fill-opacity:1;stroke:none"
               d="m 139.90625,219.53125 a 18.867922,18.867922 0 0 0 -18.875,18.875 l 0,106.6875 a 18.867922,18.867922 0 0 0 18.875,18.875 l 119.625,0 a 18.867922,18.867922 0 0 0 18.875,-18.875 l 0,-106.6875 a 18.867922,18.867922 0 0 0 -18.875,-18.875 l -119.625,0 z m 0,11.3125 119.625,0 a 7.547174,7.547174 0 0 1 7.5625,7.5625 l 0,106.6875 a 7.547174,7.547174 0 0 1 -7.5625,7.5625 l -119.625,0 a 7.547174,7.547174 0 0 1 -7.5625,-7.5625 l 0,-106.6875 a 7.547174,7.547174 0 0 1 7.5625,-7.5625 z"
               transform="matrix(0.07696417,0,0,0.07696417,275.49282,655.07345)"
               id="path3023" />
            <path
               id="path3063"
               d="m 355.37832,672.09233 0,6.62301 -1.16173,0 0,-4.36219 -1.06322,0 0,-1.1157 a 1.109458,1.109458 0 0 0 1.06322,-1.14512 l 1.16173,0 z"
               style="fill:#000000;fill-opacity:1;stroke:none"
               inkscape:connector-curvature="0" />
            <path
               id="path3027"
               d="m 292.12321,676.37825 0,-0.29966 a 0.688321,0.688321 0 1 1 1.25534,0.39021 l -2.45325,3.56486 0,0.8311 3.56813,0 0,-1.16173 -1.93037,0 1.7725,-2.57564 a 1.850044,1.850044 0 1 0 -3.37408,-1.0488 l 0,0.29966 1.16173,0 z"
               style="fill:#000000;fill-opacity:1;stroke:none"
               inkscape:connector-curvature="0" />
            <path
               id="path3065"
               d="m 358.62825,672.09233 0,6.62301 -1.16173,0 0,-4.36219 -1.06322,0 0,-1.1157 a 1.109458,1.109458 0 0 0 1.06322,-1.14512 l 1.16173,0 z"
               style="fill:#000000;fill-opacity:1;stroke:none"
               inkscape:connector-curvature="0" />
            <path
               id="path3029"
               d="m 289.3036,674.24174 0,6.62302 -1.16172,0 0,-4.3622 -1.06322,0 0,-1.11569 a 1.109458,1.109458 0 0 0 1.06322,-1.14513 l 1.16172,0 z"
               style="fill:#000000;fill-opacity:1;stroke:none"
               inkscape:connector-curvature="0" />
            <path
               id="path3067"
               d="m 322.64552,666.92298 1.16172,0 0,-6.62302 -1.16172,0 0,6.62302 z"
               style="fill:#000000;fill-opacity:1;stroke:none"
               inkscape:connector-curvature="0" />
            <path
               id="path3069"
               d="m 312.21037,663.06633 0,-2.76637 -1.16172,0 0,6.62302 1.16172,0 0,-2.69493 2.60258,0 0,2.69493 1.16173,0 0,-6.62302 -1.16173,0 0,2.76637 -2.60258,0 z"
               style="fill:#000000;fill-opacity:1;stroke:none"
               inkscape:connector-curvature="0" />
            <path
               id="path3089"
               d="m 359.29943,660.29996 0,1.16173 -2.13404,5.46129 -1.24727,0 2.13404,-5.46129 -2.54658,0 0,-1.16173 3.79385,0 z"
               style="fill:#000000;fill-opacity:1;stroke:none"
               inkscape:connector-curvature="0" />
            <path
               id="path3091"
               d="m 366.20097,668.10352 -3.05196,0 4.9399,-7.71176 4.9399,7.71176 -3.0521,0 0,10.61182 -3.7756,0 0,-10.61182"
               style="fill:#000000;fill-opacity:1;stroke:none"
               inkscape:connector-curvature="0" />
            <path
               id="path3093"
               d="m 351.80512,662.11895 -1.16172,0 a 1.9384071,1.9384071 0 1 1 3.45509,1.2071 2.1705021,2.1705021 0 1 1 -3.65514,1.58332 l 1.16172,0 a 1.008778,1.008778 0 1 0 1.00879,-1.00878 l -0.36137,0 0,-1.00495 0.32933,0 a 0.77668402,0.77668402 0 1 0 -0.7767,-0.77669"
               style="fill:#000000;fill-opacity:1;stroke:none"
               inkscape:connector-curvature="0" />
            <path
               id="path3095"
               d="m 315.75396,676.99429 0.77647,0.86411 a 3.3451291,3.3451291 0 1 1 0.0978,-4.88489 l -0.81043,0.83235 a 2.1834061,2.1834061 0 1 0 -0.0638,3.18843 z"
               style="fill:#000000;fill-opacity:1;stroke:none"
               inkscape:connector-curvature="0" />
            <path
               id="path3097"
               d="m 321.65341,678.66983 0,-2.80428"
               style="fill:#000000;fill-opacity:1;stroke:none"
               inkscape:connector-curvature="0" />
            <path
               id="path3099"
               d="m 321.65282,675.91107 a 1.7396621,1.7396621 0 0 0 -2.70068,-1.49526 l 0,-2.32348 -1.16172,0 0,6.62301 1.16172,0 0,-2.65093 a 0.76947509,0.76947509 0 1 1 1.53895,0 l 0,2.65093 1.16173,0"
               style="fill:#000000;fill-opacity:1;stroke:none"
               inkscape:connector-curvature="0" />
            <path
               id="path3101"
               d="m 329.31769,675.44051 0,3.27483 1.16172,0 0,-3.86346 1.16172,-0.58864 0,-1.0461 -0.50571,0 -0.65601,0.3324 0,-1.45721 -1.16172,0 0,2.04584 -1.03608,0.52497 0,1.30234 1.03608,-0.52497 z"
               style="fill:#000000;fill-opacity:1;stroke:none"
               inkscape:connector-curvature="0" />
            <path
               id="path3103"
               d="m 332.21597,674.13322 0,2.65092 a 1.9312004,1.9312004 0 0 0 3.8624,0 l 0,-2.65092 -1.16172,0 0,2.65092 a 0.76947603,0.76947603 0 0 1 -1.53895,0 l 0,-2.65092 -1.16173,0 z"
               style="fill:#000000;fill-opacity:1;stroke:none"
               inkscape:connector-curvature="0" />
            <path
               style="fill:#000000;fill-opacity:1;stroke:none"
               d="m 337.42012,674.13413 0,6.62132 1.16167,0 0,-2.33779 a 2.2910639,2.2910639 0 1 0 0,-3.9877 l 0,-0.29583 -1.16167,0 z m 2.25841,1.15927 a 1.1293404,1.1293404 0 0 1 1.16168,1.13041 1.1293404,1.1293404 0 1 1 -2.25842,0 1.1293404,1.1293404 0 0 1 1.09674,-1.13041 z"
               id="path3107"
               inkscape:connector-curvature="0" />
            <path
               style="fill:#000000;fill-opacity:1;stroke:none"
               d="m 325.0361,674.13413 a 2.2910639,2.2910639 0 1 0 1.22662,4.20176 5.5257221,5.5257221 0 0 0 0.10342,0.38001 l 1.23383,0 a 4.363999,4.363999 0 0 1 -0.30786,-1.27231 l 0,-3.30946 -1.16168,0 0,0.29583 a 2.2910639,2.2910639 0 0 0 -1.09433,-0.29583 z m -0.0673,1.15927 a 1.1293404,1.1293404 0 0 1 1.16167,1.13041 1.1293404,1.1293404 0 1 1 -2.25841,0 1.1293404,1.1293404 0 0 1 1.09674,-1.13041 z"
               id="path3111"
               inkscape:connector-curvature="0" />
            <path
               id="path3113"
               d="m 342.4909,674.13322 1.38127,4.30355 -0.74446,2.31946 1.2201,0 2.12572,-6.62301 -1.2201,0 -0.77122,2.40285 -0.77122,-2.40285 -1.22009,0 z"
               style="fill:#000000;fill-opacity:1;stroke:none"
               inkscape:connector-curvature="0" />
            <g
               id="g4346"
               transform="matrix(0.85252906,0,0,0.85252906,275.5313,-20.293958)">
              <g
                 id="g4324"
                 inkscape:label="0" />
              <g
                 id="g4326"
                 inkscape:label="linie"
                 transform="matrix(1.0284811,0,0,1.0284811,-0.04513629,-23.544585)" />
            </g>
            <path
               inkscape:connector-curvature="0"
               style="fill:#000000;fill-opacity:1;stroke:none"
               d="m 319.37895,662.33216 a 2.3300745,2.3300745 0 0 0 0.0962,4.65873 l 1.2651,0 0.50267,-1.16168 -1.76777,0 a 1.1683512,1.1683512 0 0 1 -1.06788,-0.69748 l 3.08098,0 0,-1.64511 a 2.3300745,2.3300745 0 0 0 -2.1093,-1.15446 z m 0.13709,1.15927 a 1.1683512,1.1683512 0 0 1 1.06307,0.78407 l -2.20551,0 a 1.1683512,1.1683512 0 0 1 1.14244,-0.78407 z"
               id="path4332" />
          </g>
        </g>
      </g>
    </g>
    <g
       id="g3127"
       transform="matrix(12.960385,0,0,12.960383,-7353.588,-10040.492)">
      <g
         id="g3033"
         inkscape:label="0" />
    </g>
  </g>
</svg>
