<?xml version="1.0" encoding="UTF-8" standalone="no"?>
<!-- Created with Inkscape (http://www.inkscape.org/) -->

<svg
   xmlns:dc="http://purl.org/dc/elements/1.1/"
   xmlns:cc="http://creativecommons.org/ns#"
   xmlns:rdf="http://www.w3.org/1999/02/22-rdf-syntax-ns#"
   xmlns:svg="http://www.w3.org/2000/svg"
   xmlns="http://www.w3.org/2000/svg"
   xmlns:sodipodi="http://sodipodi.sourceforge.net/DTD/sodipodi-0.dtd"
   xmlns:inkscape="http://www.inkscape.org/namespaces/inkscape"
   width="2416"
   height="1712"
   id="svg3866"
   version="1.1"
   inkscape:version="0.48.4 r9939"
   sodipodi:docname="Znak R-4e.svg">
  <title
     id="title3938">Znak R-4e</title>
  <defs
     id="defs3868" />
  <sodipodi:namedview
     id="base"
     pagecolor="#ffffff"
     bordercolor="#666666"
     borderopacity="1.0"
     inkscape:pageopacity="0.0"
     inkscape:pageshadow="2"
     inkscape:zoom="0.16939252"
     inkscape:cx="1208"
     inkscape:cy="856"
     inkscape:document-units="px"
     inkscape:current-layer="g3126"
     showgrid="false"
     inkscape:window-width="751"
     inkscape:window-height="507"
     inkscape:window-x="319"
     inkscape:window-y="206"
     inkscape:window-maximized="0" />
  <metadata
     id="metadata3871">
    <rdf:RDF>
      <cc:Work
         rdf:about="">
        <dc:format>image/svg+xml</dc:format>
        <dc:type
           rdf:resource="http://purl.org/dc/dcmitype/StillImage" />
        <cc:license
           rdf:resource="http://creativecommons.org/licenses/by-sa/3.0/" />
        <dc:title>Znak R-4e</dc:title>
        <dc:date>2013-11-05</dc:date>
        <dc:creator>
          <cc:Agent>
            <dc:title>Blackfish</dc:title>
          </cc:Agent>
        </dc:creator>
      </cc:Work>
      <cc:License
         rdf:about="http://creativecommons.org/licenses/by-sa/3.0/">
        <cc:permits
           rdf:resource="http://creativecommons.org/ns#Reproduction" />
        <cc:permits
           rdf:resource="http://creativecommons.org/ns#Distribution" />
        <cc:requires
           rdf:resource="http://creativecommons.org/ns#Notice" />
        <cc:requires
           rdf:resource="http://creativecommons.org/ns#Attribution" />
        <cc:permits
           rdf:resource="http://creativecommons.org/ns#DerivativeWorks" />
        <cc:requires
           rdf:resource="http://creativecommons.org/ns#ShareAlike" />
      </cc:License>
    </rdf:RDF>
  </metadata>
  <g
     inkscape:label="Layer 1"
     inkscape:groupmode="layer"
     id="layer1"
     transform="translate(0,659.63782)">
    <g
       id="g3126"
       transform="translate(-16731.453,3296.1888)">
      <g
         id="g3018"
         inkscape:label="0" />
      <g
         id="g3020"
         inkscape:label="linie"
         transform="matrix(1.0621603,0,0,1.0621603,-1581.614,636.08215)">
        <path
           id="path3106"
           d="m 19459.261,-4323.1785 -2161.233,0 a 56.688074,56.679007 0 0 0 -56.688,56.6791 l 0,1498.4512 a 56.688074,56.679007 0 0 0 56.688,56.679 l 2161.233,0 a 56.688074,56.679007 0 0 0 56.689,-56.679 l 0,-1498.4512 a 56.688074,56.679007 0 0 0 -56.689,-56.6791 z"
           style="fill:#000000;fill-opacity:1;stroke:none"
           inkscape:connector-curvature="0" />
        <path
           id="path3108"
           d="m 19459.26,-4284.2116 -2161.233,0 a 17.715022,17.71219 0 0 0 -17.714,17.7121 l 0,1498.4513 a 17.715022,17.71219 0 0 0 17.714,17.7122 l 2161.233,0 a 17.715022,17.71219 0 0 0 17.716,-17.7122 l 0,-1498.4513 a 17.715022,17.71219 0 0 0 -17.716,-17.7121 z"
           style="fill:#e97717;fill-opacity:1;stroke:none"
           inkscape:connector-curvature="0" />
        <path
           inkscape:connector-curvature="0"
           style="fill:#000000;fill-opacity:1;stroke:none"
           d="m 1241.5,89.75 a 60.216961,60.216961 0 0 0 -60.2188,60.21875 l 0,278.5 A 60.216961,60.216961 0 0 0 1241.5,488.6875 l 278.5,0 a 60.216961,60.216961 0 0 0 60.2188,-60.21875 l 0,-278.5 A 60.216961,60.216961 0 0 0 1520,89.75 l -278.5,0 z m 0,13.1875 278.5,0 a 47.044502,47.044502 0 0 1 47.0312,47.03125 l 0,278.5 A 47.044502,47.044502 0 0 1 1520,475.53125 l -278.5,0 a 47.044502,47.044502 0 0 1 -47.0625,-47.0625 l 0,-278.5 A 47.044502,47.044502 0 0 1 1241.5,102.9375 z"
           transform="matrix(0.94147748,0,0,0.94147748,17241.34,-4323.1787)"
           id="path3022" />
        <path
           inkscape:connector-curvature="0"
           style="fill:#000000;fill-opacity:1;stroke:none"
           d="m 1338.2812,128.75 a 10.998142,10.998142 0 0 0 -10.5624,7.90625 l -15.375,52.5625 a 49.857612,49.857612 0 1 0 7.2187,2.09375 l 2.375,-8.09375 56.7187,48.71875 a 14.165073,14.165073 0 1 0 26.4688,9.8125 l 4.0938,0 a 49.857612,49.857612 0 1 0 27.2187,-48.28125 L 1418.9688,164.5625 1423,152 l 17.25,0 0,-15.125 -47.1562,0 a 3.1621033,3.1621033 0 0 0 -0.875,5.96875 73.171492,73.171492 0 0 0 23.1562,8.28125 l -2.5312,7.875 -83.8126,0 6.6563,-22.71875 15.4687,0 0,-7.53125 -12.875,0 z m -11.4374,37.78125 83.5937,0 -18.375,57.28125 a 14.165073,14.165073 0 0 0 -8.5,2.40625 l -59.3125,-50.9375 2.5938,-8.75 z m 89.0624,7.53125 L 1430,197.375 a 49.857612,49.857612 0 0 0 -20.7812,36.84375 l -4.0938,0 a 14.165073,14.165073 0 0 0 -5.9062,-8.09375 l 16.6874,-52.0625 z m -114.3124,21.59375 a 42.330492,42.330492 0 0 1 8.625,0.78125 L 1300,231.40625 a 6.8647877,6.8647877 0 1 0 7.2188,2.125 l 10.2187,-34.96875 a 42.330492,42.330492 0 1 1 -15.8437,-2.90625 z m 158.3437,0 A 42.330492,42.330492 0 1 1 1416.7812,241.75 l 36.4063,0 a 6.8647877,6.8647877 0 1 0 6,-10.625 l -18.8437,-31.1875 a 42.330492,42.330492 0 0 1 19.5937,-4.28125 z m -26.0313,8.1875 18.375,30.375 -35.5,0 a 42.330492,42.330492 0 0 1 17.125,-30.375 z"
           transform="matrix(0.94147748,0,0,0.94147748,17241.34,-4323.1787)"
           id="path3036" />
        <path
           inkscape:connector-curvature="0"
           style="fill:#000000;fill-opacity:1;stroke:none"
           d="m 1320.8125,308.71875 a 18.8178,18.8178 0 0 0 -18.8437,18.8125 l 0,106.40625 a 18.8178,18.8178 0 0 0 18.8437,18.8125 l 119.3125,0 a 18.8178,18.8178 0 0 0 18.8125,-18.8125 l 0,-106.40625 a 18.8178,18.8178 0 0 0 -18.8125,-18.8125 l -119.3125,0 z m 0,11.28125 119.3125,0 a 7.5271201,7.5271201 0 0 1 7.5312,7.53125 l 0,106.40625 a 7.5271201,7.5271201 0 0 1 -7.5312,7.53125 l -119.3125,0 a 7.5271201,7.5271201 0 0 1 -7.5313,-7.53125 l 0,-106.40625 A 7.5271201,7.5271201 0 0 1 1320.8125,320 z"
           transform="matrix(0.94147748,0,0,0.94147748,17241.34,-4323.1787)"
           id="path3038" />
        <path
           id="path3042"
           d="m 18556.381,-3978.7495 0,-3.6559 a 8.397638,8.397638 0 1 1 15.315,4.7607 l -29.93,43.4919 0,10.1395 43.532,0 0,-14.1732 -23.551,0 21.625,-31.4233 a 22.570866,22.570866 0 1 0 -41.164,-12.7956 l 0,3.6559 14.173,0 z"
           style="fill:#000000;fill-opacity:1;stroke:none"
           inkscape:connector-curvature="0" />
        <path
           id="path3044"
           d="m 18521.981,-4004.8153 0,80.802 -14.173,0 0,-53.2196 -12.971,0 0,-13.6117 a 13.535588,13.535588 0 0 0 12.971,-13.9707 l 14.173,0 z"
           style="fill:#000000;fill-opacity:1;stroke:none"
           inkscape:connector-curvature="0" />
        <path
           id="path3046"
           d="m 18651.452,-3631.9658 24.803,0 0,-141.4034 -24.803,0 0,141.4034 z"
           style="fill:#000000;fill-opacity:1;stroke:none"
           inkscape:connector-curvature="0" />
        <path
           id="path3048"
           d="m 18428.659,-3714.3065 0,-59.0627 -24.803,0 0,141.4034 24.803,0 0,-57.5375 55.566,0 0,57.5375 24.803,0 0,-141.4034 -24.803,0 0,59.0627 -55.566,0 z"
           style="fill:#000000;fill-opacity:1;stroke:none"
           inkscape:connector-curvature="0" />
        <path
           inkscape:connector-curvature="0"
           style="fill:#000000;fill-opacity:1;stroke:none"
           d="m 1423.6875,630.0625 a 52.840142,52.840142 0 0 0 2.1875,105.625 l 28.6562,0 11.4376,-26.34375 -40.0938,0 a 26.495221,26.495221 0 0 1 -24.25,-15.8125 l 69.9062,0 0,-37.3125 a 52.840142,52.840142 0 0 0 -47.8437,-26.15625 z m 3.125,26.3125 a 26.495221,26.495221 0 0 1 24.0937,17.75 l -50.0312,0 a 26.495221,26.495221 0 0 1 25.9375,-17.75 z"
           transform="matrix(0.94147748,0,0,0.94147748,17241.34,-4323.1787)"
           id="path3052" />
        <path
           inkscape:connector-curvature="0"
           style="fill:#000000;fill-opacity:1;stroke:none"
           d="M 327.03125,906.90625 A 60.216961,60.216961 0 0 0 266.8125,967.125 l 0,278.5312 a 60.216961,60.216961 0 0 0 60.21875,60.1876 l 278.5,0 A 60.216961,60.216961 0 0 0 665.75,1245.6562 l 0,-278.5312 a 60.216961,60.216961 0 0 0 -60.21875,-60.21875 l -278.5,0 z m 0,13.1875 278.5,0 a 47.044502,47.044502 0 0 1 47.0625,47.03125 l 0,278.5312 a 47.044502,47.044502 0 0 1 -47.0625,47.0313 l -278.5,0 A 47.044502,47.044502 0 0 1 280,1245.6562 l 0,-278.5312 a 47.044502,47.044502 0 0 1 47.03125,-47.03125 z"
           transform="matrix(0.94147748,0,0,0.94147748,17241.34,-4323.1787)"
           id="path3054" />
        <path
           inkscape:connector-curvature="0"
           style="fill:#000000;fill-opacity:1;stroke:none"
           d="m 423.8125,945.90625 a 10.998142,10.998142 0 0 0 -10.53125,7.90625 L 397.875,1006.375 a 49.857612,49.857612 0 1 0 7.21875,2.0938 l 2.375,-8.0938 56.75,48.7188 a 14.165073,14.165073 0 1 0 26.46875,9.8124 l 4.0625,0 A 49.857612,49.857612 0 1 0 522,1010.625 l -17.5,-28.90625 4.03125,-12.5625 17.28125,0 0,-15.125 -47.1875,0 a 3.1621033,3.1621033 0 0 0 -0.875,6 73.171492,73.171492 0 0 0 23.15625,8.25 l -2.53125,7.875 -83.8125,0 6.65625,-22.71875 15.46875,0 0,-7.53125 -12.875,0 z m -11.4375,37.78125 83.59375,0 -18.375,57.2813 a 14.165073,14.165073 0 0 0 -8.5,2.4062 l -59.28125,-50.90625 2.5625,-8.78125 z m 89.09375,7.53125 14.0625,23.31245 A 49.857612,49.857612 0 0 0 494.75,1051.375 l -4.0625,0 a 14.165073,14.165073 0 0 0 -5.90625,-8.0938 l 16.6875,-52.06245 z M 387.125,1012.8125 a 42.330492,42.330492 0 0 1 8.625,0.8125 l -10.21875,34.9375 a 6.8647877,6.8647877 0 1 0 7.21875,2.125 l 10.21875,-34.9687 a 42.330492,42.330492 0 1 1 -15.84375,-2.9063 z m 158.34375,0 a 42.330492,42.330492 0 1 1 -43.15625,46.0937 l 36.4375,0 a 6.8647877,6.8647877 0 1 0 5.96875,-10.625 l -18.8125,-31.1874 a 42.330492,42.330492 0 0 1 19.5625,-4.2813 z M 519.4375,1021 l 18.375,30.375 -35.5,0 A 42.330492,42.330492 0 0 1 519.4375,1021 z"
           transform="matrix(0.94147748,0,0,0.94147748,17241.34,-4323.1787)"
           id="path3068" />
        <path
           id="path3070"
           d="m 17602.641,-3127.5812 154.857,0 a 17.716535,17.716535 0 0 0 17.717,-17.7166 l 0,-100.1786 a 17.716535,17.716535 0 0 0 -17.717,-17.7166 l -154.857,0 a 17.716535,17.716535 0 0 0 -17.717,17.7166 l 0,100.1786 a 17.716535,17.716535 0 0 0 17.717,17.7166 z"
           style="fill:#000000;fill-opacity:1;stroke:none"
           inkscape:connector-curvature="0" />
        <path
           id="path3072"
           d="m 17602.641,-3138.2111 154.857,0 a 7.086614,7.086614 0 0 0 7.087,-7.0867 l 0,-100.1786 a 7.086614,7.086614 0 0 0 -7.087,-7.0866 l -154.857,0 a 7.086614,7.086614 0 0 0 -7.087,7.0866 l 0,100.1786 a 7.086614,7.086614 0 0 0 7.087,7.0867 z"
           style="fill:#0093dc;fill-opacity:1;stroke:none"
           inkscape:connector-curvature="0" />
        <path
           id="path3074"
           d="m 17894.636,-2863.4824 24.803,0 0,-94.8812 -24.803,0 0,94.8812 z"
           style="fill:#000000;fill-opacity:1;stroke:none"
           inkscape:connector-curvature="0" />
        <path
           inkscape:connector-curvature="0"
           style="fill:#000000;fill-opacity:1;stroke:none"
           d="m 87.34375,1400.25 0,150.1875 26.34375,0 0,-61.125 23.875,0 31.78125,61.125 29.71875,0 -36.40625,-69.9687 a 44.539511,44.539511 0 0 0 -26.625,-80.2188 l -48.6875,0 z m 26.34375,26.3438 22.34375,0 a 18.19459,18.19459 0 0 1 0,36.375 l -22.34375,0 0,-36.375 z"
           transform="matrix(0.94147748,0,0,0.94147748,17241.34,-4323.1787)"
           id="path3096" />
        <path
           inkscape:connector-curvature="0"
           style="fill:#000000;fill-opacity:1;stroke:none"
           d="m 475.84375,1446.3125 a 52.840142,52.840142 0 0 0 2.1875,105.625 l 28.65625,0 11.4375,-26.3437 -40.09375,0 a 26.495221,26.495221 0 0 1 -24.25,-15.8126 l 69.90625,0 0,-37.3124 a 52.840142,52.840142 0 0 0 -47.84375,-26.1563 z m 3.125,26.3125 a 26.495221,26.495221 0 0 1 24.09375,17.75 l -50.03125,0 a 26.495221,26.495221 0 0 1 25.9375,-17.75 z"
           transform="matrix(0.94147748,0,0,0.94147748,17241.34,-4323.1787)"
           id="path3080" />
        <path
           id="path3082"
           d="m 17894.636,-2980.0827 24.803,0 0,-24.8032 -24.803,0 0,24.8032 z"
           style="fill:#000000;fill-opacity:1;stroke:none"
           inkscape:connector-curvature="0" />
        <path
           inkscape:connector-curvature="0"
           style="fill:#000000;fill-opacity:1;stroke:none"
           d="m 797.5625,1446.3125 a 52.840142,52.840142 0 0 0 2.21875,105.625 l 28.65625,0 11.40625,-26.3437 -40.0625,0 a 26.495221,26.495221 0 0 1 -24.25,-15.8126 l 69.875,0 0,-37.3124 a 52.840142,52.840142 0 0 0 -47.84375,-26.1563 z m 3.125,26.3125 a 26.495221,26.495221 0 0 1 24.09375,17.75 l -50.03125,0 a 26.495221,26.495221 0 0 1 25.9375,-17.75 z"
           transform="matrix(0.94147748,0,0,0.94147748,17241.34,-4323.1787)"
           id="path3086" />
        <path
           inkscape:connector-curvature="0"
           style="fill:#000000;fill-opacity:1;stroke:none"
           d="m 261.21875,1446.0938 a 52.840142,52.840142 0 0 0 -51.5,53.0312 52.84375,52.84375 0 1 0 105.6875,0 52.840142,52.840142 0 0 0 -54.1875,-53.0312 z m 0.65625,26.4374 a 26.495221,26.495221 0 0 1 27.1875,26.5938 26.5,26.5 0 1 1 -53,0 26.495221,26.495221 0 0 1 25.8125,-26.5938 z"
           transform="matrix(0.94147748,0,0,0.94147748,17241.34,-4323.1787)"
           id="path3088" />
        <path
           id="path3092"
           d="m 17810.112,-2912.041 -15.365,48.5586 -25.436,0 -21.562,-94.8812 25.435,0 10.689,47.0314 14.882,-47.0314 22.714,0 14.883,47.0314 10.688,-47.0314 25.435,0 -21.562,94.8812 -25.436,0 -15.365,-48.5586 z"
           style="fill:#000000;fill-opacity:1;stroke:none"
           inkscape:connector-curvature="0" />
        <path
           id="path3094"
           d="m 17557.517,-2933.5605 31.042,0 -31.042,51.903 0,18.1751 66.698,0 0,-24.8032 -33.833,0 33.833,-56.5694 0,-13.5086 -66.698,0 0,24.8031 z"
           style="fill:#000000;fill-opacity:1;stroke:none"
           inkscape:connector-curvature="0" />
        <path
           inkscape:connector-curvature="0"
           style="fill:#000000;fill-opacity:1;stroke:none"
           d="m 1915.75,1193.5312 0,150.1876 26.3438,0 0,-61.125 22.3437,0 a 44.539511,44.539511 0 0 0 0,-89.0626 l -48.6875,0 z m 26.3438,26.3438 22.3437,0 a 18.194594,18.194594 0 0 1 0,36.375 l -22.3437,0 0,-36.375 z"
           transform="matrix(0.94147748,0,0,0.94147748,17241.34,-4323.1787)"
           id="path3098" />
        <path
           id="path3102"
           d="m 19141.874,-3154.0105 0,56.5981 a 41.232,41.232 0 0 0 82.464,0 l 0,-56.5981 -24.804,0 0,56.5981 a 16.428561,16.428561 0 0 1 -32.857,0 l 0,-56.5981 -24.803,0 z"
           style="fill:#000000;fill-opacity:1;stroke:none"
           inkscape:connector-curvature="0" />
        <path
           id="path3104"
           d="m 18403.397,-3091.5005 a 141.20081,141.20081 0 1 1 99.007,99.0064 l 0,203.3802 74.409,0 0,-127.2153 a 215.61026,215.61026 0 0 0 175.171,-175.1713 l 143.696,0 58.081,-37.2047 -58.081,-37.2048 -143.696,0 a 215.61026,215.61026 0 0 0 -175.171,-175.1713 l 0,-143.6956 -37.205,-58.0809 -37.204,58.0809 0,143.6956 a 215.61026,215.61026 0 0 0 -175.172,175.1713 l -143.695,0 -58.081,37.2048 58.081,37.2047 219.86,0 z"
           style="fill:#000000;fill-opacity:1;stroke:none"
           inkscape:connector-curvature="0" />
        <g
           id="g4266"
           transform="matrix(0.99297696,0,0,0.99297696,141.44147,-21.43001)">
          <g
             id="g4246"
             inkscape:label="0" />
          <g
             id="g4248"
             inkscape:label="linie" />
        </g>
        <path
           id="path4250"
           d="m 19311.957,-3124.9104 11.815,-22.219 a 48.914878,48.914878 0 1 0 4.751,76.5681 l -16.566,-18.4593 a 24.111748,24.111748 0 1 1 0,-35.8898 z"
           style="fill:#000000;fill-opacity:1;stroke:none"
           inkscape:connector-curvature="0" />
        <path
           id="path4252"
           d="m 19439.238,-3058.0507 -40.279,-49.6366 38.248,-46.276 -29.88,0 -27.981,33.8542 -3.345,0 0,-79.3449 -24.803,0 0,141.4033 24.803,0 0,-37.2552 3.345,0 30.232,37.2552 29.297,0"
           style="fill:#000000;fill-opacity:1;stroke:none"
           inkscape:connector-curvature="0" />
      </g>
    </g>
  </g>
</svg>
