<?xml version="1.0" encoding="UTF-8" standalone="no"?>
<!-- Created with Inkscape (http://www.inkscape.org/) -->
<svg
   xmlns:svg="http://www.w3.org/2000/svg"
   xmlns="http://www.w3.org/2000/svg"
   version="1.0"
   width="1579.8555"
   height="530.92664"
   id="svg2">
  <defs
     id="defs4" />
  <g
     transform="translate(414.92773,-52.613129)"
     id="layer1">
    <g
       id="g2560">
      <rect
         width="1554.8555"
         height="505.92664"
         rx="34.991058"
         ry="36.281586"
         x="-402.42773"
         y="65.113129"
         id="rect2409"
         style="fill:#ffffff;fill-opacity:1;stroke:#000000;stroke-width:25;stroke-miterlimit:4;stroke-dasharray:none;stroke-opacity:1" />
      <path
         d="M -87.935481,187.28451 L 42.962519,187.28451 L 42.962519,124.46153 L -145.50648,124.46153 L -161.21228,312.93051 L -66.977781,312.93051 C -49.201181,313.3397 -34.399581,319.39295 -22.572781,331.0903 C -10.746381,342.78797 -4.6069812,357.67567 -4.1547812,375.75351 C -4.6069812,393.83156 -10.746381,408.7193 -22.572781,420.41672 C -34.399581,432.11428 -49.201281,438.16757 -66.977781,438.57651 C -70.446881,438.56925 -73.840181,438.30086 -77.157381,437.7713 L -170.40638,423.06707 L -175.62808,485.97439 L -86.458381,499.88796 C -80.101181,500.88722 -73.607681,501.39106 -66.977781,501.39951 C -31.424281,500.48334 -1.8208812,488.18049 21.832519,464.49097 C 45.485319,440.80152 57.763919,411.2224 58.668219,375.75351 C 57.763919,340.28486 45.485319,310.70571 21.832519,287.01602 C -1.8208812,263.32675 -31.424281,251.02392 -66.977781,250.10751 C -76.057681,250.12399 -84.867281,251.05823 -93.406581,252.91021 L -87.935481,187.28451 L -87.935481,187.28451 z M 171.74852,312.93051 C 171.77272,296.58794 173.13542,280.62517 175.83652,265.04219 C 178.53752,249.4597 182.43102,234.35704 187.51702,219.73418 C 190.96032,210.14683 196.87582,202.38553 205.26352,196.45028 C 213.65102,190.51563 223.42032,187.46038 234.57152,187.28451 C 245.72232,187.46042 255.49162,190.51566 263.87942,196.45028 C 272.26682,202.38553 278.18222,210.14683 281.62592,219.73418 C 286.71162,234.35704 290.60502,249.45974 293.30632,265.04223 C 296.00722,280.62517 297.36992,296.58794 297.39442,312.93051 C 297.36992,329.27347 296.00722,345.23624 293.30632,360.8188 C 290.60502,376.40167 286.71162,391.50433 281.62592,406.12685 C 278.18222,415.71437 272.26682,423.47559 263.87942,429.41057 C 255.49162,435.34564 245.72232,438.40096 234.57152,438.57651 C 223.42032,438.40096 213.65102,435.34564 205.26352,429.41053 C 196.87582,423.47556 190.96032,415.71433 187.51702,406.12685 C 182.43102,391.50433 178.53752,376.40167 175.83652,360.8188 C 173.13542,345.23624 171.77272,329.27347 171.74852,312.93051 L 171.74852,312.93051 z M 108.92552,312.93051 C 109.05132,333.28254 111.14252,353.15547 115.19892,372.54941 C 119.25532,391.94363 124.52132,410.72481 130.99702,428.89305 C 139.04012,450.41661 152.27212,467.78742 170.69312,481.00546 C 189.11392,494.22358 210.40662,501.0216 234.57152,501.39951 C 258.73602,501.0216 280.02882,494.22362 298.44992,481.0055 C 316.87072,467.78742 330.10282,450.41661 338.14612,428.89305 C 344.62132,410.72481 349.88722,391.94363 353.94392,372.54941 C 358.00004,353.15547 360.0912,333.28254 360.21744,312.93051 C 360.09124,292.57887 358.00004,272.7059 353.94392,253.31158 C 349.88722,233.91774 344.62132,215.13656 338.14612,196.96791 C 330.10282,175.44487 316.87072,158.07413 298.44992,144.85563 C 280.02882,131.63785 258.73602,124.83982 234.57152,124.46153 C 210.40662,124.83982 189.11392,131.63785 170.69312,144.85563 C 152.27212,158.07413 139.04012,175.44487 130.99702,196.96791 C 124.52132,215.13656 119.25532,233.91774 115.19892,253.31158 C 111.14252,272.7059 109.05132,292.57887 108.92552,312.93051 L 108.92552,312.93051 z M 616.80829,250.10751 L 616.80829,501.39951 L 679.63129,501.39951 L 679.63129,352.19487 C 679.91257,341.07668 683.74737,331.82337 691.13575,324.43496 C 698.52384,317.0469 707.77714,313.2121 718.89567,312.93051 C 730.01387,313.2121 739.26717,317.0469 746.65558,324.43496 C 754.04361,331.82337 757.87845,341.07668 758.16003,352.19487 L 758.16003,501.39951 L 820.98303,501.39951 L 820.98303,352.19487 C 821.26417,341.07668 825.09901,331.82337 832.48749,324.43496 C 839.87544,317.0469 849.12875,313.2121 860.2474,312.93051 C 871.36545,313.2121 880.61876,317.0469 888.00731,324.43496 C 895.39523,331.82337 899.23003,341.07668 899.51179,352.19487 L 899.51179,501.39951 L 962.33476,501.39951 L 962.33476,344.34199 C 961.65903,317.65813 952.45546,295.45022 934.72405,277.71822 C 916.99191,259.98667 894.784,250.7831 868.10027,250.10751 C 855.11565,250.19019 842.9814,252.62248 831.69756,257.40441 C 820.4132,262.18679 810.47408,268.8243 801.88013,277.31695 C 794.58599,268.89406 785.84826,262.27649 775.66685,257.4642 C 765.48503,252.65239 754.41419,250.20014 742.45428,250.10751 C 729.49764,250.22478 717.60864,253.07732 706.7872,258.66509 C 695.96549,264.25335 686.91353,271.87472 679.63129,281.52922 L 679.63129,250.10751 L 616.80829,250.10751 L 616.80829,250.10751 z"
         id="path2558"
         style="font-size:144px;font-style:normal;font-weight:normal;line-height:125%;fill:#000000;fill-opacity:1;stroke:none;stroke-width:1px;stroke-linecap:butt;stroke-linejoin:miter;stroke-opacity:1;font-family:Drogowskaz" />
    </g>
  </g>
</svg>
