<?xml version="1.0" encoding="UTF-8" standalone="no"?>
<svg
   xmlns:dc="http://purl.org/dc/elements/1.1/"
   xmlns:cc="http://creativecommons.org/ns#"
   xmlns:rdf="http://www.w3.org/1999/02/22-rdf-syntax-ns#"
   xmlns:svg="http://www.w3.org/2000/svg"
   xmlns="http://www.w3.org/2000/svg"
   id="svg4284"
   height="700.02301"
   width="992.78644"
   version="1.0">
  <metadata
     id="metadata12">
    <rdf:RDF>
      <cc:Work
         rdf:about="">
        <dc:format>image/svg+xml</dc:format>
        <dc:type
           rdf:resource="http://purl.org/dc/dcmitype/StillImage" />
        <dc:title></dc:title>
      </cc:Work>
    </rdf:RDF>
  </metadata>
  <defs
     id="defs4286">
    <pattern
       patternUnits="userSpaceOnUse"
       width="370"
       height="476"
       patternTransform="translate(18.50938,18)"
       id="pattern5932">
      <rect
         ry="20"
         rx="20"
         y="0"
         x="0"
         height="476"
         width="370"
         id="rect5934"
         style="fill:#00e5ff;fill-opacity:1" />
    </pattern>
    <pattern
       id="pattern4002"
       patternTransform="translate(18.50938,18)"
       height="476"
       width="370"
       patternUnits="userSpaceOnUse">
      <rect
         style="fill:#00e5ff;fill-opacity:1"
         id="rect2240"
         width="370"
         height="476"
         x="0"
         y="0"
         rx="20"
         ry="20" />
    </pattern>
    <marker
       refX="0"
       refY="0"
       orient="auto"
       id="Arrow2Lstart"
       style="overflow:visible">
      <path
         d="M 8.7185878,4.0337352 -2.2072895,0.01601326 8.7185884,-4.0017078 c -1.7454984,2.3720609 -1.7354408,5.6174519 -6e-7,8.035443 z"
         transform="matrix(1.1,0,0,1.1,1.1,0)"
         id="path5785"
         style="font-size:12px;fill-rule:evenodd;stroke-width:0.625;stroke-linejoin:round" />
    </marker>
  </defs>
  <g
     transform="matrix(1.9814268,0,0,1.9814268,2404.7974,171.49417)"
     id="g4604">
    <rect
       ry="13.0278"
       rx="13.0278"
       y="-83.05085"
       x="-1210.1696"
       height="346.29239"
       width="494.04117"
       id="rect4596"
       style="opacity:1;fill:#ffffff;fill-opacity:1;stroke:#000000;stroke-width:7;stroke-linecap:square;stroke-linejoin:round;stroke-miterlimit:4;stroke-dasharray:none;stroke-dashoffset:0;stroke-opacity:1" />
    <g
       id="g4602">
      <path
         style="opacity:1;fill:#000000;fill-opacity:1;fill-rule:nonzero;stroke:none"
         id="path4598"
         d="m -1063.5217,158.09272 v 77.26931 c 8.1028,2.17115 16.4779,2.14921 24.4989,0 V 215.319 h 4.9715 v -10.43994 h 47.86264 11.4619 c 2.4828,3.21755 6.3683,5.30283 10.7437,5.30283 4.37541,0 8.26071,-2.08528 10.74371,-5.30283 h 18.3666 42.29513 V 215.319 h 4.9713 v 20.04303 c 8.24623,2.20957 16.84216,2.11482 24.73478,0 v -77.26931 c -9.06844,-2.42988 -15.66965,-2.42899 -24.73478,0 v 18.33892 h -4.9713 v 12.23516 h -42.48853 -17.9245 c -2.4673,-3.40394 -6.47,-5.63426 -10.99241,-5.63426 -4.5224,0 -8.5251,2.23032 -10.9922,5.63426 h -11.2134 -47.86264 v -12.23516 h -4.9715 v -18.33892 c -8.4127,-2.25416 -16.3487,-2.51154 -24.4989,0 z" />
      <path
         style="opacity:1;fill:#ff9600;fill-opacity:1;stroke:#000000;stroke-width:7;stroke-linecap:square;stroke-linejoin:round;stroke-miterlimit:4;stroke-dasharray:none;stroke-dashoffset:0;stroke-opacity:1"
         d="m -1037.7138,-33.368645 h 148.75896 c 12.76327,0 23.0384,10.275124 23.0384,23.038393 V 145.65864 H -1060.7522 V -10.330252 c 0,-12.763269 10.2751,-23.038393 23.0384,-23.038393 z"
         id="path4600" />
    </g>
  </g>
</svg>
