<?xml version="1.0" encoding="UTF-8" standalone="no"?>
<!-- Created with Inkscape (http://www.inkscape.org/) -->

<svg
   xmlns:svg="http://www.w3.org/2000/svg"
   xmlns="http://www.w3.org/2000/svg"
   version="1.1"
   width="512.81836"
   height="453.10559"
   id="svg2">
  <title
     id="title3743">Znak A-32</title>
  <defs
     id="defs4">
			
			
			
		</defs>
  <g
     transform="translate(-949.3051,2.762043)"
     id="layer1">
    <g
       transform="translate(949.3051,-2.7620241)"
       id="g2829">
      <g
         transform="translate(-1.2492967e-4,5.7530595e-4)"
         id="g2874" />
      <g
         transform="translate(-1.2492967e-4,5.7530595e-4)"
         id="g2893" />
      <g
         transform="translate(-1.2492967e-4,5.7530595e-4)"
         id="g3797">
        <path
           d="m 241.48562,25.071 c 3.258,-5.646 9.328,-8.938 15.838,-8.591 5.848,0.312 11.086,3.522 14.013,8.594 0,0 222.736,385.738 222.735,385.737 3.066,5.313 3.065,11.914 -0.002,17.227 -3.068,5.313 -8.787,8.612 -14.924,8.612 0,0 -445.469995,0 -445.471995,0 -6.14,0 -11.854,-3.3 -14.927,-8.613 -3.065,-5.312 -3.065,-11.908 -0.002,-17.225 0.004,0 222.740995,-385.738 222.740995,-385.741 z"
           id="yellow"
           style="fill:#febe0b;fill-opacity:1;stroke:none" />
        <path
           d="M 4.4996249,402.583 227.23362,16.844 c 6.372,-11.036 18.233,-17.473 30.961,-16.796 11.429,0.604 21.668,6.885 27.391,16.797 0,-10e-4 222.735,385.738 222.735,385.738 5.998,10.39 5.997,23.296 -0.002,33.683 -5.999,10.387 -17.177,16.839 -29.174,16.839 l -445.469995,0 c -11.996,0 -23.179,-6.452 -29.1770001,-16.839 -5.996,-10.388 -5.998,-23.295 0.002,-33.683 z m 14.2500001,25.454 c 3.068,5.313 8.787,8.613 14.927,8.613 0.002,0 445.471995,0 445.471995,0 6.138,0 11.855,-3.3 14.924,-8.611 3.068,-5.312 3.069,-11.91 0.002,-17.228 0,0.001 -222.735,-385.737 -222.735,-385.737 -2.927,-5.068 -8.166,-8.28 -14.013,-8.594 -6.51,-0.347 -12.581,2.946 -15.838,8.592 0,0.001 -222.735995,385.74 -222.735995,385.74 -3.071,5.313 -3.069,11.912 -0.003,17.225 z"
           id="boarder"
           style="fill:#d40000;fill-opacity:1;stroke:none" />
      </g>
    </g>
    <g
       transform="matrix(0.99994312,0,0,0.99994312,1559.2605,57.219065)"
       id="g3713"
       style="opacity:0.5">
      <g
         transform="translate(-1.2492967e-4,5.7530595e-4)"
         id="g3715" />
      <g
         transform="translate(-1.2492967e-4,5.7530595e-4)"
         id="g3717" />
      <g
         transform="translate(-1.2492967e-4,5.7530595e-4)"
         id="g3719" />
    </g>
    <path
       d="m 1196.5324,166.82882 0,22.31796 -10.9976,-6.98597 -9,11.94325 19.9976,12.63645 0,59.93466 -52.4554,-30.28513 0,-23.34808 -14.4504,1.95825 0,13.04687 -18.5937,-10.73518 -7.3436,12.71943 18.9265,10.92737 -12.4562,6.19635 5.9759,14.07855 20.7286,-12.04872 52.8801,30.53027 -52.8193,30.49516 -20.2158,-11.50997 -5.7018,13.84691 10.4042,6.61969 -18.2338,10.5273 7.7591,13.09068 18.6898,-10.79059 0,13.54116 14.4504,2.36211 0,-24.24623 52.4554,-30.28513 0,61.01527 -20.1381,12.09507 9.3305,11.28873 10.8076,-6.5659 0,22.06719 14.9872,0 0,-21.95198 11.0022,6.30026 9.5749,-11.4108 -20.5771,-12.05296 0,-61.86382 52.1297,30.09702 0,25.20091 15.2651,-1.95824 0,-14.42934 18.8682,10.89364 7.3437,-12.71942 -17.9586,-10.3684 10.0621,-6.20597 -5.7595,-13.93813 -19.6104,11.30611 -52.2122,-30.14477 52.6077,-30.37308 19.2149,11.42904 5.6443,-14.16849 -10.3781,-5.62122 17.8983,-10.33362 -7.717,-13.11494 -18.3255,10.58019 0,-13.47598 -14.943,-2.01585 0,24.11923 -52.1297,30.09701 0,-60.37897 20.4361,-12.39767 -9.2828,-12.31875 -11.1533,7.32256 0,-22.54135 -14.9872,0 z"
       id="path3741"
       style="fill:#000000;fill-opacity:1;stroke:none" />
  </g>
</svg>
