<?xml version="1.0" encoding="UTF-8" standalone="no"?>
<!-- Created with Inkscape (http://www.inkscape.org/) -->

<svg
   xmlns:svg="http://www.w3.org/2000/svg"
   xmlns="http://www.w3.org/2000/svg"
   version="1.1"
   width="500.00293"
   height="500.00275"
   id="svg2">
  <title
     id="title3873">Znak B-13</title>
  <defs
     id="defs4">
    <marker
       refX="0"
       refY="0"
       orient="auto"
       id="Arrow2Lstart"
       style="overflow:visible">
      <path
         d="M 8.7185878,4.0337352 -2.2072895,0.01601326 8.7185884,-4.0017078 c -1.7454984,2.3720609 -1.7354408,5.6174519 -6e-7,8.035443 z"
         transform="matrix(1.1,0,0,1.1,1.1,0)"
         id="path5785"
         style="font-size:12px;fill-rule:evenodd;stroke-width:0.625;stroke-linejoin:round" />
    </marker>
    <pattern
       id="pattern4002"
       patternTransform="translate(18.50938,18)"
       height="476"
       width="370"
       patternUnits="userSpaceOnUse">
      <rect
         style="fill:#00e5ff;fill-opacity:1"
         id="rect2240"
         width="370"
         height="476"
         x="0"
         y="0"
         rx="20"
         ry="20" />
    </pattern>
    <pattern
       patternUnits="userSpaceOnUse"
       width="370"
       height="476"
       patternTransform="translate(18.50938,18)"
       id="pattern5932">
      <rect
         ry="20"
         rx="20"
         y="0"
         x="0"
         height="476"
         width="370"
         id="rect5934"
         style="fill:#00e5ff;fill-opacity:1" />
    </pattern>
  </defs>
  <g
     transform="translate(294.64319,-68.609444)"
     id="layer1">
    <g
       transform="matrix(1.0056627,0,0,1.0055986,-296.0574,67.211168)"
       id="g2865">
      <path
         d="m 390.42439,244.34138 a 140.71133,122.87468 0 1 1 -281.42267,0 140.71133,122.87468 0 1 1 281.42267,0 z"
         transform="matrix(1.766691,0,0,2.023277,-191.1658,-244.3703)"
         id="path2867"
         style="fill:#ffffff;fill-opacity:1;fill-rule:nonzero;stroke:none" />
      <path
         d="m 250,1.390623 c -137.22627,0 -248.59375,111.395057 -248.59375,248.625007 0,137.22993 111.36749,248.59376 248.59375,248.59375 137.22627,0 248.59374,-111.36382 248.59375,-248.59375 C 498.59375,112.78569 387.22627,1.390623 250,1.390623 z m 0,48.625 c 110.40002,1e-6 200,89.599987 200,200.000007 -10e-6,110.40003 -89.59997,200 -200,200 -110.40004,-10e-6 -200,-89.59998 -200,-200 C 50,139.61561 139.59997,50.015623 250,50.015623 z"
         id="path2869"
         style="fill:#d40000;fill-opacity:1;fill-rule:nonzero;stroke:none" />
    </g>
    <path
       d="m -136.15562,371.77768 -71.80216,-69.63307 65.38984,0 -42.66963,-83.4235 78.35698,27.09799 0,-84.39722 49.873601,65.27901 26.266767,-66.27648 24.925897,103.5687 107.678755,-67.55392 -28.369511,77.27165 35.736181,5.48582 -49.215621,101.40925 -12.826208,23.90248 0,-44.27838 -11.977521,-11.44962 -10.462237,-46.63578 -138.967503,0 -10.0704,46.63578 -11.86723,11.70432 0,11.29297 z"
       id="path3813"
       style="fill:#ff9600;fill-opacity:1;stroke:none" />
    <g
       transform="matrix(0.35624042,0,0,-0.35621775,-217.53689,559.26988)"
       id="g2914">
      <path
         d="m 333.77803,340.90771 0,-69.33767 -82.22213,0 0,69.33767 -23.1111,0 0,217.23238 33.29963,32.76105 L 290,721.82047 l 390.30155,0 29.45389,-130.91933 33.35551,-32.54104 0,-217.45239 -23.55553,0 0,-69.33767 -82.22214,0 0,69.33767 -303.55525,0 z"
         id="path2916"
         style="fill:#000000;fill-opacity:1;fill-rule:evenodd;stroke:none" />
      <path
         d="M 295.28888,580.92273 310,675.15088 l 348.88892,0 16.26667,-94.22815 -379.86671,0 z"
         id="path2918"
         style="fill:#ffffff;fill-opacity:1;fill-rule:evenodd;stroke:none" />
      <path
         d="m 358.71478,506.36258 a 34.682369,32.70052 0 1 1 -69.36474,0 34.682369,32.70052 0 1 1 69.36474,0 z"
         transform="matrix(1.081241,0,0,1.146771,-66.114109,-116.62363)"
         id="path2920"
         style="fill:#ffffff;fill-opacity:1;fill-rule:nonzero;stroke:none" />
      <rect
         width="467.99951"
         height="17.77886"
         x="251.55591"
         y="395.57782"
         id="rect2924"
         style="fill:#ffffff;fill-opacity:1;fill-rule:nonzero;stroke:none" />
      <path
         d="m 358.71478,506.36258 a 34.682369,32.70052 0 1 1 -69.36474,0 34.682369,32.70052 0 1 1 69.36474,0 z"
         transform="matrix(1.081241,0,0,1.146771,331.84518,-116.42034)"
         id="path2922"
         style="fill:#ffffff;fill-opacity:1;fill-rule:nonzero;stroke:none" />
    </g>
    <path
       d="m 55.078245,389.80535 0,-20.64129 41.300362,-83.38442 -34.403906,-5.48582 23.43228,-64.18406 -96.863861,60.42235 -21.394685,-89.57555 -22.178376,56.11208 -43.60172,-56.50392 0,71.00214 -69.876319,-24.05922 39.6938,77.03654 -58.50233,0 42.94612,41.79071 0,11.49072 -63.59629,-61.681 65.42645,0 -42.70082,-83.42696 78.36046,27.10145 0,-84.38338 49.873601,65.29287 26.266767,-66.31805 24.925897,103.58257 107.678755,-67.55511 -28.4087,77.29243 35.77418,5.46623 -49.144749,101.40925 -5.006916,9.19944 z"
       id="path3823"
       style="fill:#d40000;fill-opacity:1;stroke:none" />
  </g>
</svg>
