<?xml version="1.0" encoding="UTF-8" standalone="no"?>
<!-- Created with Inkscape (http://www.inkscape.org/) -->

<svg
   xmlns:svg="http://www.w3.org/2000/svg"
   xmlns="http://www.w3.org/2000/svg"
   version="1.0"
   width="500.00006"
   height="499.99969"
   id="svg8160">
  <title
     id="title3947">Znak B-26</title>
  <defs
     id="defs8162" />
  <g
     transform="translate(-263.15749,-23.725723)"
     id="layer1">
    <g
       transform="matrix(0.401786,0,0,-0.401761,312.2645,529.9748)"
       id="g3067">
      <g
         id="g8360">
        <circle
           cx="250"
           cy="250"
           r="223"
           transform="matrix(2.4988769,0,0,-2.4990325,-124.7164,1262.5703)"
           id="circle3883"
           style="fill:#ffffff;stroke:#d40000;stroke-width:52" />
        <path
           d="m 156.00508,918.26909 -29.53823,-29.5399 0,-436.90485 77.09648,0.49543 0,77.10117 62.48202,0 c 0,-17.68936 14.32688,-32.01712 32.01522,-32.01712 17.68826,0 32.01497,14.32776 32.01497,32.01712 l 60.12908,0 0,-77.10117 79.07792,0 0,435.4185 -30.52882,30.53082 -282.74864,0 z"
           id="path3885"
           style="fill:#d40000;fill-opacity:1;stroke:none" />
        <path
           d="m 712.02771,746.66664 c -33.86246,-0.12823 -72.69614,-0.51004 -115.92321,-1.23858 l -18.7013,-91.90211 -15.04762,-14.92481 0,-141.19732 16.03842,0 0,-45.08405 45.51483,0 0,45.08405 218.71769,0 0,-45.08405 46.50546,0 0,45.08405 15.5432,0 0,141.19732 -14.36653,14.92481 -19.44438,91.34475 0,0.49544 c 0,0 -57.24987,1.68538 -158.83656,1.3005 z m -98.15071,-31.58362 239.21478,0 10.27952,-61.55707 -259.46428,0 9.96998,61.55707 z"
           id="path3887"
           style="fill:#000000;stroke:none" />
      </g>
    </g>
  </g>
</svg>
