<?xml version="1.0" encoding="UTF-8" standalone="no"?>
<!-- Created with Inkscape (http://www.inkscape.org/) -->

<svg
   xmlns:svg="http://www.w3.org/2000/svg"
   xmlns="http://www.w3.org/2000/svg"
   version="1.0"
   width="499.99985"
   height="499.99988"
   id="svg2">
  <title
     id="title4762">Znak B-28</title>
  <defs
     id="defs4" />
  <circle
     cx="250"
     cy="250"
     r="223"
     transform="matrix(1.1061959,0,0,1.1061959,-26.548316,-26.550627)"
     id="circle4093"
     style="fill:#ffffff;stroke:#000000;stroke-width:6;stroke-miterlimit:4;stroke-opacity:1;stroke-dasharray:none" />
  <path
     d="m 62.736202,125.64194 -11.862881,11.86284 0,175.46291 30.962398,0.004 0,-31.17369 25.093551,0 c 0,7.10382 5.75379,12.85762 12.85767,12.85762 7.10379,0 12.85755,-5.7538 12.85755,-12.85762 l 24.14854,0 0,31.16162 31.75861,0 0,-175.05713 -12.26072,-12.26076 -113.554718,0 z"
     id="path4644"
     style="fill:#a9a8a7;fill-opacity:1;stroke:none" />
  <path
     d="m 386.88091,193.85943 c -13.7218,0.0524 -29.45796,0.20665 -46.97451,0.50185 l -7.57813,37.23829 -6.09758,6.04746 0,57.21238 6.49909,0 0,18.11073 18.4435,0 0,-18.11073 88.62884,0 0,18.11073 18.84502,0 0,-18.11073 6.29836,0 0,-57.21238 -5.82153,-6.04746 -7.87926,-37.01248 0,-0.2007 c 0,0 -23.19883,-0.68298 -64.3638,-0.52696 z m -39.77268,12.79746 96.93463,0 4.1655,24.94268 -105.14017,0 4.04004,-24.94268 z"
     id="path3887-4"
     style="fill:#a9a8a7;fill-opacity:1;stroke:none" />
  <path
     d="M 306.90636,11.056061 125.91411,460.87736 c 40.71207,23.41319 70.14009,27.38997 70.14009,27.38997 L 376.79791,39.390472 c 0,0 -27.83732,-19.486122 -69.89155,-28.334411 z"
     id="path4683"
     style="fill:#000000;fill-opacity:1;stroke:none" />
</svg>
