<svg id="svg" version="1.1" xmlns="http://www.w3.org/2000/svg" xmlns:xlink="http://www.w3.org/1999/xlink" width="400" height="400" viewBox="0, 0, 400,400"><g id="svgg"><path id="path0" d="M115.358 105.899 C 115.099 107.007,114.611 108.875,113.137 114.400 C 112.697 116.050,112.183 118.030,111.995 118.800 C 111.807 119.570,111.449 120.920,111.200 121.800 C 110.951 122.680,110.591 124.030,110.400 124.800 C 110.209 125.570,109.849 126.920,109.599 127.800 C 109.349 128.680,109.053 129.850,108.942 130.400 C 108.831 130.950,108.587 131.760,108.400 132.200 C 108.213 132.640,107.969 133.450,107.858 134.000 C 107.747 134.550,107.451 135.720,107.201 136.600 C 106.951 137.480,106.571 138.920,106.355 139.800 C 105.678 142.564,105.268 144.148,104.800 145.800 C 104.551 146.680,104.191 148.030,104.000 148.800 C 103.809 149.570,103.449 150.920,103.200 151.800 C 102.951 152.680,102.591 154.030,102.400 154.800 C 102.209 155.570,101.849 156.920,101.600 157.800 C 101.045 159.759,100.423 162.248,100.138 163.643 C 100.008 164.283,97.933 166.674,94.763 169.837 L 89.600 174.988 89.600 220.082 L 89.600 265.175 94.500 265.288 L 99.400 265.400 99.505 280.300 L 99.610 295.200 114.605 295.200 L 129.600 295.200 129.600 280.200 L 129.600 265.200 199.957 265.200 C 263.745 265.200,270.337 265.259,270.557 265.833 C 270.691 266.181,270.800 272.931,270.800 280.833 L 270.800 295.200 285.595 295.200 L 300.390 295.200 300.495 280.300 L 300.600 265.400 305.500 265.288 L 310.400 265.175 310.400 220.093 L 310.400 175.011 305.372 169.972 C 299.921 164.509,300.112 164.846,298.386 157.600 C 298.203 156.830,297.849 155.480,297.600 154.600 C 297.351 153.720,296.991 152.370,296.800 151.600 C 296.609 150.830,296.249 149.480,296.000 148.600 C 295.751 147.720,295.393 146.370,295.205 145.600 C 295.017 144.830,294.489 142.805,294.032 141.100 C 293.574 139.395,292.828 136.605,292.372 134.900 C 291.917 133.195,291.365 131.170,291.146 130.400 C 290.926 129.630,290.591 128.370,290.400 127.600 C 290.209 126.830,289.849 125.480,289.600 124.600 C 289.351 123.720,288.991 122.370,288.800 121.600 C 288.609 120.830,288.249 119.480,288.000 118.600 C 287.751 117.720,287.391 116.370,287.200 115.600 C 287.009 114.830,286.649 113.480,286.400 112.600 C 285.813 110.527,285.228 108.157,284.871 106.400 L 284.586 105.000 200.101 104.899 L 115.616 104.798 115.358 105.899 M276.956 115.500 C 277.077 116.105,278.530 123.440,280.187 131.800 C 281.843 140.160,283.469 148.260,283.799 149.800 C 284.130 151.340,284.400 153.095,284.400 153.700 L 284.400 154.800 200.000 154.800 C 117.427 154.800,115.600 154.784,115.600 154.042 C 115.600 153.125,123.186 115.147,123.456 114.709 C 123.561 114.539,158.092 114.400,200.192 114.400 L 276.736 114.400 276.956 115.500 M121.153 188.156 C 125.091 190.188,127.512 192.993,129.198 197.478 C 130.094 199.859,129.577 205.839,128.241 208.560 C 121.119 223.066,99.393 217.962,99.461 201.800 C 99.507 190.577,111.377 183.111,121.153 188.156 M292.001 188.081 C 295.271 189.687,299.600 194.251,299.600 196.092 C 299.600 196.393,299.825 196.865,300.100 197.140 C 301.111 198.151,300.700 205.474,299.487 208.043 C 292.379 223.104,270.400 218.329,270.400 201.724 C 270.400 198.675,270.554 197.920,271.733 195.200 C 274.769 188.193,284.949 184.618,292.001 188.081 M300.713 231.743 C 300.788 234.898,300.671 236.673,300.364 237.043 C 299.727 237.811,100.447 237.887,99.680 237.120 C 99.165 236.605,98.974 227.559,99.467 227.066 C 99.615 226.919,144.930 226.844,200.167 226.899 L 300.600 227.000 300.713 231.743 " stroke="none" fill="#050505" fill-rule="evenodd"></path><path id="path1" d="M178.100 0.275 C 176.065 0.360,174.400 0.603,174.400 0.815 C 174.400 1.027,173.140 1.200,171.600 1.200 C 170.000 1.200,168.800 1.371,168.800 1.600 C 168.800 1.822,167.733 2.000,166.400 2.000 C 165.067 2.000,164.000 2.178,164.000 2.400 C 164.000 2.620,163.100 2.800,162.000 2.800 C 160.900 2.800,160.000 2.980,160.000 3.200 C 160.000 3.420,159.100 3.600,158.000 3.600 C 156.900 3.600,156.000 3.780,156.000 4.000 C 156.000 4.220,155.291 4.400,154.424 4.400 C 153.557 4.400,152.736 4.580,152.600 4.800 C 152.464 5.020,151.643 5.200,150.776 5.200 C 149.909 5.200,149.200 5.380,149.200 5.600 C 149.200 5.820,148.570 6.000,147.800 6.000 C 147.030 6.000,146.400 6.180,146.400 6.400 C 146.400 6.620,145.781 6.800,145.024 6.800 C 144.267 6.800,143.536 6.980,143.400 7.200 C 143.264 7.420,142.634 7.600,142.000 7.600 C 141.366 7.600,140.736 7.780,140.600 8.000 C 140.464 8.220,139.924 8.400,139.400 8.400 C 138.876 8.400,138.336 8.580,138.200 8.800 C 138.064 9.020,137.524 9.200,137.000 9.200 C 136.476 9.200,135.936 9.380,135.800 9.600 C 135.664 9.820,135.124 10.000,134.600 10.000 C 134.076 10.000,133.536 10.180,133.400 10.400 C 133.264 10.620,132.724 10.800,132.200 10.800 C 131.676 10.800,131.158 10.944,131.049 11.121 C 130.940 11.297,129.939 11.690,128.825 11.993 C 127.711 12.296,126.800 12.692,126.800 12.872 C 126.800 13.053,126.361 13.200,125.824 13.200 C 125.287 13.200,124.736 13.380,124.600 13.600 C 124.464 13.820,124.003 14.000,123.576 14.000 C 123.149 14.000,122.800 14.180,122.800 14.400 C 122.800 14.620,122.440 14.800,122.000 14.800 C 121.560 14.800,121.200 14.980,121.200 15.200 C 121.200 15.420,120.858 15.600,120.441 15.600 C 120.023 15.600,118.655 16.140,117.400 16.800 C 116.145 17.460,114.882 18.000,114.593 18.000 C 114.303 18.000,114.007 18.135,113.933 18.300 C 113.741 18.732,110.428 20.400,109.762 20.400 C 109.453 20.400,109.200 20.580,109.200 20.800 C 109.200 21.020,108.840 21.200,108.400 21.200 C 107.960 21.200,107.600 21.380,107.600 21.600 C 107.600 21.820,107.240 22.000,106.800 22.000 C 106.360 22.000,106.000 22.180,106.000 22.400 C 106.000 22.620,105.640 22.800,105.200 22.800 C 104.760 22.800,104.400 22.953,104.400 23.139 C 104.400 23.326,103.680 23.803,102.800 24.200 C 101.920 24.597,101.200 25.052,101.200 25.212 C 101.200 25.372,100.660 25.727,100.000 26.000 C 99.340 26.273,98.800 26.655,98.800 26.849 C 98.800 27.042,98.440 27.200,98.000 27.200 C 97.560 27.200,97.200 27.380,97.200 27.600 C 97.200 27.820,96.880 28.000,96.488 28.000 C 96.097 28.000,95.517 28.360,95.200 28.800 C 94.883 29.240,94.343 29.600,94.000 29.600 C 93.657 29.600,93.117 29.960,92.800 30.400 C 92.483 30.840,91.903 31.200,91.512 31.200 C 91.120 31.200,90.800 31.346,90.800 31.525 C 90.800 31.704,90.170 32.098,89.400 32.400 C 88.630 32.702,88.000 33.053,88.000 33.180 C 88.000 33.307,87.280 33.856,86.400 34.400 C 85.520 34.944,84.800 35.526,84.800 35.694 C 84.800 35.862,84.530 36.000,84.200 36.000 C 83.870 36.000,83.600 36.180,83.600 36.400 C 83.600 36.620,83.330 36.800,83.000 36.800 C 82.670 36.800,82.400 36.980,82.400 37.200 C 82.400 37.420,82.222 37.600,82.005 37.600 C 81.633 37.600,80.585 38.360,79.384 39.500 C 79.094 39.775,78.664 40.000,78.429 40.000 C 78.193 40.000,78.000 40.180,78.000 40.400 C 78.000 40.620,77.802 40.800,77.560 40.800 C 77.319 40.800,76.617 41.340,76.000 42.000 C 75.383 42.660,74.703 43.200,74.488 43.200 C 74.273 43.200,73.400 43.876,72.548 44.702 C 71.697 45.528,70.370 46.651,69.600 47.198 C 68.830 47.745,66.797 49.590,65.081 51.297 C 63.366 53.003,61.857 54.400,61.727 54.400 C 61.598 54.400,61.093 54.805,60.606 55.300 C 60.118 55.795,58.883 56.952,57.860 57.872 C 56.837 58.792,56.000 59.649,56.000 59.777 C 56.000 60.055,53.899 62.376,50.596 65.747 C 49.274 67.096,47.745 68.830,47.198 69.600 C 46.651 70.370,45.528 71.697,44.702 72.548 C 43.876 73.400,43.200 74.273,43.200 74.488 C 43.200 74.703,42.660 75.383,42.000 76.000 C 41.340 76.617,40.800 77.319,40.800 77.560 C 40.800 77.802,40.620 78.000,40.400 78.000 C 40.180 78.000,40.000 78.178,40.000 78.395 C 40.000 78.767,39.240 79.815,38.100 81.016 C 37.825 81.306,37.600 81.736,37.600 81.971 C 37.600 82.207,37.420 82.400,37.200 82.400 C 36.980 82.400,36.800 82.670,36.800 83.000 C 36.800 83.330,36.620 83.600,36.400 83.600 C 36.180 83.600,36.000 83.870,36.000 84.200 C 36.000 84.530,35.820 84.800,35.600 84.800 C 35.380 84.800,35.200 85.070,35.200 85.400 C 35.200 85.730,35.020 86.000,34.800 86.000 C 34.580 86.000,34.400 86.204,34.400 86.453 C 34.400 86.702,34.071 87.197,33.670 87.553 C 33.268 87.909,32.684 88.785,32.372 89.500 C 32.060 90.215,31.669 90.800,31.502 90.800 C 31.336 90.800,31.200 91.120,31.200 91.512 C 31.200 91.903,30.840 92.483,30.400 92.800 C 29.960 93.117,29.600 93.657,29.600 94.000 C 29.600 94.343,29.240 94.883,28.800 95.200 C 28.360 95.517,28.000 96.097,28.000 96.488 C 28.000 96.880,27.820 97.200,27.600 97.200 C 27.380 97.200,27.200 97.560,27.200 98.000 C 27.200 98.440,27.042 98.800,26.849 98.800 C 26.655 98.800,26.273 99.340,26.000 100.000 C 25.727 100.660,25.372 101.200,25.212 101.200 C 25.052 101.200,24.597 101.920,24.200 102.800 C 23.803 103.680,23.326 104.400,23.139 104.400 C 22.953 104.400,22.800 104.760,22.800 105.200 C 22.800 105.640,22.620 106.000,22.400 106.000 C 22.180 106.000,22.000 106.234,22.000 106.520 C 22.000 107.256,21.059 109.193,20.700 109.197 C 20.535 109.199,20.400 109.453,20.400 109.762 C 20.400 110.428,18.732 113.741,18.300 113.933 C 18.135 114.007,18.000 114.303,18.000 114.593 C 18.000 114.882,17.460 116.145,16.800 117.400 C 16.140 118.655,15.600 120.023,15.600 120.441 C 15.600 120.858,15.420 121.200,15.200 121.200 C 14.980 121.200,14.800 121.560,14.800 122.000 C 14.800 122.440,14.620 122.800,14.400 122.800 C 14.180 122.800,14.000 123.149,14.000 123.576 C 14.000 124.003,13.820 124.464,13.600 124.600 C 13.380 124.736,13.200 125.287,13.200 125.824 C 13.200 126.361,13.020 126.800,12.800 126.800 C 12.580 126.800,12.400 127.239,12.400 127.776 C 12.400 128.313,12.256 128.842,12.079 128.951 C 11.903 129.060,11.507 130.072,11.200 131.200 C 10.893 132.328,10.497 133.340,10.321 133.449 C 10.144 133.558,10.000 134.076,10.000 134.600 C 10.000 135.124,9.820 135.664,9.600 135.800 C 9.380 135.936,9.200 136.476,9.200 137.000 C 9.200 137.524,9.020 138.064,8.800 138.200 C 8.580 138.336,8.400 138.876,8.400 139.400 C 8.400 139.924,8.220 140.464,8.000 140.600 C 7.780 140.736,7.600 141.366,7.600 142.000 C 7.600 142.634,7.420 143.264,7.200 143.400 C 6.980 143.536,6.800 144.166,6.800 144.800 C 6.800 145.434,6.620 146.064,6.400 146.200 C 6.180 146.336,6.000 147.067,6.000 147.824 C 6.000 148.581,5.820 149.200,5.600 149.200 C 5.380 149.200,5.200 149.909,5.200 150.776 C 5.200 151.643,5.020 152.464,4.800 152.600 C 4.580 152.736,4.400 153.557,4.400 154.424 C 4.400 155.291,4.220 156.000,4.000 156.000 C 3.780 156.000,3.600 156.799,3.600 157.776 C 3.600 158.753,3.420 159.664,3.200 159.800 C 2.980 159.936,2.800 160.937,2.800 162.024 C 2.800 163.111,2.620 164.000,2.400 164.000 C 2.178 164.000,2.000 165.059,2.000 166.376 C 2.000 167.683,1.820 168.864,1.600 169.000 C 1.380 169.136,1.200 170.392,1.200 171.790 C 1.200 173.469,1.030 174.390,0.700 174.500 C -0.032 174.744,-0.032 225.256,0.700 225.500 C 1.036 225.612,1.200 226.576,1.200 228.433 C 1.200 230.011,1.372 231.200,1.600 231.200 C 1.822 231.200,2.000 232.267,2.000 233.600 C 2.000 234.933,2.178 236.000,2.400 236.000 C 2.620 236.000,2.800 236.889,2.800 237.976 C 2.800 239.063,2.980 240.064,3.200 240.200 C 3.420 240.336,3.600 241.236,3.600 242.200 C 3.600 243.164,3.780 244.064,4.000 244.200 C 4.220 244.336,4.400 245.157,4.400 246.024 C 4.400 246.891,4.580 247.600,4.800 247.600 C 5.020 247.600,5.200 248.219,5.200 248.976 C 5.200 249.733,5.380 250.464,5.600 250.600 C 5.820 250.736,6.000 251.456,6.000 252.200 C 6.000 252.944,6.180 253.664,6.400 253.800 C 6.620 253.936,6.800 254.566,6.800 255.200 C 6.800 255.834,6.980 256.464,7.200 256.600 C 7.420 256.736,7.600 257.366,7.600 258.000 C 7.600 258.634,7.780 259.264,8.000 259.400 C 8.220 259.536,8.400 260.177,8.400 260.824 C 8.400 261.471,8.580 262.000,8.800 262.000 C 9.020 262.000,9.200 262.540,9.200 263.200 C 9.200 263.860,9.380 264.400,9.600 264.400 C 9.820 264.400,10.000 264.839,10.000 265.376 C 10.000 265.913,10.180 266.464,10.400 266.600 C 10.620 266.736,10.800 267.276,10.800 267.800 C 10.800 268.324,10.944 268.842,11.121 268.951 C 11.297 269.060,11.690 270.061,11.993 271.175 C 12.296 272.289,12.692 273.200,12.872 273.200 C 13.053 273.200,13.200 273.639,13.200 274.176 C 13.200 274.713,13.380 275.264,13.600 275.400 C 13.820 275.536,14.000 275.997,14.000 276.424 C 14.000 276.851,14.180 277.200,14.400 277.200 C 14.620 277.200,14.800 277.472,14.800 277.805 C 14.800 278.138,14.980 278.768,15.200 279.205 C 15.420 279.642,15.780 280.358,16.000 280.795 C 16.220 281.232,16.400 281.862,16.400 282.195 C 16.400 282.528,16.580 282.800,16.800 282.800 C 17.020 282.800,17.200 283.160,17.200 283.600 C 17.200 284.040,17.380 284.400,17.600 284.400 C 17.820 284.400,18.000 284.760,18.000 285.200 C 18.000 285.640,18.180 286.000,18.400 286.000 C 18.620 286.000,18.800 286.272,18.800 286.605 C 18.800 287.163,19.526 288.729,20.002 289.200 C 20.458 289.650,22.800 294.552,22.800 295.056 C 22.800 295.355,22.953 295.600,23.139 295.600 C 23.326 295.600,23.803 296.320,24.200 297.200 C 24.597 298.080,25.041 298.800,25.186 298.800 C 25.332 298.800,25.698 299.430,26.000 300.200 C 26.302 300.970,26.662 301.600,26.800 301.600 C 26.938 301.600,27.298 302.230,27.600 303.000 C 27.902 303.770,28.267 304.400,28.412 304.400 C 28.556 304.400,29.091 305.210,29.600 306.200 C 30.109 307.190,30.677 308.000,30.863 308.000 C 31.048 308.000,31.200 308.360,31.200 308.800 C 31.200 309.240,31.350 309.600,31.532 309.600 C 31.715 309.600,32.119 310.095,32.430 310.700 C 32.740 311.305,33.311 312.091,33.697 312.447 C 34.084 312.803,34.400 313.322,34.400 313.600 C 34.400 313.878,34.716 314.397,35.103 314.753 C 35.489 315.109,36.060 315.895,36.370 316.500 C 36.681 317.105,37.085 317.600,37.268 317.600 C 37.450 317.600,37.600 317.870,37.600 318.200 C 37.600 318.530,37.780 318.800,38.000 318.800 C 38.220 318.800,38.400 319.030,38.400 319.312 C 38.400 319.593,38.760 320.083,39.200 320.400 C 39.640 320.717,40.000 321.115,40.000 321.284 C 40.000 321.624,40.923 322.807,42.300 324.232 C 42.795 324.744,43.200 325.323,43.200 325.518 C 43.200 325.713,43.965 326.685,44.900 327.678 C 45.835 328.670,47.050 330.082,47.600 330.816 C 48.150 331.549,49.500 333.064,50.600 334.181 C 51.700 335.299,53.410 337.198,54.400 338.401 C 56.190 340.577,59.446 344.000,59.725 344.000 C 59.977 344.000,63.205 346.892,65.757 349.404 C 67.101 350.726,68.830 352.249,69.600 352.789 C 70.370 353.328,71.477 354.271,72.060 354.885 C 72.644 355.498,73.319 356.000,73.560 356.000 C 73.802 356.000,74.000 356.180,74.000 356.400 C 74.000 356.620,74.198 356.800,74.440 356.800 C 74.681 356.800,75.383 357.340,76.000 358.000 C 76.617 358.660,77.320 359.200,77.564 359.200 C 77.808 359.200,78.572 359.740,79.263 360.400 C 79.954 361.060,80.722 361.600,80.971 361.600 C 81.220 361.600,81.683 361.960,82.000 362.400 C 82.317 362.840,82.807 363.200,83.088 363.200 C 83.370 363.200,83.600 363.380,83.600 363.600 C 83.600 363.820,83.870 364.000,84.200 364.000 C 84.530 364.000,84.800 364.180,84.800 364.400 C 84.800 364.620,85.070 364.800,85.400 364.800 C 85.730 364.800,86.000 364.980,86.000 365.200 C 86.000 365.420,86.230 365.600,86.512 365.600 C 86.793 365.600,87.288 365.969,87.612 366.419 C 87.935 366.870,88.650 367.467,89.200 367.746 C 90.433 368.371,92.019 369.295,92.580 369.715 C 93.999 370.777,98.034 373.200,98.383 373.200 C 98.612 373.200,98.800 373.380,98.800 373.600 C 98.800 373.820,99.078 374.000,99.417 374.000 C 99.756 374.000,100.420 374.360,100.892 374.800 C 101.364 375.240,101.987 375.600,102.275 375.600 C 102.564 375.600,102.800 375.780,102.800 376.000 C 102.800 376.220,103.160 376.400,103.600 376.400 C 104.040 376.400,104.400 376.580,104.400 376.800 C 104.400 377.020,104.760 377.200,105.200 377.200 C 105.640 377.200,106.000 377.380,106.000 377.600 C 106.000 377.820,106.360 378.000,106.800 378.000 C 107.240 378.000,107.600 378.180,107.600 378.400 C 107.600 378.620,107.960 378.800,108.400 378.800 C 108.840 378.800,109.200 378.980,109.200 379.200 C 109.200 379.420,109.560 379.600,110.000 379.600 C 110.440 379.600,110.801 379.735,110.803 379.900 C 110.807 380.259,112.744 381.200,113.480 381.200 C 113.766 381.200,114.000 381.380,114.000 381.600 C 114.000 381.820,114.234 382.000,114.520 382.000 C 115.256 382.000,117.193 382.941,117.197 383.300 C 117.199 383.465,117.549 383.600,117.976 383.600 C 118.403 383.600,118.864 383.780,119.000 384.000 C 119.136 384.220,119.687 384.400,120.224 384.400 C 120.761 384.400,121.200 384.580,121.200 384.800 C 121.200 385.020,121.465 385.200,121.788 385.200 C 122.111 385.200,123.017 385.560,123.800 386.000 C 124.583 386.440,125.579 386.800,126.012 386.800 C 126.445 386.800,126.800 386.947,126.800 387.128 C 126.800 387.308,127.711 387.704,128.825 388.007 C 129.939 388.310,130.940 388.703,131.049 388.879 C 131.158 389.056,131.676 389.200,132.200 389.200 C 132.724 389.200,133.264 389.380,133.400 389.600 C 133.536 389.820,134.076 390.000,134.600 390.000 C 135.124 390.000,135.664 390.180,135.800 390.400 C 135.936 390.620,136.487 390.800,137.024 390.800 C 137.561 390.800,138.000 390.980,138.000 391.200 C 138.000 391.420,138.529 391.600,139.176 391.600 C 139.823 391.600,140.464 391.780,140.600 392.000 C 140.736 392.220,141.377 392.400,142.024 392.400 C 142.671 392.400,143.200 392.580,143.200 392.800 C 143.200 393.020,143.920 393.200,144.800 393.200 C 145.680 393.200,146.400 393.380,146.400 393.600 C 146.400 393.820,147.030 394.000,147.800 394.000 C 148.570 394.000,149.200 394.180,149.200 394.400 C 149.200 394.620,149.909 394.800,150.776 394.800 C 151.643 394.800,152.464 394.980,152.600 395.200 C 152.736 395.420,153.557 395.600,154.424 395.600 C 155.291 395.600,156.000 395.780,156.000 396.000 C 156.000 396.220,156.900 396.400,158.000 396.400 C 159.100 396.400,160.000 396.580,160.000 396.800 C 160.000 397.020,160.900 397.200,162.000 397.200 C 163.100 397.200,164.000 397.380,164.000 397.600 C 164.000 397.822,165.067 398.000,166.400 398.000 C 167.733 398.000,168.800 398.178,168.800 398.400 C 168.800 398.628,169.989 398.800,171.567 398.800 C 173.424 398.800,174.388 398.964,174.500 399.300 C 174.744 400.031,224.529 400.031,225.260 399.300 C 225.562 398.998,226.837 398.800,228.480 398.800 C 230.027 398.800,231.200 398.627,231.200 398.400 C 231.200 398.178,232.259 398.000,233.576 398.000 C 234.883 398.000,236.064 397.820,236.200 397.600 C 236.336 397.380,237.337 397.200,238.424 397.200 C 239.511 397.200,240.400 397.020,240.400 396.800 C 240.400 396.580,241.210 396.400,242.200 396.400 C 243.190 396.400,244.000 396.220,244.000 396.000 C 244.000 395.780,244.810 395.600,245.800 395.600 C 246.790 395.600,247.600 395.420,247.600 395.200 C 247.600 394.980,248.309 394.800,249.176 394.800 C 250.043 394.800,250.864 394.620,251.000 394.400 C 251.136 394.180,251.867 394.000,252.624 394.000 C 253.381 394.000,254.000 393.820,254.000 393.600 C 254.000 393.380,254.630 393.200,255.400 393.200 C 256.170 393.200,256.800 393.020,256.800 392.800 C 256.800 392.580,257.430 392.400,258.200 392.400 C 258.970 392.400,259.600 392.220,259.600 392.000 C 259.600 391.780,260.140 391.600,260.800 391.600 C 261.460 391.600,262.000 391.420,262.000 391.200 C 262.000 390.980,262.540 390.800,263.200 390.800 C 263.860 390.800,264.400 390.620,264.400 390.400 C 264.400 390.180,264.940 390.000,265.600 390.000 C 266.260 390.000,266.800 389.820,266.800 389.600 C 266.800 389.380,267.340 389.200,268.000 389.200 C 268.660 389.200,269.200 389.020,269.200 388.800 C 269.200 388.580,269.549 388.400,269.976 388.400 C 270.403 388.400,270.864 388.220,271.000 388.000 C 271.136 387.780,271.687 387.600,272.224 387.600 C 272.761 387.600,273.200 387.420,273.200 387.200 C 273.200 386.980,273.639 386.800,274.176 386.800 C 274.713 386.800,275.264 386.620,275.400 386.400 C 275.536 386.180,275.997 386.000,276.424 386.000 C 276.851 386.000,277.200 385.820,277.200 385.600 C 277.200 385.380,277.560 385.200,278.000 385.200 C 278.440 385.200,278.800 385.020,278.800 384.800 C 278.800 384.580,279.239 384.400,279.776 384.400 C 280.313 384.400,280.864 384.220,281.000 384.000 C 281.136 383.780,281.597 383.600,282.024 383.600 C 282.451 383.600,282.800 383.420,282.800 383.200 C 282.800 382.980,283.160 382.800,283.600 382.800 C 284.040 382.800,284.400 382.620,284.400 382.400 C 284.400 382.180,284.760 382.000,285.200 382.000 C 285.640 382.000,286.000 381.820,286.000 381.600 C 286.000 381.380,286.234 381.200,286.520 381.200 C 287.256 381.200,289.193 380.259,289.197 379.900 C 289.199 379.735,289.560 379.600,290.000 379.600 C 290.440 379.600,290.800 379.420,290.800 379.200 C 290.800 378.980,291.160 378.800,291.600 378.800 C 292.040 378.800,292.400 378.620,292.400 378.400 C 292.400 378.180,292.760 378.000,293.200 378.000 C 293.640 378.000,294.000 377.820,294.000 377.600 C 294.000 377.380,294.360 377.200,294.800 377.200 C 295.240 377.200,295.600 377.064,295.600 376.898 C 295.600 376.731,296.185 376.342,296.900 376.032 C 297.615 375.723,298.920 374.999,299.800 374.423 C 300.680 373.847,301.940 373.116,302.600 372.799 C 303.260 372.481,304.825 371.542,306.078 370.711 C 307.331 369.880,308.546 369.200,308.778 369.200 C 309.010 369.200,309.200 369.050,309.200 368.868 C 309.200 368.685,309.695 368.287,310.300 367.984 C 310.905 367.681,311.760 367.064,312.200 366.614 C 312.640 366.163,313.495 365.541,314.100 365.230 C 314.705 364.919,315.200 364.515,315.200 364.332 C 315.200 364.150,315.470 364.000,315.800 364.000 C 316.130 364.000,316.400 363.820,316.400 363.600 C 316.400 363.380,316.670 363.200,317.000 363.200 C 317.330 363.200,317.600 363.020,317.600 362.800 C 317.600 362.580,317.843 362.400,318.141 362.400 C 318.438 362.400,319.246 361.860,319.937 361.200 C 320.628 360.540,321.353 360.000,321.548 360.000 C 321.744 360.000,322.645 359.280,323.552 358.400 C 324.459 357.520,325.392 356.800,325.626 356.800 C 325.860 356.800,326.929 355.900,328.000 354.800 C 329.071 353.700,330.140 352.800,330.374 352.800 C 330.608 352.800,330.800 352.620,330.800 352.400 C 330.800 352.180,330.983 352.000,331.207 352.000 C 331.431 352.000,332.770 350.875,334.183 349.500 C 336.811 346.941,339.201 344.800,339.428 344.800 C 339.715 344.800,344.684 339.637,345.765 338.215 C 346.406 337.372,348.251 335.362,349.865 333.748 C 351.479 332.134,352.800 330.618,352.800 330.380 C 352.800 330.143,353.700 329.071,354.800 328.000 C 355.900 326.929,356.800 325.860,356.800 325.626 C 356.800 325.392,357.520 324.459,358.400 323.552 C 359.280 322.645,360.000 321.695,360.000 321.440 C 360.000 321.185,360.360 320.717,360.800 320.400 C 361.240 320.083,361.600 319.593,361.600 319.312 C 361.600 319.030,361.780 318.800,362.000 318.800 C 362.220 318.800,362.400 318.530,362.400 318.200 C 362.400 317.870,362.580 317.600,362.800 317.600 C 363.020 317.600,363.200 317.330,363.200 317.000 C 363.200 316.670,363.380 316.400,363.600 316.400 C 363.820 316.400,364.000 316.170,364.000 315.888 C 364.000 315.607,364.360 315.117,364.800 314.800 C 365.240 314.483,365.600 313.993,365.600 313.712 C 365.600 313.430,365.780 313.200,366.000 313.200 C 366.220 313.200,366.400 312.930,366.400 312.600 C 366.400 312.270,366.572 312.000,366.781 312.000 C 366.991 312.000,367.461 311.370,367.827 310.600 C 368.192 309.830,368.651 309.200,368.846 309.200 C 369.041 309.200,369.200 309.007,369.200 308.772 C 369.200 308.537,369.711 307.592,370.337 306.672 C 370.962 305.752,372.056 303.927,372.769 302.616 C 373.482 301.305,374.382 299.775,374.770 299.216 C 375.157 298.657,375.727 297.615,376.035 296.900 C 376.343 296.185,376.731 295.600,376.898 295.600 C 377.064 295.600,377.200 295.240,377.200 294.800 C 377.200 294.360,377.380 294.000,377.600 294.000 C 377.820 294.000,378.000 293.640,378.000 293.200 C 378.000 292.760,378.180 292.400,378.400 292.400 C 378.620 292.400,378.800 292.040,378.800 291.600 C 378.800 291.160,378.980 290.800,379.200 290.800 C 379.420 290.800,379.600 290.440,379.600 290.000 C 379.600 289.560,379.735 289.199,379.900 289.197 C 380.259 289.193,381.200 287.256,381.200 286.520 C 381.200 286.234,381.380 286.000,381.600 286.000 C 381.820 286.000,382.000 285.766,382.000 285.480 C 382.000 284.744,382.941 282.807,383.300 282.803 C 383.465 282.801,383.600 282.451,383.600 282.024 C 383.600 281.597,383.780 281.136,384.000 281.000 C 384.220 280.864,384.400 280.313,384.400 279.776 C 384.400 279.239,384.580 278.800,384.800 278.800 C 385.020 278.800,385.200 278.440,385.200 278.000 C 385.200 277.560,385.380 277.200,385.600 277.200 C 385.820 277.200,386.000 276.851,386.000 276.424 C 386.000 275.997,386.180 275.536,386.400 275.400 C 386.620 275.264,386.800 274.713,386.800 274.176 C 386.800 273.639,386.980 273.200,387.200 273.200 C 387.420 273.200,387.600 272.838,387.600 272.395 C 387.600 271.952,387.780 271.232,388.000 270.795 C 388.220 270.358,388.580 269.642,388.800 269.205 C 389.020 268.768,389.200 268.048,389.200 267.605 C 389.200 267.162,389.380 266.800,389.600 266.800 C 389.820 266.800,390.000 266.260,390.000 265.600 C 390.000 264.940,390.180 264.400,390.400 264.400 C 390.620 264.400,390.800 263.860,390.800 263.200 C 390.800 262.540,390.980 262.000,391.200 262.000 C 391.420 262.000,391.600 261.460,391.600 260.800 C 391.600 260.140,391.780 259.600,392.000 259.600 C 392.220 259.600,392.400 258.970,392.400 258.200 C 392.400 257.430,392.580 256.800,392.800 256.800 C 393.020 256.800,393.200 256.170,393.200 255.400 C 393.200 254.630,393.380 254.000,393.600 254.000 C 393.820 254.000,394.000 253.280,394.000 252.400 C 394.000 251.520,394.180 250.800,394.400 250.800 C 394.620 250.800,394.800 250.080,394.800 249.200 C 394.800 248.320,394.980 247.600,395.200 247.600 C 395.420 247.600,395.600 246.891,395.600 246.024 C 395.600 245.157,395.780 244.336,396.000 244.200 C 396.220 244.064,396.400 243.164,396.400 242.200 C 396.400 241.236,396.580 240.336,396.800 240.200 C 397.020 240.064,397.200 239.063,397.200 237.976 C 397.200 236.889,397.380 236.000,397.600 236.000 C 397.822 236.000,398.000 234.933,398.000 233.600 C 398.000 232.267,398.178 231.200,398.400 231.200 C 398.628 231.200,398.800 230.011,398.800 228.433 C 398.800 226.576,398.964 225.612,399.300 225.500 C 399.693 225.369,399.800 219.911,399.800 200.000 C 399.800 180.089,399.693 174.631,399.300 174.500 C 398.964 174.388,398.800 173.424,398.800 171.567 C 398.800 169.989,398.628 168.800,398.400 168.800 C 398.178 168.800,398.000 167.733,398.000 166.400 C 398.000 165.067,397.822 164.000,397.600 164.000 C 397.380 164.000,397.200 163.111,397.200 162.024 C 397.200 160.937,397.020 159.936,396.800 159.800 C 396.580 159.664,396.400 158.753,396.400 157.776 C 396.400 156.799,396.220 156.000,396.000 156.000 C 395.780 156.000,395.600 155.291,395.600 154.424 C 395.600 153.557,395.420 152.736,395.200 152.600 C 394.980 152.464,394.800 151.643,394.800 150.776 C 394.800 149.909,394.620 149.200,394.400 149.200 C 394.180 149.200,394.000 148.581,394.000 147.824 C 394.000 147.067,393.820 146.336,393.600 146.200 C 393.380 146.064,393.200 145.333,393.200 144.576 C 393.200 143.819,393.020 143.200,392.800 143.200 C 392.580 143.200,392.400 142.671,392.400 142.024 C 392.400 141.377,392.220 140.736,392.000 140.600 C 391.780 140.464,391.600 139.823,391.600 139.176 C 391.600 138.529,391.420 138.000,391.200 138.000 C 390.980 138.000,390.800 137.460,390.800 136.800 C 390.800 136.140,390.620 135.600,390.400 135.600 C 390.180 135.600,390.000 135.161,390.000 134.624 C 390.000 134.087,389.820 133.536,389.600 133.400 C 389.380 133.264,389.200 132.801,389.200 132.371 C 389.200 131.941,389.041 131.277,388.847 130.895 C 388.652 130.513,388.271 129.660,388.000 129.000 C 387.729 128.340,387.348 127.487,387.153 127.105 C 386.959 126.723,386.800 126.059,386.800 125.629 C 386.800 125.199,386.620 124.736,386.400 124.600 C 386.180 124.464,386.000 124.003,386.000 123.576 C 386.000 123.149,385.820 122.800,385.600 122.800 C 385.380 122.800,385.200 122.440,385.200 122.000 C 385.200 121.560,385.020 121.200,384.800 121.200 C 384.580 121.200,384.400 120.761,384.400 120.224 C 384.400 119.687,384.220 119.136,384.000 119.000 C 383.780 118.864,383.600 118.403,383.600 117.976 C 383.600 117.549,383.465 117.199,383.300 117.197 C 382.941 117.193,382.000 115.256,382.000 114.520 C 382.000 114.234,381.820 114.000,381.600 114.000 C 381.380 114.000,381.200 113.766,381.200 113.480 C 381.200 112.744,380.259 110.807,379.900 110.803 C 379.735 110.801,379.600 110.440,379.600 110.000 C 379.600 109.560,379.420 109.200,379.200 109.200 C 378.980 109.200,378.800 108.840,378.800 108.400 C 378.800 107.960,378.620 107.600,378.400 107.600 C 378.180 107.600,378.000 107.240,378.000 106.800 C 378.000 106.360,377.820 106.000,377.600 106.000 C 377.380 106.000,377.200 105.640,377.200 105.200 C 377.200 104.760,377.062 104.400,376.894 104.400 C 376.726 104.400,376.282 103.725,375.906 102.900 C 375.203 101.352,373.960 99.152,373.590 98.800 C 373.475 98.690,372.935 97.745,372.391 96.700 C 371.847 95.655,371.266 94.800,371.101 94.800 C 370.935 94.800,370.800 94.564,370.800 94.275 C 370.800 93.987,370.485 93.393,370.100 92.955 C 369.362 92.116,368.617 90.921,367.697 89.100 C 367.391 88.495,366.975 88.000,366.771 88.000 C 366.567 88.000,366.400 87.730,366.400 87.400 C 366.400 87.070,366.220 86.800,366.000 86.800 C 365.780 86.800,365.600 86.570,365.600 86.288 C 365.600 86.007,365.240 85.517,364.800 85.200 C 364.360 84.883,364.000 84.393,364.000 84.112 C 364.000 83.830,363.820 83.600,363.600 83.600 C 363.380 83.600,363.200 83.330,363.200 83.000 C 363.200 82.670,363.020 82.400,362.800 82.400 C 362.580 82.400,362.400 82.130,362.400 81.800 C 362.400 81.470,362.220 81.200,362.000 81.200 C 361.780 81.200,361.600 80.970,361.600 80.688 C 361.600 80.407,361.240 79.917,360.800 79.600 C 360.360 79.283,360.000 78.793,360.000 78.512 C 360.000 78.230,359.820 78.000,359.600 78.000 C 359.380 78.000,359.200 77.802,359.200 77.560 C 359.200 77.319,358.660 76.617,358.000 76.000 C 357.340 75.383,356.800 74.670,356.800 74.414 C 356.800 74.158,355.900 73.071,354.800 72.000 C 353.700 70.929,352.800 69.952,352.800 69.831 C 352.800 69.508,351.695 68.211,349.200 65.604 C 347.990 64.340,346.550 62.734,346.000 62.035 C 344.326 59.909,339.665 55.200,339.233 55.200 C 339.011 55.200,338.635 54.840,338.400 54.400 C 338.165 53.960,337.807 53.600,337.605 53.600 C 337.403 53.600,335.791 52.160,334.024 50.400 C 332.257 48.640,330.617 47.200,330.380 47.200 C 330.142 47.200,329.071 46.300,328.000 45.200 C 326.929 44.100,325.860 43.200,325.626 43.200 C 325.392 43.200,324.459 42.480,323.552 41.600 C 322.645 40.720,321.744 40.000,321.548 40.000 C 321.353 40.000,320.628 39.460,319.937 38.800 C 319.246 38.140,318.438 37.600,318.141 37.600 C 317.843 37.600,317.600 37.420,317.600 37.200 C 317.600 36.980,317.330 36.800,317.000 36.800 C 316.670 36.800,316.400 36.620,316.400 36.400 C 316.400 36.180,316.130 36.000,315.800 36.000 C 315.470 36.000,315.200 35.850,315.200 35.668 C 315.200 35.485,314.705 35.081,314.100 34.770 C 313.495 34.460,312.730 33.933,312.400 33.600 C 312.070 33.267,311.305 32.740,310.700 32.430 C 310.095 32.119,309.600 31.715,309.600 31.532 C 309.600 31.350,309.322 31.200,308.983 31.200 C 308.644 31.200,307.980 30.840,307.508 30.400 C 307.036 29.960,306.413 29.600,306.125 29.600 C 305.836 29.600,305.600 29.420,305.600 29.200 C 305.600 28.980,305.330 28.800,305.000 28.800 C 304.670 28.800,304.400 28.620,304.400 28.400 C 304.400 28.180,304.040 28.000,303.600 28.000 C 303.160 28.000,302.800 27.820,302.800 27.600 C 302.800 27.380,302.530 27.200,302.200 27.200 C 301.870 27.200,301.600 27.064,301.600 26.898 C 301.600 26.731,301.015 26.337,300.300 26.022 C 299.585 25.707,298.781 25.258,298.514 25.025 C 297.203 23.880,296.807 23.600,296.497 23.600 C 295.903 23.600,294.006 22.611,294.003 22.300 C 294.001 22.135,293.640 22.000,293.200 22.000 C 292.760 22.000,292.400 21.820,292.400 21.600 C 292.400 21.380,292.113 21.200,291.762 21.200 C 291.411 21.200,290.646 20.879,290.062 20.486 C 288.979 19.757,288.012 19.281,285.700 18.336 C 284.985 18.044,284.400 17.669,284.400 17.502 C 284.400 17.336,284.040 17.200,283.600 17.200 C 283.160 17.200,282.800 17.020,282.800 16.800 C 282.800 16.580,282.451 16.400,282.024 16.400 C 281.597 16.400,281.136 16.220,281.000 16.000 C 280.864 15.780,280.313 15.600,279.776 15.600 C 279.239 15.600,278.800 15.420,278.800 15.200 C 278.800 14.980,278.535 14.800,278.212 14.800 C 277.889 14.800,276.983 14.440,276.200 14.000 C 275.417 13.560,274.421 13.200,273.988 13.200 C 273.555 13.200,273.200 13.053,273.200 12.872 C 273.200 12.692,272.289 12.296,271.175 11.993 C 270.061 11.690,269.060 11.297,268.951 11.121 C 268.842 10.944,268.324 10.800,267.800 10.800 C 267.276 10.800,266.736 10.620,266.600 10.400 C 266.464 10.180,265.913 10.000,265.376 10.000 C 264.839 10.000,264.400 9.820,264.400 9.600 C 264.400 9.380,263.860 9.200,263.200 9.200 C 262.540 9.200,262.000 9.020,262.000 8.800 C 262.000 8.580,261.460 8.400,260.800 8.400 C 260.140 8.400,259.600 8.220,259.600 8.000 C 259.600 7.780,258.981 7.600,258.224 7.600 C 257.467 7.600,256.736 7.420,256.600 7.200 C 256.464 6.980,255.834 6.800,255.200 6.800 C 254.566 6.800,253.936 6.620,253.800 6.400 C 253.664 6.180,252.944 6.000,252.200 6.000 C 251.456 6.000,250.736 5.820,250.600 5.600 C 250.464 5.380,249.733 5.200,248.976 5.200 C 248.219 5.200,247.600 5.020,247.600 4.800 C 247.600 4.580,246.790 4.400,245.800 4.400 C 244.810 4.400,244.000 4.220,244.000 4.000 C 244.000 3.780,243.201 3.600,242.224 3.600 C 241.247 3.600,240.336 3.420,240.200 3.200 C 240.064 2.980,239.164 2.800,238.200 2.800 C 237.236 2.800,236.336 2.620,236.200 2.400 C 236.064 2.180,234.883 2.000,233.576 2.000 C 232.259 2.000,231.200 1.822,231.200 1.600 C 231.200 1.373,230.027 1.200,228.480 1.200 C 226.858 1.200,225.561 1.001,225.267 0.707 C 224.781 0.221,187.541 -0.120,178.100 0.275 M207.200 39.192 C 237.058 40.526,264.784 49.594,289.400 66.076 C 293.741 68.983,298.282 72.242,298.800 72.822 C 298.910 72.945,299.379 73.306,299.843 73.623 C 303.460 76.099,315.252 87.209,320.202 92.806 C 337.994 112.920,350.515 136.759,356.545 162.000 C 359.869 175.914,360.891 184.850,360.891 200.000 C 360.891 213.798,360.234 220.666,357.791 232.400 C 353.036 255.235,344.188 275.384,330.654 294.200 C 328.913 296.620,327.378 298.690,327.242 298.800 C 327.106 298.910,326.504 299.659,325.904 300.465 C 325.303 301.271,324.584 302.173,324.306 302.468 C 324.028 302.764,322.908 304.084,321.819 305.403 C 319.212 308.557,308.935 318.913,306.144 321.200 C 304.935 322.190,303.643 323.270,303.273 323.600 C 283.263 341.437,250.930 355.811,222.400 359.555 C 213.349 360.743,210.600 360.909,200.000 360.903 C 152.962 360.880,109.187 341.055,78.793 306.010 C 77.367 304.365,75.977 302.779,75.704 302.485 C 75.431 302.191,74.176 300.567,72.915 298.875 C 71.654 297.184,70.506 295.710,70.363 295.600 C 70.221 295.490,68.308 292.700,66.112 289.400 C 53.889 271.029,46.031 251.898,41.833 230.290 C 40.997 225.987,40.670 223.887,39.759 217.000 C 34.573 177.780,50.049 126.422,75.741 97.587 C 76.433 96.810,77.989 95.010,79.199 93.587 C 81.533 90.840,89.931 82.345,92.629 80.000 C 107.391 67.175,120.936 58.619,137.800 51.467 C 154.313 44.463,173.796 40.016,191.400 39.230 C 195.140 39.064,198.380 38.904,198.600 38.876 C 198.820 38.848,202.690 38.990,207.200 39.192 " stroke="none" fill="#d40404" fill-rule="evenodd"></path><path id="path2" d="M188.333 39.800 C 188.195 39.938,186.129 40.226,183.741 40.440 C 175.675 41.163,167.366 42.592,160.600 44.421 C 159.720 44.659,158.370 45.009,157.600 45.200 C 156.830 45.391,155.570 45.717,154.800 45.925 C 152.590 46.522,144.724 49.188,143.400 49.789 C 142.740 50.089,141.390 50.638,140.400 51.010 C 139.410 51.382,137.610 52.136,136.400 52.686 C 135.190 53.236,133.480 53.972,132.600 54.323 C 129.065 55.730,118.697 61.442,113.400 64.901 C 107.816 68.547,98.698 75.182,97.600 76.399 C 97.490 76.521,96.234 77.606,94.809 78.810 C 91.426 81.668,81.604 91.486,78.810 94.801 C 77.606 96.231,76.522 97.490,76.400 97.600 C 76.279 97.710,75.559 98.610,74.800 99.600 C 74.041 100.590,73.326 101.490,73.209 101.600 C 69.845 104.784,57.009 125.852,54.323 132.600 C 53.972 133.480,53.236 135.190,52.686 136.400 C 52.136 137.610,51.382 139.410,51.010 140.400 C 50.638 141.390,50.091 142.740,49.793 143.400 C 49.215 144.683,46.450 153.014,45.612 156.000 C 45.334 156.990,44.963 158.250,44.787 158.800 C 44.611 159.350,44.344 160.430,44.193 161.200 C 44.041 161.970,43.745 163.320,43.534 164.200 C 42.281 169.419,41.118 176.524,40.324 183.800 C 39.703 189.486,39.703 210.514,40.324 216.200 C 41.361 225.702,43.177 235.562,45.151 242.400 C 45.373 243.170,45.723 244.430,45.929 245.200 C 46.864 248.699,49.511 256.256,50.447 258.095 C 50.641 258.477,50.800 258.966,50.800 259.183 C 50.800 259.399,51.230 260.527,51.755 261.688 C 52.281 262.850,53.106 264.700,53.589 265.800 C 58.924 277.939,70.041 295.648,77.035 303.145 C 77.576 303.725,78.690 305.041,79.510 306.070 C 82.869 310.285,93.577 320.431,100.600 326.054 C 105.036 329.606,114.708 336.245,118.400 338.274 C 119.610 338.939,121.500 340.009,122.600 340.653 C 125.957 342.616,136.551 347.679,139.600 348.777 C 141.855 349.589,144.708 350.745,145.695 351.247 C 146.077 351.441,146.741 351.600,147.171 351.600 C 147.601 351.600,148.064 351.780,148.200 352.000 C 148.336 352.220,148.876 352.400,149.400 352.400 C 149.924 352.400,150.451 352.559,150.571 352.754 C 150.692 352.949,151.287 353.204,151.895 353.321 C 152.918 353.518,153.902 353.782,157.600 354.849 C 161.049 355.845,167.409 357.265,171.800 358.021 C 182.211 359.812,186.875 360.167,200.000 360.167 C 212.857 360.167,219.992 359.624,228.600 357.992 C 229.920 357.741,231.810 357.382,232.800 357.193 C 233.790 357.005,235.410 356.644,236.400 356.392 C 237.390 356.141,238.876 355.840,239.703 355.725 C 240.529 355.610,241.305 355.355,241.426 355.158 C 241.548 354.961,242.166 354.800,242.800 354.800 C 243.434 354.800,244.064 354.620,244.200 354.400 C 244.336 354.180,244.966 354.000,245.600 354.000 C 246.234 354.000,246.864 353.820,247.000 353.600 C 247.136 353.380,247.676 353.200,248.200 353.200 C 248.724 353.200,249.264 353.020,249.400 352.800 C 249.536 352.580,250.076 352.400,250.600 352.400 C 251.124 352.400,251.664 352.220,251.800 352.000 C 251.936 351.780,252.399 351.600,252.829 351.600 C 253.259 351.600,253.923 351.434,254.305 351.231 C 254.687 351.028,256.530 350.277,258.400 349.563 C 268.262 345.793,279.784 339.788,289.042 333.593 C 316.298 315.356,338.187 288.159,349.563 258.400 C 350.277 256.530,351.028 254.687,351.231 254.305 C 351.434 253.923,351.600 253.259,351.600 252.829 C 351.600 252.399,351.780 251.936,352.000 251.800 C 352.220 251.664,352.400 251.124,352.400 250.600 C 352.400 250.076,352.559 249.549,352.754 249.429 C 352.949 249.308,353.204 248.713,353.321 248.105 C 353.438 247.497,353.729 246.325,353.967 245.500 C 355.290 240.916,355.699 239.352,356.422 236.100 C 357.334 232.000,357.626 230.489,357.836 228.800 C 357.958 227.810,358.217 226.640,358.411 226.200 C 358.605 225.760,358.850 224.410,358.955 223.200 C 359.060 221.990,359.374 219.020,359.654 216.600 C 360.328 210.777,360.328 189.223,359.654 183.400 C 359.374 180.980,359.060 178.010,358.955 176.800 C 358.850 175.590,358.605 174.240,358.411 173.800 C 358.217 173.360,357.958 172.190,357.836 171.200 C 357.626 169.511,357.334 168.000,356.422 163.900 C 355.699 160.648,355.290 159.084,353.967 154.500 C 353.729 153.675,353.438 152.503,353.321 151.895 C 353.204 151.287,352.949 150.692,352.754 150.571 C 352.559 150.451,352.400 149.924,352.400 149.400 C 352.400 148.876,352.220 148.336,352.000 148.200 C 351.780 148.064,351.600 147.601,351.600 147.171 C 351.600 146.741,351.441 146.077,351.247 145.695 C 351.052 145.313,350.671 144.460,350.400 143.800 C 350.129 143.140,349.748 142.287,349.553 141.905 C 349.359 141.523,349.200 141.026,349.200 140.801 C 349.200 140.576,348.822 139.538,348.359 138.496 C 347.897 137.453,347.199 135.880,346.807 135.000 C 345.341 131.702,341.781 124.529,340.653 122.600 C 340.009 121.500,338.942 119.610,338.280 118.400 C 324.227 92.692,294.699 66.288,265.800 53.589 C 264.700 53.106,262.900 52.312,261.800 51.826 C 260.700 51.340,259.170 50.712,258.400 50.430 C 257.630 50.149,256.640 49.776,256.200 49.600 C 255.760 49.424,254.770 49.064,254.000 48.800 C 253.230 48.536,252.240 48.179,251.800 48.007 C 251.360 47.836,249.650 47.292,248.000 46.799 C 246.350 46.307,244.550 45.766,244.000 45.598 C 242.480 45.134,240.022 44.501,237.800 44.000 C 236.700 43.752,235.170 43.388,234.400 43.191 C 233.630 42.994,232.370 42.729,231.600 42.601 C 230.830 42.474,229.300 42.186,228.200 41.962 C 225.867 41.487,222.126 40.966,216.800 40.376 C 212.484 39.897,188.717 39.417,188.333 39.800 M284.426 104.414 C 284.862 104.647,285.200 105.248,285.200 105.790 C 285.200 106.320,285.360 106.852,285.556 106.973 C 285.751 107.094,286.009 107.779,286.127 108.496 C 286.485 110.659,286.842 112.156,287.200 113.000 C 287.387 113.440,287.651 114.340,287.788 115.000 C 288.089 116.460,288.594 118.462,289.200 120.600 C 289.923 123.153,290.441 125.300,290.673 126.704 C 290.792 127.421,291.049 128.106,291.244 128.227 C 291.440 128.348,291.600 128.966,291.600 129.600 C 291.600 130.234,291.780 130.864,292.000 131.000 C 292.220 131.136,292.400 131.856,292.400 132.600 C 292.400 133.344,292.580 134.064,292.800 134.200 C 293.020 134.336,293.200 134.966,293.200 135.600 C 293.200 136.234,293.380 136.864,293.600 137.000 C 293.820 137.136,294.000 137.856,294.000 138.600 C 294.000 139.344,294.160 140.052,294.356 140.173 C 294.551 140.294,294.809 140.979,294.927 141.696 C 295.285 143.859,295.642 145.356,296.000 146.200 C 296.187 146.640,296.443 147.495,296.570 148.100 C 296.696 148.705,296.904 149.695,297.030 150.300 C 297.157 150.905,297.413 151.760,297.600 152.200 C 297.787 152.640,298.035 153.450,298.151 154.000 C 298.267 154.550,298.474 155.540,298.611 156.200 C 298.748 156.860,299.013 157.760,299.200 158.200 C 299.566 159.063,299.924 160.580,300.284 162.796 C 300.465 163.913,301.540 165.240,305.657 169.428 L 310.803 174.663 310.702 220.231 L 310.600 265.800 305.900 265.913 L 301.200 266.025 301.200 280.599 C 301.200 294.597,301.170 295.188,300.426 295.586 C 299.259 296.210,271.108 296.148,270.480 295.520 C 270.124 295.164,270.000 291.280,270.000 280.520 L 270.000 266.000 200.000 266.000 L 130.000 266.000 130.000 280.520 C 130.000 291.280,129.876 295.164,129.520 295.520 C 128.892 296.148,100.741 296.210,99.574 295.586 C 98.830 295.188,98.800 294.597,98.800 280.599 L 98.800 266.025 94.100 265.913 L 89.400 265.800 89.298 220.231 L 89.197 174.663 94.398 169.372 C 98.768 164.927,99.600 163.886,99.600 162.864 C 99.600 162.195,99.760 161.548,99.956 161.427 C 100.151 161.306,100.408 160.621,100.527 159.904 C 100.759 158.500,101.277 156.353,102.000 153.800 C 102.606 151.662,103.111 149.660,103.412 148.200 C 103.549 147.540,103.813 146.640,104.000 146.200 C 104.187 145.760,104.435 144.950,104.551 144.400 C 104.667 143.850,104.874 142.860,105.011 142.200 C 105.148 141.540,105.413 140.640,105.600 140.200 C 105.787 139.760,106.035 138.950,106.151 138.400 C 106.267 137.850,106.474 136.860,106.611 136.200 C 106.748 135.540,107.013 134.640,107.200 134.200 C 107.387 133.760,107.631 132.950,107.742 132.400 C 107.853 131.850,108.149 130.680,108.399 129.800 C 108.649 128.920,109.007 127.570,109.195 126.800 C 109.383 126.030,109.925 123.960,110.400 122.200 C 110.875 120.440,111.417 118.370,111.605 117.600 C 111.793 116.830,112.151 115.480,112.400 114.600 C 112.649 113.720,113.009 112.370,113.200 111.600 C 113.391 110.830,113.751 109.480,114.001 108.600 C 114.251 107.720,114.554 106.550,114.674 106.000 C 114.794 105.450,115.176 104.775,115.523 104.500 C 116.351 103.843,283.201 103.758,284.426 104.414 M124.097 115.300 C 123.877 115.575,122.856 120.120,121.829 125.400 C 120.802 130.680,119.804 135.720,119.613 136.600 C 119.422 137.480,119.056 139.280,118.800 140.600 C 118.544 141.920,118.184 143.720,118.000 144.600 C 117.816 145.480,117.460 147.280,117.208 148.600 C 116.957 149.920,116.583 151.553,116.376 152.228 C 116.169 152.904,116.000 153.669,116.000 153.928 C 116.000 154.289,135.775 154.400,200.045 154.400 L 284.091 154.400 283.863 153.300 C 283.738 152.695,283.464 151.390,283.255 150.400 C 283.045 149.410,282.661 147.520,282.400 146.200 C 282.139 144.880,281.779 143.080,281.600 142.200 C 281.421 141.320,281.061 139.520,280.800 138.200 C 280.539 136.880,280.179 135.080,280.000 134.200 C 279.821 133.320,279.461 131.520,279.200 130.200 C 278.939 128.880,278.579 127.080,278.400 126.200 C 277.512 121.841,277.095 119.636,276.836 117.932 C 276.680 116.905,276.316 115.780,276.027 115.432 C 275.319 114.580,124.779 114.449,124.097 115.300 M110.475 187.799 C 105.813 189.110,102.662 192.228,100.451 197.719 C 99.925 199.023,99.844 204.889,100.337 205.905 C 100.522 206.287,101.099 207.478,101.620 208.551 C 104.493 214.478,113.084 218.204,118.681 215.949 C 136.684 208.700,129.066 182.571,110.475 187.799 M282.349 187.575 C 269.362 190.109,266.731 209.089,278.585 214.730 C 281.721 216.223,282.469 216.400,285.628 216.400 C 290.305 216.400,297.600 212.532,297.600 210.053 C 297.600 209.804,297.735 209.599,297.900 209.597 C 298.301 209.593,299.200 207.619,299.200 206.744 C 299.200 206.361,299.380 205.936,299.600 205.800 C 300.095 205.494,300.132 198.647,299.644 197.695 C 299.448 197.313,298.899 196.183,298.425 195.185 C 295.658 189.366,289.095 186.259,282.349 187.575 M100.000 231.800 L 100.000 236.400 200.000 236.400 L 300.000 236.400 300.000 231.800 L 300.000 227.200 200.000 227.200 L 100.000 227.200 100.000 231.800 " stroke="none" fill="#fbfbfb" fill-rule="evenodd"></path><path id="path3" d="M115.196 105.300 C 114.805 106.211,113.952 109.328,110.628 122.000 C 109.618 125.850,108.419 130.350,107.963 132.000 C 107.159 134.908,106.774 136.357,104.664 144.400 C 104.116 146.490,103.277 149.640,102.800 151.400 C 100.883 158.476,99.902 162.255,99.708 163.317 C 99.572 164.065,97.799 166.160,94.350 169.650 L 89.197 174.866 89.298 220.133 L 89.400 265.400 94.200 265.600 L 99.000 265.800 99.200 280.600 L 99.400 295.400 114.400 295.407 L 129.400 295.414 114.505 295.302 L 99.610 295.190 99.505 280.295 L 99.400 265.400 94.500 265.288 L 89.600 265.175 89.600 220.082 L 89.600 174.988 94.763 169.837 C 97.933 166.674,100.008 164.283,100.138 163.643 C 100.423 162.248,101.045 159.759,101.600 157.800 C 101.849 156.920,102.209 155.570,102.400 154.800 C 102.591 154.030,102.951 152.680,103.200 151.800 C 103.449 150.920,103.809 149.570,104.000 148.800 C 104.191 148.030,104.551 146.680,104.800 145.800 C 105.268 144.148,105.678 142.564,106.355 139.800 C 106.571 138.920,106.951 137.480,107.201 136.600 C 107.451 135.720,107.747 134.550,107.858 134.000 C 107.969 133.450,108.213 132.640,108.400 132.200 C 108.587 131.760,108.831 130.950,108.942 130.400 C 109.053 129.850,109.349 128.680,109.599 127.800 C 109.849 126.920,110.209 125.570,110.400 124.800 C 110.591 124.030,110.951 122.680,111.200 121.800 C 111.449 120.920,111.807 119.570,111.995 118.800 C 112.183 118.030,112.697 116.050,113.137 114.400 C 114.611 108.875,115.099 107.007,115.358 105.899 L 115.616 104.798 200.101 104.899 L 284.586 105.000 284.871 106.400 C 285.228 108.157,285.813 110.527,286.400 112.600 C 286.649 113.480,287.009 114.830,287.200 115.600 C 287.391 116.370,287.751 117.720,288.000 118.600 C 288.249 119.480,288.609 120.830,288.800 121.600 C 288.991 122.370,289.351 123.720,289.600 124.600 C 289.849 125.480,290.209 126.830,290.400 127.600 C 290.591 128.370,290.926 129.630,291.146 130.400 C 291.365 131.170,291.917 133.195,292.372 134.900 C 292.828 136.605,293.574 139.395,294.032 141.100 C 294.489 142.805,295.017 144.830,295.205 145.600 C 295.393 146.370,295.751 147.720,296.000 148.600 C 296.249 149.480,296.609 150.830,296.800 151.600 C 296.991 152.370,297.351 153.720,297.600 154.600 C 297.849 155.480,298.203 156.830,298.386 157.600 C 300.112 164.846,299.921 164.509,305.372 169.972 L 310.400 175.011 310.400 220.093 L 310.400 265.175 305.500 265.288 L 300.600 265.400 300.495 280.300 L 300.390 295.200 285.595 295.200 L 270.800 295.200 270.800 280.833 C 270.800 272.931,270.691 266.181,270.557 265.833 C 270.296 265.151,129.600 264.819,129.600 265.500 C 129.600 265.665,161.235 265.800,199.900 265.800 L 270.200 265.800 270.305 280.705 L 270.410 295.610 285.505 295.505 L 300.600 295.400 300.800 280.600 L 301.000 265.800 305.900 265.688 L 310.800 265.575 310.800 220.120 L 310.800 174.665 305.650 169.590 C 301.526 165.525,300.458 164.244,300.288 163.157 C 300.170 162.411,299.890 161.170,299.665 160.400 C 299.440 159.630,298.883 157.605,298.428 155.900 C 297.972 154.195,297.226 151.405,296.768 149.700 C 296.311 147.995,295.783 145.970,295.595 145.200 C 295.407 144.430,295.049 143.080,294.800 142.200 C 294.551 141.320,294.191 139.970,294.000 139.200 C 293.809 138.430,293.449 137.080,293.200 136.200 C 292.951 135.320,292.591 133.970,292.400 133.200 C 292.209 132.430,291.876 131.170,291.660 130.400 C 291.444 129.630,290.817 127.290,290.267 125.200 C 289.717 123.110,288.877 119.960,288.400 118.200 C 287.923 116.440,287.115 113.380,286.604 111.400 C 286.093 109.420,285.583 107.530,285.471 107.200 C 285.359 106.870,285.158 106.105,285.026 105.500 L 284.785 104.400 200.184 104.400 L 115.583 104.400 115.196 105.300 M123.467 114.667 C 123.320 114.813,123.205 115.218,123.212 115.567 C 123.222 116.103,123.287 116.093,123.632 115.500 C 124.156 114.601,275.698 114.388,276.253 115.285 C 276.418 115.552,276.682 116.497,276.839 117.385 C 277.124 118.989,277.775 122.334,278.400 125.400 C 278.579 126.280,278.939 128.080,279.200 129.400 C 279.461 130.720,279.821 132.520,280.000 133.400 C 280.179 134.280,280.539 136.080,280.800 137.400 C 281.061 138.720,281.421 140.520,281.600 141.400 C 281.779 142.280,282.139 144.080,282.400 145.400 C 282.661 146.720,283.038 148.610,283.239 149.600 C 283.439 150.590,283.716 152.075,283.854 152.900 L 284.105 154.400 200.009 154.400 L 115.912 154.400 116.132 153.100 C 116.252 152.385,116.558 150.810,116.811 149.600 C 117.487 146.361,117.870 144.483,118.400 141.800 C 118.661 140.480,119.021 138.680,119.200 137.800 C 119.379 136.920,119.739 135.120,120.000 133.800 C 120.261 132.480,120.640 130.590,120.843 129.600 C 121.274 127.500,121.676 123.824,121.346 125.000 C 120.841 126.801,115.600 153.242,115.600 153.990 L 115.600 154.800 200.000 154.800 L 284.400 154.800 284.400 153.700 C 284.400 153.095,284.130 151.340,283.799 149.800 C 283.469 148.260,281.843 140.160,280.187 131.800 C 278.530 123.440,277.077 116.105,276.956 115.500 L 276.736 114.400 200.235 114.400 C 158.159 114.400,123.613 114.520,123.467 114.667 M122.619 117.927 C 122.455 118.877,122.417 119.750,122.534 119.868 C 122.826 120.159,123.326 117.373,123.100 116.721 C 123.000 116.435,122.784 116.977,122.619 117.927 M121.819 121.927 C 121.655 122.877,121.617 123.750,121.734 123.868 C 122.026 124.159,122.526 121.373,122.300 120.721 C 122.200 120.435,121.984 120.977,121.819 121.927 M109.077 187.589 C 95.262 192.987,96.508 212.970,110.889 216.654 C 119.193 218.782,128.675 212.682,129.434 204.725 L 129.598 203.000 129.073 205.000 C 125.368 219.093,106.761 220.844,100.915 207.650 C 98.577 202.373,99.882 195.788,104.120 191.481 C 106.428 189.135,108.315 188.098,111.600 187.370 C 113.483 186.952,113.598 186.879,112.400 186.860 C 111.630 186.847,110.135 187.176,109.077 187.589 M117.200 187.233 C 121.684 188.266,125.830 191.373,127.820 195.191 C 128.339 196.186,128.771 196.780,128.781 196.512 C 128.901 193.371,121.758 187.437,117.340 187.007 L 115.400 186.818 117.200 187.233 M281.400 187.200 C 280.306 187.670,282.133 187.670,283.600 187.200 C 284.575 186.888,284.570 186.879,283.400 186.868 C 282.740 186.862,281.840 187.011,281.400 187.200 M288.400 187.338 C 305.977 191.488,303.220 216.543,285.196 216.457 C 283.248 216.448,281.326 216.266,280.927 216.054 C 280.527 215.841,279.544 215.383,278.742 215.035 C 268.399 210.548,268.387 193.453,278.724 188.743 C 279.689 188.304,280.382 187.849,280.266 187.733 C 279.805 187.272,275.823 189.880,274.157 191.732 C 272.523 193.549,272.104 194.260,270.856 197.319 C 270.605 197.934,270.400 199.917,270.400 201.724 C 270.400 218.329,292.379 223.104,299.487 208.043 C 300.700 205.474,301.111 198.151,300.100 197.140 C 299.825 196.865,299.600 196.393,299.600 196.092 C 299.600 193.007,292.383 187.279,288.094 186.959 L 286.200 186.818 288.400 187.338 M128.846 197.800 C 128.915 199.431,129.515 200.787,129.554 199.400 C 129.573 198.740,129.413 197.930,129.200 197.600 C 128.881 197.106,128.818 197.141,128.846 197.800 M99.467 227.066 C 98.974 227.559,99.165 236.605,99.680 237.120 C 100.447 237.887,299.727 237.811,300.364 237.043 C 300.671 236.673,300.788 234.898,300.713 231.743 L 300.600 227.000 200.167 226.899 C 144.930 226.844,99.615 226.919,99.467 227.066 M300.313 231.900 L 300.200 236.600 200.000 236.600 L 99.800 236.600 99.685 232.427 C 99.622 230.132,99.661 228.017,99.773 227.727 C 99.939 227.293,117.646 227.200,200.200 227.200 L 300.425 227.200 300.313 231.900 " stroke="none" fill="#8d8d8d" fill-rule="evenodd"></path><path id="path4" d="M191.400 39.230 C 163.570 40.472,135.041 49.887,111.325 65.656 C 104.277 70.342,99.730 73.831,92.629 80.000 C 89.931 82.345,81.533 90.840,79.199 93.587 C 77.989 95.010,76.433 96.810,75.741 97.587 C 50.049 126.422,34.573 177.780,39.759 217.000 C 40.670 223.887,40.997 225.987,41.833 230.290 C 46.031 251.898,53.889 271.029,66.112 289.400 C 68.308 292.700,70.221 295.490,70.363 295.600 C 70.506 295.710,71.654 297.184,72.915 298.875 C 74.176 300.567,75.431 302.191,75.704 302.485 C 75.977 302.779,77.367 304.365,78.793 306.010 C 101.051 331.673,132.553 350.304,165.600 357.349 C 178.993 360.205,185.688 360.896,200.000 360.903 C 210.600 360.909,213.349 360.743,222.400 359.555 C 244.039 356.716,265.426 348.905,285.724 336.428 C 290.282 333.627,299.967 326.547,303.273 323.600 C 303.643 323.270,304.935 322.190,306.144 321.200 C 308.935 318.913,319.212 308.557,321.819 305.403 C 322.908 304.084,324.028 302.764,324.306 302.468 C 324.584 302.173,325.303 301.271,325.904 300.465 C 326.504 299.659,327.106 298.910,327.242 298.800 C 329.710 296.799,341.035 278.596,344.983 270.284 C 351.788 255.958,355.737 243.694,358.790 227.400 C 362.451 207.859,361.604 183.179,356.545 162.000 C 350.515 136.759,337.994 112.920,320.202 92.806 C 315.252 87.209,303.460 76.099,299.843 73.623 C 299.379 73.306,298.910 72.945,298.800 72.822 C 293.073 66.403,266.168 52.110,249.881 46.835 C 234.694 41.916,207.657 37.720,198.600 38.876 C 198.380 38.904,195.140 39.064,191.400 39.230 M216.800 40.376 C 222.126 40.966,225.867 41.487,228.200 41.962 C 229.300 42.186,230.830 42.474,231.600 42.601 C 232.370 42.729,233.630 42.994,234.400 43.191 C 235.170 43.388,236.700 43.752,237.800 44.000 C 240.022 44.501,242.480 45.134,244.000 45.598 C 244.550 45.766,246.350 46.307,248.000 46.799 C 249.650 47.292,251.360 47.836,251.800 48.007 C 252.240 48.179,253.230 48.536,254.000 48.800 C 254.770 49.064,255.760 49.424,256.200 49.600 C 256.640 49.776,257.630 50.149,258.400 50.430 C 259.170 50.712,260.700 51.340,261.800 51.826 C 262.900 52.312,264.700 53.106,265.800 53.589 C 294.699 66.288,324.227 92.692,338.280 118.400 C 338.942 119.610,340.009 121.500,340.653 122.600 C 341.781 124.529,345.341 131.702,346.807 135.000 C 347.199 135.880,347.897 137.453,348.359 138.496 C 348.822 139.538,349.200 140.576,349.200 140.801 C 349.200 141.026,349.359 141.523,349.553 141.905 C 349.748 142.287,350.129 143.140,350.400 143.800 C 350.671 144.460,351.052 145.313,351.247 145.695 C 351.441 146.077,351.600 146.741,351.600 147.171 C 351.600 147.601,351.780 148.064,352.000 148.200 C 352.220 148.336,352.400 148.876,352.400 149.400 C 352.400 149.924,352.559 150.451,352.754 150.571 C 352.949 150.692,353.204 151.287,353.321 151.895 C 353.438 152.503,353.729 153.675,353.967 154.500 C 355.290 159.084,355.699 160.648,356.422 163.900 C 357.334 168.000,357.626 169.511,357.836 171.200 C 357.958 172.190,358.217 173.360,358.411 173.800 C 358.605 174.240,358.850 175.590,358.955 176.800 C 359.060 178.010,359.374 180.980,359.654 183.400 C 360.328 189.223,360.328 210.777,359.654 216.600 C 359.374 219.020,359.060 221.990,358.955 223.200 C 358.850 224.410,358.605 225.760,358.411 226.200 C 358.217 226.640,357.958 227.810,357.836 228.800 C 357.626 230.489,357.334 232.000,356.422 236.100 C 355.699 239.352,355.290 240.916,353.967 245.500 C 353.729 246.325,353.438 247.497,353.321 248.105 C 353.204 248.713,352.949 249.308,352.754 249.429 C 352.559 249.549,352.400 250.076,352.400 250.600 C 352.400 251.124,352.220 251.664,352.000 251.800 C 351.780 251.936,351.600 252.399,351.600 252.829 C 351.600 253.259,351.434 253.923,351.231 254.305 C 351.028 254.687,350.277 256.530,349.563 258.400 C 333.942 299.265,299.265 333.942,258.400 349.563 C 256.530 350.277,254.687 351.028,254.305 351.231 C 253.923 351.434,253.259 351.600,252.829 351.600 C 252.399 351.600,251.936 351.780,251.800 352.000 C 251.664 352.220,251.124 352.400,250.600 352.400 C 250.076 352.400,249.536 352.580,249.400 352.800 C 249.264 353.020,248.724 353.200,248.200 353.200 C 247.676 353.200,247.136 353.380,247.000 353.600 C 246.864 353.820,246.234 354.000,245.600 354.000 C 244.966 354.000,244.336 354.180,244.200 354.400 C 244.064 354.620,243.434 354.800,242.800 354.800 C 242.166 354.800,241.548 354.961,241.426 355.158 C 241.305 355.355,240.529 355.610,239.703 355.725 C 238.876 355.840,237.390 356.141,236.400 356.392 C 235.410 356.644,233.790 357.005,232.800 357.193 C 231.810 357.382,229.920 357.741,228.600 357.992 C 219.992 359.624,212.857 360.167,200.000 360.167 C 186.875 360.167,182.211 359.812,171.800 358.021 C 167.409 357.265,161.049 355.845,157.600 354.849 C 153.902 353.782,152.918 353.518,151.895 353.321 C 151.287 353.204,150.692 352.949,150.571 352.754 C 150.451 352.559,149.924 352.400,149.400 352.400 C 148.876 352.400,148.336 352.220,148.200 352.000 C 148.064 351.780,147.601 351.600,147.171 351.600 C 146.741 351.600,146.077 351.441,145.695 351.247 C 144.708 350.745,141.855 349.589,139.600 348.777 C 136.551 347.679,125.957 342.616,122.600 340.653 C 121.500 340.009,119.610 338.939,118.400 338.274 C 114.708 336.245,105.036 329.606,100.600 326.054 C 93.577 320.431,82.869 310.285,79.510 306.070 C 78.690 305.041,77.576 303.725,77.035 303.145 C 70.041 295.648,58.924 277.939,53.589 265.800 C 53.106 264.700,52.281 262.850,51.755 261.688 C 51.230 260.527,50.800 259.399,50.800 259.183 C 50.800 258.966,50.641 258.477,50.447 258.095 C 49.511 256.256,46.864 248.699,45.929 245.200 C 45.723 244.430,45.373 243.170,45.151 242.400 C 43.177 235.562,41.361 225.702,40.324 216.200 C 39.703 210.514,39.703 189.486,40.324 183.800 C 41.118 176.524,42.281 169.419,43.534 164.200 C 43.745 163.320,44.041 161.970,44.193 161.200 C 44.344 160.430,44.611 159.350,44.787 158.800 C 44.963 158.250,45.334 156.990,45.612 156.000 C 46.450 153.014,49.215 144.683,49.793 143.400 C 50.091 142.740,50.638 141.390,51.010 140.400 C 51.382 139.410,52.136 137.610,52.686 136.400 C 53.236 135.190,53.972 133.480,54.323 132.600 C 57.009 125.852,69.845 104.784,73.209 101.600 C 73.326 101.490,74.041 100.590,74.800 99.600 C 75.559 98.610,76.279 97.710,76.400 97.600 C 76.522 97.490,77.606 96.231,78.810 94.801 C 81.604 91.486,91.426 81.668,94.809 78.810 C 96.234 77.606,97.490 76.521,97.600 76.399 C 98.698 75.182,107.816 68.547,113.400 64.901 C 118.697 61.442,129.065 55.730,132.600 54.323 C 133.480 53.972,135.190 53.236,136.400 52.686 C 137.610 52.136,139.410 51.382,140.400 51.010 C 141.390 50.638,142.740 50.089,143.400 49.789 C 144.724 49.188,152.590 46.522,154.800 45.925 C 155.570 45.717,156.830 45.391,157.600 45.200 C 158.370 45.009,159.720 44.659,160.600 44.421 C 167.366 42.592,175.675 41.163,183.741 40.440 C 186.129 40.226,188.195 39.938,188.333 39.800 C 188.717 39.417,212.484 39.897,216.800 40.376 M157.900 104.300 C 181.055 104.357,218.945 104.357,242.100 104.300 C 265.255 104.243,246.310 104.196,200.000 104.196 C 153.690 104.196,134.745 104.243,157.900 104.300 M129.301 201.800 C 129.305 202.680,129.387 202.993,129.483 202.495 C 129.579 201.998,129.575 201.278,129.475 200.895 C 129.375 200.513,129.296 200.920,129.301 201.800 M300.109 202.000 C 300.109 202.990,300.187 203.395,300.282 202.900 C 300.378 202.405,300.378 201.595,300.282 201.100 C 300.187 200.605,300.109 201.010,300.109 202.000 M300.085 231.700 L 300.000 236.400 200.013 236.400 L 100.026 236.400 99.893 231.999 L 99.759 227.599 99.779 232.099 L 99.800 236.600 199.912 236.701 C 282.391 236.784,300.060 236.709,300.227 236.275 C 300.338 235.986,300.370 233.780,300.299 231.374 L 300.170 227.000 300.085 231.700 M89.461 265.700 C 89.563 265.865,91.707 266.000,94.224 266.000 L 98.800 266.000 98.800 280.576 C 98.800 288.593,98.935 295.236,99.100 295.339 C 99.265 295.441,99.310 288.836,99.200 280.662 L 99.000 265.800 94.137 265.600 C 91.462 265.490,89.358 265.535,89.461 265.700 M129.783 266.101 C 129.677 266.377,129.639 273.083,129.700 281.002 L 129.810 295.400 129.905 280.700 L 130.000 266.000 199.995 266.000 L 269.990 266.000 270.102 280.500 L 270.215 295.000 270.207 280.400 L 270.200 265.800 200.088 265.699 C 144.067 265.618,129.937 265.699,129.783 266.101 M300.991 266.100 C 300.673 266.963,300.584 295.534,300.900 295.338 C 301.065 295.236,301.200 288.599,301.200 280.589 L 301.200 266.025 305.900 265.899 L 310.600 265.772 305.887 265.686 C 302.418 265.623,301.126 265.732,300.991 266.100 M107.326 295.900 C 111.466 295.965,118.126 295.965,122.126 295.899 C 126.127 295.834,122.740 295.781,114.600 295.781 C 106.460 295.781,103.187 295.834,107.326 295.900 M278.126 295.900 C 282.266 295.965,288.926 295.965,292.926 295.899 C 296.927 295.834,293.540 295.781,285.400 295.781 C 277.260 295.781,273.987 295.834,278.126 295.900 " stroke="none" fill="#e69f9f" fill-rule="evenodd"></path></g></svg>