<?xml version="1.0" encoding="UTF-8" standalone="no"?>
<!-- Created with Inkscape (http://www.inkscape.org/) -->

<svg
   xmlns:svg="http://www.w3.org/2000/svg"
   xmlns="http://www.w3.org/2000/svg"
   version="1.0"
   width="693.50348"
   height="1000.0334"
   id="svg3424">
  <title
     id="title6100">Znak B-39</title>
  <defs
     id="defs3426" />
  <g
     transform="translate(210.36201,-14.249554)"
     id="layer1">
    <g
       transform="matrix(1.0021059,0,0,1.0021059,-288.33299,25.639647)"
       id="g5799">
      <rect
         width="687.04608"
         height="992.93188"
         rx="20.987906"
         ry="20.987906"
         x="80.307129"
         y="-8.8661566"
         id="rect4931"
         style="fill:#ffffff;fill-opacity:1;stroke:#000000;stroke-width:5;stroke-miterlimit:4;stroke-opacity:1;stroke-dasharray:none" />
      <rect
         width="665.43799"
         height="970.63031"
         rx="8.4879055"
         ry="8.4879055"
         x="91.040001"
         y="2.1823826"
         id="rect5443"
         style="fill:none;stroke:#000000;stroke-width:5;stroke-miterlimit:4;stroke-opacity:1;stroke-dasharray:none" />
      <g
         id="text5445"
         style="font-size:106.66629791px;font-style:normal;font-variant:normal;font-weight:bold;font-stretch:normal;text-align:start;line-height:125%;writing-mode:lr-tb;text-anchor:start;fill:#000000;fill-opacity:1;stroke:none;font-family:Drogowskaz;-inkscape-font-specification:Drogowskaz Bold">
        <path
           d="m 122.5,602.39377 20.00001,80.00003 13.33334,0 13.33333,-53.33335 13.33334,53.33335 13.33334,0 20.00001,-80.00003 -13.33334,0 -13.33334,53.33335 -13.33334,-53.33335 -13.33334,0 -13.33333,53.33335 -13.33334,-53.33335 -13.33334,0 z"
           id="path5470" />
      </g>
      <g
         id="text5449"
         style="font-size:106.66629791px;font-style:normal;font-variant:normal;font-weight:bold;font-stretch:normal;text-align:start;line-height:125%;writing-mode:lr-tb;text-anchor:start;fill:#000000;fill-opacity:1;stroke:none;font-family:Drogowskaz;-inkscape-font-specification:Drogowskaz Bold">
        <path
           d="m 277.04763,655.72712 c 0.19444,7.5278 2.80555,13.80558 7.83333,18.83334 5.02776,5.02778 11.30554,7.63889 18.83335,7.83334 2.43107,-0.007 4.76827,-0.32078 7.0116,-0.94127 2.24325,-0.62048 4.3505,-1.50557 6.32173,-2.65525 l 0,3.59652 13.33334,0 0,-80.00003 -13.33334,0 0,30.26318 c -1.97123,-1.14964 -4.07847,-2.03472 -6.32173,-2.65526 -2.24333,-0.62042 -4.58053,-0.93417 -7.0116,-0.94124 -7.52781,0.19449 -13.80558,2.8056 -18.83335,7.83333 -5.02778,5.02782 -7.63889,11.30559 -7.83333,18.83334 z m 13.33334,0 c 0.0972,-3.84372 1.40276,-7.03122 3.91667,-9.5625 2.51386,-2.53122 5.65275,-3.84371 9.41667,-3.9375 3.76385,0.0938 6.90274,1.40629 9.41666,3.9375 2.51385,2.53128 3.8194,5.71878 3.91667,9.5625 -0.0973,3.84378 -1.40282,7.03127 -3.91666,9.5625 -2.51393,2.53127 -5.65282,3.84377 -9.41667,3.93751 -3.76392,-0.0937 -6.90281,-1.40624 -9.41668,-3.9375 -2.51391,-2.53123 -3.81946,-5.71873 -3.91666,-9.56251 z"
           id="path5517" />
        <path
           d="m 349.40454,629.06045 0,53.33335 13.33334,0 0,-30.00001 c 0.0723,-2.83222 1.04921,-5.18905 2.93081,-7.07051 1.88154,-1.88137 4.23794,-2.85787 7.06919,-2.9295 2.83163,0.0717 5.1883,1.04838 7.07,2.93001 1.88163,1.8817 2.85829,4.23836 2.93,7.07 l 0,30.00001 13.33334,0 0,-33.33335 c -0.14914,-5.66329 -2.11397,-10.37662 -5.8945,-14.14 -3.78063,-3.76329 -8.48246,-5.71662 -14.1055,-5.86 -2.58068,0.0148 -5.00407,0.47746 -7.27017,1.38796 -2.26617,0.9106 -4.28722,2.1805 -6.06317,3.80971 l 0,-5.19767 -13.33334,0 z"
           id="path5519" />
        <path
           d="m 414.64239,629.06045 0,53.33335 13.33334,0 0,-53.33335 -13.33334,0 z m 0,-26.66668 0,13.33334 13.33334,0 0,-13.33334 -13.33334,0 z"
           id="path5521" />
      </g>
      <g
         id="text5453"
         style="font-size:106.66629791px;font-style:normal;font-variant:normal;font-weight:bold;font-stretch:normal;text-align:start;line-height:125%;writing-mode:lr-tb;text-anchor:start;fill:#000000;fill-opacity:1;stroke:none;font-family:Drogowskaz;-inkscape-font-specification:Drogowskaz Bold">
        <path
           d="m 141.01192,785.27919 c 0.0972,-3.84373 1.40276,-7.03122 3.91667,-9.56251 2.51386,-2.53121 5.65275,-3.84371 9.41667,-3.9375 3.76385,0.0938 6.90274,1.40629 9.41667,3.9375 2.51384,2.53129 3.8194,5.71878 3.91667,9.56251 -0.0973,3.84377 -1.40283,7.03127 -3.91667,9.5625 -2.51393,2.53126 -5.65282,3.84376 -9.41667,3.9375 -3.76392,-0.0937 -6.90281,-1.40624 -9.41667,-3.9375 -2.51392,-2.53123 -3.81947,-5.71873 -3.91667,-9.5625 z m -13.33334,-26.66668 0,80.00003 13.33334,0 0,-30.2632 c 1.97117,1.14969 4.07841,2.03477 6.32174,2.65525 2.24326,0.62049 4.58046,0.93425 7.0116,0.94127 7.52774,-0.19444 13.80551,-2.80555 18.83334,-7.83334 5.02772,-5.02776 7.63883,-11.30554 7.83334,-18.83333 -0.19451,-7.52775 -2.80562,-13.80553 -7.83334,-18.83335 -5.02783,-5.02773 -11.3056,-7.63883 -18.83334,-7.83333 -2.43114,0.007 -4.76834,0.32082 -7.01161,0.94125 -2.24332,0.62053 -4.35056,1.50561 -6.32173,2.65525 l 0,-3.5965 -13.33334,0 z"
           id="path5496" />
        <path
           d="m 193.92834,785.27919 c 0.20305,8.02306 2.97027,14.70027 8.30167,20.03166 5.33137,5.3314 12.00859,8.09862 20.03168,8.30168 8.02301,-0.20306 14.70023,-2.97029 20.03167,-8.30168 5.33133,-5.33139 8.09855,-12.0086 8.30167,-20.03166 -0.20312,-8.02303 -2.97034,-14.70025 -8.30167,-20.03168 -5.33144,-5.33134 -12.00866,-8.09856 -20.03167,-8.30167 -8.02309,0.20311 -14.70031,2.97033 -20.03168,8.30167 -5.3314,5.33143 -8.09862,12.00865 -8.30167,20.03168 z m 13.33334,0 c 0.10748,-4.24747 1.57248,-7.78247 4.395,-10.60501 2.82247,-2.82246 6.35747,-4.28746 10.60501,-4.395 4.24746,0.10754 7.78245,1.57254 10.605,4.395 2.82245,2.82254 4.28745,6.35753 4.395,10.60501 -0.10755,4.24752 -1.57255,7.78252 -4.395,10.605 -2.82255,2.82251 -6.35755,4.28751 -10.605,4.395 -4.24754,-0.10749 -7.78253,-1.57249 -10.60501,-4.395 -2.82252,-2.82249 -4.28752,-6.35748 -4.395,-10.605 z"
           id="path5498" />
        <path
           d="m 258.45191,758.61251 13.33334,53.33335 13.33334,0 10,-32.00001 10,32.00001 13.33334,0 13.33334,-53.33335 -13.33334,0 -7.40733,29.62951 -9.25934,-29.62951 -13.33334,0 -9.25934,29.62951 -7.40733,-29.62951 -13.33334,0 z"
           id="path5500" />
        <path
           d="m 359.51822,758.61251 c -4.13892,0.0938 -7.69447,1.5313 -10.66667,4.3125 -2.97223,2.7813 -4.52778,6.3438 -4.66666,10.6875 0.13541,3.48615 0.98958,6.26393 2.5625,8.33334 1.5729,2.06948 3.05206,3.51392 4.43749,4.33334 l 10.83334,6.33333 c 0.76038,0.43058 1.36455,1.0278 1.81249,1.79167 0.44789,0.76391 0.67706,1.61113 0.68751,2.54167 -0.0313,1.44793 -0.51045,2.63543 -1.43751,3.5625 -0.92711,0.92709 -2.11461,1.40626 -3.56249,1.4375 -3.14727,-0.0139 -6.11645,-0.3194 -8.90755,-0.91659 -2.79113,-0.59716 -5.39573,-1.40269 -7.81379,-2.41658 l -3.66667,11.16667 c 2.93941,1.20476 6.14287,2.1422 9.61038,2.81233 3.46748,0.67013 7.06002,1.01041 10.77763,1.02084 4.70483,-0.12153 8.62843,-1.75347 11.77083,-4.89583 3.14232,-3.14236 4.77426,-7.06597 4.89584,-11.77084 -0.0382,-3.11804 -0.79518,-5.9236 -2.27084,-8.41668 -1.47573,-2.49303 -3.44101,-4.46525 -5.89583,-5.91666 l -10.16667,-6.16667 c -0.50697,-0.25344 -0.90975,-0.6215 -1.20834,-1.10417 -0.29863,-0.4826 -0.45141,-1.05899 -0.45833,-1.72917 0.0243,-0.94093 0.35067,-1.72565 0.97917,-2.35416 0.62845,-0.62844 1.41317,-0.95482 2.35417,-0.97917 2.05871,0.007 4.07664,0.15977 6.05381,0.45835 1.9771,0.29867 3.81099,0.7015 5.50169,1.20849 l 0,-11.99984 c -1.55007,-0.40202 -3.30584,-0.7233 -5.26732,-0.96384 -1.96154,-0.24043 -4.0576,-0.36371 -6.28818,-0.36983 z"
           id="path5502" />
        <path
           d="m 424.73719,798.61252 -18.38884,0 18.38884,-33.83334 0,-6.16667 -36.66668,0 0,13.33334 18.33334,0 -18.33334,33.83368 0,6.16633 36.66668,0 0,-13.33334 z"
           id="path5504" />
        <path
           d="m 479.93939,780.27918 -28.33334,0 c 1.059,-2.96871 2.85761,-5.36455 5.39583,-7.1875 2.53817,-1.82288 5.46178,-2.76038 8.77084,-2.8125 3.30899,0.0521 6.2326,0.98963 8.77084,2.8125 2.53815,1.82296 4.33676,4.21879 5.39583,7.1875 z m -28.33334,10.00001 37.50001,0 0,-21.00001 c -2.62853,-3.79509 -5.95492,-6.78815 -9.97917,-8.97917 -4.02435,-2.19092 -8.47574,-3.30897 -13.35417,-3.35417 -8.03475,0.20144 -14.7153,2.96533 -20.04167,8.29167 -5.3264,5.32643 -8.09029,12.00699 -8.29167,20.04168 0.20138,8.03474 2.96527,14.71529 8.29167,20.04167 5.32637,5.32639 12.00692,8.09028 20.04167,8.29167 1.52774,-0.0278 2.97219,-0.13889 4.33334,-0.33333 l 9,-1.33334 6.66667,-13.33334 c -1.4688,0.21529 -4.38547,0.53474 -8.75,0.95834 -4.36463,0.42362 -8.11463,0.65973 -11.25001,0.70833 -3.29448,-0.0417 -6.18892,-0.95832 -8.68334,-2.75 -2.49447,-1.79165 -4.32224,-4.20832 -5.48333,-7.25 z"
           id="path5506" />
        <path
           d="m 501.0344,785.27919 c 0.19444,7.5278 2.80555,13.80557 7.83334,18.83333 5.02775,5.02778 11.30553,7.63889 18.83334,7.83334 2.43107,-0.007 4.76827,-0.32078 7.0116,-0.94126 2.24326,-0.62049 4.3505,-1.50557 6.32174,-2.65526 l 0,3.59652 13.33333,0 0,-80.00003 -13.33333,0 0,30.26318 c -1.97124,-1.14964 -4.07848,-2.03472 -6.32174,-2.65525 -2.24333,-0.62043 -4.58053,-0.93418 -7.0116,-0.94125 -7.52781,0.1945 -13.80558,2.80561 -18.83334,7.83333 -5.02779,5.02782 -7.6389,11.3056 -7.83334,18.83335 z m 13.33334,0 c 0.0972,-3.84373 1.40276,-7.03122 3.91667,-9.56251 2.51386,-2.53121 5.65275,-3.84371 9.41667,-3.9375 3.76385,0.0938 6.90274,1.40629 9.41667,3.9375 2.51384,2.53129 3.8194,5.71878 3.91667,9.56251 -0.0973,3.84377 -1.40283,7.03127 -3.91667,9.5625 -2.51393,2.53126 -5.65282,3.84376 -9.41667,3.9375 -3.76392,-0.0937 -6.90281,-1.40624 -9.41668,-3.9375 -2.51391,-2.53123 -3.81946,-5.71873 -3.91666,-9.5625 z"
           id="path5508" />
        <path
           d="m 573.74846,758.61251 0,53.33335 13.33334,0 0,-30.00001 c 0.0723,-2.83222 1.04921,-5.18905 2.93081,-7.0705 1.88154,-1.88138 4.23794,-2.85788 7.06919,-2.9295 2.83163,0.0717 5.1883,1.04837 7.07,2.93 1.88163,1.8817 2.85829,4.23837 2.93,7.07 l 0,30.00001 13.33334,0 0,-33.33334 c -0.14914,-5.6633 -2.11397,-10.37663 -5.8945,-14.14001 -3.78063,-3.76328 -8.48246,-5.71661 -14.10551,-5.86 -2.58067,0.0148 -5.00406,0.47746 -7.27016,1.38796 -2.26617,0.9106 -4.28723,2.1805 -6.06317,3.80971 l 0,-5.19767 -13.33334,0 z"
           id="path5510" />
        <path
           d="m 639.16487,758.61251 0,53.33335 13.33334,0 0,-53.33335 -13.33334,0 z m 0,-26.66668 0,13.33334 13.33334,0 0,-13.33334 -13.33334,0 z"
           id="path5512" />
        <path
           d="m 711.12908,780.27918 -28.33334,0 c 1.059,-2.96871 2.85761,-5.36455 5.39583,-7.1875 2.53817,-1.82288 5.46178,-2.76038 8.77084,-2.8125 3.30899,0.0521 6.2326,0.98963 8.77084,2.8125 2.53815,1.82296 4.33676,4.21879 5.39583,7.1875 z m -28.33334,10.00001 37.50001,0 0,-21.00001 c -2.62853,-3.79509 -5.95492,-6.78815 -9.97917,-8.97917 -4.02435,-2.19092 -8.47574,-3.30897 -13.35417,-3.35417 -8.03475,0.20144 -14.7153,2.96533 -20.04167,8.29167 -5.3264,5.32643 -8.09029,12.00699 -8.29167,20.04168 0.20138,8.03474 2.96527,14.71529 8.29167,20.04167 5.32637,5.32639 12.00692,8.09028 20.04167,8.29167 1.52774,-0.0278 2.97219,-0.13889 4.33334,-0.33333 l 9,-1.33334 6.66667,-13.33334 c -1.4688,0.21529 -4.38547,0.53474 -8.75,0.95834 -4.36463,0.42362 -8.11463,0.65973 -11.25001,0.70833 -3.29448,-0.0417 -6.18892,-0.95832 -8.68334,-2.75 -2.49447,-1.79165 -4.32224,-4.20832 -5.48333,-7.25 z"
           id="path5514" />
      </g>
      <g
         id="text5457"
         style="font-size:78.88720703px;font-style:normal;font-variant:normal;font-weight:bold;font-stretch:normal;text-align:start;line-height:125%;writing-mode:lr-tb;text-anchor:start;fill:#000000;fill-opacity:1;stroke:none;font-family:Drogowskaz;-inkscape-font-specification:Drogowskaz Bold">
        <path
           d="m 126.31522,903.56943 9.86094,39.44375 9.86093,0 7.39571,-23.66625 7.3957,23.66625 9.86094,0 9.86094,-39.44375 -9.86094,0 -5.47824,21.9131 -6.84793,-21.9131 -9.86094,0 -6.84793,21.9131 -5.47824,-21.9131 -9.86094,0 z"
           id="path5493" />
      </g>
      <g
         id="text5461"
         style="font-size:78.88720703px;font-style:normal;font-variant:normal;font-weight:bold;font-stretch:normal;text-align:start;line-height:125%;writing-mode:lr-tb;text-anchor:start;fill:#000000;fill-opacity:1;stroke:none;font-family:Drogowskaz;-inkscape-font-specification:Drogowskaz Bold">
        <path
           d="m 238.75913,950.96561 -5.85616,7.80671 c 1.65979,1.25253 3.48953,2.22369 5.48923,2.91346 1.99966,0.68973 4.11072,1.03949 6.33317,1.04928 5.56729,-0.14382 10.21015,-2.07492 13.92858,-5.7933 3.71835,-3.71841 5.64945,-8.36126 5.7933,-13.92858 l 0,-39.44375 -9.86094,0 0,2.65987 c -1.45787,-0.85024 -3.01632,-1.50483 -4.67536,-1.96375 -1.65911,-0.45885 -3.38763,-0.69089 -5.18558,-0.69612 -5.56734,0.14384 -10.21019,2.07494 -13.92857,5.7933 -3.71841,3.71842 -5.64951,8.36128 -5.7933,13.92858 0.1438,5.56733 2.07489,10.21019 5.7933,13.92857 3.71838,3.7184 8.36123,5.6495 13.92857,5.7933 1.79795,-0.005 3.52647,-0.23723 5.18558,-0.69613 1.65904,-0.45889 3.21749,-1.11347 4.67536,-1.96374 l 0,2.65987 c -0.0719,2.84272 -1.03748,5.2001 -2.89665,7.07214 -1.85923,1.87203 -4.18065,2.84272 -6.96429,2.91206 -1.12373,-0.005 -2.19033,-0.18392 -3.19981,-0.53713 -1.00953,-0.35324 -1.93167,-0.85145 -2.76643,-1.49464 z m -3.8947,-27.6743 c 0.0719,-2.8427 1.03744,-5.20008 2.89666,-7.07215 1.85917,-1.87201 4.1806,-2.84269 6.96428,-2.91205 2.78364,0.0694 5.10506,1.04005 6.96429,2.91205 1.85916,1.87207 2.82471,4.22945 2.89665,7.07215 -0.0719,2.84274 -1.03748,5.20012 -2.89665,7.07214 -1.85923,1.87204 -4.18065,2.84273 -6.96429,2.91206 -2.78368,-0.0693 -5.10511,-1.04001 -6.96429,-2.91206 -1.85921,-1.87202 -2.82476,-4.2294 -2.89665,-7.07214 z"
           id="path5482" />
        <path
           d="m 272.60446,923.29131 c 0.15017,5.93361 2.19672,10.87188 6.13966,14.81481 3.94293,3.94295 8.8812,5.9895 14.81483,6.13968 5.93358,-0.15018 10.87185,-2.19673 14.81483,-6.13968 3.94289,-3.94293 5.98944,-8.8812 6.13967,-14.81481 -0.15022,-5.93359 -2.19678,-10.87186 -6.13967,-14.81483 -3.94298,-3.9429 -8.88125,-5.98945 -14.81483,-6.13967 -5.93363,0.15022 -10.8719,2.19677 -14.81483,6.13967 -3.94294,3.94297 -5.9895,8.88124 -6.13966,14.81483 z m 9.86094,0 c 0.0795,-3.1413 1.16295,-5.75568 3.25041,-7.84315 2.08741,-2.08741 4.70179,-3.17088 7.84314,-3.25041 3.1413,0.0795 5.75567,1.163 7.84314,3.25041 2.0874,2.08746 3.17088,4.70184 3.25042,7.84315 -0.0795,3.14134 -1.16301,5.75572 -3.25042,7.84314 -2.08747,2.08745 -4.70184,3.17092 -7.84314,3.25041 -3.14135,-0.0795 -5.75572,-1.16296 -7.84314,-3.25041 -2.08746,-2.08743 -3.17093,-4.7018 -3.25041,-7.84314 z"
           id="path5484" />
        <path
           d="m 318.94909,923.29131 c 0.1438,5.56733 2.0749,10.21019 5.7933,13.92857 3.71838,3.7184 8.36124,5.6495 13.92858,5.7933 1.79795,-0.005 3.52647,-0.23723 5.18557,-0.69613 1.65905,-0.45889 3.2175,-1.11347 4.67537,-1.96374 l 0,2.65987 9.86094,0 0,-59.16563 -9.86094,0 0,22.38175 c -1.45787,-0.85024 -3.01632,-1.50483 -4.67536,-1.96375 -1.65911,-0.45885 -3.38763,-0.69089 -5.18558,-0.69612 -5.56734,0.14384 -10.21019,2.07494 -13.92858,5.7933 -3.7184,3.71842 -5.6495,8.36128 -5.7933,13.92858 z m 9.86094,0 c 0.0719,-2.8427 1.03744,-5.20008 2.89665,-7.07215 1.85918,-1.87201 4.18061,-2.84269 6.96429,-2.91205 2.78363,0.0694 5.10506,1.04005 6.96429,2.91205 1.85916,1.87207 2.82471,4.22945 2.89665,7.07215 -0.0719,2.84274 -1.03749,5.20012 -2.89665,7.07214 -1.85923,1.87204 -4.18066,2.84273 -6.96429,2.91206 -2.78368,-0.0693 -5.10511,-1.04001 -6.96429,-2.91206 -1.85921,-1.87202 -2.82476,-4.2294 -2.89665,-7.07214 z"
           id="path5486" />
        <path
           d="m 394.1907,933.15225 -13.59983,0 13.59983,-25.02214 0,-4.56068 -27.11758,0 0,9.86094 13.55879,0 -13.55879,25.02238 0,4.56043 27.11758,0 0,-9.86093 z"
           id="path5488" />
        <path
           d="m 404.45289,933.15225 0,9.86093 9.86094,0 0,-9.86093 -9.86094,0 z"
           id="path5490" />
      </g>
      <g
         id="text5465"
         style="font-size:105.55377197px;font-style:normal;font-variant:normal;font-weight:bold;font-stretch:normal;text-align:start;line-height:125%;writing-mode:lr-tb;text-anchor:start;fill:#000000;fill-opacity:1;stroke:none;font-family:Drogowskaz;-inkscape-font-specification:Drogowskaz Bold">
        <path
           d="m 514.82854,877.04182 30.65318,0 -24.05701,65.97136 14.1849,0 25.40919,-70.09457 -0.0102,-9.07106 -46.18004,0 0,13.19427 z"
           id="path5473" />
        <path
           d="m 581.15767,910.0275 26.38855,0 0,-13.19427 -26.38855,0 0,13.19427 z"
           id="path5475" />
        <path
           d="m 682.4671,929.81891 -22.95737,0 21.44069,-28.77176 c 1.52111,-1.96329 2.70094,-4.13873 3.5395,-6.52632 0.83846,-2.3875 1.2637,-4.91526 1.27575,-7.5833 -0.16553,-6.53825 -2.42065,-11.97978 -6.76537,-16.32461 -4.34481,-4.34469 -9.78634,-6.59981 -16.32461,-6.76537 -6.53833,0.16556 -11.97987,2.42068 -16.32461,6.76537 -4.34478,4.34483 -6.5999,9.78636 -6.76536,16.32461 l 13.19427,0 c 0.0709,-2.80207 1.03737,-5.13416 2.89944,-6.99626 1.86201,-1.86198 4.1941,-2.82846 6.99626,-2.89945 2.8021,0.071 5.13418,1.03747 6.99626,2.89945 1.862,1.8621 2.82848,4.19418 2.89945,6.99626 0.0169,1.08882 -0.11425,2.09074 -0.39342,3.00576 -0.27926,0.91512 -0.80816,1.89234 -1.58671,2.93166 l -31.00555,41.47982 0,8.65841 42.88138,0 0,-13.19427 z"
           id="path5477" />
        <path
           d="m 693.89319,877.04182 0,13.19428 13.19427,0 0,52.77708 13.19428,0 0,-79.16563 -13.19428,0.0412 c -0.0946,3.72451 -1.3832,6.82422 -3.8659,9.29914 -2.48273,2.47506 -5.59218,3.75969 -9.32837,3.8539 z"
           id="path5479" />
      </g>
      <g
         transform="matrix(0.92194054,0,0,0.92134794,28.589239,-84.4277)"
         id="g5551">
        <g
           id="g5553">
          <path
             d="m 390.42439,244.34138 c 0,67.86181 -62.99861,122.87468 -140.71133,122.87468 -77.71273,0 -140.71134,-55.01287 -140.71134,-122.87468 0,-67.86181 62.99861,-122.87468 140.71133,-122.87468 77.71273,0 140.71134,55.01287 140.71134,122.87468 z"
             transform="matrix(-1.743421,0,0,1.996373,863.9264,-75.43433)"
             id="path5555"
             style="fill:#ffffff;fill-opacity:1;fill-rule:nonzero;stroke:none" />
          <path
             d="m 31.428558,219.50504 c 0.01375,171.218 -138.781998,310.0249 -309.999998,310.0249 -171.218,0 -310.01375,-138.8069 -310,-310.0249 -0.0137,-171.217996 138.782,-310.0249 310,-310.0249 171.218,0 310.013751,138.806904 309.999998,310.0249 l 0,0 z"
             transform="matrix(0.639516,0,0,0.639516,606.7223,271.9852)"
             id="path5557"
             style="fill:#0f00fb;fill-opacity:1;fill-rule:nonzero;stroke:none" />
          <rect
             width="467.75955"
             height="49.133499"
             ry="0"
             x="-828.50928"
             y="-36.009895"
             transform="matrix(-0.707129,-0.707085,-0.707129,0.707085,0,0)"
             id="rect5559"
             style="fill:#ff0000;fill-opacity:1;fill-rule:nonzero;stroke:#ffffff;stroke-width:3.5;stroke-miterlimit:4;stroke-opacity:1;stroke-dasharray:none;stroke-dashoffset:0" />
          <path
             d="m 428.57143,162.36211 c 138.00256,0 250.00005,112.01821 250.00005,250.01582 0,137.99759 -111.9975,249.98439 -250.00005,249.98438 -138.00256,0 -250.00003,-111.98679 -250.00004,-249.98438 0,-137.9976 111.99748,-250.01582 250.00004,-250.01582 z m 0,48.89701 c -111.02455,0 -201.1314,90.10121 -201.1314,201.11881 1e-5,111.01761 90.10684,201.1188 201.1314,201.1188 111.02457,-10e-6 201.1314,-90.1012 201.1314,-201.1188 0,-111.0176 -90.10684,-201.11881 -201.1314,-201.11881 z"
             id="path5561"
             style="fill:#ff0000;fill-opacity:1;fill-rule:nonzero;stroke:none" />
          <path
             d="m 390.42439,244.34138 c 0,67.86181 -62.99861,122.87468 -140.71133,122.87468 -77.71273,0 -140.71134,-55.01287 -140.71134,-122.87468 0,-67.86181 62.99861,-122.87468 140.71133,-122.87468 77.71273,0 140.71134,55.01287 140.71134,122.87468 z"
             transform="matrix(-1.743421,0,0,1.996373,863.9264,-75.43433)"
             id="path5563"
             style="fill:#ffffff;fill-opacity:1;fill-rule:nonzero;stroke:none" />
          <g
             id="g5565">
            <path
               d="m 31.428558,219.50504 c 0.01375,171.218 -138.781998,310.0249 -309.999998,310.0249 -171.218,0 -310.01375,-138.8069 -310,-310.0249 -0.0137,-171.217996 138.782,-310.0249 310,-310.0249 171.218,0 310.013751,138.806904 309.999998,310.0249 l 0,0 z"
               transform="matrix(0.63871,0,0,0.63871,606.4978,272.1621)"
               id="path5567"
               style="fill:#003399;fill-opacity:1;fill-rule:nonzero;stroke:none" />
            <rect
               width="467.75986"
               height="49.13353"
               ry="0"
               x="-828.50952"
               y="-36.010014"
               transform="matrix(-0.707129,-0.707085,-0.707129,0.707085,0,0)"
               id="rect5569"
               style="fill:#d40000;fill-opacity:1;fill-rule:nonzero;stroke:#ffffff;stroke-width:3.50000238;stroke-miterlimit:4;stroke-opacity:1;stroke-dasharray:none;stroke-dashoffset:0" />
            <path
               d="m 428.57143,162.36211 c 138.00256,0 250.00005,112.01821 250.00005,250.01582 0,137.99759 -111.9975,249.98439 -250.00005,249.98438 -138.00256,0 -250.00003,-111.98679 -250.00004,-249.98438 0,-137.9976 111.99748,-250.01582 250.00004,-250.01582 z m 0,48.89701 c -111.02455,0 -201.1314,90.10121 -201.1314,201.11881 1e-5,111.01761 90.10684,201.1188 201.1314,201.1188 111.02457,-10e-6 201.1314,-90.1012 201.1314,-201.1188 0,-111.0176 -90.10684,-201.11881 -201.1314,-201.11881 z"
               id="path5571"
               style="fill:#d40000;fill-opacity:1;fill-rule:nonzero;stroke:none" />
          </g>
        </g>
      </g>
    </g>
  </g>
</svg>
