<?xml version="1.0" encoding="UTF-8" standalone="no"?>
<!-- Created with Inkscape (http://www.inkscape.org/) -->

<svg
   xmlns:svg="http://www.w3.org/2000/svg"
   xmlns="http://www.w3.org/2000/svg"
   version="1.1"
   width="500"
   height="500"
   id="svg5907">
  <title
     id="title6684">Znak B-44</title>
  <defs
     id="defs5909" />
  <g
     transform="translate(1997.378,-1378.6119)"
     id="layer1">
    <g
       transform="matrix(1.1395283,0,0,1.1249772,66.634811,437.60694)"
       id="g5840"
       style="opacity:0.5">
      <g
         transform="matrix(1.0320678,0,0,1.0320678,-690.74813,73.124179)"
         id="g5848"
         style="font-size:185.44577026px;font-style:normal;font-variant:normal;font-weight:bold;font-stretch:normal;text-align:start;line-height:125%;writing-mode:lr-tb;text-anchor:start;fill:#000000;fill-opacity:1;stroke:none;font-family:Drogowskaz;-inkscape-font-specification:Drogowskaz Bold" />
    </g>
    <g
       transform="translate(-1997.378,1378.6119)"
       id="g6717">
      <rect
         width="500"
         height="500"
         rx="24.69911"
         ry="24.69911"
         x="0"
         y="-1.2092757e-14"
         id="rect2961"
         style="fill:#000000;fill-opacity:1;stroke:none" />
      <rect
         width="481.68048"
         height="482.85107"
         rx="19.225742"
         ry="19.225742"
         x="8.8463745"
         y="7.9340191"
         id="rect2963"
         style="fill:#ffffff;fill-opacity:1;stroke:none" />
      <g
         transform="matrix(1.0320678,0,0,1.0320678,-690.74813,73.124179)"
         id="g2967"
         style="font-size:185.44577026px;font-style:normal;font-variant:normal;font-weight:bold;font-stretch:normal;text-align:start;line-height:125%;writing-mode:lr-tb;text-anchor:start;fill:#000000;fill-opacity:1;stroke:none;font-family:Drogowskaz;-inkscape-font-specification:Drogowskaz Bold" />
    </g>
    <circle
       cx="250"
       cy="250"
       r="223"
       transform="matrix(0.75788242,0,0,0.75344721,-1938.2376,1439.126)"
       id="circle6725"
       style="fill:none;stroke:#a9a8a7;stroke-width:52;stroke-opacity:1" />
    <g
       transform="matrix(1.1395283,0,0,1.1249772,-2028.8747,1345.6655)"
       id="g6727"
       style="fill:#a9a8a7;fill-opacity:1">
      <g
         transform="matrix(1.0320678,0,0,1.0320678,-690.74813,73.124179)"
         id="g6729"
         style="font-size:185.44577026px;font-style:normal;font-variant:normal;font-weight:bold;font-stretch:normal;text-align:start;line-height:125%;writing-mode:lr-tb;text-anchor:start;fill:#a9a8a7;fill-opacity:1;stroke:none;font-family:Drogowskaz;-inkscape-font-specification:Drogowskaz Bold">
        <path
           d="m 844.01642,175.42582 c 1.85765,-0.48224 3.78938,-0.72593 5.79521,-0.73106 6.56396,0.16619 12.0269,2.43018 16.38883,6.79198 4.36177,4.36191 6.62576,9.82485 6.79198,16.38883 -0.16622,6.56406 -2.43021,12.027 -6.79198,16.38883 -4.36193,4.36188 -9.82486,6.62587 -16.38883,6.79198 -6.56409,-0.16611 -12.02703,-2.4301 -16.38884,-6.79198 -4.36189,-4.36182 -6.62588,-9.82476 -6.79197,-16.38883 l -23.18081,0 c 0.33224,13.19808 4.86022,24.14395 13.58395,32.83765 8.72368,8.69372 19.64956,13.2017 32.77767,13.52397 13.12799,-0.32227 24.05387,-4.83025 32.77766,-13.52397 8.72361,-8.6937 13.25159,-19.63957 13.58396,-32.83765 -0.0415,-6.5943 -1.28713,-12.76542 -3.73693,-18.51339 -2.45001,-5.74785 -5.85588,-10.78319 -10.21763,-15.10603 2.59347,-3.41857 4.59724,-7.18178 6.01133,-11.28964 1.41388,-4.10768 2.12989,-8.45533 2.14802,-13.04297 -0.29589,-11.45145 -4.26802,-21.00145 -11.91638,-28.65003 -7.64854,-7.64833 -17.19855,-11.62045 -28.65003,-11.916385 -11.45161,0.295939 -21.00162,4.268065 -28.65004,11.916385 -7.64848,7.64858 -11.62061,17.19858 -11.91638,28.65003 l 23.18081,0 c 0.12673,-4.90771 1.82906,-9.00057 5.10702,-12.27859 3.27786,-3.27779 7.37072,-4.98013 12.27859,-5.10702 4.90774,0.12689 9.0006,1.82923 12.27858,5.10702 3.27784,3.27802 4.98018,7.37088 5.10702,12.27859 -0.12684,4.90791 -1.82918,9.00077 -5.10702,12.27858 -3.27798,3.278 -7.37084,4.98034 -12.27858,5.10703 -2.03915,-0.01 -3.97088,-0.34256 -5.79521,-0.9988 l 0,19.11547 z"
           id="path6731"
           style="fill:#a9a8a7;fill-opacity:1" />
        <path
           d="m 947.99429,171.79716 c 0.009,-6.28312 0.53324,-12.4202 1.57174,-18.41126 1.03841,-5.99089 2.53532,-11.79728 4.49068,-17.41925 1.32384,-3.68595 3.59813,-6.66988 6.82288,-8.95177 3.22466,-2.28164 6.98059,-3.45627 11.26779,-3.52388 4.28707,0.0677 8.043,1.24225 11.26779,3.52388 3.22464,2.28189 5.49892,5.26582 6.82288,8.95177 1.95525,5.62197 3.45215,11.42837 4.49068,17.41925 1.03839,5.99106 1.56228,12.12814 1.57172,18.41126 -0.009,6.28326 -0.53333,12.42034 -1.57171,18.41124 -1.03854,5.99103 -2.53544,11.79743 -4.49069,17.41924 -1.32396,3.68605 -3.59824,6.66994 -6.82288,8.95171 -3.22479,2.28184 -6.98072,3.45649 -11.26779,3.52396 -4.2872,-0.0676 -8.04313,-1.24212 -11.26779,-3.52397 -3.22475,-2.28177 -5.49905,-5.26565 -6.82288,-8.9517 -1.95536,-5.62181 -3.45227,-11.42821 -4.49069,-17.41924 -1.03849,-5.9909 -1.5624,-12.12798 -1.57173,-18.41124 z m -24.15307,0 c 0.0485,7.82459 0.85238,15.465 2.41191,22.92122 1.55952,7.45634 3.58412,14.67702 6.07378,21.66201 3.09226,8.27501 8.17946,14.95343 15.26163,20.03528 7.08211,5.08186 15.26839,7.69544 24.55884,7.84073 9.29035,-0.14528 17.47664,-2.75886 24.55888,-7.84073 7.08014,-5.08185 12.16734,-11.76027 15.25974,-20.03528 2.4896,-6.98499 4.514,-14.20567 6.0738,-21.66201 1.5594,-7.45622 2.3633,-15.09663 2.4118,-22.92122 -0.049,-7.82445 -0.8524,-15.46485 -2.4118,-22.92124 -1.5598,-7.45619 -3.5842,-14.67686 -6.0738,-21.66204 -3.0924,-8.27479 -8.1796,-14.95318 -15.25974,-20.03519 -7.08224,-5.08175 -15.26853,-7.695341 -24.55888,-7.840776 -9.29045,0.145435 -17.47673,2.759026 -24.55884,7.840776 -7.08217,5.08201 -12.16937,11.7604 -15.26163,20.03519 -2.48966,6.98518 -4.51426,14.20585 -6.07378,21.66204 -1.55954,7.45639 -2.36351,15.09679 -2.41191,22.92124 z"
           id="path6733"
           style="fill:#a9a8a7;fill-opacity:1" />
      </g>
    </g>
    <path
       d="m -1551.7465,1386.043 26.169,0 c 10.6511,0 19.2258,8.5747 19.2258,19.2257 l 0,24.3899 -440.2358,440.2358 -23.2118,0 c -10.651,0 -19.2257,-8.5747 -19.2257,-19.2258 l 0,-27.3471 437.2785,-437.2785 z"
       id="path6752"
       style="fill:#000000;fill-opacity:1;stroke:none" />
  </g>
</svg>
