<?xml version="1.0" encoding="UTF-8" standalone="no"?>
<!-- Created with Inkscape (http://www.inkscape.org/) -->

<svg
   xmlns:svg="http://www.w3.org/2000/svg"
   xmlns="http://www.w3.org/2000/svg"
   version="1.1"
   width="500"
   height="500"
   id="svg2">
  <title
     id="title3720">Znak C-2</title>
  <defs
     id="defs4" />
  <g
     transform="translate(2209.149,945.66981)"
     id="layer1">
    <g
       id="g3722">
      <g
         transform="matrix(1.0019492,0,0,1.0019492,-1687.1067,-588.5411)"
         id="g3685">
        <path
           d="M -95.801347,-282.63198 A 248.49331,248.4934 45 1 0 -447.22408,68.790753 248.49331,248.4934 45 1 0 -95.801347,-282.63198 z"
           id="path3687"
           style="fill:#ffffff;fill-opacity:1;stroke:#000000;stroke-width:1.99201894;stroke-miterlimit:4;stroke-opacity:1;stroke-dasharray:none" />
        <path
           d="M -98.415409,-279.61572 A 244.22773,244.22783 45 1 0 -443.80571,65.774582 244.22773,244.22783 45 1 0 -98.415409,-279.61572 z"
           id="path3689"
           style="fill:#003399;fill-opacity:1;stroke:none" />
      </g>
      <path
         d="m -1973.287,-770.24477 76.1295,0 c 0,0 0,-56.10266 0,-75.60788 l 149.1453,112.61051 c 0,0 -149.1453,113.68034 -149.1453,113.68034 0,0 0,-75.30723 0,-75.30723 l -76.8148,0 c -15.3743,0 -34.5357,15.28767 -34.5357,38.34154 0,34.39119 0,113.13592 0,148.27055 -28.4906,0 -75.3758,0 -75.3758,0 l 0,-151.39105 c 0,-56.74831 49.3262,-110.59678 110.5968,-110.59678 z"
         id="path3691"
         style="fill:#ffffff;fill-opacity:1;stroke:none" />
    </g>
  </g>
</svg>
