<?xml version="1.0" encoding="UTF-8" standalone="no"?>
<!-- Created with Inkscape (http://www.inkscape.org/) -->

<svg
   xmlns:svg="http://www.w3.org/2000/svg"
   xmlns="http://www.w3.org/2000/svg"
   version="1.0"
   width="602.07898"
   height="752.35651"
   id="svg2">
  <defs
     id="defs4" />
  <g
     transform="translate(-758.84422,0.93314997)"
     id="layer1">
    <g
       transform="matrix(1.3542622,0,0,1.3542622,2170.4674,380.5893)"
       id="g4914">
      <g
         id="g4910">
        <rect
           width="441.57755"
           height="552.54388"
           rx="20.762779"
           ry="20.762779"
           x="-1040.8542"
           y="-280.21814"
           id="rect3910-7"
           style="fill:#ffffff;fill-opacity:1;fill-rule:nonzero;stroke:#000000;stroke-width:3.00328207;stroke-linecap:butt;stroke-linejoin:round;stroke-miterlimit:4;stroke-opacity:1;stroke-dasharray:none;stroke-dashoffset:0" />
        <rect
           width="434.95261"
           height="544.97748"
           rx="19.158863"
           ry="19.158863"
           x="-1037.2947"
           y="-276.24765"
           id="rect3912-2"
           style="fill:#003399;fill-opacity:1;fill-rule:nonzero;stroke:none" />
      </g>
      <g
         id="g4904">
        <rect
           width="325.97949"
           height="326.01355"
           ry="0"
           x="-983.30103"
           y="-222.23515"
           id="rect3055-7"
           style="fill:#ffffff;fill-opacity:1;fill-rule:nonzero;stroke:none" />
        <g
           id="g4900">
          <path
             d="m -901.26734,-170.19729 0,10.17385 -30.1408,30.14089 0,118.071996 c 0,16.2223896 -4.5333,24.18884 -4.5333,24.18884 -7.9512,17.81088 -6.0418,31.95434 -5.8828,32.11337 0,0 -0.032,17.51009 20.1747,17.51009 0,0 20.3822,0.1476 20.3822,-18.61744 l 0,-122.29382 9.8279,0 0,161.25896 -30.2101,0 0,10.48529 141.8456,0 0,-10.48529 -30.8331,0 0,-161.25896 10.7967,0 0,-91.287776 -101.427,0 z m 14.9495,20.34769 65.8185,0 0,15.29538 -65.8185,0 0,-15.29538 z m -35.3317,21.62808 20.3822,13.21908 0,11.14278 -10.3468,16.679576 0,131.60253 c 0,7.87178 -10.0354,7.85532 -10.0354,7.85532 -9.7006,0 -9.6894,-10.31226 -9.6894,-10.31226 l 0,-4.77549 c 0,0 -0.5403,-7.07753 2.5608,-14.94932 0,0 7.1286,-17.0148704 7.1286,-28.3068304 l 0,-122.1553856 z m 35.3317,3.84114 65.8185,0 0,25.296206 -65.8185,0 0,-25.296206 z"
             id="path3916-7"
             style="fill:#000000;stroke:none" />
          <path
             d="m -820.42774,-211.46007 0,10.1875 -25.6562,25.43751 40.625,0 0,-15.28126 65.8124,0 0,15.31251 -55.8124,-0.0312 0,10.21875 55.8124,-0.0312 -0.094,25.125 -55.7187,0 0,66.093746 -10,0 0,126.03125 106.5,-0.0312 0,-10.46875 -30.8126,0 0,-161.281246 10.7813,0 0,-91.28126 -101.4375,0 z"
             id="path4715"
             style="fill:#016633;fill-opacity:1;stroke:none" />
        </g>
      </g>
    </g>
  </g>
</svg>
