<?xml version="1.0" encoding="UTF-8" standalone="no"?>
<!-- Created with Inkscape (http://www.inkscape.org/) -->

<svg
   xmlns:svg="http://www.w3.org/2000/svg"
   xmlns="http://www.w3.org/2000/svg"
   version="1.1"
   width="604.82043"
   height="751.93042"
   id="svg2">
  <title
     id="title3776">Znak D-26a</title>
  <defs
     id="defs4" />
  <g
     transform="translate(344.72526,969.94337)"
     id="layer1">
    <rect
       width="602.09033"
       height="749.20032"
       rx="31.237566"
       ry="31.237566"
       x="-343.3602"
       y="-968.57831"
       id="rect3236"
       style="fill:#ffffff;fill-opacity:1;stroke:#000000;stroke-width:2.73012614;stroke-miterlimit:4;stroke-opacity:1;stroke-dasharray:none" />
    <rect
       width="589.65857"
       height="737.01221"
       rx="25.549513"
       ry="25.549513"
       x="-337.14423"
       y="-962.36243"
       id="rect4010"
       style="fill:#003399;fill-opacity:1;stroke:none" />
    <path
       d="m -262.65926,-450.37163 0,-438.40613 440.22593,0 0,438.40613 -440.22593,0 z"
       id="path4139"
       style="fill:#ffffff;fill-opacity:1;stroke:none" />
    <path
       d="m 13.724524,-844.26889 c -1.95927,0 -3.8636699,0.25304 -5.7029599,0.72665 l -7.00223,0 c -3.6768,2.04518 -7.09396,4.72076 -10.23907,7.94906 l 0.11057,0 c 1.57093,0 1.61556,1.81581 1.035,3.41301 0,0.009 -0.0191,0.0136 -0.0218,0.0219 -0.58875,0.72526 -1.16862,1.48571 -1.7395,2.26801 -0.0956,0.0323 -0.1913801,0.066 -0.2862601,0.066 l -4.00754,0 c -4.24015,5.58759 -7.94304,12.2263 -11.18601,19.57537 l 2.81844,0 c 1.0137,0 1.44903,0.73117 1.51932,1.67346 -0.47477,1.21643 -0.93111,2.45877 -1.38704,3.72131 -0.19561,0.14167 -0.40802,0.22018 -0.61661,0.22018 l -4.66809,0 c -2.69818,6.87518 -5.04078,14.249 -7.06845,21.88741 l 3.54522,0 c 2.79292,0 1.25818,4.93238 -0.48433,4.93238 l -4.31593,0 c -1.78112,7.2674 -3.31272,14.71606 -4.60202,22.15163 l 3.76539,0 c 2.79292,0 1.25803,5.61496 -0.48447,5.61496 l -4.20575,0 c -1.21096,7.62337 -2.17564,15.15129 -2.97271,22.41588 l 2.70842,0 c 2.79306,0 1.25806,5.43881 -0.48432,5.43881 l -2.79647,0 c -0.78709,7.91668 -1.34882,15.38781 -1.76161,22.15163 l 3.72117,0 c 2.79305,0 1.25817,5.32874 -0.4842,5.32874 l -3.54533,0 c -0.51259,9.7997 -0.69072,17.31084 -0.74848,22.15163 l 4.02954,0 c 2.79277,0 1.25804,5.70305 -0.4846,5.70305 l -3.58902,0 c 0.18619,4.71168 0.39041,12.52019 0.85862,22.23971 l 3.98558,0 c 2.79291,0 1.25817,5.70304 -0.48446,5.70304 l -3.21473,0 c 0.36489,6.50573 0.86996,13.65715 1.56328,21.24885 l 4.18377,0 c 2.79279,0 1.28016,5.52688 -0.46234,5.52688 l -3.19302,0 c 0.73686,7.22733 1.67794,14.72539 2.84056,22.32779 l 4.77827,0 c 2.79292,0 1.25818,5.79113 -0.48447,5.79113 l -3.39082,0 c 1.24399,7.36904 2.72386,14.759 4.49188,21.97549 l 4.64614,0 c 2.79291,0 1.25817,5.50487 -0.48446,5.50487 l -2.7304,0 c 2.07708,7.70295 4.51275,15.13709 7.35455,22.06356 l 4.97633,0 c 0.23274,0 0.44119,0.0341 0.6166,0.11016 0.29908,0.81811 0.5964,1.62421 0.90272,2.42215 -0.14156,1.62434 -1.02353,3.43503 -1.98166,3.43503 l -1.91573,0 c 3.41456,7.29619 7.35837,13.8708 11.91249,19.3992 l 3.1707701,0 c 0.30714,0 0.56227,0.054 0.77071,0.17617 0.21583,0.29425 0.42072,0.59476 0.63845,0.88077 0.31724,0.98199 0.0409,2.44064 -0.50617,3.45706 3.79828,3.78574 7.97456,6.8812 12.57291,9.13809 l 4.75629,0 c 1.7738899,0.46683 3.5914799,0.72666 5.4607999,0.72666 35.83564,0 54.23422,-103.79816 54.23422,-174.70282 0,-72.41989 -19.02843,-174.83496 -54.23422,-174.83496 z m -89.22312,0.72665 c -6.65946,0.32304 -12.52637,3.18112 -17.7035,7.94906 l 20.43403,0 c 2.77682,-3.27225 5.66665,-5.93858 8.65369,-7.94906 l -11.38422,0 z m 20.78637,0 c -3.67653,2.04518 -7.09383,4.72076 -10.2388,7.94906 l 20.08172,0 c 2.77653,-3.27225 5.66651,-5.93858 8.65354,-7.94906 l -18.49646,0 z m 27.89888,0 c -3.67681,2.04518 -7.09397,4.72076 -10.23906,7.94906 l 20.01578,0 c 2.77654,-3.27225 5.66651,-5.93858 8.6535501,-7.94906 l -18.4302701,0 z m -71.65148,13.71817 c -4.160584,5.35086 -7.794374,12.01904 -10.987804,19.57535 l 21.931514,0 c 3.20066,-7.53835 6.68348,-14.11764 10.39332,-19.57535 l -21.33703,0 z m 28.60326,0 c -4.24112,5.58913 -7.96432,12.22384 -11.20786,19.57535 l 21.44706,0 c 3.20067,-7.53835 6.68348,-14.11764 10.39318,-19.57535 l -20.63238,0 z m 27.89875,0 c -4.24003,5.58757 -7.94289,12.22628 -11.18588,19.57535 l 21.35888,0 c 3.2008,-7.53835 6.68362,-14.11764 10.3933,-19.57535 l -2.42216,0 -18.14414,0 z m -69.735764,25.1903 c -2.5532,6.82037 -4.78782,14.19488 -6.73794,21.88741 l 21.579054,0 c 2.14384,-7.88003 4.5058,-15.20735 7.06844,-21.88741 l -21.909554,0 z m 28.317154,0 c -2.69845,6.8756 -5.04077,14.24846 -7.0683,21.88741 l 21.49114,0 c 2.14384,-7.88092 4.50539,-15.2067 7.06816,-21.88741 l -21.491,0 z m 27.89875,0 c -2.69819,6.87518 -5.0409,14.249 -7.06843,21.88741 l 21.42507,0 c 2.14383,-7.88092 4.50553,-15.2067 7.0683,-21.88741 l -0.99091,0 -20.43403,0 z m -64.164924,26.81979 c -1.70156,7.24964 -3.16245,14.70619 -4.42596,22.15163 l 21.11672,0 c 1.42089,-7.74164 3.028114,-15.15038 4.800234,-22.15163 l -21.490994,0 z m 27.942704,0 c -1.781,7.2674 -3.31274,14.71606 -4.60204,22.15163 l 21.24871,0 c 1.42116,-7.74283 3.02784,-15.14939 4.80037,-22.15163 l -21.44704,0 z m 27.89888,0 c -1.78127,7.2674 -3.31273,14.71606 -4.60204,22.15163 l 21.18265,0 c 1.42102,-7.74283 3.02771,-15.14939 4.80038,-22.15163 l -3.94162,0 -17.43937,0 z m 76.12125,20.56621 c 15.3313,0 27.74463,42.29442 27.74463,89.66348 0,47.36908 -12.41333,84.9733 -27.74463,84.9733 -2.4344599,0 -4.8179899,-0.94533 -7.0681599,-2.73041 29.0415699,-27.61648 26.9190399,-143.17524 -0.1761,-168.71354 2.30136,-2.0832 4.74797,-3.19283 7.2442599,-3.19283 z m -137.291634,7.2004 c -1.19458,7.62339 -2.19748,15.17167 -3.01667,22.41586 l 20.87456,0 c 0.89425,-7.71656 1.95394,-15.19948 3.17076,-22.41586 l -21.02865,0 z m 27.744634,0 c -1.21108,7.62376 -2.17564,15.1509 -2.972704,22.41586 l 20.984714,0 c 0.89411,-7.71578 1.95408,-15.20015 3.1709,-22.41586 l -21.18291,0 z m 27.89861,0 c -1.2108,7.62336 -2.17549,15.15129 -2.97243,22.41586 l 20.91851,0 c 0.89411,-7.71578 1.95423,-15.20015 3.17077,-22.41586 l -2.90663,0 -18.21022,0 z m 60.5318201,25.12426 c 5.69723,11.92426 10.58743,89.47593 -0.77072,109.85537 -3.6893501,-14.39711 -5.8791901,-32.59027 -5.8791901,-52.51655 0,-21.26011 2.50408,-41.48359 6.6499101,-57.33882 z m -119.7862041,2.73041 c -0.82709,7.95914 -1.44738,15.46589 -1.91574,22.15165 l 20.9626,0 c 0.45511,-7.54261 1.07553,-14.94307 1.82768,-22.15165 l -20.87454,0 z m 27.8107,0 c -0.78696,7.91668 -1.34882,15.38781 -1.76162,22.15165 l 20.896534,0 c 0.45525,-7.54261 1.07568,-14.94307 1.82754,-22.15165 l -20.962454,0 z m 27.898754,0 c -0.7871,7.91668 -1.34881,15.38781 -1.76161,22.15165 l 20.83046,0 c 0.45511,-7.54261 1.07566,-14.94307 1.82754,-22.15165 l -2.33399,0 -18.5624,0 z m -57.955394,27.48037 c -0.65086,10.45113 -0.91993,18.40196 -1.01302,22.15163 l 21.35901,0 c 0.0751,-7.49263 0.29485,-14.88589 0.66055,-22.15163 l -21.00654,0 z m 27.9868,0 c -0.51271,9.7997 -0.691,17.31086 -0.74874,22.15163 l 21.006684,0 c 0.0751,-7.49263 0.29499,-14.88589 0.66042,-22.15163 l -20.918364,0 z m 27.898754,0 c -0.51272,9.7997 -0.691,17.31086 -0.74875,22.15163 l 20.94062,0 c 0.0752,-7.49263 0.29486,-14.88589 0.66056,-22.15163 l -1.54129,0 -19.31114,0 z m -56.920544,27.85468 c 0.12013,7.76045 0.34167,15.16409 0.66055,22.23972 l 21.11671,0 c -0.29472,-7.27223 -0.44038,-14.68706 -0.44038,-22.23972 l -21.33688,0 z m 28.22909,0 c 0.1862,4.71183 0.39028,12.52005 0.85877,22.23972 l 20.588014,0 c -0.29458,-7.27223 -0.44037,-14.68712 -0.44037,-22.23972 l -21.006414,0 z m 27.898614,0 c 0.18619,4.71176 0.39055,12.52011 0.85876,22.23972 l 20.52223,0 c -0.29472,-7.27217 -0.44037,-14.6872 -0.44037,-22.23972 l -1.58552,0 -19.3551,0 z m -55.180764,27.94276 c 0.39901,7.45478 0.90053,14.54723 1.49721,21.24884 l 21.13881,0 c -0.65373,-6.90863 -1.16835,-13.99001 -1.54143,-21.24884 l -21.09459,0 z m 28.42717,0 c 0.36488,6.50572 0.86995,13.65701 1.56341,21.24884 l 20.566174,0 c -0.6536,-6.90871 -1.19033,-13.98985 -1.56354,-21.24884 l -20.566044,0 z m 27.898624,0 c 0.365,6.50572 0.87008,13.65707 1.5634,21.24884 l 20.50025,0 c -0.65373,-6.90863 -1.1902,-13.98985 -1.56341,-21.24884 l -1.51933,0 -18.98091,0 z m -54.322024,26.77574 c 0.79502,7.96893 1.729,15.40759 2.77437,22.32777 l 21.40309,0 c -1.15525,-7.16961 -2.15025,-14.62073 -2.9727,-22.32777 l -21.20476,0 z m 28.51523,0 c 0.736714,7.22733 1.677924,14.72537 2.840414,22.32777 l 20.72043,0 c -1.15511,-7.16949 -2.15011,-14.62095 -2.9727,-22.32777 l -20.588144,0 z m 27.898604,0 c 0.73674,7.22733 1.67794,14.72537 2.8407,22.32777 l 20.65423,0 c -1.15512,-7.16949 -2.15011,-14.62095 -2.9727,-22.32777 l -1.56341,0 -18.95882,0 z m -52.736624,28.11891 c 1.34172,8.02392 2.84753,15.33778 4.4699,21.97548 l 21.645274,0 c -1.728724,-6.93202 -3.282304,-14.27598 -4.646264,-21.97548 l -21.46891,0 z m 28.581424,0 c 1.24399,7.3689 2.72385,14.75914 4.49188,21.97548 l 20.94062,0 c -1.72858,-6.93244 -3.2823,-14.27548 -4.64613,-21.97548 l -20.78637,0 z m 27.89862,0 c 1.24411,7.36896 2.72385,14.75908 4.49201,21.97548 l 20.87456,0 c -1.72873,-6.93252 -3.2823,-14.27542 -4.64614,-21.97548 l -1.56355,0 -19.15688,0 z m -50.600854,27.48035 c 2.28253,8.47416 4.76025,15.77302 7.35442,22.06356 l 21.513264,0 c -2.62119,-6.69725 -5.01375,-14.09184 -7.17846,-22.06356 l -21.689224,0 z m 28.625384,0 c 2.07708,7.70281 4.5129,15.13725 7.35455,22.06356 l 20.78649,0 c -2.62118,-6.69733 -5.0136,-14.09179 -7.17858,-22.06356 l -20.96246,0 z m 27.89875,0 c 2.07694,7.70289 4.5129,15.13718 7.35455,22.06356 l 20.7203,0 c -2.6212,-6.69739 -5.01361,-14.09173 -7.17846,-22.06356 l -2.39993,0 -18.49646,0 z m -46.549204,28.03083 c 3.97206,8.41972 8.12321,14.71578 12.132694,19.39921 l 19.99366,0 c -3.85139,-5.35197 -7.44682,-11.8788 -10.7455,-19.39921 l -21.380854,0 z m 28.603124,0 c 3.41485,7.2962 7.35837,13.87093 11.91264,19.39921 l 19.50934,0 c -3.85152,-5.35204 -7.44697,-11.8788 -10.74551,-19.39921 l -20.67647,0 z m 27.89889,0 c 3.41457,7.2962 7.35823,13.87087 11.9125,19.39921 l 19.44327,0 c -3.85138,-5.3521 -7.44683,-11.8788 -10.7455,-19.39921 l -2.9286,0 -17.68167,0 z m -38.75442,25.08024 c 10.24071,8.82543 18.40844,7.97107 18.40844,7.97107 l 10.17298,0 c -3.33349,-1.90968 -6.54506,-4.59365 -9.62273,-7.97107 l -18.95869,0 z m 28.05301,0 c 3.47272,3.25917 7.24439,5.95064 11.36197,7.97107 l 17.06506,0 c -3.33335,-1.90974 -6.5448,-4.59358 -9.62246,-7.97107 l -18.80457,0 z m 27.89861,0 c 3.47218,3.25862 7.24549,5.9507 11.36197,7.97107 l 3.98571,0 13.0134201,0 c -3.3333501,-1.90982 -6.5449301,-4.59352 -9.6224701,-7.97107 l -5.54898,0 -13.18965,0 z"
       id="path3774"
       style="fill:#000000;fill-opacity:1;stroke:none" />
  </g>
</svg>
