<?xml version="1.0" encoding="UTF-8" standalone="no"?>
<svg
   xmlns:dc="http://purl.org/dc/elements/1.1/"
   xmlns:cc="http://creativecommons.org/ns#"
   xmlns:rdf="http://www.w3.org/1999/02/22-rdf-syntax-ns#"
   xmlns:svg="http://www.w3.org/2000/svg"
   xmlns="http://www.w3.org/2000/svg"
   id="svg8"
   version="1.1"
   viewBox="0 0 116.34026 145.30403"
   height="145.30403mm"
   width="116.34026mm">
  <defs
     id="defs2">
    <pattern
       id="pattern4002-9"
       patternTransform="translate(18.50938,18)"
       height="476"
       width="370"
       patternUnits="userSpaceOnUse">
      <rect
         style="fill:#00e5ff;fill-opacity:1"
         id="rect2240-4"
         width="370"
         height="476"
         x="0"
         y="0"
         rx="20"
         ry="20" />
    </pattern>
    <pattern
       id="pattern4002-1"
       patternTransform="translate(18.50938,18)"
       height="476"
       width="370"
       patternUnits="userSpaceOnUse">
      <rect
         style="fill:#00e5ff;fill-opacity:1"
         id="rect2240-7"
         width="370"
         height="476"
         x="0"
         y="0"
         rx="20"
         ry="20" />
    </pattern>
    <pattern
       id="pattern4002"
       patternTransform="translate(18.50938,18)"
       height="476"
       width="370"
       patternUnits="userSpaceOnUse">
      <rect
         style="fill:#00e5ff;fill-opacity:1"
         id="rect2240"
         width="370"
         height="476"
         x="0"
         y="0"
         rx="20"
         ry="20" />
    </pattern>
    <pattern
       id="pattern4002-9-7"
       patternTransform="translate(18.50938,18)"
       height="476"
       width="370"
       patternUnits="userSpaceOnUse">
      <rect
         style="fill:#00e5ff;fill-opacity:1"
         id="rect2240-4-1"
         width="370"
         height="476"
         x="0"
         y="0"
         rx="20"
         ry="20" />
    </pattern>
    <pattern
       id="pattern4002-1-5"
       patternTransform="translate(18.50938,18)"
       height="476"
       width="370"
       patternUnits="userSpaceOnUse">
      <rect
         style="fill:#00e5ff;fill-opacity:1"
         id="rect2240-7-1"
         width="370"
         height="476"
         x="0"
         y="0"
         rx="20"
         ry="20" />
    </pattern>
    <pattern
       id="pattern4002-4"
       patternTransform="translate(18.50938,18)"
       height="476"
       width="370"
       patternUnits="userSpaceOnUse">
      <rect
         style="fill:#00e5ff;fill-opacity:1"
         id="rect2240-5"
         width="370"
         height="476"
         x="0"
         y="0"
         rx="20"
         ry="20" />
    </pattern>
    <pattern
       id="pattern5932"
       patternTransform="translate(18.50938,18)"
       height="476"
       width="370"
       patternUnits="userSpaceOnUse">
      <rect
         style="fill:#00e5ff;fill-opacity:1"
         id="rect5934"
         width="370"
         height="476"
         x="0"
         y="0"
         rx="20"
         ry="20" />
    </pattern>
    <pattern
       patternUnits="userSpaceOnUse"
       width="370"
       height="476"
       patternTransform="translate(18.50938,18)"
       id="pattern4002-7">
      <rect
         ry="20"
         rx="20"
         y="0"
         x="0"
         height="476"
         width="370"
         id="rect2240-6"
         style="fill:#00e5ff;fill-opacity:1" />
    </pattern>
    <marker
       refX="0"
       refY="0"
       orient="auto"
       id="Arrow2Lstart"
       style="overflow:visible">
      <path
         d="M 8.7185878,4.0337352 -2.2072895,0.01601326 8.7185884,-4.0017078 c -1.7454984,2.3720609 -1.7354408,5.6174519 -6e-7,8.035443 z"
         transform="matrix(1.1,0,0,1.1,1.1,0)"
         id="path5785"
         style="font-size:12px;fill-rule:evenodd;stroke-width:0.625;stroke-linejoin:round" />
    </marker>
    <pattern
       id="pattern4002-3"
       patternTransform="translate(18.50938,18)"
       height="476"
       width="370"
       patternUnits="userSpaceOnUse">
      <rect
         style="fill:#00e5ff;fill-opacity:1"
         id="rect2240-2"
         width="370"
         height="476"
         x="0"
         y="0"
         rx="20"
         ry="20" />
    </pattern>
  </defs>
  <metadata
     id="metadata5">
    <rdf:RDF>
      <cc:Work
         rdf:about="">
        <dc:format>image/svg+xml</dc:format>
        <dc:type
           rdf:resource="http://purl.org/dc/dcmitype/StillImage" />
        <dc:title></dc:title>
      </cc:Work>
    </rdf:RDF>
  </metadata>
  <g
     transform="translate(-13.902541,-27.077397)"
     id="layer1">
    <rect
       style="opacity:1;fill:#ffffff;fill-opacity:1;stroke:#000000;stroke-width:0.68763304;stroke-linecap:round;stroke-linejoin:round;stroke-miterlimit:4;stroke-dasharray:none;stroke-dashoffset:0;stroke-opacity:1"
       id="rect4632"
       width="115.65263"
       height="144.61639"
       x="14.246358"
       y="27.421213"
       rx="3.9153011"
       ry="3.9153011" />
    <rect
       ry="3.0714242"
       rx="3.0714242"
       y="28.530951"
       x="15.240321"
       height="142.40154"
       width="113.63538"
       id="rect4634"
       style="opacity:1;fill:#003399;fill-opacity:1;stroke:none;stroke-width:0.68763304;stroke-linecap:round;stroke-linejoin:round;stroke-miterlimit:4;stroke-dasharray:none;stroke-dashoffset:0;stroke-opacity:1" />
    <rect
       ry="0"
       rx="0"
       y="34.778927"
       x="51.147068"
       height="3.3252325"
       width="1.9358988"
       id="rect4708"
       style="opacity:1;fill:#ffffff;fill-opacity:1;stroke:#ffffff;stroke-width:0.43711314;stroke-linecap:round;stroke-linejoin:miter;stroke-miterlimit:4;stroke-dasharray:none;stroke-dashoffset:0;stroke-opacity:1" />
    <path
       id="rect4765"
       transform="scale(0.26458333)"
       d="m 234.0918,140.31836 a 33.427233,27.33765 0 0 0 -26.20899,10.41602 H 185.8125 v 63.63867 h 96.42383 V 150.73438 H 260.33984 A 33.427233,27.33765 0 0 0 234.0918,140.31836 Z m 0.0273,6.96484 a 32.432715,32.767221 0 0 1 32.43164,32.76758 32.432715,32.767221 0 0 1 -32.43164,32.76758 32.432715,32.767221 0 0 1 -32.43359,-32.76758 32.432715,32.767221 0 0 1 32.43359,-32.76758 z"
       style="opacity:1;fill:#ffffff;fill-opacity:1;stroke:#ffffff;stroke-width:1.65208113;stroke-linecap:round;stroke-linejoin:miter;stroke-miterlimit:4;stroke-dasharray:none;stroke-dashoffset:0;stroke-opacity:1" />
    <ellipse
       style="opacity:1;fill:#ffffff;fill-opacity:1;stroke:none;stroke-width:0.46092641;stroke-linecap:round;stroke-linejoin:round;stroke-miterlimit:4;stroke-dasharray:none;stroke-dashoffset:0;stroke-opacity:1"
       id="ellipse4712"
       cx="61.960537"
       cy="47.571529"
       rx="7.2615128"
       ry="7.2330866" />
    <path
       id="path4773"
       d="m 18.642049,44.730974 h 2.171565 l 27.401972,89.550276 h -3.590774 z"
       style="fill:#ffffff;fill-opacity:1;stroke:none;stroke-width:0.26499999;stroke-linecap:butt;stroke-linejoin:miter;stroke-miterlimit:4;stroke-dasharray:none;stroke-opacity:1;opacity:1" />
    <path
       id="path4878"
       d="m 58.665944,61.769607 -0.862733,1.216609 c 5.011708,1.109579 8.340026,1.64e-4 8.340026,1.64e-4 l -0.944474,-1.35336 c 0,0 -2.289351,0.738259 -6.532819,0.136587 z"
       style="fill:#ffffff;stroke:none;stroke-width:0.26458332px;stroke-linecap:butt;stroke-linejoin:miter;stroke-opacity:1;opacity:1" />
    <path
       id="path4874"
       d="m 56.902356,64.256583 -0.820026,1.156386 c 6.354612,2.20273 11.779186,0.03558 11.779186,0.03558 l -0.880289,-1.261391 c 0,0 -3.599344,1.562283 -10.078871,0.06943 z"
       style="fill:#ffffff;stroke:none;stroke-width:0.26458332px;stroke-linecap:butt;stroke-linejoin:miter;stroke-opacity:1;opacity:1" />
    <path
       id="path4870"
       d="m 55.154532,66.72133 -0.77732,1.096161 c 7.850708,3.024468 15.171226,0.04829 15.171226,0.04829 v 3e-6 l -0.913115,-1.308428 c 0,0 -6.161071,2.729006 -13.480791,0.163974 z"
       style="fill:#ffffff;stroke:none;stroke-width:0.26458332px;stroke-linecap:butt;stroke-linejoin:miter;stroke-opacity:1;opacity:1" />
    <path
       id="path4866"
       d="m 53.467187,69.10079 -0.842384,1.187913 c 9.949675,4.07578 18.599615,-0.02136 18.599615,-0.02136 v -3e-6 l -0.811369,-1.162633 c 0,0 -8.840831,3.722973 -16.945862,-0.0039 z"
       style="fill:#ffffff;stroke:none;stroke-width:0.26458332px;stroke-linecap:butt;stroke-linejoin:miter;stroke-opacity:1;opacity:1" />
    <path
       id="path4832"
       d="m 51.71277,71.574834 -0.864742,1.219441 c 11.340874,5.192999 22.116553,-0.03341 22.116553,-0.03341 v 10e-7 l -0.833253,-1.19399 c 0,0 -10.024572,4.735311 -20.418558,0.008 z"
       style="fill:#ffffff;stroke:none;stroke-width:0.26458332px;stroke-linecap:butt;stroke-linejoin:miter;stroke-opacity:1;opacity:1" />
    <rect
       style="opacity:1;fill:#ffffff;fill-opacity:1;stroke:#ffffff;stroke-width:0.55743825;stroke-linecap:round;stroke-linejoin:miter;stroke-miterlimit:4;stroke-dasharray:none;stroke-dashoffset:0;stroke-opacity:1"
       id="rect4834"
       width="2.4687979"
       height="4.2405767"
       x="88.424522"
       y="95.57608"
       rx="0"
       ry="0" />
    <path
       style="opacity:1;fill:#ffffff;fill-opacity:1;stroke:#ffffff;stroke-width:0.58316553;stroke-linecap:round;stroke-linejoin:miter;stroke-miterlimit:4;stroke-dasharray:none;stroke-dashoffset:0;stroke-opacity:1"
       d="m 102.56367,98.809041 a 11.799426,9.6498738 0 0 0 -9.251476,3.676739 H 85.52163 v 22.46371 h 34.03649 v -22.46371 h -7.72921 a 11.799426,9.6498738 0 0 0 -9.26524,-3.676739 z m 0.0101,2.458499 a 11.448373,11.566449 0 0 1 11.44798,11.56659 11.448373,11.566449 0 0 1 -11.44798,11.56656 11.448373,11.566449 0 0 1 -11.448686,-11.56656 11.448373,11.566449 0 0 1 11.448686,-11.56659 z"
       id="path4838" />
    <ellipse
       ry="9.6498737"
       rx="9.6877985"
       cy="112.74487"
       cx="102.59535"
       id="ellipse4840"
       style="opacity:1;fill:#ffffff;fill-opacity:1;stroke:none;stroke-width:0.61493552;stroke-linecap:round;stroke-linejoin:round;stroke-miterlimit:4;stroke-dasharray:none;stroke-dashoffset:0;stroke-opacity:1" />
    <path
       id="path4886"
       d="m 118.82516,125.59989 6.59206,8.70498 h -3.59077 l -6.45958,-8.70879 z"
       style="opacity:1;fill:#ffffff;fill-opacity:1;stroke:none;stroke-width:0.26458332px;stroke-linecap:butt;stroke-linejoin:miter;stroke-opacity:1" />
    <path
       id="path4842"
       d="m 96.043507,99.544354 -30.980082,-41.767287 2.405324,0.0053 30.902668,40.807775 c 0,0 -0.567474,-0.07117 -2.32791,0.954212 z"
       style="opacity:1;fill:#ffffff;fill-opacity:1;stroke:none;stroke-width:0.26458332px;stroke-linecap:butt;stroke-linejoin:miter;stroke-opacity:1" />
    <path
       id="path4844"
       d="m 39.568019,50.537753 -2.879404,-5.806779 h 2.171565 l 2.928856,5.807193"
       style="opacity:1;fill:#ffffff;fill-opacity:1;stroke:none;stroke-width:0.26499999;stroke-linecap:butt;stroke-linejoin:miter;stroke-miterlimit:4;stroke-dasharray:none;stroke-opacity:1" />
    <path
       id="path4858"
       d="m 43.860718,59.162341 4.331246,8.713216 h 2.598587 L 46.302083,59.15848 Z"
       style="fill:#ffffff;fill-opacity:1;stroke:none;stroke-width:0.26458332px;stroke-linecap:butt;stroke-linejoin:miter;stroke-opacity:1;opacity:1" />
    <path
       id="path4860"
       d="m 53.921628,79.375785 h 2.77292 l 7.483547,14.499373 h -3.073599 z"
       style="fill:#ffffff;fill-opacity:1;stroke:none;stroke-width:0.26458332px;stroke-linecap:butt;stroke-linejoin:miter;stroke-opacity:1;opacity:1" />
    <path
       id="path4862"
       d="m 69.736607,111.03571 h 3.449031 l 11.90625,23.43453 h -3.779761 z"
       style="fill:#ffffff;fill-opacity:1;stroke:none;stroke-width:0.26458332px;stroke-linecap:butt;stroke-linejoin:miter;stroke-opacity:1;opacity:1" />
    <path
       id="path4933"
       d="m 89.23836,144.35829 -1.169909,1.68747 c 15.071799,6.94531 29.104169,-0.0945 29.104169,-0.0945 l -1.03358,-1.50252 c 0,0 -13.51851,5.8965 -26.90068,-0.0904 z"
       style="fill:#ffffff;fill-opacity:1;stroke:none;stroke-width:0.26458332px;stroke-linecap:butt;stroke-linejoin:miter;stroke-opacity:1;opacity:1" />
    <path
       id="path4927"
       d="m 114.99906,142.79155 -1.11365,-1.61892 c 0,0 -10.7924,4.82588 -22.37051,-0.098 v -2e-5 l -1.156937,1.66877 c 12.876787,5.52299 24.641097,0.0482 24.641097,0.0482 z"
       style="fill:#ffffff;fill-opacity:1;stroke:none;stroke-width:0.26458332px;stroke-linecap:butt;stroke-linejoin:miter;stroke-opacity:1;opacity:1" />
    <path
       id="path4923"
       d="m 112.74155,139.5098 -1.06685,-1.55089 c 0,0 -8.74253,3.45681 -17.94833,-0.0741 v -10e-6 l -1.188224,1.71389 c 11.162434,4.08883 20.203404,-0.0889 20.203404,-0.0889 z"
       style="fill:#ffffff;fill-opacity:1;stroke:none;stroke-width:0.26458332px;stroke-linecap:butt;stroke-linejoin:miter;stroke-opacity:1;opacity:1" />
    <path
       id="path4919"
       d="m 110.55131,136.32584 -1.15072,-1.6728 c 0,0 -6.70227,2.18569 -13.424168,-0.0137 v -1e-5 l -1.146092,1.65312 c 8.60298,2.85149 15.72098,0.0334 15.72098,0.0334 z"
       style="fill:#ffffff;fill-opacity:1;stroke:none;stroke-width:0.26458332px;stroke-linecap:butt;stroke-linejoin:miter;stroke-opacity:1;opacity:1" />
    <path
       id="path4915"
       d="m 108.18748,132.88954 -1.22022,-1.77384 c 0,0 -3.02595,1.35731 -8.646205,0.14174 l -1.193743,1.72185 c 6.439628,1.85493 11.060168,-0.0897 11.060168,-0.0897 z"
       style="fill:#ffffff;fill-opacity:1;stroke:none;stroke-width:0.26458332px;stroke-linecap:butt;stroke-linejoin:miter;stroke-opacity:1;opacity:1" />
  </g>
</svg>
