<?xml version="1.0" encoding="UTF-8" standalone="no"?>
<!-- Created with Inkscape (http://www.inkscape.org/) -->

<svg
   xmlns:svg="http://www.w3.org/2000/svg"
   xmlns="http://www.w3.org/2000/svg"
   version="1.1"
   width="1410.5507"
   height="1000.0338"
   id="svg2">
  <defs
     id="defs4">
    <marker
       refX="0"
       refY="0"
       orient="auto"
       id="Arrow2Lstart"
       style="overflow:visible">
      <path
         d="M 8.7185878,4.0337352 -2.2072895,0.01601326 8.7185884,-4.0017078 c -1.7454984,2.3720609 -1.7354408,5.6174519 -6e-7,8.035443 z"
         transform="matrix(1.1,0,0,1.1,1.1,0)"
         id="path5785"
         style="font-size:12px;fill-rule:evenodd;stroke-width:0.625;stroke-linejoin:round" />
    </marker>
    <pattern
       id="pattern4002"
       patternTransform="translate(18.50938,18)"
       height="476"
       width="370"
       patternUnits="userSpaceOnUse">
      <rect
         style="fill:#00e5ff;fill-opacity:1"
         id="rect2240"
         width="370"
         height="476"
         x="0"
         y="0"
         rx="20"
         ry="20" />
    </pattern>
    <pattern
       patternUnits="userSpaceOnUse"
       width="370"
       height="476"
       patternTransform="translate(18.50938,18)"
       id="pattern5932">
      <rect
         ry="20"
         rx="20"
         y="0"
         x="0"
         height="476"
         width="370"
         id="rect5934"
         style="fill:#00e5ff;fill-opacity:1" />
    </pattern>
  </defs>
  <g
     transform="translate(181.25001,262.92165)"
     id="layer1">
    <rect
       width="1403.8937"
       height="993.37677"
       rx="24.21324"
       ry="24.21324"
       x="-177.92149"
       y="-259.59314"
       id="rect2961"
       style="fill:#ffffff;fill-opacity:1;stroke:#2c5c32;stroke-width:6.65702963;stroke-linecap:round;stroke-linejoin:miter;stroke-miterlimit:4;stroke-opacity:1;stroke-dasharray:none" />
    <rect
       width="1372.0878"
       height="960.09167"
       rx="12.378518"
       ry="12.378518"
       x="-162.38841"
       y="-241.84106"
       id="rect3741"
       style="fill:#2c5c32;fill-opacity:1;stroke:none" />
    <rect
       width="183.05899"
       height="182.53595"
       rx="12.378518"
       ry="12.378518"
       x="64.492813"
       y="-224.89186"
       id="rect2882"
       style="fill:#ffffff;fill-opacity:1;stroke:none" />
    <rect
       width="164.23007"
       height="163.18399"
       rx="4.7946467"
       ry="4.7946467"
       x="73.907265"
       y="-215.4774"
       id="rect3662"
       style="fill:#d40000;fill-opacity:1;stroke:#d40000;stroke-width:6.65702963;stroke-linecap:round;stroke-linejoin:miter;stroke-miterlimit:4;stroke-opacity:1;stroke-dasharray:none" />
    <g
       transform="matrix(1.5106612,0,0,1.4486682,86.880374,-353.32735)"
       id="text3664"
       style="font-size:89.9929657px;font-style:normal;font-variant:normal;font-weight:bold;font-stretch:normal;text-align:start;line-height:125%;writing-mode:lr-tb;text-anchor:start;fill:#ffffff;fill-opacity:1;stroke:none;font-family:Drogowskaz;-inkscape-font-specification:Drogowskaz Bold">
      <path
         d="m 42.485584,129.16608 -0.983276,11.81305 c 1.592994,-0.37533 3.186925,-0.56301 4.781799,-0.56305 6.187101,4e-5 11.483879,2.20326 15.890351,6.60965 4.406385,4.40646 6.6096,9.70324 6.609649,15.89035 -4.9e-5,6.18715 -2.203264,11.48392 -6.609649,15.89035 -4.406472,4.40643 -9.70325,6.60965 -15.890351,6.60965 -1.126124,0 -2.297998,-0.0934 -3.515625,-0.28015 l -15.891723,-2.53235 0.8432,-11.25 16.734925,2.67242 c 0.655491,0.0934 1.265232,0.14009 1.829223,0.14008 3.092621,1e-5 5.740782,-1.07802 7.944489,-3.2341 2.203637,-2.15605 3.305473,-4.82802 3.305511,-8.0159 -3.8e-5,-3.18784 -1.101874,-5.85981 -3.305511,-8.0159 -2.203707,-2.15604 -4.851868,-3.23407 -7.944489,-3.2341 l -16.875,0 2.8125,-33.75 33.75,0 0,11.25 z"
         id="path3707"
         style="font-size:90px;fill:#ffffff" />
    </g>
    <g
       transform="matrix(1.5106612,0,0,1.4486682,86.880374,-353.32735)"
       id="text3668"
       style="font-size:116.47894287px;font-style:normal;font-variant:normal;font-weight:bold;font-stretch:normal;text-align:start;line-height:125%;writing-mode:lr-tb;text-anchor:start;fill:#ff0000;fill-opacity:1;stroke:none;font-family:Drogowskaz;-inkscape-font-specification:Drogowskaz Bold">
      <path
         d="m 210.26479,154.37631 -26.57313,0 0,36.40251 -14.56101,0 0,-87.36604 41.13414,0 c 4.12603,2.7919 7.40249,6.43214 9.82939,10.92076 2.42677,4.48877 3.64018,9.34243 3.64025,14.56101 -7e-5,5.21869 -1.21348,10.07236 -3.64025,14.561 -2.4269,4.48874 -5.70336,8.12899 -9.82939,10.92076 z m -5.27908,-14.56101 c 2.79176,-3.15436 4.18766,-6.7946 4.18771,-10.92075 -5e-5,-4.12603 -1.39595,-7.76628 -4.18771,-10.92076 l -21.29405,0 0,21.84151 z"
         id="path3677"
         style="font-size:116.48805237px;fill:#ffffff" />
      <path
         d="m 238.73068,183.49832 c -6.0671,-6.06707 -9.10064,-13.34757 -9.10063,-21.84151 -1e-5,-8.49388 3.03353,-15.77438 9.10063,-21.84151 6.06706,-6.06703 13.34756,-9.10057 21.84151,-9.10063 8.49387,6e-5 15.77437,3.0336 21.84151,9.10063 6.06702,6.06713 9.10056,13.34763 9.10063,21.84151 -7e-5,8.49394 -3.03361,15.77444 -9.10063,21.84151 -6.06714,6.06709 -13.34764,9.10063 -21.84151,9.10063 -8.49395,0 -15.77445,-3.03354 -21.84151,-9.10063 z m 10.28442,-33.3986 c -3.21605,3.21607 -4.82406,7.06843 -4.82404,11.55709 -2e-5,4.48872 1.60799,8.34108 4.82404,11.55709 3.216,3.21604 7.06836,4.82406 11.55709,4.82404 4.48865,2e-5 8.34101,-1.608 11.55709,-4.82404 3.21598,-3.21601 4.82399,-7.06837 4.82404,-11.55709 -5e-5,-4.48866 -1.60806,-8.34102 -4.82404,-11.55709 -3.21608,-3.21598 -7.06844,-4.824 -11.55709,-4.82404 -4.48873,4e-5 -8.34109,1.60806 -11.55709,4.82404 z"
         id="path3679"
         style="font-size:116.48805237px;fill:#ffffff" />
      <path
         d="m 343.49333,176.21782 0,14.561 -40.04277,0 0,-6.73304 20.02139,-36.94998 -20.02139,0 0,-14.561 40.04277,0 0,6.73304 -20.02138,36.94998 z"
         id="path3681"
         style="font-size:116.48805237px;fill:#ffffff" />
      <path
         d="m 360.05592,132.5348 14.561,0 0,5.64168 c 4.12607,-3.76107 8.97973,-5.64162 14.56101,-5.64168 5.94617,6e-5 11.07297,2.12353 15.38042,6.37044 4.30733,4.24701 6.46103,9.40402 6.46109,15.47107 l 0,36.40251 -14.56101,0 0,-32.76226 c -5e-5,-3.03351 -1.06178,-5.61202 -3.18522,-7.73554 -2.12352,-2.12343 -4.70203,-3.18517 -7.73553,-3.18522 -3.03358,5e-5 -5.61209,1.06179 -7.73554,3.18522 -2.1235,2.12352 -3.18524,4.70203 -3.18522,7.73554 l 0,32.76226 -14.561,0 z"
         id="path3683"
         style="font-size:116.48805237px;fill:#ffffff" />
      <path
         d="m 436.02637,182.22565 c -5.70212,-5.70446 -8.55317,-12.56074 -8.55317,-20.56884 0,-8.00804 2.85105,-14.86372 8.55317,-20.56707 5.7021,-5.70324 12.55837,-8.55488 20.56885,-8.55494 5.21623,6e-5 10.06989,1.33434 14.561,4.00285 l 0,-4.00285 14.56101,0 0,43.68302 3.64025,14.561 -14.561,0 -1.27623,-5.46037 c -5.09545,3.64025 -10.73712,5.46037 -16.92503,5.46037 -8.01048,0 -14.86675,-2.85105 -20.56885,-8.55317 z m 10.28443,-31.03456 c -2.85108,2.85109 -4.27661,6.33966 -4.27659,10.46572 -2e-5,4.12612 1.42551,7.61469 4.27659,10.46572 2.85102,2.85108 6.27857,4.2766 10.28264,4.27659 4.004,1e-5 7.43214,-1.42551 10.28442,-4.27659 2.85219,-2.85103 4.27831,-6.3396 4.27836,-10.46572 -5e-5,-4.12606 -1.42617,-7.61463 -4.27836,-10.46572 -2.85228,-2.85102 -6.28042,-4.27654 -10.28442,-4.27659 -4.00407,5e-5 -7.43162,1.42557 -10.28264,4.27659 z"
         id="path3685"
         style="font-size:116.48805237px;fill:#ffffff" />
      <path
         d="m 535.20343,103.41278 14.561,0 -21.84151,21.84151 z m -29.12202,29.12202 14.56101,0 0,5.64168 c 4.12606,-3.76107 8.97973,-5.64162 14.56101,-5.64168 5.94617,6e-5 11.07297,2.12353 15.38041,6.37044 4.30734,4.24701 6.46103,9.40402 6.4611,15.47107 l 0,36.40251 -14.56101,0 0,-32.76226 c -5e-5,-3.03351 -1.06179,-5.61202 -3.18522,-7.73554 -2.12352,-2.12343 -4.70203,-3.18517 -7.73554,-3.18522 -3.03357,5e-5 -5.61208,1.06179 -7.73553,3.18522 -2.12351,2.12352 -3.18525,4.70203 -3.18522,7.73554 l 0,32.76226 -14.56101,0 z"
         id="path3687"
         style="font-size:116.48805237px;fill:#ffffff" />
    </g>
    <rect
       width="204.24153"
       height="143.59866"
       rx="12.378518"
       ry="12.378518"
       x="20.297142"
       y="229.63216"
       id="rect3691"
       style="fill:#ffffff;fill-opacity:1;stroke:none" />
    <rect
       width="186.45865"
       height="125.29278"
       rx="4.7946472"
       ry="4.7946472"
       x="29.17318"
       y="238.52359"
       id="rect3693"
       style="fill:#d40000;fill-opacity:1;stroke:#d40000;stroke-width:6.65702963;stroke-linecap:round;stroke-linejoin:miter;stroke-miterlimit:4;stroke-opacity:1;stroke-dasharray:none" />
    <rect
       width="204.24153"
       height="143.59866"
       rx="12.378518"
       ry="12.378518"
       x="861.69055"
       y="229.63216"
       id="rect3699"
       style="fill:#ffffff;fill-opacity:1;stroke:none" />
    <rect
       width="186.45865"
       height="125.29278"
       rx="4.7946472"
       ry="4.7946472"
       x="870.56665"
       y="238.52359"
       id="rect3701"
       style="fill:#d40000;fill-opacity:1;stroke:#d40000;stroke-width:6.65702963;stroke-linecap:round;stroke-linejoin:miter;stroke-miterlimit:4;stroke-opacity:1;stroke-dasharray:none" />
    <g
       transform="matrix(1.4866028,0,0,1.4721127,86.880374,-353.32735)"
       id="text3703"
       style="font-size:88.3345871px;font-style:normal;font-variant:normal;font-weight:bold;font-stretch:normal;text-align:start;line-height:125%;writing-mode:lr-tb;text-anchor:start;fill:#ff0000;fill-opacity:1;stroke:none;font-family:Drogowskaz;-inkscape-font-specification:Drogowskaz Bold">
      <path
         d="m -129.29536,547.2985 11.04269,0 0,55.21344 24.846042,0 0,11.04269 -35.888732,0 z"
         id="path3712"
         style="font-size:88.34149933px;fill:#ffffff" />
      <path
         d="m -49.926044,587.32824 c -0.828601,-2.39219 -2.323964,-4.37058 -4.486092,-5.93517 -2.162201,-1.56453 -4.577786,-2.34681 -7.246764,-2.34684 -2.669035,3e-5 -5.08462,0.78231 -7.246763,2.34684 -2.162187,1.56459 -3.657549,3.54298 -4.486092,5.93517 z m -23.465711,8.28202 c 0.920206,2.4839 2.438484,4.48521 4.554839,6.00392 2.116311,1.51874 4.508981,2.2781 7.178016,2.27809 4.784412,10e-6 10.30575,-0.4601 16.564031,-1.38033 l -5.521343,11.04269 -7.454353,1.10534 c -1.47203,0.18333 -2.668141,0.27499 -3.588335,0.27499 -6.44159,0 -11.962928,-2.30056 -16.564031,-6.90168 -4.601127,-4.60111 -6.901685,-10.12245 -6.901679,-16.56403 -6e-6,-6.44154 2.300552,-11.96288 6.901679,-16.56403 4.601103,-4.60108 10.122441,-6.90163 16.564031,-6.90168 8.190316,5e-5 14.631877,3.40505 19.324703,10.21503 l 0,17.39169 z"
         id="path3714"
         style="font-size:88.34149933px;fill:#ffffff" />
      <path
         d="m -16.107812,622.52681 c 1.932088,1.47199 4.140983,2.20799 6.6266908,2.208 3.0356303,-1e-5 5.6349907,-1.0811 7.7980892,-3.24325 2.16302817,-2.16217 3.2445598,-4.80782 3.2445982,-7.93693 l 0,-3.03566 c -3.405942,2.02377 -7.0868341,3.03566 -11.0426874,3.03566 -6.0749368,0 -11.2745568,-2.16262 -15.5988748,-6.48785 -4.324341,-4.32522 -6.486505,-9.52439 -6.4865,-15.59753 -5e-6,-6.07309 2.162159,-11.27226 6.4865,-15.59752 4.324318,-4.3252 9.523938,-6.48781 15.5988748,-6.48785 3.9558533,4e-5 7.6367454,1.01193 11.0426874,3.03566 l 0,-3.03566 11.0426878,0 0,44.17075 c -5e-5,6.07311 -2.162664,11.27228 -6.4878488,15.59752 -4.3252709,4.32522 -9.5244412,6.48783 -15.5975264,6.48785 -4.8779288,-2e-5 -9.2957178,-1.47202 -13.2533818,-4.416 z m -1.172746,-38.99449 c -2.162185,2.16219 -3.243267,4.80784 -3.243251,7.93693 -1.6e-5,3.12914 1.081066,5.77478 3.243251,7.93693 2.162145,2.16218 4.761505,3.24326 7.7980888,3.24325 3.0365289,10e-6 5.6363387,-1.08107 7.7994372,-3.24325 2.16302817,-2.16215 3.2445598,-4.80779 3.2445982,-7.93693 -3.84e-5,-3.12909 -1.08157003,-5.77474 -3.2445982,-7.93693 -2.1630985,-2.16213 -4.7629083,-3.24322 -7.7994372,-3.24325 -3.0365838,3e-5 -5.6359438,1.08112 -7.7980888,3.24325 z"
         id="path3716"
         style="font-size:88.34149933px;fill:#ffffff" />
      <path
         d="m 29.098193,569.38388 11.042687,0 0,4.2785 c 3.129099,-2.85229 6.809991,-4.27846 11.042688,-4.2785 4.509422,4e-5 8.397454,1.61043 11.664108,4.83117 3.26657,3.22082 4.899876,7.13177 4.899923,11.73286 l 0,27.60672 -11.042688,0 0,-24.84605 c -3.5e-5,-2.30053 -0.805231,-4.25601 -2.415587,-5.86643 -1.610424,-1.61036 -3.565898,-2.41555 -5.866428,-2.41559 -2.300585,4e-5 -4.256059,0.80523 -5.866428,2.41559 -1.610412,1.61042 -2.415607,3.5659 -2.415588,5.86643 l 0,24.84605 -11.042687,0 z"
         id="path3718"
         style="font-size:88.34149933px;fill:#ffffff" />
      <path
         d="m 84.311618,569.38388 11.042687,0 0,44.17075 -11.042687,0 z m 0,-22.08538 11.042687,0 0,11.04269 -11.042687,0 z"
         id="path3720"
         style="font-size:88.34149933px;fill:#ffffff" />
      <path
         d="m 147.1169,609.8288 c -4.23271,3.40411 -9.10971,5.10616 -14.63102,5.10616 -6.53325,0 -12.0775,-2.30056 -16.63278,-6.90168 -4.55529,-4.60111 -6.83293,-10.14536 -6.83293,-16.63278 0,-6.48737 2.27764,-12.0087 6.83293,-16.56403 4.55528,-4.55524 10.09953,-6.83288 16.63278,-6.83293 4.87608,5e-5 9.29297,1.38038 13.25069,4.14101 l -4.2785,10.7677 c -2.39226,-2.57732 -5.38299,-3.86599 -8.97219,-3.86602 -3.40593,3e-5 -6.32791,1.19614 -8.76594,3.58833 -2.43807,2.39225 -3.6571,5.31378 -3.65708,8.7646 -2e-5,3.45085 1.21901,6.39575 3.65708,8.83469 2.43803,2.43896 5.36001,3.65843 8.76594,3.65842 3.86419,10e-6 7.03914,-1.47198 9.52486,-4.41599 z"
         id="path3722"
         style="font-size:88.34149933px;fill:#ffffff" />
      <path
         d="m 163.50838,607.06813 c -4.32434,-4.32612 -6.4865,-9.52574 -6.4865,-15.59888 0,-6.07309 2.16216,-11.27226 6.4865,-15.59752 4.32432,-4.3252 9.52394,-6.48781 15.59888,-6.48785 3.95585,4e-5 7.63674,1.01193 11.04269,3.03566 l 0,-3.03566 11.04268,0 0,33.12806 2.76067,11.04269 -11.04268,0 -0.96786,-4.14101 c -3.86425,2.76067 -8.14275,4.14101 -12.8355,4.14101 -6.07494,0 -11.27456,-2.16217 -15.59888,-6.4865 z m 7.79944,-23.53581 c -2.16218,2.16219 -3.24327,4.80784 -3.24325,7.93693 -2e-5,3.12914 1.08107,5.77478 3.24325,7.93693 2.16215,2.16218 4.76151,3.24326 7.79809,3.24325 3.03653,10e-6 5.63634,-1.08107 7.79944,-3.24325 2.16303,-2.16215 3.24456,-4.80779 3.2446,-7.93693 -4e-5,-3.12909 -1.08157,-5.77474 -3.2446,-7.93693 -2.1631,-2.16213 -4.76291,-3.24322 -7.79944,-3.24325 -3.03658,3e-5 -5.63594,1.08112 -7.79809,3.24325 z"
         id="path3724"
         style="font-size:88.34149933px;fill:#ffffff" />
    </g>
    <g
       transform="matrix(1.4838696,0,0,1.4748242,88.449452,-353.32735)"
       id="text3707"
       style="font-size:88.47613525px;font-style:normal;font-variant:normal;font-weight:bold;font-stretch:normal;text-align:start;line-height:125%;writing-mode:lr-tb;text-anchor:start;fill:#ff0000;fill-opacity:1;stroke:none;font-family:Drogowskaz;-inkscape-font-specification:Drogowskaz Bold">
      <path
         d="m 470.37744,545.58296 11.06038,0 0,27.37553 24.05687,-27.37553 14.65447,0 -25.85256,29.44935 25.85256,36.91294 -13.55005,0 -19.76881,-28.34223 -5.39248,6.22147 0,22.12076 -11.06038,0 z"
         id="path3727"
         style="font-size:88.48305511px;fill:#ffffff" />
      <path
         d="m 532.41927,605.44836 c -4.33127,-4.33305 -6.4969,-9.54101 -6.49689,-15.62387 -10e-6,-6.08282 2.16562,-11.29033 6.49689,-15.62252 4.33125,-4.33212 9.5392,-6.4982 15.62387,-6.49825 3.96219,5e-5 7.64898,1.01356 11.06038,3.04053 l 0,-3.04053 11.06038,0 0,33.18115 2.7651,11.06038 -11.06038,0 -0.96941,-4.14764 c -3.87045,2.7651 -8.1558,4.14764 -12.85607,4.14764 -6.08467,0 -11.29262,-2.16563 -15.62387,-6.49689 z m 7.81193,-23.57352 c -2.16564,2.16566 -3.24846,4.81554 -3.24844,7.94965 -2e-5,3.13415 1.0828,5.78403 3.24844,7.94965 2.16561,2.16564 4.76914,3.24846 7.81059,3.24844 3.04139,2e-5 5.64537,-1.0828 7.81193,-3.24844 2.1665,-2.16562 3.24976,-4.8155 3.2498,-7.94965 -4e-5,-3.13411 -1.0833,-5.78399 -3.2498,-7.94965 -2.16656,-2.1656 -4.77054,-3.24842 -7.81193,-3.24845 -3.04145,3e-5 -5.64498,1.08285 -7.81059,3.24845 z"
         id="path3729"
         style="font-size:88.48305511px;fill:#ffffff" />
      <path
         d="m 586.68426,545.58296 11.06039,0 0,66.36229 -11.06039,0 z"
         id="path3731"
         style="font-size:88.48305511px;fill:#ffffff" />
      <path
         d="m 614.33522,567.70372 11.06038,0 0,44.24153 -11.06038,0 z m 0,-22.12076 11.06038,0 0,11.06038 -11.06038,0 z"
         id="path3733"
         style="font-size:88.48305511px;fill:#ffffff" />
      <path
         d="m 654.40177,567.70372 c 3.59496,5e-5 6.8209,0.36909 9.67784,1.10712 l 0,9.95327 c -3.13417,-0.92167 -6.36011,-1.38252 -9.67784,-1.38255 -0.7381,3e-5 -1.38347,0.27636 -1.93611,0.82899 -0.55267,0.55269 -0.829,1.19806 -0.82898,1.9361 -2e-5,1.10535 0.46083,1.88844 1.38254,2.34925 l 8.433,5.11705 c 2.1206,1.19715 3.77993,2.85603 4.97799,4.97663 1.19799,2.12065 1.797,4.42489 1.79704,6.91274 -4e-5,3.77861 -1.33668,7.02751 -4.00993,9.74669 -2.67331,2.71919 -5.94516,4.07879 -9.81555,4.07879 -6.08286,0 -11.70486,-1.06031 -16.866,-3.18094 l 3.04052,-9.26199 c 4.42486,1.84341 9.03335,2.7651 13.82548,2.7651 1.19891,0 2.18991,-0.39154 2.97302,-1.17463 0.78306,-0.78307 1.1746,-1.77408 1.17462,-2.97302 -2e-5,-1.65976 -0.6913,-2.85779 -2.07382,-3.59408 l -8.98656,-5.25476 c -3.87042,-2.57966 -5.80563,-6.08193 -5.80562,-10.50683 -10e-6,-3.50314 1.29028,-6.45275 3.87087,-8.84884 2.58056,-2.39602 5.52972,-3.59404 8.84749,-3.59409 z"
         id="path3735"
         style="font-size:88.48305511px;fill:#ffffff" />
      <path
         d="m 708.23043,600.88487 0,11.06038 -30.41605,0 0,-5.11435 15.20803,-28.06679 -15.20803,0 0,-11.06039 30.41605,0 0,5.11435 -15.20802,28.0668 z"
         id="path3737"
         style="font-size:88.48305511px;fill:#ffffff" />
    </g>
    <g
       transform="matrix(1.5405028,0,0,1.4206056,86.880374,-353.32735)"
       id="text3739"
       style="font-size:73.11814117px;font-style:normal;font-variant:normal;font-weight:bold;font-stretch:normal;text-align:start;line-height:125%;writing-mode:lr-tb;text-anchor:start;fill:#ff0000;fill-opacity:1;stroke:none;font-family:Drogowskaz;-inkscape-font-specification:Drogowskaz Bold">
      <path
         d="m -8.691226,442.45163 c 2.5099643,5e-5 4.6582877,-0.89329 6.4449768,-2.68002 1.78667162,-1.78664 2.68001179,-3.93496 2.68002319,-6.44498 l 9.12500001,0 0,54.75 -9.12500001,0 0,-36.5 -9.12499999,0 z"
         id="path3744"
         style="font-size:73px;fill:#ffffff" />
      <path
         d="m 52.902524,478.95163 0,9.125 -29.65625,0 0,-5.93036 21.444641,-28.74509 c 0.911877,-1.21633 1.367829,-2.58493 1.367859,-4.1058 -3e-5,-1.901 -0.665394,-3.51689 -1.996094,-4.84766 -1.330755,-1.33068 -2.946639,-1.99604 -4.847656,-1.99609 -1.901063,5e-5 -3.516946,0.66541 -4.847656,1.99609 -1.330746,1.33077 -1.99611,2.94666 -1.996094,4.84766 l -9.125,0 c -7e-6,-4.41097 1.558697,-8.17518 4.676117,-11.29263 3.117397,-3.11736 6.881604,-4.67607 11.292633,-4.67612 4.410984,5e-5 8.175191,1.55876 11.292633,4.67612 3.117374,3.11745 4.676078,6.88166 4.676117,11.29263 -3.9e-5,3.65063 -1.10279,6.92027 -3.308258,9.80893 l -14.828125,19.84732 z"
         id="path3746"
         style="font-size:73px;fill:#ffffff" />
    </g>
    <g
       transform="matrix(1.5405028,0,0,1.4206056,928.19154,-353.32735)"
       id="g3748"
       style="font-size:73.11814117px;font-style:normal;font-variant:normal;font-weight:bold;font-stretch:normal;text-align:start;line-height:125%;writing-mode:lr-tb;text-anchor:start;fill:#ff0000;fill-opacity:1;stroke:none;font-family:Drogowskaz;-inkscape-font-specification:Drogowskaz Bold">
      <path
         d="m -8.691226,442.45163 c 2.5099643,5e-5 4.6582877,-0.89329 6.4449768,-2.68002 1.78667162,-1.78664 2.68001179,-3.93496 2.68002319,-6.44498 l 9.12500001,0 0,54.75 -9.12500001,0 0,-36.5 -9.12499999,0 z"
         id="path3750"
         style="font-size:73px;fill:#ffffff" />
      <path
         d="m 52.902524,478.95163 0,9.125 -29.65625,0 0,-5.93036 21.444641,-28.74509 c 0.911877,-1.21633 1.367829,-2.58493 1.367859,-4.1058 -3e-5,-1.901 -0.665394,-3.51689 -1.996094,-4.84766 -1.330755,-1.33068 -2.946639,-1.99604 -4.847656,-1.99609 -1.901063,5e-5 -3.516946,0.66541 -4.847656,1.99609 -1.330746,1.33077 -1.99611,2.94666 -1.996094,4.84766 l -9.125,0 c -7e-6,-4.41097 1.558697,-8.17518 4.676117,-11.29263 3.117397,-3.11736 6.881604,-4.67607 11.292633,-4.67612 4.410984,5e-5 8.175191,1.55876 11.292633,4.67612 3.117374,3.11745 4.676078,6.88166 4.676117,11.29263 -3.9e-5,3.65063 -1.10279,6.92027 -3.308258,9.80893 l -14.828125,19.84732 z"
         id="path3752"
         style="font-size:73px;fill:#ffffff" />
    </g>
    <path
       d="m 475.08271,91.273639 42.9053,-72.747432 44.36181,72.747432 -3e-4,599.083881 -87.26681,0 0,-599.083881 z"
       id="rect5725-4"
       style="fill:#ffffff;fill-opacity:1;stroke:none" />
    <path
       d="m 331.63623,285.00756 421.57564,0 32.40325,19.8837 -30.97014,20.04492 -424.53432,0 -31.06996,-19.95246 32.59553,-19.97616 z"
       id="rect5728-0"
       style="fill:#ffffff;fill-opacity:1;stroke:none" />
  </g>
</svg>
