<?xml version="1.0" encoding="UTF-8" standalone="no"?>
<!-- Created with Inkscape (http://www.inkscape.org/) -->
<svg
   xmlns:svg="http://www.w3.org/2000/svg"
   xmlns="http://www.w3.org/2000/svg"
   xmlns:sodipodi="http://sodipodi.sourceforge.net/DTD/sodipodi-0.dtd"
   xmlns:inkscape="http://www.inkscape.org/namespaces/inkscape"
   height="1916.5021"
   width="6193.2061"
   id="svg2"
   sodipodi:version="0.32"
   inkscape:version="0.45"
   version="1.0"
   sodipodi:docname="Znak E-10.svg"
   sodipodi:docbase="/home/szczepan/Desktop/znaki/nowe"
   inkscape:output_extension="org.inkscape.output.svg.inkscape"
   sodipodi:modified="true">
  <defs
     id="defs36" />
  <sodipodi:namedview
     id="base"
     pagecolor="#ffffff"
     bordercolor="#666666"
     borderopacity="1.0"
     inkscape:pageopacity="0.0"
     inkscape:pageshadow="2"
     inkscape:cx="7009.9373"
     inkscape:cy="1123.0385"
     inkscape:zoom="0.0625"
     inkscape:document-units="px"
     inkscape:current-layer="g25315"
     inkscape:window-width="1269"
     inkscape:window-height="945"
     inkscape:window-x="0"
     inkscape:window-y="25" />
  <g
     inkscape:groupmode="layer"
     inkscape:label="Warstwa 1"
     id="layer1"
     transform="translate(-30.344793,4663.5354)">
    <g
       id="g17950"
       transform="matrix(16.450371,0,0,16.450371,12652.245,67865.758)">
      <g
         inkscape:label="Warstwa 1"
         id="g6659"
         transform="matrix(3.2373461e-2,0,0,3.2373461e-2,-4086.939,-4432.5862)">
        <g
           id="g14845"
           transform="matrix(0.2677817,0,0,0.2677817,87019.973,9502.6427)" />
        <g
           id="g25300">
          <g
             style="fill:#7a613e;fill-opacity:1"
             id="g25274"
             transform="translate(33769.594,-6375.5142)">
            <g
               id="g25315"
               transform="translate(23025,3425)">
              <path
                 sodipodi:nodetypes="cccccc"
                 id="path6670"
                 style="fill:#ffffff;fill-opacity:1;stroke:none;stroke-width:150;stroke-miterlimit:4;stroke-dashoffset:0;stroke-opacity:1"
                 d="M 45828.152,3808.0377 L 55527.47,3808.0377 L 56869.783,5478.85 L 55527.47,7149.6482 L 45828.152,7149.6482 L 45828.152,3808.0377 z " />
              <path
                 sodipodi:nodetypes="cccccccccccc"
                 id="path6672"
                 style="fill:#7a613e;fill-opacity:1;stroke:none;stroke-width:150;stroke-miterlimit:4;stroke-dasharray:none;stroke-dashoffset:0;stroke-opacity:1"
                 d="M 45748.274,3679.8168 L 45748.274,7278.507 L 55564.692,7278.507 L 57377.497,5479.1903 L 55564.692,3679.8168 L 45748.274,3679.8168 z M 45919.582,3887.9666 L 55516.302,3887.9666 L 56651.955,5479.1903 L 55516.33,7070.3713 L 45919.582,7070.3713 L 45919.582,3887.9666 z " />
            </g>
          </g>
        </g>
      </g>
      <g
         transform="translate(0,0.5531777)"
         id="g17929">
        <g
           id="g17910"
           style="fill:#7a613e;fill-opacity:1"
           transform="translate(0,-8.56555)">
          <g
             transform="translate(0.8838835,0)"
             id="g17891"
             style="fill:#7a613e;fill-opacity:1">
            <path
               id="path14909"
               style="fill:#7a613e;fill-opacity:1;stroke:none;stroke-width:7;stroke-miterlimit:4;stroke-dasharray:none;stroke-opacity:1"
               d="M -533.23382,-4372.2065 C -536.83562,-4372.2065 -539.7584,-4369.2893 -539.7584,-4365.6949 C -539.7584,-4362.1006 -536.83562,-4359.1834 -533.23382,-4359.1834 C -531.82544,-4359.1834 -530.52182,-4359.6325 -529.45502,-4360.3908 L -529.13697,-4359.1806 L -525.89615,-4359.1806 L -526.74182,-4362.3605 L -526.74182,-4372.2037 L -529.98224,-4372.2037 L -529.98224,-4371.3383 C -530.94016,-4371.8892 -532.04986,-4372.2065 -533.23382,-4372.2065 z M -533.13606,-4368.9073 C -531.60348,-4368.9073 -530.31847,-4367.8421 -529.98224,-4366.414 L -529.98224,-4364.9326 C -530.31847,-4363.5049 -531.60348,-4362.4419 -533.13606,-4362.4419 C -534.92396,-4362.4419 -536.37399,-4363.889 -536.37399,-4365.6733 C -536.37399,-4367.4575 -534.92396,-4368.9073 -533.13606,-4368.9073 z "
               sodipodi:nodetypes="csscccccccccccssc" />
            <path
               id="path14911"
               style="fill:#7a613e;fill-opacity:1;stroke:none;stroke-width:7;stroke-miterlimit:4;stroke-dasharray:none;stroke-opacity:1"
               d="M -572.27542,-4372.2065 C -575.87928,-4372.2065 -578.80453,-4369.2883 -578.80453,-4365.6935 C -578.80453,-4362.0989 -575.87928,-4359.1806 -572.27542,-4359.1806 C -571.01473,-4359.1806 -570.22516,-4359.2985 -569.16165,-4359.5392 L -567.65673,-4362.658 C -570.65377,-4362.4659 -573.81458,-4361.2102 -575.50679,-4364.52 L -566.93603,-4364.5482 L -566.93603,-4369.4355 C -568.11712,-4371.1107 -570.06756,-4372.2065 -572.27542,-4372.2065 z M -572.27542,-4369.1221 C -570.78661,-4369.1221 -569.51931,-4368.1762 -569.04202,-4366.8545 L -575.50925,-4366.8545 C -575.03195,-4368.1762 -573.76425,-4369.1221 -572.27542,-4369.1221 z " />
            <path
               id="path14917"
               style="fill:#7a613e;fill-opacity:1;stroke:none;stroke-width:7;stroke-miterlimit:4;stroke-opacity:1"
               d="M -584.98943,-4372.2065 C -586.92586,-4372.1876 -588.2315,-4370.9375 -588.2315,-4370.9375 C -588.2315,-4370.9375 -589.74261,-4372.2065 -591.37294,-4372.2065 C -593.10474,-4372.2065 -594.36871,-4371.2607 -594.6777,-4371.0054 L -594.6777,-4372.2065 L -597.91732,-4372.2065 L -597.91732,-4359.1806 L -594.6777,-4359.1806 L -594.6777,-4367.4181 C -594.56015,-4367.7707 -594.0684,-4368.9419 -592.70996,-4368.9419 C -590.93812,-4368.9419 -590.66666,-4367.3151 -590.66666,-4367.3151 L -590.61223,-4359.1806 L -587.37263,-4359.1806 L -587.3619,-4367.3151 C -587.3619,-4367.3151 -587.003,-4368.9581 -585.26378,-4368.9581 C -583.85167,-4368.9581 -583.27333,-4367.4859 -583.22008,-4367.3422 L -583.22008,-4359.1806 L -579.98049,-4359.1806 L -579.96974,-4367.3151 C -580.08568,-4370.0331 -582.31914,-4372.1607 -584.98943,-4372.2065 z " />
            <path
               id="path14919"
               style="fill:#7a613e;fill-opacity:1;stroke:none;stroke-width:7;stroke-miterlimit:4;stroke-opacity:1"
               d="M -520.30602,-4371.6011 L -520.30602,-4372.2065 L -523.5448,-4372.2065 L -523.5448,-4359.1806 L -520.30602,-4359.1806 L -520.30602,-4367.6231 C -519.52388,-4368.5672 -518.27637,-4369.0421 -517.06147,-4368.9946 L -517.06147,-4372.2065 C -518.50242,-4372.1597 -519.65342,-4372.0227 -520.30602,-4371.6011 z " />
            <path
               id="path14921"
               style="fill:#7a613e;fill-opacity:1;stroke:none;stroke-width:7;stroke-miterlimit:4;stroke-dasharray:none;stroke-opacity:1"
               d="M -544.63613,-4378.7194 L -547.88894,-4375.5003 L -547.88894,-4372.3193 L -550.4128,-4372.3193 L -550.4128,-4369.0674 L -547.88894,-4369.0674 L -547.88894,-4364.8497 C -547.9343,-4361.7353 -546.23799,-4359.3067 -542.97734,-4359.1806 L -541.32681,-4362.4128 C -542.2509,-4362.4128 -542.34288,-4362.4128 -543.48229,-4362.4128 C -543.92205,-4362.4128 -544.63613,-4363.269 -544.63613,-4363.7258 C -544.63613,-4365.3765 -544.63613,-4369.0674 -544.63613,-4369.0674 L -542.11806,-4369.0674 L -542.11806,-4372.3193 L -544.63613,-4372.3193 L -544.63613,-4378.7194 z " />
            <path
               id="path14925"
               style="fill:#7a613e;fill-opacity:1;stroke:none;stroke-width:7;stroke-miterlimit:4;stroke-opacity:1"
               d="M -515.22638,-4372.2065 L -515.22638,-4368.9718 L -510.75454,-4368.9718 L -515.22638,-4360.7844 L -515.22638,-4359.1806 L -506.34791,-4359.1806 L -506.34791,-4362.4155 L -510.86057,-4362.4155 L -506.34791,-4370.8225 L -506.34791,-4372.2065 L -515.22638,-4372.2065 z " />
            <path
               id="path14927"
               style="fill:#7a613e;fill-opacity:1;stroke:none;stroke-width:7;stroke-miterlimit:4;stroke-dasharray:none;stroke-opacity:1"
               d="M -607.34515,-4378.7194 C -612.73447,-4378.7194 -617.10771,-4374.3427 -617.10771,-4368.9501 C -617.10771,-4363.5574 -612.73447,-4359.1806 -607.34515,-4359.1806 C -605.05976,-4359.1806 -602.95711,-4359.968 -601.29294,-4361.286 L -602.74918,-4364.0472 C -603.9286,-4362.9691 -605.4987,-4362.3127 -607.22102,-4362.3127 C -610.8822,-4362.3127 -613.85369,-4365.2863 -613.85369,-4368.9501 C -613.85369,-4372.5565 -610.97422,-4375.4964 -607.39179,-4375.5875 C -607.33528,-4375.5888 -607.27834,-4375.5875 -607.22102,-4375.5875 C -605.51191,-4375.5875 -603.92531,-4374.9397 -602.74918,-4373.8762 L -601.29294,-4376.6193 C -602.95586,-4377.9338 -605.06307,-4378.7194 -607.34515,-4378.7194 z " />
            <path
               id="path14931"
               style="fill:#7a613e;fill-opacity:1;stroke:none;stroke-width:7;stroke-miterlimit:4;stroke-opacity:1"
               d="M -563.42506,-4372.2065 L -563.42506,-4359.1806 L -560.18054,-4359.1806 L -560.18054,-4367.4195 C -560.06296,-4367.7721 -559.15909,-4368.9419 -557.7994,-4368.9419 C -556.02594,-4368.9419 -555.4261,-4367.3157 -555.4261,-4367.3157 L -555.37123,-4359.1806 L -552.12916,-4359.1806 L -552.11885,-4367.3157 C -552.38164,-4370.5404 -554.63571,-4372.2065 -556.91822,-4372.2065 C -558.65129,-4372.2065 -559.87112,-4371.261 -560.18054,-4371.0058 L -560.18054,-4372.2065 L -563.42506,-4372.2065 z " />
          </g>
          <g
             transform="translate(-2.1759565,0)"
             id="g17901"
             style="fill:#7a613e;fill-opacity:1">
            <path
               id="path14907"
               style="fill:#7a613e;fill-opacity:1;stroke:none;stroke-width:7;stroke-miterlimit:4;stroke-opacity:1"
               d="M -614.04787,-4341.526 L -614.04787,-4314.4654 L -609.4234,-4314.4654 L -609.4234,-4325.7204 L -601.73427,-4325.7204 C -601.73427,-4325.7204 -597.06407,-4328.2489 -597.06407,-4333.6139 C -597.06407,-4339.4494 -601.73427,-4341.526 -601.73427,-4341.526 L -609.4234,-4341.526 L -614.04787,-4341.526 z M -603.1055,-4337.0171 C -603.1055,-4337.0171 -601.51829,-4335.3163 -601.51829,-4333.6139 C -601.51829,-4331.9111 -603.1055,-4330.2065 -603.1055,-4330.2065 L -609.4234,-4330.2065 L -609.4234,-4336.9528 L -603.1055,-4337.0171 z " />
            <path
               id="path14913"
               style="fill:#7a613e;fill-opacity:1;stroke:none;stroke-width:7;stroke-miterlimit:4;stroke-opacity:1"
               d="M -486.30152,-4341.526 L -486.30152,-4336.9566 L -481.71819,-4336.9566 L -481.71819,-4341.526 L -486.30152,-4341.526 z M -486.27127,-4332.6219 L -486.27127,-4314.4654 L -481.74851,-4314.4654 L -481.74851,-4332.6219 L -486.27127,-4332.6219 z " />
            <path
               id="path14915"
               style="fill:#7a613e;fill-opacity:1;stroke:none;stroke-width:7;stroke-miterlimit:4;stroke-opacity:1"
               d="M -506.12479,-4341.526 L -506.12479,-4314.4654 L -501.55287,-4314.4654 L -501.55287,-4321.3441 L -500.15422,-4321.3441 L -494.68818,-4314.4654 L -489.65407,-4314.4654 L -496.068,-4323.3165 L -489.93458,-4332.4022 L -494.9687,-4332.4022 L -499.83599,-4325.8568 L -501.55287,-4325.8568 L -501.55287,-4341.526 L -506.12479,-4341.526 z " />
            <path
               id="path14923"
               style="fill:#7a613e;fill-opacity:1;stroke:none;stroke-width:7;stroke-miterlimit:4;stroke-opacity:1"
               d="M -574.25453,-4332.5057 L -569.85401,-4314.4654 L -565.35524,-4314.4654 L -562.01175,-4325.252 L -558.66826,-4314.4654 L -554.16944,-4314.4654 L -549.76956,-4332.5057 L -554.26774,-4332.5057 L -556.68684,-4322.5873 L -559.76239,-4332.5057 L -564.26113,-4332.5057 L -567.33668,-4322.5873 L -569.75576,-4332.5057 L -574.25453,-4332.5057 z " />
            <path
               id="path14929"
               style="fill:#7a613e;fill-opacity:1;stroke:none;stroke-width:7;stroke-miterlimit:4;stroke-dasharray:none;stroke-opacity:1"
               d="M -586.05459,-4332.5057 C -591.05901,-4332.5057 -595.12011,-4328.4647 -595.12011,-4323.4856 C -595.12011,-4318.5065 -591.05901,-4314.4654 -586.05459,-4314.4654 C -581.05016,-4314.4654 -576.98847,-4318.5065 -576.98847,-4323.4856 C -576.98847,-4328.4647 -581.05016,-4332.5057 -586.05459,-4332.5057 z M -585.91858,-4327.9357 C -583.43438,-4327.9357 -581.41585,-4325.9272 -581.41585,-4323.4554 C -581.41585,-4320.9836 -583.43438,-4318.9793 -585.91858,-4318.9793 C -588.40278,-4318.9793 -590.41737,-4320.9836 -590.41737,-4323.4554 C -590.41737,-4325.9272 -588.40278,-4327.9357 -585.91858,-4327.9357 z " />
            <path
               style="fill:#7a613e;fill-opacity:1;stroke:none;stroke-width:7;stroke-miterlimit:4;stroke-dasharray:none;stroke-opacity:1"
               d="M -537.96648,-4332.5057 C -542.9543,-4332.5057 -547.00059,-4328.4673 -547.00059,-4323.4893 C -547.00059,-4318.5112 -542.9543,-4314.4727 -537.96648,-4314.4727 C -536.01531,-4314.4726 -534.21216,-4315.1007 -532.73468,-4316.1509 L -532.35988,-4314.6868 C -533.50883,-4313.744 -533.89395,-4312.4966 -534.09161,-4311.0088 C -534.09161,-4308.0056 -531.93134,-4306.7061 -531.93134,-4306.7061 L -529.93165,-4309.4734 C -529.93165,-4309.4734 -531.74969,-4310.0466 -532.37761,-4311.6161 C -532.76097,-4312.5743 -532.45071,-4313.8169 -532.23476,-4314.4727 L -527.80682,-4314.4727 L -528.9855,-4318.8828 L -528.9855,-4332.5057 L -533.46659,-4332.5057 L -533.46659,-4331.3096 C -534.79323,-4332.0726 -536.32613,-4332.5057 -537.96648,-4332.5057 z M -537.84136,-4327.935 C -535.71879,-4327.935 -533.93276,-4326.4672 -533.46659,-4324.489 L -533.46659,-4322.4359 C -533.9322,-4320.4587 -535.71879,-4318.9898 -537.84136,-4318.9898 C -540.31756,-4318.9898 -542.32242,-4321.0001 -542.32242,-4323.4713 C -542.32298,-4325.9427 -540.31756,-4327.935 -537.84136,-4327.935 z "
               id="path14935"
               sodipodi:nodetypes="csscccccsccccccccccssc" />
            <path
               id="path14951"
               style="fill:#7a613e;fill-opacity:1;stroke:none;stroke-width:7;stroke-miterlimit:4;stroke-opacity:1"
               d="M -523.93159,-4332.5057 L -523.93159,-4328.0258 L -517.73825,-4328.0258 L -523.93159,-4316.6866 L -523.93159,-4314.4654 L -511.63513,-4314.4654 L -511.63513,-4318.9455 L -517.8851,-4318.9455 L -511.63513,-4330.589 L -511.63513,-4332.5057 L -523.93159,-4332.5057 z " />
          </g>
        </g>
        <path
           style="fill:#7a613e;fill-opacity:1;fill-rule:evenodd;stroke:none;stroke-width:0.32801417px;stroke-linecap:butt;stroke-linejoin:miter;stroke-opacity:1"
           d="M -745.38359,-4312.0102 L -655.1379,-4312.0102 L -659.51413,-4330.4614 L -722.79259,-4330.4614 L -722.79259,-4372.0951 L -709.90033,-4372.0951 L -709.90033,-4378.1273 L -722.79259,-4378.1273 L -722.79259,-4390.5464 L -728.70644,-4390.5464 L -728.70644,-4378.1273 L -741.83525,-4378.1273 L -741.83525,-4372.0951 L -728.70644,-4372.0951 L -728.70644,-4330.4614 L -741.36215,-4330.4614 L -745.38359,-4312.0102 z "
           id="path2170"
           sodipodi:nodetypes="ccccccccccccccccc" />
      </g>
    </g>
  </g>
</svg>
