<?xml version="1.0" encoding="UTF-8" standalone="no"?>
<!-- Created with Inkscape (http://www.inkscape.org/) -->
<svg
   xmlns:svg="http://www.w3.org/2000/svg"
   xmlns="http://www.w3.org/2000/svg"
   xmlns:sodipodi="http://sodipodi.sourceforge.net/DTD/sodipodi-0.dtd"
   xmlns:inkscape="http://www.inkscape.org/namespaces/inkscape"
   height="2908.1433"
   width="9428.1113"
   id="svg2"
   sodipodi:version="0.32"
   inkscape:version="0.45"
   version="1.0"
   sodipodi:docname="Znak E-11.svg"
   sodipodi:docbase="/home/szczepan/Desktop/znaki/nowe"
   inkscape:output_extension="org.inkscape.output.svg.inkscape"
   sodipodi:modified="true">
  <defs
     id="defs20" />
  <sodipodi:namedview
     id="base"
     pagecolor="#ffffff"
     bordercolor="#666666"
     borderopacity="1.0"
     inkscape:pageopacity="0.0"
     inkscape:pageshadow="2"
     inkscape:cx="3748.5731"
     inkscape:cy="1615.9023"
     inkscape:zoom="0.021875"
     inkscape:document-units="px"
     inkscape:current-layer="svg2"
     inkscape:window-width="1269"
     inkscape:window-height="945"
     inkscape:window-x="0"
     inkscape:window-y="25" />
  <g
     inkscape:groupmode="layer"
     inkscape:label="Warstwa 1"
     id="layer1"
     transform="translate(6092.4359,1192.1524)">
    <g
       transform="matrix(24.013571,0,0,24.014023,-179388.55,-36445.722)"
       id="g6661"
       style="opacity:0.81720007">
      <g
         transform="translate(233.80814,7.8125)"
         id="g6663" />
    </g>
    <g
       id="g14845"
       transform="matrix(5.7939712e-2,0,0,5.7939712e-2,-6294.6411,-2942.1836)" />
    <g
       id="g12875"
       transform="matrix(2.4482443,0,0,2.4482443,-11994.867,4258.5829)">
      <g
         style="fill:#7a613e;fill-opacity:1"
         id="g25274"
         transform="matrix(0.330078,0,0,0.330078,-20277.244,-4571.5291)">
        <g
           id="g25315"
           transform="translate(23025,3425)">
          <path
             sodipodi:nodetypes="cccccc"
             id="path6670"
             style="fill:#ffffff;fill-opacity:1;stroke:none;stroke-width:150;stroke-miterlimit:4;stroke-dashoffset:0;stroke-opacity:1"
             d="M 45810.108,3808.0377 L 55527.47,3808.0377 L 56869.783,5478.85 L 55527.47,7149.6482 L 45810.108,7149.6482 L 45810.108,3808.0377 z " />
          <path
             sodipodi:nodetypes="cccccccccccc"
             id="path6672"
             style="fill:#7a613e;fill-opacity:1;stroke:none;stroke-width:150;stroke-miterlimit:4;stroke-dasharray:none;stroke-dashoffset:0;stroke-opacity:1"
             d="M 45710.654,3679.8168 L 45710.654,7278.507 L 55564.692,7278.507 L 57377.497,5479.1903 L 55564.692,3679.8168 L 45710.654,3679.8168 z M 45881.962,3887.9666 L 55516.302,3887.9666 L 56651.955,5479.1903 L 55516.33,7070.3713 L 45881.962,7070.3713 L 45881.962,3887.9666 z " />
        </g>
      </g>
      <path
         sodipodi:nodetypes="ccccsccccsccc"
         id="path2170"
         d="M 2883.1675,-1252.7529 L 3114.1786,-1252.7529 L 3114.1786,-1276.5017 L 3051.0282,-1276.5017 C 3051.0282,-1276.5017 3051.0282,-1411.4382 3051.0282,-1411.4382 C 3350.0473,-1265.7068 3416.7059,-1685.6288 3182.1866,-1723.411 C 3369.2085,-1851.3307 3154.1198,-2024.8588 3066.6809,-1951.1836 C 3160.0572,-2106.3604 2887.4856,-2181.9248 2912.3138,-1985.7273 C 2837.2889,-2017.3024 2649.4578,-1871.0314 2803.2851,-1723.411 C 2486.4546,-1606.0163 2705.3213,-1220.3683 2949.0164,-1356.3841 C 2949.0164,-1356.3841 2949.0164,-1276.5017 2949.0164,-1276.5017 L 2883.1675,-1276.5017 L 2883.1675,-1252.7529 z "
         style="fill:#7a613e;fill-opacity:1;fill-rule:evenodd;stroke:none;stroke-width:13.44168282;stroke-linecap:butt;stroke-linejoin:miter;stroke-miterlimit:4;stroke-dasharray:none;stroke-opacity:1" />
      <g
         style="fill:#7a613e;fill-opacity:1"
         id="g12830">
        <path
           id="path12817"
           style="fill:#7a613e;fill-opacity:1;stroke:none;stroke-width:7;stroke-miterlimit:4;stroke-opacity:1"
           d="M 5386.9543,-1743.8361 C 5339.2304,-1743.3717 5307.0613,-1712.5674 5307.0613,-1712.5674 C 5307.0613,-1712.5674 5269.8259,-1743.8361 5229.6456,-1743.8361 C 5186.973,-1743.8361 5155.8275,-1720.5315 5148.2098,-1714.2378 L 5148.2098,-1743.8361 L 5068.3834,-1743.8361 L 5068.3834,-1422.8561 L 5148.2098,-1422.8561 L 5148.2098,-1625.8406 C 5151.11,-1634.5301 5163.2227,-1663.3906 5196.6973,-1663.3906 C 5240.3565,-1663.3906 5247.0542,-1623.3018 5247.0542,-1623.3018 L 5248.3969,-1422.8561 L 5328.2229,-1422.8561 L 5328.4902,-1623.3018 C 5328.4902,-1623.3018 5337.3242,-1663.792 5380.1898,-1663.792 C 5414.9847,-1663.792 5429.2338,-1627.514 5430.5465,-1623.9698 L 5430.5465,-1422.8561 L 5510.3729,-1422.8561 L 5510.6398,-1623.3018 C 5507.7841,-1690.2816 5452.7469,-1742.7072 5386.9543,-1743.8361 z " />
        <path
           id="path12819"
           style="fill:#7a613e;fill-opacity:1;stroke:none;stroke-width:7;stroke-miterlimit:4;stroke-opacity:1"
           d="M 3814.3504,-1904.3261 C 3814.3504,-1904.3261 3812.5255,-1869.0309 3793.0101,-1849.093 C 3773.5023,-1829.155 3736.2968,-1824.5756 3736.2968,-1824.5756 L 3736.2968,-1743.207 L 3814.3504,-1743.207 L 3814.3504,-1422.8561 L 3895.7787,-1422.8561 L 3895.7787,-1904.3261 L 3814.3504,-1904.3261 z " />
        <path
           id="path12821"
           style="fill:#7a613e;fill-opacity:1;stroke:none;stroke-width:7;stroke-miterlimit:4;stroke-opacity:1"
           d="M 4166.4141,-1904.3076 C 4080.5874,-1901.6581 4012.1985,-1815.9854 4012.1985,-1710.0429 L 4012.1985,-1617.1198 C 4012.1985,-1509.4969 4082.7976,-1422.8561 4170.5236,-1422.8561 C 4258.2568,-1422.8561 4328.8484,-1509.4969 4328.8484,-1617.1198 L 4328.8484,-1710.0429 C 4328.8484,-1817.6668 4258.2568,-1904.3076 4170.5236,-1904.3076 C 4169.1513,-1904.3076 4167.7714,-1904.3497 4166.4141,-1904.3076 z M 4170.5236,-1824.3798 C 4214.0192,-1824.3798 4249.0443,-1766.4859 4249.0443,-1694.6235 L 4249.0443,-1632.6072 C 4249.0443,-1560.7454 4214.0192,-1502.8508 4170.5236,-1502.8508 C 4127.0351,-1502.8508 4092.0028,-1560.7454 4092.0028,-1632.6072 L 4092.0028,-1694.6235 C 4092.0028,-1766.4859 4127.0351,-1824.3798 4170.5236,-1824.3798 z " />
        <path
           id="path12824"
           style="fill:#7a613e;fill-opacity:1;stroke:none;stroke-width:7;stroke-miterlimit:4;stroke-opacity:1"
           d="M 4597.633,-1904.3076 C 4511.8062,-1901.6581 4443.4174,-1815.9854 4443.4174,-1710.0429 L 4443.4174,-1617.1198 C 4443.4174,-1509.4969 4514.0164,-1422.8561 4601.7423,-1422.8561 C 4689.4757,-1422.8561 4760.0673,-1509.4969 4760.0673,-1617.1198 L 4760.0673,-1710.0429 C 4760.0673,-1817.6668 4689.4757,-1904.3076 4601.7423,-1904.3076 C 4600.3702,-1904.3076 4598.9903,-1904.3497 4597.633,-1904.3076 z M 4601.7423,-1824.3798 C 4645.2381,-1824.3798 4680.2631,-1766.4859 4680.2631,-1694.6235 L 4680.2631,-1632.6072 C 4680.2631,-1560.7454 4645.2381,-1502.8508 4601.7423,-1502.8508 C 4558.254,-1502.8508 4523.2215,-1560.7454 4523.2215,-1632.6072 L 4523.2215,-1694.6235 C 4523.2215,-1766.4859 4558.254,-1824.3798 4601.7423,-1824.3798 z " />
      </g>
    </g>
  </g>
</svg>
