<?xml version="1.0" encoding="UTF-8" standalone="no"?>
<!-- Created with Inkscape (http://www.inkscape.org/) -->

<svg
   xmlns:svg="http://www.w3.org/2000/svg"
   xmlns="http://www.w3.org/2000/svg"
   version="1.1"
   width="3657.3694"
   height="1881.2443"
   id="svg2">
  <defs
     id="defs4" />
  <g
     transform="translate(-81.170097,1638.9144)"
     id="layer1">
    <rect
       width="3610.947"
       height="1834.8219"
       rx="87.239258"
       ry="87.239258"
       x="104.38128"
       y="-1615.7032"
       id="rect3945"
       style="fill:#ffffff;fill-opacity:1;stroke:#2c5c32;stroke-width:46.42236328;stroke-miterlimit:4;stroke-opacity:1;stroke-dasharray:none" />
    <rect
       width="3428.1589"
       height="1657.8365"
       rx="0"
       ry="0"
       x="191.42319"
       y="-1528.6613"
       id="rect3947"
       style="fill:#2c5c32;fill-opacity:1;stroke:none" />
    <g
       transform="matrix(11.60559,0,0,11.60559,-860.85677,-2570.0507)"
       id="text3949"
       style="font-size:66.4366684px;font-style:normal;font-variant:normal;font-weight:bold;font-stretch:normal;text-align:start;line-height:125%;writing-mode:lr-tb;text-anchor:start;fill:#0000ff;fill-opacity:1;stroke:none;font-family:Drogowskaz;-inkscape-font-specification:Drogowskaz Bold">
      <path
         d="m 142.39754,165.4689 -15.15546,0 0,20.76146 -8.30458,0 0,-49.8275 23.46004,0 c 2.3532,1.5923 4.22187,3.66845 5.606,6.22844 1.38406,2.56008 2.07611,5.32827 2.07615,8.30458 -4e-5,2.97638 -0.69209,5.74458 -2.07615,8.30459 -1.38413,2.56006 -3.2528,4.6362 -5.606,6.22843 z m -3.01082,-8.30458 c 1.59223,-1.79903 2.38835,-3.87517 2.38838,-6.22844 -3e-5,-2.3532 -0.79615,-4.42934 -2.38838,-6.22844 l -12.14464,0 0,12.45688 z"
         id="path3954"
         style="fill:#ffffff" />
      <path
         d="m 156.30812,153.01203 8.30459,0 0,33.21833 -8.30459,0 z m 0,-16.60917 8.30459,0 0,8.30458 -8.30459,0 z"
         id="path3956"
         style="fill:#ffffff" />
      <path
         d="m 179.66476,181.35223 c -3.25209,-3.25343 -4.87813,-7.16377 -4.87813,-11.73104 0,-4.56722 1.62604,-8.47723 4.87813,-11.73002 3.25208,-3.25273 7.16242,-4.87911 11.73104,-4.87914 2.97497,3e-5 5.74317,0.76101 8.30458,2.28295 l 0,-2.28295 8.30459,0 0,24.91375 2.07614,8.30458 -8.30458,0 -0.72787,-3.11422 c -2.90609,2.07615 -6.12371,3.11422 -9.65286,3.11422 -4.56862,0 -8.47896,-1.62604 -11.73104,-4.87813 z m 5.86552,-17.69995 c -1.62605,1.62606 -2.43908,3.6157 -2.43906,5.96891 -2e-5,2.35325 0.81301,4.34289 2.43906,5.96892 1.62603,1.62606 3.58086,2.43908 5.86451,2.43907 2.2836,1e-5 4.23877,-0.81301 5.86551,-2.43907 1.6267,-1.62603 2.44005,-3.61567 2.44008,-5.96892 -3e-5,-2.35321 -0.81338,-4.34285 -2.44008,-5.96891 -1.62674,-1.62602 -3.58191,-2.43905 -5.86551,-2.43907 -2.28365,2e-5 -4.23848,0.81305 -5.86451,2.43907 z"
         id="path3958"
         style="fill:#ffffff" />
      <path
         d="m 229.28986,153.01203 c 2.69924,3e-5 5.12141,0.27712 7.26651,0.83127 l 0,7.47331 c -2.35325,-0.69202 -4.77542,-1.03805 -7.26651,-1.03807 -0.55419,2e-5 -1.03876,0.2075 -1.45371,0.62244 -0.41497,0.41498 -0.62245,0.89955 -0.62243,1.4537 -2e-5,0.82994 0.34601,1.41792 1.03807,1.76392 l 6.33184,3.84208 c 1.59223,0.89887 2.83812,2.14442 3.73767,3.73666 0.8995,1.59227 1.34926,3.32239 1.34929,5.19037 -3e-5,2.83713 -1.00363,5.27653 -3.01082,7.31821 -2.00723,2.04168 -4.46386,3.06251 -7.36991,3.06251 -4.56726,0 -8.78848,-0.79612 -12.66368,-2.38837 l 2.28295,-6.95428 c 3.32237,1.3841 6.78261,2.07615 10.38073,2.07614 0.90019,10e-6 1.64427,-0.29397 2.23226,-0.88195 0.58796,-0.58797 0.88194,-1.33205 0.88196,-2.23226 -2e-5,-1.24622 -0.51906,-2.14575 -1.55711,-2.69859 l -6.74747,-3.94549 c -2.90608,-1.9369 -4.35911,-4.56655 -4.3591,-7.88895 -1e-5,-2.63029 0.96879,-4.84498 2.9064,-6.64407 1.93759,-1.79902 4.15194,-2.69855 6.64306,-2.69858 z"
         id="path3960"
         style="fill:#ffffff" />
      <path
         d="m 251.87746,144.70744 8.30458,-8.30458 0,16.60917 6.22844,0 0,8.30458 -6.22844,0 0,12.45688 c -10e-6,1.17595 0.39805,2.16198 1.19419,2.9581 0.79611,0.79613 1.78214,1.1942 2.9581,1.19419 l 4.3591,0 -4.3591,8.30458 c -3.46026,0 -6.40146,-1.21108 -8.82362,-3.63325 -2.42217,-2.42217 -3.63326,-5.36337 -3.63325,-8.82362 l 0,-12.45688 -6.22844,0 0,-8.30458 6.22844,0 z"
         id="path3962"
         style="fill:#ffffff" />
      <path
         d="m 296.14436,136.40286 8.30458,0 -12.45687,12.45688 z m -16.60917,45.67521 c -3.46025,-3.46024 -5.19037,-7.61252 -5.19036,-12.45688 -10e-6,-4.84431 1.73011,-8.9966 5.19036,-12.45687 3.46023,-3.46021 7.61252,-5.19033 12.45688,-5.19037 4.84431,4e-5 8.9966,1.73016 12.45687,5.19037 3.46021,3.46027 5.19033,7.61256 5.19037,12.45687 -4e-5,4.84436 -1.73016,8.99664 -5.19037,12.45688 -3.46027,3.46024 -7.61256,5.19036 -12.45687,5.19036 -4.84436,0 -8.99665,-1.73012 -12.45688,-5.19036 z m 5.86552,-19.04823 c -1.83421,1.83422 -2.75131,4.03133 -2.7513,6.59135 -10e-6,2.56006 0.91709,4.75718 2.7513,6.59136 1.83418,1.83421 4.0313,2.75131 6.59136,2.7513 2.56001,1e-5 4.75713,-0.91709 6.59135,-2.7513 1.83417,-1.83418 2.75127,-4.0313 2.7513,-6.59136 -3e-5,-2.56002 -0.91713,-4.75713 -2.7513,-6.59135 -1.83422,-1.83418 -4.03134,-2.75128 -6.59135,-2.7513 -2.56006,2e-5 -4.75718,0.91712 -6.59136,2.7513 z"
         id="path3964"
         style="fill:#ffffff" />
      <path
         d="m 315.11774,153.01203 8.30458,0 4.56793,18.47851 5.8128,-18.47851 8.30459,0 5.8128,18.47851 4.56793,-18.47851 8.30458,0 -8.30458,33.21833 -8.30459,0 -6.22843,-19.93019 -6.22844,19.93019 -8.30459,0 z"
         id="path3966"
         style="fill:#ffffff" />
    </g>
  </g>
</svg>
