<?xml version="1.0" encoding="UTF-8" standalone="no"?>
<!-- Created with Inkscape (http://www.inkscape.org/) -->

<svg
   xmlns:dc="http://purl.org/dc/elements/1.1/"
   xmlns:cc="http://creativecommons.org/ns#"
   xmlns:rdf="http://www.w3.org/1999/02/22-rdf-syntax-ns#"
   xmlns:svg="http://www.w3.org/2000/svg"
   xmlns="http://www.w3.org/2000/svg"
   xmlns:sodipodi="http://sodipodi.sourceforge.net/DTD/sodipodi-0.dtd"
   xmlns:inkscape="http://www.inkscape.org/namespaces/inkscape"
   version="1.1"
   width="2212.9963"
   height="999.94104"
   id="svg2"
   sodipodi:docname="Znak_E-1a.svg"
   inkscape:version="0.92.2 (5c3e80d, 2017-08-06)">
  <metadata
     id="metadata80">
    <rdf:RDF>
      <cc:Work
         rdf:about="">
        <dc:format>image/svg+xml</dc:format>
        <dc:type
           rdf:resource="http://purl.org/dc/dcmitype/StillImage" />
      </cc:Work>
    </rdf:RDF>
  </metadata>
  <sodipodi:namedview
     pagecolor="#ffffff"
     bordercolor="#666666"
     borderopacity="1"
     objecttolerance="10"
     gridtolerance="10"
     guidetolerance="10"
     inkscape:pageopacity="0"
     inkscape:pageshadow="2"
     inkscape:window-width="1920"
     inkscape:window-height="1018"
     id="namedview78"
     showgrid="false"
     inkscape:zoom="0.15499348"
     inkscape:cx="507.89073"
     inkscape:cy="891.16458"
     inkscape:window-x="-8"
     inkscape:window-y="-8"
     inkscape:window-maximized="1"
     inkscape:current-layer="svg2" />
  <defs
     id="defs4">
    <marker
       refX="0"
       refY="0"
       orient="auto"
       id="Arrow2Lstart"
       style="overflow:visible">
      <path
         d="M 8.7185878,4.0337352 -2.2072895,0.01601326 8.7185884,-4.0017078 c -1.7454984,2.3720609 -1.7354408,5.6174519 -6e-7,8.035443 z"
         transform="matrix(1.1,0,0,1.1,1.1,0)"
         id="path5785"
         style="font-size:12px;fill-rule:evenodd;stroke-width:0.625;stroke-linejoin:round" />
    </marker>
    <pattern
       patternUnits="userSpaceOnUse"
       width="370"
       height="476"
       patternTransform="translate(18.50938,18)"
       id="pattern4002">
      <rect
         ry="20"
         rx="20"
         y="0"
         x="0"
         height="476"
         width="370"
         id="rect2240"
         style="fill:#00e5ff;fill-opacity:1" />
    </pattern>
    <pattern
       id="pattern5932"
       patternTransform="translate(18.50938,18)"
       height="476"
       width="370"
       patternUnits="userSpaceOnUse">
      <rect
         style="fill:#00e5ff;fill-opacity:1"
         id="rect5934"
         width="370"
         height="476"
         x="0"
         y="0"
         rx="20"
         ry="20" />
    </pattern>
    <pattern
       id="pattern5932-2"
       patternTransform="translate(18.50938,18)"
       height="476"
       width="370"
       patternUnits="userSpaceOnUse">
      <rect
         style="fill:#00e5ff;fill-opacity:1"
         id="rect5934-4"
         width="370"
         height="476"
         x="0"
         y="0"
         rx="20"
         ry="20" />
    </pattern>
    <pattern
       patternUnits="userSpaceOnUse"
       width="370"
       height="476"
       patternTransform="translate(18.50938,18)"
       id="pattern4002-8">
      <rect
         ry="20"
         rx="20"
         y="0"
         x="0"
         height="476"
         width="370"
         id="rect2240-8"
         style="fill:#00e5ff;fill-opacity:1" />
    </pattern>
    <marker
       refX="0"
       refY="0"
       orient="auto"
       id="Arrow2Lstart-9"
       style="overflow:visible">
      <path
         d="M 8.7185878,4.0337352 -2.2072895,0.01601326 8.7185884,-4.0017078 c -1.7454984,2.3720609 -1.7354408,5.6174519 -6e-7,8.035443 z"
         transform="matrix(1.1,0,0,1.1,1.1,0)"
         id="path5785-4"
         style="font-size:12px;fill-rule:evenodd;stroke-width:0.625;stroke-linejoin:round" />
    </marker>
  </defs>
  <g
     transform="translate(4362.25,1242.474)"
     id="layer1">
    <rect
       width="2210.7698"
       height="997.71454"
       rx="26.731678"
       ry="26.731678"
       x="-4361.1367"
       y="-1241.3607"
       id="rect9268"
       style="fill:#ffffff;stroke:#003399;stroke-width:2.22652006;stroke-opacity:1" />
    <path
       d="m -4324.9424,-1232.4547 2138.9374,0 c 19.2646,0 26.7319,7.4612 26.7319,26.7318 0,0 0,115.8962 0,178.3708 0,8.5279 -0.7864,30.30692 -13.7757,30.30692 -10.7496,0 -1285.8911,-0.19037 -1665.9431,-0.19037 -21.6792,0 -43.1192,-1.67753 -43.1192,31.39397 0,29.97037 2.9427,369.84206 2.9427,388.12858 0,11.24718 1.0342,25.87312 18.2672,25.87312 8.4197,0 1665.8659,-0.067 1674.0762,-0.067 18.7166,0 27.5519,3.73289 27.5519,23.33651 0,36.99648 0,105.67592 0,105.67592 0,17.56894 -10.1572,23.39189 -23.9767,23.39189 0,0 -383.2984,0.11088 -542.3244,0.11088 -33.3301,0 -30.4589,29.70385 -30.4589,36.66496 0,37.28263 0.1693,77.35084 0.1693,86.79609 0,9.30613 -3.6352,23.10015 -16.0946,23.10015 -519.5169,0 -1552.9844,0 -1552.9844,0 -17.5689,0 -26.7317,-3.65343 -26.7317,-26.73167 l 0,-926.16065 c 0,-23.1656 9.6936,-26.7318 26.7317,-26.7318 l 4e-4,0 0,0 0,-10e-5 z"
       id="rect9920"
       style="fill:#003399;fill-opacity:1;stroke:none" />
    <rect
       width="268.13086"
       height="154.97668"
       rx="21.722008"
       ry="21.722008"
       x="-4309.9268"
       y="-1185.6978"
       id="rect9792"
       style="fill:#d40000;fill-opacity:1;stroke:#ffffff;stroke-width:6.67956066;stroke-miterlimit:4;stroke-opacity:1;stroke-dasharray:none" />
    <g
       transform="matrix(2.2265201,0,0,2.2265201,5350.3874,297.47151)"
       id="text9798"
       style="font-size:56px;font-style:normal;font-variant:normal;font-weight:bold;font-stretch:normal;text-align:start;line-height:125%;writing-mode:lr-tb;text-anchor:start;fill:#ffffff;fill-opacity:1;stroke:none;font-family:Drogowskaz;-inkscape-font-specification:Drogowskaz Bold">
      <path
         d="m -4304.1016,-627.63782 9.2747,0 -4.6365,-14 z m -5.8618,17.5 -7,0 14,-42 7,0 14,42 -7,0 -3.5,-10.5 -14,0 z"
         id="path9812" />
      <path
         d="m -4253.0547,-652.13782 7,0 0,24.5 5.25,0 -1.75,7 -3.5,0 0,10.5 -7,0 0,-10.5 -17.5,0 0,-7 z m 0,24.5 0,-14.70068 -10.5,14.70068 z"
         id="path9814" />
    </g>
    <g
       transform="matrix(2.1832658,0,0,2.2706315,5350.3874,297.47151)"
       id="text9807"
       style="font-size:69.65342712px;font-style:normal;font-variant:normal;font-weight:bold;font-stretch:normal;text-align:start;line-height:125%;writing-mode:lr-tb;text-anchor:start;fill:#ffffff;fill-opacity:1;stroke:none;font-family:Drogowskaz;-inkscape-font-specification:Drogowskaz Bold">
      <path
         d="m -4263.6816,-655.10398 8.6552,0 8.6552,34.62079 8.6552,-34.62079 8.6552,0 8.6552,34.62079 8.6552,-34.62079 8.6552,0 -12.9828,51.93119 -8.6552,0 -8.6552,-34.6208 -8.6552,34.6208 -8.6552,0 z"
         id="path10484"
         style="font-size:69.24159241px;fill:#ffffff" />
      <path
         d="m -4196.6038,-637.79359 8.6552,0 0,1.83839 c 2.7413,-1.22556 5.6264,-1.83835 8.6552,-1.83839 l 0,8.6552 c -3.3176,3e-5 -6.2027,1.11785 -8.6552,3.35347 l 0,22.61213 -8.6552,0 z"
         id="path10486"
         style="font-size:69.24159241px;fill:#ffffff" />
      <path
         d="m -4167.3925,-607.50039 c -3.6064,-3.60633 -5.4096,-7.93392 -5.4095,-12.9828 -1e-4,-5.04884 1.8031,-9.37644 5.4095,-12.9828 3.6063,-3.6063 7.9339,-5.40946 12.9828,-5.4095 5.0488,4e-5 9.3764,1.8032 12.9827,5.4095 3.6063,3.60636 5.4095,7.93396 5.4095,12.9828 0,5.04888 -1.8032,9.37647 -5.4095,12.9828 -3.6063,3.60633 -7.9339,5.4095 -12.9827,5.4095 -5.0489,0 -9.3765,-1.80317 -12.9828,-5.4095 z m 6.1131,-19.85244 c -1.9116,1.91166 -2.8675,4.20154 -2.8674,6.86964 -10e-5,2.66814 0.9558,4.95802 2.8674,6.86964 1.9116,1.91165 4.2015,2.86747 6.8697,2.86746 2.668,10e-6 4.9579,-0.95581 6.8696,-2.86746 1.9116,-1.91162 2.8674,-4.2015 2.8675,-6.86964 -1e-4,-2.6681 -0.9559,-4.95798 -2.8675,-6.86964 -1.9117,-1.91161 -4.2016,-2.86743 -6.8696,-2.86746 -2.6682,3e-5 -4.9581,0.95585 -6.8697,2.86746 z"
         id="path10488"
         style="font-size:69.24159241px;fill:#ffffff" />
      <path
         d="m -4097.61,-606.09307 c -3.3176,2.66812 -7.1401,4.00218 -11.4677,4.00218 -5.1207,0 -9.4663,-1.80317 -13.0367,-5.4095 -3.5704,-3.60633 -5.3556,-7.95188 -5.3556,-13.03668 0,-5.08477 1.7852,-9.41236 5.3556,-12.9828 3.5704,-3.57038 7.916,-5.35558 13.0367,-5.35562 3.8218,4e-5 7.2838,1.08194 10.3858,3.2457 l -3.3535,8.43967 c -1.875,-2.02009 -4.2191,-3.03014 -7.0323,-3.03017 -2.6696,3e-5 -4.9598,0.93753 -6.8707,2.81252 -1.911,1.87503 -2.8664,4.16491 -2.8664,6.86964 0,2.70477 0.9554,5.01296 2.8664,6.92458 1.9109,1.91165 4.2011,2.86747 6.8707,2.86746 3.0287,10e-6 5.5172,-1.15374 7.4655,-3.46123 z"
         id="path10490"
         style="font-size:69.24159241px;fill:#ffffff" />
      <path
         d="m -4083.1396,-655.10398 8.6552,0 0,12.98279 8.6552,-4.3276 0,8.6552 -8.6552,4.3276 0,30.2932 -8.6552,0 0,-25.9656 -8.6552,4.3276 0,-8.6552 8.6552,-4.3276 z"
         id="path10492"
         style="font-size:69.24159241px;fill:#ffffff" />
      <path
         d="m -4056.633,-608.25687 c -3.3894,-3.39079 -5.0841,-7.46623 -5.0841,-12.22632 0,-4.76005 1.6947,-8.83514 5.0841,-12.22526 3.3893,-3.39006 7.4648,-5.0851 12.2263,-5.08514 3.1005,4e-5 5.9856,0.79315 8.6552,2.37934 l 0,-2.37934 8.6552,0 0,25.9656 2.1638,8.6552 -8.6552,0 -0.7586,-3.2457 c -3.0288,2.1638 -6.3823,3.2457 -10.0604,3.2457 -4.7615,0 -8.837,-1.69469 -12.2263,-5.08408 z m 6.1131,-18.44724 c -1.6947,1.69471 -2.542,3.76835 -2.542,6.22092 0,2.4526 0.8473,4.52624 2.542,6.22093 1.6947,1.6947 3.7321,2.54205 6.1121,2.54204 2.38,1e-5 4.4177,-0.84734 6.1132,-2.54204 1.6953,-1.69469 2.543,-3.76833 2.5431,-6.22093 -1e-4,-2.45257 -0.8478,-4.52621 -2.5431,-6.22092 -1.6955,-1.69467 -3.7332,-2.54202 -6.1132,-2.54205 -2.38,3e-5 -4.4174,0.84738 -6.1121,2.54205 z"
         id="path10494"
         style="font-size:69.24159241px;fill:#ffffff" />
      <path
         d="m -4018.4961,-637.79359 8.6552,0 4.7608,19.25867 6.0582,-19.25867 8.6552,0 6.0582,19.25867 4.7608,-19.25867 8.6552,0 -8.6552,34.6208 -8.6552,0 -6.4914,-20.77163 -6.4914,20.77163 -8.6552,0 z"
         id="path10496"
         style="font-size:69.24159241px;fill:#ffffff" />
    </g>
    <path
       d="m -4217.3599,-282.75787 0,-539.86288 -54.2801,52.77046 0,-61.00594 95.1354,-93.79599 96.0094,96.87718 0,59.00133 -56.5823,-55.00993 0,270.77243 c 63.5493,-138.63643 102.7639,-147.13673 156.0287,-183.9465 l -24.8277,-6.19338 35.2256,-18.73975 51.7665,15.1655 -11.3038,50.62893 -36.5268,22.70532 8.5964,-34.65561 c -143.8915,82.26969 -176.5203,244.25849 -176.5203,304.24217 l 0,121.06648 -32.02,0 0,-569.46817 -9.7554,-9.66078 -10.1168,10.01859 0,569.11036 -30.8288,-0.0201 0,2.2e-4 0,6e-5 z"
       id="path9816"
       style="fill:#ffffff;fill-opacity:1;stroke:none" />
    <g
       transform="matrix(0.87759858,0,0,0.87759858,-4536.6947,-992.59755)"
       id="g9818">
      <path
         d="m 639.42658,402.83411 a 77.781746,77.781746 0 1 1 -155.56349,0 77.781746,77.781746 0 1 1 155.56349,0 z"
         transform="matrix(0.94592287,0,0,0.94592287,27.550916,15.008927)"
         id="path9820"
         style="fill:#ffffff;fill-opacity:1;stroke:#d40000;stroke-width:19.02903557;stroke-linecap:round;stroke-linejoin:miter;stroke-miterlimit:4;stroke-opacity:1;stroke-dasharray:none" />
      <g
         id="g9822"
         style="font-size:98px;font-style:normal;font-variant:normal;font-weight:bold;font-stretch:normal;text-align:start;line-height:125%;writing-mode:lr-tb;text-anchor:start;fill:#000000;fill-opacity:1;stroke:none;font-family:Drogowskaz;-inkscape-font-specification:Drogowskaz Bold">
        <path
           d="m 525.48752,372.00504 -1.09253,13.12561 c 1.76999,-0.41703 3.54103,-0.62556 5.31311,-0.62561 6.87456,5e-5 12.75986,2.44806 17.65594,7.34405 4.89599,4.89608 7.344,10.78138 7.34406,17.65595 -6e-5,6.87461 -2.44807,12.75992 -7.34406,17.65594 -4.89608,4.89604 -10.78138,7.34406 -17.65594,7.34406 -1.25125,0 -2.55333,-0.10376 -3.90625,-0.31128 l -17.65747,-2.81372 0.93689,-12.5 18.59436,2.96936 c 0.72832,0.10377 1.40581,0.15565 2.03247,0.15564 3.43625,10e-6 6.37865,-1.19781 8.82721,-3.59345 2.44848,-2.39561 3.67275,-5.36446 3.67279,-8.90655 -4e-5,-3.54205 -1.22431,-6.5109 -3.67279,-8.90656 -2.44856,-2.39559 -5.39096,-3.59341 -8.82721,-3.59344 l -18.75,0 3.125,-37.5 37.5,0 0,12.5 z"
           id="path9824"
           style="font-size:100px" />
        <path
           d="m 580.33066,378.41068 c -2.08335,6.04253 -3.12502,12.24064 -3.125,18.59436 -2e-5,6.35379 1.04165,12.5519 3.125,18.59436 0.62661,1.87379 1.79899,3.40984 3.51715,4.60815 1.71811,1.19834 3.67124,1.7975 5.85937,1.79749 2.18808,10e-6 4.14121,-0.59915 5.85938,-1.79749 1.7181,-1.19831 2.88947,-2.73436 3.5141,-4.60815 2.08329,-6.04246 3.12496,-12.24057 3.125,-18.59436 -4e-5,-6.35372 -1.04171,-12.55183 -3.125,-18.59436 -0.62463,-1.87373 -1.796,-3.40978 -3.5141,-4.60816 -1.71817,-1.19826 -3.6713,-1.79742 -5.85938,-1.79748 -2.18813,6e-5 -4.14126,0.59922 -5.85937,1.79748 -1.71816,1.19838 -2.89054,2.73443 -3.51715,4.60816 z m -11.24878,41.72058 c -2.91749,-8.43911 -4.37623,-16.14784 -4.37622,-23.12622 -10e-6,-6.97831 1.45873,-14.68705 4.37622,-23.12623 1.56249,-4.27036 4.21853,-7.73359 7.96814,-10.3897 3.74957,-2.65598 7.96811,-3.984 12.65564,-3.98407 4.68746,7e-5 8.90652,1.32809 12.65716,3.98407 3.75057,2.65611 6.40712,6.11934 7.96967,10.3897 2.91539,8.43918 4.37311,16.14792 4.37317,23.12623 -6e-5,6.97838 -1.45778,14.68711 -4.37317,23.12622 -1.56255,4.27043 -4.2191,7.73367 -7.96967,10.38971 -3.75064,2.65604 -7.9697,3.98407 -12.65716,3.98407 -4.68753,0 -8.90607,-1.32803 -12.65564,-3.98407 -3.74961,-2.65604 -6.40565,-6.11928 -7.96814,-10.38971 z"
           id="path9826"
           style="font-size:100px" />
      </g>
    </g>
    <rect
       width="1714.7202"
       height="430.26648"
       rx="19.950821"
       ry="19.950821"
       x="-3873.8311"
       y="-989.7074"
       id="rect9830"
       style="fill:#2c5c32;fill-opacity:1;stroke:none" />
    <rect
       width="351.96939"
       height="153.79599"
       rx="3.8133504"
       ry="3.8133504"
       x="-3844.6948"
       y="-853.89557"
       id="rect9828"
       style="fill:#febe0b;fill-opacity:1;stroke:#000000;stroke-width:6.67956066;stroke-miterlimit:4;stroke-opacity:1;stroke-dasharray:none" />
    <g
       transform="matrix(2.1832657,0,0,2.2706315,5350.3874,297.47151)"
       id="text9832"
       style="font-size:69.65342712px;font-style:normal;font-variant:normal;font-weight:bold;font-stretch:normal;text-align:start;line-height:125%;writing-mode:lr-tb;text-anchor:start;fill:#ffffff;fill-opacity:1;stroke:none;font-family:Drogowskaz;-inkscape-font-specification:Drogowskaz Bold">
      <path
         d="m -4033.6443,-549.71177 8.6552,0 0,21.42246 18.8254,-21.42246 11.4678,0 -20.2307,23.04531 20.2307,28.88588 -10.6035,0 -15.4699,-22.17895 -4.2198,4.86855 0,17.3104 -8.6552,0 z"
         id="path9837"
         style="font-size:69.24159241px;fill:#ffffff" />
      <path
         d="m -3958.8031,-485.98745 -4.112,5.51727 c -2.8851,-2.16382 -4.3277,-5.04888 -4.3276,-8.6552 -1e-4,-3.60634 1.4425,-6.4914 4.3276,-8.6552 -0.865,1.15375 -1.2975,2.59628 -1.2975,4.3276 0,1.73132 0.5047,3.28197 1.5141,4.65196 1.0093,1.36997 2.3078,2.30783 3.8954,2.81357 z m -3.5711,-32.34923 c -0.6494,-1.87499 -1.8215,-3.42564 -3.5162,-4.65195 -1.6947,-1.22627 -3.588,-1.83942 -5.6799,-1.83945 -2.092,3e-5 -3.9853,0.61318 -5.68,1.83945 -1.6947,1.22631 -2.8668,2.77696 -3.5162,4.65195 z m -18.3923,6.4914 c 0.7213,1.94687 1.9113,3.51548 3.5701,4.70584 1.6587,1.19038 3.5341,1.78557 5.6261,1.78556 l 12.9828,-1.0819 -4.3276,8.6552 -5.8427,0.86637 c -1.1538,0.14369 -2.0913,0.21553 -2.8125,0.21553 -5.0489,0 -9.3765,-1.80316 -12.9828,-5.4095 -3.6064,-3.60632 -5.4095,-7.93392 -5.4095,-12.9828 0,-5.04884 1.8031,-9.37644 5.4095,-12.9828 3.6063,-3.60629 7.9339,-5.40946 12.9828,-5.40949 6.4195,3e-5 11.4684,2.66886 15.1466,8.00648 l 0,13.63151 z"
         id="path9839"
         style="font-size:69.24159241px;fill:#ffffff" />
      <path
         d="m -3942.9,-502.86466 c -3.3894,-3.39079 -5.0841,-7.46623 -5.0841,-12.22632 0,-4.76005 1.6947,-8.83513 5.0841,-12.22525 3.3894,-3.39006 7.4648,-5.08511 12.2263,-5.08514 3.1006,3e-5 5.9857,0.79314 8.6552,2.37933 l 0,-19.68973 8.6552,0 0,51.93119 -8.6552,0 0,-2.37933 c -2.6695,1.58622 -5.5546,2.37933 -8.6552,2.37933 -4.7615,0 -8.8369,-1.69469 -12.2263,-5.08408 z m 6.1132,-18.44724 c -1.6947,1.69472 -2.5421,3.76835 -2.5421,6.22092 0,2.45261 0.8474,4.52625 2.5421,6.22093 1.6946,1.6947 3.732,2.54205 6.1121,2.54204 2.38,1e-5 4.4177,-0.84734 6.1131,-2.54204 1.6954,-1.69468 2.5431,-3.76832 2.5431,-6.22093 0,-2.45257 -0.8477,-4.5262 -2.5431,-6.22092 -1.6954,-1.69467 -3.7331,-2.54202 -6.1131,-2.54204 -2.3801,2e-5 -4.4175,0.84737 -6.1121,2.54204 z"
         id="path9841"
         style="font-size:69.24159241px;fill:#ffffff" />
      <path
         d="m -3879.1228,-506.43578 0,8.6552 -23.8018,0 0,-4.00218 11.9009,-21.96342 -11.9009,0 0,-8.65519 23.8018,0 0,4.00218 -11.9009,21.96341 z"
         id="path9843"
         style="font-size:69.24159241px;fill:#ffffff" />
      <path
         d="m -3868.9701,-532.40137 8.6552,0 0,34.62079 -8.6552,0 z m 0,-17.3104 8.6552,0 0,8.6552 -8.6552,0 z"
         id="path9845"
         style="font-size:69.24159241px;fill:#ffffff" />
      <path
         d="m -3822.268,-518.33668 c -0.6495,-1.87499 -1.8216,-3.42564 -3.5162,-4.65195 -1.6947,-1.22627 -3.5881,-1.83942 -5.68,-1.83945 -2.092,3e-5 -3.9853,0.61318 -5.68,1.83945 -1.6947,1.22631 -2.8667,2.77696 -3.5161,4.65195 z m -18.3923,6.4914 c 0.7212,1.94687 1.9112,3.51548 3.57,4.70584 1.6588,1.19038 3.5341,1.78557 5.6261,1.78556 3.75,1e-5 8.0776,-0.36062 12.9828,-1.0819 l -4.3276,8.6552 -5.8427,0.86637 c -1.1537,0.14369 -2.0913,0.21553 -2.8125,0.21553 -5.0489,0 -9.3765,-1.80316 -12.9828,-5.4095 -3.6063,-3.60632 -5.4095,-7.93392 -5.4095,-12.9828 0,-5.04884 1.8032,-9.37644 5.4095,-12.9828 3.6063,-3.60629 7.9339,-5.40946 12.9828,-5.40949 6.4195,3e-5 11.4684,2.66886 15.1466,8.00648 l 0,13.63151 z"
         id="path9847"
         style="font-size:69.24159241px;fill:#ffffff" />
      <path
         d="m -3805.8592,-532.40137 8.6552,0 0,1.83838 c 2.7414,-1.22556 5.6264,-1.83835 8.6552,-1.83838 l 0,8.65519 c -3.3176,3e-5 -6.2026,1.11785 -8.6552,3.35347 l 0,22.61213 -8.6552,0 z"
         id="path9849"
         style="font-size:69.24159241px;fill:#ffffff" />
      <path
         d="m -3758.2204,-506.43578 0,8.6552 -23.8018,0 0,-4.00218 11.9009,-21.96342 -11.9009,0 0,-8.65519 23.8018,0 0,4.00218 -11.9009,21.96341 z"
         id="path9851"
         style="font-size:69.24159241px;fill:#ffffff" />
      <path
         d="m -3752.0347,-532.40137 8.6552,0 6.4914,20.77163 6.4914,-20.77163 8.6552,0 -16.2285,51.93119 -8.6552,0 5.4095,-17.3104 z"
         id="path9853"
         style="font-size:69.24159241px;fill:#ffffff" />
      <path
         d="m -3713.4469,-532.40137 8.6552,0 0,3.35346 c 2.4526,-2.23561 5.3376,-3.35343 8.6552,-3.35346 3.5345,3e-5 6.5819,1.26225 9.1423,3.78664 2.5603,2.52447 3.8405,5.58985 3.8405,9.19615 l 0,21.638 -8.6552,0 0,-19.4742 c 0,-1.80314 -0.6311,-3.33583 -1.8933,-4.59807 -1.2623,-1.26219 -2.7949,-1.8933 -4.5981,-1.89333 -1.8032,3e-5 -3.3359,0.63114 -4.5981,1.89333 -1.2622,1.26224 -1.8933,2.79493 -1.8933,4.59807 l 0,19.4742 -8.6552,0 z"
         id="path9855"
         style="font-size:69.24159241px;fill:#ffffff" />
      <path
         d="m -3672.4471,-523.05872 0,-8.6552 27.5085,0 0,8.6552 -27.5085,0 z"
         id="path9857"
         style="font-size:69.24159241px;fill:#ffffff" />
      <path
         d="m -3630.6813,-549.71177 8.6552,0 0,21.42246 18.8255,-21.42246 11.4677,0 -20.2307,23.04531 20.2307,28.88588 -10.6035,0 -15.4699,-22.17895 -4.2198,4.86855 0,17.3104 -8.6552,0 z"
         id="path9859"
         style="font-size:69.24159241px;fill:#ffffff" />
      <path
         d="m -3581.5897,-502.10818 c -3.6063,-3.60632 -5.4095,-7.93392 -5.4095,-12.9828 0,-5.04884 1.8032,-9.37644 5.4095,-12.9828 3.6063,-3.60629 7.9339,-5.40946 12.9828,-5.40949 5.0489,3e-5 9.3764,1.8032 12.9828,5.40949 3.6063,3.60636 5.4095,7.93396 5.4095,12.9828 0,5.04888 -1.8032,9.37648 -5.4095,12.9828 -3.6064,3.60634 -7.9339,5.4095 -12.9828,5.4095 -5.0489,0 -9.3765,-1.80316 -12.9828,-5.4095 z m 6.1132,-19.85244 c -1.9117,1.91166 -2.8675,4.20154 -2.8675,6.86964 0,2.66814 0.9558,4.95802 2.8675,6.86964 1.9116,1.91165 4.2015,2.86747 6.8696,2.86746 2.6681,1e-5 4.958,-0.95581 6.8697,-2.86746 1.9116,-1.91162 2.8674,-4.2015 2.8674,-6.86964 0,-2.6681 -0.9558,-4.95798 -2.8674,-6.86964 -1.9117,-1.91161 -4.2016,-2.86743 -6.8697,-2.86746 -2.6681,3e-5 -4.958,0.95585 -6.8696,2.86746 z"
         id="path9861"
         style="font-size:69.24159241px;fill:#ffffff" />
      <path
         d="m -3527.3869,-549.71177 8.6552,0 -12.9828,12.9828 z m 9.3039,43.27599 0,8.6552 -23.8018,0 0,-4.00218 11.9009,-21.96342 -11.9009,0 0,-8.65519 23.8018,0 0,4.00218 -11.9009,21.96341 z"
         id="path9863"
         style="font-size:69.24159241px;fill:#ffffff" />
      <path
         d="m -3507.2091,-549.71177 8.6552,0 0,51.93119 -8.6552,0 z"
         id="path9865"
         style="font-size:69.24159241px;fill:#ffffff" />
      <path
         d="m -3460.4003,-518.33668 c -0.6494,-1.87499 -1.8215,-3.42564 -3.5161,-4.65195 -1.6947,-1.22627 -3.5881,-1.83942 -5.68,-1.83945 -2.092,3e-5 -3.9853,0.61318 -5.68,1.83945 -1.6947,1.22631 -2.8667,2.77696 -3.5162,4.65195 z m -18.3923,6.4914 c 0.7213,1.94687 1.9113,3.51548 3.5701,4.70584 1.6588,1.19038 3.5341,1.78557 5.6261,1.78556 3.75,1e-5 8.0776,-0.36062 12.9828,-1.0819 l -4.3276,8.6552 -5.8427,0.86637 c -1.1538,0.14369 -2.0913,0.21553 -2.8125,0.21553 -5.0489,0 -9.3765,-1.80316 -12.9828,-5.4095 -3.6063,-3.60632 -5.4095,-7.93392 -5.4095,-12.9828 0,-5.04884 1.8032,-9.37644 5.4095,-12.9828 3.6063,-3.60629 7.9339,-5.40946 12.9828,-5.40949 6.4195,3e-5 11.4684,2.66886 15.1466,8.00648 l 0,13.63151 z"
         id="path9867"
         style="font-size:69.24159241px;fill:#ffffff" />
    </g>
    <g
       transform="matrix(2.1832657,0,0,2.2706315,5350.3874,297.47151)"
       id="text9869"
       style="font-size:69.65342712px;font-style:normal;font-variant:normal;font-weight:bold;font-stretch:normal;text-align:start;line-height:125%;writing-mode:lr-tb;text-anchor:start;fill:#ffffff;fill-opacity:1;stroke:none;font-family:Drogowskaz;-inkscape-font-specification:Drogowskaz Bold">
      <path
         d="m -4013.8064,-431.84961 -10.2781,-6.06033 c -2.1638,-1.22557 -3.8768,-2.92026 -5.139,-5.08409 -1.2622,-2.16376 -1.8933,-4.50788 -1.8933,-7.03235 0,-3.89508 1.3703,-7.21297 4.111,-9.95369 2.7406,-2.74062 6.0585,-4.11095 9.9537,-4.11101 4.9051,6e-5 9.7377,0.6854 14.4978,2.05604 l -2.8125,8.22201 c -3.8233,-1.08185 -7.7184,-1.6228 -11.6853,-1.62285 -1.5144,5e-5 -2.7946,0.52303 -3.8406,1.56897 -1.046,1.04602 -1.569,2.32619 -1.5689,3.84053 -10e-5,2.09199 0.9015,3.643 2.7047,4.65302 l 10.2781,6.05821 c 2.3074,1.29746 4.1465,3.11824 5.5172,5.46233 1.3707,2.34414 2.056,4.88688 2.0561,7.62824 -1e-4,4.18392 -1.4785,7.75433 -4.4354,10.71123 -2.957,2.95691 -6.5274,4.43537 -10.7112,4.43537 -6.4915,0 -12.7307,-1.11782 -18.7178,-3.35347 l 2.7048,-8.22202 c 5.1221,1.94687 10.4598,2.9203 16.013,2.92029 1.8031,1e-5 3.3358,-0.6311 4.598,-1.89333 1.2622,-1.2622 1.8933,-2.79489 1.8934,-4.59807 -1e-4,-2.45257 -1.082,-4.32758 -3.2457,-5.62503 z"
         id="path9874"
         style="font-size:69.24159241px;fill:#ffffff" />
      <path
         d="m -3989.8692,-455.43588 8.6552,-8.6552 0,17.3104 6.4914,0 0,8.6552 -6.4914,0 0,12.9828 c 0,1.2256 0.4148,2.25326 1.2446,3.08299 0.8297,0.82975 1.8574,1.24462 3.083,1.24461 l 4.5431,0 -4.5431,8.6552 c -3.6064,0 -6.6717,-1.26222 -9.1962,-3.78665 -2.5244,-2.52443 -3.7866,-5.58981 -3.7866,-9.19615 l 0,-12.9828 -6.4914,0 0,-8.6552 6.4914,0 z"
         id="path9876"
         style="font-size:69.24159241px;fill:#ffffff" />
      <path
         d="m -3963.7684,-446.78068 8.6552,0 0,1.83839 c 2.7414,-1.22556 5.6265,-1.83835 8.6552,-1.83839 l 0,8.6552 c -3.3175,3e-5 -6.2026,1.11785 -8.6552,3.35347 l 0,22.61213 -8.6552,0 z"
         id="path9878"
         style="font-size:69.24159241px;fill:#ffffff" />
      <path
         d="m -3917.9326,-420.81508 0,8.6552 -23.8018,0 0,-4.00219 11.9009,-21.96341 -11.9009,0 0,-8.6552 23.8018,0 0,4.00219 -11.9009,21.96341 z"
         id="path9880"
         style="font-size:69.24159241px;fill:#ffffff" />
      <path
         d="m -3881.2734,-432.71598 c -0.6495,-1.87499 -1.8215,-3.42564 -3.5162,-4.65196 -1.6947,-1.22627 -3.588,-1.83941 -5.68,-1.83944 -2.0919,3e-5 -3.9853,0.61317 -5.6799,1.83944 -1.6947,1.22632 -2.8668,2.77697 -3.5162,4.65196 z m -18.3923,6.4914 c 0.7212,1.94687 1.9113,3.51548 3.57,4.70584 1.6588,1.19038 3.5342,1.78557 5.6261,1.78556 3.75,1e-5 8.0776,-0.36063 12.9828,-1.0819 l -4.3276,8.6552 -5.8426,0.86636 c -1.1538,0.14369 -2.0913,0.21554 -2.8126,0.21554 -5.0488,0 -9.3764,-1.80317 -12.9828,-5.4095 -3.6063,-3.60633 -5.4095,-7.93392 -5.4095,-12.9828 0,-5.04884 1.8032,-9.37644 5.4095,-12.9828 3.6064,-3.6063 7.934,-5.40946 12.9828,-5.4095 6.4196,4e-5 11.4684,2.66886 15.1466,8.00648 l 0,13.63152 z"
         id="path9882"
         style="font-size:69.24159241px;fill:#ffffff" />
      <path
         d="m -3865.2252,-464.09108 8.6552,0 0,51.9312 -8.6552,0 z"
         id="path9884"
         style="font-size:69.24159241px;fill:#ffffff" />
      <path
         d="m -3816.3593,-415.08017 c -3.3176,2.66813 -7.1402,4.00219 -11.4677,4.00219 -5.1208,0 -9.4663,-1.80317 -13.0367,-5.4095 -3.5704,-3.60633 -5.3556,-7.95188 -5.3556,-13.03668 0,-5.08477 1.7852,-9.41236 5.3556,-12.9828 3.5704,-3.57038 7.9159,-5.35558 13.0367,-5.35562 3.8218,4e-5 7.2837,1.08194 10.3858,3.2457 l -3.3535,8.43967 c -1.875,-2.02009 -4.2191,-3.03014 -7.0323,-3.03017 -2.6696,3e-5 -4.9598,0.93753 -6.8707,2.81252 -1.911,1.87503 -2.8665,4.16491 -2.8664,6.86964 -10e-5,2.70476 0.9554,5.01296 2.8664,6.92458 1.9109,1.91165 4.2011,2.86747 6.8707,2.86746 3.0287,1e-5 5.5172,-1.15374 7.4655,-3.46124 z"
         id="path9886"
         style="font-size:69.24159241px;fill:#ffffff" />
      <path
         d="m -3780.4313,-432.71598 c -0.6494,-1.87499 -1.8215,-3.42564 -3.5161,-4.65196 -1.6948,-1.22627 -3.5881,-1.83941 -5.68,-1.83944 -2.092,3e-5 -3.9853,0.61317 -5.68,1.83944 -1.6947,1.22632 -2.8668,2.77697 -3.5162,4.65196 z m -18.3923,6.4914 c 0.7213,1.94687 1.9113,3.51548 3.5701,4.70584 1.6588,1.19038 3.5341,1.78557 5.6261,1.78556 3.75,1e-5 8.0776,-0.36063 12.9828,-1.0819 l -4.3276,8.6552 -5.8427,0.86636 c -1.1538,0.14369 -2.0913,0.21554 -2.8125,0.21554 -5.0489,0 -9.3765,-1.80317 -12.9828,-5.4095 -3.6063,-3.60633 -5.4095,-7.93392 -5.4095,-12.9828 0,-5.04884 1.8032,-9.37644 5.4095,-12.9828 3.6063,-3.6063 7.9339,-5.40946 12.9828,-5.4095 6.4195,4e-5 11.4684,2.66886 15.1466,8.00648 l 0,13.63152 z"
         id="path9888"
         style="font-size:69.24159241px;fill:#ffffff" />
      <path
         d="m -3722.9486,-418.97458 c -5.2644,-5.2658 -7.8966,-11.64943 -7.8966,-19.1509 0,-7.50142 2.6325,-13.88469 7.8976,-19.14984 5.2651,-5.26505 11.6484,-7.8976 19.1499,-7.89766 7.5014,6e-5 13.8847,2.63261 19.1498,7.89766 5.2651,5.26515 7.8976,11.64842 7.8977,19.14984 -1e-4,7.50147 -2.6326,13.88475 -7.8977,19.14984 -5.2651,5.26511 -11.6484,7.89766 -19.1498,7.89766 -7.5015,0 -13.8851,-2.6322 -19.1509,-7.8966 z m 6.1681,-32.1337 c -3.6064,3.60637 -5.4095,7.93397 -5.4095,12.9828 0,5.04889 1.8031,9.37648 5.4095,12.9828 3.6063,3.60634 7.9339,5.40951 12.9828,5.4095 5.0488,1e-5 9.3764,-1.80316 12.9828,-5.4095 3.6063,-3.60632 5.4094,-7.93391 5.4095,-12.9828 -10e-5,-5.04883 -1.8032,-9.37643 -5.4095,-12.9828 -3.6064,-3.60629 -7.934,-5.40945 -12.9828,-5.4095 -5.0489,5e-5 -9.3765,1.80321 -12.9828,5.4095 z"
         id="path9890"
         style="font-size:69.24159241px;fill:#ffffff" />
      <path
         d="m -3656.8978,-435.6912 c -1.6947,1.69471 -2.542,3.76835 -2.542,6.22092 0,2.4526 0.8473,4.52624 2.542,6.22092 1.6947,1.69471 3.7324,2.54206 6.1132,2.54205 2.3807,1e-5 4.4184,-0.84734 6.1131,-2.54205 1.6947,-1.69468 2.542,-3.76832 2.5421,-6.22092 -1e-4,-2.45257 -0.8474,-4.52621 -2.5421,-6.22092 -1.6947,-1.69467 -3.7324,-2.54202 -6.1131,-2.54205 -2.3808,3e-5 -4.4185,0.84738 -6.1132,2.54205 z m -11.1972,-11.08948 8.6552,0 0,2.37934 c 2.6681,-1.58619 5.5531,-2.3793 8.6552,-2.37934 4.76,4e-5 8.8351,1.69508 12.2252,5.08514 3.3901,3.39012 5.0851,7.4652 5.0852,12.22526 -10e-5,4.76009 -1.6951,8.83517 -5.0852,12.22526 -3.3901,3.39009 -7.4652,5.08514 -12.2252,5.08514 -3.1021,0 -5.9871,-0.79311 -8.6552,-2.37934 l 0,19.68974 -8.6552,0 z"
         id="path9892"
         style="font-size:69.24159241px;fill:#ffffff" />
      <path
         d="m -3624.0076,-420.81508 8.6552,0 0,8.6552 -8.6552,0 z"
         id="path9894"
         style="font-size:69.24159241px;fill:#ffffff" />
    </g>
    <g
       transform="matrix(2.2848679,0,0,2.1696623,5350.3874,297.47151)"
       id="text9896"
       style="font-size:58.879776px;font-style:normal;font-variant:normal;font-weight:bold;font-stretch:normal;text-align:start;line-height:125%;writing-mode:lr-tb;text-anchor:start;fill:#000000;fill-opacity:1;stroke:none;font-family:Drogowskaz;-inkscape-font-specification:Drogowskaz Bold">
      <path
         d="m -3979.4934,-517.27927 7.25,0 0,25.375 5.4375,0 -1.8125,7.25 -3.625,0 0,10.875 -7.25,0 0,-10.875 -18.125,0 0,-7.25 z m 0,25.375 0,-15.2257 -10.875,15.2257 z"
         id="path9901"
         style="font-size:58px;fill:#000000" />
      <path
         d="m -3935.9934,-481.02927 0,7.25 -23.5625,0 0,-4.71179 17.0382,-22.83856 c 0.7245,-0.9664 1.0868,-2.05378 1.0868,-3.26215 0,-1.51038 -0.5287,-2.79423 -1.5859,-3.85156 -1.0574,-1.05725 -2.3412,-1.5859 -3.8516,-1.58594 -1.5104,4e-5 -2.7943,0.52869 -3.8516,1.58594 -1.0573,1.05733 -1.5859,2.34118 -1.5859,3.85156 l -7.25,0 c 0,-3.5046 1.2384,-6.49534 3.7153,-8.97223 2.4768,-2.4768 5.4675,-3.71522 8.9722,-3.71527 3.5046,5e-5 6.4953,1.23847 8.9722,3.71527 2.4768,2.47689 3.7153,5.46763 3.7153,8.97223 0,2.9005 -0.8762,5.4983 -2.6285,7.7934 l -11.7812,15.7691 z"
         id="path9903"
         style="font-size:58px;fill:#000000" />
      <path
         d="m -3907.4926,-493.44418 c -1.4195,-1.39004 -3.1261,-2.08506 -5.1197,-2.08509 -1.9937,3e-5 -3.7003,0.69476 -5.1198,2.0842 -1.4196,1.38949 -2.1294,3.11142 -2.1294,5.1658 0,2.05442 0.7098,3.7914 2.1294,5.21094 1.4195,1.41956 3.1261,2.12934 5.1198,2.12933 1.9936,1e-5 3.7005,-0.70977 5.1206,-2.12933 1.4202,-1.41954 2.1302,-3.15652 2.1302,-5.21094 0,-2.05438 -0.7103,-3.77602 -2.1311,-5.16491 z m 5.1207,15.40625 c -2.8391,2.83911 -6.2526,4.25866 -10.2404,4.25866 -3.9879,0 -7.4014,-1.41985 -10.2405,-4.25955 -2.8391,-2.83969 -4.2587,-6.25317 -4.2587,-10.24045 0,-2.65855 0.6644,-5.1053 1.9931,-7.34027 l 13.8663,-23.47223 8.4271,0 -9.6059,16.3125 c 3.9271,0.0602 7.2954,1.49511 10.105,4.30469 2.8096,2.80963 4.2144,6.20807 4.2144,10.19531 0,3.98728 -1.4201,7.40105 -4.2604,10.24134 z"
         id="path9905"
         style="font-size:58px;fill:#000000" />
    </g>
    <rect
       width="582.96057"
       height="133.59796"
       rx="14.750696"
       ry="14.750696"
       x="-2744.5776"
       y="-388.36182"
       id="rect9923"
       style="fill:#003399;fill-opacity:1;stroke:none" />
    <g
       transform="matrix(2.223051,0,0,2.2299946,5350.3874,297.47151)"
       id="text9907"
       style="font-size:49.143116px;font-style:normal;font-variant:normal;font-weight:bold;font-stretch:normal;text-align:start;line-height:125%;writing-mode:lr-tb;text-anchor:start;fill:#ffffff;fill-opacity:1;stroke:none;font-family:Drogowskaz;-inkscape-font-specification:Drogowskaz Bold">
      <path
         d="m -3576.2593,-289.22031 -0.5244,6.3003 c 0.8496,-0.20017 1.6997,-0.30027 2.5503,-0.3003 3.2998,3e-5 6.1247,1.17508 8.4749,3.52515 2.35,2.35012 3.5251,5.17506 3.5251,8.47485 0,3.29982 -1.1751,6.12477 -3.5251,8.47486 -2.3502,2.3501 -5.1751,3.52514 -8.4749,3.52514 -0.6006,0 -1.2256,-0.0498 -1.875,-0.14941 l -8.4756,-1.35059 0.4497,-6 8.9253,1.4253 c 0.3496,0.0498 0.6748,0.0747 0.9756,0.0747 1.6494,10e-6 3.0618,-0.57494 4.2371,-1.72485 1.1752,-1.14989 1.7629,-2.57494 1.7629,-4.27515 0,-1.70018 -0.5877,-3.12523 -1.7629,-4.27514 -1.1753,-1.14989 -2.5877,-1.72484 -4.2371,-1.72486 l -9,0 1.5,-18 18,0 0,6 z"
         id="path9912"
         style="font-size:48px;fill:#ffffff" />
      <path
         d="m -3548.6949,-286.1456 c -1,2.90042 -1.5,5.87551 -1.5,8.92529 0,3.04982 0.5,6.02492 1.5,8.9253 0.3008,0.89942 0.8635,1.63672 1.6883,2.21191 0.8247,0.5752 1.7622,0.8628 2.8125,0.86279 1.0502,10e-6 1.9877,-0.28759 2.8125,-0.86279 0.8247,-0.57519 1.3869,-1.31249 1.6867,-2.21191 1,-2.90038 1.5,-5.87548 1.5,-8.9253 0,-3.04978 -0.5,-6.02487 -1.5,-8.92529 -0.2998,-0.89939 -0.862,-1.63669 -1.6867,-2.21191 -0.8248,-0.57517 -1.7623,-0.86277 -2.8125,-0.8628 -1.0503,3e-5 -1.9878,0.28763 -2.8125,0.8628 -0.8248,0.57522 -1.3875,1.31252 -1.6883,2.21191 z m -5.3994,20.02588 c -1.4004,-4.05077 -2.1006,-7.75096 -2.1006,-11.10059 0,-3.34958 0.7002,-7.04978 2.1006,-11.10058 0.75,-2.04978 2.0249,-3.71213 3.8247,-4.98706 1.7998,-1.27487 3.8247,-1.91232 6.0747,-1.91236 2.25,4e-5 4.2752,0.63749 6.0755,1.91236 1.8002,1.27493 3.0754,2.93728 3.8254,4.98706 1.3994,4.0508 2.0991,7.751 2.0991,11.10058 0,3.34963 -0.6997,7.04982 -2.0991,11.10059 -0.75,2.04981 -2.0252,3.71216 -3.8254,4.98706 -1.8003,1.2749 -3.8255,1.91235 -6.0755,1.91235 -2.25,0 -4.2749,-0.63745 -6.0747,-1.91235 -1.7998,-1.2749 -3.0747,-2.93725 -3.8247,-4.98706 z"
         id="path9914"
         style="font-size:48px;fill:#ffffff" />
      <path
         d="m -3517.5429,-286.1456 c -1,2.90042 -1.5,5.87551 -1.5,8.92529 0,3.04982 0.5,6.02492 1.5,8.9253 0.3008,0.89942 0.8635,1.63672 1.6882,2.21191 0.8247,0.5752 1.7622,0.8628 2.8125,0.86279 1.0503,10e-6 1.9878,-0.28759 2.8125,-0.86279 0.8247,-0.57519 1.387,-1.31249 1.6868,-2.21191 1,-2.90038 1.5,-5.87548 1.5,-8.9253 0,-3.04978 -0.5,-6.02487 -1.5,-8.92529 -0.2998,-0.89939 -0.8621,-1.63669 -1.6868,-2.21191 -0.8247,-0.57517 -1.7622,-0.86277 -2.8125,-0.8628 -1.0503,3e-5 -1.9878,0.28763 -2.8125,0.8628 -0.8247,0.57522 -1.3874,1.31252 -1.6882,2.21191 z m -5.3994,20.02588 c -1.4004,-4.05077 -2.1006,-7.75096 -2.1006,-11.10059 0,-3.34958 0.7002,-7.04978 2.1006,-11.10058 0.75,-2.04978 2.0249,-3.71213 3.8247,-4.98706 1.7998,-1.27487 3.8247,-1.91232 6.0747,-1.91236 2.25,4e-5 4.2751,0.63749 6.0754,1.91236 1.8003,1.27493 3.0754,2.93728 3.8255,4.98706 1.3993,4.0508 2.0991,7.751 2.0991,11.10058 0,3.34963 -0.6998,7.04982 -2.0991,11.10059 -0.7501,2.04981 -2.0252,3.71216 -3.8255,4.98706 -1.8003,1.2749 -3.8254,1.91235 -6.0754,1.91235 -2.25,0 -4.2749,-0.63745 -6.0747,-1.91235 -1.7998,-1.2749 -3.0747,-2.93725 -3.8247,-4.98706 z"
         id="path9916"
         style="font-size:48px;fill:#ffffff" />
      <path
         d="m -3468.2916,-283.22031 6,0 0,3 c 1.5,-1.99997 3.5,-2.99997 6,-3 2.2998,3e-5 4.1997,0.87503 5.6997,2.625 1.75,-1.74997 3.8501,-2.62497 6.3003,-2.625 2.5,3e-5 4.625,0.87503 6.375,2.625 1.75,1.75002 2.625,3.87502 2.625,6.375 l 0,15 -6,0 0,-14.25 c 0,-1.04979 -0.3626,-1.93724 -1.0876,-2.66235 -0.7252,-0.72508 -1.6126,-1.08763 -2.6624,-1.08765 -1.0498,2e-5 -1.9373,0.36257 -2.6623,1.08765 -0.7252,0.72511 -1.0877,1.61256 -1.0877,2.66235 l 0,14.25 -6,0 0,-14.25 c 0,-1.04979 -0.3626,-1.93724 -1.0876,-2.66235 -0.7251,-0.72508 -1.6126,-1.08763 -2.6624,-1.08765 -1.0498,2e-5 -1.9373,0.36257 -2.6623,1.08765 -0.7251,0.72511 -1.0877,1.61256 -1.0877,2.66235 l 0,14.25 -6,0 z"
         id="path9918"
         style="font-size:48px;fill:#ffffff" />
    </g>
  </g>
</svg>
