<?xml version="1.0" encoding="UTF-8" standalone="no"?>
<!-- Created with Inkscape (http://www.inkscape.org/) -->
<svg
   xmlns:svg="http://www.w3.org/2000/svg"
   xmlns="http://www.w3.org/2000/svg"
   xmlns:sodipodi="http://sodipodi.sourceforge.net/DTD/sodipodi-0.dtd"
   xmlns:inkscape="http://www.inkscape.org/namespaces/inkscape"
   version="1.0"
   width="7849.5908"
   height="1475.7446"
   id="svg2"
   sodipodi:version="0.32"
   inkscape:version="0.45"
   sodipodi:docname="Znak E-6b.svg"
   sodipodi:docbase="/home/szczepan/Desktop/znaki/nowe"
   inkscape:output_extension="org.inkscape.output.svg.inkscape"
   sodipodi:modified="true">
  <defs
     id="defs19" />
  <sodipodi:namedview
     inkscape:window-height="594"
     inkscape:window-width="822"
     inkscape:pageshadow="2"
     inkscape:pageopacity="0.0"
     guidetolerance="10.0"
     gridtolerance="10.0"
     objecttolerance="10.0"
     borderopacity="1.0"
     bordercolor="#666666"
     pagecolor="#ffffff"
     id="base"
     inkscape:zoom="0.093253268"
     inkscape:cx="3924.7954"
     inkscape:cy="737.87231"
     inkscape:window-x="5"
     inkscape:window-y="48"
     inkscape:current-layer="svg2" />
  <g
     transform="translate(4395.8755,-23392.242)"
     id="layer1">
    <g
       transform="matrix(0.5316572,0,0,0.5316572,-19124.973,10955.588)"
       id="g6019">
      <g
         transform="matrix(1.9805911,0,0,1.9805911,6483.9689,20030.649)"
         style="opacity:1"
         id="g6004">
        <path
           d="M 10753.784,1757.112 L 17458.022,1757.112 L 17980.771,2407.7927 L 17458.022,3058.468 L 10753.784,3058.468 L 10753.784,1757.112 z "
           style="fill:#ffffff;fill-opacity:1;stroke:none;stroke-width:150;stroke-miterlimit:4;stroke-dashoffset:0;stroke-opacity:1"
           id="path4539" />
        <path
           d="M 10714.052,1697.2678 L 10714.052,3098.7407 L 17462.607,3098.7407 L 18168.586,2398.0153 L 17462.607,1697.2678 L 10714.052,1697.2678 z M 10780.765,1778.3296 L 17443.762,1778.3296 L 17886.031,2398.0153 L 17443.773,3017.6844 L 10780.765,3017.6844 L 10780.765,1778.3296 z "
           style="fill:#2e4994;fill-opacity:1;stroke:none;stroke-width:150;stroke-miterlimit:4;stroke-dasharray:none;stroke-dashoffset:0;stroke-opacity:1"
           id="path4541" />
      </g>
      <g
         transform="translate(-8.83888,-54.63772)"
         style="opacity:1;fill:#2e4994;fill-opacity:1"
         id="g6008">
        <path
           d="M 33652.486,24183.371 L 33652.486,25486.134 L 34248.651,25486.134 C 34248.651,25486.134 34681.052,25318.069 34681.052,24834.752 C 34681.052,24357.361 34248.651,24183.371 34248.651,24183.371 L 33652.486,24183.371 z M 33870.948,24403.394 L 34203.726,24403.394 C 34203.726,24403.394 34462.041,24523.956 34462.041,24834.752 C 34462.041,25149.65 34203.726,25261.769 34203.726,25261.769 L 33870.948,25261.769 L 33870.948,24403.394 z "
           style="fill:#2e4994;fill-opacity:1;stroke:none;stroke-width:7;stroke-miterlimit:4;stroke-opacity:1"
           id="path5897" />
        <path
           d="M 39247.624,24617.625 C 39007.343,24617.625 38812.284,24812.193 38812.284,25051.88 C 38812.284,25291.566 39007.343,25486.134 39247.624,25486.134 C 39331.688,25486.134 39384.34,25478.274 39455.262,25462.232 L 39555.589,25254.28 C 39355.765,25267.094 39145.008,25350.819 39032.188,25130.135 L 39603.656,25128.25 L 39603.656,24802.388 C 39524.905,24690.685 39394.843,24617.625 39247.624,24617.625 z M 39247.624,24823.279 C 39346.893,24823.279 39431.413,24886.351 39463.232,24974.482 L 39032.015,24974.482 C 39063.835,24886.351 39148.354,24823.279 39247.624,24823.279 z "
           style="fill:#2e4994;fill-opacity:1;stroke:none;stroke-width:7;stroke-miterlimit:4;stroke-dasharray:none;stroke-opacity:1"
           id="path5899" />
        <path
           d="M 37578.463,24657.985 L 37578.463,24617.626 L 37362.494,24617.626 L 37362.494,25486.134 L 37578.463,25486.134 L 37578.463,24923.233 C 37630.605,24860.281 37713.792,24828.618 37794.793,24831.781 L 37794.793,24617.626 C 37698.697,24620.75 37621.96,24629.874 37578.463,24657.985 z "
           style="fill:#2e4994;fill-opacity:1;stroke:none;stroke-width:7;stroke-miterlimit:4;stroke-opacity:1"
           id="path5901" />
        <path
           d="M 34837.631,24617.625 L 35049.477,25486.134 L 35266.042,25486.134 L 35427.016,24966.838 L 35587.99,25486.134 L 35804.555,25486.134 L 36016.401,24617.625 L 35799.837,24617.625 L 35683.372,25095.124 L 35535.298,24617.625 L 35318.734,24617.625 L 35170.661,25095.124 L 35054.204,24617.625 L 34837.631,24617.625 z "
           style="fill:#2e4994;fill-opacity:1;stroke:none;stroke-width:7;stroke-miterlimit:4;stroke-opacity:1"
           id="path5903" />
        <path
           d="M 37967.154,24617.626 L 37967.154,24833.306 L 38265.33,24833.306 L 37967.154,25379.198 L 37967.154,25486.134 L 38559.133,25486.134 L 38559.133,25270.454 L 38258.237,25270.454 L 38559.133,24709.904 L 38559.133,24617.626 L 37967.154,24617.626 z "
           style="fill:#2e4994;fill-opacity:1;stroke:none;stroke-width:7;stroke-miterlimit:4;stroke-opacity:1"
           id="path5905" />
        <path
           d="M 40292.239,24617.626 C 40051.95,24617.626 39856.899,24812.194 39856.899,25051.88 C 39856.899,25291.566 40051.95,25486.134 40292.239,25486.134 C 40396.964,25486.134 40493.129,25449.223 40568.274,25387.674 L 40471.623,25195.717 C 40429.418,25248.015 40364.704,25281.507 40292.239,25281.507 C 40165.194,25281.507 40062.037,25178.603 40062.037,25051.88 C 40062.037,24925.156 40165.194,24822.253 40292.239,24822.253 C 40357.501,24822.253 40416.321,24849.547 40458.236,24893.144 L 40537.372,24692.969 C 40467.547,24645.409 40383.091,24617.626 40292.239,24617.626 z "
           style="fill:#2e4994;fill-opacity:1;stroke:none;stroke-width:7;stroke-miterlimit:4;stroke-dasharray:none;stroke-opacity:1"
           id="path5907" />
        <path
           d="M 36658.544,24617.626 C 36417.621,24617.626 36222.099,24812.172 36222.099,25051.88 C 36222.099,25291.588 36417.621,25486.134 36658.544,25486.134 C 36899.46,25486.134 37094.99,25291.588 37094.99,25051.88 C 37094.99,24812.172 36899.46,24617.626 36658.544,24617.626 z M 36665.089,24837.647 C 36784.689,24837.647 36881.858,24934.331 36881.858,25053.327 C 36881.858,25172.324 36784.689,25268.825 36665.089,25268.825 C 36545.496,25268.825 36448.501,25172.324 36448.501,25053.327 C 36448.501,24934.331 36545.496,24837.647 36665.089,24837.647 z "
           style="fill:#2e4994;fill-opacity:1;stroke:none;stroke-width:7;stroke-miterlimit:4;stroke-dasharray:none;stroke-opacity:1"
           id="path5910" />
        <g
           transform="matrix(5.3578982,0,0,5.3578982,22183.086,27580.208)"
           style="fill:#2e4994;fill-opacity:1"
           id="g4001">
          <path
             d="M 1247.7878,-643.41403 L 1240.7876,-568.41132 L 1240.7876,-443.41305 L 1415.7852,-430.91322 C 1416.0534,-403.54279 1438.3511,-381.41149 1465.7845,-381.41149 C 1493.2178,-381.41149 1515.5194,-403.54279 1515.7877,-430.91322 L 1765.7842,-430.91322 C 1766.0523,-403.54279 1788.3539,-381.41149 1815.7873,-381.41149 C 1843.2206,-381.41149 1865.5183,-403.54279 1865.7866,-430.91322 L 1960.7867,-430.91322 L 1978.2851,-443.41305 L 1978.2851,-518.41201 L 1933.2879,-643.41403 L 1247.7878,-643.41403 z M 1283.7869,-618.41064 L 1287.1343,-618.41064 L 1359.536,-618.41064 L 1365.7859,-613.41215 L 1365.7859,-535.91394 L 1359.536,-530.91184 L 1282.0378,-530.91184 L 1272.0373,-535.91394 L 1278.7847,-613.41215 L 1283.7869,-618.41064 z M 1388.2864,-618.41064 L 1493.2872,-618.41064 L 1503.2877,-613.41215 L 1503.2877,-535.91394 L 1493.2872,-530.91184 L 1388.2864,-530.91184 L 1378.2857,-535.91394 L 1378.2857,-613.41215 L 1388.2864,-618.41064 z M 1525.7844,-618.41064 L 1618.2854,-618.41064 L 1628.286,-613.41215 L 1628.286,-535.91394 L 1618.2854,-530.91184 L 1525.7844,-530.91184 L 1515.7877,-535.91394 L 1515.7877,-613.41215 L 1525.7844,-618.41064 z M 1738.2854,-618.41064 L 1855.7859,-618.41064 L 1865.7866,-613.41215 L 1865.7866,-535.91394 L 1855.7859,-530.91184 L 1738.2854,-530.91184 L 1728.2846,-535.91394 L 1728.2846,-613.41215 L 1738.2854,-618.41064 z M 1888.287,-618.41064 L 1929.786,-618.41064 L 1965.7852,-518.41201 L 1940.7856,-493.41236 L 1888.287,-493.41236 L 1878.2864,-505.91219 L 1878.2864,-613.41215 L 1888.287,-618.41064 z M 1653.2857,-617.91306 L 1678.2853,-617.91306 L 1678.2853,-530.91184 L 1653.2857,-530.91184 L 1653.2857,-617.91306 z M 1690.7853,-617.91306 L 1715.7849,-617.91306 L 1715.7849,-530.91184 L 1690.7853,-530.91184 L 1690.7853,-617.91306 z "
             style="fill:#2e4994;fill-opacity:1;fill-rule:evenodd;stroke:none;stroke-width:1px;stroke-linecap:butt;stroke-linejoin:miter;stroke-opacity:1"
             id="path1307" />
        </g>
      </g>
    </g>
  </g>
</svg>
