<?xml version="1.0" encoding="UTF-8" standalone="no"?>
<!-- Created with Inkscape (http://www.inkscape.org/) -->
<svg
   xmlns:svg="http://www.w3.org/2000/svg"
   xmlns="http://www.w3.org/2000/svg"
   xmlns:sodipodi="http://sodipodi.sourceforge.net/DTD/sodipodi-0.dtd"
   xmlns:inkscape="http://www.inkscape.org/namespaces/inkscape"
   height="3598.6902"
   width="14523.311"
   id="svg2"
   sodipodi:version="0.32"
   inkscape:version="0.45"
   version="1.0"
   sodipodi:docbase="/home/szczepan/Desktop/znaki/nowe"
   sodipodi:docname="Znak E-8.svg"
   inkscape:output_extension="org.inkscape.output.svg.inkscape"
   sodipodi:modified="true">
  <defs
     id="defs30" />
  <sodipodi:namedview
     id="base"
     pagecolor="#ffffff"
     bordercolor="#666666"
     borderopacity="1.0"
     inkscape:pageopacity="0.0"
     inkscape:pageshadow="2"
     inkscape:cx="26226.689"
     inkscape:cy="-2876.9757"
     inkscape:zoom="0.01"
     inkscape:document-units="px"
     inkscape:current-layer="g25300"
     inkscape:window-width="1013"
     inkscape:window-height="689"
     inkscape:window-x="0"
     inkscape:window-y="25" />
  <g
     inkscape:groupmode="layer"
     inkscape:label="Warstwa 1"
     id="layer1"
     transform="translate(-85257.803,-6100.5828)">
    <g
       transform="matrix(110.98424,0,0,110.98633,-712973.33,-145341.66)"
       id="g16435"
       style="opacity:0.81720007">
      <g
         transform="translate(233.80814,7.8125)"
         id="g16323" />
    </g>
    <g
       id="g14845"
       transform="matrix(0.2677817,0,0,0.2677817,87019.973,9502.6427)" />
    <g
       id="g25300">
      <g
         id="g25340">
        <g
           transform="translate(19378.617,-1004.234)"
           id="g25274"
           style="fill:#7a613e;fill-opacity:1">
          <g
             transform="translate(23025,3425)"
             id="g25315">
            <path
               d="M 42944.985,3808.0377 L 55527.47,3808.0377 L 56869.783,5478.85 L 55527.47,7149.6482 L 42944.985,7149.6482 L 42944.985,3808.0377 z "
               style="fill:#ffffff;fill-opacity:1;stroke:none;stroke-width:150;stroke-miterlimit:4;stroke-dashoffset:0;stroke-opacity:1"
               id="rect15201"
               sodipodi:nodetypes="cccccc" />
            <path
               d="M 42854.186,3679.8168 L 42854.186,7278.507 L 55564.692,7278.507 L 57377.497,5479.1903 L 55564.692,3679.8168 L 42854.186,3679.8168 z M 43025.494,3887.9666 L 55516.302,3887.9666 L 56651.955,5479.1903 L 55516.33,7070.3713 L 43025.494,7070.3713 L 43025.494,3887.9666 z "
               style="fill:#7a613e;fill-opacity:1;stroke:none;stroke-width:150;stroke-miterlimit:4;stroke-dasharray:none;stroke-dashoffset:0;stroke-opacity:1"
               id="rect8638"
               sodipodi:nodetypes="cccccccccccc" />
          </g>
        </g>
        <g
           transform="translate(0,238.65853)"
           id="g25327">
          <path
             style="fill:none;fill-rule:evenodd;stroke:#79603e;stroke-width:155.24920654;stroke-linecap:butt;stroke-linejoin:miter;stroke-miterlimit:4;stroke-dasharray:none;stroke-opacity:1"
             d="M -3347.3884,-4376.1967 L -1901.238,-3995.5217 L -455.0869,-4392.7479 L 991.0642,-3995.5217 L 2437.2176,-4392.7479 L 3883.3687,-3995.5217 L 5329.5198,-4392.7479 L 6775.6709,-3995.5217 L 8221.822,-4392.7479"
             id="path2170"
             sodipodi:nodetypes="ccccccccc"
             transform="matrix(0.2677817,0,0,0.2677817,87019.973,9502.6427)" />
          <path
             sodipodi:nodetypes="ccccccccc"
             id="path3143"
             d="M -3347.3884,-3283.8247 L -1901.238,-2903.1497 L -455.0869,-3300.3759 L 991.0642,-2903.1497 L 2437.2176,-3300.3759 L 3883.3687,-2903.1497 L 5329.5198,-3300.3759 L 6775.6709,-2903.1497 L 8221.822,-3300.3759"
             style="fill:none;fill-rule:evenodd;stroke:#79603e;stroke-width:155.24920654;stroke-linecap:butt;stroke-linejoin:miter;stroke-miterlimit:4;stroke-dasharray:none;stroke-opacity:1"
             transform="matrix(0.2677817,0,0,0.2677817,87019.973,9502.6427)" />
          <path
             style="fill:none;fill-rule:evenodd;stroke:#79603e;stroke-width:145.98060608;stroke-linecap:butt;stroke-linejoin:miter;stroke-miterlimit:4;stroke-dasharray:none;stroke-opacity:1"
             d="M 3600.7694,-9070.8987 L 7167.5291,-9070.8987"
             id="path6054"
             transform="matrix(0.2677817,0,0,0.2677817,87019.973,9502.6427)" />
          <path
             id="path7025"
             d="M 5384.1491,-10854.279 L 5384.1491,-7287.519"
             style="fill:none;fill-rule:evenodd;stroke:#79603e;stroke-width:145.98060608;stroke-linecap:butt;stroke-linejoin:miter;stroke-miterlimit:4;stroke-dasharray:none;stroke-opacity:1"
             transform="matrix(0.2677817,0,0,0.2677817,87019.973,9502.6427)" />
          <path
             id="path7033"
             d="M 4123.1086,-10331.938 L 6645.1887,-7809.8575"
             style="fill:none;fill-rule:evenodd;stroke:#79603e;stroke-width:145.98062134;stroke-linecap:butt;stroke-linejoin:miter;stroke-miterlimit:4;stroke-dasharray:none;stroke-opacity:1"
             transform="matrix(0.2677817,0,0,0.2677817,87019.973,9502.6427)" />
          <path
             style="fill:none;fill-rule:evenodd;stroke:#79603e;stroke-width:145.98062134;stroke-linecap:butt;stroke-linejoin:miter;stroke-miterlimit:4;stroke-dasharray:none;stroke-opacity:1"
             d="M 6645.1885,-10331.938 L 4123.1086,-7809.8577"
             id="path7035"
             transform="matrix(0.2677817,0,0,0.2677817,87019.973,9502.6427)" />
          <path
             sodipodi:type="arc"
             style="fill:#ffffff;fill-opacity:1;stroke:#79603e;stroke-width:6.69999981;stroke-miterlimit:4;stroke-dasharray:none;stroke-opacity:1"
             id="path3145"
             sodipodi:cx="459.28571"
             sodipodi:cy="468.79074"
             sodipodi:rx="33.92857"
             sodipodi:ry="33.92857"
             d="M 493.21428 468.79074 A 33.92857 33.92857 0 1 1  425.35714,468.79074 A 33.92857 33.92857 0 1 1  493.21428 468.79074 z"
             transform="matrix(7.0668686,0,0,7.0668686,85216.038,3760.7395)" />
        </g>
        <g
           transform="translate(0,-28.50095)"
           id="g25319">
          <path
             d="M 90638.895,7096.1148 C 90638.895,7940.5301 90638.665,7929.9663 90638.665,8350.8209 C 90638.665,8424.1757 90578.969,8483.6834 90505.372,8483.6834 C 90421.122,8477.6725 90383.346,8428.2967 90372.3,8350.8209 L 90094.098,8350.8209 C 90094.088,8352.1865 90094.098,8349.4528 90094.098,8350.8209 C 90094.098,8577.0985 90278.355,8760.7429 90505.372,8760.7429 C 90732.389,8760.7429 90916.636,8577.0985 90916.636,8350.8209 L 90913.451,7096.1148 L 90638.895,7096.1148 z "
             style="fill:#7a613e;fill-opacity:1;stroke:none;stroke-width:7;stroke-miterlimit:4;stroke-dasharray:none;stroke-opacity:1"
             id="path11293"
             sodipodi:nodetypes="cccccssccc" />
          <path
             d="M 91702.948,7650.9916 C 91396.106,7650.9916 91147.066,7899.5226 91147.066,8205.751 C 91147.066,8511.9793 91396.106,8760.5117 91702.948,8760.5117 C 91822.962,8760.5117 91934.022,8722.257 92024.902,8657.6519 L 92052.003,8760.7429 L 92328.09,8760.7429 L 92256.056,8489.8345 L 92256.056,8262.3832 C 92257.95,8243.7403 92258.842,8224.8903 92258.842,8205.751 C 92258.842,8186.6116 92257.95,8167.7603 92256.056,8149.1212 L 92256.056,7651.2229 L 91979.968,7651.2229 L 91979.968,7724.9604 C 91898.381,7678.0243 91803.825,7650.9916 91702.948,7650.9916 z M 91711.29,7932.0697 C 91841.858,7932.0697 91951.337,8022.823 91979.968,8144.4962 L 91979.968,8270.706 C 91951.337,8392.33 91841.858,8482.9001 91711.29,8482.9001 C 91558.971,8482.9001 91435.432,8359.6187 91435.432,8207.6005 C 91435.432,8055.5835 91558.971,7932.0697 91711.29,7932.0697 z "
             style="fill:#7a613e;fill-opacity:1;stroke:none;stroke-width:7;stroke-miterlimit:4;stroke-dasharray:none;stroke-opacity:1"
             id="path11295" />
          <path
             d="M 96416.887,7702.5618 L 96416.887,7650.9916 L 96140.928,7650.9916 L 96140.928,8760.7429 L 96416.887,8760.7429 L 96416.887,8041.4849 C 96483.513,7961.0478 96589.807,7920.5886 96693.308,7924.6312 L 96693.308,7650.9916 C 96570.519,7654.9838 96472.467,7666.643 96416.887,7702.5618 z "
             style="fill:#7a613e;fill-opacity:1;stroke:none;stroke-width:7;stroke-miterlimit:4;stroke-opacity:1"
             id="path11297" />
          <path
             d="M 94271.052,7096.1148 L 93993.952,7370.3785 L 93993.952,7641.384 L 93778.932,7641.384 L 93778.932,7918.4347 L 93993.952,7918.4347 L 93993.952,8277.7642 C 93990.075,8543.1025 94134.596,8750.0085 94412.387,8760.7429 L 94553.028,8485.3787 C 94474.294,8485.3787 94466.434,8485.3787 94369.384,8485.3787 C 94331.92,8485.3787 94271.052,8412.4332 94271.052,8373.5228 C 94271.052,8232.8821 94271.052,7918.4347 94271.052,7918.4347 L 94485.612,7918.4347 L 94485.612,7641.384 L 94271.052,7641.384 L 94271.052,7096.1148 z "
             style="fill:#7a613e;fill-opacity:1;stroke:none;stroke-width:7;stroke-miterlimit:4;stroke-dasharray:none;stroke-opacity:1"
             id="path11299" />
          <path
             d="M 92623.387,7650.9916 L 92623.387,8760.7429 L 92899.785,8760.7429 L 92899.785,8058.8252 C 92909.82,8028.7821 92986.83,7929.1236 93102.658,7929.1236 C 93253.766,7929.1198 93304.839,8067.6685 93304.839,8067.6685 L 93309.527,8760.7429 L 93585.746,8760.7429 L 93586.616,8067.6685 C 93564.253,7792.9474 93372.215,7650.9916 93177.746,7650.9916 C 93030.072,7650.9904 92926.142,7731.536 92899.785,7753.2968 L 92899.785,7650.9916 L 92623.387,7650.9916 z "
             style="fill:#7a613e;fill-opacity:1;stroke:none;stroke-width:7;stroke-miterlimit:4;stroke-opacity:1"
             id="path11301" />
          <path
             d="M 95245.379,7650.9916 C 94938.537,7650.9916 94689.497,7899.5226 94689.497,8205.751 C 94689.497,8511.9793 94938.537,8760.5117 95245.379,8760.5117 C 95365.394,8760.5117 95476.454,8722.257 95567.334,8657.6519 L 95594.434,8760.7429 L 95870.523,8760.7429 L 95798.488,8489.8345 L 95798.488,8262.3832 C 95800.38,8243.7403 95801.273,8224.8903 95801.273,8205.751 C 95801.273,8186.6116 95800.38,8167.7603 95798.488,8149.1212 L 95798.488,7651.2229 L 95522.4,7651.2229 L 95522.4,7724.9604 C 95440.811,7678.0243 95346.255,7650.9916 95245.379,7650.9916 z M 95253.721,7932.0697 C 95384.291,7932.0697 95493.769,8022.823 95522.4,8144.4962 L 95522.4,8270.706 C 95493.769,8392.33 95384.291,8482.9001 95253.721,8482.9001 C 95101.403,8482.9001 94977.864,8359.6187 94977.864,8207.6005 C 94977.864,8055.5835 95101.403,7932.0697 95253.721,7932.0697 z "
             style="fill:#7a613e;fill-opacity:1;stroke:none;stroke-width:7;stroke-miterlimit:4;stroke-dasharray:none;stroke-opacity:1"
             id="path11303" />
        </g>
      </g>
    </g>
  </g>
</svg>
