<?xml version="1.0" encoding="UTF-8" standalone="no"?>
<!-- Created with Inkscape (http://www.inkscape.org/) -->
<svg
   xmlns:svg="http://www.w3.org/2000/svg"
   xmlns="http://www.w3.org/2000/svg"
   xmlns:sodipodi="http://sodipodi.sourceforge.net/DTD/sodipodi-0.dtd"
   xmlns:inkscape="http://www.inkscape.org/namespaces/inkscape"
   height="2302.9683"
   width="7736.6455"
   id="svg2"
   sodipodi:version="0.32"
   inkscape:version="0.45"
   version="1.0"
   sodipodi:docname="Znak E-9.svg"
   sodipodi:docbase="/home/szczepan/Desktop/znaki/nowe"
   inkscape:output_extension="org.inkscape.output.svg.inkscape"
   sodipodi:modified="true">
  <defs
     id="defs41" />
  <sodipodi:namedview
     id="base"
     pagecolor="#ffffff"
     bordercolor="#666666"
     borderopacity="1.0"
     inkscape:pageopacity="0.0"
     inkscape:pageshadow="2"
     inkscape:cx="10516.61"
     inkscape:cy="2589.1903"
     inkscape:zoom="0.014142136"
     inkscape:document-units="px"
     inkscape:current-layer="layer1"
     inkscape:window-width="1013"
     inkscape:window-height="689"
     inkscape:window-x="5"
     inkscape:window-y="48" />
  <g
     inkscape:groupmode="layer"
     inkscape:label="Warstwa 1"
     id="layer1"
     transform="translate(-15216.589,1593.3629)">
    <g
       id="g13745"
       transform="matrix(1.2236819,0,0,1.2236819,16419.971,-744.90726)">
      <g
         inkscape:label="Warstwa 1"
         id="g6659"
         transform="matrix(0.5229678,0,0,0.5229678,-46843.289,-3883.7713)">
        <g
           transform="matrix(110.98424,0,0,110.98633,-712973.33,-145341.66)"
           id="g6661"
           style="opacity:0.81720007">
          <g
             transform="translate(233.80814,7.8125)"
             id="g6663" />
        </g>
        <g
           id="g14845"
           transform="matrix(0.2677817,0,0,0.2677817,87019.973,9502.6427)" />
        <g
           id="g25300">
          <g
             id="g25340">
            <g
               transform="translate(19378.617,-1004.234)"
               id="g25274"
               style="fill:#7a613e;fill-opacity:1">
              <g
                 transform="translate(23025,3425)"
                 id="g25315">
                <path
                   d="M 45412.575,3808.0377 L 55527.47,3808.0377 L 56869.783,5478.85 L 55527.47,7149.6482 L 45412.575,7149.6482 L 45412.575,3808.0377 z "
                   style="fill:#ffffff;fill-opacity:1;stroke:none;stroke-width:150;stroke-miterlimit:4;stroke-dashoffset:0;stroke-opacity:1"
                   id="path6670"
                   sodipodi:nodetypes="cccccc" />
                <path
                   d="M 45287.973,3679.8168 L 45287.973,7278.507 L 55564.692,7278.507 L 57377.497,5479.1903 L 55564.692,3679.8168 L 45287.973,3679.8168 z M 45459.281,3887.9666 L 55516.302,3887.9666 L 56651.955,5479.1903 L 55516.33,7070.3713 L 45459.281,7070.3713 L 45459.281,3887.9666 z "
                   style="fill:#7a613e;fill-opacity:1;stroke:none;stroke-width:150;stroke-miterlimit:4;stroke-dasharray:none;stroke-dashoffset:0;stroke-opacity:1"
                   id="path6672"
                   sodipodi:nodetypes="cccccccccccc" />
              </g>
            </g>
          </g>
        </g>
      </g>
      <path
         id="path7775"
         d="M -286.96103,-225.31386 L -286.96103,-132.05932 L -548.84791,-132.05932 L -548.84791,-62.654696 L -431.85555,-62.654696 L -431.85555,617.4756 L -624.19747,617.4756 L -624.19747,720.58708 L 553.63414,720.58708 L 553.63414,617.4756 L 361.29213,617.4756 L 361.29213,-62.654696 L 478.2845,-62.654696 L 478.2845,-132.05932 L 216.39771,-132.05932 L 216.39771,-225.31386 L -286.96103,-225.31386 z M -350.52578,-58.658638 L -74.975385,-58.658638 L -74.975385,621.40853 L -350.52578,621.40853 L -350.52578,-58.658638 z M 4.4122572,-58.658638 L 279.96259,-58.658638 L 279.96259,621.40853 L 4.4122572,621.40853 L 4.4122572,-58.658638 z "
         style="fill:#7a613e;fill-opacity:1;fill-rule:evenodd;stroke:none;stroke-width:21.20000076;stroke-linecap:butt;stroke-linejoin:miter;stroke-miterlimit:4;stroke-dasharray:none;stroke-opacity:1" />
      <g
         transform="translate(0,-32.534691)"
         id="g13721">
        <g
           id="g13673"
           style="fill:#7a613e;fill-opacity:1">
          <path
             d="M 824.10841,-295.95411 L 813.18857,-2.9051781 L 862.74644,-2.9051781 L 870.05457,-199.37786 L 963.46113,-2.9051781 L 1056.9053,-199.33553 L 1064.2135,-2.9051781 L 1113.7713,-2.9051781 L 1102.8515,-295.95411 L 1053.2936,-295.95411 L 963.49876,-107.14696 L 873.66629,-295.95411 L 873.62397,-295.95411 L 824.10841,-295.95411 z "
             style="fill:#7a613e;fill-opacity:1;stroke:none;stroke-width:7;stroke-miterlimit:4;stroke-opacity:1"
             id="path13637" />
          <path
             d="M 2606.1144,-295.95409 L 2680.075,-2.9051781 L 2729.694,-2.9051781 L 2776.8486,-194.97604 L 2824.0036,-2.9051781 L 2873.6225,-2.9051781 L 2947.5831,-295.95409 L 2897.9594,-295.95409 L 2849.1632,-102.52883 L 2801.6371,-295.95409 L 2752.0604,-295.95409 L 2704.5342,-102.52883 L 2655.7381,-295.95409 L 2606.1144,-295.95409 z "
             style="fill:#7a613e;fill-opacity:1;stroke:none;stroke-width:7;stroke-miterlimit:4;stroke-opacity:1"
             id="path13639" />
          <path
             d="M 1696.5015,-198.2727 C 1642.4524,-198.2727 1598.5755,-154.50864 1598.5755,-100.59129 C 1598.5755,-46.673945 1642.4524,-2.9051781 1696.5015,-2.9051781 C 1715.4113,-2.9051781 1727.2577,-4.6734281 1743.2094,-8.2851741 L 1765.7782,-55.063694 C 1720.8291,-52.18089 1673.4203,-33.346276 1648.0392,-82.988804 L 1776.5899,-83.412034 L 1776.5899,-156.71424 C 1758.8745,-181.84119 1729.6184,-198.2727 1696.5015,-198.2727 z M 1696.5015,-152.01147 C 1718.8351,-152.01147 1737.8436,-137.82788 1745.0058,-118.00099 L 1648.0017,-118.00099 C 1655.1592,-137.82788 1674.1726,-152.01147 1696.5015,-152.01147 z "
             style="fill:#7a613e;fill-opacity:1;stroke:none;stroke-width:7;stroke-miterlimit:4;stroke-dasharray:none;stroke-opacity:1"
             id="path13641" />
          <path
             d="M 2266.8151,-198.2727 C 2237.7708,-197.99053 2218.1885,-179.24055 2218.1885,-179.24055 C 2218.1885,-179.24055 2195.5257,-198.2727 2171.0712,-198.2727 C 2145.0977,-198.2727 2126.1409,-184.08912 2121.504,-180.26105 L 2121.504,-198.2727 L 2072.9195,-198.2727 L 2072.9195,-2.9051781 L 2121.504,-2.9051781 L 2121.504,-126.45658 C 2123.2721,-131.74249 2130.6414,-149.31208 2151.0139,-149.31208 C 2177.5893,-149.31208 2181.6665,-124.90937 2181.6665,-124.90937 L 2182.4801,-2.9051781 L 2231.0694,-2.9051781 L 2231.2337,-124.90937 C 2231.2337,-124.90937 2236.6139,-149.55662 2262.7001,-149.55662 C 2283.8814,-149.55662 2292.5534,-127.47236 2293.3529,-125.3185 L 2293.3529,-2.9051781 L 2341.9373,-2.9051781 L 2342.1019,-124.90937 C 2340.3618,-165.67774 2306.8639,-197.5861 2266.8151,-198.2727 z "
             style="fill:#7a613e;fill-opacity:1;stroke:none;stroke-width:7;stroke-miterlimit:4;stroke-opacity:1"
             id="path13643" />
          <path
             d="M 3734.8477,-189.19633 L 3734.8477,-198.2727 L 3686.2634,-198.2727 L 3686.2634,-2.9051781 L 3734.8477,-2.9051781 L 3734.8477,-129.52748 C 3746.5765,-143.69226 3765.2887,-150.81226 3783.5073,-150.10215 L 3783.5073,-198.2727 C 3761.8933,-197.57198 3744.6295,-195.52157 3734.8477,-189.19633 z "
             style="fill:#7a613e;fill-opacity:1;stroke:none;stroke-width:7;stroke-miterlimit:4;stroke-opacity:1"
             id="path13645" />
          <path
             d="M 3574.2209,-295.95879 L 3525.4389,-247.67536 L 3525.4389,-199.96569 L 3487.5862,-199.96569 L 3487.5862,-151.19317 L 3525.4389,-151.19317 L 3525.4389,-87.936098 C 3524.757,-41.223401 3550.1989,-4.7956981 3599.1031,-2.9051781 L 3623.8634,-51.386118 C 3610.0043,-51.386118 3608.617,-51.386118 3591.5317,-51.386118 C 3584.9384,-51.386118 3574.2209,-64.224688 3574.2209,-71.076648 C 3574.2209,-95.836768 3574.2209,-151.19317 3574.2209,-151.19317 L 3611.9935,-151.19317 L 3611.9935,-199.96569 L 3574.2209,-199.96569 L 3574.2209,-295.95879 z "
             style="fill:#7a613e;fill-opacity:1;stroke:none;stroke-width:7;stroke-miterlimit:4;stroke-dasharray:none;stroke-opacity:1"
             id="path13647" />
          <path
             d="M 1184.1902,-198.2727 C 1184.1902,-160.44354 1184.999,-124.42027 1184.0678,-88.12893 C 1184.0678,-41.087031 1222.4379,-2.9051781 1269.715,-2.9051781 C 1314.9697,-2.9051781 1354.9528,-37.324812 1354.9528,-88.12893 C 1354.9528,-136.99079 1354.9528,-198.2727 1354.9528,-198.2727 L 1306.9609,-198.2727 C 1307.2148,-161.07841 1306.2414,-124.1522 1306.8385,-86.76982 C 1306.8385,-66.373872 1290.1674,-49.82479 1269.6725,-49.82479 C 1252.5405,-49.82479 1238.1123,-61.403031 1233.8373,-77.11032 L 1234.7639,-198.2727 L 1184.1902,-198.2727 z "
             style="fill:#7a613e;fill-opacity:1;stroke:none;stroke-width:7;stroke-miterlimit:4;stroke-dasharray:none;stroke-opacity:1"
             id="path13649" />
          <path
             d="M 1404.7456,-198.27268 L 1404.7456,-149.75883 L 1471.8166,-149.75883 L 1404.7456,-26.959874 L 1404.7456,-2.9051781 L 1537.9095,-2.9051781 L 1537.9095,-51.423726 L 1470.2225,-51.423726 L 1537.9095,-177.51463 L 1537.9095,-198.27268 L 1404.7456,-198.27268 z "
             style="fill:#7a613e;fill-opacity:1;stroke:none;stroke-width:7;stroke-miterlimit:4;stroke-opacity:1"
             id="path13651" />
          <path
             d="M 3337.9443,-198.26223 C 3285.0476,-196.92193 3242.5015,-153.5341 3242.5015,-100.31275 C 3242.5015,-46.249614 3286.3927,-2.3585936 3340.4558,-2.3585936 C 3359.1634,-2.3585936 3370.9909,-4.1127226 3386.6887,-7.6539216 C 3383.284,-5.3589676 3365.291,7.9875224 3365.291,34.525309 C 3365.291,67.049724 3388.6216,81.181554 3388.6216,81.181554 L 3410.2497,51.210764 C 3410.2497,51.210764 3390.6297,45.068924 3383.8294,28.073083 C 3377.9651,13.409821 3387.2295,-7.8091156 3387.3424,-8.0771576 L 3409.7465,-54.658184 C 3364.7879,-51.770674 3317.365,-32.884318 3291.9794,-82.663236 L 3420.5629,-83.086466 L 3420.5629,-156.5862 C 3402.8428,-181.78369 3373.5772,-198.26223 3340.4558,-198.26223 C 3339.6091,-198.26223 3338.7863,-198.28573 3337.9443,-198.26223 z M 3340.4558,-151.87401 C 3362.7891,-151.87401 3381.8072,-137.64812 3388.9649,-117.76947 L 3291.9419,-117.76947 C 3299.1042,-137.64812 3318.1175,-151.87401 3340.4558,-151.87401 z "
             style="fill:#7a613e;fill-opacity:1;stroke:none;stroke-width:7;stroke-miterlimit:4;stroke-dasharray:none;stroke-opacity:1"
             id="path13653" />
          <path
             d="M 2993.2004,-198.27267 L 2993.2004,-2.9051781 L 3041.86,-2.9051781 L 3041.86,-126.47538 C 3043.6281,-131.76601 3057.1864,-149.31207 3077.5774,-149.31207 C 3104.1764,-149.31207 3113.1681,-124.91875 3113.1681,-124.91875 L 3113.9912,-2.9051781 L 3162.6225,-2.9051781 L 3162.773,-124.91875 C 3158.8368,-173.28211 3125.0284,-198.27267 3090.7923,-198.27267 C 3064.7952,-198.27267 3046.5015,-184.09381 3041.86,-180.26575 L 3041.86,-198.27267 L 2993.2004,-198.27267 z "
             style="fill:#7a613e;fill-opacity:1;stroke:none;stroke-width:7;stroke-miterlimit:4;stroke-opacity:1"
             id="path13655" />
          <path
             d="M 1836.2439,-198.27271 C 1836.2439,-160.44355 1837.0529,-124.42027 1836.1217,-88.128936 C 1836.1217,-41.08703 1874.4916,-2.9051781 1921.7688,-2.9051781 C 1967.0236,-2.9051781 2007.0066,-37.324812 2007.0066,-88.128936 C 2007.0066,-136.9908 2007.0066,-198.27271 2007.0066,-198.27271 L 1959.0147,-198.27271 C 1959.2688,-161.07844 1958.2951,-124.15221 1958.8925,-86.769816 C 1958.8925,-66.373876 1942.2211,-49.82479 1921.7265,-49.82479 C 1904.5941,-49.82479 1890.1661,-61.40303 1885.8913,-77.110326 L 1886.8176,-198.27271 L 1836.2439,-198.27271 z "
             style="fill:#7a613e;fill-opacity:1;stroke:none;stroke-width:7;stroke-miterlimit:4;stroke-dasharray:none;stroke-opacity:1"
             id="path13657" />
          <path
             d="M 3819.9892,-198.2727 L 3819.9892,-149.75883 L 3887.0602,-149.75883 L 3819.9892,-26.959897 L 3819.9892,-2.9051781 L 3953.1531,-2.9051781 L 3953.1531,-51.423747 L 3885.4661,-51.423747 L 3953.1531,-177.51462 L 3953.1531,-198.2727 L 3819.9892,-198.2727 z "
             style="fill:#7a613e;fill-opacity:1;stroke:none;stroke-width:7;stroke-miterlimit:4;stroke-opacity:1"
             id="path13659" />
        </g>
        <g
           id="g13711"
           style="fill:#7a613e;fill-opacity:1"
           transform="translate(-11.048515,0)">
          <path
             d="M 1161.9894,269.97049 L 1161.9894,709.72044 L 1237.1464,709.72044 L 1237.1464,526.82414 L 1362.1047,526.82414 C 1362.1047,526.82414 1437.9958,485.73123 1437.9958,398.54905 C 1437.9958,303.71707 1362.1047,269.97049 1362.1047,269.97049 L 1237.1464,269.97049 L 1161.9894,269.97049 z M 1339.8187,343.24333 C 1339.8187,343.24333 1365.6121,370.87854 1365.6121,398.54905 C 1365.6121,426.21954 1339.8187,453.91828 1339.8187,453.91828 L 1237.1464,453.91828 L 1237.1464,344.28777 L 1339.8187,343.24333 z "
             style="fill:#7a613e;fill-opacity:1;stroke:none;stroke-width:7;stroke-miterlimit:4;stroke-opacity:1"
             id="path13687" />
          <path
             d="M 3461.3014,416.55144 C 3380.2446,416.55144 3314.4523,482.20273 3314.4523,563.10418 C 3314.4523,643.99859 3380.2446,709.65693 3461.3014,709.65693 C 3493.0085,709.65693 3522.3515,699.55129 3546.3595,682.48041 L 3553.5152,709.72044 L 3626.4493,709.72044 L 3607.4236,638.14833 L 3607.4236,578.06502 C 3607.9247,573.13924 3608.1576,568.157 3608.1576,563.10418 C 3608.1576,558.04432 3607.9247,553.06913 3607.4236,548.14335 L 3607.4236,416.60791 L 3534.4824,416.60791 L 3534.4824,436.09228 C 3512.9303,423.69313 3487.9485,416.55144 3461.3014,416.55144 z M 3463.5101,490.80522 C 3498.0048,490.80522 3526.9244,514.77785 3534.4824,546.92248 L 3534.4824,580.25975 C 3526.9244,612.39028 3498.0048,636.32057 3463.5101,636.32057 C 3423.2641,636.32057 3390.6326,603.7525 3390.6326,563.59112 C 3390.6326,523.42972 3423.2641,490.80522 3463.5101,490.80522 z "
             style="fill:#7a613e;fill-opacity:1;stroke:none;stroke-width:7;stroke-miterlimit:4;stroke-dasharray:none;stroke-opacity:1"
             id="path13689" />
          <path
             d="M 2636.3125,416.55145 L 2728.8298,711.18123 L 2681.6326,856.3014 L 2756.9872,856.3014 L 2894.627,416.55145 L 2821.3471,416.55145 L 2765.4697,594.49372 L 2709.5923,416.55145 L 2636.3125,416.55145 z "
             style="fill:#7a613e;fill-opacity:1;stroke:none;stroke-width:7;stroke-miterlimit:4;stroke-opacity:1"
             id="path13691" />
          <path
             d="M 1782.7254,416.55146 L 1782.7254,489.35147 L 1883.3722,489.35147 L 1782.7254,673.62389 L 1782.7254,709.72044 L 1982.5514,709.72044 L 1982.5514,636.91337 L 1880.9799,636.91337 L 1982.5514,447.70107 L 1982.5514,416.55146 L 1782.7254,416.55146 z "
             style="fill:#7a613e;fill-opacity:1;stroke:none;stroke-width:7;stroke-miterlimit:4;stroke-opacity:1"
             id="path13693" />
          <path
             d="M 2215.8265,416.55146 C 2134.7134,416.55146 2068.8716,482.22391 2068.8716,563.13242 C 2068.8716,644.04094 2134.7134,709.72044 2215.8265,709.72044 C 2251.1751,709.72044 2283.6373,697.25778 2309.0002,676.48197 L 2276.3757,611.68459 C 2262.1276,629.3412 2240.2861,640.64652 2215.8265,640.64652 C 2172.9412,640.64652 2138.1148,605.91196 2138.1148,563.13242 C 2138.1148,520.35994 2172.9412,485.61832 2215.8265,485.61832 C 2237.8515,485.61832 2257.7098,494.83477 2271.8592,509.54861 L 2298.57,441.97784 C 2274.9996,425.93021 2246.4892,416.55146 2215.8265,416.55146 z "
             style="fill:#7a613e;fill-opacity:1;stroke:none;stroke-width:7;stroke-miterlimit:4;stroke-dasharray:none;stroke-opacity:1"
             id="path13695" />
          <path
             d="M 2970.0583,416.55146 L 2970.0583,709.72044 L 3043.077,709.72044 L 3043.077,524.29068 C 3045.7305,516.35156 3066.0759,490.02189 3096.6749,490.02189 C 3136.5894,490.02189 3150.0824,526.62656 3150.0824,526.62656 L 3151.3173,709.72044 L 3224.2938,709.72044 L 3224.5195,526.62656 C 3218.613,454.05236 3167.8802,416.55146 3116.5052,416.55146 C 3077.4941,416.55146 3050.0424,437.82831 3043.077,443.57271 L 3043.077,416.55146 L 2970.0583,416.55146 z "
             style="fill:#7a613e;fill-opacity:1;stroke:none;stroke-width:7;stroke-miterlimit:4;stroke-opacity:1"
             id="path13697" />
          <path
             style="fill:#7a613e;fill-opacity:1;stroke:none;stroke-width:7;stroke-miterlimit:4;stroke-dasharray:none;stroke-opacity:1"
             d="M 1566.1615,416.50912 C 1563.1341,416.53734 1560.0289,416.62908 1556.8039,416.72788 C 1520.6086,416.72788 1489.7341,453.38194 1489.7341,491.5956 C 1490.0588,536.78863 1511.6532,553.96538 1545.2163,576.70302 C 1587.5018,602.50342 1601.6581,598.31863 1598.2426,630.39974 C 1583.8674,665.56478 1519.1336,644.60549 1485.9516,634.40812 L 1468.3514,689.21985 C 1496.1066,700.89919 1525.8801,708.22435 1555.2443,709.72044 C 1601.6441,709.72044 1658.1777,693.46816 1658.1777,621.93134 C 1661.191,584.2399 1634.1204,560.83184 1613.1752,547.07068 C 1594.6859,530.90309 1551.7441,521.60902 1551.4546,492.48478 C 1559.9231,462.35844 1603.3165,478.93533 1623.8666,485.80181 L 1624.3112,422.07708 C 1604.1282,417.82876 1587.3607,416.29034 1566.1615,416.50912 z "
             id="path13699" />
          <path
             d="M 2375.8762,416.55145 L 2375.8762,489.35148 L 2476.5232,489.35148 L 2375.8762,673.62388 L 2375.8762,709.72044 L 2575.7022,709.72044 L 2575.7022,636.91336 L 2474.1309,636.91336 L 2575.7022,447.70106 L 2575.7022,416.55145 L 2375.8762,416.55145 z "
             style="fill:#7a613e;fill-opacity:1;stroke:none;stroke-width:7;stroke-miterlimit:4;stroke-opacity:1"
             id="path13701" />
        </g>
      </g>
    </g>
  </g>
</svg>
