<?xml version="1.0" encoding="UTF-8" standalone="no"?>
<!-- Created with Inkscape (http://www.inkscape.org/) -->

<svg
   xmlns:svg="http://www.w3.org/2000/svg"
   xmlns="http://www.w3.org/2000/svg"
   version="1.1"
   width="1219.6804"
   height="1303.193"
   id="svg2">
  <title
     id="title4583">Znak F-3</title>
  <defs
     id="defs4">
    <marker
       refX="0"
       refY="0"
       orient="auto"
       id="marker3281"
       style="overflow:visible">
      <path
         d="M 8.7185878,4.0337352 -2.2072895,0.01601326 8.7185884,-4.0017078 c -1.7454984,2.3720609 -1.7354408,5.6174519 -6e-7,8.035443 z"
         transform="matrix(1.1,0,0,1.1,1.1,0)"
         id="path3283"
         style="font-size:12px;fill-rule:evenodd;stroke-width:0.625;stroke-linejoin:round" />
    </marker>
    <pattern
       id="pattern3285"
       patternTransform="translate(18.50938,18)"
       height="476"
       width="370"
       patternUnits="userSpaceOnUse">
      <rect
         style="fill:#00e5ff;fill-opacity:1"
         id="rect3287"
         width="370"
         height="476"
         x="0"
         y="0"
         rx="20"
         ry="20" />
    </pattern>
    <pattern
       patternUnits="userSpaceOnUse"
       width="370"
       height="476"
       patternTransform="translate(18.50938,18)"
       id="pattern3289">
      <rect
         ry="20"
         rx="20"
         y="0"
         x="0"
         height="476"
         width="370"
         id="rect3291"
         style="fill:#00e5ff;fill-opacity:1" />
    </pattern>
    <marker
       refX="0"
       refY="0"
       orient="auto"
       id="marker3293"
       style="overflow:visible">
      <path
         d="M 8.7185878,4.0337352 -2.2072895,0.01601326 8.7185884,-4.0017078 c -1.7454984,2.3720609 -1.7354408,5.6174519 -6e-7,8.035443 z"
         transform="matrix(1.1,0,0,1.1,1.1,0)"
         id="path3295"
         style="font-size:12px;fill-rule:evenodd;stroke-width:0.625;stroke-linejoin:round" />
    </marker>
    <pattern
       id="pattern3297"
       patternTransform="translate(18.50938,18)"
       height="476"
       width="370"
       patternUnits="userSpaceOnUse">
      <rect
         style="fill:#00e5ff;fill-opacity:1"
         id="rect3299"
         width="370"
         height="476"
         x="0"
         y="0"
         rx="20"
         ry="20" />
    </pattern>
    <pattern
       patternUnits="userSpaceOnUse"
       width="370"
       height="476"
       patternTransform="translate(18.50938,18)"
       id="pattern3301">
      <rect
         ry="20"
         rx="20"
         y="0"
         x="0"
         height="476"
         width="370"
         id="rect3303"
         style="fill:#00e5ff;fill-opacity:1" />
    </pattern>
    <pattern
       patternUnits="userSpaceOnUse"
       width="370"
       height="476"
       patternTransform="translate(18.50938,18)"
       id="pattern3305">
      <rect
         ry="20"
         rx="20"
         y="0"
         x="0"
         height="476"
         width="370"
         id="rect3307"
         style="fill:#00e5ff;fill-opacity:1" />
    </pattern>
    <pattern
       id="pattern3309"
       patternTransform="translate(18.50938,18)"
       height="476"
       width="370"
       patternUnits="userSpaceOnUse">
      <rect
         style="fill:#00e5ff;fill-opacity:1"
         id="rect3311"
         width="370"
         height="476"
         x="0"
         y="0"
         rx="20"
         ry="20" />
    </pattern>
    <marker
       refX="0"
       refY="0"
       orient="auto"
       id="marker3313"
       style="overflow:visible">
      <path
         d="M 8.7185878,4.0337352 -2.2072895,0.01601326 8.7185884,-4.0017078 c -1.7454984,2.3720609 -1.7354408,5.6174519 -6e-7,8.035443 z"
         transform="matrix(1.1,0,0,1.1,1.1,0)"
         id="path3315"
         style="font-size:12px;fill-rule:evenodd;stroke-width:0.625;stroke-linejoin:round" />
    </marker>
    <pattern
       patternUnits="userSpaceOnUse"
       width="370"
       height="476"
       patternTransform="translate(18.50938,18)"
       id="pattern3317">
      <rect
         ry="20"
         rx="20"
         y="0"
         x="0"
         height="476"
         width="370"
         id="rect3319"
         style="fill:#00e5ff;fill-opacity:1" />
    </pattern>
    <marker
       refX="0"
       refY="0"
       orient="auto"
       id="marker3321"
       style="overflow:visible">
      <path
         d="M 8.7185878,4.0337352 -2.2072895,0.01601326 8.7185884,-4.0017078 c -1.7454984,2.3720609 -1.7354408,5.6174519 -6e-7,8.035443 z"
         transform="matrix(1.1,0,0,1.1,1.1,0)"
         id="path3323"
         style="font-size:12px;fill-rule:evenodd;stroke-width:0.625;stroke-linejoin:round" />
    </marker>
    <pattern
       id="pattern3325"
       patternTransform="translate(18.50938,18)"
       height="476"
       width="370"
       patternUnits="userSpaceOnUse">
      <rect
         style="fill:#00e5ff;fill-opacity:1"
         id="rect3327"
         width="370"
         height="476"
         x="0"
         y="0"
         rx="20"
         ry="20" />
    </pattern>
    <pattern
       patternUnits="userSpaceOnUse"
       width="370"
       height="476"
       patternTransform="translate(18.50938,18)"
       id="pattern3329">
      <rect
         ry="20"
         rx="20"
         y="0"
         x="0"
         height="476"
         width="370"
         id="rect3331"
         style="fill:#00e5ff;fill-opacity:1" />
    </pattern>
    <pattern
       patternUnits="userSpaceOnUse"
       width="370"
       height="476"
       patternTransform="translate(18.50938,18)"
       id="pattern3333">
      <rect
         ry="20"
         rx="20"
         y="0"
         x="0"
         height="476"
         width="370"
         id="rect3335"
         style="fill:#00e5ff;fill-opacity:1" />
    </pattern>
    <pattern
       id="pattern3337"
       patternTransform="translate(18.50938,18)"
       height="476"
       width="370"
       patternUnits="userSpaceOnUse">
      <rect
         style="fill:#00e5ff;fill-opacity:1"
         id="rect3339"
         width="370"
         height="476"
         x="0"
         y="0"
         rx="20"
         ry="20" />
    </pattern>
    <marker
       refX="0"
       refY="0"
       orient="auto"
       id="marker3341"
       style="overflow:visible">
      <path
         d="M 8.7185878,4.0337352 -2.2072895,0.01601326 8.7185884,-4.0017078 c -1.7454984,2.3720609 -1.7354408,5.6174519 -6e-7,8.035443 z"
         transform="matrix(1.1,0,0,1.1,1.1,0)"
         id="path3343"
         style="font-size:12px;fill-rule:evenodd;stroke-width:0.625;stroke-linejoin:round" />
    </marker>
    <marker
       refX="0"
       refY="0"
       orient="auto"
       id="marker4288"
       style="overflow:visible">
      <path
         d="M 8.7185878,4.0337352 -2.2072895,0.01601326 8.7185884,-4.0017078 c -1.7454984,2.3720609 -1.7354408,5.6174519 -6e-7,8.035443 z"
         transform="matrix(1.1,0,0,1.1,1.1,0)"
         id="path4290"
         style="font-size:12px;fill-rule:evenodd;stroke-width:0.625;stroke-linejoin:round" />
    </marker>
    <pattern
       id="pattern4292"
       patternTransform="translate(18.50938,18)"
       height="476"
       width="370"
       patternUnits="userSpaceOnUse">
      <rect
         style="fill:#00e5ff;fill-opacity:1"
         id="rect4294"
         width="370"
         height="476"
         x="0"
         y="0"
         rx="20"
         ry="20" />
    </pattern>
    <pattern
       patternUnits="userSpaceOnUse"
       width="370"
       height="476"
       patternTransform="translate(18.50938,18)"
       id="pattern4296">
      <rect
         ry="20"
         rx="20"
         y="0"
         x="0"
         height="476"
         width="370"
         id="rect4298"
         style="fill:#00e5ff;fill-opacity:1" />
    </pattern>
    <marker
       refX="0"
       refY="0"
       orient="auto"
       id="marker3928"
       style="overflow:visible">
      <path
         d="M 8.7185878,4.0337352 -2.2072895,0.01601326 8.7185884,-4.0017078 c -1.7454984,2.3720609 -1.7354408,5.6174519 -6e-7,8.035443 z"
         transform="matrix(1.1,0,0,1.1,1.1,0)"
         id="path3930"
         style="font-size:12px;fill-rule:evenodd;stroke-width:0.625;stroke-linejoin:round" />
    </marker>
    <pattern
       id="pattern3932"
       patternTransform="translate(18.50938,18)"
       height="476"
       width="370"
       patternUnits="userSpaceOnUse">
      <rect
         style="fill:#00e5ff;fill-opacity:1"
         id="rect3934"
         width="370"
         height="476"
         x="0"
         y="0"
         rx="20"
         ry="20" />
    </pattern>
    <pattern
       patternUnits="userSpaceOnUse"
       width="370"
       height="476"
       patternTransform="translate(18.50938,18)"
       id="pattern3936">
      <rect
         ry="20"
         rx="20"
         y="0"
         x="0"
         height="476"
         width="370"
         id="rect3938"
         style="fill:#00e5ff;fill-opacity:1" />
    </pattern>
    <pattern
       patternUnits="userSpaceOnUse"
       width="370"
       height="476"
       patternTransform="translate(18.50938,18)"
       id="pattern2321">
      <rect
         ry="20"
         rx="20"
         y="0"
         x="0"
         height="476"
         width="370"
         id="rect2323"
         style="fill:#00e5ff;fill-opacity:1" />
    </pattern>
    <pattern
       id="pattern2317"
       patternTransform="translate(18.50938,18)"
       height="476"
       width="370"
       patternUnits="userSpaceOnUse">
      <rect
         style="fill:#00e5ff;fill-opacity:1"
         id="rect2319"
         width="370"
         height="476"
         x="0"
         y="0"
         rx="20"
         ry="20" />
    </pattern>
    <marker
       refX="0"
       refY="0"
       orient="auto"
       id="marker2313"
       style="overflow:visible">
      <path
         d="M 8.7185878,4.0337352 -2.2072895,0.01601326 8.7185884,-4.0017078 c -1.7454984,2.3720609 -1.7354408,5.6174519 -6e-7,8.035443 z"
         transform="matrix(1.1,0,0,1.1,1.1,0)"
         id="path2315"
         style="font-size:12px;fill-rule:evenodd;stroke-width:0.625;stroke-linejoin:round" />
    </marker>
    <pattern
       patternUnits="userSpaceOnUse"
       width="370"
       height="476"
       patternTransform="translate(18.50938,18)"
       id="pattern5613">
      <rect
         ry="20"
         rx="20"
         y="0"
         x="0"
         height="476"
         width="370"
         id="rect5615"
         style="fill:#00e5ff;fill-opacity:1" />
    </pattern>
    <marker
       refX="0"
       refY="0"
       orient="auto"
       id="marker2936"
       style="overflow:visible">
      <path
         d="M 8.7185878,4.0337352 -2.2072895,0.01601326 8.7185884,-4.0017078 c -1.7454984,2.3720609 -1.7354408,5.6174519 -6e-7,8.035443 z"
         transform="matrix(1.1,0,0,1.1,1.1,0)"
         id="path2938"
         style="font-size:12px;fill-rule:evenodd;stroke-width:0.625;stroke-linejoin:round" />
    </marker>
    <pattern
       id="pattern2940"
       patternTransform="translate(18.50938,18)"
       height="476"
       width="370"
       patternUnits="userSpaceOnUse">
      <rect
         style="fill:#00e5ff;fill-opacity:1"
         id="rect2942"
         width="370"
         height="476"
         x="0"
         y="0"
         rx="20"
         ry="20" />
    </pattern>
    <pattern
       patternUnits="userSpaceOnUse"
       width="370"
       height="476"
       patternTransform="translate(18.50938,18)"
       id="pattern2944">
      <rect
         ry="20"
         rx="20"
         y="0"
         x="0"
         height="476"
         width="370"
         id="rect2946"
         style="fill:#00e5ff;fill-opacity:1" />
    </pattern>
    <pattern
       patternUnits="userSpaceOnUse"
       width="370"
       height="476"
       patternTransform="translate(18.50938,18)"
       id="pattern5932">
      <rect
         ry="20"
         rx="20"
         y="0"
         x="0"
         height="476"
         width="370"
         id="rect5934"
         style="fill:#00e5ff;fill-opacity:1" />
    </pattern>
    <pattern
       id="pattern4002"
       patternTransform="translate(18.50938,18)"
       height="476"
       width="370"
       patternUnits="userSpaceOnUse">
      <rect
         style="fill:#00e5ff;fill-opacity:1"
         id="rect2240"
         width="370"
         height="476"
         x="0"
         y="0"
         rx="20"
         ry="20" />
    </pattern>
    <marker
       refX="0"
       refY="0"
       orient="auto"
       id="Arrow2Lstart"
       style="overflow:visible">
      <path
         d="M 8.7185878,4.0337352 -2.2072895,0.01601326 8.7185884,-4.0017078 c -1.7454984,2.3720609 -1.7354408,5.6174519 -6e-7,8.035443 z"
         transform="matrix(1.1,0,0,1.1,1.1,0)"
         id="path5785"
         style="font-size:12px;fill-rule:evenodd;stroke-width:0.625;stroke-linejoin:round" />
    </marker>
  </defs>
  <g
     transform="translate(358.82871,522.09373)"
     id="layer1">
    <g
       transform="matrix(2.2376526,0,0,2.2376526,176.6895,224.31201)"
       id="g4523">
      <rect
         width="543.57141"
         height="580.89288"
         rx="7.2403212"
         ry="7.2403212"
         x="-238.57143"
         y="-332.81641"
         id="rect3032"
         style="fill:#ffffff;fill-opacity:1;stroke:#000000;stroke-width:1.5;stroke-miterlimit:4;stroke-opacity:1;stroke-dasharray:none" />
      <rect
         width="533.23218"
         height="569.91077"
         rx="4.0260353"
         ry="4.0260353"
         x="-233.48215"
         y="-327.28073"
         id="rect3866"
         style="fill:#003399;fill-opacity:1;stroke:none" />
      <g
         id="text3868"
         style="font-size:70.29772186px;font-style:normal;font-variant:normal;font-weight:bold;font-stretch:normal;text-align:start;line-height:125%;writing-mode:lr-tb;text-anchor:start;fill:#ffffff;fill-opacity:1;stroke:none;font-family:Drogowskaz;-inkscape-font-specification:Drogowskaz Bold">
        <path
           d="m -211.25,-303.07931 13.18087,52.72349 8.78725,0 8.78725,-35.14899 8.78725,35.14899 8.78725,0 13.18087,-52.72349 -8.78725,0 -8.78725,35.14899 -8.78724,-35.14899 -8.78725,0 -8.78725,35.14899 -8.78725,-35.14899 -8.78725,0 z"
           id="path3921" />
        <path
           d="m -144.81554,-267.93032 c 0.13382,5.28755 1.95754,9.68812 5.47116,13.20174 3.51361,3.51362 7.91418,5.33734 13.20174,5.47117 5.28752,-0.13383 9.68809,-1.95755 13.20174,-5.47117 3.51358,-3.51362 5.3373,-7.91419 5.47117,-13.20174 -0.13387,-5.28752 -1.95759,-9.6881 -5.47116,-13.20174 -3.51366,-3.51359 -7.91423,-5.3373 -13.20175,-5.47116 -5.28756,0.13386 -9.68813,1.95758 -13.20174,5.47116 -3.51363,3.51365 -5.33734,7.91422 -5.47116,13.20174 z m 8.78725,0 c 0.0708,-2.79926 1.03633,-5.12898 2.8965,-6.98916 1.86013,-1.86012 4.18984,-2.82562 6.98915,-2.89649 2.79926,0.0709 5.12898,1.03637 6.98916,2.89649 1.86012,1.86018 2.82562,4.18989 2.8965,6.98916 -0.0709,2.7993 -1.03638,5.12902 -2.8965,6.98916 -1.86018,1.86016 -4.1899,2.82566 -6.98916,2.8965 -2.7993,-0.0708 -5.12902,-1.03634 -6.98915,-2.8965 -1.86017,-1.86014 -2.82567,-4.18986 -2.8965,-6.98916 z"
           id="path3923" />
        <path
           d="m -87.698597,-250.35582 0,-35.14899 -8.787249,0 0,35.14899 c -0.06298,2.48826 -0.921198,4.55913 -2.574655,6.21259 -1.653459,1.65346 -3.724319,2.51168 -6.212589,2.57466 l 4.12342,8.30011 c 3.935254,-1.00679 7.141327,-3.05165 9.618223,-6.13457 2.476872,-3.08294 3.754488,-6.73386 3.83285,-10.95279 z m -8.787249,-52.72349 0,8.78725 8.787249,0 0,-8.78725 -8.787249,0 z"
           id="path3925" />
        <path
           d="m -47.998164,-271.22554 -18.672903,0 c 0.69793,-1.95651 1.883291,-3.53547 3.556089,-4.73687 1.672763,-1.20136 3.599548,-1.81921 5.780363,-1.85356 2.180768,0.0344 4.107553,0.65221 5.780361,1.85356 1.672751,1.20141 2.858113,2.78036 3.55609,4.73687 z m -18.672903,6.59044 24.714137,0 0,-13.83992 c -1.732317,-2.50113 -3.924551,-4.47368 -6.576709,-5.91766 -2.652222,-1.44391 -5.585878,-2.18076 -8.800976,-2.21054 -5.295252,0.13276 -9.698026,1.95428 -13.208335,5.46457 -3.510329,3.51035 -5.33185,7.91312 -5.464569,13.20833 0.132719,5.29525 1.95424,9.69802 5.46457,13.20833 3.51031,3.51033 7.913083,5.33185 13.208334,5.46458 1.006847,-0.0183 1.958798,-0.0915 2.855856,-0.21968 l 5.931392,-0.87873 4.393625,-8.78725 c -0.968005,0.14189 -2.890213,0.35241 -5.766631,0.63158 -2.876479,0.27919 -5.347891,0.4348 -7.414242,0.46683 -2.171206,-0.0274 -4.07877,-0.63158 -5.722698,-1.81237 -1.643964,-1.18078 -2.848547,-2.77347 -3.613754,-4.77807 z"
           id="path3927" />
        <path
           d="m -35.101489,-285.50481 8.787249,35.14899 8.787248,0 6.590437,-21.0894 6.5904364,21.0894 8.7872488,0 8.7872488,-35.14899 -8.7872488,0 -4.88175509,19.52713 -6.10230591,-19.52713 -8.7872482,0 -6.102306,19.52713 -4.881755,-19.52713 -8.787249,0 z"
           id="path3929" />
        <path
           d="m 43.061925,-303.07931 -4.393624,13.18087 13.180873,-13.18087 -8.787249,0 z m -23.066528,35.14899 c 0.133818,5.28755 1.957537,9.68812 5.471161,13.20174 3.513605,3.51362 7.914181,5.33734 13.201743,5.47117 5.287514,-0.13383 9.68809,-1.95755 13.201741,-5.47117 3.513578,-3.51362 5.337297,-7.91419 5.471162,-13.20174 -0.133864,-5.28752 -1.957582,-9.6881 -5.471161,-13.20174 -3.513652,-3.51359 -7.914228,-5.3373 -13.201742,-5.47116 -5.287562,0.13386 -9.688139,1.95758 -13.201744,5.47116 -3.513625,3.51365 -5.337343,7.91422 -5.47116,13.20174 z m 8.787249,0 c 0.07083,-2.79926 1.036332,-5.12898 2.896496,-6.98916 1.860133,-1.86012 4.18985,-2.82562 6.989159,-2.89649 2.799261,0.0709 5.128977,1.03637 6.989156,2.89649 1.860119,1.86018 2.825617,4.18989 2.896499,6.98916 -0.07088,2.7993 -1.036379,5.12902 -2.896499,6.98916 -1.86018,1.86016 -4.189896,2.82566 -6.989156,2.8965 -2.799308,-0.0708 -5.129025,-1.03634 -6.989159,-2.8965 -1.860166,-1.86014 -2.825664,-4.18986 -2.896496,-6.98916 z"
           id="path3931" />
        <path
           d="m 66.969249,-267.93032 c 0.128144,4.96115 1.848978,9.09848 5.162508,12.41199 3.313511,3.31353 7.450837,5.03436 12.41199,5.16251 1.602183,-0.005 3.142499,-0.21141 4.620952,-0.62033 1.478401,-0.40893 2.867165,-0.99224 4.166297,-1.74993 l 0,2.37026 8.787244,0 0,-52.72349 -8.787244,0 0,19.94475 c -1.29913,-0.75767 -2.687894,-1.34097 -4.166295,-1.74993 -1.478455,-0.40889 -3.018771,-0.61566 -4.620954,-0.62032 -4.961151,0.12818 -9.098477,1.84901 -12.41199,5.1625 -3.313531,3.31355 -5.034365,7.45088 -5.162508,12.41199 z m 8.787249,0 c 0.06406,-2.53318 0.924479,-4.63388 2.581256,-6.3021 1.656745,-1.66818 3.725407,-2.53318 6.205993,-2.59499 2.480542,0.0618 4.549205,0.92681 6.205993,2.59499 1.656733,1.66822 2.517151,3.76892 2.581256,6.3021 -0.0641,2.53322 -0.924521,4.63392 -2.581255,6.30211 -1.656789,1.66821 -3.725452,2.5332 -6.205994,2.59498 -2.480587,-0.0618 -4.549251,-0.92677 -6.205997,-2.59498 -1.656776,-1.66819 -2.517193,-3.76889 -2.581252,-6.30211 z"
           id="path3933" />
        <path
           d="m 136.88262,-259.14307 -12.11904,0 12.11904,-22.29764 0,-4.0641 -24.16493,0 0,8.78724 12.08246,0 -12.08246,22.29787 0,4.06388 24.16493,0 0,-8.78725 z"
           id="path3935" />
        <path
           d="m 149.58796,-294.29206 0,8.78725 -6.59043,0 0,8.78724 6.59043,0 0,13.18088 c 0.0945,3.7324 1.38179,6.83869 3.862,9.31888 2.48018,2.4802 5.58647,3.76753 9.31888,3.86199 l 4.55838,-8.78725 -4.55838,0 c -1.24415,-0.0315 -2.27958,-0.46059 -3.1063,-1.28733 -0.82675,-0.82672 -1.25586,-1.86215 -1.28733,-3.10629 l 0,-13.18088 6.59044,0 0,-8.78724 -6.59044,0 0,-17.5745 -8.78725,8.78725 z"
           id="path3937" />
        <path
           d="m 172.84231,-285.50481 8.78724,35.14899 8.78725,0 6.59044,-21.0894 6.59044,21.0894 8.78724,0 8.78725,-35.14899 -8.78725,0 -4.88175,19.52713 -6.10231,-19.52713 -8.78724,0 -6.10231,19.52713 -4.88176,-19.52713 -8.78724,0 z"
           id="path3939" />
        <path
           d="m 228.15366,-267.93032 c 0.13382,5.28755 1.95754,9.68812 5.47117,13.20174 3.5136,3.51362 7.91418,5.33734 13.20174,5.47117 5.28751,-0.13383 9.68809,-1.95755 13.20174,-5.47117 3.51358,-3.51362 5.3373,-7.91419 5.47116,-13.20174 -0.13386,-5.28752 -1.95758,-9.6881 -5.47116,-13.20174 -3.51365,-3.51359 -7.91423,-5.3373 -13.20174,-5.47116 -5.28756,0.13386 -9.68814,1.95758 -13.20175,5.47116 -3.51362,3.51365 -5.33734,7.91422 -5.47116,13.20174 z m 8.78725,0 c 0.0708,-2.79926 1.03634,-5.12898 2.8965,-6.98916 1.86013,-1.86012 4.18985,-2.82562 6.98916,-2.89649 2.79926,0.0709 5.12898,1.03637 6.98915,2.89649 1.86012,1.86018 2.82562,4.18989 2.8965,6.98916 -0.0709,2.7993 -1.03638,5.12902 -2.8965,6.98916 -1.86018,1.86016 -4.18989,2.82566 -6.98915,2.8965 -2.79931,-0.0708 -5.12903,-1.03634 -6.98916,-2.8965 -1.86017,-1.86014 -2.82566,-4.18986 -2.8965,-6.98916 z"
           id="path3941" />
      </g>
      <g
         id="text3872"
         style="font-size:73.54975128px;font-style:normal;font-variant:normal;font-weight:bold;font-stretch:normal;text-align:start;line-height:125%;writing-mode:lr-tb;text-anchor:start;fill:#ffffff;fill-opacity:1;stroke:none;font-family:Drogowskaz;-inkscape-font-specification:Drogowskaz Bold">
        <path
           d="m -61.066049,-235.66141 -4.596877,13.79064 13.790633,-13.79064 -9.193756,0 z m 1.152093,52.63999 c 1.042682,0.61419 1.873719,1.44048 2.493116,2.47885 0.619335,1.03841 0.936558,2.20219 0.95167,3.49134 -0.04945,1.95254 -0.72289,3.57754 -2.020329,4.87499 -1.297497,1.29748 -2.922492,1.97092 -4.874988,2.02033 -2.992379,-0.004 -5.907762,-0.27453 -8.746157,-0.81134 -2.838428,-0.53679 -5.575271,-1.31538 -8.210538,-2.33577 l -2.910088,8.73194 c 3.094064,1.17081 6.303551,2.06386 9.628471,2.67913 3.32489,0.61527 6.737658,0.9252 10.238312,0.9298 4.555858,-0.11531 8.347511,-1.68667 11.374971,-4.71409 3.027387,-3.02741 4.598753,-6.81907 4.7141,-11.37498 -0.03515,-3.0072 -0.774868,-5.72216 -2.219144,-8.14488 -1.444354,-2.42268 -3.382586,-4.35045 -5.814705,-5.78332 l -10.89931,-6.36138 c -0.875065,-0.51457 -1.574198,-1.20535 -2.0974,-2.07235 -0.523241,-0.86693 -0.791444,-1.84056 -0.804609,-2.9209 0.04116,-1.62706 0.602362,-2.98122 1.683606,-4.06249 1.081202,-1.08118 2.435364,-1.64238 4.062491,-1.6836 4.328675,0.013 8.480226,0.58283 12.454663,1.70946 l 2.917867,-8.73004 c -4.897127,-1.43169 -10.021299,-2.15608 -15.37253,-2.17318 -4.230489,0.10713 -7.75131,1.56625 -10.562471,4.37738 -2.811191,2.81123 -4.270312,6.33205 -4.377369,10.56247 0.03232,2.78991 0.717524,5.30932 2.055616,7.55826 1.33807,2.249 3.135058,4.03812 5.39097,5.36736 l 10.943785,6.38701 z"
           id="path4027" />
        <path
           d="m -38.099743,-217.2739 0,55.16253 9.193754,0 0,-55.16253 -9.193754,0 z"
           id="path4029" />
        <path
           d="m -9.5990245,-180.49888 c 0.067025,-2.65037 0.9672463,-4.84825 2.7006663,-6.59365 1.7333875,-1.74535 3.8977479,-2.65036 6.49308772,-2.71503 2.59529418,0.0647 4.75965458,0.96968 6.49308768,2.71503 1.733374,1.7454 2.633596,3.94328 2.700666,6.59365 -0.06707,2.6504 -0.96729,4.84828 -2.700665,6.59364 -1.7334337,1.74539 -3.8977945,2.6504 -6.49308868,2.71503 -2.59534122,-0.0646 -4.75970272,-0.96964 -6.49309102,-2.71503 -1.7334207,-1.74536 -2.6336408,-3.94324 -2.700663,-6.59364 z m -9.1937545,0 c 0.134072,5.19065 1.934513,9.51937 5.40133,12.98617 3.466797,3.46682 7.7955188,5.26726 12.98617852,5.40134 1.98603988,-0.008 3.87768648,-0.30852 5.67494568,-0.90148 1.797202,-0.59296 3.451851,-1.43024 4.9639518,-2.51184 l 0.853295,3.41332 9.193754,0 -2.298439,-9.19376 0,-27.58126 -9.1937538,0 0,2.4799 c -1.359228,-0.79271 -2.812237,-1.403 -4.3590312,-1.83088 -1.5468488,-0.4278 -3.1584214,-0.64414 -4.83472248,-0.64902 -5.19065822,0.13411 -9.51938012,1.93455 -12.98617852,5.40133 -3.466818,3.46684 -5.26726,7.79556 -5.40133,12.98618 z m 34.299137,30.88159 c -1.711282,-0.55826 -3.097613,-1.54297 -4.158997,-2.95413 -1.061453,-1.41118 -1.6079924,-3.05887 -1.6396184,-4.94307 0.01575,-1.72707 0.4754754,-3.25936 1.3791794,-4.59688 -1.4190694,1.06454 -2.5359478,2.38771 -3.3506378,3.9695 -0.814751,1.58179 -1.230203,3.3232 -1.246355,5.22425 0.01719,1.89502 0.434709,3.63403 1.252563,5.21703 0.817792,1.58297 1.9326014,2.90739 3.3444298,3.97328 l 4.419436,-5.88998 z"
           id="path4031" />
        <path
           d="m 41.035404,-198.88639 c -2.853911,0.0647 -5.305575,1.05588 -7.355,2.97361 -2.049446,1.91779 -3.122047,4.37424 -3.217806,7.36936 0.09337,2.40381 0.682342,4.31917 1.766924,5.7461 1.084563,1.42697 2.10449,2.42296 3.059786,2.98797 l 7.469925,4.36703 c 0.524311,0.2969 0.940902,0.7087 1.249774,1.23541 0.30883,0.52674 0.466848,1.11093 0.474055,1.75256 -0.02157,0.9984 -0.351971,1.81722 -0.991204,2.45646 -0.639274,0.63926 -1.458091,0.96966 -2.456454,0.9912 -2.17014,-0.01 -4.217482,-0.22024 -6.142032,-0.63201 -1.924574,-0.41177 -3.720524,-0.9672 -5.387855,-1.66631 l -2.528283,7.69977 c 2.026819,0.83071 4.235704,1.47711 6.626661,1.93919 2.390936,0.46207 4.868103,0.69671 7.431509,0.7039 3.244128,-0.0838 5.949578,-1.20908 8.116359,-3.37584 2.166727,-2.16675 3.292004,-4.8722 3.375834,-8.11636 -0.02637,-2.14998 -0.548302,-4.0845 -1.565811,-5.80356 -1.017566,-1.71902 -2.372686,-3.07893 -4.065364,-4.07972 l -7.010237,-4.25211 c -0.349574,-0.17476 -0.627302,-0.42854 -0.833187,-0.76136 -0.205917,-0.33277 -0.311261,-0.73021 -0.316032,-1.19232 0.01674,-0.6488 0.241799,-1.18989 0.675166,-1.62327 0.433334,-0.43332 0.974425,-0.65838 1.623272,-0.67517 1.419545,0.005 2.810974,0.11017 4.174293,0.31605 1.363273,0.20595 2.627801,0.48371 3.793587,0.83329 l 0,-8.27426 c -1.068822,-0.27721 -2.27948,-0.49874 -3.631979,-0.6646 -1.352544,-0.16579 -2.797843,-0.25079 -4.335901,-0.25501 z"
           id="path4033" />
        <path
           d="m 62.832916,-217.2739 0,55.16253 9.193754,0 0,-13.73318 3.490754,0 10.299877,13.73318 11.491271,0 -13.78971,-18.38751 13.78971,-18.38671 -11.491271,0 -10.299877,13.73237 -3.490754,0 0,-32.12068 -9.193754,0 z"
           id="path4035" />
        <path
           d="m 102.79044,-198.88639 0,36.77502 9.19375,0 0,-36.77502 -9.19375,0 z m 0,-18.38751 0,9.19376 9.19375,0 0,-9.19376 -9.19375,0 z"
           id="path4037" />
        <path
           d="m 151.54395,-183.94654 -19.53673,0 c 0.73022,-2.04702 1.97042,-3.69903 3.7206,-4.95601 1.75014,-1.25693 3.76607,-1.90336 6.04777,-1.93931 2.28165,0.0359 4.29757,0.68238 6.04776,1.93931 1.75014,1.25699 2.99033,2.90899 3.7206,4.95601 z m -19.53673,6.89532 25.85744,0 0,-14.48017 c -1.81246,-2.61683 -4.10611,-4.68064 -6.88096,-6.19142 -2.77491,-1.5107 -5.84428,-2.28164 -9.20811,-2.3128 -5.54022,0.1389 -10.14667,2.04469 -13.81937,5.71737 -3.67272,3.67274 -5.5785,8.27919 -5.71736,13.81936 0.13886,5.54021 2.04464,10.14665 5.71736,13.81936 3.6727,3.67271 8.27915,5.5785 13.81937,5.71737 1.05342,-0.0192 2.04941,-0.0958 2.98797,-0.22985 l 6.20578,-0.91937 4.59688,-9.19376 c -1.01279,0.14845 -3.02392,0.36872 -6.0334,0.6608 -3.00955,0.2921 -5.59529,0.45491 -7.75723,0.48842 -2.27165,-0.0287 -4.26746,-0.66079 -5.98744,-1.89621 -1.72001,-1.2354 -2.98032,-2.90177 -3.78093,-4.9991 z"
           id="path4039" />
      </g>
      <g
         id="text3876"
         style="font-size:70.29772186px;font-style:normal;font-variant:normal;font-weight:bold;font-stretch:normal;text-align:start;line-height:125%;writing-mode:lr-tb;text-anchor:start;fill:#ffffff;fill-opacity:1;stroke:none;font-family:Drogowskaz;-inkscape-font-specification:Drogowskaz Bold">
        <path
           d="m -51.039658,-91.302343 c 2.47216,-1.716383 4.429329,-3.903564 5.871515,-6.561549 1.442111,-2.657928 2.179036,-5.596638 2.210778,-8.816138 -0.03171,-3.21957 -0.768584,-6.15832 -2.210613,-8.81626 -1.442103,-2.65785 -3.399328,-4.84499 -5.87168,-6.56142 l -24.86989,0 0,52.723489 8.787249,0 0,-21.968122 16.082641,0 z m -3.22459,-8.787247 -12.858051,0 0,-13.18021 12.858051,0 c 0.790511,0.88176 1.406323,1.88237 1.847437,3.00181 0.441053,1.11953 0.665118,2.31552 0.672197,3.58796 -0.0071,1.27246 -0.23135,2.46854 -0.67261,3.58825 -0.44132,1.11977 -1.056994,2.1205 -1.847024,3.00219 z"
           id="path4042" />
        <path
           d="m -38.210337,-86.908718 c 0.133818,5.287546 1.957536,9.68812 5.47116,13.201734 3.513605,3.513623 7.914182,5.337344 13.201743,5.471169 5.287514,-0.133825 9.6880897,-1.957546 13.2017404,-5.47117 3.5135782,-3.513615 5.3372974,-7.914188 5.4711629,-13.201733 -0.1338641,-5.287521 -1.9575829,-9.688098 -5.4711619,-13.201742 -3.5136507,-3.51359 -7.9142274,-5.3373 -13.2017414,-5.47116 -5.287561,0.13386 -9.688138,1.95758 -13.201744,5.47116 -3.513625,3.513644 -5.337343,7.914221 -5.471159,13.201742 z m 8.787248,0 c 0.07083,-2.799267 1.036332,-5.128984 2.896497,-6.989159 1.860132,-1.860125 4.18985,-2.825623 6.989158,-2.896496 2.799261,0.07087 5.128978,1.036372 6.989157,2.896496 1.860118,1.860173 2.8256164,4.18989 2.8964974,6.989159 -0.07088,2.799301 -1.0363774,5.129018 -2.8964974,6.989156 -1.86018,1.860159 -4.189897,2.825658 -6.989157,2.896498 -2.799307,-0.07084 -5.129024,-1.036337 -6.989158,-2.896498 -1.860166,-1.860139 -2.825664,-4.189856 -2.896497,-6.989156 z"
           id="path4044" />
        <path
           d="m 6.256065,-104.48322 8.78725,35.148999 8.787249,0 6.590437,-21.089397 6.590436,21.089397 8.787249,0 8.787249,-35.148999 -8.787249,0 -4.881755,19.527137 -6.102306,-19.527137 -8.787249,0 -6.102306,19.527137 -4.881755,-19.527137 -8.78725,0 z"
           id="path4046" />
        <path
           d="m 63.549748,-104.48322 0,35.148999 8.787248,0 0,-35.148999 -8.787248,0 z m 0,-17.57449 0,8.78725 8.787248,0 0,-8.78725 -8.787248,0 z"
           id="path4048" />
        <path
           d="m 83.808409,-86.908718 c 0.128144,4.961147 1.848978,9.098472 5.162508,12.411987 3.313511,3.313526 7.450837,5.034361 12.411983,5.16251 1.89823,-0.0077 3.70623,-0.294874 5.42403,-0.861616 1.71773,-0.56674 3.29922,-1.366999 4.74446,-2.400781 l 0.81557,3.262397 8.78725,0 -2.19681,-8.787249 0,-26.36175 -8.78725,0 0,2.37026 c -1.29913,-0.75767 -2.68789,-1.34098 -4.1663,-1.74993 -1.47845,-0.40889 -3.01877,-0.61566 -4.62095,-0.62033 -4.961144,0.12819 -9.09847,1.84902 -12.411983,5.162512 -3.313531,3.31355 -5.034366,7.450876 -5.162508,12.41199 z m 8.787249,0 c 0.06406,-2.53318 0.924479,-4.63388 2.581255,-6.302107 1.656746,-1.668179 3.725408,-2.533172 6.205987,-2.594983 2.48054,0.06181 4.5492,0.926806 6.20599,2.594984 1.65674,1.668227 2.51715,3.768926 2.58126,6.302106 -0.0641,2.533214 -0.92452,4.633913 -2.58126,6.302104 -1.65679,1.668213 -3.72545,2.533207 -6.20599,2.594985 -2.48058,-0.06178 -4.549244,-0.926771 -6.20599,-2.594984 -1.656777,-1.668191 -2.517193,-3.768891 -2.581252,-6.302105 z"
           id="path4050" />
        <path
           d="m 134.45676,-113.27046 0,8.78724 -6.59043,0 0,8.787253 6.59043,0 0,13.180873 c 0.0945,3.732403 1.38179,6.838695 3.862,9.318885 2.48019,2.480198 5.58648,3.767526 9.31888,3.861988 l 4.55838,-8.787249 -4.55838,0 c -1.24415,-0.03148 -2.27958,-0.460586 -3.10629,-1.287327 -0.82676,-0.82672 -1.25587,-1.862151 -1.28734,-3.106297 l 0,-13.180873 6.59044,0 0,-8.787253 -6.59044,0 0,-17.57449 -8.78725,8.78725 z"
           id="path4052" />
      </g>
      <g
         id="text3880"
         style="font-size:71.41960907px;font-style:normal;font-variant:normal;font-weight:bold;font-stretch:normal;text-align:start;line-height:125%;writing-mode:lr-tb;text-anchor:start;fill:#ffffff;fill-opacity:1;stroke:none;font-family:Drogowskaz;-inkscape-font-specification:Drogowskaz Bold">
        <path
           d="m -176.8742,20.473019 -4.33552,-8.039479 c -1.71219,1.608597 -3.67245,2.863702 -5.8808,3.765319 -2.20842,0.901636 -4.57508,1.359936 -7.09999,1.374903 -5.37195,-0.135951 -9.84276,-1.988774 -13.41243,-5.558477 -3.56971,-3.5696759 -5.42253,-8.0404813 -5.55847,-13.4124294 0.13594,-5.3718961 1.98877,-9.8427026 5.55847,-13.4124316 3.56967,-3.569649 8.04048,-5.422472 13.41243,-5.558474 2.54411,0.01536 4.92724,0.480346 7.14941,1.394962 2.2221,0.914704 4.19133,2.187153 5.90771,3.81735 l 4.34333,-8.044557 c -2.40151,-1.922564 -5.07566,-3.415192 -8.02246,-4.477889 -2.94689,-1.06259 -6.07288,-1.601707 -9.37799,-1.617352 -7.89991,0.199993 -14.47463,2.924734 -19.72416,8.17423 -5.24955,5.249588 -7.97429,11.8243024 -8.17423,19.7241616 0.19994,7.8999127 2.92468,14.4746264 8.17423,19.7241624 5.24953,5.249549 11.82425,7.974289 19.72416,8.174229 3.28554,-0.01532 6.39433,-0.548313 9.32638,-1.598979 2.93197,-1.050666 5.59528,-2.52708 7.98993,-4.429249 z"
           id="path4082" />
        <path
           d="m -143.86092,16.457826 -12.31245,0 12.31245,-22.6534937 0,-4.1289623 -24.55059,0 0,8.9274856 12.27529,0 -12.27529,22.6537174 0,4.128738 24.55059,0 0,-8.927485 z"
           id="path4084" />
        <path
           d="m -103.11382,37.54901 c -1.64836,-0.537056 -2.98283,-1.49955 -4.00342,-2.887485 -1.02065,-1.387954 -1.54606,-2.992109 -1.57626,-4.812471 -3e-5,-0.841607 0.11157,-1.64136 0.33478,-2.399263 0.22316,-0.757907 0.55794,-1.446066 1.00435,-2.06448 -1.35776,1.020613 -2.43649,2.299288 -3.23622,3.836027 -0.79978,1.536732 -1.20896,3.233883 -1.22753,5.091458 0.0186,1.857558 0.42775,3.554708 1.22753,5.091456 0.79973,1.536721 1.87846,2.815396 3.23622,3.83603 l 4.24055,-5.691272 z m -3.68259,-33.3664762 -18.9709,0 c 0.70907,-1.9877381 1.91335,-3.59189462 3.61284,-4.81247435 1.69946,-1.22052765 3.65699,-1.84824025 5.87261,-1.88313955 2.21557,0.034902 4.17311,0.6626158 5.87261,1.88314275 1.69945,1.22057901 2.90373,2.82473445 3.61284,4.81247115 z m -18.9709,6.6956142 25.10855,0 0,-14.0607895 c -1.75996,-2.5410473 -3.98718,-4.5450798 -6.68167,-6.0121036 -2.69455,-1.4669549 -5.67502,-2.2155609 -8.94143,-2.2458199 -5.37976,0.134878 -9.8528,1.9854691 -13.41913,5.551779 -3.56635,3.5663725 -5.41694,8.0394103 -5.55177,13.4191267 0.13483,5.3797523 1.98542,9.8527893 5.55177,13.4191243 3.56634,3.566345 8.03937,5.416937 13.41913,5.551782 1.02292,-0.0186 1.99006,-0.093 2.90143,-0.223187 l 6.02606,-0.892749 4.46374,-8.927485 c -0.11576,0.01379 -1.07464,0.110224 -2.87664,0.289315 -1.80206,0.179109 -3.75288,0.358209 -5.85246,0.537302 -2.09964,0.179109 -3.65368,0.275548 -4.66213,0.289319 -2.20864,-0.02789 -4.15223,-0.641655 -5.83076,-1.841295 -1.67857,-1.199621 -2.8968,-2.817726 -3.65469,-4.854319 z"
           id="path4086" />
        <path
           d="m -79.178617,-10.32463 c -2.771256,0.06281 -5.151915,1.0253011 -7.141985,2.8874841 -1.990091,1.8622487 -3.031627,4.2475587 -3.124612,7.15593711 0.09066,2.33418749 0.66258,4.19407839 1.71575,5.57967829 1.053152,1.38564 2.043541,2.3527833 2.971169,2.9014326 l 7.253582,4.2405559 c 0.509125,0.288295 0.913651,0.688172 1.213578,1.199631 0.299885,0.511483 0.453327,1.078749 0.460325,1.701801 -0.02094,0.969479 -0.341777,1.764583 -0.962496,2.385313 -0.62076,0.620746 -1.415863,0.941577 -2.385311,0.962494 -2.107289,-0.0093 -4.095336,-0.213857 -5.964147,-0.613709 -1.868834,-0.399838 -3.61277,-0.939187 -5.231813,-1.618049 l -2.455058,7.476769 c 1.968118,0.806658 4.113029,1.434333 6.43474,1.883027 2.32169,0.448694 4.727113,0.676531 7.216278,0.683512 3.150172,-0.08137 5.777267,-1.174057 7.881293,-3.27806 2.103975,-2.104 3.196662,-4.731096 3.278064,-7.881297 -0.0256,-2.087719 -0.532422,-3.966209 -1.520462,-5.6354769 -0.988095,-1.6692361 -2.303968,-2.9897579 -3.947623,-3.9615694 l -6.807207,-4.1289619 c -0.33945,-0.1696932 -0.609135,-0.4161293 -0.809056,-0.73930922 -0.199954,-0.32313087 -0.302247,-0.70905761 -0.30688,-1.15778137 0.01626,-0.63001224 0.234796,-1.15543171 0.655612,-1.57625991 0.420784,-0.4207737 0.946203,-0.6393106 1.576259,-0.6556114 1.378432,0.00468 2.729563,0.1069735 4.053397,0.3068956 1.32379,0.1999773 2.551695,0.4696947 3.683718,0.8091529 l 0,-8.0346239 c -1.037867,-0.2691752 -2.213462,-0.484291 -3.52679,-0.6453475 -1.313372,-0.160986 -2.716812,-0.243528 -4.210325,-0.247627 z"
           id="path4088" />
        <path
           d="m -54.789754,-19.252115 0,8.927485 -6.695614,0 0,8.9274856 6.695614,0 0,13.3912274 c 0.09596,3.791969 1.403838,6.947834 3.92363,9.467606 2.519767,2.51978 5.67563,3.827652 9.467598,3.923622 l 4.631134,-8.927485 -4.631134,0 c -1.264004,-0.03198 -2.315958,-0.467937 -3.155866,-1.307872 -0.839947,-0.839913 -1.275905,-1.891869 -1.307877,-3.155871 l 0,-13.3912274 6.695614,0 0,-8.9274856 -6.695614,0 0,-17.85497 -8.927485,8.927485 z"
           id="path4090" />
        <path
           d="m -30.474795,7.5303407 c 0.135954,5.3719303 1.988777,9.8427333 5.558475,13.4124223 3.569679,3.569697 8.040485,5.422523 13.412431,5.558484 C -6.131991,26.365286 -1.661186,24.51246 1.9085394,20.942762 5.4781912,17.373073 7.3310152,12.90227 7.4670171,7.5303407 7.3310166,2.1584358 5.478193,-2.3123703 1.9085405,-5.8820909 -1.6611857,-9.4517489 -6.131991,-11.304572 -11.503889,-11.440565 c -5.371946,0.135995 -9.842752,1.9888179 -13.412432,5.5584752 -3.569699,3.5697199 -5.422522,8.0405256 -5.558474,13.4124305 z m 8.927485,0 c 0.07196,-2.8439404 1.052871,-5.2108377 2.942722,-7.10069897 1.889819,-1.88981133 4.256716,-2.87071763 7.100699,-2.94272183 2.8439349,0.072006 5.2108315,1.0529119 7.1006969,2.94272183 1.8898044,1.88985987 2.8707114,4.25675717 2.942724,7.10069897 -0.072011,2.8439763 -1.0529182,5.2108733 -2.942724,7.1006973 -1.8898668,1.889845 -4.2567634,2.870752 -7.1006969,2.942724 -2.843982,-0.07197 -5.210879,-1.052877 -7.100699,-2.942724 -1.889853,-1.889826 -2.870759,-4.256723 -2.942722,-7.1006973 z"
           id="path4092" />
        <path
           d="m 46.745169,22.340681 -4.166457,-8.335347 c -0.930518,1.105419 -2.055455,1.973505 -3.374815,2.60426 -1.319416,0.630774 -2.761166,0.952162 -4.325254,0.964165 -2.859606,-0.06974 -5.230968,-1.046182 -7.114092,-2.929333 -1.883156,-1.88313 -2.859598,-4.25449 -2.929329,-7.1140874 0.06973,-2.8595648 1.046175,-5.2309262 2.929331,-7.11409134 1.883123,-1.88311516 4.254484,-2.85955736 7.11409,-2.92932946 1.439787,0.00942 2.778062,0.2839815 4.014829,0.8236722 1.236712,0.5397448 2.315476,1.28823945 3.236296,2.24548605 l 3.475134,-8.68242585 c -1.532173,-1.0530346 -3.203169,-1.866826 -5.012992,-2.4413762 -1.809881,-0.574479 -3.714301,-0.865426 -5.713267,-0.872841 -5.379759,0.134878 -9.852797,1.985469 -13.419128,5.5517789 -3.56635,3.5663725 -5.416941,8.0394103 -5.551778,13.4191267 0.134837,5.3797524 1.985428,9.8527894 5.551779,13.4191244 3.566331,3.566344 8.039369,5.416936 13.419127,5.551782 2.257457,-0.0106 4.390978,-0.378512 6.400572,-1.103732 2.009533,-0.725221 3.831516,-1.744165 5.465954,-3.056834 z"
           id="path4094" />
        <path
           d="m 56.919308,-28.1796 0,53.564911 8.927485,0 0,-20.0868415 c 0.04839,-1.8963443 0.702513,-3.4743877 1.962357,-4.73413499 1.259809,-1.25969766 2.83756,-1.91352331 4.733257,-1.96147891 1.89595,0.048012 3.473881,0.70195011 4.733798,1.96181521 1.259863,1.25991479 1.913801,2.83784609 1.961816,4.73379869 l 0,20.0868415 8.927485,0 0,-22.3187128 c -0.09986,-3.79192167 -1.415435,-6.9477843 -3.946731,-9.4675973 -2.531364,-2.5197495 -5.679527,-3.8276249 -9.444497,-3.9236309 -1.727919,0.0099 -3.350525,0.319692 -4.867823,0.9293245 -1.517337,0.6097018 -2.870556,1.4599787 -4.059662,2.5508332 l 0,-21.3351277 -8.927485,0 z"
           id="path4096" />
        <path
           d="m 99.07467,7.5303407 c 0.13596,5.3719303 1.98878,9.8427333 5.55848,13.4124223 3.56968,3.569697 8.04048,5.422523 13.41243,5.558484 5.3719,-0.135961 9.8427,-1.988787 13.41243,-5.558485 3.56965,-3.569689 5.42247,-8.040492 5.55848,-13.4124213 -0.136,-5.3719049 -1.98883,-9.842711 -5.55848,-13.4124316 -3.56973,-3.569658 -8.04053,-5.4224811 -13.41243,-5.5584741 -5.37195,0.135995 -9.84275,1.9888179 -13.41243,5.5584752 -3.5697,3.5697199 -5.42252,8.0405256 -5.55848,13.4124305 z m 8.92749,0 c 0.072,-2.8439404 1.05287,-5.2108377 2.94272,-7.10069897 1.88982,-1.88981133 4.25672,-2.87071763 7.1007,-2.94272183 2.84393,0.072006 5.21083,1.0529119 7.1007,2.94272183 1.8898,1.88985987 2.87071,4.25675717 2.94272,7.10069897 -0.072,2.8439763 -1.05292,5.2108733 -2.94272,7.1006973 -1.88987,1.889845 -4.25677,2.870752 -7.1007,2.942724 -2.84398,-0.07197 -5.21088,-1.052877 -7.1007,-2.942724 -1.88985,-1.889826 -2.87076,-4.256723 -2.94272,-7.1006973 z"
           id="path4098" />
        <path
           d="m 143.21194,-10.32463 8.92749,35.709941 8.92748,0 6.69562,-21.4259643 6.69561,21.4259643 8.92749,0 8.92748,-35.709941 -8.92748,0 -4.95967,19.8387688 -6.19969,-19.8387688 -8.92749,0 -6.19969,19.8387688 -4.95966,-19.8387688 -8.92749,0 z"
           id="path4100" />
        <path
           d="m 211.31134,-10.32463 c -2.77125,0.06281 -5.15191,1.0253011 -7.14198,2.8874841 -1.99009,1.8622487 -3.03163,4.2475587 -3.12461,7.15593711 0.0907,2.33418749 0.66258,4.19407839 1.71575,5.57967829 1.05315,1.38564 2.04354,2.3527833 2.97116,2.9014326 l 7.25359,4.2405559 c 0.50912,0.288295 0.91365,0.688172 1.21357,1.199631 0.29989,0.511483 0.45333,1.078749 0.46033,1.701801 -0.0209,0.969479 -0.34178,1.764583 -0.9625,2.385313 -0.62076,0.620746 -1.41586,0.941577 -2.38531,0.962494 -2.10729,-0.0093 -4.09533,-0.213857 -5.96414,-0.613709 -1.86884,-0.399838 -3.61277,-0.939187 -5.23182,-1.618049 l -2.45506,7.476769 c 1.96812,0.806658 4.11303,1.434333 6.43474,1.883027 2.32169,0.448694 4.72712,0.676531 7.21628,0.683512 3.15017,-0.08137 5.77727,-1.174057 7.8813,-3.27806 2.10397,-2.104 3.19666,-4.731096 3.27806,-7.881297 -0.0256,-2.087719 -0.53242,-3.966209 -1.52046,-5.6354769 -0.9881,-1.6692361 -2.30397,-2.9897579 -3.94763,-3.9615694 l -6.8072,-4.1289619 c -0.33945,-0.1696932 -0.60914,-0.4161293 -0.80906,-0.73930922 -0.19995,-0.32313087 -0.30225,-0.70905761 -0.30688,-1.15778137 0.0163,-0.63001224 0.2348,-1.15543171 0.65561,-1.57625991 0.42079,-0.4207737 0.94621,-0.6393106 1.57626,-0.6556114 1.37843,0.00468 2.72957,0.1069735 4.0534,0.3068956 1.32379,0.1999773 2.55169,0.4696947 3.68372,0.8091529 l 0,-8.0346239 c -1.03787,-0.2691752 -2.21346,-0.484291 -3.52679,-0.6453475 -1.31337,-0.160986 -2.71681,-0.243528 -4.21033,-0.247627 z"
           id="path4102" />
        <path
           d="m 233.34332,-28.1796 0,53.564911 8.92748,0 0,-13.335432 3.38966,0 10.00157,13.335432 11.15847,0 -13.39034,-17.8549703 13.39034,-17.8541917 -11.15847,0 -10.00157,13.3346513 -3.38966,0 0,-31.1904003 -8.92748,0 z"
           id="path4104" />
        <path
           d="m 273.01684,-10.32463 0,35.709941 8.92749,0 0,-35.709941 -8.92749,0 z m 0,-17.85497 0,8.927485 8.92749,0 0,-8.927485 -8.92749,0 z"
           id="path4106" />
      </g>
      <g
         id="text3884"
         style="font-size:70.29772186px;font-style:normal;font-variant:normal;font-weight:bold;font-stretch:normal;text-align:start;line-height:125%;writing-mode:lr-tb;text-anchor:start;fill:#ffffff;fill-opacity:1;stroke:none;font-family:Drogowskaz;-inkscape-font-specification:Drogowskaz Bold">
        <path
           d="m -26.232046,108.81581 0,-20.869719 -21.968121,0 0,8.787249 13.180873,0 0,8.84206 c -1.704199,1.69722 -3.679365,3.02361 -5.925505,3.97917 -2.246214,0.95559 -4.664667,1.4416 -7.255368,1.45805 -5.295259,-0.13272 -9.698033,-1.95424 -13.208335,-5.46457 -3.510336,-3.51031 -5.331857,-7.913081 -5.464569,-13.208334 0.132712,-5.295203 1.954234,-9.697977 5.46457,-13.208335 3.510303,-3.51028 7.913077,-5.331801 13.208334,-5.464569 2.739582,0.01947 5.283712,0.560063 7.632398,1.621797 2.348611,1.061821 4.385306,2.528264 6.110091,4.399335 l 4.64329,-7.739587 c -2.454351,-2.216504 -5.24359,-3.943783 -8.367727,-5.181843 -3.124216,-1.237955 -6.463563,-1.866938 -10.018052,-1.886951 -7.775821,0.196852 -14.247258,2.878791 -19.414329,8.045825 -5.167091,5.167127 -7.84903,11.638562 -8.045824,19.414328 0.196796,7.775814 2.878735,14.247254 8.045825,19.414324 5.167071,5.16709 11.638507,7.84903 19.414328,8.04583 4.896167,-0.0809 9.228574,-1.15801 12.997233,-3.23136 3.768574,-2.07334 6.758867,-4.65757 8.970888,-7.7527 z"
           id="path4109" />
        <path
           d="m -12.801394,83.552467 0,35.148993 8.7872489,0 0,-20.869714 c 0.039345,-1.555139 0.5757322,-2.849427 1.6091642,-3.882867 1.033398,-1.033391 2.32768541,-1.569778 3.8828662,-1.609163 1.5551377,0.03939 2.8494245,0.575774 3.8828642,1.609164 1.0333902,1.033439 1.5697785,2.327727 1.6091663,3.882866 l 0,20.869714 8.7872492,0 0,-20.869714 c 0.03932,-1.555139 0.575712,-2.849427 1.609164,-3.882867 1.033378,-1.033391 2.327665,-1.569778 3.882866,-1.609163 1.555118,0.03939 2.849405,0.575774 3.882864,1.609164 1.033371,1.033439 1.569759,2.327727 1.609167,3.882866 l 0,20.869714 8.787248,0 0,-21.96812 c -0.09452,-3.732357 -1.381848,-6.838646 -3.861996,-9.318877 -2.480251,-2.480168 -5.58654,-3.767499 -9.318877,-3.861996 -1.816202,0.01157 -3.513454,0.351777 -5.09176,1.020638 -1.57838,0.66893 -2.968597,1.597338 -4.170657,2.785228 -1.020255,-1.178133 -2.242433,-2.103754 -3.6665364,-2.776866 -1.4241612,-0.673043 -2.9726743,-1.016043 -4.645544,-1.029 -1.8122852,0.0164 -3.4752388,0.415395 -4.9888658,1.196974 -1.5136654,0.781647 -2.7797917,1.847672 -3.7983829,3.198079 l 0,-4.395053 -8.7872489,0 z"
           id="path4111" />
        <path
           d="m 48.959112,83.552467 0,35.148993 8.787249,0 0,-35.148993 -8.787249,0 z m 0,-17.574498 0,8.787249 8.787249,0 0,-8.787249 -8.787249,0 z"
           id="path4113" />
        <path
           d="m 71.052152,83.552467 0,35.148993 8.787249,0 0,-19.771308 c 0.04763,-1.866556 0.691477,-3.41981 1.931531,-4.659769 1.24002,-1.23991 2.792987,-1.883465 4.658906,-1.930667 1.866168,0.04726 3.419312,0.690923 4.659438,1.930998 1.240072,1.240123 1.883738,2.793268 1.930998,4.659438 l 0,19.771308 8.787246,0 0,-21.96812 c -0.0983,-3.732357 -1.3932,-6.838646 -3.884731,-9.318877 -2.491601,-2.480168 -5.590311,-3.767499 -9.296139,-3.861996 -1.700777,0.0098 -3.297894,0.31467 -4.791358,0.914726 -1.493502,0.600124 -2.825464,1.437045 -3.995891,2.510763 l 0,-3.425489 -8.787249,0 z"
           id="path4115" />
        <path
           d="m 113.32174,101.12696 c 0.12814,4.96115 1.84898,9.09848 5.16251,12.41199 3.31351,3.31353 7.45083,5.03436 12.41199,5.16251 1.89822,-0.008 3.70623,-0.29487 5.42402,-0.86161 1.71774,-0.56674 3.29923,-1.367 4.74447,-2.40079 l 0.81557,3.2624 8.78725,0 -2.19682,-8.78725 0,-26.361743 -8.78724,0 0,2.370252 c -1.29913,-0.757663 -2.6879,-1.340972 -4.1663,-1.749929 -1.47845,-0.408888 -3.01877,-0.615662 -4.62095,-0.620323 -4.96115,0.128183 -9.09848,1.849017 -12.41199,5.162507 -3.31353,3.313551 -5.03437,7.450877 -5.16251,12.411986 z m 8.78725,0 c 0.0641,-2.533175 0.92448,-4.633875 2.58125,-6.302102 1.65675,-1.668179 3.72541,-2.533173 6.206,-2.594983 2.48054,0.06181 4.5492,0.926806 6.20599,2.594984 1.65673,1.668226 2.51715,3.768926 2.58126,6.302101 -0.0641,2.53322 -0.92452,4.63392 -2.58126,6.30211 -1.65679,1.66821 -3.72545,2.53321 -6.20599,2.59498 -2.48059,-0.0618 -4.54925,-0.92677 -6.206,-2.59498 -1.65678,-1.66819 -2.51719,-3.76889 -2.58125,-6.30211 z"
           id="path4117" />
      </g>
      <g
         id="text3888"
         style="font-size:70.61212158px;font-style:normal;font-variant:normal;font-weight:bold;font-stretch:normal;text-align:start;line-height:125%;writing-mode:lr-tb;text-anchor:start;fill:#ffffff;fill-opacity:1;stroke:none;font-family:Drogowskaz;-inkscape-font-specification:Drogowskaz Bold">
        <path
           d="m -110.77562,153.69929 0,52.95929 8.82655,0 0,-17.698 4.303824,-4.91241 15.812652,22.61041 10.776445,0 -20.599621,-29.4468 20.599621,-23.51249 -11.729932,0 -19.162989,21.86711 0,-21.86711 -8.82655,0 z"
           id="path4137" />
        <path
           d="m -63.83517,171.35239 0,35.30619 8.826549,0 0,-23.10569 c 1.180901,-1.05837 2.52111,-1.88293 4.02063,-2.47367 1.499481,-0.5907 3.101453,-0.89079 4.805918,-0.90028 l 0,-8.82655 c -3.162647,0.0224 -6.104827,0.64818 -8.826548,1.8774 l 0,-1.8774 -8.826549,0 z"
           id="path4139" />
        <path
           d="m -37.900267,171.35239 0,20.96305 c 0.110695,4.37395 1.619298,8.01417 4.525814,10.92066 2.906496,2.9065 6.546708,4.4151 10.920647,4.5258 4.373897,-0.1107 8.014109,-1.61929 10.920646,-4.5258 2.906475,-2.90649 4.4150781,-6.54671 4.5258141,-10.92066 l 0,-20.96305 -8.8265491,0 0,20.96305 c -0.0483,1.86876 -0.696497,3.4272 -1.9446,4.67531 -1.248153,1.24814 -2.806588,1.89634 -4.675311,1.9446 -1.868766,-0.0483 -3.427202,-0.69646 -4.675314,-1.9446 -1.248144,-1.24811 -1.896343,-2.80655 -1.944598,-4.67531 l 0,-20.96305 -8.826549,0 z"
           id="path4141" />
        <path
           d="m 14.374712,171.35239 c -2.739924,0.0621 -5.0936668,1.01371 -7.0612359,2.85484 -1.9675904,1.84119 -2.9973509,4.19953 -3.0892848,7.07503 0.089639,2.30779 0.6550886,4.14666 1.6963516,5.51659 1.0412445,1.36997 2.0204355,2.32618 2.9375761,2.86863 l 7.171571,4.19261 c 0.503369,0.28503 0.903321,0.68039 1.199857,1.18607 0.296495,0.5057 0.448202,1.06655 0.455121,1.68256 -0.02071,0.95851 -0.337913,1.74463 -0.951614,2.35834 -0.613741,0.61373 -1.399855,0.93093 -2.358342,0.95161 -2.083464,-0.009 -4.049033,-0.21144 -5.8967149,-0.60677 -1.8477051,-0.39531 -3.5719236,-0.92857 -5.1726606,-1.59975 l -2.427301,7.39223 c 1.9458658,0.79754 4.0665262,1.41812 6.3619873,1.86174 2.2954401,0.44362 4.6736672,0.66888 7.1346892,0.67578 3.114555,-0.0804 5.711948,-1.16078 7.792185,-3.24099 2.080187,-2.08022 3.16052,-4.67761 3.241001,-7.79219 -0.02531,-2.06412 -0.526402,-3.92137 -1.503271,-5.57176 -0.976924,-1.65037 -2.277919,-2.95596 -3.90299,-3.91678 l -6.730244,-4.08228 c -0.335611,-0.16778 -0.602247,-0.41143 -0.799908,-0.73095 -0.197693,-0.31948 -0.29883,-0.70104 -0.30341,-1.14469 0.01608,-0.62289 0.232141,-1.14237 0.6482,-1.55844 0.416026,-0.41602 0.935505,-0.63208 1.558437,-0.6482 1.362847,0.005 2.698702,0.10576 4.007568,0.30343 1.308823,0.19771 2.522845,0.46438 3.642069,0.8 l 0,-7.94378 c -1.026132,-0.26613 -2.188436,-0.47882 -3.486915,-0.63805 -1.298523,-0.15917 -2.686095,-0.24078 -4.162722,-0.24483 z"
           id="path4143" />
        <path
           d="m 58.327647,197.83204 -12.173243,0 12.173243,-22.39737 0,-4.08228 -24.273009,0 0,8.82655 12.136504,0 -12.136504,22.39759 0,4.08205 24.273009,0 0,-8.82654 z"
           id="path4145" />
        <path
           d="m 65.565104,171.35239 11.033186,35.30619 -5.516593,17.6531 8.826549,0 16.549779,-52.95929 -8.826549,0 -6.619911,21.18372 -6.619912,-21.18372 -8.826549,0 z"
           id="path4147" />
        <path
           d="m 105.15944,171.35239 0,35.30619 8.82655,0 0,-19.85973 c 0.0478,-1.8749 0.69457,-3.43511 1.94017,-4.68061 1.24556,-1.24546 2.80548,-1.89189 4.67974,-1.9393 1.87451,0.0475 3.43461,0.69401 4.68028,1.93963 1.24562,1.24567 1.89216,2.80576 1.93963,4.68028 l 0,19.85973 8.82655,0 0,-22.06637 c -0.0987,-3.74905 -1.39943,-6.86923 -3.90211,-9.36055 -2.50274,-2.49126 -5.61531,-3.78435 -9.33771,-3.87927 -1.70839,0.01 -3.31265,0.31608 -4.81279,0.91882 -1.50018,0.6028 -2.8381,1.44347 -4.01376,2.52199 l 0,-3.44081 -8.82655,0 z"
           id="path4149" />
        <path
           d="m 147.55221,189.00549 c 0.12871,4.98333 1.85724,9.13916 5.18559,12.4675 3.32833,3.32834 7.48416,5.05687 12.4675,5.18559 1.90672,-0.008 3.72281,-0.29619 5.44829,-0.86546 1.72542,-0.56928 3.31398,-1.37312 4.76569,-2.41152 l 0.81921,3.27698 8.82655,0 -2.20664,-8.82654 0,-26.47965 -8.82655,0 0,2.38085 c -1.30494,-0.76105 -2.69991,-1.34697 -4.18493,-1.75775 -1.48506,-0.41072 -3.03227,-0.61842 -4.64162,-0.6231 -4.98333,0.12876 -9.13916,1.85729 -12.4675,5.1856 -3.32835,3.32837 -5.05688,7.4842 -5.18559,12.4675 z m 8.82655,0 c 0.0643,-2.54451 0.92861,-4.65461 2.5928,-6.33029 1.66415,-1.67564 3.74206,-2.54451 6.23374,-2.60659 2.49164,0.0621 4.56956,0.93095 6.23375,2.60659 1.66415,1.67568 2.52841,3.78578 2.5928,6.33029 -0.0644,2.54454 -0.92865,4.65464 -2.5928,6.33029 -1.66419,1.67567 -3.74211,2.54453 -6.23375,2.60659 -2.49168,-0.0621 -4.56959,-0.93092 -6.23375,-2.60659 -1.66418,-1.67565 -2.52845,-3.78575 -2.59279,-6.33029 z"
           id="path4151" />
      </g>
    </g>
  </g>
</svg>
