<?xml version="1.0" encoding="UTF-8" standalone="no"?>
<!-- Created with Inkscape (http://www.inkscape.org/) -->

<svg
   xmlns:dc="http://purl.org/dc/elements/1.1/"
   xmlns:cc="http://creativecommons.org/ns#"
   xmlns:rdf="http://www.w3.org/1999/02/22-rdf-syntax-ns#"
   xmlns:svg="http://www.w3.org/2000/svg"
   xmlns="http://www.w3.org/2000/svg"
   xmlns:sodipodi="http://sodipodi.sourceforge.net/DTD/sodipodi-0.dtd"
   xmlns:inkscape="http://www.inkscape.org/namespaces/inkscape"
   width="1249.7812"
   height="927.40625"
   id="svg2"
   sodipodi:version="0.32"
   inkscape:version="0.48.2 r9819"
   version="1.0"
   sodipodi:docname="AJAX.svg"
   inkscape:output_extension="org.inkscape.output.svg.inkscape">
  <defs
     id="defs4">
    <inkscape:perspective
       sodipodi:type="inkscape:persp3d"
       inkscape:vp_x="0 : 526.18109 : 1"
       inkscape:vp_y="0 : 1000 : 0"
       inkscape:vp_z="744.09448 : 526.18109 : 1"
       inkscape:persp3d-origin="372.04724 : 350.78739 : 1"
       id="perspective10" />
    <inkscape:perspective
       sodipodi:type="inkscape:persp3d"
       inkscape:vp_x="0 : 526.18109 : 1"
       inkscape:vp_y="0 : 1000 : 0"
       inkscape:vp_z="744.09448 : 526.18109 : 1"
       inkscape:persp3d-origin="372.04724 : 350.78739 : 1"
       id="perspective2532" />
    <inkscape:perspective
       id="perspective2392"
       inkscape:persp3d-origin="372.04724 : 350.78739 : 1"
       inkscape:vp_z="744.09448 : 526.18109 : 1"
       inkscape:vp_y="0 : 1000 : 0"
       inkscape:vp_x="0 : 526.18109 : 1"
       sodipodi:type="inkscape:persp3d" />
    <marker
       id="marker3281"
       style="overflow:visible"
       orient="auto"
       refY="0"
       refX="0">
      <path
         id="path3283"
         style="font-size:12px;fill-rule:evenodd;stroke-width:0.625;stroke-linejoin:round"
         transform="matrix(1.1,0,0,1.1,1.1,0)"
         d="M 8.7185878,4.0337352 -2.2072895,0.01601326 8.7185884,-4.0017078 c -1.7454984,2.3720609 -1.7354408,5.6174519 -6e-7,8.035443 z"
         inkscape:connector-curvature="0" />
    </marker>
    <pattern
       patternUnits="userSpaceOnUse"
       width="370"
       height="476"
       patternTransform="translate(18.50938,18)"
       id="pattern3285">
      <rect
         ry="20"
         rx="20"
         y="0"
         x="0"
         height="476"
         width="370"
         id="rect3287"
         style="fill:#00e5ff;fill-opacity:1" />
    </pattern>
    <pattern
       id="pattern3289"
       patternTransform="translate(18.50938,18)"
       height="476"
       width="370"
       patternUnits="userSpaceOnUse">
      <rect
         style="fill:#00e5ff;fill-opacity:1"
         id="rect3291"
         width="370"
         height="476"
         x="0"
         y="0"
         rx="20"
         ry="20" />
    </pattern>
    <marker
       id="marker3293"
       style="overflow:visible"
       orient="auto"
       refY="0"
       refX="0">
      <path
         id="path3295"
         style="font-size:12px;fill-rule:evenodd;stroke-width:0.625;stroke-linejoin:round"
         transform="matrix(1.1,0,0,1.1,1.1,0)"
         d="M 8.7185878,4.0337352 -2.2072895,0.01601326 8.7185884,-4.0017078 c -1.7454984,2.3720609 -1.7354408,5.6174519 -6e-7,8.035443 z"
         inkscape:connector-curvature="0" />
    </marker>
    <pattern
       patternUnits="userSpaceOnUse"
       width="370"
       height="476"
       patternTransform="translate(18.50938,18)"
       id="pattern3297">
      <rect
         ry="20"
         rx="20"
         y="0"
         x="0"
         height="476"
         width="370"
         id="rect3299"
         style="fill:#00e5ff;fill-opacity:1" />
    </pattern>
    <pattern
       id="pattern3301"
       patternTransform="translate(18.50938,18)"
       height="476"
       width="370"
       patternUnits="userSpaceOnUse">
      <rect
         style="fill:#00e5ff;fill-opacity:1"
         id="rect3303"
         width="370"
         height="476"
         x="0"
         y="0"
         rx="20"
         ry="20" />
    </pattern>
    <pattern
       id="pattern3305"
       patternTransform="translate(18.50938,18)"
       height="476"
       width="370"
       patternUnits="userSpaceOnUse">
      <rect
         style="fill:#00e5ff;fill-opacity:1"
         id="rect3307"
         width="370"
         height="476"
         x="0"
         y="0"
         rx="20"
         ry="20" />
    </pattern>
    <pattern
       patternUnits="userSpaceOnUse"
       width="370"
       height="476"
       patternTransform="translate(18.50938,18)"
       id="pattern3309">
      <rect
         ry="20"
         rx="20"
         y="0"
         x="0"
         height="476"
         width="370"
         id="rect3311"
         style="fill:#00e5ff;fill-opacity:1" />
    </pattern>
    <marker
       id="marker3313"
       style="overflow:visible"
       orient="auto"
       refY="0"
       refX="0">
      <path
         id="path3315"
         style="font-size:12px;fill-rule:evenodd;stroke-width:0.625;stroke-linejoin:round"
         transform="matrix(1.1,0,0,1.1,1.1,0)"
         d="M 8.7185878,4.0337352 -2.2072895,0.01601326 8.7185884,-4.0017078 c -1.7454984,2.3720609 -1.7354408,5.6174519 -6e-7,8.035443 z"
         inkscape:connector-curvature="0" />
    </marker>
    <pattern
       id="pattern3317"
       patternTransform="translate(18.50938,18)"
       height="476"
       width="370"
       patternUnits="userSpaceOnUse">
      <rect
         style="fill:#00e5ff;fill-opacity:1"
         id="rect3319"
         width="370"
         height="476"
         x="0"
         y="0"
         rx="20"
         ry="20" />
    </pattern>
    <marker
       id="marker3321"
       style="overflow:visible"
       orient="auto"
       refY="0"
       refX="0">
      <path
         id="path3323"
         style="font-size:12px;fill-rule:evenodd;stroke-width:0.625;stroke-linejoin:round"
         transform="matrix(1.1,0,0,1.1,1.1,0)"
         d="M 8.7185878,4.0337352 -2.2072895,0.01601326 8.7185884,-4.0017078 c -1.7454984,2.3720609 -1.7354408,5.6174519 -6e-7,8.035443 z"
         inkscape:connector-curvature="0" />
    </marker>
    <pattern
       patternUnits="userSpaceOnUse"
       width="370"
       height="476"
       patternTransform="translate(18.50938,18)"
       id="pattern3325">
      <rect
         ry="20"
         rx="20"
         y="0"
         x="0"
         height="476"
         width="370"
         id="rect3327"
         style="fill:#00e5ff;fill-opacity:1" />
    </pattern>
    <pattern
       id="pattern3329"
       patternTransform="translate(18.50938,18)"
       height="476"
       width="370"
       patternUnits="userSpaceOnUse">
      <rect
         style="fill:#00e5ff;fill-opacity:1"
         id="rect3331"
         width="370"
         height="476"
         x="0"
         y="0"
         rx="20"
         ry="20" />
    </pattern>
    <pattern
       id="pattern3333"
       patternTransform="translate(18.50938,18)"
       height="476"
       width="370"
       patternUnits="userSpaceOnUse">
      <rect
         style="fill:#00e5ff;fill-opacity:1"
         id="rect3335"
         width="370"
         height="476"
         x="0"
         y="0"
         rx="20"
         ry="20" />
    </pattern>
    <pattern
       patternUnits="userSpaceOnUse"
       width="370"
       height="476"
       patternTransform="translate(18.50938,18)"
       id="pattern3337">
      <rect
         ry="20"
         rx="20"
         y="0"
         x="0"
         height="476"
         width="370"
         id="rect3339"
         style="fill:#00e5ff;fill-opacity:1" />
    </pattern>
    <marker
       id="marker3341"
       style="overflow:visible"
       orient="auto"
       refY="0"
       refX="0">
      <path
         id="path3343"
         style="font-size:12px;fill-rule:evenodd;stroke-width:0.625;stroke-linejoin:round"
         transform="matrix(1.1,0,0,1.1,1.1,0)"
         d="M 8.7185878,4.0337352 -2.2072895,0.01601326 8.7185884,-4.0017078 c -1.7454984,2.3720609 -1.7354408,5.6174519 -6e-7,8.035443 z"
         inkscape:connector-curvature="0" />
    </marker>
    <inkscape:perspective
       id="perspective3345"
       inkscape:persp3d-origin="648 : 451.66659 : 1"
       inkscape:vp_z="1296 : 677.49988 : 1"
       inkscape:vp_y="0 : 1000 : 0"
       inkscape:vp_x="0 : 677.49988 : 1"
       sodipodi:type="inkscape:persp3d" />
    <marker
       id="marker4288"
       style="overflow:visible"
       orient="auto"
       refY="0"
       refX="0">
      <path
         id="path4290"
         style="font-size:12px;fill-rule:evenodd;stroke-width:0.625;stroke-linejoin:round"
         transform="matrix(1.1,0,0,1.1,1.1,0)"
         d="M 8.7185878,4.0337352 -2.2072895,0.01601326 8.7185884,-4.0017078 c -1.7454984,2.3720609 -1.7354408,5.6174519 -6e-7,8.035443 z"
         inkscape:connector-curvature="0" />
    </marker>
    <pattern
       patternUnits="userSpaceOnUse"
       width="370"
       height="476"
       patternTransform="translate(18.50938,18)"
       id="pattern4292">
      <rect
         ry="20"
         rx="20"
         y="0"
         x="0"
         height="476"
         width="370"
         id="rect4294"
         style="fill:#00e5ff;fill-opacity:1" />
    </pattern>
    <pattern
       id="pattern4296"
       patternTransform="translate(18.50938,18)"
       height="476"
       width="370"
       patternUnits="userSpaceOnUse">
      <rect
         style="fill:#00e5ff;fill-opacity:1"
         id="rect4298"
         width="370"
         height="476"
         x="0"
         y="0"
         rx="20"
         ry="20" />
    </pattern>
    <marker
       id="marker3928"
       style="overflow:visible"
       orient="auto"
       refY="0"
       refX="0">
      <path
         id="path3930"
         style="font-size:12px;fill-rule:evenodd;stroke-width:0.625;stroke-linejoin:round"
         transform="matrix(1.1,0,0,1.1,1.1,0)"
         d="M 8.7185878,4.0337352 -2.2072895,0.01601326 8.7185884,-4.0017078 c -1.7454984,2.3720609 -1.7354408,5.6174519 -6e-7,8.035443 z"
         inkscape:connector-curvature="0" />
    </marker>
    <pattern
       patternUnits="userSpaceOnUse"
       width="370"
       height="476"
       patternTransform="translate(18.50938,18)"
       id="pattern3932">
      <rect
         ry="20"
         rx="20"
         y="0"
         x="0"
         height="476"
         width="370"
         id="rect3934"
         style="fill:#00e5ff;fill-opacity:1" />
    </pattern>
    <pattern
       id="pattern3936"
       patternTransform="translate(18.50938,18)"
       height="476"
       width="370"
       patternUnits="userSpaceOnUse">
      <rect
         style="fill:#00e5ff;fill-opacity:1"
         id="rect3938"
         width="370"
         height="476"
         x="0"
         y="0"
         rx="20"
         ry="20" />
    </pattern>
    <pattern
       id="pattern2321"
       patternTransform="translate(18.50938,18)"
       height="476"
       width="370"
       patternUnits="userSpaceOnUse">
      <rect
         style="fill:#00e5ff;fill-opacity:1"
         id="rect2323"
         width="370"
         height="476"
         x="0"
         y="0"
         rx="20"
         ry="20" />
    </pattern>
    <pattern
       patternUnits="userSpaceOnUse"
       width="370"
       height="476"
       patternTransform="translate(18.50938,18)"
       id="pattern2317">
      <rect
         ry="20"
         rx="20"
         y="0"
         x="0"
         height="476"
         width="370"
         id="rect2319"
         style="fill:#00e5ff;fill-opacity:1" />
    </pattern>
    <marker
       id="marker2313"
       style="overflow:visible"
       orient="auto"
       refY="0"
       refX="0">
      <path
         id="path2315"
         style="font-size:12px;fill-rule:evenodd;stroke-width:0.625;stroke-linejoin:round"
         transform="matrix(1.1,0,0,1.1,1.1,0)"
         d="M 8.7185878,4.0337352 -2.2072895,0.01601326 8.7185884,-4.0017078 c -1.7454984,2.3720609 -1.7354408,5.6174519 -6e-7,8.035443 z"
         inkscape:connector-curvature="0" />
    </marker>
    <pattern
       id="pattern5613"
       patternTransform="translate(18.50938,18)"
       height="476"
       width="370"
       patternUnits="userSpaceOnUse">
      <rect
         style="fill:#00e5ff;fill-opacity:1"
         id="rect5615"
         width="370"
         height="476"
         x="0"
         y="0"
         rx="20"
         ry="20" />
    </pattern>
    <marker
       id="marker2936"
       style="overflow:visible"
       orient="auto"
       refY="0"
       refX="0">
      <path
         id="path2938"
         style="font-size:12px;fill-rule:evenodd;stroke-width:0.625;stroke-linejoin:round"
         transform="matrix(1.1,0,0,1.1,1.1,0)"
         d="M 8.7185878,4.0337352 -2.2072895,0.01601326 8.7185884,-4.0017078 c -1.7454984,2.3720609 -1.7354408,5.6174519 -6e-7,8.035443 z"
         inkscape:connector-curvature="0" />
    </marker>
    <pattern
       patternUnits="userSpaceOnUse"
       width="370"
       height="476"
       patternTransform="translate(18.50938,18)"
       id="pattern2940">
      <rect
         ry="20"
         rx="20"
         y="0"
         x="0"
         height="476"
         width="370"
         id="rect2942"
         style="fill:#00e5ff;fill-opacity:1" />
    </pattern>
    <pattern
       id="pattern2944"
       patternTransform="translate(18.50938,18)"
       height="476"
       width="370"
       patternUnits="userSpaceOnUse">
      <rect
         style="fill:#00e5ff;fill-opacity:1"
         id="rect2946"
         width="370"
         height="476"
         x="0"
         y="0"
         rx="20"
         ry="20" />
    </pattern>
    <pattern
       id="pattern5932"
       patternTransform="translate(18.50938,18)"
       height="476"
       width="370"
       patternUnits="userSpaceOnUse">
      <rect
         style="fill:#00e5ff;fill-opacity:1"
         id="rect5934"
         width="370"
         height="476"
         x="0"
         y="0"
         rx="20"
         ry="20" />
    </pattern>
    <pattern
       patternUnits="userSpaceOnUse"
       width="370"
       height="476"
       patternTransform="translate(18.50938,18)"
       id="pattern4002">
      <rect
         ry="20"
         rx="20"
         y="0"
         x="0"
         height="476"
         width="370"
         id="rect2240"
         style="fill:#00e5ff;fill-opacity:1" />
    </pattern>
    <marker
       id="Arrow2Lstart"
       style="overflow:visible"
       orient="auto"
       refY="0"
       refX="0">
      <path
         id="path5785"
         style="font-size:12px;fill-rule:evenodd;stroke-width:0.625;stroke-linejoin:round"
         transform="matrix(1.1,0,0,1.1,1.1,0)"
         d="M 8.7185878,4.0337352 -2.2072895,0.01601326 8.7185884,-4.0017078 c -1.7454984,2.3720609 -1.7354408,5.6174519 -6e-7,8.035443 z"
         inkscape:connector-curvature="0" />
    </marker>
    <inkscape:perspective
       id="perspective49"
       inkscape:persp3d-origin="648 : 451.66659 : 1"
       inkscape:vp_z="1296 : 677.49988 : 1"
       inkscape:vp_y="0 : 1000 : 0"
       inkscape:vp_x="0 : 677.49988 : 1"
       sodipodi:type="inkscape:persp3d" />
    <inkscape:perspective
       id="perspective2552"
       inkscape:persp3d-origin="372.04724 : 350.78739 : 1"
       inkscape:vp_z="744.09448 : 526.18109 : 1"
       inkscape:vp_y="0 : 1000 : 0"
       inkscape:vp_x="0 : 526.18109 : 1"
       sodipodi:type="inkscape:persp3d" />
    <inkscape:perspective
       id="perspective2569"
       inkscape:persp3d-origin="250.00015 : 166.66665 : 1"
       inkscape:vp_z="500.00031 : 249.99997 : 1"
       inkscape:vp_y="0 : 1000 : 0"
       inkscape:vp_x="0 : 249.99997 : 1"
       sodipodi:type="inkscape:persp3d" />
    <inkscape:perspective
       id="perspective86"
       inkscape:persp3d-origin="500 : 400 : 1"
       inkscape:vp_z="1000 : 600 : 1"
       inkscape:vp_y="0 : 1000 : 0"
       inkscape:vp_x="0 : 600 : 1"
       sodipodi:type="inkscape:persp3d" />
    <inkscape:perspective
       id="perspective3860"
       inkscape:persp3d-origin="372.04724 : 350.78739 : 1"
       inkscape:vp_z="744.09448 : 526.18109 : 1"
       inkscape:vp_y="0 : 1000 : 0"
       inkscape:vp_x="0 : 526.18109 : 1"
       sodipodi:type="inkscape:persp3d" />
    <inkscape:perspective
       id="perspective3874"
       inkscape:persp3d-origin="500 : 333.33333 : 1"
       inkscape:vp_z="1000 : 500 : 1"
       inkscape:vp_y="0 : 1000 : 0"
       inkscape:vp_x="0 : 500 : 1"
       sodipodi:type="inkscape:persp3d" />
    <inkscape:perspective
       id="perspective3993"
       inkscape:persp3d-origin="500 : 400 : 1"
       inkscape:vp_z="1000 : 600 : 1"
       inkscape:vp_y="0 : 1000 : 0"
       inkscape:vp_x="0 : 600 : 1"
       sodipodi:type="inkscape:persp3d" />
    <inkscape:perspective
       id="perspective4301"
       inkscape:persp3d-origin="372.04724 : 350.78739 : 1"
       inkscape:vp_z="744.09448 : 526.18109 : 1"
       inkscape:vp_y="0 : 1000 : 0"
       inkscape:vp_x="0 : 526.18109 : 1"
       sodipodi:type="inkscape:persp3d" />
    <inkscape:perspective
       id="perspective4330"
       inkscape:persp3d-origin="256.40948 : 151.035 : 1"
       inkscape:vp_z="512.81897 : 226.55251 : 1"
       inkscape:vp_y="0 : 1000 : 0"
       inkscape:vp_x="0 : 226.55251 : 1"
       sodipodi:type="inkscape:persp3d" />
  </defs>
  <sodipodi:namedview
     id="base"
     pagecolor="#ffffff"
     bordercolor="#666666"
     borderopacity="1.0"
     gridtolerance="10000"
     guidetolerance="10"
     objecttolerance="10"
     inkscape:pageopacity="0.0"
     inkscape:pageshadow="2"
     inkscape:zoom="0.49497475"
     inkscape:cx="581.63203"
     inkscape:cy="224.53078"
     inkscape:document-units="px"
     inkscape:current-layer="g3817"
     showgrid="false"
     inkscape:window-width="1280"
     inkscape:window-height="1004"
     inkscape:window-x="-8"
     inkscape:window-y="-8"
     showguides="true"
     inkscape:guide-bbox="true"
     fit-margin-top="0"
     fit-margin-left="0"
     fit-margin-right="0"
     fit-margin-bottom="0"
     inkscape:window-maximized="1" />
  <metadata
     id="metadata7">
    <rdf:RDF>
      <cc:Work
         rdf:about="">
        <dc:format>image/svg+xml</dc:format>
        <dc:type
           rdf:resource="http://purl.org/dc/dcmitype/StillImage" />
      </cc:Work>
    </rdf:RDF>
  </metadata>
  <g
     inkscape:label="Layer 1"
     inkscape:groupmode="layer"
     id="layer1"
     transform="translate(293.3792,123.42248)">
    <g
       inkscape:label="Layer 1"
       id="g2361"
       transform="matrix(1.1737461,0,0,1.1737461,1534.3354,555.43345)" />
    <g
       id="g3798"
       transform="translate(-1051.4286,194.28571)">
      <g
         transform="translate(-2767.4506,361.88556)"
         id="g3784">
        <g
           id="g3817">
          <rect
             id="rect3222"
             style="opacity:0.89960004;fill:#ffffff;fill-opacity:1;stroke:#003399;stroke-width:3.37422228;stroke-miterlimit:4;stroke-opacity:1;stroke-dasharray:none"
             transform="scale(-1,1)"
             y="-677.91296"
             x="-4773.5806"
             ry="27.015749"
             rx="27.07107"
             height="924.02966"
             width="1246.3939" />
          <rect
             id="rect3015"
             style="fill:#003399;fill-opacity:1;stroke:none"
             transform="scale(-1,1)"
             y="-658.24353"
             x="-4752.7598"
             ry="13.075953"
             rx="12.199387"
             height="884.69086"
             width="1204.7528" />
          <g
             id="g4363"
             transform="translate(-1428.819,238.38945)">
            <path
               id="rect3887"
               transform="translate(3525.4995,-679.60008)"
               d="M 1773.1875,-135.1875 1723.8438,-53 l 0,266.0625 -134.2188,0 -56.4688,29.84375 56.4688,29.8125 134.2188,0 0,313.09375 98.6562,0 0,-313.09375 699.9375,0 51.8125,-29.8125 -51.8125,-29.84375 -699.9375,0 0,-266.0625 -49.3125,-82.1875 z"
               style="fill:#ffffff;fill-opacity:1;stroke:none"
               inkscape:connector-curvature="0" />
          </g>
          <path
             inkscape:connector-curvature="0"
             id="path3981"
             style="fill:none;fill-opacity:1;stroke:#ffffff;stroke-opacity:1;stroke-width:8;stroke-miterlimit:4;stroke-dasharray:none"
             d="m 4460.2142,-116.02714 -160.1604,-277.37172 c -4.5819,-7.93561 -13.1107,-12.56424 -22.263,-12.07743 -8.2182,0.43432 -15.5807,4.95077 -19.6959,12.07815 0,-7.2e-4 -160.1611,277.371 -160.1611,277.371 -4.313,7.47109 -4.3123,16.751356 0,24.220292 4.3137,7.468936 12.3514,12.108348 20.978,12.108348 l 320.3222,0 c 8.6259,0 16.6673,-4.639412 20.9802,-12.108348 4.3115,-7.469655 4.313,-16.750642 0,-24.220292 z m -10.2467,18.3031 c -2.2061,3.820396 -6.3184,6.193313 -10.7335,6.193313 0,0 -320.3236,0 -320.3236,0 -4.4137,0 -8.5246,-2.372917 -10.7314,-6.191875 -2.2061,-3.819678 -2.2068,-8.564078 0,-12.388068 0,7.2e-4 160.1611,-277.37028 160.1611,-277.37028 2.1048,-3.64423 5.8719,-5.95386 10.0763,-6.17965 4.6811,-0.24952 9.0466,2.11837 11.3886,6.17821 0,7.2e-4 160.1618,277.37244 160.1618,277.37244 2.2083,3.8204 2.2068,8.56551 0,12.38591 z" />
          <path
             inkscape:connector-curvature="0"
             id="path3994"
             style="fill:#fad200;fill-opacity:1;stroke:none"
             d="m 4289.8057,-387.48311 c -2.3427,-4.05984 -6.7074,-6.42701 -11.3886,-6.17749 -4.2051,0.22435 -7.9715,2.53255 -10.0762,6.17965 0,0 -160.1619,277.371 -160.1612,277.37028 -2.2046,3.8204 -2.2039,8.56695 0,12.387349 2.2061,3.820396 6.3185,6.192594 10.7314,6.192594 0,0 320.3222,0 320.3237,0 4.415,0 8.5238,-2.372917 10.7335,-6.193313 2.2039,-3.81968 2.2039,-8.56264 0,-12.38591 0,0 -160.1655,-277.371 -160.1655,-277.37316 z" />
          <path
             inkscape:connector-curvature="0"
             id="path3996"
             style="fill:#d40000;fill-opacity:1;stroke:none"
             d="m 4460.2142,-116.02714 -160.1604,-277.37172 c -4.5819,-7.93561 -13.1107,-12.56424 -22.263,-12.07743 -8.2182,0.43432 -15.5807,4.95077 -19.6959,12.07815 0,-7.2e-4 -160.1611,277.371 -160.1611,277.371 -4.313,7.47109 -4.3123,16.751356 0,24.220292 4.3137,7.468936 12.3514,12.108348 20.978,12.108348 l 320.3222,0 c 8.6259,0 16.6673,-4.639412 20.9802,-12.108348 4.3115,-7.469655 4.313,-16.750642 0,-24.220292 z m -10.2467,18.3031 c -2.2061,3.820396 -6.3184,6.193313 -10.7335,6.193313 0,0 -320.3236,0 -320.3236,0 -4.4137,0 -8.5246,-2.372917 -10.7314,-6.191875 -2.2061,-3.819678 -2.2068,-8.564078 0,-12.388068 0,7.2e-4 160.1611,-277.37028 160.1611,-277.37028 2.1048,-3.64423 5.8719,-5.95386 10.0763,-6.17965 4.6811,-0.24952 9.0466,2.11837 11.3886,6.17821 0,7.2e-4 160.1618,277.37244 160.1618,277.37244 2.2083,3.8204 2.2068,8.56551 0,12.38591 z" />
          <path
             inkscape:connector-curvature="0"
             id="path3998"
             style="fill:#000000;fill-rule:evenodd;stroke:none"
             d="m 4269.5223,-268.1243 c -12.758,-8.13702 -26.569,-0.77005 -31.594,12.49377 -12.9623,-8.0004 -25.2241,0.0805 -27.5941,14.4712 -12.4322,-2.01245 -17.8346,13.10202 -7.8424,19.86419 l -9.7073,0 0,21.19 -14.2016,0 0,49.27844 -14.8981,0 0,-4.08968 -6.0222,0 0,19.34736 6.0222,0 0,-4.31439 14.5161,0 c -8.2309,4.86169 -6.9994,15.072 0.9438,19.34736 l -41.3463,0 0,10.53881 282.5704,0 0,-10.53881 -79.1871,0 c 7.8648,-2.8179 13.5049,-10.33555 13.5049,-19.1676 0,-0.0598 5e-4,-0.12012 0,-0.17976 l 24.8078,0 14.4712,0 0,4.31439 5.9997,0 0,-19.34736 -5.9997,0 0,4.08968 -14.4712,0 0,-39.66093 -20.381,0 0,-19.59454 9.7298,0 0,-11.21297 -50.6042,0 0,21.19 -18.3811,0 0,-9.97703 -11.2579,0 0,9.97703 -29.6166,0 c 0.5616,-6.79395 -4.6197,-10.49584 -10.6062,-11.46011 -6.2097,0.46912 -10.9311,5.03425 -10.5837,11.46011 l -29.5042,0 0,-19.97658 c 4.2265,-0.29776 7.7857,-3.02547 9.258,-6.80862 10.1889,7.11998 21.8819,2.0771 27.0548,-8.44902 10.0698,8.21878 22.7865,5.39609 30.6278,-4.26945 26.401,8.73959 59.3384,-0.046 78.041,-20.53832 -8.0108,-13.87337 -8.7161,-15.08478 -16.134,-27.93125 -24.4221,-3.65055 -49.6416,2.64581 -67.6146,19.95408 z m -50.5369,128.24089 4.3819,0 c -5e-4,0.0597 0,0.12 0,0.17976 0,8.83207 5.6401,16.3497 13.5049,19.1676 l -49.9526,0 c 3.9511,-1.55269 6.7637,-5.38948 6.7637,-9.88715 1e-4,-0.0918 -0.02,-0.17834 -0.022,-0.26965 l 25.3246,0 0,-9.19056 z m 45.099,0 4.7188,0 c -5e-4,0.0597 0,0.12 0,0.17976 0,8.83102 5.6357,16.34891 13.5049,19.1676 l -31.7287,0 c 7.8647,-2.8179 13.505,-10.33555 13.505,-19.1676 0,-0.0598 5e-4,-0.12012 0,-0.17976 z m 45.4584,0 4.4267,0 c -5e-4,0.0597 0,0.12 0,0.17976 0,8.83207 5.6402,16.3497 13.505,19.1676 l -31.4367,0 c 7.8648,-2.8179 13.505,-10.33555 13.505,-19.1676 0,-0.0598 5e-4,-0.12012 0,-0.17976 z" />
        </g>
      </g>
    </g>
  </g>
</svg>
