<?xml version="1.0" encoding="UTF-8" standalone="no"?>
<!-- Created with Inkscape (http://www.inkscape.org/) -->

<svg
   xmlns:dc="http://purl.org/dc/elements/1.1/"
   xmlns:cc="http://creativecommons.org/ns#"
   xmlns:rdf="http://www.w3.org/1999/02/22-rdf-syntax-ns#"
   xmlns:svg="http://www.w3.org/2000/svg"
   xmlns="http://www.w3.org/2000/svg"
   xmlns:sodipodi="http://sodipodi.sourceforge.net/DTD/sodipodi-0.dtd"
   xmlns:inkscape="http://www.inkscape.org/namespaces/inkscape"
   width="791.10443"
   height="1001.0978"
   id="svg2"
   sodipodi:version="0.32"
   inkscape:version="0.92.2 (5c3e80d, 2017-08-06)"
   version="1.0"
   sodipodi:docname="Znak_F-8.svg"
   inkscape:output_extension="org.inkscape.output.svg.inkscape">
  <defs
     id="defs4">
    <inkscape:perspective
       sodipodi:type="inkscape:persp3d"
       inkscape:vp_x="0 : 526.18109 : 1"
       inkscape:vp_y="0 : 1000 : 0"
       inkscape:vp_z="744.09448 : 526.18109 : 1"
       inkscape:persp3d-origin="372.04724 : 350.78739 : 1"
       id="perspective10" />
    <inkscape:perspective
       id="perspective3162"
       inkscape:persp3d-origin="372.04724 : 350.78739 : 1"
       inkscape:vp_z="744.09448 : 526.18109 : 1"
       inkscape:vp_y="0 : 1000 : 0"
       inkscape:vp_x="0 : 526.18109 : 1"
       sodipodi:type="inkscape:persp3d" />
    <inkscape:perspective
       id="perspective3175"
       inkscape:persp3d-origin="250 : 166.66667 : 1"
       inkscape:vp_z="500 : 250 : 1"
       inkscape:vp_y="0 : 1000 : 0"
       inkscape:vp_x="0 : 250 : 1"
       sodipodi:type="inkscape:persp3d" />
    <inkscape:perspective
       id="perspective86"
       inkscape:persp3d-origin="500 : 400 : 1"
       inkscape:vp_z="1000 : 600 : 1"
       inkscape:vp_y="0 : 1000 : 0"
       inkscape:vp_x="0 : 600 : 1"
       sodipodi:type="inkscape:persp3d" />
  </defs>
  <sodipodi:namedview
     id="base"
     pagecolor="#ffffff"
     bordercolor="#666666"
     borderopacity="1.0"
     gridtolerance="10000"
     guidetolerance="10"
     objecttolerance="10"
     inkscape:pageopacity="0.0"
     inkscape:pageshadow="2"
     inkscape:zoom="0.69999999"
     inkscape:cx="397.99584"
     inkscape:cy="553.88043"
     inkscape:document-units="px"
     inkscape:current-layer="g5013"
     showgrid="false"
     inkscape:window-width="1920"
     inkscape:window-height="1018"
     inkscape:window-x="-8"
     inkscape:window-y="-8"
     showguides="true"
     inkscape:guide-bbox="true"
     fit-margin-top="0"
     fit-margin-left="0"
     fit-margin-right="0"
     fit-margin-bottom="0"
     inkscape:window-maximized="1" />
  <metadata
     id="metadata7">
    <rdf:RDF>
      <cc:Work
         rdf:about="">
        <dc:format>image/svg+xml</dc:format>
        <dc:type
           rdf:resource="http://purl.org/dc/dcmitype/StillImage" />
      </cc:Work>
    </rdf:RDF>
  </metadata>
  <g
     inkscape:label="Layer 1"
     inkscape:groupmode="layer"
     id="layer1"
     transform="translate(-736.42728,33.860625)">
    <g
       id="g4991"
       transform="translate(-421.25,127.61246)" />
    <g
       id="g5013"
       transform="matrix(1.2088889,0,0,1.2080522,-309.37495,-4.3766008)">
      <rect
         rx="32.498722"
         ry="40.415436"
         y="-23.492985"
         x="866.00793"
         height="826.86005"
         width="652.57422"
         id="rect2383"
         style="fill:#febe0b;fill-opacity:1;stroke:#000000;stroke-width:1.82048309;stroke-miterlimit:4;stroke-opacity:1;stroke-dasharray:none" />
      <rect
         ry="0"
         rx="0"
         y="243.49744"
         x="1014.6862"
         height="459.04282"
         width="35.995045"
         id="rect3190"
         style="fill:#febe0b;fill-opacity:1;stroke:#000000;stroke-width:4.00506258;stroke-miterlimit:4;stroke-opacity:1;stroke-dasharray:none" />
      <path
         sodipodi:nodetypes="cccccc"
         id="path3188"
         d="m 1032.6837,734.00102 0,-89.28572 204.2857,-81.42857 0,-215.71429 -204.2857,-78.57143 0,-78.57142"
         style="fill:none;stroke:#000000;stroke-width:40;stroke-linecap:butt;stroke-linejoin:miter;stroke-miterlimit:4;stroke-opacity:1;stroke-dasharray:none"
         inkscape:connector-curvature="0" />
      <path
         transform="matrix(0.4780834,0,0,0.4780834,589.30073,140.782)"
         d="m 975.71429,285.21933 a 50,50 0 0 1 -50,50 50,50 0 0 1 -50,-50 50,50 0 0 1 50,-50 50,50 0 0 1 50,50 z"
         sodipodi:ry="50"
         sodipodi:rx="50"
         sodipodi:cy="285.21933"
         sodipodi:cx="925.71429"
         id="path3192"
         style="fill:#febe0b;fill-opacity:1;stroke:#000000;stroke-width:8.36674118;stroke-miterlimit:4;stroke-opacity:1;stroke-dasharray:none"
         sodipodi:type="arc" />
      <path
         transform="matrix(0.4780834,0,0,0.4780834,796.84756,209.1094)"
         d="m 975.71429,285.21933 a 50,50 0 0 1 -50,50 50,50 0 0 1 -50,-50 50,50 0 0 1 50,-50 50,50 0 0 1 50,50 z"
         sodipodi:ry="50"
         sodipodi:rx="50"
         sodipodi:cy="285.21933"
         sodipodi:cx="925.71429"
         id="path3194"
         style="fill:#febe0b;fill-opacity:1;stroke:#000000;stroke-width:8.36674118;stroke-miterlimit:4;stroke-opacity:1;stroke-dasharray:none"
         sodipodi:type="arc" />
      <path
         transform="matrix(0.4780834,0,0,0.4780834,796.84756,425.66085)"
         d="m 975.71429,285.21933 a 50,50 0 0 1 -50,50 50,50 0 0 1 -50,-50 50,50 0 0 1 50,-50 50,50 0 0 1 50,50 z"
         sodipodi:ry="50"
         sodipodi:rx="50"
         sodipodi:cy="285.21933"
         sodipodi:cx="925.71429"
         id="path3196"
         style="fill:#febe0b;fill-opacity:1;stroke:#000000;stroke-width:8.36674118;stroke-miterlimit:4;stroke-opacity:1;stroke-dasharray:none"
         sodipodi:type="arc" />
      <path
         transform="matrix(0.4780834,0,0,0.4780834,589.30073,499.82566)"
         d="m 975.71429,285.21933 a 50,50 0 0 1 -50,50 50,50 0 0 1 -50,-50 50,50 0 0 1 50,-50 50,50 0 0 1 50,50 z"
         sodipodi:ry="50"
         sodipodi:rx="50"
         sodipodi:cy="285.21933"
         sodipodi:cx="925.71429"
         id="path3198"
         style="fill:#febe0b;fill-opacity:1;stroke:#000000;stroke-width:8.36674118;stroke-miterlimit:4;stroke-opacity:1;stroke-dasharray:none"
         sodipodi:type="arc" />
      <path
         sodipodi:nodetypes="cccc"
         id="path4495"
         d="m 987.28777,192.76022 90.91353,0 -45.4568,-75.20796 -45.45673,75.20796 z"
         style="fill:#000000;fill-rule:evenodd;stroke:none"
         inkscape:connector-curvature="0" />
      <g
         transform="matrix(0.4685854,0,0,0.4685854,915.12369,340.23332)"
         inkscape:label="Layer 1"
         id="g3178">
        <path
           sodipodi:type="arc"
           style="fill:#d40000;fill-opacity:1;fill-rule:nonzero;stroke:#ffffff;stroke-width:3.14976287;stroke-linecap:butt;stroke-linejoin:miter;stroke-miterlimit:4;stroke-opacity:1;stroke-dasharray:none;stroke-dashoffset:0"
           id="path3063"
           sodipodi:cx="484.56226"
           sodipodi:cy="627.25543"
           sodipodi:rx="179.35739"
           sodipodi:ry="175.39369"
           d="M 663.91965,627.25543 A 179.35739,175.39369 0 0 1 484.56226,802.64912 179.35739,175.39369 0 0 1 305.20486,627.25543 179.35739,175.39369 0 0 1 484.56226,451.86174 179.35739,175.39369 0 0 1 663.91965,627.25543 Z"
           transform="matrix(1.38605,0,0,1.417411,-421.6276,-639.0853)"
           inkscape:label="tarcza" />
        <path
           sodipodi:type="arc"
           style="fill:#ffffff;fill-opacity:1;fill-rule:nonzero;stroke:none"
           id="path6586"
           sodipodi:cx="249.71306"
           sodipodi:cy="244.34138"
           sodipodi:rx="140.71133"
           sodipodi:ry="122.87468"
           d="M 390.42439,244.34138 A 140.71133,122.87468 0 0 1 249.71306,367.21606 140.71133,122.87468 0 0 1 109.00172,244.34138 140.71133,122.87468 0 0 1 249.71306,121.46671 140.71133,122.87468 0 0 1 390.42439,244.34138 Z"
           transform="matrix(1.42135,0,0,1.627675,-104.9296,-147.7083)" />
      </g>
      <g
         transform="translate(-1245.3194,108.13708)"
         id="g4845"
         style="fill:#000000;fill-opacity:1;stroke:none">
        <path
           id="path4829"
           style="fill:#000000;fill-opacity:1;stroke:none"
           d="m 2223.1641,-88.904694 16.8777,66.87614 11.3238,0 10.7608,-43.83248 10.7608,43.83248 11.3237,0 16.8777,-66.87614 -11.3236,0 -11.1361,44.14127 -10.8454,-44.14127 -11.3143,0 -10.8454,44.14127 -11.1359,-44.14127 -11.3238,0 z"
           inkscape:connector-curvature="0" />
        <path
           sodipodi:nodetypes="csscccccccccccssc"
           id="path4831"
           style="fill:#000000;fill-opacity:1;stroke:none"
           d="m 2332.9409,-66.612644 c -12.3276,0 -22.3324,9.98476 -22.3324,22.28738 0,12.30262 10.0048,22.28738 22.3324,22.28738 4.8213,0 9.2833,-1.53685 12.9345,-4.13238 l 1.0885,4.14171 11.0918,0 -2.894,-10.88373 0,-33.69104 -11.0917,0 0,2.96235 c -3.2777,-1.88566 -7.0766,-2.97167 -11.1291,-2.97167 z m 0.335,11.29229 c 5.2457,0 9.6438,4.89192 10.7941,9.78005 l 0,2.96202 c -1.1503,4.88629 -5.5484,9.38745 -10.7941,9.38745 -6.1196,0 -11.0825,-4.95286 -11.0825,-11.06016 0,-6.10717 4.9629,-11.06936 11.0825,-11.06936 z"
           inkscape:connector-curvature="0" />
        <path
           id="path4833"
           style="fill:#000000;fill-opacity:1;stroke:none"
           d="m 2378.6621,-64.540814 0,-2.07183 -11.0866,0 0,44.58409 11.0866,0 0,-28.89604 c 2.6768,-3.23157 6.947,-4.85701 11.1054,-4.69459 l 0,-10.99346 c -4.9331,0.16036 -8.8725,0.62877 -11.1054,2.07183 z"
           inkscape:connector-curvature="0" />
        <path
           id="path4835"
           style="fill:#000000;fill-opacity:1;stroke:none"
           d="m 2534.5867,-66.612644 10.8749,44.58409 11.1172,0 8.2634,-26.65756 8.2634,26.65756 11.1172,0 10.8748,-44.58409 -11.1173,0 -5.9784,24.51199 -7.6011,-24.51199 -11.1172,0 -7.6013,24.51199 -5.9783,-24.51199 -11.1173,0 z"
           inkscape:connector-curvature="0" />
        <path
           id="path4837"
           style="fill:#000000;fill-opacity:1;stroke:none"
           d="m 2437.7112,-66.612644 0,11.07175 15.3062,0 -15.3062,28.02287 0,5.48947 30.3885,0 0,-11.07175 -15.4463,0 15.4463,-28.77526 0,-4.73708 -30.3885,0 z"
           inkscape:connector-curvature="0" />
        <path
           id="path4839"
           d="m 2414.1622,-66.619364 c -0.4605,0.0046 -0.932,0.01875 -1.423,0.03382 -5.504,1.2e-4 -10.199,5.57447 -10.199,11.38489 0.049,6.87301 3.3334,9.48589 8.4371,12.94353 6.4308,3.92346 8.5837,3.28753 8.0641,8.166 -2.1866,5.34755 -12.0307,2.16032 -17.0773,0.60992 l -2.6768,8.33535 c 4.2217,1.77594 8.749,2.88993 13.2147,3.1173 7.0569,-1.1e-4 15.6542,-2.4716 15.6542,-13.35014 0.4582,-5.73235 -3.6582,-9.29191 -6.8443,-11.38488 -2.8114,-2.45849 -9.3415,-3.87217 -9.3859,-8.30155 1.2881,-4.58138 7.8874,-2.06001 11.0123,-1.0165 l 0.068,-9.69071 c -3.0695,-0.64547 -5.6194,-0.87989 -8.8436,-0.84703 z"
           style="fill:#000000;fill-opacity:1;stroke:none"
           inkscape:connector-curvature="0" />
        <path
           sodipodi:nodetypes="csscccccccccccssc"
           id="path4841"
           style="fill:#000000;fill-opacity:1;stroke:none"
           d="m 2499.9519,-66.612644 c -12.3275,0 -22.3324,9.98476 -22.3324,22.28738 0,12.30262 10.0049,22.28738 22.3324,22.28738 4.8214,0 9.2834,-1.53685 12.9345,-4.13238 l 1.0886,4.14171 11.0918,0 -2.8939,-10.88373 0,-33.69104 -11.0919,0 0,2.96235 c -3.2777,-1.88566 -7.0766,-2.97167 -11.1291,-2.97167 z m 0.3351,11.29229 c 5.2457,0 9.6437,4.89192 10.794,9.78005 l 0,2.96202 c -1.1503,4.88629 -5.5483,9.38745 -10.794,9.38745 -6.1197,0 -11.0826,-4.95286 -11.0826,-11.06016 0,-6.10717 4.9629,-11.06936 11.0826,-11.06936 z"
           inkscape:connector-curvature="0" />
        <path
           sodipodi:nodetypes="csscccccccccccssc"
           id="path4843"
           style="fill:#000000;fill-opacity:1;stroke:none"
           d="m 2626.9499,-66.612644 c -12.3276,0 -22.3325,9.98476 -22.3325,22.28738 0,12.30262 10.0049,22.28738 22.3325,22.28738 4.8213,0 9.2833,-1.53685 12.9345,-4.13238 l 1.0885,4.14171 11.0918,0 -2.8939,-10.88373 0,-33.69104 -11.0918,0 0,2.96235 c -3.2777,-1.88566 -7.0766,-2.97167 -11.1291,-2.97167 z m 0.335,11.29229 c 5.2457,0 9.6438,4.89192 10.7941,9.78005 l 0,2.96202 c -1.1503,4.88629 -5.5484,9.38745 -10.7941,9.38745 -6.1196,0 -11.0825,-4.95286 -11.0825,-11.06016 0,-6.10717 4.9629,-11.06936 11.0825,-11.06936 z"
           inkscape:connector-curvature="0" />
      </g>
      <g
         transform="matrix(1,0,0,1.010473,-738.03,-94.519004)"
         id="g4972"
         style="fill:#000000;fill-opacity:1;stroke:none">
        <path
           id="path4859"
           style="fill:#000000;fill-opacity:1;stroke:none"
           d="m 2003.002,684.80368 0,31.7962 0.049,0 5.3162,0 10.3298,0 c 0,0 4.6092,-2.09981 5.494,-7.98573 0.6343,-4.19255 -2.8026,-8.76433 -2.8026,-8.76433 0,0 2.3564,-4.28739 1.3035,-8.03469 -1.4248,-5.07165 -5.3028,-7.01145 -5.3028,-7.01145 l -9.0219,0 -1.6327,0 -3.7325,0 z m 5.423,5.34314 7.6428,0 c 0,0 1.9398,2.01979 1.9398,4.03959 0,2.0198 -1.9398,4.03959 -1.9398,4.03959 l -7.6428,0 0,-8.07918 z m 0.053,13.29322 8.8708,0 c 0,0 1.9394,2.01981 1.9394,4.03961 0,2.0198 -1.9394,4.03959 -1.9394,4.03959 l -8.8708,0 0,-8.0792 z"
           inkscape:connector-curvature="0" />
        <path
           id="path4861"
           style="fill:#000000;fill-opacity:1;stroke:none"
           d="m 2109.2627,695.4024 c -5.8645,0 -10.625,4.74881 -10.625,10.59875 0,5.84993 4.7605,10.59873 10.625,10.59873 2.0516,0 3.3368,-0.19183 5.0678,-0.58337 l 2.4486,-5.07541 c -4.877,0.31271 -10.0209,2.35617 -12.7746,-3.03 l 13.9477,-0.046 0,-7.95325 c -1.9221,-2.72626 -5.0964,-4.50946 -8.6895,-4.50946 z m 0,5.01935 c 2.4228,0 4.4856,1.53939 5.2623,3.69034 l -10.5246,0 c 0.7766,-2.15095 2.8394,-3.69034 5.2623,-3.69034 z"
           inkscape:connector-curvature="0" />
        <path
           id="path4867"
           style="fill:#000000;fill-opacity:1;stroke:none"
           d="m 2132.0927,684.80369 -2.3781,7.77019 7.7867,-7.77019 -5.4086,0 z m -2.5371,10.59874 c -0.219,0.002 -0.4421,0.006 -0.6758,0.0132 -2.6168,7e-5 -4.8389,2.64275 -4.8389,5.40537 0.023,3.26777 1.5877,4.5199 4.0143,6.16384 3.0576,1.8654 4.0758,1.55243 3.8289,3.87185 -1.0399,2.54247 -5.7253,1.03855 -8.1248,0.30137 l -1.2718,3.95134 c 2.0071,0.84441 4.1698,1.38242 6.293,1.49045 3.3553,0 7.4355,-1.18042 7.4355,-6.35261 0.218,-2.72544 -1.744,-4.4069 -3.2589,-5.40199 -1.3366,-1.16889 -4.4403,-1.85206 -4.4614,-3.95801 0.6124,-2.17823 3.7575,-0.96981 5.2432,-0.4736 l 0.03,-4.61047 c -1.4593,-0.30691 -2.68,-0.4164 -4.2129,-0.40077 z"
           inkscape:connector-curvature="0" />
        <path
           id="path4871"
           style="fill:#000000;fill-opacity:1;stroke:none"
           d="m 2055.4119,695.4024 5.1703,21.19748 5.2857,0 3.929,-12.67432 3.9287,12.67432 5.2857,0 5.1704,-21.19748 -5.2857,0 -2.8424,11.65421 -3.6139,-11.65421 -5.2857,0 -3.614,11.65421 -2.8425,-11.65421 -5.2856,0 z"
           inkscape:connector-curvature="0" />
        <path
           id="path4873"
           style="fill:#000000;fill-opacity:1;stroke:none"
           d="m 2045.1954,698.05974 0,5.28407 -10.7099,0 0,-5.28407 10.7099,0 z"
           inkscape:connector-curvature="0" />
        <path
           id="path4885"
           style="fill:#000000;fill-opacity:1;stroke:none"
           d="m 2088.717,684.8037 0,5.369 5.3853,0 0,-5.369 -5.3853,0 z m 0.036,10.46241 0,21.33377 5.3139,0 0,-21.33377 -5.3139,0 z"
           inkscape:connector-curvature="0" />
      </g>
      <g
         transform="matrix(1,0,0,1.010473,-727.5,-91.775481)"
         id="g5001"
         style="fill:#000000;fill-opacity:1;stroke:none">
        <path
           id="path4875"
           style="fill:#000000;fill-opacity:1;stroke:none"
           d="m 2008.359,374.13725 c -8.7697,0 -15.887,7.12234 -15.887,15.89811 0,8.77574 7.1173,15.89809 15.887,15.89809 3.7189,0 7.1411,-1.28117 9.8492,-3.42602 l -2.3696,-4.49347 c -1.9193,1.7545 -4.4747,2.82267 -7.2774,2.82267 -5.9581,0 -10.7936,-4.83897 -10.7936,-10.80127 0,-5.86912 4.6858,-10.65328 10.5154,-10.80131 0.093,-0.002 0.1853,0 0.2782,0 2.7812,0 5.3631,1.0541 7.2774,2.78472 l 2.3696,-4.4639 c -2.7061,-2.13918 -6.1355,-3.41762 -9.8492,-3.41762 z"
           inkscape:connector-curvature="0" />
        <path
           transform="translate(-421.25,127.61246)"
           d="m 2530.1063,257.12351 c -5.8645,0 -10.625,4.74881 -10.625,10.59875 0,5.84993 4.7605,10.59873 10.625,10.59873 2.0516,0 3.3368,-0.19183 5.0678,-0.58337 l 2.4486,-5.07541 c -4.877,0.31271 -10.0209,2.35617 -12.7746,-3.03 l 13.9477,-0.046 0,-7.95325 c -1.9221,-2.72626 -5.0964,-4.50946 -8.6895,-4.50946 z m 0,5.01935 c 2.4228,0 4.4856,1.53939 5.2623,3.69034 l -10.5246,0 c 0.7766,-2.15095 2.8394,-3.69034 5.2623,-3.69034 z"
           style="fill:#000000;fill-opacity:1;stroke:none"
           id="path4964"
           inkscape:connector-curvature="0" />
        <path
           transform="translate(-421.25,127.61246)"
           d="m 2552.9363,246.5248 -2.3781,7.77019 7.7867,-7.77019 -5.4086,0 z m -2.5371,10.59874 c -0.219,0.002 -0.4421,0.006 -0.6758,0.0132 -2.6168,7e-5 -4.8389,2.64275 -4.8389,5.40537 0.023,3.26777 1.5877,4.5199 4.0143,6.16384 3.0576,1.8654 4.0758,1.55243 3.8289,3.87185 -1.0399,2.54247 -5.7253,1.03855 -8.1248,0.30137 l -1.2718,3.95134 c 2.0071,0.84441 4.1698,1.38242 6.293,1.49045 3.3553,0 7.4355,-1.18042 7.4355,-6.35261 0.218,-2.72544 -1.744,-4.4069 -3.2589,-5.40199 -1.3366,-1.16889 -4.4403,-1.85206 -4.4614,-3.95801 0.6124,-2.17823 3.7575,-0.96981 5.2432,-0.4736 l 0.03,-4.61047 c -1.4593,-0.30691 -2.68,-0.4164 -4.2129,-0.40077 z"
           style="fill:#000000;fill-opacity:1;stroke:none"
           id="path4966"
           inkscape:connector-curvature="0" />
        <path
           transform="translate(-421.25,127.61246)"
           d="m 2476.2554,257.12351 5.1703,21.19748 5.2857,0 3.929,-12.67432 3.9287,12.67432 5.2857,0 5.1704,-21.19748 -5.2857,0 -2.8424,11.65421 -3.6139,-11.65421 -5.2857,0 -3.614,11.65421 -2.8425,-11.65421 -5.2856,0 z"
           style="fill:#000000;fill-opacity:1;stroke:none"
           id="path4968"
           inkscape:connector-curvature="0" />
        <path
           transform="translate(-421.25,127.61246)"
           d="m 2509.5606,246.52481 0,5.369 5.3853,0 0,-5.369 -5.3853,0 z m 0.036,10.46241 0,21.33377 5.3139,0 0,-21.33377 -5.3139,0 z"
           style="fill:#000000;fill-opacity:1;stroke:none"
           id="path4970"
           inkscape:connector-curvature="0" />
        <path
           id="path4895"
           style="fill:#000000;fill-opacity:1;stroke:none"
           d="m 2041.9619,387.39332 0,5.28405 -10.71,0 0,-5.28405 10.71,0 z"
           inkscape:connector-curvature="0" />
      </g>
      <g
         transform="matrix(1,0,0,1.010473,-1221.2613,-247.47228)"
         id="g4933"
         style="fill:#000000;fill-opacity:1;stroke:none">
        <path
           id="path4857"
           style="fill:#000000;fill-opacity:1;stroke:none"
           d="m 2284.0007,461.1864 0,31.79619 14.5504,0 c 0,0 10.5536,-4.10192 10.5536,-15.8981 0,-11.65157 -10.5536,-15.89809 -10.5536,-15.89809 l -14.5504,0 z m 5.3321,5.37004 8.122,0 c 0,0 6.3045,2.94252 6.3045,10.52805 0,7.68565 -6.3045,10.42206 -6.3045,10.42206 l -8.122,0 0,-20.95011 z"
           inkscape:connector-curvature="0" />
        <g
           id="g4911"
           transform="translate(-389.66634,43.941644)"
           style="fill:#000000;fill-opacity:1;stroke:none">
          <path
             d="m 2763.089,417.24476 0,5.36901 5.3852,0 0,-5.36901 -5.3852,0 z m 0.035,10.46242 0,21.33377 5.3141,0 0,-21.33377 -5.3141,0 z"
             style="fill:#000000;fill-opacity:1;stroke:none"
             id="path4863"
             inkscape:connector-curvature="0" />
          <path
             d="m 2750.4416,427.8435 c -3.1514,0.0307 -5.2762,2.065 -5.2762,2.065 0,0 -2.4589,-2.065 -5.1125,-2.065 -2.8178,0 -4.8748,1.53907 -5.3778,1.95473 l 0,-1.95473 -5.2717,0 0,21.19745 5.2717,0 0,-13.40503 c 0.1917,-0.57389 0.9915,-2.47981 3.2019,-2.47981 2.8836,0 3.3257,2.6475 3.3257,2.6475 l 0.089,13.23734 5.2718,0 0.018,-13.23734 c 0,0 0.5837,-2.67399 3.4141,-2.67399 2.2982,0 3.2393,2.39577 3.3259,2.62986 l 0,13.28147 5.2716,0 0.018,-13.23734 c -0.1885,-4.42335 -3.8233,-7.88558 -8.1684,-7.96011 z"
             style="fill:#000000;fill-opacity:1;stroke:none"
             id="path4865"
             inkscape:connector-curvature="0" />
          <path
             d="m 2827.6123,417.24476 -5.2929,5.23869 0,5.17652 -4.1071,0 0,5.29199 4.1071,0 0,6.86356 c -0.074,5.06825 2.6865,9.02042 7.9925,9.22543 l 2.6865,-5.25977 c -1.504,0 -1.6539,0 -3.5079,0 -0.7155,0 -1.8782,-1.39333 -1.8782,-2.13655 0,-2.68636 0,-8.69267 0,-8.69267 l 4.0985,0 0,-5.29199 -4.0985,0 0,-10.41521 z"
             style="fill:#000000;fill-opacity:1;stroke:none"
             id="path4869"
             inkscape:connector-curvature="0" />
          <path
             d="m 2848.1296,427.8435 c -5.88,0 -10.6522,4.74822 -10.6522,10.59873 0,5.8505 4.7722,10.59872 10.6522,10.59872 5.8799,0 10.6524,-4.74822 10.6524,-10.59872 0,-5.85051 -4.7725,-10.59873 -10.6524,-10.59873 z m 0.1597,5.36999 c 2.9191,0 5.2906,2.35977 5.2906,5.26405 0,2.90432 -2.3715,5.25962 -5.2906,5.25962 -2.9188,0 -5.2861,-2.3553 -5.2861,-5.25962 0,-2.90428 2.3673,-5.26405 5.2861,-5.26405 z"
             style="fill:#000000;fill-opacity:1;stroke:none"
             id="path4877"
             inkscape:connector-curvature="0" />
          <path
             style="fill:#000000;fill-opacity:1;stroke:none"
             d="m 2807.0631,427.8403 c -0.2189,0.002 -0.4432,0.009 -0.6767,0.0161 -2.6168,6e-5 -4.8489,2.65038 -4.8489,5.41295 0.023,3.26775 1.5848,4.51005 4.0115,6.15398 3.0574,1.8654 4.081,1.56306 3.834,3.88252 -1.0397,2.54246 -5.72,1.02711 -8.1194,0.28999 l -1.2725,3.96303 c 2.007,0.84436 4.1596,1.37402 6.2827,1.4821 3.3552,-4e-5 7.4427,-1.17512 7.4427,-6.34729 0.2179,-2.72543 -1.7393,-4.41785 -3.2541,-5.41295 -1.3365,-1.16889 -4.4413,-1.84101 -4.4624,-3.94695 0.6124,-2.17821 3.7499,-0.97943 5.2357,-0.48329 l 0.032,-4.60746 c -1.4595,-0.30688 -2.6719,-0.41832 -4.2049,-0.40271 z"
             id="path4879"
             inkscape:connector-curvature="0" />
          <path
             d="m 2783.571,427.8435 c -5.861,0 -10.6178,4.74724 -10.6178,10.59651 0,5.84927 4.7568,10.59651 10.6178,10.59651 2.2925,0 4.4139,-0.73068 6.1499,-1.96474 l 0.5175,1.96917 5.2736,0 -1.3758,-5.17466 0,-16.01837 -5.2738,0 0,1.40846 c -1.5582,-0.89654 -3.3645,-1.41288 -5.2914,-1.41288 z m 0.1595,5.3689 c 2.494,0 4.5848,2.32587 5.1319,4.64992 l 0,1.4083 c -0.5471,2.32317 -2.6379,4.46325 -5.1319,4.46325 -2.9096,0 -5.2693,-2.35484 -5.2693,-5.25855 0,-2.90365 2.3597,-5.26292 5.2693,-5.26292 z"
             style="fill:#000000;fill-opacity:1;stroke:none"
             id="path4883"
             sodipodi:nodetypes="csscccccccccccssc"
             inkscape:connector-curvature="0" />
        </g>
        <path
           id="path4897"
           style="fill:#000000;fill-opacity:1;stroke:none"
           d="m 2329.7759,474.44248 0,5.28404 -10.71,0 0,-5.28404 10.71,0 z"
           inkscape:connector-curvature="0" />
      </g>
      <g
         transform="matrix(1,0,0,1.010473,-2099.5064,492.55341)"
         id="g4919"
         style="fill:#000000;fill-opacity:1;stroke:none">
        <g
           transform="translate(491.42857,-237.14286)"
           id="g4946"
           style="fill:#000000;fill-opacity:1;stroke:none">
          <path
             id="path4855"
             style="fill:#000000;fill-opacity:1;stroke:none"
             d="m 1806.8228,763.72289 -10.5843,31.7962 5.3748,0 2.6203,-7.86346 10.562,0 2.6205,7.86346 5.3745,0 -10.5888,-31.7962 -5.379,0 z m 2.6918,8.06804 3.494,10.49642 -6.988,0 3.494,-10.49642 z"
             transform="translate(874.57878,-346.47814)"
             inkscape:connector-curvature="0" />
          <path
             id="path4881"
             style="fill:#000000;fill-opacity:1;stroke:none"
             d="m 1844.1627,776.97897 0,5.28404 -10.71,0 0,-5.28404 10.71,0 z"
             transform="translate(874.57878,-346.47814)"
             inkscape:connector-curvature="0" />
          <path
             d="m 2763.089,417.24476 0,5.36901 5.3852,0 0,-5.36901 -5.3852,0 z m 0.035,10.46242 0,21.33377 5.3141,0 0,-21.33377 -5.3141,0 z"
             style="fill:#000000;fill-opacity:1;stroke:none"
             id="path4921"
             inkscape:connector-curvature="0" />
          <path
             d="m 2750.4417,427.8435 c -3.1514,0.0307 -5.2762,2.065 -5.2762,2.065 0,0 -2.4589,-2.065 -5.1125,-2.065 -2.8178,0 -4.8748,1.53907 -5.3778,1.95473 l 0,-1.95473 -5.2717,0 0,21.19745 5.2717,0 0,-13.40503 c 0.1917,-0.57389 0.9915,-2.47981 3.2019,-2.47981 2.8836,0 3.3257,2.6475 3.3257,2.6475 l 0.088,13.23734 5.2718,0 0.018,-13.23734 c 0,0 0.5837,-2.67399 3.4141,-2.67399 2.2982,0 3.2393,2.39577 3.3259,2.62986 l 0,13.28147 5.2716,0 0.018,-13.23734 c -0.1885,-4.42335 -3.8233,-7.88558 -8.1684,-7.96011 z"
             style="fill:#000000;fill-opacity:1;stroke:none"
             id="path4923"
             inkscape:connector-curvature="0" />
          <path
             d="m 2827.6123,417.24476 -5.2929,5.23869 0,5.17652 -4.1071,0 0,5.29199 4.1071,0 0,6.86356 c -0.074,5.06825 2.6865,9.02042 7.9925,9.22543 l 2.6865,-5.25977 c -1.504,0 -1.6539,0 -3.5079,0 -0.7155,0 -1.8782,-1.39333 -1.8782,-2.13655 0,-2.68636 0,-8.69267 0,-8.69267 l 4.0985,0 0,-5.29199 -4.0985,0 0,-10.41521 z"
             style="fill:#000000;fill-opacity:1;stroke:none"
             id="path4925"
             inkscape:connector-curvature="0" />
          <path
             d="m 2848.1296,427.8435 c -5.88,0 -10.6522,4.74822 -10.6522,10.59873 0,5.8505 4.7722,10.59872 10.6522,10.59872 5.8799,0 10.6524,-4.74822 10.6524,-10.59872 0,-5.85051 -4.7725,-10.59873 -10.6524,-10.59873 z m 0.1597,5.36999 c 2.9191,0 5.2906,2.35977 5.2906,5.26405 0,2.90432 -2.3715,5.25962 -5.2906,5.25962 -2.9188,0 -5.2861,-2.3553 -5.2861,-5.25962 0,-2.90428 2.3673,-5.26405 5.2861,-5.26405 z"
             style="fill:#000000;fill-opacity:1;stroke:none"
             id="path4927"
             inkscape:connector-curvature="0" />
          <path
             style="fill:#000000;fill-opacity:1;stroke:none"
             d="m 2807.0631,427.8403 c -0.2189,0.002 -0.4432,0.009 -0.6767,0.0161 -2.6168,6e-5 -4.8489,2.65038 -4.8489,5.41295 0.023,3.26775 1.5848,4.51005 4.0115,6.15398 3.0574,1.8654 4.081,1.56306 3.834,3.88252 -1.0397,2.54246 -5.72,1.02711 -8.1194,0.28999 l -1.2725,3.96303 c 2.007,0.84436 4.1596,1.37402 6.2827,1.4821 3.3552,-4e-5 7.4427,-1.17512 7.4427,-6.34729 0.2179,-2.72543 -1.7393,-4.41785 -3.2541,-5.41295 -1.3365,-1.16889 -4.4413,-1.84101 -4.4624,-3.94695 0.6124,-2.17821 3.7499,-0.97943 5.2357,-0.48329 l 0.032,-4.60746 c -1.4595,-0.30688 -2.6719,-0.41832 -4.2049,-0.40271 z"
             id="path4929"
             inkscape:connector-curvature="0" />
          <path
             d="m 2783.571,427.8435 c -5.861,0 -10.6178,4.74724 -10.6178,10.59651 0,5.84927 4.7568,10.59651 10.6178,10.59651 2.2925,0 4.4139,-0.73068 6.1499,-1.96474 l 0.5175,1.96917 5.2736,0 -1.3758,-5.17466 0,-16.01837 -5.2738,0 0,1.40846 c -1.5582,-0.89654 -3.3645,-1.41288 -5.2914,-1.41288 z m 0.1595,5.3689 c 2.494,0 4.5848,2.32587 5.1319,4.64992 l 0,1.4083 c -0.5471,2.32317 -2.6379,4.46325 -5.1319,4.46325 -2.9096,0 -5.2693,-2.35484 -5.2693,-5.25855 0,-2.90365 2.3597,-5.26292 5.2693,-5.26292 z"
             style="fill:#000000;fill-opacity:1;stroke:none"
             id="path4931"
             sodipodi:nodetypes="csscccccccccccssc"
             inkscape:connector-curvature="0" />
        </g>
      </g>
      <rect
         rx="23.336735"
         ry="29.941753"
         y="-9.3526649"
         x="881.92981"
         height="798.57941"
         width="620.73053"
         id="rect5011"
         style="fill:none;stroke:#000000;stroke-width:12.00029278;stroke-miterlimit:4;stroke-opacity:1;stroke-dasharray:none" />
    </g>
  </g>
</svg>
