<?xml version="1.0" encoding="UTF-8" standalone="no"?>
<!-- Created with Inkscape (http://www.inkscape.org/) -->

<svg
   xmlns:dc="http://purl.org/dc/elements/1.1/"
   xmlns:cc="http://creativecommons.org/ns#"
   xmlns:rdf="http://www.w3.org/1999/02/22-rdf-syntax-ns#"
   xmlns:svg="http://www.w3.org/2000/svg"
   xmlns="http://www.w3.org/2000/svg"
   xmlns:sodipodi="http://sodipodi.sourceforge.net/DTD/sodipodi-0.dtd"
   xmlns:inkscape="http://www.inkscape.org/namespaces/inkscape"
   width="790.46533"
   height="337.60858"
   id="svg2"
   sodipodi:version="0.32"
   inkscape:version="0.92.2 (5c3e80d, 2017-08-06)"
   version="1.0"
   sodipodi:docname="Znak_F-9.svg"
   inkscape:output_extension="org.inkscape.output.svg.inkscape">
  <defs
     id="defs4">
    <inkscape:perspective
       sodipodi:type="inkscape:persp3d"
       inkscape:vp_x="0 : 526.18109 : 1"
       inkscape:vp_y="0 : 1000 : 0"
       inkscape:vp_z="744.09448 : 526.18109 : 1"
       inkscape:persp3d-origin="372.04724 : 350.78739 : 1"
       id="perspective10" />
    <inkscape:perspective
       id="perspective86"
       inkscape:persp3d-origin="500 : 400 : 1"
       inkscape:vp_z="1000 : 600 : 1"
       inkscape:vp_y="0 : 1000 : 0"
       inkscape:vp_x="0 : 600 : 1"
       sodipodi:type="inkscape:persp3d" />
    <inkscape:perspective
       sodipodi:type="inkscape:persp3d"
       inkscape:vp_x="0 : 600 : 1"
       inkscape:vp_y="0 : 1000 : 0"
       inkscape:vp_z="1000 : 600 : 1"
       inkscape:persp3d-origin="500 : 400 : 1"
       id="perspective2620" />
    <inkscape:perspective
       sodipodi:type="inkscape:persp3d"
       inkscape:vp_x="0 : 250 : 1"
       inkscape:vp_y="0 : 1000 : 0"
       inkscape:vp_z="500 : 250 : 1"
       inkscape:persp3d-origin="250 : 166.66667 : 1"
       id="perspective3175" />
    <inkscape:perspective
       sodipodi:type="inkscape:persp3d"
       inkscape:vp_x="0 : 526.18109 : 1"
       inkscape:vp_y="0 : 1000 : 0"
       inkscape:vp_z="744.09448 : 526.18109 : 1"
       inkscape:persp3d-origin="372.04724 : 350.78739 : 1"
       id="perspective3162" />
    <inkscape:perspective
       id="perspective2616"
       inkscape:persp3d-origin="372.04724 : 350.78739 : 1"
       inkscape:vp_z="744.09448 : 526.18109 : 1"
       inkscape:vp_y="0 : 1000 : 0"
       inkscape:vp_x="0 : 526.18109 : 1"
       sodipodi:type="inkscape:persp3d" />
    <inkscape:perspective
       id="perspective2688"
       inkscape:persp3d-origin="372.04724 : 350.78739 : 1"
       inkscape:vp_z="744.09448 : 526.18109 : 1"
       inkscape:vp_y="0 : 1000 : 0"
       inkscape:vp_x="0 : 526.18109 : 1"
       sodipodi:type="inkscape:persp3d" />
    <inkscape:perspective
       sodipodi:type="inkscape:persp3d"
       inkscape:vp_x="0 : 600 : 1"
       inkscape:vp_y="0 : 1000 : 0"
       inkscape:vp_z="1000 : 600 : 1"
       inkscape:persp3d-origin="500 : 400 : 1"
       id="perspective3648" />
    <inkscape:perspective
       sodipodi:type="inkscape:persp3d"
       inkscape:vp_x="0 : 250 : 1"
       inkscape:vp_y="0 : 1000 : 0"
       inkscape:vp_z="500 : 250 : 1"
       inkscape:persp3d-origin="250 : 166.66667 : 1"
       id="perspective3646" />
    <inkscape:perspective
       sodipodi:type="inkscape:persp3d"
       inkscape:vp_x="0 : 526.18109 : 1"
       inkscape:vp_y="0 : 1000 : 0"
       inkscape:vp_z="744.09448 : 526.18109 : 1"
       inkscape:persp3d-origin="372.04724 : 350.78739 : 1"
       id="perspective3644" />
    <inkscape:perspective
       id="perspective3642"
       inkscape:persp3d-origin="372.04724 : 350.78739 : 1"
       inkscape:vp_z="744.09448 : 526.18109 : 1"
       inkscape:vp_y="0 : 1000 : 0"
       inkscape:vp_x="0 : 526.18109 : 1"
       sodipodi:type="inkscape:persp3d" />
  </defs>
  <sodipodi:namedview
     id="base"
     pagecolor="#ffffff"
     bordercolor="#666666"
     borderopacity="1.0"
     gridtolerance="10000"
     guidetolerance="10"
     objecttolerance="10"
     inkscape:pageopacity="0.0"
     inkscape:pageshadow="2"
     inkscape:zoom="0.7"
     inkscape:cx="148.85275"
     inkscape:cy="388.82971"
     inkscape:document-units="px"
     inkscape:current-layer="layer1"
     showgrid="false"
     inkscape:window-width="1440"
     inkscape:window-height="844"
     inkscape:window-x="-8"
     inkscape:window-y="-8"
     inkscape:window-maximized="1" />
  <metadata
     id="metadata7">
    <rdf:RDF>
      <cc:Work
         rdf:about="">
        <dc:format>image/svg+xml</dc:format>
        <dc:type
           rdf:resource="http://purl.org/dc/dcmitype/StillImage" />
      </cc:Work>
    </rdf:RDF>
  </metadata>
  <g
     inkscape:label="Layer 1"
     inkscape:groupmode="layer"
     id="layer1"
     transform="translate(1658.0899,-57.843586)">
    <g
       id="g4991"
       transform="translate(-1890.3702,179.00123)" />
    <rect
       style="fill:#febe0b;fill-opacity:1;stroke:#000000;stroke-width:1.11000001;stroke-miterlimit:4;stroke-dasharray:none;stroke-opacity:1"
       id="rect2383"
       width="789.35535"
       height="336.4986"
       x="-1657.5349"
       y="58.398586"
       ry="31.62602"
       rx="39.310535" />
    <rect
       style="fill:none;fill-opacity:1;stroke:#000000;stroke-width:14.5;stroke-miterlimit:4;stroke-dasharray:none;stroke-opacity:1"
       id="rect5011"
       width="756.70349"
       height="305.32053"
       x="-1641.209"
       y="73.987625"
       ry="21.090475"
       rx="28.448719" />
    <g
       id="g4060"
       transform="translate(-2.7435353,8.4149444)">
      <g
         transform="translate(-97.142857,445.71429)"
         id="g4047">
        <path
           sodipodi:nodetypes="csscccccccccccssc"
           id="path4035"
           style="fill:#000000;fill-opacity:1;stroke:none;stroke-width:7;stroke-miterlimit:4;stroke-dasharray:none;stroke-opacity:1"
           d="M -1031.7927,-245.55681 C -1051.3347,-245.55681 -1067.1954,-229.72829 -1067.1954,-210.2253 C -1067.1954,-190.72227 -1051.3347,-174.89372 -1031.7927,-174.89372 C -1024.1495,-174.89372 -1017.0759,-177.33004 -1011.2879,-181.44476 L -1009.5623,-174.879 L -991.97859,-174.879 L -996.56637,-192.13258 L -996.56637,-245.54209 L -1014.1498,-245.54209 L -1014.1498,-240.84596 C -1019.3459,-243.83517 -1025.3682,-245.55681 -1031.7927,-245.55681 z M -1031.2615,-227.65555 C -1022.9453,-227.65555 -1015.9735,-219.90051 -1014.1498,-212.1514 L -1014.1498,-207.4559 C -1015.9735,-199.70985 -1022.9453,-192.57422 -1031.2615,-192.57422 C -1040.9625,-192.57422 -1048.8302,-200.42589 -1048.8302,-210.10751 C -1048.8302,-219.78919 -1040.9625,-227.65555 -1031.2615,-227.65555 z" />
        <path
           id="path4037"
           style="fill:#000000;fill-opacity:1;stroke:none;stroke-width:7;stroke-miterlimit:4;stroke-dasharray:none;stroke-opacity:1"
           d="M -1189.0242,-280.89573 L -1189.0242,-174.879 L -1171.1145,-174.879 L -1171.1145,-179.56579 C -1165.901,-176.58094 -1159.8651,-174.879 -1153.4278,-174.879 C -1133.7541,-174.879 -1117.7875,-190.82598 -1117.7875,-210.47499 C -1117.7875,-230.12399 -1133.7541,-246.07102 -1153.4278,-246.07102 C -1159.8651,-246.07102 -1165.901,-244.35415 -1171.1145,-241.36934 L -1171.1145,-280.89573 L -1189.0242,-280.89573 z M -1152.8934,-228.03567 C -1143.1272,-228.03567 -1135.1921,-220.11043 -1135.1921,-210.35632 C -1135.1921,-200.60222 -1143.1272,-192.69179 -1152.8934,-192.69179 C -1162.6598,-192.69179 -1170.58,-200.60222 -1170.58,-210.35632 C -1170.58,-220.11043 -1162.6598,-228.03567 -1152.8934,-228.03567 z" />
        <path
           id="path4039"
           style="fill:#000000;fill-opacity:1;stroke:none;stroke-width:7;stroke-miterlimit:4;stroke-dasharray:none;stroke-opacity:1"
           d="M -850.28465,-280.89573 L -850.28465,-174.879 L -868.22091,-174.879 L -868.22091,-179.56579 C -873.44223,-176.58099 -879.48836,-174.879 -885.93417,-174.879 C -905.63739,-174.879 -921.6286,-190.82598 -921.6286,-210.47499 C -921.6286,-230.12395 -905.63739,-246.07104 -885.93417,-246.07102 C -879.48836,-246.07102 -873.44223,-244.35415 -868.22091,-241.36937 L -868.22091,-280.89573 L -850.28465,-280.89573 z M -886.46957,-228.03567 C -896.25067,-228.03567 -904.1977,-220.11043 -904.1977,-210.35632 C -904.1977,-200.60222 -896.25067,-192.69181 -886.46957,-192.69181 C -876.68847,-192.69181 -868.75596,-200.60222 -868.75596,-210.35632 C -868.75596,-220.11043 -876.68847,-228.03567 -886.46957,-228.03567 z" />
        <path
           id="path4041"
           style="fill:#000000;fill-opacity:1;stroke:none;stroke-width:7;stroke-miterlimit:4;stroke-dasharray:none;stroke-opacity:1"
           d="M -1102.7415,-280.89573 L -1102.7415,-262.81795 L -1084.6643,-262.81795 L -1084.6643,-280.89573 L -1102.7415,-280.89573 z M -1102.6221,-245.66801 L -1102.6221,-173.83561 C -1104.1512,-162.24349 -1108.7446,-157.30991 -1120.775,-155.62312 L -1112.14,-138.66768 C -1096.3732,-143.50696 -1084.534,-156.75134 -1084.7839,-173.83561 L -1084.7839,-245.66801 L -1102.6221,-245.66801 z" />
        <path
           id="path4043"
           style="fill:#000000;fill-opacity:1;stroke:none;stroke-width:7;stroke-miterlimit:4;stroke-opacity:1"
           d="M -981.08501,-245.55681 L -981.08501,-228.00513 L -956.82039,-228.00513 L -981.08501,-183.58122 L -981.08501,-174.879 L -932.91093,-174.879 L -932.91093,-192.43066 L -957.39734,-192.43066 L -932.91093,-238.0473 L -932.91093,-245.55681 L -981.08501,-245.55681 z" />
        <path
           id="path4045"
           d="M -1253.8599,-280.91172 C -1283.3519,-280.91166 -1307.3058,-257.15597 -1307.3058,-227.89534 C -1307.3057,-198.63471 -1283.3519,-174.879 -1253.8599,-174.879 C -1224.3677,-174.87896 -1200.4138,-198.63479 -1200.4138,-227.89534 C -1200.4138,-257.15596 -1224.3677,-280.91172 -1253.8599,-280.91172 z M -1255.7399,-263.88416 C -1255.1214,-263.9153 -1254.486,-263.88416 -1253.8599,-263.88416 C -1233.8227,-263.88415 -1217.5485,-247.77517 -1217.5485,-227.89534 C -1217.5485,-208.01553 -1233.8228,-191.90655 -1253.8599,-191.90655 C -1273.8971,-191.90651 -1290.1708,-208.01555 -1290.1708,-227.89534 C -1290.1708,-247.15387 -1274.9104,-262.9191 -1255.7399,-263.88416 z"
           style="fill:#000000;fill-opacity:1;stroke:none;stroke-width:7;stroke-miterlimit:4;stroke-dasharray:none;stroke-opacity:1" />
      </g>
      <path
         id="rect4055"
         d="M -1511.7062,108.51419 L -1572.7999,207.73294 L -1536.2062,207.73294 L -1536.2062,327.95169 L -1483.4249,327.95169 L -1483.4249,207.73294 L -1450.5812,207.73294 L -1511.7062,108.51419 z"
         style="opacity:1;fill:#000000;fill-opacity:1;stroke:none;stroke-width:1.11000001;stroke-miterlimit:4;stroke-dasharray:none;stroke-opacity:1" />
    </g>
  </g>
</svg>
