<?xml version="1.0" encoding="UTF-8" standalone="no"?>
<svg
   xmlns:dc="http://purl.org/dc/elements/1.1/"
   xmlns:cc="http://creativecommons.org/ns#"
   xmlns:rdf="http://www.w3.org/1999/02/22-rdf-syntax-ns#"
   xmlns:svg="http://www.w3.org/2000/svg"
   xmlns="http://www.w3.org/2000/svg"
   version="1.1"
   id="svg4496"
   height="1094.451"
   width="715.59204">
  <defs
     id="defs4498" />
  <metadata
     id="metadata4501">
    <rdf:RDF>
      <cc:Work
         rdf:about="">
        <dc:format>image/svg+xml</dc:format>
        <dc:type
           rdf:resource="http://purl.org/dc/dcmitype/StillImage" />
        <dc:title></dc:title>
      </cc:Work>
    </rdf:RDF>
  </metadata>
  <rect
     style="opacity:1;fill:#9d9d9d;fill-opacity:1;stroke:#9d9d9d;stroke-width:0;stroke-linecap:round;stroke-miterlimit:4;stroke-dasharray:none;stroke-opacity:1"
     id="rect818"
     width="715.59204"
     height="1094.451"
     x="5e-07"
     y="4.9999994e-07" />
  <g
     id="g4543"
     transform="translate(-204.23298,-115.02207)"
     style="opacity:1;fill:#ffffff;fill-opacity:1">
    <path
       id="path4533"
       d=""
       style="fill:#ffffff;fill-opacity:1" />
    <g
       id="g840">
      <path
         style="color:#000000;display:inline;overflow:visible;visibility:visible;fill:#ffffff;fill-opacity:1;fill-rule:nonzero;stroke:none;stroke-width:43.42860031;marker:none;enable-background:accumulate"
         d="m 405.87687,1060.8909 c -25.88178,-12.8114 -48.3226,-65.26859 -60.10833,-140.50805 -6.9204,-44.17945 -6.84026,-153.92302 0.14242,-195.04214 11.05141,-65.07868 27.42698,-109.20808 48.25325,-130.03437 14.33933,-14.33931 24.5409,-16.5608 39.7195,-8.64929 6.42883,3.35092 11.94027,5.71126 12.24765,5.24526 0.30738,-0.46603 7.72535,-69.96359 16.48439,-154.43905 12.27891,-118.4224 17.0146,-155.25388 20.68177,-160.85069 8.25004,-12.59115 21.13391,-18.39223 40.87434,-18.40403 l 17.85714,-0.0107 v 28.57143 28.57143 l -17.85714,0.0437 c -9.82143,0.024 -19.55727,1.1217 -21.6352,2.43918 -5.27398,3.34391 -8.5733,19.76666 -10.83766,53.94565 l -1.94018,29.28572 h 73.27795 c 40.30287,0 73.28766,-0.96429 73.29952,-2.14286 0.0114,-1.17857 1.36065,-10.39573 2.99725,-20.48257 l 2.97569,-18.33972 -14.225,-14.51742 c -11.9042,-12.14894 -13.97035,-15.79931 -12.66417,-22.37458 l 1.56081,-7.85714 h 28.60645 28.60642 l -1.9564,15 c -2.92128,22.39776 -4.70262,27.85714 -9.08951,27.85714 -2.18677,0 -3.97597,0.46969 -3.97597,1.04376 0,0.57406 -2.60323,20.1812 -5.78494,43.57143 l -5.78498,42.52767 13.39455,70 c 7.367,38.5 14.238,70.9892 15.26885,72.1982 1.03089,1.209 7.00109,0.3894 13.26709,-1.8214 13.34894,-4.70977 28.28994,-1.03908 39.80571,9.7794 16.33832,15.34906 35.30615,66.80526 45.75675,124.12952 7.21231,39.56157 8.75877,142.08062 2.82294,187.14285 -13.23506,100.47497 -45.80509,165.20777 -79.9048,158.81057 -27.93997,-5.2415 -54.94309,-59.9058 -66.98569,-135.60368 -5.47508,-34.41546 -0.96777,-31.12403 -37.56977,-27.43509 -29.28326,2.95132 -29.65723,2.35429 -31.65399,-50.53391 l -1.65398,-43.80932 -12.89309,-30 c -30.7304,-71.50437 -74.66034,-165.71428 -77.27232,-165.71428 -4.18868,0 -1.35883,17.92508 7.44248,47.14286 24.01965,79.73817 28.61903,193.80977 11.40484,282.85714 -12.33641,63.81508 -32.49146,106.89768 -55.50073,118.63618 -13.60063,6.9385 -12.96377,6.9438 -27.45391,-0.2289 z m 23.53244,-58.7115 c 21.22754,-10.07315 39.23885,-54.76883 47.03727,-116.72463 4.5099,-35.82972 2.09209,-120.1576 -4.34497,-151.54263 -5.113,-24.92934 -9.63486,-38.57143 -12.78504,-38.57143 -1.11054,0 -3.50255,16.67889 -5.31557,37.06417 -1.81303,20.38529 -5.29334,45.77815 -7.73402,56.42857 -5.90159,25.7528 -18.6794,50.51306 -26.68346,51.70598 -5.85864,0.87317 -6.12595,-0.15806 -6.12595,-23.63269 0,-21.41629 0.91308,-25.92543 7.16175,-35.36783 6.15236,-9.29683 7.96447,-17.84486 12.85715,-60.6492 7.9464,-69.52043 7.90423,-70.3024 -4.09975,-76.02671 -67.39572,-32.13877 -97.95496,235.72225 -38.62369,338.54834 5.73309,9.93591 11.93716,16.58737 17.88427,19.17386 11.37119,4.9456 9.41418,4.9838 20.77201,-0.4058 z m 289.90832,-4.14612 c 15.20254,-10.6984 30.71277,-50.28583 38.49103,-98.24234 6.25788,-38.58286 5.58606,-115.8938 -1.3602,-156.525 -9.34757,-54.67754 -25.63286,-90.25983 -45.01686,-98.35897 -12.794,-5.34569 -13.68206,-5.13337 -26.33171,6.29483 -7.63109,6.89423 -14.11529,17.07448 -20.22826,31.75848 -9.37789,22.52666 -19.98549,70.09632 -19.98549,89.6246 v 11.32726 h 31.04326 c 27.4322,0 31.95106,0.71406 38.8472,6.13857 7.55143,5.93997 7.77189,6.90392 6.81389,29.79263 -1.32663,31.69566 -4.89306,36.182 -41.92929,52.74454 -15.94103,7.1288 -30.19866,14.20023 -31.68368,15.71429 -3.59712,3.66748 6.20757,50.89991 15.17417,73.09897 9.1392,22.62634 18.43377,35.8116 28.87731,40.96516 9.35354,4.6158 16.09294,3.5456 27.28863,-4.33302 z M 623.05254,776.055 c 0.81266,-4.32143 2.27338,-15.57143 3.24603,-25 4.471,-43.3398 18.8954,-103.50643 29.61806,-123.54189 2.29797,-4.2938 0.97649,-16.79157 -5.40017,-51.07154 -4.64346,-24.9626 -8.45274,-46.608 -8.46506,-48.10086 -0.0143,-1.70838 -1.03148,-1.70521 -2.74526,0.009 -2.50697,2.50698 -18.48388,112.44135 -31.0166,213.42 l -5.23046,42.14286 h 9.25794 c 7.83661,0 9.48478,-1.20626 10.73552,-7.85714 v 0 z m -39.67552,-7.14286 c 0.80129,-3.53571 10.45455,-70.71429 21.4517,-149.28571 10.99714,-78.57143 20.71002,-147.03572 21.58417,-152.14286 l 1.58934,-9.28572 H 556.6128 c -39.26418,0 -71.9807,0.96429 -72.70337,2.14286 -0.72267,1.17857 -3.66664,25.81877 -6.54215,54.756 l -5.22819,52.61314 52.59397,103.81543 c 28.92669,57.09849 53.62743,103.81543 54.89053,103.81543 1.2631,0 2.95214,-2.89286 3.75343,-6.42857 z"
         id="path4537" />
    </g>
  </g>
</svg>
