<?xml version="1.0" encoding="UTF-8" standalone="no"?>
<!-- Created with Inkscape (http://www.inkscape.org/) -->

<svg
   xmlns:dc="http://purl.org/dc/elements/1.1/"
   xmlns:cc="http://creativecommons.org/ns#"
   xmlns:rdf="http://www.w3.org/1999/02/22-rdf-syntax-ns#"
   xmlns:svg="http://www.w3.org/2000/svg"
   xmlns="http://www.w3.org/2000/svg"
   xmlns:sodipodi="http://sodipodi.sourceforge.net/DTD/sodipodi-0.dtd"
   xmlns:inkscape="http://www.inkscape.org/namespaces/inkscape"
   width="950"
   height="400"
   id="svg3866"
   version="1.1"
   inkscape:version="0.48.4 r9939"
   sodipodi:docname="Znak R-4d.svg">
  <title
     id="title3938">Znak R-4d</title>
  <defs
     id="defs3868">
    <pattern
       id="Hatch-7"
       x="0"
       y="0"
       patternUnits="userSpaceOnUse"
       width="8"
       height="8">
      <path
         id="path4118"
         d="M8 4 l-4,4"
         stroke-width="0.25"
         stroke="#000000"
         linecap="square" />
      <path
         id="path4120"
         d="M6 2 l-4,4"
         stroke-width="0.25"
         stroke="#000000"
         linecap="square" />
      <path
         id="path4122"
         d="M4 0 l-4,4"
         stroke-width="0.25"
         stroke="#000000"
         linecap="square" />
    </pattern>
    <marker
       orient="auto"
       id="DistanceX-1"
       style="overflow:visible"
       refX="0.0"
       refY="0.0">
      <path
         id="path4115"
         d="M 3,-3 L -3,3 M 0,-5 L  0,5"
         style="stroke:#000000; stroke-width:0.5" />
    </marker>
  </defs>
  <sodipodi:namedview
     id="base"
     pagecolor="#ffffff"
     bordercolor="#666666"
     borderopacity="1.0"
     inkscape:pageopacity="0.0"
     inkscape:pageshadow="2"
     inkscape:zoom="1.2852632"
     inkscape:cx="475"
     inkscape:cy="200"
     inkscape:document-units="px"
     inkscape:current-layer="g3194"
     showgrid="false"
     inkscape:window-width="1345"
     inkscape:window-height="837"
     inkscape:window-x="0"
     inkscape:window-y="0"
     inkscape:window-maximized="0" />
  <metadata
     id="metadata3871">
    <rdf:RDF>
      <cc:Work
         rdf:about="">
        <dc:format>image/svg+xml</dc:format>
        <dc:type
           rdf:resource="http://purl.org/dc/dcmitype/StillImage" />
        <cc:license
           rdf:resource="http://creativecommons.org/licenses/by-sa/3.0/" />
        <dc:title>Znak R-4d</dc:title>
        <dc:date>2013-11-05</dc:date>
        <dc:creator>
          <cc:Agent>
            <dc:title>Blackfish</dc:title>
          </cc:Agent>
        </dc:creator>
      </cc:Work>
      <cc:License
         rdf:about="http://creativecommons.org/licenses/by-sa/3.0/">
        <cc:permits
           rdf:resource="http://creativecommons.org/ns#Reproduction" />
        <cc:permits
           rdf:resource="http://creativecommons.org/ns#Distribution" />
        <cc:requires
           rdf:resource="http://creativecommons.org/ns#Notice" />
        <cc:requires
           rdf:resource="http://creativecommons.org/ns#Attribution" />
        <cc:permits
           rdf:resource="http://creativecommons.org/ns#DerivativeWorks" />
        <cc:requires
           rdf:resource="http://creativecommons.org/ns#ShareAlike" />
      </cc:License>
    </rdf:RDF>
  </metadata>
  <g
     inkscape:label="Layer 1"
     inkscape:groupmode="layer"
     id="layer1"
     transform="translate(0,-652.36218)">
    <g
       transform="translate(-3.2627614e-7,-3.3350001e-4)"
       id="layer1-7"
       inkscape:label="Layer 1">
      <g
         transform="matrix(12.584287,0,0,12.584287,-3460.5886,-7584.9782)"
         id="g3043">
        <g
           transform="matrix(1.0324827,0,0,1.0324827,-9.4487482,-21.778532)"
           inkscape:label="linie"
           id="g3005">
          <g
             id="g3194"
             transform="matrix(0.07696417,0,0,0.07696417,-483.45105,846.10442)">
            <g
               id="g3126"
               inkscape:label="0" />
            <g
               id="g3128"
               inkscape:label="linie"
               transform="matrix(1.0649894,0,0,1.0649894,-448.50332,86.671511)">
              <path
                 id="path3148"
                 d="m 9737.0764,-2036.4033 646.6536,0 187.795,-187.7953 -187.795,-187.7953 -646.6536,0 a 56.692913,56.692913 0 0 0 -56.6929,56.6929 l 0,262.2047 a 56.692913,56.692913 0 0 0 56.6929,56.693 z"
                 style="fill:#000000;fill-opacity:1;stroke:none"
                 inkscape:connector-curvature="0" />
              <path
                 id="path3130"
                 d="m 9737.0764,-2048.8049 262.2047,0 a 44.291339,44.291339 0 0 0 44.2909,-44.2914 l 0,-262.2047 a 44.291339,44.291339 0 0 0 -44.2909,-44.2913 l -262.2047,0 a 44.291339,44.291339 0 0 0 -44.2913,44.2913 l 0,262.2047 a 44.291339,44.291339 0 0 0 44.2913,44.2914 z"
                 style="fill:#e97717;fill-opacity:1;stroke:none"
                 inkscape:connector-curvature="0" />
              <path
                 id="path3150"
                 d="m 10100.265,-2048.8049 278.328,0 155.728,-175.3937 -155.728,-175.3937 -278.328,0 a 44.291339,44.291339 0 0 0 -44.291,44.2913 l 0,262.2047 a 44.291339,44.291339 0 0 0 44.291,44.2914 z"
                 style="fill:#e97717;fill-opacity:1;stroke:none"
                 inkscape:connector-curvature="0" />
              <path
                 id="path3156"
                 d="m 10343.472,-2277.5206 0,80.802 -14.174,0 0,-53.2196 -12.971,0 0,-13.6117 a 13.535588,13.535588 0 0 0 12.971,-13.9707 l 14.174,0 z"
                 style="fill:#000000;fill-opacity:1;stroke:none"
                 inkscape:connector-curvature="0" />
              <path
                 id="path3158"
                 d="m 10383.121,-2277.5206 0,80.802 -14.173,0 0,-53.2196 -12.971,0 0,-13.6117 a 13.535588,13.535588 0 0 0 12.971,-13.9707 l 14.173,0 z"
                 style="fill:#000000;fill-opacity:1;stroke:none"
                 inkscape:connector-curvature="0" />
              <path
                 id="path3160"
                 d="m 10251.996,-2196.7186 14.173,0 0,-80.802 -14.173,0 0,80.802 z"
                 style="fill:#000000;fill-opacity:1;stroke:none"
                 inkscape:connector-curvature="0" />
              <path
                 id="path3162"
                 d="m 10124.685,-2243.7705 0,-33.7501 -14.173,0 0,80.802 14.173,0 0,-32.8786 31.752,0 0,32.8786 14.173,0 0,-80.802 -14.173,0 0,33.7501 -31.752,0 z"
                 style="fill:#000000;fill-opacity:1;stroke:none"
                 inkscape:connector-curvature="0" />
              <g
                 id="g4148"
                 transform="matrix(0.93897651,0,0,0.93897651,2615.3731,446.86535)">
                <g
                   id="g4126"
                   inkscape:label="0" />
                <g
                   id="g4128"
                   inkscape:label="linie"
                   transform="matrix(1.0649897,0,0,1.0649897,-408.18695,181.9404)">
                  <path
                     inkscape:connector-curvature="0"
                     style="fill:#000000;fill-opacity:0.92035403;stroke:none"
                     d="m 566.34375,169.4375 a 30.274799,30.274799 0 0 0 1.25,60.53125 l 16.4375,0 6.53125,-15.09375 -22.96875,0 a 15.180457,15.180457 0 0 1 -13.875,-9.0625 l 40.03125,0 0,-21.375 a 30.274799,30.274799 0 0 0 -27.40625,-15 z m 0.28125,15.09375 a 15.180457,15.180457 0 0 1 15.3125,10.15625 l -28.65625,0 A 15.180457,15.180457 0 0 1 566.625,184.53125 z"
                     transform="matrix(0.93897622,0,0,0.93897622,7448.286,-3029.696)"
                     id="path4134" />
                </g>
              </g>
              <path
                 id="path3021"
                 d="m 9828.2135,-2375.286 a 10.354498,10.354498 0 0 0 -9.9473,7.4532 l -14.4955,49.4723 a 46.93981,46.93981 0 1 0 6.8076,1.9953 l 2.2301,-7.6292 53.4043,45.8632 a 13.336098,13.336098 0 1 0 24.9122,9.2137 l 3.8733,0 a 46.93981,46.93981 0 1 0 25.6164,-45.423 l -16.4614,-27.2303 3.7852,-11.8253 16.2561,0 0,-14.2607 -44.396,0 a 2.9770502,2.9770502 0 0 0 -0.8216,5.6632 68.889304,68.889304 0 0 0 21.8018,7.7759 l -2.3767,7.3945 -78.9034,0 6.25,-21.3617 14.5835,0 0,-7.1011 -12.1186,0 z m -10.7983,35.5638 78.7273,0 -17.3123,53.9324 a 13.336098,13.336098 0 0 0 -7.9813,2.2595 l -55.8398,-47.9465 2.4061,-8.2454 z m 83.8917,7.101 13.2337,21.9486 a 46.939811,46.939811 0 0 0 -19.5424,34.6834 l -3.8733,0 a 13.336098,13.336098 0 0 0 -5.5458,-7.6292 l 15.7278,-49.0028 z m -107.6595,20.3054 a 39.853207,39.853207 0 0 1 8.128,0.7629 l -9.6245,32.9228 a 6.4630437,6.4630437 0 1 0 6.7782,1.9954 l 9.6539,-32.9229 a 39.853207,39.853207 0 1 1 -14.9356,-2.7582 z m 149.0918,0.029 a 39.853205,39.853205 0 1 1 -40.64,43.369 l 34.302,0 a 6.4630433,6.4630433 0 1 0 5.6338,-10.006 l -17.7525,-29.343 a 39.853205,39.853205 0 0 1 18.4567,-4.02 z m -24.5014,7.6878 17.2831,28.6095 -33.4217,0 a 39.853206,39.853206 0 0 1 16.1386,-28.6094 z"
                 style="fill:#000000;fill-opacity:1;stroke:none"
                 inkscape:connector-curvature="0" />
              <path
                 id="path3023"
                 d="m 9811.752,-2205.8594 a 17.716536,17.716536 0 0 0 -17.7232,17.7232 l 0,100.1771 a 17.716536,17.716536 0 0 0 17.7232,17.7231 l 112.3251,0 a 17.716536,17.716536 0 0 0 17.7232,-17.7231 l 0,-100.1771 a 17.716536,17.716536 0 0 0 -17.7232,-17.7232 l -112.3251,0 z m 0,10.6222 112.3251,0 a 7.0866191,7.0866191 0 0 1 7.101,7.101 l 0,100.1771 a 7.0866191,7.0866191 0 0 1 -7.101,7.101 l -112.3251,0 a 7.0866191,7.0866191 0 0 1 -7.101,-7.101 l 0,-100.1771 a 7.0866191,7.0866191 0 0 1 7.101,-7.101 z"
                 style="fill:#000000;fill-opacity:1;stroke:none"
                 inkscape:connector-curvature="0" />
              <path
                 inkscape:connector-curvature="0"
                 style="fill:#000000;fill-opacity:1;stroke:none"
                 d="m 9883.2771,-2152.0715 0,-3.6559 a 8.3976382,8.3976382 0 1 1 15.3154,4.7606 l -29.9301,43.492 0,10.1395 43.5318,0 0,-14.1733 -23.5508,0 21.6248,-31.4232 a 22.570865,22.570865 0 1 0 -41.1644,-12.7956 l 0,3.6559 14.1733,0 z"
                 id="path3027" />
              <path
                 inkscape:connector-curvature="0"
                 style="fill:#000000;fill-opacity:1;stroke:none"
                 d="m 9848.8774,-2178.1373 0,80.802 -14.1732,0 0,-53.2196 -12.9715,0 0,-13.6116 a 13.535584,13.535584 0 0 0 12.9715,-13.9708 l 14.1732,0 z"
                 id="path3029" />
            </g>
          </g>
        </g>
      </g>
    </g>
  </g>
</svg>
