<?xml version="1.0" encoding="UTF-8" standalone="no"?>
<!-- Created with Inkscape (http://www.inkscape.org/) -->
<svg
   xmlns:svg="http://www.w3.org/2000/svg"
   xmlns="http://www.w3.org/2000/svg"
   version="1.0"
   width="200"
   height="650"
   id="svg2">
  <defs
     id="defs4" />
  <g
     transform="translate(273.24115,-402.36218)"
     id="layer1"
     style="display:inline">
    <rect
       width="200"
       height="200"
       ry="0"
       x="-273.24115"
       y="402.36218"
       id="rect2396"
       style="opacity:1;fill:#000000;fill-opacity:1;stroke:none;stroke-width:10;stroke-miterlimit:4;stroke-dasharray:none;stroke-opacity:1" />
    <rect
       width="200"
       height="200"
       ry="0"
       x="-273.24115"
       y="627.36218"
       id="rect3170"
       style="opacity:1;fill:#000000;fill-opacity:1;stroke:none;stroke-width:10;stroke-miterlimit:4;stroke-dasharray:none;stroke-opacity:1" />
    <rect
       width="200"
       height="200"
       ry="0"
       x="-273.24115"
       y="852.36218"
       id="rect3172"
       style="opacity:1;fill:#000000;fill-opacity:1;stroke:none;stroke-width:10;stroke-miterlimit:4;stroke-dasharray:none;stroke-opacity:1" />
    <path
       d="M -248.24116,952.36219 C -248.24116,993.76219 -214.64117,1027.3622 -173.24116,1027.3622 C -131.84116,1027.3622 -98.24114,993.76219 -98.24114,952.36219 C -98.24114,910.96219 -131.84117,877.36219 -173.24116,877.36219 C -214.64116,877.36219 -248.24117,910.96219 -248.24116,952.36219 z M -245.24116,952.36219 C -245.24116,912.61819 -212.98516,880.36219 -173.24116,880.36219 C -133.49717,880.36219 -101.24114,912.61819 -101.24114,952.36219 C -101.24114,992.10619 -133.49716,1024.3622 -173.24116,1024.3622 C -212.98517,1024.3622 -245.24116,992.10619 -245.24116,952.36219 z"
       id="path3260"
       style="opacity:1;fill:#ffffff;fill-opacity:1;stroke:none;stroke-width:4.07659388;stroke-miterlimit:4;stroke-dasharray:none;stroke-opacity:1;display:inline" />
    <g
       transform="matrix(0,-1,1,0,-900.60333,554.12103)"
       id="g2396">
      <path
         d="M 100,250 C 58.6,250 25,283.6 25,325 C 25,366.4 58.600002,400 100,400 C 141.4,400 175,366.4 175,325 C 175,283.6 141.4,250 100,250 z M 100,257.125 L 155.5,316.875 L 115.0625,309.875 L 121.25,388.875 L 78.75,388.875 L 84.9375,309.875 L 44.5,316.875 L 100,257.125 z"
         transform="translate(-273.24115,402.36218)"
         id="path3262"
         style="opacity:1;fill:#ffffff;fill-opacity:1;stroke:none;stroke-width:4.07659388;stroke-miterlimit:4;stroke-dasharray:none;stroke-opacity:1;display:inline" />
      <path
         d="M 100,253 C 60.256002,253 28.000001,285.25601 28,325 C 28,364.744 60.255999,397 100,397 C 139.744,397 172,364.744 172,325 C 172,285.256 139.74399,252.99999 100,253 z M 100,257.125 L 155.5,316.875 L 115.0625,309.875 L 121.25,388.875 L 78.75,388.875 L 84.9375,309.875 L 44.5,316.875 L 100,257.125 z"
         transform="translate(-273.24115,402.36218)"
         id="path3264"
         style="opacity:1;fill:#ffff00;fill-opacity:1;stroke:none;stroke-width:4.07659388;stroke-miterlimit:4;stroke-dasharray:none;stroke-opacity:1;display:inline" />
    </g>
    <g
       transform="matrix(0,-1,1,0,-675.60333,329.12103)"
       id="g2392">
      <path
         d="M 100,25 C 58.6,25 25,58.599997 25,100 C 25,141.4 58.600002,175 100,175 C 141.4,175 175,141.4 175,100 C 175,58.6 141.4,25.000001 100,25 z M 100,32.125 L 155.5,91.875 L 115.0625,84.875 L 121.25,163.875 L 78.75,163.875 L 84.9375,84.875 L 44.5,91.875 L 100,32.125 z"
         transform="translate(-273.24115,402.36218)"
         id="path3266"
         style="opacity:1;fill:#ffffff;fill-opacity:1;stroke:none;stroke-width:4.07659388;stroke-miterlimit:4;stroke-dasharray:none;stroke-opacity:1;display:inline" />
      <path
         d="M 100,28 C 60.256002,28 28.000001,60.255999 28,100 C 28,139.744 60.255999,172 100,172 C 139.744,172 172,139.74399 172,100 C 172,60.256002 139.74399,28.000001 100,28 z M 100,32.125 L 155.5,91.875 L 115.0625,84.875 L 121.25,163.875 L 78.75,163.875 L 84.9375,84.875 L 44.5,91.875 L 100,32.125 z"
         transform="translate(-273.24115,402.36218)"
         id="path3268"
         style="opacity:1;fill:#ff0000;fill-opacity:1;stroke:none;stroke-width:4.07659388;stroke-miterlimit:4;stroke-dasharray:none;stroke-opacity:1;display:inline" />
    </g>
    <path
       d="M -239.13179,950.36216 L -179.38179,1005.8622 L -186.38179,965.42466 L -107.35051,971.61217 L -107.35051,929.11217 L -186.38179,935.29966 L -179.38179,894.86215 L -239.13179,950.36216 z"
       id="path3275"
       style="fill:#008000;fill-opacity:1;stroke:none;stroke-width:3;stroke-miterlimit:4;stroke-opacity:1;display:inline" />
  </g>
</svg>
