<?xml version="1.0" encoding="UTF-8" standalone="no"?>
<!-- Created with Inkscape (http://www.inkscape.org/) -->
<svg
   xmlns:dc="http://purl.org/dc/elements/1.1/"
   xmlns:cc="http://creativecommons.org/ns#"
   xmlns:rdf="http://www.w3.org/1999/02/22-rdf-syntax-ns#"
   xmlns:svg="http://www.w3.org/2000/svg"
   xmlns="http://www.w3.org/2000/svg"
   xmlns:sodipodi="http://sodipodi.sourceforge.net/DTD/sodipodi-0.dtd"
   xmlns:inkscape="http://www.inkscape.org/namespaces/inkscape"
   version="1.0"
   width="218.22433"
   height="842.60406"
   id="svg2"
   sodipodi:version="0.32"
   inkscape:version="0.46"
   sodipodi:docname="Znak_SB.svg"
   inkscape:output_extension="org.inkscape.output.svg.inkscape">
  <metadata
     id="metadata935">
    <rdf:RDF>
      <cc:Work
         rdf:about="">
        <dc:format>image/svg+xml</dc:format>
        <dc:type
           rdf:resource="http://purl.org/dc/dcmitype/StillImage" />
      </cc:Work>
    </rdf:RDF>
  </metadata>
  <sodipodi:namedview
     inkscape:window-height="844"
     inkscape:window-width="1440"
     inkscape:pageshadow="2"
     inkscape:pageopacity="0.0"
     guidetolerance="10.0"
     gridtolerance="10.0"
     objecttolerance="10.0"
     borderopacity="1.0"
     bordercolor="#666666"
     pagecolor="#ffffff"
     id="base"
     showgrid="false"
     inkscape:zoom="0.54830023"
     inkscape:cx="180.68315"
     inkscape:cy="364.65667"
     inkscape:window-x="0"
     inkscape:window-y="22"
     inkscape:current-layer="svg2" />
  <defs
     id="defs4" />
  <g
     transform="translate(-190.258,66.52504)"
     id="layer1">
    <rect
       width="218.22433"
       height="218.22433"
       x="190.258"
       y="70.554581"
       style="fill:black;fill-opacity:1;fill-rule:nonzero;stroke:none;stroke-width:5;stroke-linecap:round;stroke-linejoin:miter;stroke-miterlimit:4;stroke-dasharray:none;stroke-dashoffset:0;stroke-opacity:1"
       id="rect2859" />
    <rect
       width="218.22433"
       height="218.22433"
       x="190.258"
       y="314.20465"
       style="fill:black;fill-opacity:1;fill-rule:nonzero;stroke:none;stroke-width:5;stroke-linecap:round;stroke-linejoin:miter;stroke-miterlimit:4;stroke-dasharray:none;stroke-dashoffset:0;stroke-opacity:1"
       id="rect6263" />
    <rect
       width="218.22433"
       height="218.22433"
       x="190.258"
       y="557.85468"
       style="fill:black;fill-opacity:1;fill-rule:nonzero;stroke:none;stroke-width:5;stroke-linecap:round;stroke-linejoin:miter;stroke-miterlimit:4;stroke-dasharray:none;stroke-dashoffset:0;stroke-opacity:1"
       id="rect6267" />
    <path
       d="M 376.52438 182.815 A 79.899071 79.899071 0 1 1  216.72623,182.815 A 79.899071 79.899071 0 1 1  376.52438 182.815 z"
       transform="matrix(0,1.056263,-1.056263,0,492.4709,110.0024)"
       style="fill:black;fill-opacity:1;fill-rule:nonzero;stroke:white;stroke-width:1.89346778;stroke-linecap:round;stroke-linejoin:miter;stroke-miterlimit:4;stroke-dasharray:none;stroke-dashoffset:0;stroke-opacity:1"
       id="path14707" />
    <path
       d="M 231.62301,402.63687 L 231.62301,443.99685 C 242.91494,442.21283 253.46765,440.8591 263.63273,439.91386 L 263.63273,406.71985 C 253.46765,405.77462 242.91494,404.42088 231.62301,402.63687 z M 367.11725,402.63687 C 355.82532,404.42088 345.27261,405.77462 335.10753,406.71985 L 335.10753,439.91386 C 345.27261,440.8591 355.82532,442.21283 367.11725,443.99685 L 367.11725,402.63687 z "
       style="fill:white;fill-opacity:1;fill-rule:nonzero;stroke:none;stroke-width:2.03457975;stroke-linecap:round;stroke-linejoin:miter;stroke-miterlimit:4;stroke-dashoffset:0;stroke-opacity:1"
       id="path14709" />
    <path
       d="M 376.52438 182.815 A 79.899071 79.899071 0 1 1  216.72623,182.815 A 79.899071 79.899071 0 1 1  376.52438 182.815 z"
       transform="matrix(1.04375,0,0,1.04375,-10.2325,-11.14641)"
       style="fill:black;fill-opacity:1;fill-rule:nonzero;stroke:white;stroke-width:1.91616762;stroke-linecap:round;stroke-linejoin:miter;stroke-miterlimit:4;stroke-dasharray:none;stroke-dashoffset:0;stroke-opacity:1"
       id="path2857" />
    <path
       d="M 374.33626,158.65723 C 324.3591,169.54399 274.3813,169.79225 224.40413,158.65723 L 224.40413,200.67628 C 274.3813,189.54125 324.3591,189.78951 374.33626,200.67628 L 374.33626,158.65723 z "
       style="fill:white;fill-opacity:1;fill-rule:nonzero;stroke:none;stroke-width:1.97809327;stroke-linecap:round;stroke-linejoin:miter;stroke-miterlimit:4;stroke-dashoffset:0;stroke-opacity:1"
       id="path23249" />
    <path
       d="M 376.52438 182.815 A 79.899071 79.899071 0 1 1  216.72623,182.815 A 79.899071 79.899071 0 1 1  376.52438 182.815 z"
       transform="matrix(1.056264,0,0,1.056264,-13.94456,473.8659)"
       style="fill:black;fill-opacity:1;fill-rule:nonzero;stroke:white;stroke-width:1.893466;stroke-linecap:round;stroke-linejoin:miter;stroke-miterlimit:4;stroke-dasharray:none;stroke-dashoffset:0;stroke-opacity:1"
       id="path23253" />
    <path
       d="M 278.36064,592.00084 C 289.2474,641.978 289.49566,691.9558 278.36064,741.93297 L 320.37969,741.93297 C 309.24466,691.9558 309.49292,641.978 320.37969,592.00084 L 278.36064,592.00084 z "
       style="fill:white;fill-opacity:1;fill-rule:nonzero;stroke:none;stroke-width:1.97809327;stroke-linecap:round;stroke-linejoin:miter;stroke-miterlimit:4;stroke-dashoffset:0;stroke-opacity:1"
       id="path23255" />
    <g
       transform="translate(-0.39,-2.8795)"
       id="g11563">
      <rect
         width="216.83823"
         height="110.26806"
         rx="4.604712"
         ry="4.5622869"
         x="191.341"
         y="-62.952648"
         style="opacity:1;fill:white;fill-opacity:1;fill-rule:nonzero;stroke:black;stroke-width:1.3857764;stroke-linecap:round;stroke-linejoin:miter;stroke-miterlimit:4;stroke-dasharray:none;stroke-dashoffset:0;stroke-opacity:1"
         id="rect9823" />
      <g
         id="g11558">
        <path
           d="M 371.24687,-47.712031 C 370.71049,-47.714632 370.1646,-47.708848 369.60854,-47.694677 C 357.15995,-47.694677 346.82401,-37.799804 346.82401,-25.608829 C 346.82401,-18.559638 350.21929,-12.103034 355.47553,-8.0585814 C 355.47553,-8.0585814 364.94245,-2.4063684 365.89853,-1.9038204 C 380.44345,5.5086656 381.86516,11.73779 378.80079,17.20472 C 369.25546,26.89871 355.67255,21.670148 344.17584,18.12748 L 339.20782,31.168273 C 348.75664,34.523561 358.0751,35.860498 369.13943,35.860498 C 382.67792,35.860498 393.66038,25.099709 393.66038,11.842098 C 393.66038,3.8312336 389.63909,-3.2677584 383.4771,-7.6320714 C 376.79745,-11.225209 369.97021,-15.179379 363.2768,-18.966609 C 361.86448,-19.901864 359.78769,-23.783835 360.4785,-27.515394 C 361.17022,-31.246703 364.29858,-33.461391 366.04011,-33.887812 C 373.70916,-35.015488 381.54962,-33.198804 388.86984,-31.032406 L 392.86384,-44.517151 C 385.42504,-45.823906 379.304,-47.673548 371.24687,-47.712031 z "
           style="fill:black;fill-opacity:1;stroke:none;stroke-width:7;stroke-miterlimit:4;stroke-dasharray:none;stroke-opacity:1"
           id="path6174" />
        <path
           d="M 200.49194,-48.214052 L 238.14918,-48.214052 C 251.80276,-41.51665 256.88136,-20.296908 247.64757,-8.8929204 C 263.61136,5.5874466 252.76223,34.044355 238.61686,34.70677 L 200.49194,34.463377 L 200.49194,-48.214052 z M 214.13665,-34.222611 L 214.13665,-13.833139 L 233.43777,-13.833139 C 240.99086,-19.298761 238.92946,-30.392335 233.43777,-34.222611 L 214.13665,-34.222611 z M 214.13665,0.15712465 L 214.13665,20.533415 L 237.22683,19.910517 C 244.30877,14.433255 242.33489,4.7131836 236.81871,0.53411165 L 214.13665,0.15712465 z "
           style="font-size:64px;fill:black;fill-opacity:1"
           id="flowRoot5763" />
        <path
           d="M 269.61693,-48.143797 L 269.61693,8.1244986 L 269.63136,8.1244986 C 269.62623,8.3445366 269.61693,8.5672486 269.61693,8.7885156 C 269.61693,23.30585 280.74503,35.231984 294.92178,36.547349 C 296.70244,36.729934 298.49521,36.678536 300.27723,36.547349 C 314.45398,35.231984 325.56765,23.30585 325.56765,8.7885156 C 325.56765,8.5672486 325.55835,8.3445366 325.55321,8.1244986 L 325.56765,8.1244986 L 325.56765,-48.143797 L 311.20465,-48.143797 L 311.20465,-47.92727 L 311.20465,-15.592488 L 311.20465,8.9473026 C 311.20465,16.254447 304.80092,22.235873 297.59229,22.631845 C 290.38366,22.235873 283.97992,16.254447 283.97992,8.9473026 L 283.97992,-15.592488 L 283.97992,-47.92727 L 283.97992,-48.143797 L 269.61693,-48.143797 z "
           style="fill:black;fill-opacity:1;fill-rule:nonzero;stroke:none;stroke-width:2;stroke-linecap:round;stroke-linejoin:miter;stroke-miterlimit:4;stroke-dashoffset:0;stroke-opacity:1"
           id="rect2902" />
      </g>
    </g>
  </g>
</svg>
