<?xml version="1.0" encoding="UTF-8" standalone="no"?>
<!-- Created with Inkscape (http://www.inkscape.org/) -->

<svg
   xmlns:svg="http://www.w3.org/2000/svg"
   xmlns="http://www.w3.org/2000/svg"
   version="1.1"
   width="366.78571"
   height="589.14484"
   id="svg3871">
  <defs
     id="defs3873" />
  <g
     transform="translate(-105.17857,-254.93262)"
     id="layer1">
    <rect
       width="366.78571"
       height="589.14484"
       rx="22.321428"
       ry="22.321428"
       x="-471.96429"
       y="254.93262"
       transform="scale(-1,1)"
       id="rect3863"
       style="fill:#000000;fill-opacity:1;stroke:none" />
    <rect
       width="348.90063"
       height="569.05115"
       rx="13.392857"
       ry="13.392857"
       x="-462.99478"
       y="264.90787"
       transform="scale(-1,1)"
       id="rect3865"
       style="fill:#febe0b;fill-opacity:1;stroke:none" />
    <path
       d="m 325.02834,794.95588 c 0,-21.53484 -0.061,-84.42171 -0.061,-119.82287 -0.1019,-6.33658 -0.034,-13.46758 -3.6959,-18.63296 -4.5533,-6.42253 -11.8208,-14.58033 -20.3705,-22.52867 -12.9895,-12.07582 -27.8966,-25.7363 -37.4648,-34.54521 l -37.6296,-35.42258 c -30.9384,-25.47079 -28.7378,-48.11825 -28.7378,-76.75995 0,-11.1299 0,-42.24453 0,-42.24453 l 0,-31.94811 -38.0672,0 65.9436,-96.00927 66.1296,96.00927 -38.2651,0 0,32.95826 c 0,0 0.1263,19.94999 0.1263,23.5257 0,15.39183 -1.0434,31.99501 1.857,38.69793 2.9842,6.89663 7.1475,11.84306 16.8124,20.28932 l 35.2429,32.76195 c 13.9236,13.89007 41.3148,36.77035 58.3203,56.98304 6.4447,7.6602 9.799,16.9216 11.6311,21.4229 1.9688,4.83713 4.2579,18.47898 4.2579,36.31863 0,35.81277 -0.01,95.83444 -0.01,118.94715 l -56.0191,0 z"
       id="path3867"
       style="fill:#000000;stroke:none" />
  </g>
</svg>
