<?xml version="1.0" encoding="UTF-8" standalone="no"?>
<!-- Created with Inkscape (http://www.inkscape.org/) -->

<svg
   xmlns:dc="http://purl.org/dc/elements/1.1/"
   xmlns:cc="http://creativecommons.org/ns#"
   xmlns:rdf="http://www.w3.org/1999/02/22-rdf-syntax-ns#"
   xmlns:svg="http://www.w3.org/2000/svg"
   xmlns="http://www.w3.org/2000/svg"
   xmlns:sodipodi="http://sodipodi.sourceforge.net/DTD/sodipodi-0.dtd"
   xmlns:inkscape="http://www.inkscape.org/namespaces/inkscape"
   width="1637.4932"
   height="647.6391"
   id="svg2"
   sodipodi:version="0.32"
   inkscape:version="0.48.4 r9939"
   version="1.0"
   sodipodi:docname="AJAX.svg"
   inkscape:output_extension="org.inkscape.output.svg.inkscape">
  <defs
     id="defs4">
    <inkscape:perspective
       sodipodi:type="inkscape:persp3d"
       inkscape:vp_x="0 : 526.18109 : 1"
       inkscape:vp_y="0 : 1000 : 0"
       inkscape:vp_z="744.09448 : 526.18109 : 1"
       inkscape:persp3d-origin="372.04724 : 350.78739 : 1"
       id="perspective10" />
    <inkscape:perspective
       id="perspective2390"
       inkscape:persp3d-origin="372.04724 : 350.78739 : 1"
       inkscape:vp_z="744.09448 : 526.18109 : 1"
       inkscape:vp_y="0 : 1000 : 0"
       inkscape:vp_x="0 : 526.18109 : 1"
       sodipodi:type="inkscape:persp3d" />
    <inkscape:perspective
       id="perspective2403"
       inkscape:persp3d-origin="372.04724 : 350.78739 : 1"
       inkscape:vp_z="744.09448 : 526.18109 : 1"
       inkscape:vp_y="0 : 1000 : 0"
       inkscape:vp_x="0 : 526.18109 : 1"
       sodipodi:type="inkscape:persp3d" />
    <inkscape:perspective
       sodipodi:type="inkscape:persp3d"
       inkscape:vp_x="0 : 526.18109 : 1"
       inkscape:vp_y="0 : 1000 : 0"
       inkscape:vp_z="744.09448 : 526.18109 : 1"
       inkscape:persp3d-origin="372.04724 : 350.78739 : 1"
       id="perspective3642" />
    <inkscape:perspective
       id="perspective3644"
       inkscape:persp3d-origin="372.04724 : 350.78739 : 1"
       inkscape:vp_z="744.09448 : 526.18109 : 1"
       inkscape:vp_y="0 : 1000 : 0"
       inkscape:vp_x="0 : 526.18109 : 1"
       sodipodi:type="inkscape:persp3d" />
    <inkscape:perspective
       id="perspective3646"
       inkscape:persp3d-origin="250 : 166.66667 : 1"
       inkscape:vp_z="500 : 250 : 1"
       inkscape:vp_y="0 : 1000 : 0"
       inkscape:vp_x="0 : 250 : 1"
       sodipodi:type="inkscape:persp3d" />
    <inkscape:perspective
       id="perspective3648"
       inkscape:persp3d-origin="500 : 400 : 1"
       inkscape:vp_z="1000 : 600 : 1"
       inkscape:vp_y="0 : 1000 : 0"
       inkscape:vp_x="0 : 600 : 1"
       sodipodi:type="inkscape:persp3d" />
    <inkscape:perspective
       sodipodi:type="inkscape:persp3d"
       inkscape:vp_x="0 : 526.18109 : 1"
       inkscape:vp_y="0 : 1000 : 0"
       inkscape:vp_z="744.09448 : 526.18109 : 1"
       inkscape:persp3d-origin="372.04724 : 350.78739 : 1"
       id="perspective2688" />
    <inkscape:perspective
       sodipodi:type="inkscape:persp3d"
       inkscape:vp_x="0 : 526.18109 : 1"
       inkscape:vp_y="0 : 1000 : 0"
       inkscape:vp_z="744.09448 : 526.18109 : 1"
       inkscape:persp3d-origin="372.04724 : 350.78739 : 1"
       id="perspective2616" />
    <inkscape:perspective
       id="perspective3162"
       inkscape:persp3d-origin="372.04724 : 350.78739 : 1"
       inkscape:vp_z="744.09448 : 526.18109 : 1"
       inkscape:vp_y="0 : 1000 : 0"
       inkscape:vp_x="0 : 526.18109 : 1"
       sodipodi:type="inkscape:persp3d" />
    <inkscape:perspective
       id="perspective3175"
       inkscape:persp3d-origin="250 : 166.66667 : 1"
       inkscape:vp_z="500 : 250 : 1"
       inkscape:vp_y="0 : 1000 : 0"
       inkscape:vp_x="0 : 250 : 1"
       sodipodi:type="inkscape:persp3d" />
    <inkscape:perspective
       id="perspective2620"
       inkscape:persp3d-origin="500 : 400 : 1"
       inkscape:vp_z="1000 : 600 : 1"
       inkscape:vp_y="0 : 1000 : 0"
       inkscape:vp_x="0 : 600 : 1"
       sodipodi:type="inkscape:persp3d" />
    <inkscape:perspective
       sodipodi:type="inkscape:persp3d"
       inkscape:vp_x="0 : 600 : 1"
       inkscape:vp_y="0 : 1000 : 0"
       inkscape:vp_z="1000 : 600 : 1"
       inkscape:persp3d-origin="500 : 400 : 1"
       id="perspective86" />
    <inkscape:perspective
       id="perspective3294"
       inkscape:persp3d-origin="372.04724 : 350.78739 : 1"
       inkscape:vp_z="744.09448 : 526.18109 : 1"
       inkscape:vp_y="0 : 1000 : 0"
       inkscape:vp_x="0 : 526.18109 : 1"
       sodipodi:type="inkscape:persp3d" />
    <inkscape:perspective
       id="perspective3405"
       inkscape:persp3d-origin="500 : 400 : 1"
       inkscape:vp_z="1000 : 600 : 1"
       inkscape:vp_y="0 : 1000 : 0"
       inkscape:vp_x="0 : 600 : 1"
       sodipodi:type="inkscape:persp3d" />
    <inkscape:perspective
       id="perspective3699"
       inkscape:persp3d-origin="300 : 250 : 1"
       inkscape:vp_z="600 : 375 : 1"
       inkscape:vp_y="0 : 1000 : 0"
       inkscape:vp_x="0 : 375 : 1"
       sodipodi:type="inkscape:persp3d" />
  </defs>
  <sodipodi:namedview
     id="base"
     pagecolor="#ffffff"
     bordercolor="#666666"
     borderopacity="1.0"
     gridtolerance="10000"
     guidetolerance="10"
     objecttolerance="10"
     inkscape:pageopacity="0.0"
     inkscape:pageshadow="2"
     inkscape:zoom="0.24748737"
     inkscape:cx="265.25237"
     inkscape:cy="550.95818"
     inkscape:document-units="px"
     inkscape:current-layer="layer1"
     showgrid="false"
     inkscape:window-width="1280"
     inkscape:window-height="1001"
     inkscape:window-x="-8"
     inkscape:window-y="-8"
     inkscape:window-maximized="1" />
  <metadata
     id="metadata7">
    <rdf:RDF>
      <cc:Work
         rdf:about="">
        <dc:format>image/svg+xml</dc:format>
        <dc:type
           rdf:resource="http://purl.org/dc/dcmitype/StillImage" />
      </cc:Work>
    </rdf:RDF>
  </metadata>
  <g
     inkscape:label="Layer 1"
     inkscape:groupmode="layer"
     id="layer1"
     transform="translate(-854.9281,-856.75958)">
    <rect
       style="fill:none;fill-opacity:1;stroke:#000000;stroke-width:25;stroke-miterlimit:4;stroke-dasharray:none;stroke-opacity:1"
       id="rect3717"
       width="1612.4932"
       height="622.6391"
       x="867.4281"
       y="869.25958"
       ry="44.651402" />
    <rect
       style="fill:#003399;fill-opacity:1;stroke:#ffffff;stroke-width:15;stroke-miterlimit:4;stroke-dasharray:none;stroke-opacity:1"
       id="rect2409"
       width="1612.4932"
       height="622.6391"
       x="867.4281"
       y="869.25958"
       ry="44.651402" />
    <g
       id="g3653"
       transform="translate(1126.5051,782.31377)"
       style="fill:#ffffff">
      <path
         d="M 1083.526,338.29921 C 1047.8655,338.64631 1023.8229,361.66628 1023.8229,361.66628 C 1023.8229,361.66628 995.99797,338.29921 965.97146,338.29921 C 934.08523,338.29921 910.80975,355.71499 905.11747,360.41792 L 905.11747,338.29921 L 845.46457,338.29921 L 845.46457,578.1638 L 905.11747,578.1638 L 905.11747,426.47595 C 907.28576,419.98214 916.33752,398.41529 941.34962,398.41529 C 973.97846,398.41529 978.98295,428.37298 978.98295,428.37298 L 979.98397,578.1638 L 1039.6369,578.1638 L 1039.8375,428.37298 C 1039.8375,428.37298 1046.4427,398.11545 1078.4713,398.11545 C 1104.4757,398.11545 1115.1247,425.22525 1116.1047,427.87422 L 1116.1047,578.1638 L 1175.7581,578.1638 L 1175.9582,428.37298 C 1173.8249,378.3202 1132.6945,339.14273 1083.526,338.29921 z"
         style="fill:#ffffff;fill-opacity:1;stroke:none;stroke-width:7;stroke-miterlimit:4;stroke-opacity:1"
         id="path3645" />
      <path
         d="M -23.293318,218.36692 C -23.293318,218.36692 -24.654846,244.74229 -39.237312,259.64152 C -53.818611,274.54074 -81.619099,277.96381 -81.619099,277.96381 L -81.619099,338.76881 L -23.293318,338.76881 L -23.293318,578.1638 L 37.556598,578.1638 L 37.556598,218.36692 L -23.293318,218.36692 z"
         style="fill:#ffffff;fill-opacity:1;stroke:none;stroke-width:7;stroke-miterlimit:4;stroke-opacity:1"
         id="path3647" />
      <path
         d="M 240.18986,218.38092 C 176.05745,220.36079 124.95,284.38294 124.95,363.55165 L 124.95,432.99249 C 124.95,513.41773 177.70541,578.1638 243.26525,578.1638 C 308.82452,578.1638 361.57993,513.41773 361.57993,432.99249 L 361.57993,363.55165 C 361.57993,283.12642 308.82452,218.38092 243.26525,218.38092 C 242.24089,218.38092 241.20779,218.34942 240.18986,218.38092 z M 243.26525,278.10965 C 275.76633,278.10965 301.94338,321.37287 301.94338,375.07505 L 301.94338,421.41893 C 301.94338,475.1211 275.76633,518.38433 243.26525,518.38433 C 210.76359,518.38433 184.58596,475.1211 184.58596,421.41893 L 184.58596,375.07505 C 184.58596,321.37287 210.76359,278.10965 243.26525,278.10965 z"
         style="fill:#ffffff;fill-opacity:1;stroke:none;stroke-width:7;stroke-miterlimit:4;stroke-opacity:1"
         id="path3649" />
      <path
         d="M 561.56755,218.38092 C 497.43515,220.36079 446.32768,284.38294 446.32768,363.55165 L 446.32768,432.99249 C 446.32768,513.41773 499.0831,578.1638 564.64295,578.1638 C 630.20221,578.1638 682.95763,513.41773 682.95763,432.99249 L 682.95763,363.55165 C 682.95763,283.12642 630.20221,218.38092 564.64295,218.38092 C 563.6186,218.38092 562.58549,218.34942 561.56755,218.38092 z M 564.64295,278.10965 C 597.14403,278.10965 623.32107,321.37287 623.32107,375.07505 L 623.32107,421.41893 C 623.32107,475.1211 597.14403,518.38433 564.64295,518.38433 C 532.14128,518.38433 505.96365,475.1211 505.96365,421.41893 L 505.96365,375.07505 C 505.96365,321.37287 532.14128,278.10965 564.64295,278.10965 z"
         style="fill:#ffffff;fill-opacity:1;stroke:none;stroke-width:7;stroke-miterlimit:4;stroke-opacity:1"
         id="path3651" />
    </g>
  </g>
</svg>
