<?xml version="1.0" encoding="UTF-8" standalone="no"?>
<!-- Created with Inkscape (http://www.inkscape.org/) -->
<svg
   xmlns:svg="http://www.w3.org/2000/svg"
   xmlns="http://www.w3.org/2000/svg"
   version="1.0"
   width="1393.9874"
   height="550.86523"
   id="svg2">
  <defs
     id="defs4" />
  <g
     transform="translate(359.74571,-151.55456)"
     id="layer1">
    <g
       transform="translate(22.857143,-862.85714)"
       id="g2709">
      <rect
         width="1370.0383"
         height="526.9162"
         rx="30.831863"
         ry="37.786812"
         x="-370.62833"
         y="1026.3862"
         id="rect2409"
         style="fill:#ffffff;fill-opacity:1;stroke:#000000;stroke-width:23.94905281;stroke-miterlimit:4;stroke-dasharray:none;stroke-opacity:1" />
      <g
         transform="translate(-29.700744,-672.28584)"
         id="g2696">
        <g
           transform="translate(2.6231863e-5,4.5177243)"
           id="g2672">
          <path
             d="M 817.38597,1885.478 L 891.04027,1778.8021 L 964.69447,1885.4781 L 817.38597,1885.478 z"
             id="path2457"
             style="fill:#000000;fill-opacity:1;stroke:none" />
          <path
             d="M 922.82036,1860.7508 L 922.82036,2136.4228 L 859.26008,2136.4228 L 859.26008,1860.7508 L 922.82036,1860.7508 z"
             id="rect2461"
             style="fill:#000000;fill-opacity:1;stroke:none" />
        </g>
        <g
           transform="translate(-1093.8973,4.5177243)"
           id="g2676">
          <path
             d="M 817.38597,1885.478 L 891.04027,1778.8021 L 964.69447,1885.4781 L 817.38597,1885.478 z"
             id="path2678"
             style="fill:#000000;fill-opacity:1;stroke:none" />
          <path
             d="M 922.82036,1860.7508 L 922.82036,2136.4228 L 859.26008,2136.4228 L 859.26008,1860.7508 L 922.82036,1860.7508 z"
             id="path2680"
             style="fill:#000000;fill-opacity:1;stroke:none" />
        </g>
        <g
           transform="translate(-3.5675049,1.2110243)"
           id="g2690">
          <path
             d="M 516.10237,1922.8163 L 516.10237,2075.2273 L 554.20509,2075.2273 L 554.20509,1984.7333 C 554.37569,1977.9901 556.70154,1972.3777 561.18267,1967.8967 C 565.66362,1963.4157 571.27583,1961.0899 578.0193,1960.9191 C 584.7626,1961.0899 590.37481,1963.4157 594.85594,1967.8967 C 599.33683,1972.3777 601.66274,1977.9901 601.83352,1984.7333 L 601.83352,2075.2273 L 639.93623,2075.2273 L 639.93623,1984.7333 C 640.10673,1977.9901 642.43258,1972.3777 646.91377,1967.8967 C 651.39465,1963.4157 657.00687,1961.0899 663.7504,1960.9191 C 670.49363,1961.0899 676.10583,1963.4157 680.58703,1967.8967 C 685.06792,1972.3777 687.39376,1977.9901 687.56462,1984.7333 L 687.56462,2075.2273 L 725.66733,2075.2273 L 725.66733,1979.9703 C 725.25752,1963.7864 719.67544,1950.3172 708.92119,1939.5625 C 698.16645,1928.8083 684.69715,1923.2261 668.51325,1922.8163 C 660.63797,1922.8664 653.27841,1924.3417 646.43468,1927.242 C 639.59058,1930.1425 633.56244,1934.1682 628.35017,1939.3191 C 623.92616,1934.2106 618.62667,1930.1969 612.45155,1927.2783 C 606.2762,1924.3598 599.5616,1922.8726 592.30781,1922.8163 C 584.44952,1922.8874 577.23872,1924.6176 570.67539,1928.0066 C 564.11193,1931.396 558.62187,1936.0184 554.20509,1941.8739 L 554.20509,1922.8163 L 516.10237,1922.8163 L 516.10237,1922.8163 z"
             id="path2558"
             style="font-size:144px;font-style:normal;font-weight:normal;line-height:125%;fill:#000000;fill-opacity:1;stroke:none;stroke-width:1px;stroke-linecap:butt;stroke-linejoin:miter;stroke-opacity:1;font-family:Drogowskaz" />
          <path
             d="M 356.70125,1960.9191 C 356.71594,1951.0071 357.54242,1941.3256 359.18066,1931.8744 C 360.81885,1922.4234 363.18029,1913.2635 366.26499,1904.3946 C 368.35339,1898.5798 371.94119,1893.8725 377.0284,1890.2727 C 382.11551,1886.6733 388.04067,1884.8203 394.80398,1884.7136 C 401.56704,1884.8203 407.49221,1886.6733 412.57949,1890.2727 C 417.66651,1893.8725 421.25426,1898.5798 423.34291,1904.3946 C 426.42742,1913.2635 428.7888,1922.4235 430.42716,1931.8744 C 432.06529,1941.3256 432.89177,1951.0071 432.90664,1960.9191 C 432.89177,1970.8312 432.06529,1980.5129 430.42716,1989.9638 C 428.7888,1999.4149 426.42742,2008.5747 423.34291,2017.4436 C 421.25426,2023.2584 417.66651,2027.9656 412.57949,2031.5654 C 407.49221,2035.165 401.56704,2037.018 394.80398,2037.1244 C 388.04067,2037.018 382.11551,2035.165 377.0284,2031.5654 C 371.94119,2027.9656 368.35339,2023.2584 366.26499,2017.4436 C 363.18029,2008.5747 360.81885,1999.4149 359.18066,1989.9638 C 357.54242,1980.5129 356.71594,1970.8312 356.70125,1960.9191 L 356.70125,1960.9191 z M 318.59854,1960.9191 C 318.67483,1973.2627 319.94317,1985.3158 322.40341,1997.0785 C 324.86365,2008.8412 328.05753,2020.2321 331.98509,2031.2514 C 336.86331,2044.3056 344.88864,2054.8412 356.06114,2062.858 C 367.23353,2070.875 380.14775,2074.998 394.80398,2075.2273 C 409.45995,2074.998 422.37424,2070.875 433.5468,2062.858 C 444.7192,2054.8412 452.74458,2044.3056 457.62291,2031.2514 C 461.55018,2020.2321 464.744,2008.8412 467.20442,1997.0785 C 469.66448,1985.3158 470.93274,1973.2627 471.00935,1960.9191 C 470.93281,1948.5756 469.66448,1936.5225 467.20442,1924.7596 C 464.744,1912.9971 461.55018,1901.6062 457.62291,1890.5867 C 452.74458,1877.5328 444.7192,1866.9972 433.5468,1858.9801 C 422.37424,1850.9635 409.45995,1846.8404 394.80398,1846.611 C 380.14775,1846.8404 367.23353,1850.9635 356.06114,1858.9801 C 344.88864,1866.9972 336.86331,1877.5328 331.98509,1890.5867 C 328.05753,1901.6062 324.86365,1912.9971 322.40341,1924.7596 C 319.94317,1936.5225 318.67483,1948.5756 318.59854,1960.9191 L 318.59854,1960.9191 z"
             id="path2684"
             style="font-size:144px;font-style:normal;font-weight:normal;line-height:125%;fill:#000000;fill-opacity:1;stroke:none;stroke-width:1px;stroke-linecap:butt;stroke-linejoin:miter;stroke-opacity:1;font-family:Drogowskaz" />
          <path
             d="M 22.837188,1884.7137 L 102.22804,1884.7137 L 102.22804,1846.611 L -12.080153,1846.611 L -21.605864,1960.9191 L 35.548224,1960.9191 C 46.329901,1961.1673 55.307213,1964.8387 62.480262,1971.9332 C 69.653088,1979.0279 73.376694,1988.0575 73.650949,1999.0219 C 73.376694,2009.9863 69.653088,2019.0159 62.480262,2026.1105 C 55.307213,2033.2051 46.32984,2036.8765 35.548224,2037.1245 C 33.444183,2037.1202 31.386116,2036.9574 29.374203,2036.6361 L -27.182169,2027.7179 L -30.349177,2065.8717 L 23.733063,2074.3106 C 27.588762,2074.9167 31.527129,2075.2221 35.548224,2075.2273 C 57.11176,2074.6716 75.066485,2067.2098 89.412513,2052.8419 C 103.75814,2038.4742 111.20523,2020.5339 111.7537,1999.0219 C 111.20523,1977.5098 103.75814,1959.5696 89.412513,1945.2018 C 75.066485,1930.834 57.11176,1923.3722 35.548224,1922.8163 C 30.041183,1922.8264 24.698079,1923.393 19.518915,1924.5162 L 22.837188,1884.7137 L 22.837188,1884.7137 z"
             id="path2686"
             style="font-size:144px;font-style:normal;font-weight:normal;line-height:125%;fill:#000000;fill-opacity:1;stroke:none;stroke-width:1px;stroke-linecap:butt;stroke-linejoin:miter;stroke-opacity:1;font-family:Drogowskaz" />
          <path
             d="M 179.65041,1960.9191 C 179.66509,1951.0071 180.49159,1941.3256 182.12983,1931.8744 C 183.76801,1922.4234 186.12945,1913.2635 189.21416,1904.3946 C 191.30255,1898.5798 194.89035,1893.8725 199.97757,1890.2727 C 205.06467,1886.6733 210.98983,1884.8203 217.75314,1884.7136 C 224.51621,1884.8203 230.44137,1886.6733 235.52865,1890.2727 C 240.61567,1893.8725 244.20341,1898.5798 246.29206,1904.3946 C 249.37658,1913.2635 251.73796,1922.4235 253.37632,1931.8744 C 255.01444,1941.3256 255.84094,1951.0071 255.8558,1960.9191 C 255.84094,1970.8312 255.01444,1980.5129 253.37632,1989.9638 C 251.73796,1999.4149 249.37658,2008.5747 246.29206,2017.4436 C 244.20341,2023.2584 240.61567,2027.9656 235.52865,2031.5654 C 230.44137,2035.165 224.51621,2037.018 217.75314,2037.1244 C 210.98983,2037.018 205.06467,2035.165 199.97757,2031.5654 C 194.89035,2027.9656 191.30255,2023.2584 189.21416,2017.4436 C 186.12945,2008.5747 183.76801,1999.4149 182.12983,1989.9638 C 180.49159,1980.5129 179.66509,1970.8312 179.65041,1960.9191 L 179.65041,1960.9191 z M 141.5477,1960.9191 C 141.62399,1973.2627 142.89234,1985.3158 145.35259,1997.0785 C 147.81282,2008.8412 151.0067,2020.2321 154.93426,2031.2514 C 159.81248,2044.3056 167.8378,2054.8412 179.0103,2062.858 C 190.18269,2070.875 203.09691,2074.998 217.75314,2075.2273 C 232.40912,2074.998 245.32339,2070.875 256.49597,2062.858 C 267.66836,2054.8412 275.69374,2044.3056 280.57208,2031.2514 C 284.49934,2020.2321 287.69316,2008.8412 290.15358,1997.0785 C 292.61364,1985.3158 293.88191,1973.2627 293.95852,1960.9191 C 293.88198,1948.5756 292.61364,1936.5225 290.15358,1924.7596 C 287.69316,1912.9971 284.49934,1901.6062 280.57208,1890.5867 C 275.69374,1877.5328 267.66836,1866.9972 256.49597,1858.9801 C 245.32339,1850.9635 232.40912,1846.8404 217.75314,1846.611 C 203.09691,1846.8404 190.18269,1850.9635 179.0103,1858.9801 C 167.8378,1866.9972 159.81248,1877.5328 154.93426,1890.5867 C 151.0067,1901.6062 147.81282,1912.9971 145.35259,1924.7596 C 142.89234,1936.5225 141.62399,1948.5756 141.5477,1960.9191 L 141.5477,1960.9191 z"
             id="path2688"
             style="font-size:144px;font-style:normal;font-weight:normal;line-height:125%;fill:#000000;fill-opacity:1;stroke:none;stroke-width:1px;stroke-linecap:butt;stroke-linejoin:miter;stroke-opacity:1;font-family:Drogowskaz" />
        </g>
      </g>
    </g>
  </g>
</svg>
