<?xml version="1.0" encoding="UTF-8" standalone="no"?>
<svg
   xmlns:dc="http://purl.org/dc/elements/1.1/"
   xmlns:cc="http://creativecommons.org/ns#"
   xmlns:rdf="http://www.w3.org/1999/02/22-rdf-syntax-ns#"
   xmlns:svg="http://www.w3.org/2000/svg"
   xmlns="http://www.w3.org/2000/svg"
   id="svg5518"
   version="1.1"
   viewBox="0 0 377.91293 125.9957"
   height="125.9957mm"
   width="377.91293mm">
  <defs
     id="defs5512" />
  <metadata
     id="metadata5515">
    <rdf:RDF>
      <cc:Work
         rdf:about="">
        <dc:format>image/svg+xml</dc:format>
        <dc:type
           rdf:resource="http://purl.org/dc/dcmitype/StillImage" />
        <dc:title></dc:title>
      </cc:Work>
    </rdf:RDF>
  </metadata>
  <g
     transform="translate(190.5353,72.796135)"
     id="layer1">
    <rect
       ry="0"
       rx="0"
       y="-70.163284"
       x="-187.90245"
       height="120.73"
       width="372.64722"
       id="rect6074"
       style="opacity:1;fill:#ffff00;fill-opacity:1;stroke:#000000;stroke-width:5.26570177;stroke-linecap:butt;stroke-linejoin:round;stroke-miterlimit:4;stroke-dasharray:none;stroke-dashoffset:0;stroke-opacity:1" />
    <path
       id="path6078"
       d="M -177.99346,40.993465 V -60.338101 h 5.97371 V 40.993463 Z"
       style="fill:#000000;stroke:none;stroke-width:0.30974713px;stroke-linecap:butt;stroke-linejoin:round;stroke-opacity:1" />
    <path
       id="path6080"
       d="m -84.682963,-6.7047997 h -67.369167 l 11.0624,5.3292801 -2.76561,5.1993259 -26.771,-13.7726838 27.04756,-13.3855025 2.65498,5.309951 -11.0624,5.365264 h 67.204068 z"
       style="fill:#000000;fill-opacity:1;stroke:#000000;stroke-width:0.30974713;stroke-linecap:butt;stroke-linejoin:round;stroke-miterlimit:4;stroke-dasharray:none;stroke-opacity:1" />
    <path
       style="fill:#000000;stroke:none;stroke-width:0.30974713px;stroke-linecap:butt;stroke-linejoin:round;stroke-opacity:1"
       d="M 175.04092,40.993465 V -60.338101 h -5.97371 V 40.993463 Z"
       id="path6082" />
    <path
       style="fill:#000000;fill-opacity:1;stroke:#000000;stroke-width:0.30974713;stroke-linecap:butt;stroke-linejoin:round;stroke-miterlimit:4;stroke-dasharray:none;stroke-opacity:1"
       d="m 81.730422,-6.7047997 h 67.369128 l -11.06239,5.3292801 2.7656,5.1993259 26.77102,-13.7726838 -27.04759,-13.3855025 -2.65496,5.309951 11.06238,5.365264 H 81.729592 Z"
       id="path6084" />
    <g
       transform="matrix(1.1706978,0,0,1.1706978,32.523973,-9.0810516)"
       id="text6124"
       style="font-style:normal;font-weight:normal;font-size:34.83486938px;line-height:332.61694336px;font-family:sans-serif;letter-spacing:0px;word-spacing:0px;fill:#000000;fill-opacity:1;stroke:none;stroke-width:0.87087184"
       aria-label="3,5 m">
      <path
         id="path6126"
         style="font-style:normal;font-variant:normal;font-weight:normal;font-stretch:normal;font-family:Drogowskaz;-inkscape-font-specification:Drogowskaz;stroke-width:0.87087184"
         d="M -75.787107,-0.03504195 V -3.6273879 q 0.544295,0.1632885 1.08859,0.1632885 1.360737,0 2.286038,-0.9253012 0.979731,-0.9797307 0.979731,-2.3404678 0,-1.3607371 -0.979731,-2.2860383 -0.925301,-0.9797307 -2.286038,-0.9797307 -1.360737,0 -2.340468,0.9797307 -0.925301,0.9253012 -0.925301,2.2860383 h -4.354359 q 0,-3.1569101 2.231609,-5.3885186 2.231609,-2.231609 5.388519,-2.231609 3.15691,0 5.388519,2.231609 2.231609,2.2316085 2.231609,5.3885186 0,2.5581857 -1.524026,4.5720766 2.612615,2.6126152 2.612615,6.3138201 0,3.6467754 -2.558185,6.2049607 -2.558186,2.503757 -6.150532,2.503757 -3.592346,0 -6.150532,-2.503757 -2.558185,-2.5581853 -2.558185,-6.2049607 h 4.354358 q 0,1.7961729 1.251878,3.1024805 1.306308,1.2518781 3.102481,1.2518781 1.796173,0 3.048051,-1.2518781 1.306308,-1.3063076 1.306308,-3.1024805 0,-1.796173 -1.306308,-3.0480511 -1.251878,-1.3063076 -3.048051,-1.3063076 -0.544295,0 -1.08859,0.16328845 z" />
      <path
         id="path6128"
         style="font-style:normal;font-variant:normal;font-weight:normal;font-stretch:normal;font-family:Drogowskaz;-inkscape-font-specification:Drogowskaz;stroke-width:0.87087184"
         d="M -60.900644,12.320451 V 7.9660921 h 4.354359 q 0,2.7759039 -1.469596,5.1163719 -1.415167,2.340467 -3.810064,3.592345 z" />
      <path
         id="path6130"
         style="font-style:normal;font-variant:normal;font-weight:normal;font-stretch:normal;font-family:Drogowskaz;-inkscape-font-specification:Drogowskaz;stroke-width:0.87087184"
         d="m -44.245223,-9.4513426 -0.381007,4.5720766 q 0.925302,-0.2177179 1.850603,-0.2177179 3.592346,0 6.150531,2.5581857 2.558186,2.55818573 2.558186,6.1505316 0,3.5923459 -2.558186,6.1505317 -2.558185,2.5581859 -6.150531,2.5581859 -0.653154,0 -1.360737,-0.108859 l -6.150532,-0.979731 0.326577,-4.3543586 6.477108,1.0341602 q 0.381007,0.05443 0.707584,0.05443 1.796173,0 3.048051,-1.2518781 1.306307,-1.2518781 1.306307,-3.1024806 0,-1.8506024 -1.306307,-3.10248052 -1.251878,-1.25187812 -3.048051,-1.25187812 h -6.531538 L -48.218576,-13.805701 H -35.1555 v 4.3543584 z" />
      <path
         id="path6132"
         style="font-style:normal;font-variant:normal;font-weight:normal;font-stretch:normal;font-family:Drogowskaz;-inkscape-font-specification:Drogowskaz;stroke-width:0.87087184"
         d="m -16.385626,-5.0969839 h 4.354359 v 2.1771793 q 1.632884,-2.1771793 4.3543582,-2.1771793 2.5037563,0 4.1366408,1.9050319 1.9050318,-1.9050319 4.5720766,-1.9050319 2.7214741,0 4.6265061,1.9050319 1.9050319,1.9050319 1.9050319,4.6265061 V 12.320451 H 3.2089879 V 1.9788489 q 0,-1.14301912 -0.8164422,-1.90503189 -0.7620128,-0.81644225 -1.90503203,-0.81644225 -1.14301912,0 -1.95946137,0.81644225 -0.7620127,0.76201277 -0.7620127,1.90503189 V 12.320451 H -6.5883191 V 1.9788489 q 0,-1.14301912 -0.8164423,-1.90503189 -0.7620127,-0.81644225 -1.9050319,-0.81644225 -1.1430187,0 -1.9594607,0.81644225 -0.762013,0.76201277 -0.762013,1.90503189 V 12.320451 h -4.354359 z" />
    </g>
  </g>
</svg>
